<svg id="Capa_1" data-name="Capa 1" xmlns="http://www.w3.org/2000/svg" viewBox="0 0 600 542.29"><defs><style>.cls-1{fill:#df2926;}</style></defs><path class="cls-1" d="M1116.31,139.48c33,17.71,96.71,12.29,145.1-36.12,48-48,66.15-118.17,20.77-165l0,0c-.22-.2-1-1-1.19-1.18,0,0,0,0,0,0-46.86-45.36-117-27.22-165,20.77C1067.55,6.31,1062.13,70,1079.83,103c-4.56,27.07-41.68,56.43-75,75.48-25.68-15.84-58.07-43.84-61.47-100.12a77.14,77.14,0,0,0-22.15-63.06c-1.58-1.58-6.13-5.42-6.13-5.42L789.66-87.81,778.23-76.39,914.35,51.3,899.59,66.07,767.71-65.81,755.6-53.71,887.46,78.18,875,90.64,743.14-41.21l-11,10.93L863.17,100.8l-15,15.07L720.8-18.95,708.3-6.41,812.4,124.76s2.48,2.54,3.53,3.48a77,77,0,0,0,53,18.95,2,2,0,0,1,.41.06c49.56.49,80.19,30.62,99.45,56.62C921.65,251,775.38,397.31,775.38,397.31l0,0a3.92,3.92,0,0,0-.47.38,30.52,30.52,0,0,0,0,43.15c.61.59,2.91,2.88,3.49,3.49a30.51,30.51,0,0,0,43.15,0,3.48,3.48,0,0,0,.38-.48l0,.05s135.83-135.84,187.91-187.9L1196.86,443l0,0a4.29,4.29,0,0,0,.35.49,30.09,30.09,0,0,0,42.54-42.57c-.18-.16-.36-.21-.5-.37l0,0S1087.57,248.7,1045.47,206.56C1064.48,175.57,1091.37,143.68,1116.31,139.48Zm-16.12-90.64a157.23,157.23,0,0,1,5-27.11c1.41-4.87,3.08-9.89,5.11-15a85.92,85.92,0,0,1,8-15c6.58-9.63,14.61-17.11,22.6-23.4a143.15,143.15,0,0,1,23-15.06,104.75,104.75,0,0,1,17.93-7.72,33.61,33.61,0,0,1,7.27-1.7s-2.21,1.67-5.51,4.75l-13.82,12.89c-11,10.72-26.64,24.63-37.74,39.77A76.24,76.24,0,0,0,1125,13.51c-2.26,4.27-4.28,8.68-6.11,13-3.8,8.67-6.94,17.07-9.65,24.31s-4.71,13.4-5.93,17.77-1.15,7-.93,7c-.11.17-1.74-2.35-2.23-7.17A93.9,93.9,0,0,1,1100.19,48.84Z" transform="translate(-708.3 88.98)"/></svg>