<svg width="144" height="288" viewBox="0 0 144 288" fill="none" xmlns="http://www.w3.org/2000/svg">
<path opacity="0.1" d="M55.1064 10.9614C37.6355 3.72467 18.9103 0 0 0V95.6167C6.35378 95.6167 12.6454 96.8682 18.5155 99.2997C24.3856 101.731 29.7193 105.295 34.2121 109.788C38.705 114.281 42.2688 119.614 44.7003 125.485C47.1318 131.355 48.3833 137.646 48.3833 144C48.3833 150.354 47.1318 156.645 44.7003 162.515C42.2688 168.386 38.705 173.719 34.2122 178.212C29.7194 182.705 24.3856 186.269 18.5155 188.7C12.6454 191.132 6.35378 192.383 0 192.383V288C18.9103 288 37.6355 284.275 55.1064 277.039C72.5773 269.802 88.4517 259.195 101.823 245.823C115.195 232.452 125.802 216.577 133.039 199.106C140.275 181.636 144 162.91 144 144C144 125.09 140.275 106.364 133.039 88.8936C125.802 71.4227 115.195 55.5483 101.823 42.1766C88.4517 28.805 72.5773 18.198 55.1064 10.9614Z" fill="#DF2926"/>
</svg>
