<svg width="144" height="288" viewBox="0 0 144 288" fill="none" xmlns="http://www.w3.org/2000/svg">
<path opacity="0.1" d="M88.8936 10.961C106.364 3.72436 125.09 -0.000305176 144 -0.000305176V95.6164C137.646 95.6164 131.355 96.8679 125.485 99.2994C119.614 101.731 114.281 105.295 109.788 109.788C105.295 114.28 101.731 119.614 99.2997 125.484C96.8682 131.354 95.6167 137.646 95.6167 144C95.6167 150.353 96.8682 156.645 99.2997 162.515C101.731 168.385 105.295 173.719 109.788 178.212C114.281 182.705 119.614 186.269 125.485 188.7C131.355 191.132 137.646 192.383 144 192.383V288C125.09 288 106.364 284.275 88.8936 277.038C71.4227 269.802 55.5483 259.195 42.1766 245.823C28.805 232.451 18.198 216.577 10.9613 199.106C3.72466 181.635 -1.26279e-05 162.91 0 144C0 125.089 3.72467 106.364 10.9613 88.8933C18.198 71.4224 28.805 55.548 42.1766 42.1763C55.5483 28.8047 71.4227 18.1977 88.8936 10.961Z" fill="#DF2926"/>
</svg>
