<svg width="257" height="258" viewBox="0 0 257 258" fill="none" xmlns="http://www.w3.org/2000/svg">
<path d="M45.72 34.5C39.45 39.7 33.25 44.98 26.91 50.1C24.03 52.43 22.45 51.47 22.17 47.81C21.64 40.98 21.59 40.99 14.88 40.98C12.05 40.98 9.20002 40.76 6.40002 41.03C1.75002 41.49 -0.619976 39.97 0.140024 34.97C0.290024 33.99 0.160024 32.98 0.160024 31.98C0.180024 22.33 -0.729976 23.21 9.06002 23.2C10.56 23.19 12.06 23.2 13.56 23.2C21.16 23.19 21.2 23.2 22.18 15.69C22.58 12.6 24.13 11.77 26.5 13.67C33.11 18.99 39.59 24.45 46.07 29.92C47.93 31.49 47.43 33.07 45.72 34.5Z" fill="#F7F9FA"/>
<path d="M224.85 133C225.75 159.55 220.52 185.19 213.37 210.55C209.44 224.48 204.46 238.04 199.42 251.6C197.81 255.94 195.66 257.81 191.1 257.08C189.15 256.77 187.12 256.97 185.12 256.94C170.04 256.91 154.96 256.88 139.89 256.85C132.03 256.86 124.17 256.86 116.31 256.86C101.24 256.89 86.16 256.91 71.08 256.94C59.2 257.3 59.15 257.32 54.92 246.44C45.07 221.13 37.48 195.17 33.48 168.27C31.75 156.62 30.5 144.85 31.35 133C31.87 117.29 35.64 102.54 44.28 89.23C52.5 73.08 59.4 56.46 62.53 38.47C64.36 27.98 65.31 17.45 64.12 6.86C63.6 2.24 64.97 0.450001 69.61 1.14C71.4 1.4 73.25 1.24 75.07 1.28H181.13C192.32 0.910001 192.44 0.920002 191.86 10.83C190.69 31.26 195.2 50.62 202.81 69.37C205.55 76.11 208.88 82.62 211.94 89.23C220.57 102.54 224.35 117.28 224.85 133Z" fill="#F7F9FA"/>
<path d="M256.07 35.34C256.66 39.73 254.82 41.38 250.44 41.04C246.63 40.75 242.78 41.15 238.97 40.94C235.41 40.74 233.66 41.84 233.96 45.69C234.1 47.54 234.88 50.03 232.53 51.04C230.27 52.02 228.91 49.83 227.44 48.64C221.9 44.12 216.49 39.44 210.95 34.92C208.63 33.01 208.28 31.35 210.77 29.31C216.81 24.35 222.77 19.29 228.8 14.33C229.9 13.43 231.01 12.09 232.75 13.05C234.42 13.97 234.19 15.66 233.98 17.06C233.17 22.4 235.73 23.76 240.54 23.26C243.67 22.93 246.89 23.47 250.01 23.13C254.94 22.6 256.74 24.64 256.07 29.36C255.93 30.34 256.05 31.36 256.05 32.35C256.05 33.35 255.93 34.36 256.07 35.34Z" fill="#F7F9FA"/>
<path d="M198.62 91.99C198.59 92.06 198.56 92.12 198.52 92.19C198.48 92.27 198.44 92.36 198.39 92.43C197.42 94.11 195.68 94.79 193.97 95.49C184.26 99.45 174.6 103.59 164.65 106.92C140.18 115.1 115.62 115.16 91.17 106.79C81.41 103.45 71.89 99.44 62.33 95.52C60.6 94.82 58.82 94.14 57.81 92.43C57.76 92.36 57.72 92.28 57.68 92.19C57.66 92.16 57.64 92.12 57.62 92.08C56.98 89.76 58.27 87.91 59.09 85.94C69.02 62.1 75.26 37.52 74.73 11.46C74.66 8.1 72.86 4.59 75.07 1.28H181.13C182.09 2.39 181.99 3.71 181.9 5.05C179.84 33.32 186.34 59.99 197.08 85.86C197.89 87.83 199.19 89.67 198.62 91.99Z" fill="#FCD6AC"/>
<path d="M119.52 246.77C119.09 250.28 119.64 254.22 116.31 256.86C101.24 256.89 86.16 256.91 71.08 256.94C69.24 255.3 68.7 253 67.98 250.8C57.91 220.28 50.55 189.16 47.95 157.07C47.3 149.11 46.35 140.93 48.81 132.98C48.82 132.96 48.82 132.94 48.83 132.92C48.86 132.9 48.9 132.88 48.93 132.86C52.57 130.67 56.62 131.58 60.45 131.66C72.07 131.9 83.52 133.42 94.48 137.52C98.32 138.95 102.33 140.22 105.05 143.65C105.11 143.79 105.17 143.93 105.23 144.07C105.34 144.31 105.44 144.56 105.54 144.81C113.2 162.96 117.11 182.07 119.5 201.51C121.35 216.56 121.35 231.69 119.52 246.77Z" fill="#FCD6AC"/>
<path d="M197.44 219.22C194.8 230.04 191.7 240.73 188.09 251.28C187.39 253.32 186.83 255.43 185.12 256.94C170.04 256.91 154.96 256.88 139.89 256.85C136.96 254.87 137.25 251.58 136.89 248.74C134.44 229.14 134.96 209.57 138.27 190.12C140.77 175.51 144.27 161.13 149.4 147.19C149.66 146.47 149.9 145.74 150.22 145.04C150.36 144.71 150.53 144.38 150.72 144.07C150.83 143.9 150.94 143.73 151.06 143.57C155.16 139.3 160.65 137.7 166.03 136.09C178.07 132.47 190.44 131.24 202.99 131.65C204.49 131.69 205.99 131.83 207.25 132.79C207.27 132.81 207.28 132.83 207.3 132.85C207.33 132.89 207.36 132.94 207.39 132.98C208.91 135.11 208.51 137.6 208.57 139.99C209.24 167.01 203.78 193.18 197.44 219.22Z" fill="#FCD6AC"/>
<path d="M137.2 237.72C137.55 244.14 138.35 250.57 139.89 256.85C132.03 256.86 124.17 256.86 116.31 256.86C119.7 239.97 119.72 223 118.3 205.88C116.76 187.42 112.38 169.63 106.94 152.03C106.11 149.35 105.11 146.71 104.18 144.06C104.54 144.05 104.89 144.05 105.23 144.07C110.42 144.33 113.94 147.94 117.78 150.89C117.91 151.15 118.03 151.42 118.15 151.68C118.26 151.9 118.36 152.11 118.45 152.33C122.59 161.39 125.08 171.05 128.06 181.02C131.21 171.18 133.55 161.42 137.73 152.34C137.83 152.12 137.93 151.9 138.04 151.68C138.15 151.42 138.28 151.17 138.4 150.91C142.19 148.02 145.66 144.47 150.72 144.07C151.14 144.05 151.57 144.04 152.02 144.05C141.09 174.33 135.4 205.45 137.2 237.72Z" fill="#BDA082"/>
<path d="M213.37 210.55C209.44 224.48 204.46 238.04 199.42 251.6C197.81 255.94 195.66 257.81 191.1 257.08C189.15 256.77 187.12 256.97 185.12 256.94C188.67 244.5 192.49 232.13 195.71 219.61C200.6 200.66 204.42 181.51 206.27 161.96C207.19 152.3 206.92 142.7 207.09 133.06C207.16 132.99 207.23 132.91 207.3 132.85C207.4 132.75 207.5 132.66 207.61 132.59C207.72 132.5 207.83 132.42 207.95 132.35C208.15 132.22 208.38 132.12 208.61 132.03C214.06 131.69 219.58 130.32 224.85 133C225.75 159.55 220.52 185.19 213.37 210.55Z" fill="#BDA082"/>
<path d="M71.08 256.94C59.2 257.3 59.15 257.32 54.92 246.44C45.07 221.13 37.48 195.17 33.48 168.27C31.75 156.62 30.5 144.85 31.35 133C36.63 130.32 42.14 131.69 47.6 132.01C47.84 132.1 48.06 132.2 48.26 132.34C48.38 132.4 48.5 132.49 48.61 132.58C48.72 132.66 48.82 132.76 48.93 132.86C48.99 132.92 49.05 132.99 49.11 133.06C48 159.68 52.26 185.67 58.4 211.42C61.71 225.31 65.41 239.1 70.1 252.61C70.58 254 70.76 255.49 71.08 256.94Z" fill="#BDA082"/>
<path d="M211.94 89.23C208.21 91.99 203.73 92.19 199.4 92.92C199.34 92.91 199.28 92.89 199.23 92.87C199.07 92.83 198.91 92.76 198.77 92.68C198.64 92.62 198.51 92.53 198.39 92.43C198.27 92.34 198.16 92.24 198.06 92.12C192.8 79.56 187.91 66.87 184.74 53.58C181.14 38.47 179.47 23.18 180.16 7.65999C180.26 5.51999 180.8 3.39999 181.13 1.27999C192.32 0.909993 192.44 0.919993 191.86 10.83C190.69 31.26 195.2 50.62 202.81 69.37C205.55 76.11 208.88 82.62 211.94 89.23Z" fill="#BDA082"/>
<path d="M64.23 76.88C62.36 82.02 60.18 87.04 58.15 92.12C58.04 92.24 57.93 92.34 57.81 92.43C57.69 92.53 57.57 92.61 57.43 92.67C57.29 92.76 57.14 92.82 56.98 92.86C56.93 92.88 56.87 92.9 56.81 92.91C52.48 92.18 48 91.99 44.28 89.23C52.5 73.08 59.4 56.46 62.53 38.47C64.36 27.98 65.31 17.45 64.12 6.86C63.6 2.24 64.97 0.450001 69.61 1.14C71.4 1.4 73.25 1.24 75.07 1.28C78.56 27.5 73.12 52.44 64.23 76.88Z" fill="#BDA082"/>
<path d="M45.72 34.5C39.45 39.7 33.25 44.98 26.91 50.1C24.03 52.43 22.45 51.47 22.17 47.81C21.64 40.98 21.59 40.99 14.88 40.98C12.05 40.98 9.20002 40.76 6.40002 41.03C1.75002 41.49 -0.619976 39.97 0.140024 34.97C0.290024 33.99 0.160024 32.98 0.160024 31.98C0.180024 22.33 -0.729976 23.21 9.06002 23.2C10.56 23.19 12.06 23.2 13.56 23.2C21.16 23.19 21.2 23.2 22.18 15.69C22.58 12.6 24.13 11.77 26.5 13.67C33.11 18.99 39.59 24.45 46.07 29.92C47.93 31.49 47.43 33.07 45.72 34.5Z" fill="#DF2926"/>
<path d="M256.07 35.34C256.66 39.73 254.82 41.38 250.44 41.04C246.63 40.75 242.78 41.15 238.97 40.94C235.41 40.74 233.66 41.84 233.96 45.69C234.1 47.54 234.88 50.03 232.53 51.04C230.27 52.02 228.91 49.83 227.44 48.64C221.9 44.12 216.49 39.44 210.95 34.92C208.63 33.01 208.28 31.35 210.77 29.31C216.81 24.35 222.77 19.29 228.8 14.33C229.9 13.43 231.01 12.09 232.75 13.05C234.42 13.97 234.19 15.66 233.98 17.06C233.17 22.4 235.73 23.76 240.54 23.26C243.67 22.93 246.89 23.47 250.01 23.13C254.94 22.6 256.74 24.64 256.07 29.36C255.93 30.34 256.05 31.36 256.05 32.35C256.05 33.35 255.93 34.36 256.07 35.34Z" fill="#DF2926"/>
<path d="M56.98 97.87C53.33 107.69 51.04 117.78 50.52 128.27C50.44 129.95 50.38 131.73 48.61 132.58C48.48 132.65 48.35 132.71 48.2 132.76C42.58 132.84 36.97 132.92 31.35 133C31.87 117.29 35.64 102.54 44.28 89.23C48.68 89.76 52.99 90.69 57.14 92.27C57.25 92.4 57.35 92.54 57.43 92.67C58.55 94.44 57.61 96.19 56.98 97.87Z" fill="#BF3A2B"/>
<path d="M224.85 133C219.24 132.92 213.62 132.84 208.01 132.76C207.87 132.71 207.73 132.65 207.61 132.59C205.84 131.73 205.77 129.95 205.69 128.26C205.17 117.78 202.88 107.69 199.23 97.87C198.6 96.19 197.67 94.45 198.77 92.68C198.86 92.54 198.96 92.41 199.07 92.27C203.22 90.69 207.53 89.75 211.94 89.23C220.57 102.54 224.35 117.28 224.85 133Z" fill="#BF3A2B"/>
<path d="M199.07 92.28C201.07 99.96 204.56 107.21 205.6 115.17C206.37 121.04 207.21 126.91 208.01 132.78C207.71 132.91 207.41 133.01 207.09 133.08C189.63 132.83 172.35 133.73 156.22 141.49C154.75 142.2 153.41 143.2 152.02 144.06C147.69 146.45 143.37 148.84 139.04 151.22C133.25 156.95 122.99 156.95 117.19 151.23C112.86 148.84 108.52 146.46 104.19 144.07C95.4 137.86 85.17 135.8 74.86 134.29C66.35 133.04 57.74 132.71 49.12 133.07C48.8 133 48.5 132.9 48.2 132.77C49.01 126.9 49.85 121.04 50.62 115.17C51.66 107.21 55.15 99.96 57.15 92.29C57.48 92.24 57.82 92.19 58.15 92.14C75.31 98.72 91.69 107.65 110.23 110.13C131.68 113 152.63 111.42 172.7 102.44C181.03 98.72 189.6 95.55 198.07 92.14C198.39 92.18 198.73 92.23 199.07 92.28Z" fill="#E54C3C"/>
<path d="M128.01 76.18C125.7 76.18 123.78 75.28 122.19 73.72C120.65 72.21 118.77 70.44 119.59 68.24C120.37 66.17 122.81 67.3 124.5 67.22C127.8 67.07 131.11 67.19 134.41 67.18C136.75 67.17 137.37 68.24 136.41 70.32C134.77 73.94 132.01 75.96 128.01 76.18Z" fill="#BFA283"/>
<path d="M117.18 151.22C124.47 154.85 131.75 154.85 139.03 151.21C135.5 162.32 131.36 173.24 128.1 184.61C124.85 173.25 120.68 162.34 117.18 151.22Z" fill="#2D3E50"/>
</svg>
