<svg width="257" height="229" viewBox="0 0 257 229" fill="none" xmlns="http://www.w3.org/2000/svg">
<path d="M250.81 187.95C239.72 189.94 228.63 191.96 217.46 194.89C225.18 196.66 232.9 198.42 240.61 200.2C246.85 201.64 247.39 202.82 246.5 208.68C245.71 213.86 242.47 213.59 238.81 212.94C228.68 211.11 218.57 209.23 208.44 207.38C207.63 207.23 206.8 207.19 205.97 207.09C206.02 207.92 205.97 208.76 206.12 209.56C208.31 221.82 202.33 228.61 189.83 228.01C187.19 228.45 184.55 228.45 181.9 228.02C177.26 228.04 172.61 228.05 167.96 228.06C165.6 228.43 163.24 228.47 160.88 228.04C150.53 228.03 140.19 228.03 129.84 228.02C127.2 228.49 124.56 228.48 121.92 228.04C105.26 228.04 88.6 228.03 71.95 228.02C63.62 228.02 55.28 228.03 46.95 228.03C35.45 228.98 24.46 227.86 14.83 220.61C-2.24001 207.74 -3.73001 184.89 11.58 169.95C12.4 169.14 13.18 168.28 13.98 167.45C13.98 151.33 13.99 135.2 14 119.08C13.82 118.77 13.81 118.45 13.96 118.12C12.92 103.76 13.76 89.38 13.55 75C13.51 72.06 13 69.06 13.98 66.15C13.84 65.83 13.85 65.52 14.02 65.21C13.95 61.74 13.81 58.26 13.83 54.78C13.89 45.75 18.37 40.37 27.25 39.39C30.39 39.04 31.17 37.96 31.02 35.13C30.82 31.49 30.92 27.84 30.88 24.19C29.95 23.92 29.02 23.65 28.08 23.37C27.06 23.07 26.17 22.4 26.15 21.38C26.06 15.12 26.01 8.87 26.09 2.62C26.12 0.51 27.76 -0.0200002 29.57 0.00999981C32.36 0.0499998 35.16 0.15 37.95 0.22C44.94 0.15 51.93 0.0899998 58.92 -1.91387e-07C60.78 -0.0200002 62.45 0.51 62.48 2.59C62.58 8.9 62.49 15.22 62.34 21.54C62.32 22.13 61.33 22.69 60.79 23.28C60.02 24.26 58.81 23.85 57.84 24.2C57.85 25.69 57.85 27.18 57.87 28.67C57.91 31.65 57.19 34.93 58.2 37.52C59.39 40.56 63.38 39.31 66.01 40.35C71.13 42.39 74.82 47.4 74.93 52.99C75.01 57.12 74.84 61.26 74.79 65.4C74.92 68.33 75.05 71.27 75.18 74.2C80.82 71.02 86.58 69.8 92.55 73.26C93.76 73.97 94.41 73.73 95.49 72.85C105.22 64.98 111.57 65.24 120.07 73.66C126.67 67.15 133.36 60.73 139.81 54.08C142.72 51.08 144.8 51.12 147.41 54.41C151.2 59.18 153.66 64.49 155.05 70.37C162.82 64.61 171.19 61.46 181.05 63.98C183.97 64.72 185.5 66.11 186.2 69.13C187.6 75.17 186.97 80.95 185.06 86.72C197.19 80.51 211.69 89.15 209.79 104.89C215.43 103.63 222.14 102.32 225.92 106.61C229.89 111.13 228.58 117.98 226.81 123.87C226.29 125.61 225.47 127.26 224.78 128.96C230.28 131.04 230.48 135.41 229.67 140.22C228.86 145.06 228.02 149.89 227.3 154.73C227.23 155.2 227.88 155.78 228.2 156.3C234.11 153.59 234.92 153.94 237.89 159.32C239.68 162.56 239.22 164.74 236.02 166.8C228.9 171.39 221.95 176.24 214.94 181C214.82 181.08 214.78 181.28 214.46 181.88C226.06 179.77 237.36 177.74 248.65 175.64C254.47 174.56 255.17 175.2 256.53 181.33C257.67 186.43 254.53 187.28 250.81 187.95Z" fill="#F7F9FA"/>
<path d="M229.67 140.22C228.86 145.06 228.02 149.89 227.3 154.73C227.23 155.2 227.88 155.78 228.2 156.3C228.21 157.62 227.42 158.47 226.41 159.07C218.48 163.76 210.62 168.55 202.59 173.07C201.9 173.46 201.12 173.69 200.31 173.68C200.17 173.68 200.02 173.67 199.87 173.65C199.82 173.64 199.77 173.64 199.72 173.63C198.95 173.4 198.43 172.89 198.07 172.18C198 171.93 197.92 171.68 197.84 171.43C197.74 171.1 197.64 170.78 197.53 170.47C194.12 160.42 188.14 157.94 177.4 161.91C168.36 165.25 159.4 168.83 150.37 172.18C150.3 172.2 150.24 172.22 150.17 172.24C150 172.29 149.82 172.34 149.65 172.39C147.56 173.01 145.52 173.77 143.54 174.68C143.38 174.75 143.22 174.82 143.07 174.9C142.97 174.94 142.86 174.99 142.76 175.04C130.8 179.64 118.8 184.13 106.84 188.75C105 189.46 103.18 190.5 101.1 189.56C101.06 189.44 101.03 189.32 100.99 189.2C100.98 189.15 100.96 189.11 100.95 189.07C97.3 177.42 89.74 168.95 79.45 162.7C79.31 162.62 79.17 162.53 79.03 162.45C79.03 162.44 79.02 162.44 79.02 162.43C76.51 156.96 71.04 157.05 66.31 155.74C65.15 155.68 64.18 155.44 63.37 155.05C62.9 154.83 62.48 154.55 62.12 154.21C60.91 153.13 60.25 151.5 59.98 149.41C59.45 145.29 58.49 141.22 58.44 137.06C58.39 132.92 59.41 130.89 62.31 130.11C63.19 129.88 64.25 129.76 65.5 129.73C69.03 129.64 72.56 129.64 76.09 129.66H76.35C78.88 129.66 81.42 129.68 83.95 129.68H148.09C150.25 129.68 152.41 129.68 154.56 129.67C154.69 129.68 154.81 129.68 154.93 129.67C158.63 129.68 162.33 129.68 166.03 129.67C166.17 129.68 166.3 129.68 166.43 129.67C178.67 129.68 190.91 129.67 203.14 129.67H215.07C217.39 129.67 219.73 129.94 222 129.16C222.91 128.88 223.83 128.69 224.78 128.96C230.28 131.04 230.48 135.41 229.67 140.22Z" fill="#E5E8EC"/>
<path d="M206.12 209.56C208.31 221.82 202.33 228.61 189.83 228.01C187.08 226.45 187.36 223.52 186.83 221.03C186.25 218.3 186.03 215.48 185.19 212.79C184.74 211.35 184.04 209.75 182.17 210.23C180.6 210.63 180.69 212.23 180.83 213.56C181.15 216.68 181.79 219.75 182.35 222.83C182.66 224.58 183.34 226.41 181.9 228.02C177.26 228.04 172.61 228.05 167.96 228.06C165.59 225.18 166.15 221.47 165.14 218.21C164.64 216.57 164.42 214.07 161.99 214.64C160.12 215.07 160.45 217.26 160.45 218.92C160.46 221.96 162.66 224.91 160.88 228.04C150.53 228.03 140.19 228.03 129.84 228.02C126.48 225.49 127.44 221.46 126.36 218.13C125.53 215.59 126.37 210.76 122.47 211.56C119.24 212.22 121.6 216.39 121.65 219C121.71 222.01 123.87 224.96 121.92 228.04C105.26 228.04 88.6 228.03 71.95 228.02C67.38 227.07 63.78 225.04 62.94 219.93C63 219.44 63.1 218.98 63.23 218.55C63.36 218.15 63.51 217.79 63.7 217.44C64.85 215.25 67.09 214.02 69.35 212.94C75.5 209.97 81.98 207.85 88.42 205.64C88.59 205.69 88.75 205.74 88.92 205.78C88.96 205.8 89.01 205.81 89.06 205.82C92.03 206.56 94.27 205.52 95.89 202.93C95.9 202.91 95.92 202.89 95.93 202.86C96.02 202.72 96.11 202.57 96.19 202.42C112.28 196.21 128.56 190.51 144.45 183.8C144.64 183.77 144.81 183.76 144.97 183.76C145.02 183.76 145.06 183.77 145.1 183.77C146.31 183.89 146.72 185.05 147.28 186.01C147.97 187.2 148.81 188.31 150.37 187.86C151.95 187.41 151.99 185.97 152.01 184.63C152.03 183.63 152.07 182.65 152.65 181.82C152.69 181.75 152.74 181.69 152.8 181.63C152.85 181.56 152.91 181.49 152.98 181.42C163.98 176.23 175.35 171.99 186.91 168.35C190.73 167.15 194.58 167.6 197.53 170.47C198.02 170.94 198.48 171.48 198.92 172.09C199.21 172.46 199.51 172.82 199.81 173.19C199.99 173.34 200.16 173.51 200.31 173.68C200.93 174.39 201.28 175.24 201.44 176.16C203.12 185.37 205.1 194.53 206.56 203.79C206.74 204.94 206.69 206.09 205.97 207.09C206.02 207.92 205.97 208.76 206.12 209.56Z" fill="#F6921E"/>
<path d="M101.07 188.97C101.04 189.05 101.02 189.13 100.99 189.2C99.63 192.91 95.89 192.47 93.06 193.65C92.86 193.73 92.65 193.82 92.46 193.93C92.43 193.94 92.41 193.95 92.38 193.96C90.75 194.56 89.2 195.37 87.59 196.01C87.44 196.08 87.29 196.14 87.13 196.2C87.11 196.2 87.09 196.21 87.07 196.22C83.11 197.51 79.26 199.09 75.41 200.67C65.58 204.71 63.17 207.78 63.7 217.44C63.74 218.28 63.8 219.17 63.89 220.11C65.05 224.3 68.64 226.01 71.95 228.02C63.62 228.02 55.28 228.03 46.95 228.03C30.14 226.44 18.09 212.18 16.23 198.42C14.58 186.28 19.01 176.26 27.88 168.06C28.75 167.26 29.81 166.71 31 166.56C31.16 166.53 31.33 166.52 31.49 166.51C31.64 166.56 31.79 166.62 31.92 166.68H31.93C34.37 167.73 32.51 169.42 32.04 170.8C30.82 174.41 31.43 175.38 35.26 175.04C39.82 174.65 43.97 172.92 47.71 170.36C50.24 168.63 52.4 168.62 54.97 170.4C58.54 172.88 62.53 174.59 66.95 174.92C71.15 175.23 72.12 174.01 70 170.58C68.13 167.58 68.78 165.81 71.94 165.14C74.45 164.6 76.4 162.54 79.02 162.43C79.24 162.41 79.47 162.42 79.7 162.44H79.71C91.07 167.87 99.11 175.97 101.07 188.97Z" fill="#EE5050"/>
<path d="M72.87 79.52C72.01 83.3 71.09 87.04 69.79 90.62C69.56 91.27 69.31 91.91 69.04 92.54C67.66 95.89 65.86 99.07 63.37 101.99C62.04 103.54 62.24 106.08 62.65 108.27C62.95 109.9 63.27 111.54 62.53 113.16C62.48 113.21 62.42 113.27 62.37 113.32C62.34 113.35 62.31 113.39 62.27 113.41C59.78 115.91 57.19 118.28 54 119.84C53.8 119.94 53.6 120.04 53.39 120.12C53.2 120.21 53 120.3 52.8 120.38C45.18 121.01 37.56 120.74 29.93 120.63C29.61 120.62 29.28 120.61 28.96 120.61H28.91C23.92 120.34 18.71 122.09 14 119.08C13.82 118.77 13.81 118.45 13.96 118.12C16.51 115.95 19.62 116.53 22.55 116.53C25.87 116.53 27.35 115.18 27.35 111.8C27.33 98.7 27.33 85.6 27.35 72.5C27.35 69.13 25.91 67.74 22.57 67.74C19.65 67.73 16.53 68.33 13.98 66.15C13.84 65.83 13.85 65.52 14.02 65.21C18.57 62.3 23.59 63.8 28.42 63.68C28.61 63.68 28.79 63.67 28.97 63.66C29.03 63.66 29.09 63.65 29.15 63.65C42.56 63.27 55.96 63.52 69.36 63.53C71.35 63.53 73.37 63.66 74.79 65.4C74.92 68.33 75.05 71.27 75.18 74.2C75.47 76.45 73.29 77.67 72.87 79.52Z" fill="#0B9D58"/>
<path d="M137.4 94.61C134.89 98.27 134.15 102.71 132.15 106.59C132.09 106.72 132.02 106.85 131.95 106.98C131.79 107.27 131.63 107.56 131.45 107.85C124.78 109.46 118.01 108.4 111.29 108.59C107.86 108.68 105.15 109.51 103.6 112.77C103.39 112.91 103.19 113.03 103 113.12C102.98 113.13 102.97 113.13 102.96 113.14C101.1 113.94 99.76 112.34 98.35 111.52C93.5 108.69 88.34 107.22 82.75 107.81C77.03 108.41 75.74 109.93 75.36 115.66C75.24 117.46 75.43 119.31 74.45 120.96C74.23 121.04 74.01 121.1 73.79 121.16C73.68 121.19 73.56 121.22 73.45 121.24C68.59 122.32 64.19 119.28 62.27 113.41C62.22 113.29 62.19 113.17 62.15 113.05C59.97 104.95 61.05 97.9 68.59 92.9C68.76 92.79 68.91 92.67 69.04 92.54C69.6 92.02 69.83 91.38 69.79 90.62C69.79 90.38 69.75 90.13 69.69 89.87C68.21 83.5 71.06 78.62 75.18 74.2C80.82 71.02 86.58 69.8 92.55 73.26C93.76 73.97 94.41 73.73 95.49 72.85C105.22 64.98 111.57 65.24 120.07 73.66C120.76 73.73 121.53 74.02 121.67 74.62C123.04 80.51 127.74 83.04 132.51 85.52C132.69 85.71 132.86 85.91 133.03 86.1C133.34 86.44 133.64 86.79 133.94 87.14C135.42 88.9 136.7 90.77 137.19 93.07C137.25 93.31 137.29 93.56 137.32 93.81C137.36 94.07 137.39 94.34 137.4 94.61Z" fill="#368B0E"/>
<path d="M250.81 187.95C239.72 189.94 228.63 191.96 217.46 194.89C225.18 196.66 232.9 198.42 240.61 200.2C246.85 201.64 247.39 202.82 246.5 208.68C245.71 213.86 242.47 213.59 238.81 212.94C228.68 211.11 218.57 209.23 208.44 207.38C207.63 207.23 206.8 207.19 205.97 207.09C203.61 196 201.28 184.91 199.87 173.65C199.85 173.5 199.83 173.34 199.81 173.19C209.27 167.56 218.73 161.93 228.2 156.3C234.11 153.59 234.92 153.94 237.89 159.32C239.68 162.56 239.22 164.74 236.02 166.8C228.9 171.39 221.95 176.24 214.94 181C214.82 181.08 214.78 181.28 214.46 181.88C226.06 179.77 237.36 177.74 248.65 175.64C254.47 174.56 255.17 175.2 256.53 181.33C257.67 186.43 254.53 187.28 250.81 187.95Z" fill="#89C847"/>
<path d="M74.79 65.4C59.51 65.34 44.23 65.27 28.95 65.2C28.76 64.69 28.58 64.19 28.42 63.68C26.2 56.82 26.83 50.19 31.09 44.08C33.08 41.23 35.85 39.83 39.02 39.17C40.22 38.91 41.48 38.77 42.78 38.69C46.49 38.47 50.44 39.99 53.93 37.87C54.19 37.72 54.45 37.54 54.7 37.34C55.93 34.63 55.12 31.75 55.48 28.98C55.72 27.16 55.13 24.84 57.84 24.2C57.85 25.69 57.85 27.18 57.87 28.67C57.91 31.65 57.19 34.93 58.2 37.52C59.39 40.56 63.38 39.31 66.01 40.35C71.13 42.39 74.82 47.4 74.93 52.99C75.01 57.12 74.84 61.26 74.79 65.4Z" fill="#A1DEF8"/>
<path d="M46.95 228.03C35.45 228.98 24.46 227.86 14.83 220.61C-2.24001 207.74 -3.73001 184.89 11.58 169.95C12.4 169.14 13.18 168.28 13.98 167.45C16.06 164.19 19.08 162.51 22.9 162.21C22.93 162.2 22.96 162.2 22.99 162.2C23.09 162.24 23.19 162.28 23.29 162.31C26.32 163.49 29.84 163.73 31.92 166.68H31.93C32.01 166.78 32.08 166.89 32.15 167C21.91 172.41 15.25 187.58 17.69 198.85C20.99 214.16 30.67 222.96 45.27 227.11C45.87 227.28 46.39 227.72 46.95 228.03Z" fill="#D64848"/>
<path d="M185.06 86.72C183.68 90.67 179.99 93.1 178.32 96.86C178.26 96.98 178.21 97.11 178.17 97.23C178.12 97.31 178.09 97.4 178.06 97.48C174.05 98.66 169.92 99.53 166.85 102.78C166.21 103.47 165.36 103.55 164.52 103.24C164.37 103.19 164.23 103.13 164.08 103.05C163.96 102.99 163.84 102.92 163.72 102.84C161.66 100.7 160.06 98.3 159.51 95.32C159.56 95.19 159.62 95.06 159.68 94.94C159.73 94.84 159.77 94.75 159.81 94.66C161.32 91.73 164.17 89.95 166.28 87.54C167.15 86.55 168.18 85.69 169.06 84.71C170.27 83.37 172.02 81.84 170.34 80.05C168.44 78.01 166.7 79.83 165.26 81.13C162.67 83.44 160.34 86.02 157.83 88.43C156.92 89.31 156.09 90.32 155.04 91.03C154.85 91.16 154.65 91.28 154.44 91.39C154.03 91.61 153.59 91.77 153.1 91.87C150.55 91.65 147.74 91.97 146.27 89.43C146.2 89.3 146.13 89.17 146.06 89.03C145.98 88.86 145.91 88.69 145.84 88.5C145.4 86.38 145.72 84.34 146.29 82.33C146.37 82.07 146.45 81.82 146.53 81.56C146.57 81.39 146.62 81.23 146.68 81.06C146.77 80.74 146.89 80.44 147.03 80.14C147.09 80.03 147.16 79.92 147.22 79.81C147.3 79.68 147.37 79.55 147.45 79.42C149.39 75.92 150.91 72.07 155.05 70.37C162.82 64.61 171.19 61.46 181.05 63.98C183.97 64.72 185.5 66.11 186.2 69.13C187.6 75.17 186.97 80.95 185.06 86.72Z" fill="#89C847"/>
<path d="M29.01 114.25C29.04 117.39 27.78 118.27 24.89 118.14C21.25 117.98 17.6 118.12 13.96 118.12C12.92 103.76 13.76 89.38 13.55 75C13.51 72.06 13 69.06 13.98 66.15C17.63 66.16 21.27 66.3 24.91 66.13C27.83 65.99 29.04 66.92 29.01 70.05C28.89 84.78 28.89 99.51 29.01 114.25Z" fill="#0B9D58"/>
<path d="M32.16 155.07C32.16 155.1 32.17 155.12 32.16 155.15C32.24 156.42 31.07 157.05 29.8 157.41C26.94 158.21 25.1 160.22 23.29 162.31C23.18 162.43 23.08 162.55 22.97 162.67C19.98 164.26 16.98 165.85 13.98 167.45C13.98 151.33 13.99 135.2 14 119.08C18.99 119.09 23.98 119.09 28.96 119.1C29.39 119.58 29.71 120.09 29.93 120.63C30.61 122.21 30.52 123.98 30.53 125.71C30.57 132.68 30.53 139.65 30.55 146.62C30.56 149.1 30.44 151.62 31.78 153.88C32.01 154.33 32.13 154.72 32.16 155.07Z" fill="#90C7DF"/>
<path d="M137.24 79.67C137.28 81.09 138.55 81.35 139.68 81.67C142.08 82.35 144.34 81.16 146.68 81.06C147.07 81.03 147.47 81.04 147.87 81.1C147.41 83.54 146.94 85.98 146.48 88.42V88.43C146.43 88.8 146.37 89.13 146.27 89.43C145.53 91.99 143.33 92.2 140.83 91.93C140.69 91.84 140.54 91.74 140.4 91.64C140.29 91.57 140.19 91.5 140.08 91.42C138.04 89.99 136.18 88.26 133.94 87.14C133.26 86.79 132.54 86.5 131.77 86.29C125.18 84.57 121.56 80.1 120.07 73.66C126.67 67.15 133.36 60.73 139.81 54.08C142.72 51.08 144.8 51.12 147.41 54.41C151.2 59.18 153.66 64.49 155.05 70.37C152.71 73.73 150.37 77.1 148.03 80.46C147.76 80.23 147.49 80.01 147.22 79.81C145.01 78.08 142.63 76.86 139.59 77.63C138.45 77.92 137.2 78.23 137.24 79.67Z" fill="#EE5050"/>
<path d="M62.34 21.54C62.32 22.13 61.33 22.69 60.79 23.28H60.78C53.2 24.96 45.6 25.78 37.93 23.82C37.66 23.65 37.42 23.46 37.2 23.25C36.94 23.02 36.72 22.76 36.54 22.49C36.06 21.81 35.78 21.01 35.69 20.13C35.09 14.69 35.19 9.24 35.6 3.8C35.72 2.22 36.53 0.99 37.95 0.22C44.94 0.15 51.93 0.0899998 58.92 -1.91387e-07C60.78 -0.0200002 62.45 0.51 62.48 2.59C62.58 8.9 62.49 15.22 62.34 21.54Z" fill="#DF2926"/>
<path d="M209.79 104.89C205.97 108.06 201.78 110.63 197.28 112.71C197.23 112.74 197.17 112.77 197.11 112.79C196.95 112.86 196.79 112.94 196.63 113.01C192.45 113.12 189.94 111.38 188.99 107.05C188.17 103.32 185.55 100.8 182.01 99.26C180.69 98.69 179.04 98.58 178.17 97.23C178.08 97.1 178 96.96 177.93 96.8C178.19 91.95 181.92 89.54 185.06 86.72C197.19 80.51 211.69 89.15 209.79 104.89Z" fill="#FEC402"/>
<path d="M226.81 123.87C226.29 125.61 225.47 127.26 224.78 128.96C224.46 129.33 224.14 129.7 223.82 130.07C219.08 131.27 214.25 130.27 209.49 130.6C208.57 130.64 208.04 130.46 207.82 130.11C207.77 130.05 207.73 129.98 207.72 129.9C207.68 129.83 207.67 129.75 207.67 129.67C207.63 129.25 207.81 128.71 208.13 128.11C209.09 126.34 210.76 125.16 211.97 123.59C212.9 122.39 213.89 120.98 212.71 119.59C211.46 118.09 210 119.13 208.72 119.89C207.23 120.77 206.14 122.39 204.21 122.45C204.16 122.46 204.1 122.46 204.05 122.46L204.04 122.45C201.17 119.63 198.98 116.33 197.11 112.79C197.05 112.69 197 112.58 196.94 112.47C200.81 109.24 204.72 106.08 209.79 104.89C215.43 103.63 222.14 102.32 225.92 106.61C229.89 111.13 228.58 117.98 226.81 123.87Z" fill="#89C847"/>
<path d="M56.82 39.04C54.56 41.19 51.73 40.26 49.27 40.06C32.6 38.74 27.96 45.55 28.95 60.73C29.01 61.7 28.99 62.68 28.97 63.66C28.97 64.17 28.96 64.68 28.95 65.2C23.97 65.21 19 65.21 14.02 65.21C13.95 61.74 13.81 58.26 13.83 54.78C13.89 45.75 18.37 40.37 27.25 39.39C30.39 39.04 31.17 37.96 31.02 35.13C30.82 31.49 30.92 27.84 30.88 24.19C34.27 25.12 33.36 28.02 33.48 30.25C33.88 37.54 33.81 37.34 41.2 37.65C45.42 37.82 49.77 36.77 53.93 37.87C54.9 38.12 55.87 38.5 56.82 39.04Z" fill="#90C7DF"/>
<path d="M57.84 24.2C55.74 29.02 57.46 34.11 56.82 39.04C50.89 39.08 44.95 39.05 39.02 39.17C37.99 39.19 36.96 39.22 35.93 39.25C32.92 39.34 31.97 38.28 31.86 35.26C31.72 31.58 33.18 27.69 30.88 24.19C29.95 23.92 29.02 23.65 28.08 23.37C30.87 21.04 33.7 21.19 36.54 22.49C37.02 22.71 37.51 22.96 37.99 23.24C45.59 23.25 53.18 23.26 60.78 23.28H60.79C60.02 24.26 58.81 23.85 57.84 24.2Z" fill="#48C0E0"/>
<path d="M37.99 23.24C37.73 23.24 37.46 23.25 37.2 23.25C34.15 23.29 31.12 23.33 28.08 23.37C27.06 23.07 26.17 22.4 26.15 21.38C26.06 15.12 26.01 8.87 26.09 2.62C26.12 0.51 27.76 -0.0200002 29.57 0.00999982C32.36 0.0499998 35.16 0.15 37.95 0.22C36.37 7.9 36.32 15.57 37.99 23.24Z" fill="#DF2926"/>
<path d="M189.83 228.01C187.19 228.45 184.55 228.45 181.9 228.02C181.05 223.34 180.29 218.64 179.32 213.98C178.75 211.28 178.77 208.82 181.95 208.17C185.21 207.5 186.24 210.02 186.78 212.57C187.87 217.7 188.82 222.86 189.83 228.01Z" fill="#FEC402"/>
<path d="M129.84 228.02C127.2 228.49 124.56 228.48 121.92 228.04C121.08 223.37 120.37 218.67 119.35 214.04C118.76 211.32 119.87 209.77 122.22 209.24C124.76 208.67 126.3 210.23 126.81 212.62C127.89 217.74 128.84 222.89 129.84 228.02Z" fill="#FEC302"/>
<path d="M167.96 228.06C165.6 228.43 163.24 228.47 160.88 228.04C160.23 224.8 159.44 221.59 158.96 218.33C158.58 215.75 158.83 212.91 161.95 212.37C164.94 211.85 165.8 214.51 166.25 216.82C166.96 220.54 167.4 224.31 167.96 228.06Z" fill="#FEC402"/>
<path d="M22.98 162.68C22.41 159.4 24.44 157.94 27.05 156.93C28.7 156.29 30.39 155.75 32.06 155.16C35.52 152.49 39.41 153.78 43.17 153.93C47.12 155.03 51.08 155.83 55.17 154.63C59.47 152.98 63.68 154.87 67.94 154.95C71 155.4 74.03 155.97 76.79 157.43C78.74 158.47 80.28 159.87 79.72 162.44C77.04 165.46 73.11 165.95 69.4 167.13C70.85 169.94 74.83 171.96 72.56 175.06C70.42 177.97 66.7 176.42 63.69 175.73C60.44 174.99 57.24 173.72 54.67 171.66C52.07 169.57 50.28 170.03 47.78 171.77C44.08 174.35 39.85 175.9 35.31 176.47C33.27 176.73 31.1 176.81 29.84 175.02C28.39 172.96 30.42 171.39 31.23 169.66C31.62 168.82 33.62 168.49 32.15 167.01C29.04 165.68 25.53 165.2 22.98 162.68Z" fill="#368B0E"/>
<path d="M91.92 193C94.83 191.34 98.42 191.21 101.08 188.97C113.61 185.39 125.44 179.89 137.7 175.58C139.4 174.98 141.14 174.46 142.85 173.9C145.65 176.84 146.91 180.1 144.98 184.04C140.66 188.63 134.4 189.11 129.02 191.38C119.45 195.42 109.63 198.89 99.89 202.51C98.69 202.95 97.31 202.88 96.01 203.05C93.14 200.31 93.75 196.16 91.92 193Z" fill="#DE851B"/>
<path d="M198.92 172.09C192.9 168.11 186.92 169.08 180.61 171.66C171.49 175.4 162.16 178.63 152.92 182.08C149.57 179.1 148.91 175.37 149.89 171.18C160.06 167.24 170.12 162.99 180.43 159.47C189.94 156.21 197.94 161.96 198.92 172.09Z" fill="#DE851B"/>
<path d="M67.93 154.95C63.66 155.2 59.33 154.75 55.12 155.9C53.38 154.67 53.84 152.68 53.4 150.99C53.07 149.71 52.73 148.22 51.05 148.36C49.63 148.47 49.73 149.95 49.32 150.99C48.69 152.6 50.02 155.93 46.11 154.87C42.58 148.36 42.44 141.22 42.84 134.2C43.12 129.39 47.18 128.53 51.32 128.66C59.47 128.38 67.62 128.41 75.77 128.65C81.06 128.32 86.35 128.57 91.65 128.63C95.01 128.33 98.36 128.73 101.72 128.64C104.13 128.41 106.54 128.67 108.95 128.68C112.54 128.5 116.12 128.52 119.71 128.68C122.08 128.6 124.45 128.54 126.82 128.63C129.17 128.83 131.52 128.46 133.87 128.69C136.51 128.58 139.15 128.57 141.78 128.69C143.84 128.51 145.9 128.81 147.96 128.63C150.35 128.51 152.74 128.61 155.13 128.67C158.82 128.49 162.51 128.45 166.19 128.64C178.28 128.35 190.38 128.47 202.47 128.54C204.32 128.93 206.44 128.41 207.89 130.14C213.19 130.13 218.5 130.11 223.8 130.1C222.21 131.96 220.06 131.13 218.17 131.13C167.7 131.17 117.22 131.16 66.75 131.16C59.97 131.16 59.35 131.82 59.98 138.65C60.24 141.45 60.82 144.22 61.06 147.02C61.45 151.36 62.62 154.9 67.93 154.95Z" fill="#CED0D4"/>
<path d="M149.89 171.18C150.9 174.81 151.91 178.45 152.92 182.08C153 182.88 152.93 183.74 153.2 184.48C154.15 187.02 153.08 188.8 150.83 189.46C148.27 190.21 146.54 188.86 145.91 186.19C145.73 185.44 145.3 184.75 144.98 184.04C144.97 180.51 143.5 177.3 142.85 173.9C144.99 172.47 147.37 171.64 149.89 171.18Z" fill="#FEC303"/>
<path d="M63.89 220.11C60.28 212.54 62.67 204.96 70.24 201.47C75.64 198.99 81.35 197.18 86.92 195.07C89.42 198.39 90.67 201.94 88.97 206.04C84.53 209.02 79.24 209.95 74.47 212.1C70.36 213.94 65.39 214.77 63.89 220.11Z" fill="#DE841B"/>
<path d="M88.97 206.04C88.29 202.38 87.61 198.73 86.92 195.07C88.59 194.38 90.25 193.69 91.92 193C96.52 195.03 94.5 199.76 96.01 203.05C94.81 208.47 93.54 209 88.97 206.04Z" fill="#FEC302"/>
<path d="M51.04 130.1C44.51 130.33 43.39 131.21 44.08 137.7C44.69 143.51 44.79 149.46 46.96 155.04C46.09 155.88 45.12 155.62 44.14 155.3C40.11 155.25 36.08 155.2 32.05 155.16C28.82 155.29 28.93 153.1 28.94 150.83C28.98 140.26 28.96 129.68 28.96 119.11C37.28 119.08 45.6 119.04 53.93 119.01C54.47 123.09 52.57 126.55 51.04 130.1Z" fill="#A1DEF8"/>
<path d="M51.04 130.1C50.69 126.06 52.22 122.51 53.93 119.01C56.33 116.56 58.86 114.28 62.15 113.05C65.27 116.87 68.3 120.81 73.79 121.27C75.94 123.85 77.04 126.73 76.26 130.13C67.86 130.12 59.45 130.11 51.04 130.1Z" fill="#FDC402"/>
<path d="M147.95 130.11C145.91 130.09 143.86 130.08 141.82 130.06C137.8 124.55 137.62 124.55 133.97 130.1C131.61 130.1 129.25 130.11 126.89 130.11C126.24 128.57 127.46 127.67 128.11 126.59C128.74 125.55 129.31 124.46 128.22 123.47C126.99 122.35 125.8 123.01 124.64 123.78C122.32 125.33 121.57 128.02 119.97 130.09C116.43 130.07 112.88 130.06 109.34 130.04C104.52 125.42 102.04 119.93 103 113.15C102.54 108.66 104.42 106.91 109.05 107.07C116.53 107.33 124.02 107.03 131.51 106.97C133.23 105.81 135.16 105.46 137.18 105.47C145.8 105.5 154.41 105.25 163.02 105.6C172.85 105.66 174.91 108.17 172.48 117.72C171.31 122.33 170.43 127.26 165.81 130.07C162.16 130.08 158.51 130.09 154.86 130.1C153.25 128.04 152.52 125.34 150.19 123.79C149.03 123.02 147.84 122.36 146.61 123.47C145.52 124.46 146.07 125.54 146.71 126.59C147.37 127.67 148.58 128.58 147.95 130.11Z" fill="#EE5050"/>
<path d="M103 113.17C104.09 119.18 106.27 124.79 109.34 130.06C106.93 130.06 104.51 130.06 102.1 130.06C98.38 128.62 96.21 125.31 93.37 122.81C92.04 121.64 90.54 119.77 88.75 121.62C87.2 123.23 89.04 124.57 89.96 125.89C90.84 127.15 92.67 128.02 91.78 130.07C86.61 130.09 81.44 130.11 76.27 130.13C75.28 127.22 73.85 124.44 73.8 121.27C73.8 120.28 73.81 119.28 73.82 118.29C73.88 107.81 77.9 104.6 88.37 106.41C93.89 107.35 98.73 109.59 103 113.17Z" fill="#89C847"/>
<path d="M164.3 106.95C153.37 106.96 142.44 106.97 131.51 106.98C131.43 101.97 133.54 97.87 136.75 94.21C137.23 91.89 139.17 91.63 141 91.2C143.27 91.14 145.24 90.49 146.48 88.42C148.26 91.31 151.56 89.92 153.96 91.06C157.17 90.68 158.94 92.41 160.02 95.17C161.36 97.56 162.7 99.95 164.03 102.34C164.92 103.84 165.42 105.35 164.3 106.95Z" fill="#F6921E"/>
<path d="M89.85 81.09C93.61 81.02 96.39 82.37 98.73 84.61C100.07 85.89 100.34 87.52 99.26 89.11C98.12 90.81 96.52 91.69 94.6 90.45C89.87 87.39 86.73 87.82 85.3 93.92C84.85 95.83 82.8 96.65 80.82 95.93C78.9 95.23 78.2 93.54 78.35 91.54C78.78 85.96 84.42 81.02 89.85 81.09Z" fill="#88C846"/>
<path d="M109.57 91.04C113.83 90.83 116.86 92.75 118.98 96.35C120.05 98.17 120.07 99.84 118.39 101.25C116.76 102.61 114.79 102.76 113.49 101.12C110.47 97.3 107.95 97.65 105.27 101.4C104.17 102.93 102.63 103.23 100.89 102.15C99.01 100.99 98.54 99.38 99.38 97.46C101.31 93.07 104.65 90.77 109.57 91.04Z" fill="#87C746"/>
<path d="M141 91.21C139.59 92.21 138.17 93.22 136.76 94.22C135.51 91.32 133.87 88.66 131.78 86.3C136.26 85.28 138.58 88.34 141 91.21Z" fill="#BE2C2D"/>
<path d="M164.3 106.95C164.21 105.41 164.13 103.88 164.04 102.34C164.83 102.56 165.65 102.83 166.26 102C169.18 98.08 173.3 96.88 177.92 96.8C184.97 97.68 189.58 101.44 190.83 108.52C191.51 112.39 195.12 110.84 196.92 112.47C200.49 114.84 202.63 118.25 204.05 122.19C205.81 125.15 205.91 127.86 202.9 130.13C190.53 130.11 178.17 130.1 165.8 130.08C168.2 125.78 170.37 121.41 171.39 116.5C173.1 108.39 172.55 107.55 164.3 106.95Z" fill="#368B0E"/>
<path d="M160.03 95.18C158.01 93.81 155.99 92.44 153.96 91.07C157.77 87.13 161.53 83.14 165.42 79.28C167.2 77.51 169.37 76.51 171.5 78.77C173.55 80.95 172.77 82.91 170.77 84.78C167.15 88.19 163.61 91.71 160.03 95.18Z" fill="#D3E761"/>
<path d="M147.88 81.1C145.05 84.02 141.46 83.32 138.04 82.99C136.51 82.84 135.41 81.58 135.13 79.95C134.9 78.64 135.73 77.74 136.66 77.02C139.97 74.46 146.29 76.39 148.04 80.46C148.05 80.69 148 80.9 147.88 81.1Z" fill="#C0282D"/>
<path d="M137.5 73.08C135.65 72.96 134.63 71.51 134.52 69.51C134.4 67.28 139.76 62.13 141.94 62.21C144.21 62.3 145.2 63.79 145.32 65.78C145.44 68.03 140.08 73.14 137.5 73.08Z" fill="#C0272D"/>
<path d="M202.92 130.14C204.27 127.63 203.76 124.86 204.07 122.2C205.72 120.82 207.29 119.33 209.04 118.1C210.61 116.99 212.52 116.42 214.02 118.08C215.54 119.77 215.35 121.81 213.9 123.51C211.98 125.78 209.92 127.93 207.91 130.12C206.25 130.12 204.58 130.13 202.92 130.14Z" fill="#D3E761"/>
<path d="M44.14 155.3C45.08 155.21 46.02 155.13 46.96 155.04C48.35 153.69 47.67 151.95 47.75 150.39C47.88 147.99 48.54 146.03 51.33 146.17C53.9 146.29 54.94 148.07 54.99 150.52C55.03 152.32 55.08 154.11 55.12 155.91C51.35 157.85 47.75 156.55 44.14 155.3Z" fill="#8AC84C"/>
<path d="M91.77 130.07C90.7 128.83 89.67 127.54 88.54 126.35C86.84 124.54 85.42 122.58 87.54 120.33C89.71 118.03 91.71 119.32 93.48 121.14C96.36 124.11 99.22 127.09 102.09 130.06C98.66 130.06 95.21 130.06 91.77 130.07Z" fill="#D4E861"/>
<path d="M119.97 130.11C119.14 125.78 122.49 123.85 125.11 121.72C126.74 120.39 128.58 121.12 129.95 122.71C131.35 124.34 130.76 125.74 129.49 127.11C128.59 128.08 127.76 129.12 126.9 130.13C124.58 130.12 122.28 130.11 119.97 130.11Z" fill="#C0272D"/>
<path d="M147.95 130.11C146.98 128.98 146.02 127.83 145.03 126.71C143.87 125.4 143.72 124.08 144.9 122.69C146.11 121.27 147.81 120.41 149.3 121.49C152.2 123.58 155.62 125.56 154.87 130.1C152.56 130.11 150.26 130.11 147.95 130.11Z" fill="#C0272D"/>
<path d="M133.97 130.11C133.75 127.45 134.13 124.64 137.21 124.43C140.69 124.19 141.89 126.86 141.82 130.07C139.2 130.08 136.58 130.09 133.97 130.11Z" fill="#C32A2F"/>
<path d="M156.05 120.19C154.2 120.31 151.17 120.35 151.21 116.94C151.26 112.62 154.93 113.19 157.9 113.1C160.56 113.02 163.59 113.35 163.56 116.45C163.51 120.71 159.74 120.12 156.05 120.19Z" fill="#C0282E"/>
<path d="M117.8 120.19C115 120.09 111.79 120.69 111.98 116.61C112.16 112.79 115.3 113.23 117.89 113.12C120.91 112.99 123.96 113.44 123.76 117.26C123.55 121.31 119.95 119.79 117.8 120.19Z" fill="#C0272D"/>
</svg>
