<svg width="96" height="96" viewBox="0 0 96 96" fill="none" xmlns="http://www.w3.org/2000/svg">
<circle cx="48" cy="48" r="48" fill="#DF2925"/>
<mask id="mask0_349_2792" style="mask-type:alpha" maskUnits="userSpaceOnUse" x="0" y="0" width="96" height="95">
<ellipse cx="48" cy="47.2131" rx="48" ry="47.2131" fill="#DF2925"/>
</mask>
<g mask="url(#mask0_349_2792)">
<path d="M103.503 23.149C103.037 27.6508 102.598 32.157 102.049 36.6501C101.768 38.9691 100.556 40.8006 98.3555 41.7141C97.2618 42.1665 96.8841 42.7287 96.7568 43.9101C95.4128 56.3967 93.9766 68.8745 92.5931 81.3522C92.435 82.7928 92.1232 84.106 90.34 83.8952C88.4119 83.6712 88.5129 82.1867 88.6754 80.7154C88.9741 77.9616 89.22 75.199 89.4923 72.4408C87.7926 73.7584 87.0284 75.7919 85.702 77.4082C78.8329 85.7706 70.3123 91.4846 59.8241 94.2121C58.2825 94.6162 56.7146 94.906 55.1554 95.2486C54.2814 95.2574 53.4073 95.2618 52.5289 95.2706C49.7136 96.1358 46.85 95.6966 44.0084 95.5429C42.1549 95.4419 40.3191 95.0729 38.4744 94.8182C37.842 94.2824 36.8494 94.6381 36.274 93.9442C31.2232 93.1404 26.7169 90.9883 22.4742 88.2433C17.744 85.1909 13.4749 81.6157 10.1853 76.9734C9.93495 76.622 9.41669 75.4142 8.99945 76.9514C9.09168 78.1109 9.14439 79.2792 9.28054 80.4343C9.45183 81.8793 9.00384 82.9861 7.47102 83.1442C5.9382 83.3067 5.29257 82.2746 5.12567 80.8559C4.09354 72.2344 3.05702 63.6128 2.01611 54.9912C1.44075 50.2127 0.808299 45.4386 0.31639 40.6468C0.197805 39.4874 -0.509313 39.0481 -1.28231 38.5079C-4.57634 36.2153 -6.79871 33.3736 -6.47809 29.0387C-6.23214 25.7227 -5.48549 22.7669 -2.03774 21.4273C1.41879 20.0877 4.3922 20.8959 6.77708 23.7639C9.4694 19.587 12.5131 15.6957 16.2375 12.3797C22.0438 7.20589 28.6011 3.42435 36.274 1.75977C40.1697 0.231339 44.2807 0.156674 48.3741 0.0161288C49.6082 -0.0233995 50.8424 0.0117368 52.0766 0.0117368C59.5957 0.876968 66.6889 2.95879 73.1671 7.01264C79.9397 11.2466 85.4165 16.719 89.5406 23.553C89.7602 23.9176 90.0413 24.247 90.2961 24.594C90.7045 23.777 90.6474 22.8855 90.7221 22.0202C90.8187 20.9793 90.8363 19.7539 92.2901 19.8945C93.634 20.0262 93.4144 21.2033 93.3222 22.1388C93.0411 24.9717 92.7073 27.8001 92.435 30.633C92.3472 31.5378 91.9914 32.706 93.4056 32.8905C94.8418 33.0794 94.7847 31.8364 94.8901 30.9492C95.2942 27.6157 95.6368 24.2733 95.9925 20.9354C96.1111 19.8374 96.0584 18.5637 97.723 18.7789C99.2427 18.9765 98.9308 20.0965 98.8122 21.1418C98.417 24.6203 98.0524 28.1076 97.701 31.5949C97.622 32.3854 97.4771 33.3385 98.6585 33.4307C99.7565 33.5142 99.8927 32.6797 99.9805 31.8189C100.288 28.8411 100.609 25.8633 100.969 22.8898C101.079 21.9587 101.166 20.8388 102.572 21.0672C103.846 21.2692 103.591 22.3013 103.503 23.149Z" fill="#F7F9FA"/>
<path d="M93.4937 43.8545C92.5714 51.8304 91.7105 59.8107 90.819 67.7911C90.7706 68.2259 90.6257 68.6431 90.4544 69.0472C90.2524 69.4117 90.0503 69.7719 89.8395 70.132C89.6902 70.3999 89.5321 70.6635 89.374 70.927C81.6352 83.9186 70.3608 92.0615 55.1556 94.7933C55.0941 94.8065 55.0282 94.8197 54.9624 94.8284C54.9536 94.8284 54.9492 94.8328 54.9404 94.8328C54.0883 94.9646 53.2319 95.0656 52.3755 95.1447C52.1471 95.1666 51.9187 95.1886 51.6903 95.2062C51.4443 95.2281 51.1984 95.2457 50.9524 95.2633C46.8942 95.3116 42.8403 95.3028 38.826 94.5913C38.7118 94.5166 38.5932 94.4595 38.4746 94.4156C38.4615 94.4112 38.4527 94.4068 38.4395 94.4024C37.7456 94.1477 36.955 94.2575 36.2742 93.9456C31.2234 93.1419 26.7172 90.9898 22.4744 88.2448C17.7442 85.1923 13.4752 81.6172 10.1855 76.9748C9.93518 76.6235 9.41692 75.4156 8.99968 76.9529C7.98512 76.6542 8.06417 75.7494 7.97194 74.9896C6.59284 63.5659 5.13468 52.151 3.82586 40.7186C3.69849 39.5722 3.78633 38.5006 4.59886 37.6485C7.827 34.2711 8.66149 30.3665 7.24725 25.9482C7.18577 25.5133 7.20773 25.1049 7.29117 24.7184C7.30874 24.6174 7.3351 24.5207 7.36584 24.4241C7.62497 23.5238 8.18715 22.7376 8.7142 21.947C15.4823 11.8102 24.71 5.10794 36.4367 1.92811C36.5378 1.89737 36.6388 1.87101 36.7398 1.84466C36.8364 1.81831 36.9374 1.79196 37.0341 1.76561C41.1274 0.685165 45.2911 0.228393 49.5206 0.224001C50.3683 0.224001 51.2599 0.465563 52.0768 0.0131836C59.596 0.878415 66.6891 2.96024 73.1674 7.01409C79.9399 11.248 85.4168 16.7205 89.5409 23.5545C89.7605 23.919 90.0416 24.2484 90.2963 24.5954C91.671 27.0901 90.3929 29.5848 90.2085 32.0575C90.0811 33.7352 89.9801 35.4042 90.0899 37.0732C90.1821 38.5313 91.1088 39.625 92.1805 40.5473C93.2082 41.4301 93.6474 42.5193 93.4937 43.8545Z" fill="#DF2925"/>
<path d="M7.47102 83.1456C5.9382 83.3081 5.29257 82.276 5.12567 80.8574C4.09354 72.2358 3.05702 63.6142 2.01611 54.9927C1.44075 50.2141 0.8083 45.44 0.316391 40.6483C0.197806 39.4888 -0.509312 39.0496 -1.28231 38.5094C-4.57634 36.2167 -6.79871 33.3751 -6.47809 29.0401C-6.23214 25.7241 -5.48549 22.7683 -2.03774 21.4287C1.41879 20.0892 4.3922 20.8973 6.77708 23.7653C7.11966 23.9058 7.26899 24.1474 7.36561 24.4241C7.46663 24.7228 7.49738 25.0609 7.62475 25.3464C7.6511 25.4035 7.68184 25.4606 7.71698 25.5133C9.57042 30.3138 8.62174 34.5126 4.99391 38.1273C4.502 38.6192 4.23409 39.1155 4.32632 39.8577C5.8284 52.0939 7.31291 64.3301 8.8062 76.562C8.82377 76.6981 8.93357 76.8211 8.99945 76.9528C9.09169 78.1123 9.14439 79.2806 9.28054 80.4357C9.45183 81.8807 9.00384 82.9875 7.47102 83.1456Z" fill="#DF2925"/>
<path d="M103.503 23.1504C103.037 27.6523 102.598 32.1585 102.049 36.6515C101.768 38.9705 100.556 40.802 98.3555 41.7156C97.2618 42.1679 96.8841 42.7301 96.7568 43.9116C95.4128 56.3981 93.9766 68.8759 92.5931 81.3537C92.435 82.7943 92.1232 84.1075 90.34 83.8967C88.4119 83.6727 88.5129 82.1882 88.6754 80.7168C88.9741 77.963 89.22 75.2004 89.4923 72.4422C89.3035 71.9196 89.2903 71.4189 89.3737 70.927C89.4572 70.4 89.6417 69.8861 89.8173 69.3678C90.5508 63.219 91.2843 57.0701 92.0134 50.9213C92.1847 49.4719 92.2593 48.0137 92.4921 46.5775C92.9137 43.9819 93.3705 41.5794 90.5772 39.7084C89.1805 38.7685 89.1673 36.7657 89.3298 35.0353C89.6592 31.5568 89.9755 28.0739 90.2961 24.5954C90.7045 23.7785 90.6474 22.8869 90.7221 22.0217C90.8187 20.9808 90.8363 19.7554 92.2901 19.8959C93.634 20.0277 93.4144 21.2048 93.3222 22.1403C93.0411 24.9731 92.7073 27.8016 92.435 30.6345C92.3472 31.5392 91.9914 32.7075 93.4056 32.892C94.8418 33.0808 94.7847 31.8379 94.8901 30.9507C95.2942 27.6171 95.6368 24.2748 95.9925 20.9368C96.1111 19.8388 96.0584 18.5651 97.723 18.7803C99.2427 18.978 98.9308 20.098 98.8122 21.1433C98.417 24.6218 98.0524 28.109 97.7011 31.5963C97.622 32.3869 97.4771 33.34 98.6585 33.4322C99.7565 33.5156 99.8927 32.6811 99.9805 31.8203C100.288 28.8425 100.609 25.8647 100.969 22.8913C101.079 21.9602 101.166 20.8402 102.572 21.0686C103.846 21.2706 103.591 22.3028 103.503 23.1504Z" fill="#DF2925"/>
<path d="M89.4923 72.4422C87.7926 73.7598 87.0284 75.7934 85.702 77.4096C78.8328 85.7721 70.3123 91.4861 59.8241 94.2136C58.2825 94.6176 56.7145 94.9075 55.1554 95.2501C55.028 95.1051 54.9621 94.969 54.9621 94.8284C54.9577 94.6835 55.0236 94.5386 55.1554 94.3936C70.2728 91.653 81.4329 83.3477 89.1893 70.2374C89.3694 69.93 89.6065 69.6577 89.8173 69.3678C89.8217 69.6226 89.8349 69.8773 89.8393 70.132C89.8613 70.9138 89.8437 71.6956 89.4923 72.4422Z" fill="#DF2925"/>
<path d="M36.7135 2.20479C24.5212 5.50761 15.2057 12.671 8.45071 23.2734C8.01151 23.9586 7.69089 24.6745 7.71724 25.5133C7.6865 25.4562 7.65575 25.4035 7.62501 25.3464C7.51521 25.1356 7.40101 24.9292 7.29121 24.7184C7.11992 24.4021 6.94863 24.0859 6.77734 23.7653C9.46966 19.5885 12.5133 15.6971 16.2378 12.3811C22.0441 7.20732 28.6014 3.42578 36.2743 1.7612C36.5642 1.65579 36.7003 1.69971 36.7398 1.84465C36.7662 1.93249 36.753 2.05547 36.7135 2.20479Z" fill="#DF2925"/>
<path d="M52.5285 95.272C49.7132 96.1373 46.8496 95.6981 44.008 95.5443C42.1545 95.4433 40.3186 95.0744 38.474 94.8197C38.3466 94.7274 38.3027 94.6308 38.3466 94.5342C38.373 94.4639 38.4037 94.42 38.4388 94.4024C38.4476 94.3936 38.4608 94.3892 38.474 94.3892C42.7035 95.0261 46.9594 94.7933 51.2065 94.8284C51.5052 95.1974 52.0147 94.9426 52.3748 95.1447C52.4319 95.171 52.4802 95.2149 52.5285 95.272Z" fill="#E4F2F6"/>
<path d="M52.077 0.0131711C51.506 0.676369 50.7286 0.443591 50.0259 0.439199C45.5065 0.426023 41.0749 1.02334 36.7136 2.2048C36.6214 2.11256 36.5335 2.02033 36.4369 1.9281C36.3842 1.871 36.3315 1.8183 36.2744 1.7612C40.1702 0.232773 44.2811 0.158108 48.3745 0.0175632C49.6086 -0.0219652 50.8428 0.0131711 52.077 0.0131711Z" fill="#DF2925"/>
<path d="M55.1555 94.3936V95.2501C54.2815 95.2588 53.4074 95.2632 52.529 95.272C52.2479 95.2545 51.9493 95.2808 51.6902 95.2061C51.5057 95.149 51.3388 95.0392 51.207 94.8284C52.5466 94.8943 53.873 94.8153 55.1555 94.3936Z" fill="#D9EEF4"/>
<path d="M38.4748 94.3892V94.824C37.8424 94.2838 36.8498 94.6396 36.2744 93.9456C37.0167 94.051 37.8555 93.6646 38.4748 94.3892Z" fill="#E6F2F6"/>
<path d="M46.9158 33.3136C46.9158 40.8503 46.8675 48.3827 46.9553 55.9194C46.9729 57.5884 46.459 58.0056 44.8428 57.9969C33.8671 57.931 22.8913 57.9178 11.92 58.01C10.2555 58.0232 9.80746 57.3161 9.52637 55.9502C5.02893 33.9548 19.4348 12.8423 41.6366 8.89826C45.1531 8.27459 46.9114 9.75617 46.9114 13.343C46.9114 20.0013 46.9114 26.6553 46.9114 33.3136H46.9158Z" fill="#8AC681"/>
<path d="M49.4153 68.1512C49.4153 62.4548 49.4637 56.7539 49.3846 51.0574C49.3626 49.5422 49.7799 49.0634 51.3347 49.0722C62.8067 49.1337 74.2787 49.1337 85.7463 49.0722C87.3274 49.0634 87.7183 49.5466 87.6129 51.0706C86.37 69.2976 71.3843 84.9332 53.1266 86.9843C50.6495 87.2625 49.411 86.1718 49.411 83.7122C49.411 78.5252 49.411 73.3382 49.411 68.1512H49.4153Z" fill="#F5AA43"/>
<path d="M68.5598 46.5819C62.9292 46.5819 57.303 46.5336 51.6724 46.6127C50.0561 46.6346 49.3665 46.3228 49.3841 44.4737C49.472 33.072 49.4456 21.6703 49.4061 10.2686C49.4017 8.91583 49.6608 8.22628 51.2112 8.39318C60.8342 9.41653 69.2537 13.0707 76.1272 19.9442C82.8866 26.7036 86.51 34.9869 87.608 44.4342C87.7881 45.9802 87.4324 46.6566 85.6624 46.6214C79.9615 46.5117 74.2606 46.5819 68.5598 46.5819Z" fill="white"/>
<path d="M28.7943 60.1665C34.135 60.1665 39.4758 60.206 44.8165 60.1401C46.2878 60.1226 46.8807 60.4959 46.8676 62.0946C46.7973 69.9212 46.8017 77.7478 46.8632 85.5744C46.8763 87.0897 46.2966 87.4894 44.9087 87.3356C35.5317 86.2991 27.2966 82.6493 20.5373 76.1096C16.4307 72.1348 13.2377 67.3958 11.3008 61.9189C10.8397 60.6145 11.0197 60.1182 12.557 60.1401C17.9679 60.2148 23.3833 60.1709 28.7987 60.1709L28.7943 60.1665Z" fill="#F7C9D5"/>
<path d="M0.500502 37.1522C-0.123168 37.3411 -0.6019 37.4158 -0.729269 37.0776C-0.948871 36.5066 -0.496491 36.5725 -0.153912 36.7043C0.0305538 36.7745 0.184275 36.9283 0.500502 37.1522Z" fill="white"/>
<path d="M92.4617 39.5547C89.8353 37.587 90.2438 34.8113 90.4721 32.0794C90.8279 34.4951 91.2188 36.8975 92.4881 39.0452C92.6198 39.1638 92.6594 39.2824 92.6067 39.3922C92.5584 39.502 92.51 39.5547 92.4617 39.5547Z" fill="#DF2925"/>
<path d="M92.4609 39.5547C92.4697 39.3834 92.4785 39.2165 92.4873 39.0452C92.8562 39.3614 93.2208 39.682 93.7083 40.0993C92.9441 40.3672 92.7069 39.9543 92.4609 39.5547Z" fill="#DF2925"/>
<path d="M44.1666 34.315C44.3467 37.3762 42.6426 39.7347 41.1493 42.1284C38.5141 46.3579 35.6329 50.3898 31.2979 53.1129C29.9803 53.9386 28.6232 54.5842 27.0069 54.5227C24.3234 54.4217 22.8477 52.0544 23.9632 49.5949C24.3937 48.6374 25.0217 47.8556 25.9133 47.289C29.954 44.7241 32.8703 41.1402 35.3035 37.0776C36.4235 35.2066 37.7235 33.441 38.9401 31.6271C40.8199 31.3064 43.4551 32.6592 44.171 34.315H44.1666Z" fill="#00834E"/>
<path d="M22.2726 35.1231C20.7222 36.265 19.0928 37.0029 17.2217 35.8873C15.7899 35.0309 14.8105 33.7001 15.2278 32.0663C15.9568 29.229 17.8147 26.9935 20.1249 25.2937C21.3898 24.367 23.1027 25.834 24.2402 25.4958C25.4261 25.14 26.2518 23.4974 27.8285 23.3305C29.4667 23.1548 34.1223 25.6583 34.9085 27.1252C36.3579 29.8351 34.4912 32.6284 31.004 32.9666C28.6103 34.2711 26.3352 36.0367 23.3135 34.8815C23.0061 34.763 22.602 34.965 22.2682 35.1187L22.2726 35.1231Z" fill="#00834E"/>
<path d="M22.2725 35.1231C22.6765 34.6927 22.5667 33.4014 23.6779 34.1349C25.729 35.4876 27.4463 34.4379 29.0142 33.3268C29.7433 32.8129 30.3055 32.87 31.0038 32.971C29.9937 35.1802 28.6585 37.284 29.3744 39.9412C29.5457 40.5736 28.8342 41.0919 28.1183 41.228C27.2794 41.3861 26.5283 41.0348 26.401 40.253C25.9837 37.7276 23.8141 36.6954 22.2725 35.1275V35.1231Z" fill="#FCFDFC"/>
<path d="M44.1665 34.315C43.4901 33.8099 43.1739 32.4835 41.8914 33.3663C41.685 33.5112 41.2106 33.4366 41.2194 33.094C41.2545 31.3152 39.7964 31.9521 38.9355 31.627C39.4582 30.7838 40.4025 30.5642 41.2106 30.4983C42.6073 30.3841 43.6877 29.9756 44.5266 28.5921C43.0026 30.5246 45.4489 32.4747 44.1665 34.315Z" fill="#F4F9F6"/>
<path d="M57.3296 58.1769C57.2945 54.593 59.1171 52.621 61.9324 52.2476C66.9833 51.5801 70.901 53.5301 73.9535 57.4215C75.1173 58.906 76.2197 60.4651 77.1509 62.1034C77.7877 63.2189 78.407 63.32 79.4128 62.7402C79.8476 62.4899 80.379 62.4152 80.8402 62.2044C81.4726 61.9145 81.9777 62.0287 82.3686 62.5865C82.8781 63.3112 82.25 63.7372 81.8152 63.9963C79.953 65.09 78.7232 66.3724 79.6104 68.7661C79.7905 69.2492 79.4391 69.9607 78.7847 70.1408C78.0688 70.3384 77.5681 69.8158 77.5066 69.2492C77.1069 65.4677 74.3136 66.3197 71.9726 66.3461C68.2394 66.3856 64.4974 66.4998 61.2956 64.093C59.0601 62.4108 57.5536 60.2675 57.3252 58.1857L57.3296 58.1769Z" fill="#E95442"/>
<path d="M61.2252 79.1269C59.0994 79.0874 56.9825 79.0566 54.9314 78.4154C52.406 77.6248 51.2992 76.1579 51.4178 73.8082C51.5803 70.5449 52.5817 69.2185 55.2476 68.4806C57.8345 67.7647 60.316 66.7018 63.1357 67.1367C67.1544 67.7559 70.4221 70.6898 70.6066 73.9882C70.7296 76.1974 69.7677 77.6204 67.699 78.31C67.0095 78.5384 66.3024 78.7712 65.5865 78.8458C64.1371 78.9952 62.679 79.0435 61.2208 79.1313L61.2252 79.1269Z" fill="#FEFEFE"/>
<path d="M56.0427 38.9178L56.1394 38.8475L56.0955 38.7377C55.4235 37.7978 54.9711 36.7877 55.138 35.5887C55.1204 35.2768 55.1029 34.965 55.0853 34.6532C54.264 34.1569 54.5758 33.3355 54.4968 32.6284C54.2684 31.5436 54.0971 30.428 52.9727 29.8351L52.9991 29.8614C52.1075 29.0226 52.2963 27.8104 51.9362 26.787C51.844 26.2424 51.8703 25.6934 51.9055 25.1444C52.4018 23.8004 53.245 22.9001 54.7778 22.8605C55.2127 22.8342 55.6519 22.8078 56.0867 22.7815C56.9695 22.0085 58.1114 22.2017 59.1391 21.9777C59.5652 21.9602 59.9956 21.9426 60.4216 21.925C61.4669 21.051 62.846 21.376 64.0055 20.9149C65.0684 20.7655 66.0654 20.9456 66.9921 21.4946C67.1546 21.6615 67.3171 21.824 67.484 21.9909C67.9144 22.6585 68.033 23.4403 68.2834 24.1738C68.4942 25.3728 69.0564 26.6113 67.932 27.6786C67.8705 27.7884 67.8442 27.907 67.8529 28.0344C67.8617 28.6185 67.9627 29.1895 68.1077 29.7516C67.954 30.5334 68.5205 31.1264 68.6611 31.8291C68.1692 33.7879 67.91 35.8302 66.5661 37.4728C65.1343 37.9164 63.7069 38.3688 62.174 38.2239C62.0247 38.2414 61.871 38.2546 61.7217 38.2722C61.1243 38.8124 60.3909 38.8871 59.6354 38.8783C58.4452 39.1418 57.255 39.6469 56.0515 38.9222L56.0427 38.9178Z" fill="#FEFEFE"/>
<path d="M66.5701 37.3235C67.1455 35.4437 67.7165 33.5683 68.2918 31.6885C68.0239 31.1571 68.428 30.9902 68.7749 30.7926C69.1219 29.2729 70.9226 29.6638 71.6254 28.6185C71.8362 28.6493 71.968 28.7678 72.0426 28.9655C72.0119 29.9844 71.498 31.0078 72.0558 32.0267C72.1129 32.6197 72.1349 33.217 72.2974 33.8011C72.4203 34.4424 72.4379 35.088 72.4467 35.738C72.4379 36.959 72.6224 38.1888 72.1744 39.3746C72.1041 39.6601 71.9416 39.928 71.9416 40.2354C71.9767 40.0993 72.0207 39.9675 72.0734 39.827C72.4994 38.3952 73.3558 37.2137 74.1288 35.984C74.5329 35.4306 75.0292 34.9606 75.5035 34.4687C75.9911 34.0032 76.4566 33.52 76.9529 33.0589C77.5063 32.6548 77.8709 32.075 78.332 31.5831C78.8415 31.3767 79.0699 31.6798 79.228 32.0926C81.1868 35.8083 77.3965 44.0302 73.3822 44.7812C70.053 45.4049 67.1894 43.3274 66.6448 39.8665C66.5438 39.2253 66.5482 38.5621 66.5043 37.9121C66.3022 37.6925 66.3242 37.4948 66.5658 37.3235H66.5701Z" fill="#7F4F21"/>
<path d="M74.4893 25.9525C74.4981 25.7813 74.5025 25.61 74.5113 25.4431C75.2052 24.7535 76.0704 24.7799 76.9445 24.8458C77.511 25.039 77.2914 26.0755 78.1435 25.9789C78.3016 26.6377 79.1141 27.2877 78.1523 27.9509C77.8448 28.0827 77.5198 28.1222 77.186 28.0959C76.3252 27.9377 75.5039 27.6874 74.8187 27.112C74.5288 26.7782 74.2697 26.4357 74.4893 25.9569V25.9525Z" fill="#EAE1D5"/>
<path d="M74.4895 25.9525C74.6432 26.26 74.7969 26.5674 74.9507 26.8705C75.447 27.6742 74.7881 28.1398 74.4192 28.6888C74.103 29.0489 73.8263 29.4574 73.3212 29.5848C72.7722 29.554 72.1178 29.6902 72.0563 28.8337C71.8894 28.1969 72.4472 27.7884 72.5658 27.2438C72.9347 26.6597 73.5803 26.3874 74.0547 25.9218C74.1996 25.9262 74.3446 25.935 74.4851 25.9525H74.4895Z" fill="#E8DFD3"/>
<path d="M79.2281 32.0882C78.9909 31.9389 78.7537 31.794 78.5122 31.6446C78.0422 31.3723 77.9412 30.9112 77.8753 30.428C77.827 29.8351 77.8665 29.251 78.051 28.68C78.2179 28.2276 78.5429 27.9026 78.9118 27.6127C79.6453 29.0577 79.2105 30.5905 79.2325 32.0838L79.2281 32.0882Z" fill="#AC8247"/>
<path d="M67.9229 27.6742C68.3225 26.4971 68.2127 25.3113 67.9887 24.1211C68.0985 23.9322 68.1117 23.6599 68.4104 23.6335C68.5773 25.0214 70.1672 26.5762 67.9229 27.6698V27.6742Z" fill="#A07743"/>
<path d="M66.5707 37.3235C66.5488 37.5212 66.5312 37.7144 66.5093 37.912C65.0555 37.9472 63.6896 39.1155 62.1699 38.2239C63.6369 37.9252 65.1038 37.6222 66.5707 37.3235Z" fill="#8A5C2B"/>
<path d="M52.9678 29.8351C55.0101 29.7912 54.3425 31.4602 54.6587 32.5099C54.505 32.7119 54.3557 32.7119 54.2063 32.5099C53.7935 31.6183 53.3806 30.7267 52.9722 29.8351H52.9678Z" fill="#A88251"/>
<path d="M54.7693 22.8561C53.6449 23.3437 52.6962 24.0332 52.178 25.1927C51.8749 25.1268 51.8574 24.8413 51.7432 24.6261C52.38 23.3964 53.052 22.2369 54.7693 22.8561Z" fill="#8C6030"/>
<path d="M63.975 21.1081C62.8814 21.7801 61.5594 21.4683 60.4131 21.9207C61.0455 20.4537 62.4949 21.1125 63.5358 20.7172C63.7291 20.7919 63.8784 20.9237 63.9706 21.1081H63.975Z" fill="#9F794E"/>
<path d="M56.043 38.9178C57.2113 38.8475 58.3839 38.7817 59.5522 38.7114C59.7015 38.7992 59.7542 38.8915 59.7059 38.9837C59.6576 39.0759 59.6049 39.1242 59.5566 39.1242C58.3532 39.5898 57.1454 40.1256 56.043 38.9178Z" fill="#986E3D"/>
<path d="M59.1345 21.9734C58.2297 22.6761 57.0395 22.2852 56.082 22.7771C56.8462 21.5517 57.953 21.622 59.1345 21.9734Z" fill="#885A2A"/>
<path d="M52.1467 26.6904C52.4278 27.7489 52.7089 28.803 52.99 29.8614C51.466 29.4925 52.0896 28.109 51.7295 27.1911C51.8481 27.011 51.87 26.7431 52.1467 26.6904Z" fill="#966C3F"/>
<path d="M63.9748 21.1081C63.8299 20.9764 63.685 20.849 63.54 20.7172C64.7478 20.7085 66.1313 19.9267 66.9834 21.4902C65.982 21.3629 64.9762 21.2355 63.9748 21.1081Z" fill="#865727"/>
<path d="M55.1339 35.5887C55.4546 36.6384 55.7752 37.6881 56.0914 38.7378C54.686 38.0175 54.6069 36.8975 55.1339 35.5887Z" fill="#9A7142"/>
<path d="M77.0274 25.2498C76.1534 24.8721 75.3408 25.2893 74.5107 25.4431C74.9895 23.9498 76.1314 24.5646 77.102 24.6261C77.2865 24.8589 77.2602 25.0653 77.0318 25.2498H77.0274Z" fill="#906436"/>
<path d="M78.9072 27.6171C78.7799 27.9202 78.6481 28.2232 78.5207 28.5263C78.0859 28.4033 77.7697 28.2144 78.0596 27.6918C78.7579 27.0418 77.8487 26.5323 77.9102 25.935C78.0552 25.7505 78.1957 25.7637 78.3319 25.9482C78.7052 26.4401 78.9204 26.9891 78.9116 27.6127L78.9072 27.6171Z" fill="#845627"/>
<path d="M74.0592 25.9218C74.0021 26.8441 73.194 26.9012 72.5967 27.2043L72.6099 27.2218C72.6318 26.2732 73.1633 25.8954 74.0592 25.9262V25.9218Z" fill="#8A5D2B"/>
<path d="M59.5566 39.1199C59.5566 38.9837 59.5566 38.8476 59.5566 38.707C60.2769 38.5621 60.9972 38.4127 61.7175 38.2678C61.3837 39.5327 60.3209 38.9398 59.561 39.1199H59.5566Z" fill="#8A5D2F"/>
<path d="M78.3274 25.9481H78.1166L77.9058 25.935C77.124 26.3303 77.1855 25.6495 77.0273 25.2498C77.0493 25.0434 77.0757 24.8326 77.0976 24.6261C77.7301 24.8633 78.2308 25.2191 78.3274 25.9525V25.9481Z" fill="#9C7447"/>
<path d="M68.411 23.6336C68.2705 23.7961 68.1299 23.9586 67.9894 24.1211C67.8357 23.4052 67.2998 22.7815 67.4799 21.9865C68.3364 22.2237 68.3583 22.9396 68.4154 23.6336H68.411Z" fill="#825426"/>
<path d="M68.7749 30.7926C68.6123 31.0912 68.4498 31.3899 68.2917 31.6885C67.8042 31.0034 67.8964 30.1996 67.8174 29.431C67.9755 29.2861 68.1292 29.2905 68.2785 29.4486C68.4015 29.9142 68.2434 30.4807 68.7749 30.7926Z" fill="#875929"/>
<path d="M68.2742 29.4486C68.1205 29.4442 67.9668 29.4354 67.8131 29.431C67.3563 28.9523 67.2948 28.4867 67.8438 28.03C68.3137 28.4033 68.3577 28.9084 68.2742 29.4486Z" fill="#AB8658"/>
<path d="M72.609 27.2218L72.5959 27.2043C72.4729 27.7533 72.3499 28.3023 72.2269 28.8513C72.104 28.9216 72.0952 29.1675 71.9107 29.1016C71.8448 29.0797 71.8492 28.8776 71.8229 28.7547C71.757 28.7107 71.6911 28.6668 71.6252 28.6185C71.5022 27.8367 72.1698 27.6083 72.609 27.2218Z" fill="#865827"/>
<path d="M54.2021 32.5055C54.3515 32.5055 54.5052 32.5055 54.6545 32.5055C54.8829 33.2038 54.5403 34.0163 55.0806 34.6532C53.8069 34.3369 54.4393 33.2433 54.2021 32.5055Z" fill="#8D6133"/>
<path d="M52.1473 26.6904C52.0068 26.8573 51.8662 27.0242 51.7301 27.1911C51.5588 26.3346 51.4666 25.4826 51.7433 24.6261C51.8882 24.815 52.0331 25.0039 52.1781 25.1927C52.1693 25.6934 52.1561 26.1897 52.1473 26.6904Z" fill="#865727"/>
<path d="M31.4689 65.3711C32.3517 65.4589 32.1848 66.816 33.173 66.7809C33.2784 66.9742 33.2784 67.4221 33.6473 66.9785C34.7849 67.6637 34.8244 68.5333 34.4599 69.7719C33.9723 71.4409 33.3179 73.0571 33.0896 74.8271C32.9227 76.1491 31.952 77.2998 32.0926 78.7975C32.1497 79.3817 31.403 79.8604 30.6827 79.957C29.8087 80.0756 29.1279 79.7901 28.6272 79.0347C27.661 77.5853 26.0447 76.9045 24.7139 75.8988C23.5456 75.016 22.5091 73.9663 21.1081 73.3426C20.379 73.0176 20.0847 71.7132 20.7611 71.2608C22.3159 70.2199 20.7787 66.5877 24.1869 67.2728C24.2923 67.2948 24.367 67.4748 24.4592 67.5803C24.3538 67.6725 24.2572 67.7735 24.1605 67.8745C24.2484 67.7647 24.345 67.6637 24.446 67.5671C25.3113 67.4134 25.6846 66.8204 25.6011 66.0299C25.5221 65.2832 25.1048 64.866 24.244 65.2042C23.8223 65.3711 23.55 65.0504 23.4886 64.6552C23.4227 64.2379 23.7125 63.9656 24.0639 63.8382C24.815 63.5659 25.5792 63.3375 26.339 63.096C26.8704 62.9291 27.4897 62.4547 27.9157 63.096C28.4164 63.8514 27.6083 64.0051 27.1735 64.3389C26.5103 64.8484 26.9231 65.4282 27.2877 65.8278C27.6786 66.2539 28.2364 66.5613 28.759 65.8893C29.5188 64.9099 30.3797 64.4575 31.4908 65.3886L31.3459 65.5204L31.4689 65.3667V65.3711Z" fill="#C7203D"/>
<path d="M44.5837 75.1038C45.506 76.1316 45.7696 77.2559 45.0712 78.5164C44.3729 79.7813 43.2485 80.0449 41.9089 79.9878C40.5255 79.9307 39.1376 80.0185 37.7541 79.9878C35.4746 79.9351 33.9594 77.7961 35.1276 75.9207C36.0719 74.4055 36.3267 72.8463 36.599 71.2081C36.6824 70.7074 36.801 70.2023 36.9943 69.7368C37.5389 68.4104 38.2723 67.2157 39.8886 67.0927C41.5224 66.9698 42.436 67.936 42.9982 69.3415C42.6995 70.0706 43.1782 70.703 43.2661 71.3838C43.3451 72.2183 43.2397 73.0571 43.3671 73.8828C43.7931 74.6602 43.8239 75.5562 44.1138 76.338C44.1225 76.1316 44.0259 75.9866 43.9908 75.8197C43.9688 75.3937 43.9688 74.9896 44.5837 75.0994V75.1038Z" fill="#C7203D"/>
<path d="M44.584 75.1038C44.2326 75.2795 44.2151 75.6001 44.2195 75.9339C44.3995 76.3994 44.5972 76.8782 43.7583 76.8079C43.8242 75.8153 43.1829 75.0511 42.9062 74.1683C43.06 73.9706 43.1346 73.7115 43.3674 73.571C43.5475 73.5314 43.6924 73.5929 43.7934 73.7466C44.057 74.199 44.3161 74.6514 44.5796 75.0994L44.584 75.1038Z" fill="#D35168"/>
<path d="M42.8663 71.1246C42.2646 70.4834 42.1636 69.8773 42.9981 69.3415C43.4153 69.8685 43.6832 70.4526 43.6613 71.1422C43.5603 71.2783 43.4241 71.3486 43.2572 71.375C43.0903 71.3442 42.9629 71.2608 42.8663 71.1246Z" fill="#D24C63"/>
<path d="M33.6525 66.9785C33.6042 67.4573 33.8721 68.0458 33.2528 68.3225C33.1254 68.3796 32.8004 68.2391 32.7082 68.0985C32.3085 67.4836 33.1166 67.2596 33.1781 66.7853C33.3362 66.8512 33.4944 66.9171 33.6525 66.9829V66.9785Z" fill="#D4556B"/>
<path d="M43.3058 71.1246C43.4244 71.129 43.543 71.1378 43.6659 71.1422C43.7099 72.0118 43.7538 72.8815 43.7977 73.7467C43.644 73.7379 43.4903 73.7291 43.3409 73.7203C42.9325 72.8595 42.9808 71.9943 43.3102 71.1246H43.3058Z" fill="#CA2C48"/>
<path d="M37.2361 36.2826C35.7735 40.3101 33.4853 43.7359 29.875 46.1647C32.0271 42.6555 35.3694 40.0158 37.2361 36.2826Z" fill="#2F996E"/>
<path d="M26.3968 48.9756C26.1377 48.3256 26.2958 48.0137 26.5593 47.7502C27.1742 47.1353 27.8242 46.5644 28.7861 46.6566C28.8827 46.6654 29.0452 46.8498 29.0365 46.9465C28.9662 47.9303 27.9428 47.961 27.4202 48.5056C27.1918 48.7384 26.7921 48.8043 26.3968 48.98V48.9756Z" fill="#2C986C"/>
<path d="M23.4101 28.4911C23.4101 28.9216 23.1553 29.1807 22.7776 29.2553C22.3604 29.3388 22.0354 29.0621 21.9695 28.6932C21.8773 28.2013 22.1583 27.8367 22.6854 27.8192C23.0982 27.806 23.3222 28.1002 23.4101 28.4911Z" fill="#269568"/>
<path d="M18.9916 32.5538C18.9389 32.9534 18.7237 33.2214 18.3064 33.2477C17.9858 33.2697 17.7135 33.094 17.6915 32.7734C17.6608 32.3386 17.977 32.1409 18.3723 32.1146C18.6753 32.0926 18.9476 32.1761 18.9872 32.5538H18.9916Z" fill="#279669"/>
<path d="M63.9795 57.1448C64.1771 55.8623 64.3221 54.9136 64.467 53.9693C64.8579 54.9883 65.1302 55.9941 63.9795 57.1448Z" fill="#F6C1BB"/>
<path d="M68.2615 65.0329C69.0037 65.191 69.746 65.3491 70.4926 65.5072C69.5923 65.7795 68.7051 66.1441 67.8574 65.4765C67.9365 65.2788 68.0682 65.1251 68.2615 65.0329Z" fill="#EE8073"/>
<path d="M68.261 65.0329C68.1249 65.1822 67.9931 65.3271 67.857 65.4765C67.0269 65.415 66.1309 65.6214 65.3271 64.7694C66.4427 64.4356 67.3255 65.1251 68.261 65.0329Z" fill="#F5BBB5"/>
<path d="M60.0567 55.6251C59.9601 55.4934 59.7405 55.3265 59.7493 55.1727C59.7625 54.8917 59.9952 54.6633 60.2983 54.7467C60.4564 54.7906 60.6848 55.0366 60.6716 55.1727C60.6453 55.4363 60.452 55.6603 60.0567 55.6251Z" fill="#FEFEFE"/>
<path d="M59.1473 68.5992C59.7798 68.4454 60.4166 68.138 61.0359 68.1644C62.8059 68.2434 64.3167 68.8759 64.9712 70.7073C65.4938 72.1611 64.8701 73.303 63.737 74.1244C62.0285 75.3585 60.1794 75.4112 58.4578 74.1902C57.1006 73.2284 56.3891 71.9327 57.3641 70.2506C57.6672 70.1188 57.8561 70.2769 58.0142 70.4877C58.0844 70.5975 58.1591 70.7952 58.2469 70.4614C58.2821 69.706 58.875 69.2316 59.1385 68.5992H59.1473Z" fill="#E95745"/>
<path d="M59.1474 68.5992C59.7052 69.4425 58.5677 69.8992 58.6863 70.6415C58.4227 70.9402 58.1285 70.9445 57.8166 70.7293C57.6673 70.5712 57.5224 70.4131 57.373 70.255C57.6541 69.3678 58.3086 68.8803 59.1518 68.5992H59.1474Z" fill="#EC725E"/>
<path d="M71.955 35.5491C71.9243 34.8244 71.8891 34.0998 71.8584 33.3707C71.8848 32.8173 72.078 32.3956 72.6841 32.2815C73.7689 32.2551 74.6913 32.725 75.5872 33.2653C76.0177 33.6869 76.167 34.1656 75.8552 34.7234C75.4291 35.167 75.0031 35.6106 74.5727 36.0542C73.5669 36.5769 72.7236 36.2606 71.955 35.5491Z" fill="#FBFAF8"/>
<path d="M71.9545 35.5491C72.8285 35.716 73.6981 35.8873 74.5722 36.0542C73.9397 37.4509 73.1579 38.7509 72.1126 39.8841L72.016 39.928C71.7217 38.4698 71.8842 37.0073 71.9501 35.5491H71.9545Z" fill="#EDE6DC"/>
<path d="M78.3631 30.3094C78.4115 30.753 78.4642 31.201 78.5125 31.6446C78.4993 32.5801 77.9152 33.094 77.1597 33.4849C76.9489 33.5815 76.7513 33.5639 76.558 33.441C76.0529 32.8173 76.132 32.0179 75.9256 31.302C75.8729 30.9726 75.9036 30.6564 76.0441 30.349C76.1803 30.1733 76.3516 30.0415 76.5536 29.9537C76.76 29.8834 76.9753 29.8439 77.1949 29.8307C77.6472 29.8307 78.0469 29.9669 78.3587 30.3138L78.3631 30.3094Z" fill="#F9F7F3"/>
<path d="M71.8236 28.7547C71.951 28.8205 72.0871 28.8513 72.2277 28.8513C72.2979 29.4398 73.0578 28.9655 73.1807 29.4706C73.4311 29.6989 73.5409 29.9932 73.5585 30.327C73.5585 30.775 73.3828 31.1571 73.0973 31.4953C72.7196 31.8335 72.4297 32.3517 71.7797 32.1233C70.2469 30.9814 71.4327 29.8746 71.8192 28.759L71.8236 28.7547Z" fill="#ECE4DA"/>
<path d="M71.7832 32.119C72.2576 32.0092 72.3366 31.5656 72.5431 31.2274C73.1843 31.5699 73.0437 32.0267 72.7231 32.5055C72.4332 32.7953 72.1478 33.0852 71.8579 33.3751C71.1376 32.9974 71.669 32.545 71.7832 32.119Z" fill="#BDA283"/>
<path d="M76.7199 33.3487C76.8693 33.3927 77.0142 33.441 77.1635 33.4849C76.7287 33.8977 76.2895 34.315 75.8547 34.7278C75.6922 34.2799 75.5297 33.8275 75.3672 33.3795C75.578 33.116 75.8635 33.0369 76.1885 33.0589C76.3861 33.1204 76.5662 33.217 76.7243 33.3444L76.7199 33.3487Z" fill="#BBA080"/>
<path d="M72.0163 39.9324L72.113 39.8885C72.3545 40.499 72.0163 40.9338 71.6474 41.3861C71.2346 40.7405 71.4102 40.2793 72.0163 39.9324Z" fill="#CFBAA1"/>
<path d="M76.584 30.3182C76.4654 30.3094 76.3424 30.305 76.2238 30.305C75.5519 30.8584 74.9414 30.6344 74.3397 30.1689C73.918 29.7209 73.6677 29.2334 73.9883 28.6141C74.3089 28.0344 74.6295 27.4546 74.9501 26.8749C75.6617 27.1428 76.3776 27.4107 77.0891 27.6786C77.2384 27.8455 77.3175 28.0388 77.3306 28.2627C77.2208 29.0006 77.2999 29.8044 76.5796 30.3182H76.584Z" fill="#FDFCFB"/>
<path d="M77.0936 28.1705C77.0936 28.008 77.0936 27.8411 77.0936 27.6786C77.4142 27.683 77.7392 27.6874 78.0598 27.6918C78.2135 27.9685 78.3673 28.2496 78.521 28.5263C78.4683 29.1192 78.4156 29.7165 78.3629 30.3094C77.9412 30.305 77.5196 30.3006 77.0936 30.2963C76.7817 29.5891 76.7861 28.882 77.0936 28.1705Z" fill="#EEE7DF"/>
<path d="M73.9888 28.6141C74.1337 29.0226 74.2787 29.431 74.4236 29.8351C74.103 30.2743 73.756 30.6345 73.1719 30.2084C73.1719 29.9625 73.1719 29.7121 73.1763 29.4662C73.4486 29.1807 73.7165 28.8952 73.9888 28.6097V28.6141Z" fill="#C3AA8B"/>
<path d="M24.4547 67.5758C24.3449 68.0721 24.626 68.8056 23.7432 68.8363C23.5983 68.8407 23.3216 68.6211 23.3172 68.4982C23.2909 67.712 23.9189 67.6856 24.4679 67.5846L24.4547 67.5758Z" fill="#D35067"/>
<path d="M31.469 65.371C31.3855 65.8234 31.6886 66.4778 30.898 66.5525C30.7531 66.5657 30.4588 66.3153 30.45 66.1704C30.4017 65.4237 30.9946 65.4545 31.4953 65.393L31.4734 65.371H31.469Z" fill="#D55A70"/>
<path d="M30.0018 68.9725C29.9711 69.2975 29.7779 69.5523 29.4748 69.5479C29.1674 69.5479 28.9346 69.2844 28.9741 68.9681C28.9961 68.8144 29.2113 68.6036 29.3782 68.5641C29.6724 68.4938 29.9535 68.5904 30.0018 68.9681V68.9725Z" fill="#D5586E"/>
<path d="M43.3059 71.1246C43.3147 71.9899 43.3279 72.8551 43.3366 73.7203C43.1917 73.8697 43.0512 74.019 42.9062 74.1683C42.893 73.1538 42.8799 72.1392 42.8623 71.1202C43.0072 71.1202 43.1566 71.1202 43.3015 71.1202L43.3059 71.1246Z" fill="#D65F74"/>
<path d="M43.7627 76.8079C44.1185 76.6235 44.1755 76.2809 44.2239 75.9339C44.5928 76.2413 44.6587 76.6498 44.5928 77.0934C44.5401 77.4492 44.4039 77.862 43.9955 77.7566C43.8461 77.7171 43.8374 77.1417 43.7671 76.8123L43.7627 76.8079Z" fill="#CE3B54"/>
<path d="M57.8175 70.7293C58.1074 70.703 58.3973 70.6723 58.6871 70.6459C58.4719 71.1949 58.8892 71.9064 58.1996 72.4378C57.5803 71.9547 57.8614 71.3003 57.8175 70.7293Z" fill="#FBEADF"/>
<path d="M73.1715 30.2084C73.5888 30.0855 74.006 29.9581 74.4233 29.8351C74.9854 30.1382 75.5652 30.3665 76.224 30.3007C76.2372 30.6213 76.2459 30.9375 76.2591 31.2581C76.4655 31.9609 76.6939 32.6636 76.1405 33.3224C75.8814 33.34 75.6223 33.3575 75.3631 33.3751C74.3398 33.52 73.6283 32.7075 72.7191 32.5011C72.662 32.0751 72.6006 31.649 72.5391 31.223C73.009 31.0473 73.1232 30.6476 73.1671 30.2084H73.1715Z" fill="#FCFBFA"/>
<path d="M76.1406 33.3268C76.1802 32.6372 76.2197 31.9477 76.2592 31.2581C77.0278 31.8203 76.4744 32.6724 76.7204 33.3443C76.5271 33.3356 76.3339 33.3312 76.1406 33.3224V33.3268Z" fill="#C6AF93"/>
<path d="M77.094 28.1705C77.094 28.8776 77.094 29.5891 77.094 30.2963C76.9227 30.305 76.7514 30.3094 76.5801 30.3182C76.9095 29.6418 76.2463 28.7283 77.0896 28.1749L77.094 28.1705Z" fill="#C5AD8E"/>
</g>
</svg>
