<svg id="Capa_1" data-name="Capa 1" xmlns="http://www.w3.org/2000/svg" viewBox="0 0 600 600"><defs><style>.cls-1{fill:#df2926;}</style></defs><path class="cls-1" d="M725.21,253.64q-1.5,7.33-2.64,14.78t-1.91,15a304.31,304.31,0,0,0,0,61.35q.76,7.56,1.91,15t2.64,14.78q1.5,7.32,3.35,14.51,3.71,14.37,8.76,28.17,2.52,6.9,5.37,13.63t6,13.29q1.57,3.27,3.23,6.51,3.32,6.46,6.93,12.75a300.89,300.89,0,0,0,24.24,35.89q6.67,8.51,13.95,16.5,4.85,5.32,9.93,10.42t10.42,9.93a301,301,0,0,0,52.38,38.19q6.29,3.61,12.76,6.93,12.93,6.63,26.57,12,6.81,2.69,13.78,5.05a301,301,0,0,0,192.44,0q7-2.36,13.78-5.05,13.64-5.37,26.58-12,6.46-3.31,12.75-6.93a301,301,0,0,0,52.38-38.18q5.34-4.84,10.42-9.94t9.94-10.42q7.26-8,13.94-16.49a299.31,299.31,0,0,0,19.58-28.1q2.38-3.86,4.66-7.8,3.62-6.27,6.93-12.75c1.11-2.15,2.18-4.32,3.24-6.51q3.17-6.56,6-13.29t5.38-13.62q5-13.78,8.76-28.18,1.85-7.18,3.35-14.51c1-4.88,1.88-9.81,2.63-14.77s1.4-10,1.91-15a304.21,304.21,0,0,0,0-61.34q-.76-7.57-1.91-15c-.75-5-1.64-9.89-2.63-14.77s-2.12-9.72-3.35-14.51q-3.7-14.38-8.76-28.18-1.26-3.45-2.61-6.85-4-10.22-8.77-20.06-1.59-3.28-3.24-6.52-3.32-6.47-6.93-12.75a301.69,301.69,0,0,0-24.24-35.89q-6.67-8.49-13.95-16.49-4.85-5.34-9.93-10.42T1220.82,92q-10.32-9.37-21.5-17.78a298.7,298.7,0,0,0-30.89-20.4q-6.27-3.61-12.75-6.93-2.94-1.5-5.92-2.94c-2.38-1.15-4.78-2.29-7.19-3.38l-3-1.33c-3.44-1.51-6.9-3-10.41-4.36l-.15-.06c-3.73-1.47-7.52-2.85-11.33-4.17-.77-.27-1.53-.56-2.3-.82q-13.33-4.5-27.19-7.76c-2.89-.68-5.79-1.33-8.7-1.93q-3.17-.64-6.33-1.21a301.63,301.63,0,0,0-48.53-4.79c-1.82,0-3.64-.07-5.48-.07-3.1,0-6.2.07-9.29.16a298.94,298.94,0,0,0-86.92,15.61q-7,2.36-13.79,5c-1.4.56-2.79,1.14-4.18,1.71-3.12,1.29-6.22,2.6-9.28,4q-6.64,3-13.11,6.32t-12.75,6.93a300.8,300.8,0,0,0-47.25,33.63q-2.6,2.25-5.14,4.56Q812.07,96.88,807,102T797,112.4q-7.26,8-13.95,16.5a300.08,300.08,0,0,0-24.24,35.89q-3.61,6.27-6.93,12.75c-1.1,2.15-2.18,4.33-3.23,6.51q-4.74,9.84-8.78,20.06c-.89,2.27-1.76,4.56-2.6,6.85a294.07,294.07,0,0,0-8.76,28.18Q726.72,246.31,725.21,253.64ZM968.27,34.72c.59,1,1.08,2.14,2.52,2.58,2.8-1.46,5.61.09,8.7,0s5.7-1.49,9-1c5.87.92,14.07,6.66,18.69,3.54,1.17-.78.89-2.14,1.94-4.18a59.2,59.2,0,0,0,3-5.45c2.33,0,4.67-.09,7-.09a283.91,283.91,0,0,1,56.68,5.69c-.77,2-3.29,1.12-5.41,2.1s-2.72,2.82-4.83,3.21c-5.86,1.11-10.72-1.46-15.79-1.28-.24,2.2,2.5,3.47,3.86,4.18,4.6,2.41,8.34,2.08,14.83,1.93,3.32-.07,7.14,1,10-1,1.81-1.23,1.71-3.95,3.22-5.46a11.34,11.34,0,0,1,2.66-1.83c3.19.75,6.35,1.57,9.49,2.42-.53,2.17-4,1.65-4.08,4.56,2.24,1.34,7.45-.74,9.47-3l2.34.69q6.82,2.09,13.53,4.49,9.53,3.43,18.75,7.52c-1.18.7-2.44,1.59-3.48,1.59-2.66,0-3.8-3.58-6.77-2.26-.26,3.44,3.65,4.84,6.12,6.43,2.68,1.72,5.49,3.44,6.45,6.44-2.63,5.55-6.81-.3-11-.32-4.58,0-11.25,8.69-15.15,1.61,1-3.76,5.11-4.34,6.12-8a13.12,13.12,0,0,0-2.6.78,46.67,46.67,0,0,0-4.61,2.27,26.23,26.23,0,0,1-6.65,2.75c-2.24.49-4.43.37-6.44,1-3.86,1.13-6.55,4-10.63,5.48-1.6.59-3.5.41-5.16,1a85.4,85.4,0,0,0-12.57,5.8c-4.1,2.21-8.73,4.54-11.28,6.75-1.38,1.19-5,5.41-4.84,6.75.17,1.92,3.78,2.55,3.87,4.51-.08,1.19-2.09,3.75-.64,5.47,1.32,1.57,4,.3,6.76.64,4.93.61,8.15,4.68,11.93,6.76,2.86,1.58,7.1,3.45,10.32,3.86,4.43.56,9.39-1.29,10,2.25s-4.17,4.62-4.51,6.76c2.38,3.14-1.62,4.65-1.61,7.4,0,2.23,2.75,5.58,5.15,5.79,3.25.27,8-3.2,9.36-6.44,1.6-3.86.92-9.09,3.86-11.9,15,.41,27.73-6.81,26.76-22.2-.1-1.52-1-3.47-.64-5.15.47-2.48,4.75-4.57,4.18-7.72a6.18,6.18,0,0,0,3.42-3.27c1.23-2.2,2.2-4.7,4.49-5.53a2.76,2.76,0,0,1,.47-.2,8.19,8.19,0,0,1,4.14.39c2.57.76,5.36,2.07,8.43,1.86,1.56-.11,3.59-1.51,5.16-1.28,3.15.44,5,4.31,7.42,6.11,2.09,1.6,4.3,1.09,4.83,3.21-.62,3.57-3.1,3.71-2.9,7,0,0,0,.06,0,.09.24,3,3.31,5.19,4.84,5.48,2.35.44,5.71-.82,8.06-1.94,2.53-1.19,4.84-3.78,7.06-5.57q4.74,3.63,9.32,7.45a34.24,34.24,0,0,1,.7,3.59c.46,3.48-.47,6.14-.31,9.34.41,5.42,7.26,4.87,10.63,7.71,1,.87,1.41,3.07,2.26,4.19,1.64,2.18,3.61,2.18,3.87,4.5.6,5.56-5,6-4.52,12.23-1.17,2.4-4.11,2.26-3.87,5.47.38,5.07,7.69,1.18,9.67,5.14,1.08,2.14-.18,3.72-1,6.76,2.5,3,2.49,7.71-1.92,7.72-2.69,0-3.43-2.87-6.13-3.54-1.51-.38-3.56-.3-5.48-.64-1.64-.29-3.6-.78-5.15-1-4-.47-8.29.68-10.64-1.61a104.9,104.9,0,0,1,13.86-14.47c1.46-1.31,4.61-2.21,3.87-4.83-2.75-2.41-6.12.15-8.71,1.61s-6,3.73-9,4.18c-5.33.79-12.41-1.56-16.76,1.29-.6,2.42,5,1.48,4.18,5.15-2.13.35-4.15.52-5.79-1s-.64-3.37-1.61-4.19c-1.65-1.36-7.87-1.74-10.64-1.28-3.39.55-6.38,2.58-6.77,5.47,4.06,1.9,10.77-2,12.25,2.9-2.23,4-7.48,6.21-6.78,11.57.28,2.08,2.75,4.85,4.52,5.16s2.79-1.46,4.51-1.3,1.41,2.25,3.55,1.94c3.1-1.33,4.82-5.67,8.37-5.47,4.27,5.17-3.85,7.69-8.37,9.33-5.16,1.86-11.87,2.86-15.8,4.51-2.06.86-9.86,8.38-11,2.57-.79-4.2,3.86-3,4.84-6.44-5-1-9.64,2.15-14.18,3.87-6.48,2.45-17.46,4-19,11.26-.31,1.45.63,4.17-.32,5.14-.78.78-5.4.92-7.42,1.61-3.11,1.07-5.82,3.34-7.74,3.86-1.45.4-3.59.29-4.51.65-2.56,1-3.5,4.45-6.44,6.75-1.21.94-3.88,1.63-4.84,2.58-1.67,1.66-1.89,5.81-4.83,6.43-1.87.16-3.4-1.41-5.16-.32-.21,4.1,1.45,9.68-.32,13.83-3.82,3.11-8,5.3-12.89,8-2.7,1.53-5.12,1.91-8.38,3.55-2.32,1.15-4.43,3.89-7.1,5.46-6.15,3.62-13.58,7.9-13.53,17.06,0,2,1,4.12,1.28,6.43.16,1.37-.16,2.7,0,4.19.39,3.36,2.83,7.64,0,10-4.33-1.78-9.85-2.39-12.89-5.47-.83-3.18,1.68-5.8,1.3-8.69-.31-2.32-3.59-6.46-5.49-6.76s-3.77,1.77-5.79,1.61c-2.41-.19-4.65-3.5-7.75-3.86-4.53-.53-7.87,1-12.89.33-4.86,2.59-6.28,7.2-12.24,6.75-2.1-.15-4-1.76-6.45-2.25-2.62-.55-6.61-1.47-9.35-1.28-5.49.36-9.46,4.3-14.18,6.75-4.16,2.16-10,4.85-11.28,9.33-.68,2.41-.1,5.81-1,8-.57,1.47-1.81,2.78-2.58,4.18-3.61,6.59-6.61,15.3-3.86,24.78.4,1.4,4,9.33,5.47,10.94,1.67,1.78,6.56,4.45,9.35,4.5,2.36,0,5.13-1.2,7.41-1.61,2.66-.47,6-.51,8.39-1.28,7-2.23,5.59-11.64,12.57-14.81,3-1.37,6.56-1.65,11.92-1.92a7.17,7.17,0,0,1,2.26,6.1c-.18,1.65-1.74,3.14-2.58,5.48-.73,2.05-.89,4.46-1.61,6.11-1,2.17-3.1,3.76-3.87,5.8-.5,1.32-.22,3-.64,4.17-.74,2.12-3.58,3.61-2.26,5.79,6.9,2.74,15.25-.78,21.28.33,2.54.46,7.78,3.49,7.73,7.4,0,2.93-2.26,4.84-2.58,8.05-.39,4-2.08,9-2.26,12.22-.28,5.34,7.85,14.55,13.54,14.48,6.13-.08,9.7-6.09,17.09-2.9,2.45,1.06,5,5,7.74,4.83,2.23-.16,5.6-4.06,7.09-6.76,1.82-3.29,1.94-6.06,5.15-7.72,3.46-1.79,6.22-.93,10.64-2.58a25.76,25.76,0,0,0,5.48-3.21c1.56-1.07,3.21-3.88,5.16-1.94,2.57,2.57-3.15,4-1,6.76,4.47,2.37,6.76-4.39,10-4.5,1,0,4.61,2,6.45,3.22,2.51,1.65,3.37,4,6.12,4.5,1.77.35,4.61-.68,7.09-.32,3.29.46,5.25,3.28,7.74,3.21,3-.08,4.5-3.38,7.1-3.86,5.69-1,7.8.63,10.31,4.18,2.81.49,2.91-3.24,5.48-1.92-1.41,2.8.48,4.09,1.61,6.43.73,1.5.61,2.57,1.29,3.22,1.54,1.46,4.51,1.46,6.76,2.89s3.72,4.27,6.45,7.4,7.53,6.52,11.28,6.75c3.54.23,6.42-1,9.35-.64,6.67.82,10.81,4.14,15.48,7.73,2.6,2,5,3.39,5.79,5.78.59,1.67.3,3.92,1,5.79,1.42,4,7.28,6,5.16,12.87,1,2,3.14,2.77,5.48,4.19,1.87,1.13,3.45,3.53,5.47,3.86,1.31.21,2.74-.4,3.87-.33,3.66.26,6.18,1.68,9.35,2.9,2,.76,4.5,1.05,5.81,1.94,1.63,1.1,1.85,4.81,3.86,5.79,1.32.64,4.25-.25,6.45,0,3.46.39,8.16,2.51,11.28,2.57,1.9,0,3.47-.77,5.16-.64,3.91.3,7,2.77,10,5.53a285,285,0,0,1-174.85,126.81c-.27-2.82-1-5.66-1.18-8.47-.25-6.12.68-10.44-.31-16.09-.75-4.27-1.68-10.82-3.23-13.51-1.72-3-8.5-8.08-11.92-10-2.26-1.25-5-1.69-7.41-2.89-5.25-2.57-15.43-8-17.73-13.19-.67-1.5-.58-3.48-1.29-5.15-1.4-3.29-4.36-6.15-6.45-9.33-4-6.07-7.2-13.68-11.28-19.95-2.07-3.18-3.86-6.79-6.12-9.33-1.33-1.49-5.58-2.9-6.12-5.15-.73-3-2.93-7.05-2.58-9.33.46-3.07,6.45-5.56,6.44-8.36,0-2.38-3.2-3.77-3.86-5.79-1.63-4.92.95-7.81,2.89-11.91a48.11,48.11,0,0,1,1.94-4.5c1.18-1.77,3.58-2.27,5.15-4.18.88-1.07,1.44-3.31,2.58-4.83,2.45-3.25,6.41-4.47,7.42-7.4.82-2.39,1.3-14.34.32-18.34-.57-2.31-2.72-4.24-3.55-6.43-1.45-3.88-1.8-8.13-5.8-8-2.47.05-4.22,2.77-5.8,4.5-.39,2.29-.18,4.76-2.58,5.46-3.67,1.09-5.07-3.85-9.35-5.14-1.7-.52-4.41-.49-5.47-1-3.12-1.4-4.13-6-7.42-7.73-2.75-1.47-5.1-1-6.77-3.22-.7-1.55-.15-4.35-.32-6.43-3.53-2.07-6.53-9.76-10.64-11.58-2.73-1.21-6.9-1.1-10.31-2.25a39.79,39.79,0,0,0-4.52-1.61c-2.07-.46-4.19-.48-5.79-1.29-6.38-3.16-9.83-13.4-17.73-13.18-3.37.08-6.62,3.23-9.67,3.21s-8.13-2.42-11.93-4.18c-4-1.84-8.34-2.84-11.6-4.5-2.64-1.35-4.47-3.82-6.78-4.84-1.76-.78-4.34-.92-5.79-1.6-2.06-1-4.21-3.06-6.77-4.83s-5.07-4.25-5.16-6.43c-.11-2.52,2.32-4.66,2.58-7.09.83-7.66-4.83-13.16-8.39-17.69-2.63-3.36-5.73-6.21-8.37-9.33a22.56,22.56,0,0,0,0-4.5c-2-1.94-3.69-4.82-5.81-7.72-1.91-2.63-5.64-5.42-6.12-8.36-.59-3.62,1.38-6.8,0-10.31-2.29-5.82-10.39-3.19-9.35,4.51.29,2.12,3.29,5,4.19,7.08s.75,4.82,1.61,7.4,3.33,4.62,4.2,7.4c1.37,4.41,1.32,9.16,2.58,11.91,1.1,2.44,5.18,4.76,2.9,7.72-3.06.63-4.23-2.41-6.13-4.19-1.06-1-4.89-2.85-5.47-5.14-.49-1.89,1.2-4.44.64-6.76C847.22,281.78,838,281.67,838,277c0-2.93,3.84-3.28,3.87-6.11,0-3.11-4.24-5.73-5.16-8.37-.83-2.41-1-6.25-1.28-9.65-.31-3.18.09-6.87-.65-9.33-.67-2.21-4-5.25-6.13-6.44-2.82-1.57-5.06-.91-6.44-3.21-1.21-2-2-6.2-2.26-8.36-.46-3.87-.1-8.1-.32-12.23s-.64-8.1,0-12.55c1.59-3.11,4.5-4.64,6.13-7.73,1.13-2.14,1.29-4.79,2.57-7.07,2.36-4.21,7.5-8.09,11-12.23,3.73-4.46,7.16-8.74,9.35-13.84.78-1.81,2.88-5.82,2.58-8-.43-3.1-6.27-5.65-5.81-9.33.29-2.28,3.55-2.25,4.52-4.5a23.07,23.07,0,0,0,1-5.8c.05-3.1-1.6-6.33-1-9.65.53-2.82,4.74-4,2.58-7.08s-6,1.66-8.39-.32c-2.18-1.83.44-4,.65-7.4.08-1.34-.79-2.87-.65-3.86.2-1.44,3-3.86,2.26-4.83-1.17-1.47-2.44-4.44-4.26-6.82A282.66,282.66,0,0,1,968.27,34.72Z" transform="translate(-719.11 -14.11)"/></svg>