<svg id="Ñëîé_1" data-name="Ñëîé 1" xmlns="http://www.w3.org/2000/svg" viewBox="0 0 120 97.92"><defs><style>.cls-1{fill:#df2926;}.cls-2{fill:#0b9d58;}.cls-3{fill:#fcfcfc;}</style></defs><rect class="cls-1" x="36.91" y="18.87" width="21.82" height="10.25"/><path class="cls-1" d="M314.89,250.54a4.23,4.23,0,1,1-4.23-4.23A4.22,4.22,0,0,1,314.89,250.54Z" transform="translate(-262.84 -246.31)"/><rect class="cls-1" x="46.24" y="4.51" width="3.17" height="7.61"/><path class="cls-2" d="M321.16,271.79h-21A9.16,9.16,0,0,0,291,281v11.12h39.33V281A9.16,9.16,0,0,0,321.16,271.79Z" transform="translate(-262.84 -246.31)"/><path class="cls-2" d="M291,328.07a9.16,9.16,0,0,0,9.16,9.17h21a9.16,9.16,0,0,0,9.17-9.17v-14H291Z" transform="translate(-262.84 -246.31)"/><rect x="28.15" y="45.77" width="39.34" height="22.02"/><path class="cls-2" d="M327.19,268.46v-7.95a4.59,4.59,0,0,0-4.58-4.59H298.72a4.59,4.59,0,0,0-4.58,4.59v7.95Z" transform="translate(-262.84 -246.31)"/><path d="M361.37,299.73H339.79a20.88,20.88,0,0,1-20.85-20.85V274a20.87,20.87,0,0,1,20.85-20.85h21.58A20.87,20.87,0,0,1,382.22,274v4.85A20.88,20.88,0,0,1,361.37,299.73Zm-21.58-40A14.28,14.28,0,0,0,325.52,274v4.85a14.28,14.28,0,0,0,14.27,14.26h21.58a14.28,14.28,0,0,0,14.27-14.26V274a14.28,14.28,0,0,0-14.27-14.26Z" transform="translate(-262.84 -246.31)"/><path d="M331.11,340.34h38.94a32.27,32.27,0,1,0-38.94,0Z" transform="translate(-262.84 -246.31)"/><circle class="cls-2" cx="350.58" cy="314.03" r="20.01" transform="translate(-298.17 337.16) rotate(-76.78)"/><path class="cls-3" d="M347.61,315.82h-2.5v-7.19l0-1.18,0-1.29c-.42.44-.7.73-.86.86L343,308.17l-1.21-1.58,3.81-3.18h2.05Z" transform="translate(-262.84 -246.31)"/><path class="cls-3" d="M355.18,307.89a3.64,3.64,0,0,1,2.72,1,3.71,3.71,0,0,1,1,2.77,4.15,4.15,0,0,1-1.22,3.2,5,5,0,0,1-3.49,1.12,6.64,6.64,0,0,1-3.18-.67v-2.27a7,7,0,0,0,3.09.81c1.52,0,2.29-.66,2.29-2S355.62,310,354,310a5.41,5.41,0,0,0-.94.09,6,6,0,0,0-.84.19l-1-.56.44-6.32h6.41v2.22h-4.22l-.21,2.44L354,308A5.23,5.23,0,0,1,355.18,307.89Z" transform="translate(-262.84 -246.31)"/><path class="cls-3" d="M350.6,326.21h-1.84l-2-3.38-.68.52v2.86h-1.62v-8h1.62v3.67l.63-.94,2.07-2.73h1.8l-2.66,3.55Z" transform="translate(-262.84 -246.31)"/><path class="cls-3" d="M354.46,321.71h3v4.15a7.67,7.67,0,0,1-2.71.46,3.29,3.29,0,0,1-2.64-1.07,4.56,4.56,0,0,1-.91-3.06,4.13,4.13,0,0,1,1.06-3,3.91,3.91,0,0,1,2.93-1.09,5.39,5.39,0,0,1,2.26.5l-.53,1.36a3.74,3.74,0,0,0-1.74-.44,2.11,2.11,0,0,0-1.68.74,3,3,0,0,0-.63,2,3.34,3.34,0,0,0,.5,2,1.73,1.73,0,0,0,1.48.68,5.21,5.21,0,0,0,1-.1v-1.68h-1.44Z" transform="translate(-262.84 -246.31)"/><path class="cls-1" d="M318.38,312.45V341.5a2.72,2.72,0,0,0,2.72,2.72H329a2.72,2.72,0,0,0,2.72-2.72V312.45a2.72,2.72,0,0,0-2.72-2.72H321.1A2.72,2.72,0,0,0,318.38,312.45Z" transform="translate(-262.84 -246.31)"/><rect class="cls-2" x="18.29" y="80.67" width="37.24" height="6.65"/><path class="cls-2" d="M318.38,312.45V341.5a2.72,2.72,0,0,0,2.72,2.72H325V309.73H321.1A2.72,2.72,0,0,0,318.38,312.45Z" transform="translate(-262.84 -246.31)"/><rect class="cls-2" x="68.83" y="72.13" width="3.32" height="17.07"/><rect class="cls-1" x="72.16" y="74.71" width="1.66" height="11.92"/><path class="cls-1" d="M281.13,312.45V341.5a2.71,2.71,0,0,1-2.72,2.72h-7.86a2.73,2.73,0,0,1-2.72-2.72V312.45a2.72,2.72,0,0,1,2.72-2.72h7.86A2.72,2.72,0,0,1,281.13,312.45Z" transform="translate(-262.84 -246.31)"/><path class="cls-2" d="M281.13,312.45V341.5a2.71,2.71,0,0,1-2.72,2.72h-3.93V309.73h3.93A2.72,2.72,0,0,1,281.13,312.45Z" transform="translate(-262.84 -246.31)"/><rect class="cls-2" x="264.51" y="318.44" width="3.33" height="17.07" transform="translate(269.51 407.64) rotate(180)"/><rect class="cls-1" y="74.71" width="1.66" height="11.92"/><rect class="cls-1" x="18.29" y="74.02" width="37.24" height="6.65"/></svg>