<svg width="256" height="257" viewBox="0 0 256 257" fill="none" xmlns="http://www.w3.org/2000/svg">
<path d="M254.53 231.86C252.13 235.89 248.32 238.25 244.24 240.21C231.35 246.42 217.44 248.95 203.48 250.92C161.63 256.84 119.62 257.52 77.55 253.86C58.52 252.2 39.52 249.98 21.2 244.1C15.8 242.37 10.6 240.24 5.96001 236.92C4.04001 235.54 2.42001 233.9 1.22001 231.86C-0.619993 228.73 -0.549993 226.62 3.93001 226.95C3.96001 224.33 4.00001 221.71 4.03001 219.09C-2.16999 211.37 -1.25999 205.59 7.11001 200.08C14.16 195.43 22.16 193.11 30.26 191.25C33.62 190.47 33.44 189.53 31.81 187.12C26.72 179.6 24.62 171.29 24.71 162.15C24.93 139.16 24.84 116.18 24.76 93.19C24.7 77.13 31.82 65.77 46.75 59.77C51.34 57.93 49.22 54.55 49.38 51.84C49.57 48.48 46.56 49.8 44.9 49.78C40.46 49.71 35.62 49.9 33.93 44.87C32.13 39.5 31.69 33.68 34.59 28.46C36.79 24.48 41.04 24.69 44.86 25.08C48.63 25.46 49.85 24.22 49.56 20.43C48.36 4.75001 52.39 -0.749995 70.01 0.0800049C80.65 0.580005 91.33 0.120005 101.99 0.190005C110.37 0.240005 115.23 5.05 115.56 13.46C115.58 13.96 115.56 14.46 115.57 14.96C115.67 18.11 114.7 21.98 116.18 24.21C117.64 26.4 121.77 24.64 124.69 25.08C125.34 25.18 126.02 25.23 126.64 25.46C131.39 27.18 133.06 32.42 131.89 42.18C131.34 46.82 128.46 49.17 123.93 49.65C123.11 49.74 122.23 49.53 121.44 49.74C119.48 50.27 116.2 48.11 115.73 51.51C115.26 54.95 114.28 58.78 119.79 60.45C125.76 62.26 130.66 66.44 133.89 71.86C136.05 75.49 137.78 75.25 141.2 73.47C160.69 63.33 181.45 58.04 203.5 58.03C220.13 58.03 234.61 67.14 240.41 82.14C246.58 98.06 243.58 112.49 231.76 124.96C231.3 125.44 230.87 125.96 230.34 126.37C227.02 128.94 225.7 131.28 228.67 135.57C232.05 140.43 231.91 146.42 229.58 151.87C228.47 154.47 228.89 155.94 230.58 157.99C238.68 167.75 241.1 178.91 237.92 191.18C237.27 193.67 237.53 194.99 240.18 195.94C243.11 197.01 245.99 198.43 248.62 200.13C257.07 205.58 257.94 211.34 251.73 219.09C251.76 221.71 251.8 224.33 251.83 226.95C256.32 226.62 256.4 228.75 254.53 231.86Z" fill="#F7F9FA"/>
<path d="M251.73 219.09C249.96 223.15 246.18 224.65 242.51 226.21C228.75 232.07 214.14 234.4 199.48 236.57C166.44 241.46 133.16 241.3 99.95 240.36C75.39 239.66 50.85 237.26 26.91 230.92C21.43 229.47 16.11 227.58 10.97 225.19C8.08001 223.85 5.34001 222.27 4.03001 219.09C-2.16999 211.37 -1.25999 205.59 7.11001 200.08C14.16 195.43 22.16 193.11 30.26 191.25C33.62 190.47 33.44 189.53 31.81 187.12C26.72 179.6 24.62 171.29 24.71 162.15C24.93 139.16 24.84 116.18 24.76 93.19C24.7 77.13 31.82 65.77 46.75 59.77C51.34 57.93 49.22 54.55 49.38 51.84C49.57 48.48 46.56 49.8 44.9 49.78C40.46 49.71 35.62 49.9 33.93 44.87C32.13 39.5 31.69 33.68 34.59 28.46C36.79 24.48 41.04 24.69 44.86 25.08C48.63 25.46 49.85 24.22 49.56 20.43C48.36 4.75001 52.39 -0.749995 70.01 0.0800049C80.65 0.580005 91.33 0.120005 101.99 0.190005C110.37 0.240005 115.23 5.05 115.56 13.46C115.58 13.96 115.56 14.46 115.57 14.96C115.67 18.11 114.7 21.98 116.18 24.21C117.64 26.4 121.77 24.64 124.69 25.08C125.34 25.18 126.02 25.23 126.64 25.46C131.39 27.18 133.06 32.42 131.89 42.18C131.34 46.82 128.46 49.17 123.93 49.65C123.11 49.74 122.23 49.53 121.44 49.74C119.48 50.27 116.2 48.11 115.73 51.51C115.26 54.95 114.28 58.78 119.79 60.45C125.76 62.26 130.66 66.44 133.89 71.86C136.05 75.49 137.78 75.25 141.2 73.47C160.69 63.33 181.45 58.04 203.5 58.03C220.13 58.03 234.61 67.14 240.41 82.14C246.58 98.06 243.58 112.49 231.76 124.96C231.3 125.44 230.87 125.96 230.34 126.37C227.02 128.94 225.7 131.28 228.67 135.57C232.05 140.43 231.91 146.42 229.58 151.87C228.47 154.47 228.89 155.94 230.58 157.99C238.68 167.75 241.1 178.91 237.92 191.18C237.27 193.67 237.53 194.99 240.18 195.94C243.11 197.01 245.99 198.43 248.62 200.13C257.07 205.58 257.94 211.34 251.73 219.09Z" fill="black"/>
<path d="M254.53 231.86C252.13 235.89 248.32 238.25 244.24 240.21C231.35 246.42 217.44 248.95 203.48 250.92C161.63 256.84 119.62 257.52 77.55 253.86C58.52 252.2 39.52 249.98 21.2 244.1C15.8 242.37 10.6 240.24 5.96001 236.92C4.04001 235.54 2.42001 233.9 1.22001 231.86C-0.619988 228.73 -0.549988 226.62 3.93001 226.95C5.87001 225.53 7.80001 226.01 9.46001 227.31C19.33 234.98 31.29 236.99 43 239.24C63.61 243.2 84.45 245.13 105.46 245.72C115.76 246.01 126.08 246.88 136.37 246.45C167.11 245.17 197.89 243.97 227.83 235.74C234.27 233.97 240.57 231.9 245.89 227.59C247.65 226.16 249.66 225.39 251.83 226.95C256.32 226.62 256.4 228.75 254.53 231.86Z" fill="black"/>
<path d="M251.83 226.95C249.4 226.87 247.77 228 245.84 229.57C238.78 235.27 229.97 237.08 221.4 238.99C185.07 247.07 148.18 248.51 111.15 247.54C85.32 246.87 59.62 244.85 34.36 239.01C26.59 237.21 18.86 235.18 11.83 231.19C9.23001 229.71 7.89001 225.89 3.93001 226.95C3.96001 224.33 4.00001 221.71 4.03001 219.09C15.81 227.76 29.69 230.73 43.63 232.94C99.77 241.85 155.99 241.88 212.13 232.95C226.07 230.73 239.95 227.76 251.73 219.09C251.76 221.71 251.8 224.33 251.83 226.95Z" fill="#CE9D75"/>
<path d="M218.85 125.04C218.74 119.23 216.37 114.43 212.48 110.26C203.04 100.15 188.59 101.19 180.85 112.73C179.4 114.89 178 115.82 175.35 116C165.44 116.69 157.66 124.47 156.98 134.46C156.8 137.17 155.79 138.47 153.68 139.9C142.99 147.16 141.28 161.32 149.78 170.82C155.15 176.82 154.89 178.91 148.39 183.6C139.38 155.23 117.08 142.51 90.34 134.42C95.59 124.16 102.33 114.92 110.35 106.67C135.7 80.61 166.61 67.03 202.98 66.23C216.45 65.93 227.66 73.25 232.73 85.07C237.74 96.74 234.99 109.78 225.55 119.58C223.61 121.6 221.95 123.88 220.16 126.04C219.73 125.71 219.29 125.38 218.85 125.04Z" fill="#F34545"/>
<path d="M33.05 145.17C33.05 125.81 32.62 107.23 33.21 88.67C33.57 77.33 42.38 68.41 53.98 66.32C57.29 65.72 57.92 64.43 57.87 61.47C57.81 57.7 56.15 52.56 58.6 50.5C60.89 48.58 65.85 49.76 69.64 49.74C80.79 49.69 91.94 49.84 103.09 49.65C106.36 49.59 107.67 50.55 107.17 53.81C106.02 61.35 106.91 67.4 116.54 68.08C118.47 68.21 120.41 69.92 122.11 71.21C130.11 77.29 130.09 79.39 122.25 85.2C106.24 97.06 93.37 111.7 83.74 129.12C82.09 132.1 80.43 133.29 76.78 132.71C68.81 131.44 60.8 132.35 53.06 134.46C49.84 135.34 49.44 134.49 49.46 131.64C49.56 118.16 49.37 104.68 49.59 91.2C49.65 87.58 48.43 86.87 45.07 86.79C41.51 86.71 41.02 88.12 41.06 91.16C41.2 103.64 41.12 116.12 41.12 128.6C41.12 138.44 41.12 138.44 33.05 145.17Z" fill="#FEE9A6"/>
<path d="M156.97 214.86C151.74 214.97 147.66 213.41 145.49 208.8C143.03 203.58 146.29 199.44 148.97 195.63C151.24 192.41 154.57 189.96 157.31 187.05C163.41 180.61 163.34 173.11 157.22 166.66C149.28 158.3 152.04 147.82 163.09 144.9C165.89 144.16 166.67 143.38 165.88 140.32C163.12 129.65 170.56 122.17 181.27 124.78C184.31 125.52 185.25 124.85 185.95 121.84C187.65 114.5 193.75 110.5 200.27 111.98C206.77 113.45 211.56 121.02 209.67 127.73C208.73 131.07 209.43 131.83 212.66 132.52C218.97 133.87 222.72 138.66 222.8 144.45C222.89 150.42 219.07 155.46 212.51 156.75C208.91 157.46 208.95 158.64 209.71 161.66C211.8 169.99 207.55 176.24 199.11 177.45C196.76 177.79 195.19 178.7 193.68 180.42C185 190.3 176.17 200.05 167.51 209.95C164.56 213.32 161.11 215.14 156.97 214.86Z" fill="#0B9D58"/>
<path d="M110.62 198.28C87.35 197.04 66.92 189.3 50.94 171.68C46.19 166.44 42.94 160.38 41.63 153.27C41.01 149.89 42 148 44.88 146.44C55.55 140.67 66.95 139.5 78.73 141.05C99.33 143.77 117.31 151.84 131.2 167.74C135.74 172.94 138.89 178.9 139.97 185.87C140.42 188.76 139.46 190.49 136.98 191.93C128.82 196.65 119.97 198.3 110.62 198.28Z" fill="#E5E8EC"/>
<path d="M135.3 231.28C95.83 231.13 63.98 229.43 32.68 222.09C25.4 220.38 18.14 218.47 11.67 214.54C7.18 211.81 7.13 209.77 11.64 206.97C19.82 201.89 29.1 199.87 38.36 197.82C40.7 197.3 41.64 199.02 42.96 200.15C60.56 215.31 81.02 222.93 104.2 222.97C115.54 222.99 126.33 220.49 135.71 213.68C137.3 212.53 138.06 212.35 139.05 214.21C145.14 225.64 166.15 226.57 174.17 214.78C176.71 211.05 178.73 210.49 183.05 213.29C198.55 223.31 218.98 219.74 230.64 205.34C232.84 202.62 234.48 201.9 237.51 203.52C241.14 205.46 246.94 206.51 247.02 210.59C247.11 215.26 241.16 216.33 237.26 217.77C219.01 224.47 199.87 226.98 180.67 228.89C163.12 230.65 145.5 231.47 135.3 231.28Z" fill="#EBC09B"/>
<path d="M34.15 159.49C45.03 185.07 65.81 197.3 90.73 203.93C103.78 207.4 117.05 207.64 130.21 203.95C131.22 203.67 132.47 202.47 133.25 204.05C134 205.56 132.29 205.91 131.52 206.51C123.97 212.37 115.06 214.65 105.82 214.71C81.41 214.87 60.17 206.8 43.13 188.89C38.24 183.75 34.77 177.71 33.37 170.65C32.66 167.02 32.58 163.39 34.15 159.49Z" fill="#CBD0D8"/>
<path d="M82.4 25.01C75.41 25.01 68.42 24.89 61.43 25.07C58.64 25.14 57.78 24.33 57.71 21.46C57.37 8.34 57.27 8.35 70.53 8.35C80.68 8.35 90.83 8.44 100.98 8.31C105.43 8.25 107.2 10.06 107.22 14.56C107.26 25.02 107.4 25.02 96.88 25.02C92.06 25.01 87.23 25.01 82.4 25.01Z" fill="#A9B1BC"/>
<path d="M82.82 33.17C95.12 33.17 107.43 33.28 119.73 33.1C122.96 33.05 123.97 33.9 123.92 37.21C123.87 40.34 123.21 41.46 119.81 41.44C94.87 41.29 69.93 41.28 44.99 41.45C41.37 41.47 41.1 39.96 41.02 37.04C40.94 34 41.79 33.06 44.91 33.1C57.55 33.28 70.19 33.17 82.82 33.17Z" fill="#FBD66F"/>
<path d="M230.97 184.2C230.72 192.92 225.82 201.59 216.01 206.99C206.39 212.3 196.56 211.94 187.08 206.27C185.97 205.6 182.96 204.98 184.92 202.99C186.57 201.32 186.99 196.84 191.51 199.3C200.63 204.27 210.1 202.99 216.73 196.33C223.51 189.53 224.68 180.43 219.62 171.15C218.45 169.01 218.78 167.03 218.71 164.92C218.64 162.88 220.43 162.7 221.6 161.97C223.05 161.06 223.64 162.55 224.35 163.3C228.31 167.44 230.93 174.85 230.97 184.2Z" fill="#E5E8EC"/>
<path d="M195.2 191.9C198.68 183.35 209.15 185.77 213.73 178.09C215.37 184.3 213.62 188.38 209.76 191.42C205.27 194.97 200.35 195.11 195.2 191.9Z" fill="#F7D36E"/>
<path d="M114.17 121.02C115.02 121.57 115.85 122.08 116.65 122.64C124.34 128.12 131.93 133.74 139.75 139.03C142.42 140.84 142.37 142.09 140.51 144.4C138.83 146.49 137.89 148.26 134.79 145.89C127.29 140.16 119.48 134.85 111.82 129.33C110.73 128.54 108.73 127.9 110.03 125.97C111.2 124.25 112.04 122.17 114.17 121.02Z" fill="#010101"/>
<path d="M154.47 120.62C154.11 125.11 149.91 127.16 146.63 124.98C140.57 120.94 134.62 116.7 128.41 112.92C125.33 111.04 126.4 109.55 127.87 107.53C129.2 105.71 129.82 103.46 132.98 105.8C139.24 110.41 145.87 114.52 152.33 118.86C153.19 119.45 153.96 120.19 154.47 120.62Z" fill="#010101"/>
<path d="M147.16 88C147.9 88.44 148.62 88.82 149.3 89.27C155.81 93.6 162.22 98.09 168.85 102.22C171.71 104.01 170.68 105.43 169.33 107.36C167.97 109.31 167.16 111.38 164.07 109.15C157.73 104.59 151.1 100.42 144.61 96.07C143.55 95.36 141.97 94.66 143.13 93.02C144.33 91.31 144.99 89.12 147.16 88Z" fill="#010101"/>
<path d="M191.8 92.63C190.58 94.15 189.45 96.1 187.82 97.4C186.29 98.62 185.26 96.64 184.22 95.83C179.12 91.87 174.23 87.63 169.02 83.82C166.28 81.82 167.53 80.48 169.01 78.77C170.48 77.05 171.47 74.76 174.39 77.29C179.39 81.63 184.69 85.61 189.84 89.78C190.67 90.47 191.92 90.93 191.8 92.63Z" fill="#020101"/>
<path d="M198.29 152.94C196.09 152.95 194.17 153.32 193.12 150.79C192.32 148.86 190.31 148.53 188.39 149.14C186.61 149.71 185.6 151.14 185.8 152.96C186.17 156.25 184.92 157.48 181.64 157.11C179.83 156.91 178.41 157.93 177.83 159.71C177.21 161.63 177.51 163.59 179.42 164.48C183.14 166.2 181.63 169.38 181.42 171.84C181.2 174.47 178.76 173.21 177.45 172.74C172.66 171 169.8 167.41 169.23 162.37C168.68 157.51 170.65 153.48 174.77 150.87C176.81 149.58 178.27 148.1 179.55 146.06C182.04 142.09 185.94 140.18 190.59 140.54C195.42 140.91 199.03 143.38 201.05 147.91C202.46 151.05 202.89 153.61 198.29 152.94Z" fill="#010101"/>
<path d="M86.73 152.97C95.94 153.02 103.07 160.27 103.02 169.52C102.97 178.64 95.52 186.04 86.48 185.95C77.54 185.86 69.96 178.17 70.05 169.25C70.13 160.17 77.55 152.92 86.73 152.97Z" fill="#010101"/>
<path d="M94.85 169.21C94.95 173.69 91.28 177.49 86.77 177.59C82.26 177.69 78.46 174.05 78.37 169.53C78.28 165.07 81.99 161.21 86.45 161.13C90.89 161.04 94.75 164.76 94.85 169.21Z" fill="#F9D56F"/>
</svg>
