<svg width="245" height="201" viewBox="0 0 245 201" fill="none" xmlns="http://www.w3.org/2000/svg">
<path d="M44.46 20.23C45.77 20.56 46.45 21.31 46.72 22.65C46.45 24.58 45.31 25.6 43.32 25.11C34.64 22.97 25.99 20.75 17.33 18.58C15.56 18.13 14.74 17.04 15.28 15.29C15.75 13.79 16.98 13.38 18.46 13.75C27.13 15.91 35.79 18.1 44.46 20.23Z" fill="#F7F9FA"/>
<path d="M52.07 22.19C54.25 22.79 57.55 22.12 57.47 25.81C57.43 27.62 55.9 28.13 54.05 27.71C52.09 26.85 48.68 27.73 48.47 24.26C48.34 22.11 50.29 21.7 52.07 22.19Z" fill="#F7F9FA"/>
<path d="M57.73 19.82C39.64 15.49 21.77 10.25 3.8 5.44C1.83 4.91 -0.610001 4.55 0.139999 1.83C0.909999 -0.990003 3.43 0.169996 5.21 0.639996C25.45 5.98 45.69 11.3 65.87 16.84C75.29 19.42 83.72 24.07 91.1 30.5C93.39 32.5 94.67 33.19 95.47 29.2C96.78 22.64 102.99 19.39 106.47 14.25C106.64 14 107.01 13.74 107.29 13.73C113.55 13.49 118.11 11.33 121.64 5.41C123.97 1.51 131.24 4.7 131.26 9.83C131.28 14.82 133.58 15.62 137.69 16.27C146.03 17.59 152.87 21.29 155.08 30.37C155.34 31.43 155.56 32.18 156.86 32.28C162.45 32.72 160.65 35.6 158.67 38.26C151.84 47.49 139.45 53.34 126.42 53.17C114.47 52.54 102.79 48.59 93.49 39.41C83.37 29.42 71.58 23.13 57.73 19.82Z" fill="#F7F9FA"/>
<path d="M243.75 116.5C236.88 156.27 212.94 180.87 175.3 193.22C167.55 195.76 159.64 197.68 151.59 198.96C144.02 200.16 136.37 200.64 128.7 200.56C107.07 200.7 86.29 196.36 66.87 186.96C33.63 170.87 15.84 144.07 13.18 107.17C12.62 99.38 15.8 93.7 21.7 89.13C31.8 81.31 43.65 77.45 55.76 74.36C79.77 68.23 104.25 66.09 128.97 66.22C131.65 66.24 134.26 66.23 136.73 64.96C138.58 64.01 140.79 63.8 142.59 64.48C153.55 68.64 165.25 67.34 176.52 69.27C191.28 71.79 205.98 74.46 219.93 80.16C222.39 81.17 224.84 82.22 227.2 83.42C242.98 91.49 246.78 98.98 243.75 116.5Z" fill="#F7F9FA"/>
<path d="M243.75 116.5C236.88 156.27 212.94 180.87 175.3 193.22C167.55 195.76 159.64 197.68 151.59 198.96C144.02 200.16 136.37 200.64 128.7 200.56C107.07 200.7 86.29 196.36 66.87 186.96C33.63 170.87 15.84 144.07 13.18 107.17C12.62 99.38 15.8 93.7 21.7 89.13C31.8 81.31 43.65 77.45 55.76 74.36C79.77 68.23 104.25 66.09 128.97 66.22C131.65 66.24 134.26 66.23 136.73 64.96C138.58 64.01 140.79 63.8 142.59 64.48C153.55 68.64 165.25 67.34 176.52 69.27C191.28 71.79 205.98 74.46 219.93 80.16C222.39 81.17 224.84 82.22 227.2 83.42C242.98 91.49 246.78 98.98 243.75 116.5Z" fill="#F34545"/>
<path d="M158.67 38.26C151.84 47.49 139.45 53.34 126.42 53.17C114.47 52.54 102.79 48.59 93.49 39.41C83.37 29.42 71.58 23.13 57.73 19.82C39.64 15.49 21.77 10.25 3.8 5.44C1.83 4.91 -0.610001 4.55 0.139999 1.83C0.909999 -0.990003 3.43 0.169996 5.21 0.639996C25.45 5.98 45.69 11.3 65.87 16.84C75.29 19.42 83.72 24.07 91.1 30.5C93.39 32.5 94.67 33.19 95.47 29.2C96.78 22.64 102.99 19.39 106.47 14.25C106.64 14 107.01 13.74 107.29 13.73C113.55 13.49 118.11 11.33 121.64 5.41C123.97 1.51 131.24 4.7 131.26 9.83C131.28 14.82 133.58 15.62 137.69 16.27C146.03 17.59 152.87 21.29 155.08 30.37C155.34 31.43 155.56 32.18 156.86 32.28C162.45 32.72 160.65 35.6 158.67 38.26Z" fill="#F34545"/>
<path d="M46.72 22.65C46.45 24.58 45.31 25.6 43.32 25.11C34.64 22.97 25.99 20.75 17.33 18.58C15.56 18.13 14.74 17.04 15.28 15.29C15.75 13.79 16.98 13.38 18.46 13.75C27.13 15.91 35.79 18.1 44.46 20.23C45.77 20.56 46.45 21.31 46.72 22.65Z" fill="#F34545"/>
<path d="M57.47 25.81C57.43 27.62 55.9 28.13 54.05 27.71C52.09 26.85 48.68 27.73 48.47 24.26C48.34 22.11 50.29 21.7 52.07 22.19C54.25 22.79 57.55 22.12 57.47 25.81Z" fill="#F34545"/>
<path d="M33.31 125.43C85.19 148.52 200.12 146.36 237.88 117.39C238.69 120.59 237.39 123.37 236.62 126.1C229.29 151.88 213.62 170.84 189.32 182.2C162.19 194.88 133.79 198.73 104.24 193.15C76.28 186.77 54.45 171.94 40.27 146.63C37.18 141.11 34.84 135.24 33.05 129.17C32.69 127.92 32.12 126.6 33.31 125.43Z" fill="#0B9D58"/>
<path d="M46.24 101.29C51.54 104.91 53.79 100.76 56.32 97.33C57.42 96.35 58.86 95.94 60.02 96.64C64.06 99.11 66.79 97.57 69.16 94.15C70.14 92.74 71.76 92.12 73.24 91.37C75.88 91.12 77.98 92.5 80.06 93.76C85.09 96.81 85.3 96.75 86.45 91.13C86.65 90.18 87.09 89.27 87.41 88.35C91.88 85.91 94.73 90.11 98.37 91.04C98.57 84.94 100.71 81.6 105.35 80.15C108.31 80.29 106.99 82.95 107.74 84.37C108.62 86.04 109.12 88.06 111.53 87.34C113.73 86.68 113.29 84.92 112.72 83.22C111.48 79.55 112.66 76.57 115.82 74.6C119.12 72.54 122.09 73.57 124.85 76.11C128.96 79.88 131.34 79.35 133.81 74.1C135.33 70.87 137.63 69.05 141.21 69.36C144.81 69.67 146.89 71.87 147.63 75.34C148.67 80.21 151.17 81.86 156.28 80.44C161.52 78.99 163.61 81.5 162.36 86.69C161.98 88.26 161.33 90.22 163.39 91.06C165.76 92.03 166.55 90.32 167.15 88.38C168.22 84.91 170.7 83.09 174.28 83.44C177.58 83.77 179.46 85.82 180.33 89.15C181.74 94.55 184.86 95.37 188.88 91.67C194.51 86.49 199.72 87.83 201.9 95.19C202.94 98.71 204.41 99.7 206.74 96.45C208.03 94.66 209.3 95.11 210.55 95.79C212.04 96.61 214.26 97.35 213.45 99.72C212.02 103.93 213.98 104.18 217.41 103.83C222.43 103.32 226.25 106.2 227.43 110.89C228.61 115.57 226.96 118.56 221.68 120.89C215.18 123.76 208.52 126.21 200.69 127.86C204.75 118.93 198.18 114.62 193.66 109.61C191.57 107.29 188.4 106.87 185.28 107.37C183.77 107.62 182.89 108.52 183.06 110.13C183.2 111.49 184.07 112.4 185.38 112.21C191.43 111.3 192.97 116.86 195.98 119.91C198.56 122.52 195 129.38 190.8 130.26C169.36 134.74 147.62 136.14 125.77 136.17C123.4 136.17 122.88 135.31 123.54 133.17C124.49 130.09 126.05 127.4 128.12 124.95C129.7 123.08 128.43 122.08 127.46 120.14C125.01 115.23 120.25 113.72 116.67 110.55C114.56 108.69 114.7 105.77 115.83 103.08C116.52 101.45 116.85 99.66 114.64 98.97C112.53 98.32 111.77 99.98 111.07 101.56C108.59 107.09 110.89 113.75 116.46 117.08C121.52 120.11 122.66 123.02 120.04 127.96C118.68 130.53 119.76 134.66 116.69 135.66C114.03 136.52 110.78 135.54 107.79 135.37C106.3 135.29 104.81 135.22 102.89 135.12C105.35 130.57 106.97 126.1 104.46 121.33C103.54 119.58 102.56 117.3 100.04 118.49C97.69 119.6 98.98 121.38 99.73 123.13C102.38 129.36 98.11 134.85 91.06 134.09C80.63 132.96 70.33 131.05 60.11 128.66C57.44 128.03 54.59 127.54 54.58 124.07C54.57 120.88 56.33 118.97 59.62 118.23C63.56 117.33 65.75 114.48 66.74 110.64C67.19 108.88 67.18 107.11 65.21 106.46C63.09 105.76 62.31 107.23 61.93 109.12C61.38 111.87 59.76 113.65 56.77 113.55C53.82 113.45 52.36 111.67 51.89 108.83C51.62 107.2 50.68 105.93 48.81 106.39C46.93 106.85 46.8 108.51 47.12 110.02C47.42 111.46 47.66 113.32 48.64 114.12C51.88 116.76 51.04 119.44 49.35 122.34C47.65 123.38 46.18 122.7 44.8 121.67C38.89 117.23 39.74 105.01 46.24 101.29Z" fill="#FEF17D"/>
<path d="M98.16 74.15C91 75.59 85.58 79.33 82.76 86.23C81.91 88.32 81.06 88.36 79.06 87.63C68.12 83.62 58.81 86.08 51.41 95.18C50.53 96.27 49.98 96.9 48.23 96.45C33.74 92.76 26.28 97.89 24.02 112.85C17.11 108.15 16.21 101.82 21.77 95.76C25.78 91.39 30.89 88.54 36.28 86.25C54.69 78.43 74.01 74.58 93.88 73.17C95.4 73.09 97.22 71.7 98.16 74.15Z" fill="#0B9D58"/>
<path d="M33.31 125.43C42.21 157.52 63.14 178.17 94.06 189.34C97.47 190.57 100.85 191.87 104.24 193.14C84.74 190.06 66.55 183.67 50.88 171.35C35.44 159.21 25.52 143.41 20.75 124.38C20.43 123.1 20.35 121.76 20.16 120.45C19.7 119.23 19.46 118.12 21.38 118.18C25.35 120.6 29.33 123.02 33.31 125.43Z" fill="#0B9D58"/>
<path d="M185.69 87.57C181.01 79.21 178.25 77.82 169.73 79.08C169.09 79.17 168.17 79.47 167.83 79.17C163.79 75.65 159.29 74.3 153.98 75.57C152.81 75.85 152.42 74.48 152.43 73.47C152.45 71.48 154.04 72.14 155.01 72.23C161.95 72.87 168.92 73.4 175.82 74.38C191.47 76.6 206.88 79.83 221.46 86.24C226.81 88.59 231.95 91.33 235.98 95.69C241.57 101.73 240.57 108.48 233.25 113.37C232.04 105.76 228.46 100.27 220.4 98.79C219.87 98.69 219.39 98.02 218.99 97.52C218.58 97 218.35 96.36 217.99 95.8C216.79 93.95 215.22 91.6 213.28 91.6C205.85 91.59 202.01 83.66 194.82 83.62C191.38 83.58 188.35 85.01 185.69 87.57Z" fill="#0B9D58"/>
<path d="M46.24 101.29C42.99 104.75 41.64 108.87 42.26 113.54C42.83 117.86 44.36 121.57 49.39 122.37C49.71 124.75 49 126 46.4 124.96C42.09 123.23 37.7 121.67 33.56 119.61C29.78 117.73 29.05 113.93 29.56 110.18C30.21 105.41 32.81 101.75 37.65 100.43C40.49 99.66 43.55 99.33 46.24 101.29Z" fill="#D5C867"/>
<path d="M105.37 80.16C101.1 83.12 99.5 87.51 98.88 92.73C94.93 91.3 91.74 88.25 87.43 88.36C91.09 80.41 97.11 77.66 105.37 80.16Z" fill="#D5C867"/>
<path d="M73.25 91.38C73.17 91.53 73.09 91.67 73.01 91.82C69.07 98.56 63.66 100.88 56.32 97.33C60.76 91.94 66.37 89.85 73.25 91.38Z" fill="#D4C767"/>
<path d="M98.16 74.15C96.95 72.86 95.29 73.56 93.88 73.18C99.27 71.54 104.87 72.59 111.07 71.05C107.37 78.35 102.08 72.62 98.16 74.15Z" fill="#0B9D58"/>
<path d="M21.37 118.18C20.46 118.66 20.29 119.54 20.15 120.45C19.2 119.42 18.77 118.08 19.65 117.06C20.15 116.49 20.94 117.52 21.37 118.18Z" fill="#3A9EA2"/>
<path d="M124.78 32.27C117.64 32.27 110.49 32.3 103.35 32.24C102.33 32.23 100.66 32.94 100.39 31.37C99.99 29.08 101.56 27.33 102.87 25.63C104.01 24.14 104.79 25.36 105.67 26.06C109.05 28.78 113.01 29.86 117.27 29.84C118.79 29.83 120.37 29.45 120.44 27.45C120.52 25.45 119.12 25.03 117.47 24.92C114.98 24.75 112.49 24.49 110.28 23.17C109.1 22.47 108.03 21.63 108.3 20.04C108.58 18.4 109.87 17.96 111.27 17.99C117.13 18.1 121.65 16.09 123.94 10.32C124.19 9.69 124.63 9.22 125.45 9.39C126.3 9.57 126.37 10.3 126.46 10.91C126.58 11.73 126.52 12.57 126.57 13.39C126.85 17.88 129.03 20.27 133.73 20.64C139.46 21.09 144.91 22.58 148.59 27.54C149.44 28.69 150.59 30.16 149.84 31.62C149.14 32.99 147.45 32.23 146.22 32.24C139.06 32.31 131.92 32.27 124.78 32.27Z" fill="#FDF07C"/>
<path d="M99.12 37.47C117.18 37.47 134.34 37.47 151.62 37.47C142.22 50.92 115.35 52.01 99.12 37.47Z" fill="#55D7D7"/>
<path d="M156.57 126.24C150.73 126.07 146.02 121.73 145.98 115.86C145.96 113.28 145.24 111.64 143.43 109.89C140.95 107.49 139.93 104.3 140.4 100.78C140.61 99.2 141.31 97.73 143.08 97.71C144.98 97.68 145.54 99.13 145.39 100.82C145.08 104.39 146.42 106.93 149.8 108.33C151.84 109.18 152.15 110.42 151.52 112.68C150.02 118.04 151.55 120.17 157.24 121.21C159.08 121.55 160.62 121.95 160.38 124.13C160.12 126.43 158.27 126.31 156.57 126.24Z" fill="#F34545"/>
<path d="M176.82 115.46C176.9 116.83 176.54 118.24 174.65 118.51C173.1 118.74 172.18 117.96 171.91 116.37C171.19 112.15 168.8 110.01 164.39 110.18C162.2 110.27 160.89 109.15 161.23 106.82C161.47 105.16 160.91 104.03 159.75 102.89C158.7 101.86 158.67 100.49 159.82 99.39C161.03 98.24 162.95 98.61 163.34 99.58C165.41 104.75 170.96 105.79 174.33 109.33C175.86 110.95 176.4 113.06 176.82 115.46Z" fill="#F34545"/>
</svg>
