<svg xmlns="http://www.w3.org/2000/svg" viewBox="0 0 147.4 147.4"><defs><style>.cls-1{fill:#fff;}.cls-2{opacity:0.03;}.cls-3{fill:#0b9d58;}</style></defs><g id="Objects"><rect class="cls-1" width="147.4" height="147.4" rx="58.62"/><path class="cls-2" d="M1105.06,323.37V307.08L1044.86,266l-8.13,9.12-7.64-1.16-6-3.35h-3.61l10.34,8.49-13,13.73s-6.63,18.1,7.68,37.43c3.68,5-16.36,24.73-14.67,29L1023.09,380h23.36C1078.82,380,1103.21,355.42,1105.06,323.37Z" transform="translate(-957.66 -232.59)"/><path class="cls-3" d="M1033,287.21h-3.08l-.58.6c-.49.53-1,1-1.4,1.54h7c-.45-.51-.92-1-1.41-1.54C1033.39,287.61,1033.2,287.42,1033,287.21Z" transform="translate(-957.66 -232.59)"/><path class="cls-3" d="M1036.89,291.72H1026c-.47.63-.91,1.25-1.3,1.87-.06.09-.12.18-.17.27h13.81c0-.09-.11-.18-.17-.27C1037.79,293,1037.36,292.35,1036.89,291.72Z" transform="translate(-957.66 -232.59)"/><path class="cls-3" d="M1023.19,296.21c-.38.73-.71,1.44-1,2.14h18.52c-.29-.7-.62-1.41-1-2.14Z" transform="translate(-957.66 -232.59)"/><path class="cls-3" d="M1021.38,300.72a17.92,17.92,0,0,0-.5,2.14H1042a18.38,18.38,0,0,0-.5-2.14Z" transform="translate(-957.66 -232.59)"/><path class="cls-3" d="M1042.33,306.3v0a9.45,9.45,0,0,0,0-1.06h-21.7c0,.36,0,.71,0,1.06v0c0,.35,0,.7,0,1.05h21.7C1042.33,307,1042.33,306.65,1042.33,306.3Z" transform="translate(-957.66 -232.59)"/><path class="cls-3" d="M1029.91,325.36H1033l.58-.6c.49-.52,1-1,1.4-1.54h-7c.45.51.92,1,1.41,1.54Z" transform="translate(-957.66 -232.59)"/><path class="cls-3" d="M1038.19,319l.16-.26h-13.8l.16.26c.4.62.84,1.25,1.31,1.88h10.86C1037.36,320.22,1037.79,319.6,1038.19,319Z" transform="translate(-957.66 -232.59)"/><path class="cls-3" d="M1040.71,314.22h-18.52c.28.7.61,1.41,1,2.14h16.53C1040.09,315.64,1040.42,314.92,1040.71,314.22Z" transform="translate(-957.66 -232.59)"/><path class="cls-3" d="M1042,309.72h-21.15c.12.7.29,1.41.49,2.14h20.16A21.3,21.3,0,0,0,1042,309.72Z" transform="translate(-957.66 -232.59)"/><path class="cls-3" d="M1017.47,349.94a22.27,22.27,0,0,0-1.67,1.9v.24h31.49a22.63,22.63,0,0,0-1.85-2.14Z" transform="translate(-957.66 -232.59)"/><path class="cls-3" d="M1020.19,347.43l-.16.14h22.86l-.17-.14c-.83-.69-1.69-1.35-2.58-2h-17.36C1021.89,346.08,1021,346.74,1020.19,347.43Z" transform="translate(-957.66 -232.59)"/><path class="cls-3" d="M1029.5,340.94c-1.13.72-2.23,1.42-3.31,2.14h10.54c-1.08-.72-2.18-1.43-3.31-2.14Z" transform="translate(-957.66 -232.59)"/><path class="cls-3" d="M1045.43,262.64a21.81,21.81,0,0,0,1.53-1.73v-.41h-31.35a27.42,27.42,0,0,0,1.85,2.14Z" transform="translate(-957.66 -232.59)"/><path class="cls-3" d="M1042.72,265.14l.16-.14H1020l.17.14c.84.69,1.7,1.36,2.58,2h17.37C1041,266.5,1041.88,265.83,1042.72,265.14Z" transform="translate(-957.66 -232.59)"/><path class="cls-3" d="M1033.4,271.64c1.13-.73,2.24-1.43,3.31-2.14h-10.54c1.08.71,2.19,1.42,3.32,2.14Z" transform="translate(-957.66 -232.59)"/><path class="cls-3" d="M1024.83,280.18a44.45,44.45,0,0,0-7.77,8.24,29.15,29.15,0,0,0,0,35.73,44.65,44.65,0,0,0,7.75,8.23c1.56-1.27,3.66-2.91,5-4.1a46,46,0,0,1-6.46-7.42c-2.94-4.4-5-9.37-4.95-14.57a24.55,24.55,0,0,1,3.61-12.43,42.79,42.79,0,0,1,7.81-9.57C1028.73,283.32,1026.18,281.28,1024.83,280.18Z" transform="translate(-957.66 -232.59)"/><path class="cls-3" d="M1040.51,269.5c-2.12,1.51-5,3.31-7.09,4.66,1.37.89,2.8,1.87,4.11,2.86l.55.42a82.1,82.1,0,0,0,6.51-5.8,31.6,31.6,0,0,0,6.88-9.73,19.38,19.38,0,0,0,1.55-8.56,22.43,22.43,0,0,1-3.38,7.56A36.46,36.46,0,0,1,1040.51,269.5Z" transform="translate(-957.66 -232.59)"/><path class="cls-3" d="M1046.66,343.18a69.49,69.49,0,0,0-8.59-8c-1,.78-2.9,2.13-4.27,3l-.36.24a107.91,107.91,0,0,1,10.65,7.37,29.75,29.75,0,0,1,5.55,5.88,22.39,22.39,0,0,1,3.38,7.57,19.35,19.35,0,0,0-1.55-8.56A28.35,28.35,0,0,0,1046.66,343.18Z" transform="translate(-957.66 -232.59)"/><path class="cls-3" d="M1046.9,262.64h.06v-.07Z" transform="translate(-957.66 -232.59)"/><path class="cls-3" d="M1029.49,338.41c4.54-2.93,10.88-6.7,16.36-14.26a29.17,29.17,0,0,0,0-35.73,48,48,0,0,0-13.22-12.23c-4.95-3.26-9.65-6-13.79-9.39-4.46-3.7-7.59-7.82-8.94-13.45-.3,6.11,2.35,11.39,6.37,16,3.8,4.37,8.41,7.87,12.9,11.53a50.31,50.31,0,0,1,10.37,10.79,25.75,25.75,0,0,1,5,14.57c0,5.4-2,10.1-5,14.57-4.18,6.14-9.2,9.82-14.68,14.27-5.23,4.27-10.79,9.29-13.39,15.53a19.57,19.57,0,0,0-1.56,8.57,22.41,22.41,0,0,1,3.39-7.57C1017.12,346.13,1023.66,342.12,1029.49,338.41Z" transform="translate(-957.66 -232.59)"/></g></svg>