<svg width="86" height="86" viewBox="0 0 86 86" fill="none" xmlns="http://www.w3.org/2000/svg">
<circle cx="43" cy="43" r="43" fill="#E9E9E9"/>
<g clip-path="url(#clip0_349_7177)">
<path d="M69.1872 65.14C69.8238 65.3581 70.3524 65.5044 70.8538 65.7175C73.553 66.8651 75.114 69.7627 74.6149 72.6602C74.1184 75.5429 71.5716 77.8257 68.6218 77.9224C66.4536 77.9943 64.283 77.9497 62.1124 77.9522C54.2509 77.9621 46.3919 77.9918 38.5305 77.967C34.2187 77.9546 31.1386 75.9172 29.3613 71.9513C29.0835 71.3267 28.8426 71.1879 28.1788 71.406C26.2491 72.0455 24.4792 72.9081 23.0485 74.4176C21.694 75.8453 19.8848 75.9593 18.5721 74.772C17.2987 73.6195 17.2962 71.7431 18.5745 70.2411C18.8375 69.9312 19.1202 69.6412 19.5357 69.1852C18.3508 69.0414 17.3233 68.9199 16.2957 68.7935C15.7672 68.7291 15.2362 68.682 14.7151 68.5828C13.0041 68.2557 11.9668 66.88 12.1561 65.2267C12.3429 63.5611 13.6384 62.4631 15.396 62.5374C16.3351 62.5796 17.2667 62.7035 18.3852 62.8076C17.3011 60.8222 16.2908 58.9211 15.2362 57.0472C13.6703 54.2661 12.4437 51.3785 12.1118 48.1513C11.925 46.3245 12.043 44.525 12.3281 42.728C12.4388 42.0365 12.7682 41.5804 13.5228 41.568L14.0391 39.8429C13.3483 39.3471 13.486 38.7746 13.7982 38.1053C17.4929 30.196 26.0181 28.56 31.4508 32.0822C31.5417 32.1417 31.6745 32.1343 31.7875 32.159C31.8269 32.0624 31.8809 31.993 31.8809 31.9236C31.8809 31.2221 32.1194 30.3571 31.7998 29.8638C31.3893 29.2243 30.551 29.8787 29.8996 29.9035C27.1169 30.0101 24.784 28.9839 22.7338 27.1943C20.6271 25.3551 19.1448 23.0426 17.9231 20.5441C17.5199 19.7162 17.6379 19.047 18.6163 18.8561C21.7801 18.2389 24.8823 18.2984 27.8027 19.9046C29.4596 20.8167 30.674 22.1825 31.8883 24.0538C31.8883 22.8145 31.9006 21.8949 31.8834 20.9778C31.8687 20.2665 31.935 19.5353 32.8126 19.5477C33.7074 19.5601 33.7074 20.3334 33.7074 21.02C33.7074 24.6909 33.7074 28.3617 33.7074 32.1987C39.5924 29.0384 44.8309 29.9382 49.5729 34.5931C50.0596 33.2199 50.0498 31.8393 50.1039 30.4661C50.1997 27.928 50.9175 25.603 52.4638 23.5705C55.7996 19.1907 61.4978 19.2353 64.7722 23.6721C66.2078 25.6154 67.0018 27.8214 67.019 30.2282C67.046 34.7567 68.4718 38.6209 71.5348 42.0216C74.5166 45.3256 75.2344 49.4724 74.7821 53.815C74.3224 58.2246 72.5771 62.0442 69.1896 65.14H69.1872Z" fill="#F7F9FA"/>
<path d="M69.1872 65.14C69.8238 65.3581 70.3524 65.5044 70.8538 65.7175C73.553 66.8651 75.114 69.7627 74.6149 72.6602C74.1184 75.5429 71.5716 77.8257 68.6218 77.9224C66.4536 77.9943 64.283 77.9497 62.1124 77.9522C54.2509 77.9621 46.3919 77.9918 38.5305 77.967C34.2187 77.9546 31.1386 75.9172 29.3613 71.9513C29.0835 71.3267 28.8426 71.1879 28.1788 71.406C26.2491 72.0455 24.4792 72.9081 23.0485 74.4176C21.694 75.8453 19.8848 75.9593 18.5721 74.772C17.2987 73.6195 17.2962 71.7431 18.5745 70.2411C18.8375 69.9312 19.1202 69.6412 19.5357 69.1852C18.3508 69.0414 17.3233 68.9199 16.2957 68.7935C15.7672 68.7291 15.2362 68.682 14.7151 68.5828C13.0041 68.2557 11.9668 66.88 12.1561 65.2267C12.3429 63.5611 13.6384 62.4631 15.396 62.5374C16.3351 62.5796 17.2667 62.7035 18.3852 62.8076C17.3011 60.8222 16.2908 58.9211 15.2362 57.0472C13.6703 54.2661 12.4437 51.3785 12.1118 48.1513C11.925 46.3245 12.043 44.525 12.3281 42.728C12.4388 42.0365 12.7682 41.5804 13.5228 41.568C14.6462 41.7291 14.5848 42.5768 14.457 43.3551C13.5032 49.1353 15.6492 54.0133 18.808 58.7128C19.5283 57.6247 20.3961 56.7969 21.6989 56.6134H21.7014C21.7579 56.6085 21.812 56.606 21.8661 56.6035C23.3509 56.5515 24.3317 57.3818 25.0987 58.5864C26.0377 60.0637 27.3037 61.1965 28.7418 62.1681C29.4252 62.6266 29.8873 62.5548 30.3913 61.9004C31.2762 60.7528 32.3701 59.8382 33.7 59.2408C34.8087 58.7426 35.293 58.9533 35.5241 60.0835C35.5339 60.1257 35.5413 60.1703 35.5486 60.2149C35.556 60.2571 35.5634 60.3017 35.5708 60.3463C35.3938 61.0552 34.7768 61.3402 34.2605 61.7244C32.793 62.815 31.5712 64.0915 31.1238 65.9505C31.0574 66.1389 31.0009 66.3298 30.9542 66.5256C30.9026 66.7313 30.8632 66.942 30.8313 67.1527C30.2561 71.0466 32.9872 75.6842 38.6608 75.8379C39.327 75.8577 39.6539 75.5702 39.6637 74.9084C39.6736 74.2441 39.8456 73.5972 39.8973 72.9354C39.9022 72.8759 39.9071 72.8189 39.9096 72.7594C39.912 72.6999 39.9145 72.6429 39.9145 72.5834C39.8973 71.9166 40.0103 71.2747 40.2832 70.6724C40.5167 70.1593 40.8879 69.7652 41.5025 69.8544C42.0949 69.9387 42.3924 70.3799 42.5128 70.94C42.6308 71.5052 42.6013 72.0753 42.5128 72.6429C42.503 72.6801 42.4956 72.7148 42.4882 72.7519C42.4784 72.7916 42.4686 72.8313 42.4612 72.8734C42.3358 73.5228 42.3604 74.192 42.2449 74.8439C42.1244 75.5256 42.3481 75.8775 43.0586 75.8577C43.1397 75.8577 43.2233 75.8602 43.3044 75.8626C44.84 75.9271 45.7421 75.1984 46.0109 73.6765C46.0601 73.4038 46.0896 73.1287 46.1854 72.8684C46.1953 72.8362 46.2076 72.804 46.2223 72.7718C46.2297 72.7519 46.2371 72.7346 46.2469 72.7172C47.1786 71.7828 47.4514 71.7704 48.3757 72.6206C48.3978 72.6652 48.42 72.7123 48.4372 72.7569C48.4642 72.8189 48.4863 72.8833 48.5036 72.9453C48.6928 73.5972 48.5035 74.2664 48.4372 74.9158C48.3733 75.5528 48.5257 75.8503 49.1771 75.8403C51.451 75.8032 53.7126 75.528 55.9913 75.5578C56.5248 75.5652 56.7583 75.1587 56.8148 74.658C56.8812 74.0954 56.9353 73.5302 57.1 72.9849C57.1221 72.9081 57.1467 72.8313 57.1738 72.7569C57.1762 72.747 57.1811 72.7395 57.1836 72.7296C58.071 71.4754 58.5897 71.4779 59.428 72.7321C59.4304 72.7396 59.4329 72.7495 59.4329 72.7569C59.4427 72.7916 59.4525 72.8263 59.4575 72.861C59.5828 73.4286 59.5558 74.0037 59.4452 74.5688C59.2952 75.357 59.6492 75.6098 60.367 75.6073C63.1448 75.6024 65.9226 75.6743 68.6955 75.5826C70.8391 75.5107 72.3288 73.8401 72.4443 71.6043C72.4517 71.4903 72.4542 71.3738 72.4517 71.2573C72.4517 71.2152 72.4517 71.1755 72.4492 71.1334C72.0928 69.1529 70.9497 67.9285 69.0102 67.4303C68.253 67.2345 67.8646 67.4451 67.7614 68.2581C67.5795 69.6883 67.4836 71.1259 67.2796 72.5536C67.2722 72.6156 67.2624 72.6801 67.2525 72.742C67.2451 72.7941 67.2378 72.8461 67.2304 72.8982C67.0042 73.5525 66.6355 74.0483 65.871 74.0111C65.195 73.9789 64.873 73.5724 64.7697 72.9651C64.7623 72.9254 64.7574 72.8833 64.7525 72.8412V72.7569C64.75 71.1755 65.0696 69.6189 65.195 68.045C65.3031 66.6817 65.2319 66.5826 63.9192 66.2851C60.4432 65.5019 56.9746 64.6914 53.5085 63.8759C52.5719 63.6553 52.0975 63.8214 52.0287 64.8351C52.0065 65.1598 51.8861 65.4821 51.714 65.7671C51.451 66.1984 51.0577 66.3744 50.5685 66.3248C50.0645 66.2727 49.7474 65.9877 49.5999 65.5044C49.5409 65.3061 49.5213 65.1003 49.5065 64.8946C49.3689 62.9439 49.3713 62.9315 47.4146 62.4878C45.8978 62.1458 44.3909 61.7591 42.8668 61.4394C41.4337 61.137 41.4042 61.1667 41.1878 62.6737C41.0895 63.3678 41.1165 64.0742 40.9592 64.7632C40.8756 65.1251 40.824 65.4994 40.6372 65.8241C40.3471 66.3298 39.9268 66.6371 39.322 66.5206C38.7517 66.4115 38.5501 65.9654 38.4764 65.4399C38.3363 64.441 38.5157 63.462 38.6608 62.4829C38.8132 61.4443 38.8623 60.495 37.5251 60.21C37.3358 60.1703 37.2202 59.9472 37.1293 59.7564C37.1244 59.687 37.1219 59.6225 37.1195 59.5581C37.117 59.5382 37.117 59.5209 37.1195 59.5011C37.0826 58.4129 37.4095 58.0907 38.5649 58.0585C40.3914 58.0089 42.1072 58.641 43.8624 59.0103C46.2321 59.506 46.2297 60.0935 47.7218 57.2504C49.0222 54.7693 50.4726 52.3625 50.9913 49.5567C52.0065 44.0615 50.9692 39.1588 46.8418 35.1681C43.7714 32.1987 38.8501 31.6385 35.3004 34.0205C33.5255 35.2103 32.0702 35.24 30.2683 34.0156C27.756 32.3078 24.9143 32.1739 22.0357 33.1208C21.9816 33.1381 21.93 33.1579 21.8759 33.1778C21.7801 33.21 21.6866 33.2447 21.5932 33.2819C19.1645 34.2262 17.4831 36.0307 16.1876 38.2813C15.9024 38.7795 15.7131 39.3422 15.2559 39.7214C14.8872 40.0263 14.4815 40.1899 14.0391 39.8429C13.3483 39.3471 13.486 38.7746 13.7982 38.1053C17.4929 30.196 26.0181 28.56 31.4508 32.0822C31.5417 32.1417 31.6745 32.1343 31.7875 32.159C31.8269 32.0624 31.8809 31.993 31.8809 31.9236C31.8809 31.2221 32.1194 30.3571 31.7998 29.8638C31.3893 29.2243 30.551 29.8787 29.8996 29.9035C27.1169 30.0101 24.784 28.9839 22.7338 27.1943C20.6271 25.3551 19.1448 23.0426 17.9231 20.5441C17.5199 19.7162 17.6379 19.047 18.6163 18.8561C21.7801 18.2389 24.8823 18.2984 27.8027 19.9046C29.4596 20.8167 30.674 22.1825 31.8883 24.0538C31.8883 22.8145 31.9006 21.8949 31.8834 20.9778C31.8687 20.2665 31.935 19.5353 32.8126 19.5477C33.7074 19.5601 33.7074 20.3334 33.7074 21.02C33.7074 24.6909 33.7074 28.3617 33.7074 32.1987C39.5924 29.0384 44.8309 29.9382 49.5729 34.5931C50.0596 33.2199 50.0498 31.8393 50.1039 30.4661C50.1997 27.928 50.9175 25.603 52.4638 23.5705C55.7996 19.1907 61.4978 19.2353 64.7722 23.6721C66.2078 25.6154 67.0018 27.8214 67.019 30.2282C67.046 34.7567 68.4718 38.6209 71.5348 42.0216C74.5166 45.3256 75.2344 49.4724 74.7821 53.815C74.3224 58.2246 72.5771 62.0442 69.1896 65.14H69.1872Z" fill="black"/>
<path d="M21.1774 54.559C21.4331 55.2258 21.8952 55.8479 21.8657 56.6039C21.8657 56.6956 21.8534 56.7874 21.8362 56.884C19.9925 57.4318 19.6582 57.7317 18.8667 59.6205C15.7767 54.5913 12.9546 49.5819 14.1346 43.3729C14.2747 42.6343 14.2747 41.9824 13.5225 41.5684L14.0387 39.8433C14.9851 39.9994 15.2973 39.3203 15.6365 38.6411C16.9861 35.9394 18.9158 33.8673 21.8338 32.8758C21.8706 32.9824 21.8829 33.0815 21.8756 33.1782C21.8583 33.4434 21.7035 33.6789 21.5929 33.9218C18.4906 40.7406 18.4881 47.6163 21.1774 54.559Z" fill="#C32D2D"/>
<path d="M21.834 56.884C19.6117 52.4571 18.5621 47.7626 18.9161 42.8152C19.1668 39.3128 19.9559 35.9171 21.834 32.8758C25.0592 31.6934 28.0976 32.0727 30.9442 33.9961C32.3921 34.9752 33.1566 35.0842 34.4128 34.1424C39.3588 30.4318 46.4114 32.1669 49.6145 38.014C52.4243 43.1473 52.4194 48.4244 49.971 53.6915C49.1057 55.5554 48.0167 57.3128 47.0948 59.1495C46.7482 59.8386 46.3328 59.9774 45.6297 59.8063C43.6435 59.3205 41.6572 58.8421 39.6513 58.4505C37.8691 58.1035 37.4708 58.3291 37.2225 59.5262C36.6104 59.7196 36.0672 60.0839 35.4452 60.2525C35.2609 59.1768 34.6832 59.0032 33.781 59.4915C32.4659 60.2029 31.2908 61.1002 30.487 62.3693C30.0052 63.1302 29.6094 63.0831 28.9383 62.6593C27.3281 61.643 25.8311 60.5127 24.8871 58.8099C24.2086 57.5855 23.2303 56.9237 21.8389 56.884H21.834Z" fill="#F34545"/>
<path d="M67.7486 51.2401C68.4738 50.898 68.5696 50.3726 68.3681 49.6166C67.2299 45.331 63.3311 42.2748 58.926 42.2723C58.4368 42.2723 57.95 42.2723 57.4609 42.2723C57.0577 41.9328 56.9594 41.4321 56.8168 40.9661C56.0449 38.4428 54.8355 36.1972 52.8123 34.4547C52.4387 34.1349 52.1216 33.7582 51.8389 33.3541C51.9151 31.049 51.8807 28.724 52.859 26.5626C53.8767 24.312 55.3714 22.567 57.9574 22.2349C60.2632 21.9375 61.9914 23.0479 63.3115 24.8474C64.43 26.3743 65.0347 28.1267 65.1306 30.0179C65.2805 32.9972 65.5632 35.9369 66.9103 38.6634C67.6281 40.1134 68.5278 41.4321 69.6463 42.5946C75.0446 48.2112 73.6483 59.1123 67.8248 63.8317C67.1021 64.4166 66.4482 64.6273 65.4895 64.3844C62.8001 63.7003 60.074 63.1674 57.365 62.5601C57.1069 62.5031 56.8709 62.3494 56.6496 62.0594C57.274 62.0941 57.8984 62.1363 58.5228 62.1586C63.1099 62.3246 67.1758 59.2709 68.3705 54.797C68.5721 54.0385 68.6262 53.4064 67.751 53.0743C67.3159 52.4621 67.3307 51.8498 67.751 51.2401H67.7486Z" fill="#35E197"/>
<path d="M35.4403 60.2525C35.8017 59.437 36.4433 59.3181 37.2176 59.5263C37.3749 59.8906 37.6281 60.193 38.0387 60.1608C39.312 60.0592 39.2481 60.7631 39.0883 61.6951C38.8966 62.8278 38.8376 63.9854 38.7368 65.1355C38.6852 65.7254 38.8376 66.2409 39.5234 66.2979C40.1822 66.3525 40.4625 65.9261 40.5338 65.3139C40.6788 64.0473 40.8927 62.7832 40.959 61.5117C41.0008 60.7259 41.2811 60.6838 41.9251 60.8424C44.3416 61.4323 46.7629 62.0099 49.2015 62.513C49.9709 62.6717 50.1184 62.9741 49.9464 63.6805C49.8308 64.1539 49.8382 64.662 49.8234 65.1553C49.8062 65.6758 50.0447 66.0327 50.5855 66.0922C51.1042 66.1517 51.4508 65.9212 51.5786 65.3957C51.5983 65.3164 51.5934 65.2272 51.6229 65.1528C51.8834 64.5331 51.4459 63.5367 52.1047 63.2889C52.6553 63.0807 53.4371 63.4872 54.1131 63.6408C57.6529 64.4538 61.1854 65.2891 64.7302 66.0724C65.4972 66.2409 65.7995 66.469 65.6496 67.3613C65.3497 69.1434 65.2194 70.9553 65.0178 72.7548C64.7154 73.0944 64.3 73.1663 63.8993 73.1365C62.3457 73.0176 60.738 73.5579 59.2385 72.7573C58.4445 71.7386 58.1839 71.7386 57.3899 72.7573C57.0162 73.1663 56.5123 73.1514 56.0305 73.1564C53.8795 73.1787 51.7286 73.1737 49.5776 73.1613C49.0811 73.1589 48.6066 73.0771 48.201 72.7598C47.6061 71.9815 47.0186 72.1253 46.4335 72.7747C45.0127 73.3448 43.5943 73.4414 42.1808 72.7499C42.2029 72.2244 42.2226 71.6989 42.2472 71.1759C42.2767 70.6034 42.0112 70.2093 41.4605 70.1399C40.905 70.0705 40.5559 70.3952 40.4649 70.9603C40.3691 71.5601 40.2879 72.16 40.1994 72.7598C39.3366 73.3497 38.3705 73.1762 37.4806 72.9903C34.7766 72.4227 32.7903 70.7992 31.3547 68.4519C30.8409 67.6116 30.6197 66.7243 30.8803 65.7502C31.3744 63.7573 32.633 62.3643 34.3193 61.3109C34.7643 61.0333 35.2977 60.8548 35.4378 60.25L35.4403 60.2525Z" fill="#FEB42D"/>
<path d="M67.7488 51.2401C67.7488 51.8524 67.7488 52.4646 67.7488 53.0743C66.9252 53.1239 66.736 53.7213 66.5442 54.393C64.9513 59.9179 58.609 62.0669 53.9998 58.6587C53.5229 57.6945 54.1916 56.998 54.6021 56.2842C56.0525 53.7708 57.1071 51.1286 57.4709 48.2211C57.5741 47.4007 57.5815 46.5852 57.5938 45.7623C57.6012 45.2294 57.5569 44.6841 57.9306 44.233C61.4188 43.5365 65.2881 46.0597 66.4828 49.8322C66.6991 50.5164 66.8318 51.2178 67.7463 51.2376L67.7488 51.2401Z" fill="#AD583E"/>
<path d="M15.5062 64.3918C17.6203 64.6248 19.732 64.8677 21.846 65.0809C22.3573 65.1329 22.9645 65.2941 23.2669 64.6719C23.5742 64.0399 23.1784 63.5912 22.7728 63.1475C22.1041 62.4188 21.5314 61.6157 21.0643 60.7383C20.703 60.0567 20.7497 59.4147 21.4281 59.0156C22.0919 58.6265 22.7236 58.8396 23.1096 59.5089C24.3879 61.7198 26.2217 63.3161 28.4464 64.4786C29.0069 64.7711 29.0487 65.1131 28.911 65.6733C28.7242 66.4293 28.4611 67.2448 28.5767 67.9784C28.7709 69.2153 28.1391 69.4904 27.1902 69.773C25.1622 70.3802 23.3554 71.4114 21.8829 72.9804C21.3126 73.5876 20.6587 74.1131 19.8844 73.3893C19.0584 72.6185 19.5476 71.9121 20.1671 71.2701C20.8259 70.5885 21.5338 69.9688 22.318 69.4309C22.7064 69.1657 23.0162 68.8286 22.8932 68.3007C22.7556 67.7107 22.291 67.5967 21.7698 67.5397C19.6164 67.3042 17.463 67.0514 15.3096 66.8035C14.5229 66.7118 13.933 66.3276 14.0067 65.4725C14.0805 64.6322 14.7049 64.3249 15.5013 64.3893L15.5062 64.3918Z" fill="#1AB874"/>
<path d="M57.933 44.2354C58.2427 48.759 57.1217 52.9058 54.7397 56.7353C54.3808 57.3128 53.9703 57.9102 54.0022 58.6587C53.5573 58.2423 53.0779 57.8556 52.6723 57.4045C51.6595 56.2817 51.1679 55.1961 52.0283 53.5849C53.0902 51.597 53.5376 49.339 53.5229 47.0512C53.518 46.2927 53.7761 45.8218 54.4029 45.4574C55.5042 44.8179 56.6129 44.2181 57.933 44.2354Z" fill="#7B3F2C"/>
<path d="M59.241 72.7573C61.1682 72.7573 63.093 72.7573 65.0203 72.7573C65.0818 73.2828 65.2415 73.724 65.8635 73.7959C66.6526 73.8876 66.7632 73.2555 66.9894 72.7424C67.5523 72.2913 68.2234 72.3806 68.8601 72.4053C70.3448 72.4624 71.6723 72.1352 72.7195 70.995C73.1005 73.5009 71.3822 75.8631 68.8797 75.9771C65.7873 76.1159 62.685 76.0366 59.5876 76.0762C59.0173 76.0837 58.8968 75.8432 58.9632 75.3326C59.0738 74.4775 59.15 73.6174 59.241 72.7598V72.7573Z" fill="#FEA80B"/>
<path d="M30.8825 65.7502C30.8333 68.8683 34.946 72.6532 38.2548 72.7548C38.9037 72.7747 39.5527 72.7598 40.2017 72.7598C40.1697 73.1266 40.1501 73.4935 40.1009 73.8578C39.8764 75.4921 38.9185 76.2117 37.2272 76.0167C32.4091 75.459 29.2281 70.3109 30.8825 65.7526V65.7502Z" fill="#FEA80B"/>
<path d="M51.8392 33.3517C54.2213 34.819 55.6839 37.0275 56.6746 39.5805C57.0114 40.4456 57.385 41.3181 57.4612 42.2699C56.2935 42.5995 55.0915 42.8325 54.0393 43.4869C53.469 43.8413 53.3633 43.5067 53.2871 43.0259C52.9676 40.9884 52.3432 39.0501 51.3132 37.2605C51.0354 36.7772 51.1214 36.3509 51.2615 35.8601C51.4975 35.0372 51.6499 34.1895 51.8392 33.3517Z" fill="#1AB874"/>
<path d="M48.2033 72.7598C51.2662 72.7598 54.3292 72.7598 57.3922 72.7598C57.3553 73.0845 57.3209 73.4092 57.2791 73.7339C57.0808 75.2955 56.2171 76.0787 54.6881 76.0837C52.8985 76.0911 51.1065 76.0564 49.3218 76.1382C48.3114 76.1853 47.7829 76.0366 48.0779 74.832C48.2402 74.1702 48.1689 73.4513 48.2033 72.7573V72.7598Z" fill="#FDA80B"/>
<path d="M72.717 70.995C72.4761 71.9889 71.451 72.6854 70.0252 72.7474C69.0149 72.7895 67.9996 72.7474 66.9868 72.7425C67.1638 70.943 67.3433 69.1434 67.5178 67.3439C67.5473 67.0415 67.5596 66.8284 67.9947 66.8309C70.3497 66.8433 72.4711 68.6923 72.7194 70.995H72.717Z" fill="#FEB42D"/>
<path d="M30.9095 26.6717C31.4676 27.5566 31.1775 27.8738 30.1893 27.9631C26.5314 28.3002 24.083 26.3222 21.9861 23.675C21.4035 22.9364 20.9463 22.0986 20.4252 21.3104C20.0663 20.77 20.0368 20.4081 20.848 20.4428C21.3372 20.4627 21.8264 20.4552 22.3131 20.4602C23.3505 21.0377 23.8126 22.1531 24.5894 22.9785C26.1774 24.6665 27.9941 25.8736 30.263 26.347C30.5064 26.399 30.7276 26.4883 30.9071 26.6717H30.9095Z" fill="#1AB874"/>
<path d="M30.9094 26.6717C28.8617 26.5899 27.1237 25.7273 25.6193 24.4012C24.3287 23.2611 23.1537 21.9994 22.3154 20.4627C26.4084 20.366 29.7885 22.81 30.9094 26.6742V26.6717Z" fill="#1ED587"/>
<path d="M42.1831 72.7499C43.6015 72.7573 45.0174 72.7672 46.4358 72.7747C46.3571 73.4687 46.1801 74.1701 46.2244 74.8567C46.2981 76.0267 45.7278 76.1655 44.7495 76.1531C41.4677 76.1159 41.4677 76.1506 42.1216 72.8565C42.129 72.8193 42.1609 72.7846 42.1831 72.7499Z" fill="#FBA60B"/>
<path d="M52.3085 61.2985C51.2785 61.0705 50.251 60.8176 49.2136 60.6193C48.658 60.5128 48.5204 60.3145 48.8228 59.8014C49.2775 59.028 49.693 58.2299 50.2289 57.2509C51.0376 58.5274 51.9816 59.5089 53.0534 60.3566C52.9083 60.7532 52.6306 61.0432 52.3085 61.2985Z" fill="#1AB773"/>
<path d="M52.3086 61.2985C52.3971 60.8573 52.5003 60.426 53.0534 60.3566C53.9433 60.9118 54.8701 61.3952 55.8607 61.7546C55.8337 61.876 55.8042 61.9999 55.7772 62.1214C54.6218 61.8463 53.464 61.5736 52.3086 61.2985Z" fill="#31D28D"/>
</g>
<defs>
<clipPath id="clip0_349_7177">
<rect width="62.8817" height="59.4827" fill="white" transform="translate(12.0205 18.4946)"/>
</clipPath>
</defs>
</svg>
