<svg width="90" height="73" viewBox="0 0 90 73" fill="none" xmlns="http://www.w3.org/2000/svg">
<g clip-path="url(#clip0_349_2625)">
<path d="M87.6328 35.099C84.9388 41.0741 80.6621 45.8584 76.0197 50.3371C68.2366 57.8508 59.7747 64.6023 51.6328 71.7155C49.4804 73.5948 47.518 73.2892 45.2812 70.8619C36.5062 63.3693 27.4711 56.1647 19.3679 47.9204C16.3785 44.8819 13.6317 41.6361 11.5848 37.86C8.67271 37.8564 5.76416 37.8529 2.8556 37.8459C2.44763 37.8459 2.0291 37.8916 1.6352 37.8143C0.822774 37.6562 -0.0705433 37.4455 0.00331366 36.3706C0.0736536 35.3835 0.801672 35.0463 1.73016 35.0463C4.52266 35.0533 7.31515 35.0498 10.1076 35.0463C6.93532 27.5431 6.88608 20.0294 10.4242 12.6738C17.729 -2.51171 37.1182 -4.42263 47.3527 8.96082C48.879 10.956 48.8544 10.9385 50.3667 9.02405C54.1229 4.27135 58.7231 0.902649 64.9623 0.273872C71.2261 -0.593769 76.8286 1.03613 81.5731 5.13196C89.9013 12.319 92.328 24.6908 87.6328 35.099Z" fill="#F7F9FA"/>
<path d="M77.0276 37.8481C73.8348 43.6188 69.3015 48.2555 64.5602 52.6905C58.8739 58.0125 52.8909 62.9935 47.0921 68.1833C46.1848 68.9938 45.4139 70.086 44.0324 70.1695C35.5218 62.7501 26.7588 55.6158 18.8998 47.452C16.0004 44.4432 13.3363 41.2291 11.3511 37.4898C11.9378 36.8567 12.7155 37.0237 13.4352 37.0168C15.7616 36.9889 18.0879 36.975 20.4143 37.0168C21.7412 37.0411 22.686 36.575 23.3307 35.3541C23.8151 34.4393 24.2892 33.5105 24.8214 32.6235C25.2546 31.8965 25.6434 31.5243 26.0323 31.5104C26.0664 31.5069 26.1005 31.5104 26.1346 31.5139C26.503 31.5591 26.8714 31.9278 27.2807 32.6305C28.9931 35.5628 30.5417 38.5925 32.2506 41.5248C32.7828 42.4396 33.0625 43.8866 34.2495 43.8971C35.4468 43.911 35.7367 42.4709 36.2382 41.5422C38.2439 37.8446 40.3724 34.2236 42.3678 30.5191C43.2411 28.8947 43.9301 28.8912 44.8988 30.453C45.7755 31.8722 46.6521 33.3053 47.3275 34.8323C48.0609 36.4846 49.1968 37.1211 50.9569 37.0376C52.5942 36.9576 54.2485 36.8602 55.8824 37.142C55.92 37.1524 55.9541 37.1663 55.9848 37.1802C56.0257 37.1976 56.0632 37.215 56.0973 37.2359C56.4896 37.4585 56.6567 37.869 56.8034 38.2968C57.5743 40.516 59.1264 41.9144 61.2548 42.7109C61.497 42.7596 61.7324 42.8014 61.9678 42.8292C62.2611 42.8744 62.551 42.8988 62.8342 42.9127C66.2248 43.0727 68.7626 41.2987 69.8132 37.9455C71.0957 33.8549 67.9883 29.3851 63.7722 29.2738C63.4379 29.2634 63.1036 29.2425 62.7694 29.239C62.4589 29.2355 62.1485 29.246 61.8415 29.3051C61.6403 29.3364 61.4459 29.3886 61.2514 29.4651C59.1263 30.2408 57.605 31.653 56.8137 33.8375C56.6602 34.2723 56.5135 34.7106 56.0973 34.9401C56.0598 34.961 56.0223 34.9784 55.9814 34.9958C55.9643 35.0028 55.9472 35.0097 55.9302 35.0167C54.1837 35.3262 52.4202 35.1349 50.6669 35.1454C49.6914 35.1558 49.1149 34.5645 48.6544 33.7749C47.5219 31.8339 46.4884 29.8373 45.3764 27.8859C43.954 25.3815 43.3366 25.4093 41.9005 27.9833C39.8846 31.6078 37.855 35.2254 35.8664 38.8673C35.7572 39.069 35.6549 39.2742 35.5321 39.469C34.5122 41.1039 33.8197 41.1108 32.8885 39.3612C31.2648 36.3072 29.4843 33.3436 27.8742 30.2825C27.4376 29.4547 27.1409 28.2198 26.0255 28.2372C25.0055 28.2512 24.7565 29.4512 24.3097 30.2199C23.6411 31.3643 22.9794 32.5122 22.3517 33.6775C21.8469 34.6166 21.0862 35.1384 20.0152 35.1523C17.0646 35.1906 14.1106 35.1906 11.1601 35.1523C10.7064 35.1454 10.2425 35.1036 9.91504 34.7036C6.83826 27.2737 6.79051 19.8334 10.222 12.5496C17.3102 -2.48758 36.1154 -4.37983 46.0415 8.87292C47.5219 10.8487 47.4981 10.8313 48.9648 8.93553C52.6078 4.22924 57.0695 0.893441 63.1207 0.270805C70.0144 1.35259 74.7865 5.47103 77.8087 11.5965C82.1612 20.4073 81.7826 29.2564 77.0276 37.8481Z" fill="#DF2925"/>
<path d="M87.6329 35.0991C84.9389 41.0742 80.6623 45.8585 76.0198 50.3372C68.2367 57.8509 59.7748 64.6024 51.6329 71.7156C49.4805 73.5949 47.5181 73.2893 45.2812 70.862C50.7607 66.155 56.2156 61.4199 61.7197 56.7479C65.2859 53.7235 68.7678 50.6042 71.9401 47.1793C76.1218 42.6584 79.9307 37.8495 81.5696 31.755C83.81 23.4158 82.7795 15.5894 77.5849 8.51482C74.599 4.45061 70.5368 1.96361 65.708 0.6639C65.4161 0.586621 65.1382 0.540955 64.9624 0.273989C71.2262 -0.593653 76.8287 1.03625 81.5732 5.13208C89.9014 12.3191 92.3281 24.6909 87.6329 35.0991Z" fill="#0A9D57"/>
<path d="M57.7208 37.6036C57.6856 37.6563 57.6469 37.7125 57.6047 37.7687C55.5016 37.7793 53.3949 37.7406 51.2952 37.8214C50.0713 37.8706 49.3503 37.3683 48.7876 36.3285C47.6024 34.1331 46.3398 31.9763 45.0139 29.6333C43.7935 30.9716 43.2061 32.4891 42.4078 33.8591C40.4699 37.1821 38.62 40.5613 36.6891 43.8914C35.6481 45.6864 34.7231 45.6723 33.6856 43.8668C31.4347 39.9572 29.219 36.0264 26.8275 31.8252C26.8099 31.7936 26.7923 31.762 26.7747 31.7304C26.7571 31.762 26.7395 31.7936 26.722 31.8217C25.8005 33.4059 24.9212 34.7759 24.2003 36.2231C23.5918 37.4456 22.7196 37.8425 21.3972 37.8249C18.1264 37.7758 14.8556 37.8425 11.5848 37.8601C8.67272 37.8565 5.76416 37.853 2.8556 37.846C2.44763 37.846 2.0291 37.8917 1.6352 37.8144C0.822774 37.6563 -0.0705433 37.4456 0.00331366 36.3707C0.0736536 35.3836 0.801673 35.0464 1.73016 35.0464C4.52266 35.0534 7.31515 35.0499 10.1077 35.0464C13.5649 35.0604 17.0186 35.0323 20.4722 35.1096C21.5133 35.1307 22.0584 34.7162 22.5156 33.845C23.3597 32.2432 24.2812 30.6801 25.1991 29.1169C26.3175 27.2025 27.2003 27.1709 28.2905 29.0677C30.2495 32.4575 32.1487 35.8824 34.0901 39.2827C34.4031 39.8307 34.5895 40.4735 35.321 40.9548C37.2272 37.6071 39.1194 34.2841 41.0115 30.9611C41.8521 29.4893 42.6504 27.9893 43.5367 26.5491C44.4336 25.0913 45.4429 25.1019 46.3116 26.5807C47.7606 29.0502 49.178 31.5372 50.5426 34.0558C50.9646 34.8286 51.4605 35.1307 52.3363 35.1026C54.0912 35.0499 55.8462 35.1061 57.6047 35.1166C57.6469 35.1728 57.6856 35.229 57.7243 35.2852C58.2343 36.0545 58.2343 36.8308 57.7243 37.6036H57.7208Z" fill="white"/>
<path d="M57.6045 37.7687C57.6045 36.8835 57.6045 35.9983 57.6045 35.1166C58.5048 32.4329 59.873 30.1813 62.8589 29.412C63.8612 29.0396 64.6631 29.4893 65.4404 30.0443C69.71 33.1074 69.71 39.785 65.4404 42.8481C64.6666 43.4031 63.8648 43.8528 62.8589 43.4804C59.873 42.7076 58.5013 40.456 57.6045 37.7652V37.7687Z" fill="white"/>
<path d="M62.8594 43.4804C66.619 42.9324 69.3131 37.8355 67.7972 34.0628C66.8899 31.8077 65.5639 29.837 62.8594 29.4085C65.9297 28.309 69.2111 29.3382 71.2263 32.0255C73.1431 34.5862 73.1396 38.1938 71.2158 40.8459C69.2779 43.5191 65.9367 44.5729 62.8594 43.4769V43.4804Z" fill="white"/>
</g>
<defs>
<clipPath id="clip0_349_2625">
<rect width="90" height="72.9311" fill="white"/>
</clipPath>
</defs>
</svg>
