<svg width="238" height="258" viewBox="0 0 238 258" fill="none" xmlns="http://www.w3.org/2000/svg">
<path d="M46.05 154.3C46.62 157.77 44.84 159.2 41.43 158.91C40.11 158.79 38.77 158.89 37.43 158.89C30.47 158.88 30.41 158.88 30.27 152.05C30.22 149.69 30.22 148.01 26.96 147.9C19.84 147.67 19.85 147.48 19.85 139.88C19.85 132.59 19.85 132.41 26.85 132.19C30 132.1 30.28 130.58 30.29 128.12C30.29 125.76 29.28 122.36 32.48 121.69C36.63 120.83 41.19 120.19 45.15 122.32C47.03 123.33 46.14 126.04 46.02 127.94C45.8 131.21 46.97 132.24 50.27 132.2C56.99 132.11 56.99 132.3 57 139.17C57 140.66 56.9 142.17 57.01 143.66C57.26 146.92 55.75 148.41 52.59 147.95C47.54 147.22 45.15 148.88 46.05 154.3Z" fill="#F7F9FA"/>
<path d="M46.59 91.25C31.37 76.03 26.11 57.89 32.65 37.38C39.13 17.09 53.7 5.27 74.76 1.65C82.24 0.37 89.65 1 96.91 3.27C104.36 5.46 111.21 8.86 116.7 14.37C119.46 17.14 121.14 17 123.97 14.47C143.51 -2.94 171.5 -3.46 191.56 13.02C214.41 31.78 217.67 65.91 197.39 87.6C177.63 108.74 156.53 128.62 136.02 149.05C135.85 149.33 135.71 149.65 135.5 149.89C125.19 161.55 118.6 164.01 105.76 150.61C86.43 130.45 66.35 111.01 46.59 91.25Z" fill="#F7F9FA"/>
<path d="M184.59 145.89C183.76 141.76 183.05 137.26 185.19 133.29C186.26 131.32 188.85 132.03 190.76 132.17C193.91 132.41 195.32 131.46 195.09 128.05C194.94 125.74 193.99 122.34 197.27 121.69C201.41 120.86 205.94 120.19 209.89 122.32C211.84 123.38 210.95 126.02 210.83 127.9C210.62 131.1 211.66 132.23 215.01 132.2C221.78 132.13 221.78 132.32 221.8 139.32V141.31C221.78 147.85 221.78 147.91 215.22 147.95C212.73 147.97 210.84 147.84 210.8 151.44C210.72 158.89 210.5 158.89 202.61 158.89C195.3 158.89 195.11 158.89 195.1 151.73C195.1 148.49 193.82 147.88 190.97 147.9C188.71 147.92 185.27 149.29 184.59 145.89Z" fill="#F7F9FA"/>
<path d="M232.78 202.42C213.67 216.76 194.47 230.98 175.59 245.62C155.84 260.94 135.12 259.27 113.68 250.22C102.21 245.37 90.68 240.68 79.24 235.78C76.09 234.43 72.96 233.93 69.57 233.97C60.09 234.07 50.61 233.99 41.12 233.99C40.81 242.97 38.74 244.96 29.69 244.96C23.86 244.97 18.04 245.11 12.22 244.91C8.98002 244.79 7.51002 245.86 7.96002 249.16C8.01002 249.49 7.98002 249.83 7.97002 250.16C7.83002 253.2 7.86002 256.8 3.71002 256.68C-0.109979 256.57 2.10168e-05 253.19 2.10168e-05 250.27C0.020021 223.33 2.10181e-05 196.39 0.040021 169.46C0.040021 166.75 -0.619979 163.15 3.58002 163.05C7.79002 162.95 7.81002 166.45 7.96002 169.5C8.03002 170.99 7.99002 172.49 8.00002 173.98C15.3 173.98 22.6 173.96 29.9 173.98C37.81 173.99 40.91 177.07 41.06 185.01H41.07C42.23 185 43.41 184.86 44.55 184.99C49.88 185.6 54.25 184.22 58.65 180.75C76.03 167.02 103.12 169.55 118 185.51C119.75 187.38 121.68 188 124.18 187.98C134.31 187.88 144.45 187.84 154.59 187.96C165.61 188.1 173.53 193.16 177.91 203.39C178.39 204.51 178.86 205.49 179.97 206.04C182.62 204.66 185.26 203.27 187.91 201.88C198.99 195.37 210.02 188.77 221.17 182.39C225.62 179.85 230.01 180.27 233.78 184.08C240.85 189.41 237.97 198.53 232.78 202.42Z" fill="#F7F9FA"/>
<path d="M197.39 87.6C177.63 108.74 156.53 128.62 136.02 149.05C133.38 148.46 132.02 146.21 130.28 144.5C124.94 139.29 119.64 134.04 114.47 128.66C113.27 127.42 111.11 126.33 112.01 124.13C112.02 124.11 112.02 124.1 112.03 124.09C112.12 123.87 112.24 123.64 112.4 123.4C116.43 121.77 120.61 123.25 124.74 122.82C144.6 120.79 161.2 105.96 164.47 86.44C167.57 67.99 161.49 52.72 146.41 41.92C131.49 31.23 114.96 29.95 98.88 39.07C82.26 48.5 74.31 63.32 75.66 82.69C75.76 84.17 76.22 85.66 75.22 87.02C75.1 87.06 74.98 87.09 74.87 87.11C74.85 87.11 74.83 87.12 74.82 87.12C72.75 87.51 71.85 85.75 70.92 84.45C50.25 55.74 62.61 17.52 92.58 4.3C94 3.68 95.53 3.86 96.91 3.27C104.36 5.46 111.21 8.86 116.7 14.37C119.46 17.14 121.14 17 123.97 14.47C143.51 -2.94 171.5 -3.46 191.56 13.02C214.41 31.78 217.67 65.91 197.39 87.6Z" fill="#F5B989"/>
<path d="M233.78 184.08C233.21 186.56 231.29 187.94 229.42 189.33C210.84 203.08 192.51 217.17 174.09 231.13C165.67 237.5 156.5 240.21 145.85 240.54C132.79 240.95 120.89 238.14 109.27 232.6C99.97 228.16 90.2201 224.71 80.7901 220.54C77.2201 218.97 73.5701 218.23 69.6501 218.29C61.8401 218.4 54.02 218.39 46.2 218.28C44.43 218.26 42.4901 218.47 41.0801 217.29C41.0201 217.25 40.97 217.21 40.92 217.16C40.6 216.86 40.3101 216.47 40.0601 215.99C38.7 206.68 39.42 197.35 39.62 188.03C39.64 186.87 40.1001 185.79 41.0601 185.02V185.01H41.07C42.23 185 43.41 184.86 44.55 184.99C49.88 185.6 54.2501 184.22 58.6501 180.75C76.0301 167.02 103.12 169.55 118 185.51C119.75 187.38 121.68 188 124.18 187.98C134.31 187.88 144.45 187.84 154.59 187.96C165.61 188.1 173.53 193.16 177.91 203.39C178.39 204.51 178.86 205.49 179.97 206.04C178.11 211.42 173.62 212.33 168.82 212.39C157.49 212.54 146.17 212.32 134.84 212.53C132.34 212.58 127.9 211 127.84 214.66C127.79 217.33 132.25 216.33 134.73 216.36C145.38 216.47 156.04 216.41 166.7 216.41C179.71 216.4 183.26 213.97 187.91 201.88C198.99 195.37 210.02 188.77 221.17 182.39C225.62 179.85 230.01 180.27 233.78 184.08Z" fill="#F5B989"/>
<path d="M136.02 149.05C135.85 149.33 135.71 149.65 135.5 149.89C125.19 161.55 118.6 164.01 105.76 150.61C86.43 130.45 66.35 111.01 46.59 91.25C31.37 76.03 26.11 57.89 32.65 37.38C39.13 17.09 53.7 5.27 74.76 1.65C82.24 0.37 89.65 1 96.91 3.27C92.18 6.58 86.76 8.65 82.1 12.24C58.66 30.31 55.22 64.33 74.8 87.07C74.82 87.08 74.85 87.09 74.87 87.11C75.3 87.31 75.64 87.61 75.91 87.99C76.08 88.4 76.25 88.81 76.41 89.22C76.68 89.88 76.93 90.55 77.19 91.22C78.79 95.38 80.3 99.58 82.85 103.32C88.96 112.31 97.14 118.28 107.36 121.32C107.81 121.45 108.26 121.58 108.72 121.7C109.14 121.81 109.56 121.92 109.99 122.02C110.94 122.43 111.74 122.99 111.96 124.08C111.98 124.1 111.99 124.11 112.01 124.13C118.82 131.07 125.65 138.01 132.44 144.97C133.7 146.27 134.83 147.69 136.02 149.05Z" fill="#DF2926"/>
<path d="M232.78 202.42C213.67 216.76 194.47 230.98 175.59 245.62C155.84 260.94 135.12 259.27 113.68 250.22C102.21 245.37 90.68 240.68 79.24 235.78C76.09 234.43 72.96 233.93 69.57 233.97C60.09 234.07 50.61 233.99 41.12 233.99C38.59 229.85 39.21 225.48 39.72 221.11C39.79 220.55 39.85 219.98 39.92 219.42C39.94 219.09 39.97 218.77 40 218.44C40.2 217.92 40.51 217.49 40.92 217.16C40.99 217.08 41.07 217.03 41.15 216.97C46.97 216.96 52.86 217.5 58.61 216.82C72.13 215.21 83.99 219.89 95.86 225.29C104.92 229.4 113.89 234.22 123.43 236.63C142.31 241.4 160.53 241.04 176.98 227.53C194.12 213.47 212.28 200.65 229.98 187.27C231.3 186.27 232.52 185.15 233.78 184.08C240.85 189.41 237.97 198.53 232.78 202.42Z" fill="#F5B989"/>
<path d="M40.8076 215.999C40.7876 216.109 40.7576 216.219 40.7376 216.319C40.6776 216.559 40.6276 216.799 40.5676 217.039C40.2976 218.229 39.8976 219.259 39.3776 220.139C37.6476 223.109 34.5976 224.379 30.7476 224.499C24.4376 224.699 18.1276 224.669 11.8076 224.499C8.21759 224.399 6.22759 222.589 6.16759 218.959C5.92759 205.009 5.96759 191.059 6.14759 177.099C6.16759 175.599 6.44759 174.119 7.65759 173.009C14.9576 173.009 22.2576 172.989 29.5576 173.009C37.4676 173.019 40.5676 176.099 40.7176 184.039V184.049C40.7476 194.699 40.7776 205.349 40.8076 215.999Z" fill="#DF2926"/>
<path d="M41.12 233.99C40.81 242.97 38.74 244.96 29.69 244.96C23.86 244.97 18.04 245.11 12.22 244.91C8.98002 244.79 7.51002 245.86 7.96002 249.16C8.01002 249.49 7.98002 249.83 7.97002 250.16C7.83002 253.2 7.86002 256.8 3.71002 256.68C-0.109979 256.57 2.10168e-05 253.19 2.10168e-05 250.27C0.020021 223.33 2.10181e-05 196.39 0.040021 169.46C0.040021 166.75 -0.619979 163.15 3.58002 163.05C7.79002 162.95 7.81002 166.45 7.96002 169.5C8.03002 170.99 7.99002 172.49 8.00002 173.98C8.00002 188.75 8.21002 203.53 7.89002 218.29C7.79002 223.08 9.42002 224.29 13.84 223.98C18.8 223.64 23.82 223.59 28.77 223.99C33.57 224.37 37.19 222.88 39.92 219.42C40.26 218.98 40.59 218.51 40.91 218.01C40.98 223.34 41.05 228.66 41.12 233.99Z" fill="#0B9D58"/>
<path d="M221.8 139.32V141.31C221.78 147.85 221.78 147.91 215.22 147.95C212.73 147.97 210.84 147.84 210.8 151.44C210.72 158.89 210.5 158.89 202.61 158.89C195.3 158.89 195.11 158.89 195.1 151.73C195.1 148.49 193.82 147.88 190.97 147.9C188.71 147.92 185.27 149.29 184.59 145.89C183.76 141.76 183.05 137.26 185.19 133.29C186.26 131.32 188.85 132.03 190.76 132.17C193.91 132.41 195.32 131.46 195.09 128.05C194.94 125.74 193.99 122.34 197.27 121.69C201.41 120.86 205.94 120.19 209.89 122.32C211.84 123.38 210.95 126.02 210.83 127.9C210.62 131.1 211.66 132.23 215.01 132.2C221.78 132.13 221.78 132.32 221.8 139.32Z" fill="#DF2926"/>
<path d="M52.59 147.95C47.54 147.22 45.15 148.88 46.05 154.3C46.62 157.77 44.84 159.2 41.43 158.91C40.11 158.79 38.77 158.89 37.43 158.89C30.47 158.88 30.41 158.88 30.27 152.05C30.22 149.69 30.22 148.01 26.96 147.9C19.84 147.67 19.85 147.48 19.85 139.88C19.85 132.59 19.85 132.41 26.85 132.19C30 132.1 30.28 130.58 30.29 128.12C30.29 125.76 29.28 122.36 32.48 121.69C36.63 120.83 41.19 120.19 45.15 122.32C47.03 123.33 46.14 126.04 46.02 127.94C45.8 131.21 46.97 132.24 50.27 132.2C56.99 132.11 56.99 132.3 57 139.17C57 140.66 56.9 142.17 57.01 143.66C57.26 146.92 55.75 148.41 52.59 147.95Z" fill="#0B9D58"/>
<path d="M180.18 215.79C177.9 217.19 175.48 218.01 172.67 217.99C158.56 217.88 144.44 217.94 130.33 217.94C127.82 217.94 125.05 218.27 125.01 214.49C124.97 210.73 127.66 210.92 130.22 210.92C142.01 210.93 153.81 210.69 165.59 211.02C171.2 211.18 176.09 210.34 179.97 206.04C182.62 204.66 185.26 203.27 187.91 201.88C189.17 206.69 186.23 212.07 180.18 215.79Z" fill="white"/>
<path d="M75.21 88.06C75.07 87.73 74.94 87.4 74.8 87.07C71.83 65.97 79.11 49.41 97.31 38.25C124.54 21.54 161.44 39.65 166.17 71.2C170 96.77 151.52 123.55 120.9 124.63C117.93 124.73 114.94 124.28 111.96 124.09C111.3 123.76 110.65 123.42 109.99 123.09C106.74 121.32 104.33 118.59 101.76 116.03C93.93 108.2 86.07 100.41 78.29 92.53C77.03 91.23 76.08 89.66 75.21 88.06Z" fill="#F8F6F7"/>
<path d="M75.21 88.06C87.03 99.51 98.9 110.91 110 123.08C93.54 120.57 79.01 105.94 75.21 88.06Z" fill="#EEECEE"/>
<path d="M145.09 80.73C145.02 90.94 146.2 90.12 135.59 89.83C131.02 89.7 129.66 90.99 129.78 95.61C130.07 106.39 131.01 105.12 120.22 105.1C109.48 105.08 110.84 106.42 111.1 95.84C111.22 90.97 109.85 89.63 105.03 89.82C95.25 90.2 95.24 89.92 95.24 80.22C95.24 79.22 95.33 78.21 95.22 77.23C94.7 72.58 96.37 70.72 101.38 70.91C110.91 71.27 111.15 70.98 110.86 61.31C110.72 56.69 112.21 54.75 116.79 55.27C116.95 55.29 117.12 55.27 117.29 55.27C129.5 55.16 129.59 55.16 129.82 67.06C129.88 70.03 130.65 71.47 133.77 71.03C134.26 70.96 134.77 71.02 135.27 71.02C145.09 71.06 145.09 71.06 145.09 80.73Z" fill="#DF2926"/>
</svg>
