<svg id="Capa_1" data-name="Capa 1" xmlns="http://www.w3.org/2000/svg" viewBox="0 0 600 622.41"><defs><style>.cls-1{fill:#df2926;}</style></defs><path class="cls-1" d="M1242.4,520H755.6a56.6,56.6,0,0,0,0,113.2h486.8a56.6,56.6,0,0,0,0-113.2Z" transform="translate(-699 -10.76)"/><path class="cls-1" d="M819.75,483.59A56.62,56.62,0,0,0,876.36,427V210.76a56.61,56.61,0,1,0-113.21,0V427A56.61,56.61,0,0,0,819.75,483.59Z" transform="translate(-699 -10.76)"/><path class="cls-1" d="M999,483.59A56.62,56.62,0,0,0,1055.61,427V139.06a56.61,56.61,0,1,0-113.21,0V427A56.61,56.61,0,0,0,999,483.59Z" transform="translate(-699 -10.76)"/><path class="cls-1" d="M1178.24,483.59a56.61,56.61,0,0,0,56.6-56.61V67.36a56.6,56.6,0,1,0-113.2,0V427A56.61,56.61,0,0,0,1178.24,483.59Z" transform="translate(-699 -10.76)"/></svg>