<svg id="Layer_1" data-name="Layer 1" xmlns="http://www.w3.org/2000/svg" viewBox="0 0 271 511"><defs><style>.cls-1{fill:#fff;}</style></defs><path class="cls-1" d="M716.5,117A55.5,55.5,0,1,0,772,172.5,55.57,55.57,0,0,0,716.5,117Zm0,96A40.5,40.5,0,1,1,757,172.5,40.55,40.55,0,0,1,716.5,213Z" transform="translate(-581 -5)"/><path class="cls-1" d="M716.5,149a7.5,7.5,0,0,0,0,15,8.51,8.51,0,0,1,8.5,8.5,7.5,7.5,0,0,0,15,0A23.52,23.52,0,0,0,716.5,149Z" transform="translate(-581 -5)"/><path class="cls-1" d="M840.81,384.73l-47.58-74.38c6.6-64,10.77-118.88,10.77-145.85A189.57,189.57,0,0,0,762.36,44.81c-20.61-25.75-41.14-38.22-42-38.74a7.48,7.48,0,0,0-7.72,0c-.86.52-21.39,13-42,38.74A189.57,189.57,0,0,0,629,164.5c0,27,4.18,81.84,10.77,145.85l-47.59,74.4A71.42,71.42,0,0,0,581,423.14V508.5a7.49,7.49,0,0,0,5,7.06,7.35,7.35,0,0,0,2.52.44,7.5,7.5,0,0,0,5.8-2.75l61.13-74.71A31.58,31.58,0,0,0,685.24,460H709v48.5a7.5,7.5,0,0,0,15,0V460h23.76a31.58,31.58,0,0,0,29.81-21.46l61.12,74.71A7.53,7.53,0,0,0,844.5,516a7.35,7.35,0,0,0,2.52-.44,7.49,7.49,0,0,0,5-7.06V423.14a71.46,71.46,0,0,0-11.19-38.41ZM596,423.14a56.44,56.44,0,0,1,8.82-30.32l37.48-58.59c3,27.43,6.35,56,10,84.5L596,487.49V423.14ZM747.76,445H724V316.5a7.5,7.5,0,0,0-15,0V445H685.24a16.53,16.53,0,0,1-16.32-14.38c-5.24-40.14-10-81-13.92-118.78a5.83,5.83,0,0,0-.09-.84C648.24,246.61,644,191.39,644,164.5c0-29.05,6.37-56,19-80.5H724.5a7.5,7.5,0,0,0,0-15H671.67q4.76-7.34,10.31-14.35A174.48,174.48,0,0,1,716.5,21.52,178.3,178.3,0,0,1,761.2,69h-4.7a7.5,7.5,0,0,0,0,15h13.37A174,174,0,0,1,789,164.5c0,26.89-4.24,82.12-10.91,146.5a5.7,5.7,0,0,0-.09.83c-3.92,37.76-8.68,78.64-13.92,118.79A16.52,16.52,0,0,1,747.76,445ZM837,487.49l-56.26-68.77c3.62-28.45,7-57.06,10-84.49l37.47,58.57A56.4,56.4,0,0,1,837,423.14v64.35Z" transform="translate(-581 -5)"/></svg>