<svg xmlns="http://www.w3.org/2000/svg" viewBox="0 0 120 109.1"><defs><style>.cls-1{isolation:isolate;}.cls-2{fill:#3c3c3b;}.cls-25,.cls-3,.cls-4,.cls-6{fill:#1d1d1b;}.cls-3,.cls-5{opacity:0.1;}.cls-4{mix-blend-mode:overlay;opacity:0.2;}.cls-7{fill:#849886;}.cls-8{fill:#f1efde;}.cls-9{fill:#d2ccbf;}.cls-10{fill:#fff;}.cls-11{fill:#ff7547;}.cls-12{fill:#36b9ae;}.cls-13{fill:#0593a1;}.cls-14{fill:#575756;}.cls-15{fill:#70421e;}.cls-16{fill:#df2926;}.cls-17{fill:#f2c28d;}.cls-18{fill:#e8b685;}.cls-19{fill:#db9327;}.cls-20{fill:#f9b233;}.cls-21{fill:#ededed;}.cls-22{fill:#dadada;}.cls-23{fill:#0b9d58;}.cls-24{fill:#ffd2a1;}.cls-25{opacity:0.05;}.cls-26{fill:#e3bb1c;}.cls-27{fill:#f5ca1e;}.cls-28{fill:#ffd21f;}.cls-29{fill:#c61717;}.cls-30{fill:#e96528;}.cls-31,.cls-35{opacity:0.5;}.cls-32{fill:#d8d8d8;}.cls-33{fill:#ffe7bf;}.cls-34{fill:#683c11;}.cls-35{fill:#53300e;mix-blend-mode:multiply;}.cls-36{fill:#ffe08c;}.cls-37{fill:#ffe6a3;}.cls-38{fill:#ffa43f;}.cls-39{fill:#ad7a2b;}.cls-40{fill:#432918;}.cls-41{fill:#936037;}.cls-42{fill:#7d4e24;}.cls-43{fill:#c61a1a;}.cls-44{fill:#a17e52;}.cls-45{fill:#ca9e67;}.cls-46{fill:#ffcf9f;}.cls-47{fill:#222214;}.cls-48{fill:#fefefe;}</style></defs><g class="cls-1"><g id="Ñëîé_1" data-name="Ñëîé 1"><path class="cls-2" d="M592.07,312.43a.1.1,0,0,1-.07,0c-.24-.14-.49-.31-.73-.48a.14.14,0,0,1,0-.2.14.14,0,0,1,.2,0c.24.17.47.32.71.47a.15.15,0,0,1,.05.2A.16.16,0,0,1,592.07,312.43Z" transform="translate(-579.5 -235.02)"/><path class="cls-2" d="M590,310.86a.14.14,0,0,1-.1,0,14.25,14.25,0,0,1-1.18-1.26.14.14,0,0,1,0-.2.16.16,0,0,1,.21,0,13.61,13.61,0,0,0,1.15,1.24.14.14,0,0,1,0,.2A.15.15,0,0,1,590,310.86Zm-2.18-2.62a.17.17,0,0,1-.12-.07,16.62,16.62,0,0,1-.87-1.49.15.15,0,0,1,.26-.13A15.94,15.94,0,0,0,588,308a.14.14,0,0,1,0,.2A.11.11,0,0,1,587.86,308.24Zm-1.57-3a.14.14,0,0,1-.13-.09c-.21-.53-.4-1.08-.56-1.63a.14.14,0,0,1,.1-.18.15.15,0,0,1,.18.1,15.1,15.1,0,0,0,.55,1.6.15.15,0,0,1-.08.19Zm-.95-3.28a.16.16,0,0,1-.14-.12c-.1-.57-.18-1.14-.23-1.71a.13.13,0,0,1,.13-.15.15.15,0,0,1,.16.13,14.11,14.11,0,0,0,.23,1.68.14.14,0,0,1-.12.16Zm-.29-3.41h0a.14.14,0,0,1-.14-.14,16.57,16.57,0,0,1,.13-1.73.14.14,0,0,1,.16-.12.15.15,0,0,1,.13.16,13.44,13.44,0,0,0-.13,1.69A.15.15,0,0,1,585.05,298.51Zm.46-3.38h0a.14.14,0,0,1-.11-.17,12.16,12.16,0,0,1,.56-1.64.14.14,0,0,1,.18-.08.14.14,0,0,1,.08.19,13.66,13.66,0,0,0-.54,1.6A.13.13,0,0,1,585.51,295.13Zm1.32-3.15a.1.1,0,0,1-.07,0,.15.15,0,0,1,0-.2,10.83,10.83,0,0,1,1-1.4.14.14,0,0,1,.2,0,.16.16,0,0,1,0,.21,11.27,11.27,0,0,0-1,1.36A.12.12,0,0,1,586.83,292Zm2.21-2.59a.16.16,0,0,1-.11-.05.14.14,0,0,1,0-.2,10.93,10.93,0,0,1,1.41-1,.15.15,0,0,1,.2.05.16.16,0,0,1,0,.2,10.42,10.42,0,0,0-1.38,1A.14.14,0,0,1,589,289.39Z" transform="translate(-579.5 -235.02)"/><path class="cls-2" d="M592,287.62a.13.13,0,0,1-.13-.09.13.13,0,0,1,.08-.18c.26-.11.53-.22.81-.31a.15.15,0,0,1,.19.09.15.15,0,0,1-.09.18,8.32,8.32,0,0,0-.8.3Z" transform="translate(-579.5 -235.02)"/><path class="cls-2" d="M591.28,276.28a.21.21,0,0,1-.1,0A8.66,8.66,0,0,1,590,275a.14.14,0,0,1,0-.2.14.14,0,0,1,.2,0,9.07,9.07,0,0,0,1.15,1.23.16.16,0,0,1,0,.21A.16.16,0,0,1,591.28,276.28Zm-2.11-2.71a.15.15,0,0,1-.13-.07,14.36,14.36,0,0,1-.74-1.58.14.14,0,0,1,.27-.1,13.63,13.63,0,0,0,.72,1.54.15.15,0,0,1,0,.2Zm-1.28-3.19a.15.15,0,0,1-.14-.11c-.15-.55-.27-1.12-.37-1.69a.15.15,0,0,1,.12-.17.14.14,0,0,1,.16.12c.1.56.22,1.13.37,1.67a.14.14,0,0,1-.1.17Zm-.57-3.39a.15.15,0,0,1-.14-.14c0-.37,0-.75,0-1.12,0-.2,0-.41,0-.62a.13.13,0,0,1,.14-.13.14.14,0,0,1,.14.15c0,.2,0,.4,0,.6,0,.37,0,.74,0,1.1a.16.16,0,0,1-.14.16Zm.14-3.44h0a.16.16,0,0,1-.12-.17,15.52,15.52,0,0,1,.36-1.7.13.13,0,0,1,.17-.1.14.14,0,0,1,.1.18,14.51,14.51,0,0,0-.34,1.67A.15.15,0,0,1,587.46,263.55Zm.9-3.32h-.06a.14.14,0,0,1-.07-.19,11.82,11.82,0,0,1,.78-1.55.15.15,0,0,1,.2-.05.14.14,0,0,1,0,.19,11.4,11.4,0,0,0-.77,1.52A.13.13,0,0,1,588.36,260.23Zm1.77-2.94-.09,0a.14.14,0,0,1,0-.2,10.3,10.3,0,0,1,1.23-1.24.13.13,0,0,1,.2,0,.14.14,0,0,1,0,.2,12.37,12.37,0,0,0-1.19,1.21A.16.16,0,0,1,590.13,257.29Zm2.6-2.23a.15.15,0,0,1-.12-.07.15.15,0,0,1,0-.2,11.87,11.87,0,0,1,1.55-.79.14.14,0,0,1,.19.08.14.14,0,0,1-.08.18,11.92,11.92,0,0,0-1.51.78Z" transform="translate(-579.5 -235.02)"/><path class="cls-2" d="M610.84,243.41l-.08,0a.14.14,0,0,1,0-.2,9.49,9.49,0,0,1,1.11-1.34.15.15,0,0,1,.21,0,.15.15,0,0,1,0,.2,9.64,9.64,0,0,0-1.09,1.3A.14.14,0,0,1,610.84,243.41Zm2.39-2.47a.16.16,0,0,1-.11-.05.15.15,0,0,1,0-.21c.44-.34.92-.68,1.42-1a.14.14,0,0,1,.2,0,.15.15,0,0,1,0,.2c-.49.32-1,.65-1.39,1A.14.14,0,0,1,613.23,240.94Zm2.89-1.87A.16.16,0,0,1,616,239a.14.14,0,0,1,.06-.19c.5-.27,1-.53,1.55-.78a.14.14,0,0,1,.19.07.14.14,0,0,1-.07.2c-.53.24-1,.49-1.53.76Zm30.72-.45h-.06l-.72-.34a.14.14,0,0,1-.07-.19.15.15,0,0,1,.19-.07l.73.34a.14.14,0,0,1-.07.27Zm-27.59-1a.14.14,0,0,1-.13-.09.15.15,0,0,1,.08-.19c.53-.21,1.08-.4,1.63-.58a.14.14,0,1,1,.09.27c-.55.18-1.09.37-1.62.58Zm25.28,0h0c-.53-.2-1.07-.4-1.61-.58a.14.14,0,0,1-.1-.18.15.15,0,0,1,.19-.09c.54.18,1.09.38,1.62.59a.13.13,0,0,1,.08.18A.13.13,0,0,1,644.53,237.61Zm-22-1.05a.15.15,0,0,1-.14-.11.14.14,0,0,1,.1-.18c.55-.15,1.12-.29,1.68-.41a.15.15,0,0,1,.17.11.14.14,0,0,1-.11.17c-.56.12-1.12.26-1.67.41Zm18.73,0h0c-.54-.15-1.1-.29-1.66-.42a.13.13,0,0,1-.11-.17.15.15,0,0,1,.17-.11c.56.13,1.13.27,1.68.42a.14.14,0,0,1,.1.17A.15.15,0,0,1,641.26,236.53Zm-15.37-.71a.14.14,0,0,1-.14-.12.15.15,0,0,1,.12-.17c.56-.09,1.14-.18,1.71-.25a.15.15,0,0,1,0,.29c-.57.07-1.14.15-1.7.24Zm12,0h0c-.57-.1-1.14-.18-1.7-.25a.15.15,0,0,1-.13-.16.14.14,0,0,1,.16-.12c.57.06,1.15.15,1.71.24a.15.15,0,0,1,.12.17A.14.14,0,0,1,637.9,235.79Zm-8.59-.39a.15.15,0,0,1-.14-.13.15.15,0,0,1,.13-.16c.57,0,1.15-.07,1.73-.08h0a.15.15,0,0,1,.15.14.14.14,0,0,1-.14.14c-.57,0-1.15.05-1.72.09Zm5.17,0h0c-.57,0-1.14-.06-1.72-.07a.15.15,0,0,1,0-.29h0c.58,0,1.16,0,1.73.08a.13.13,0,0,1,.13.15A.13.13,0,0,1,634.48,235.38Z" transform="translate(-579.5 -235.02)"/><path class="cls-2" d="M670.94,260.51a.14.14,0,0,1-.14-.12c-.1-.57-.22-1.14-.35-1.68a.14.14,0,0,1,.11-.17.14.14,0,0,1,.17.11c.13.54.25,1.11.35,1.69a.15.15,0,0,1-.12.17Zm-.81-3.34a.15.15,0,0,1-.14-.1c-.18-.56-.38-1.1-.59-1.61a.15.15,0,1,1,.27-.11c.21.52.41,1.07.59,1.63a.14.14,0,0,1-.09.18ZM668.8,254a.17.17,0,0,1-.13-.07,13.77,13.77,0,0,0-.88-1.46.15.15,0,0,1,.24-.17,16.82,16.82,0,0,1,.9,1.49.14.14,0,0,1-.06.19A.1.1,0,0,1,668.8,254Zm-1.95-2.83a.14.14,0,0,1-.1,0,13.69,13.69,0,0,0-1.21-1.2.13.13,0,0,1,0-.2.14.14,0,0,1,.2,0,13,13,0,0,1,1.23,1.23.14.14,0,0,1,0,.2A.13.13,0,0,1,666.85,251.16Zm-2.59-2.25-.08,0a12,12,0,0,0-1.49-.82.14.14,0,0,1-.07-.19.15.15,0,0,1,.19-.07,11.38,11.38,0,0,1,1.53.84.14.14,0,0,1,0,.19A.13.13,0,0,1,664.26,248.91Zm-3.13-1.42h0a12.86,12.86,0,0,0-1.66-.35.15.15,0,0,1-.12-.17.14.14,0,0,1,.16-.12,12,12,0,0,1,1.7.37.14.14,0,0,1,.1.18A.14.14,0,0,1,661.13,247.49Zm-5.12-.41a.14.14,0,0,1-.14-.12.15.15,0,0,1,.13-.16,14.08,14.08,0,0,1,1.58-.09h.16a.14.14,0,0,1,.14.14.15.15,0,0,1-.14.15h-.16a13.53,13.53,0,0,0-1.55.08Z" transform="translate(-579.5 -235.02)"/><path class="cls-2" d="M618.24,328.64l-.76,0a.13.13,0,0,1-.13-.15.15.15,0,0,1,.15-.14,13.8,13.8,0,0,0,1.7,0,.14.14,0,0,1,.15.14.14.14,0,0,1-.13.15Zm-2.46-.22h0a13.33,13.33,0,0,1-1.68-.43.15.15,0,0,1-.1-.18.14.14,0,0,1,.19-.09,15.16,15.16,0,0,0,1.64.42.14.14,0,0,1,.12.16A.14.14,0,0,1,615.78,328.42Zm5.14,0a.14.14,0,0,1-.14-.12.15.15,0,0,1,.12-.17c.54-.09,1.11-.22,1.67-.37a.14.14,0,0,1,.17.11.14.14,0,0,1-.1.17c-.57.15-1.14.28-1.69.37Zm3.33-.88a.15.15,0,0,1-.14-.1.15.15,0,0,1,.09-.18l.87-.33a.14.14,0,0,1,.18.08.14.14,0,0,1-.08.19l-.87.33Zm-11.73-.18-.07,0a13.27,13.27,0,0,1-1.5-.87.15.15,0,0,1,0-.2.14.14,0,0,1,.2,0,12,12,0,0,0,1.47.86.15.15,0,0,1,.07.19A.16.16,0,0,1,612.52,327.35Zm-2.85-1.93a.14.14,0,0,1-.09,0,13.1,13.1,0,0,1-1.22-1.25.13.13,0,0,1,0-.2.14.14,0,0,1,.2,0,13.71,13.71,0,0,0,1.2,1.21.15.15,0,0,1,0,.21A.15.15,0,0,1,609.67,325.42Zm-2.25-2.6a.16.16,0,0,1-.12-.06,13.44,13.44,0,0,1-.86-1.52.15.15,0,0,1,.07-.19.15.15,0,0,1,.19.07,13.66,13.66,0,0,0,.84,1.48.14.14,0,0,1,0,.2Z" transform="translate(-579.5 -235.02)"/><path class="cls-2" d="M664.24,332.1h-.58a.15.15,0,0,1,0-.29,16.17,16.17,0,0,0,1.71,0,.14.14,0,0,1,.15.14.13.13,0,0,1-.13.15C665,332.08,664.63,332.1,664.24,332.1ZM662,332h0c-.56-.06-1.14-.14-1.71-.25a.15.15,0,0,1-.12-.17.14.14,0,0,1,.17-.11c.57.1,1.14.19,1.69.25a.15.15,0,0,1,.13.16A.15.15,0,0,1,662,332Zm5.15-.1a.14.14,0,0,1-.14-.12.15.15,0,0,1,.12-.17,15,15,0,0,0,1.67-.36.14.14,0,0,1,.17.1.13.13,0,0,1-.1.17,14.87,14.87,0,0,1-1.69.38Zm-8.54-.54h0c-.55-.14-1.11-.31-1.67-.49a.14.14,0,1,1,.09-.27c.55.18,1.11.34,1.65.48a.14.14,0,0,1,.1.18A.14.14,0,0,1,658.56,331.33Zm11.85-.39a.14.14,0,0,1-.13-.09.14.14,0,0,1,.08-.19,14.44,14.44,0,0,0,1.53-.75.14.14,0,0,1,.19.06.13.13,0,0,1-.05.19,12.55,12.55,0,0,1-1.56.77Zm-15.12-.68h0c-.54-.21-1.07-.44-1.59-.68a.13.13,0,0,1-.07-.19.13.13,0,0,1,.19-.07c.52.24,1.05.47,1.57.68a.14.14,0,0,1-.05.27Zm18.1-1a.16.16,0,0,1-.11-.05.15.15,0,0,1,0-.21,12.21,12.21,0,0,0,1.29-1.11.15.15,0,0,1,.2,0,.15.15,0,0,1,0,.21,14.07,14.07,0,0,1-1.32,1.13A.14.14,0,0,1,673.39,329.23Zm2.46-2.4-.09,0a.14.14,0,0,1,0-.2,15.77,15.77,0,0,0,1-1.39.14.14,0,0,1,.2,0,.14.14,0,0,1,.05.19,15.11,15.11,0,0,1-1,1.42A.14.14,0,0,1,675.85,326.83Zm1.86-2.89-.07,0a.14.14,0,0,1-.06-.19c.25-.5.49-1,.7-1.56a.15.15,0,0,1,.19-.08.15.15,0,0,1,.08.19c-.22.54-.46,1.07-.72,1.58A.13.13,0,0,1,677.71,323.94Z" transform="translate(-579.5 -235.02)"/><path class="cls-2" d="M682.94,312.87a.14.14,0,0,1-.12-.07.14.14,0,0,1,0-.2,11.61,11.61,0,0,0,1.35-1,.13.13,0,0,1,.2,0,.14.14,0,0,1,0,.2,13.08,13.08,0,0,1-1.37,1.07Zm2.58-2.27a.11.11,0,0,1-.09,0,.13.13,0,0,1,0-.2c.37-.41.74-.85,1.1-1.31a.14.14,0,0,1,.2,0,.15.15,0,0,1,0,.2c-.36.46-.74.91-1.12,1.33A.15.15,0,0,1,685.52,310.6Zm2.11-2.72a.11.11,0,0,1-.08,0,.14.14,0,0,1,0-.2c.3-.47.6-1,.88-1.46a.15.15,0,0,1,.2-.06.16.16,0,0,1,.06.2c-.29.51-.59,1-.9,1.48A.15.15,0,0,1,687.63,307.88Zm1.68-3h-.06a.16.16,0,0,1-.07-.2c.24-.5.47-1,.69-1.57a.15.15,0,0,1,.19-.08.16.16,0,0,1,.08.19c-.22.54-.46,1.07-.7,1.59A.16.16,0,0,1,689.31,304.87Zm1.29-3.2h-.05a.16.16,0,0,1-.09-.18c.18-.54.35-1.09.5-1.65a.15.15,0,1,1,.28.08c-.15.56-.32,1.11-.51,1.66A.13.13,0,0,1,690.6,301.67Zm.9-3.32h0a.14.14,0,0,1-.11-.17c.12-.56.22-1.13.3-1.69a.14.14,0,0,1,.16-.12.13.13,0,0,1,.12.16q-.12.86-.3,1.71A.14.14,0,0,1,691.5,298.35Zm.5-3.41h0a.13.13,0,0,1-.13-.15c0-.57.08-1.15.09-1.71a.16.16,0,0,1,.15-.15.15.15,0,0,1,.14.15c0,.57,0,1.16-.1,1.73A.13.13,0,0,1,692,294.94Zm.08-3.44a.15.15,0,0,1-.15-.14c0-.57-.07-1.15-.13-1.71a.14.14,0,0,1,.13-.15.12.12,0,0,1,.15.12c.07.57.11,1.15.14,1.73a.15.15,0,0,1-.14.15Zm-.39-3.42a.14.14,0,0,1-.14-.12c-.11-.56-.24-1.12-.38-1.67a.13.13,0,0,1,.1-.17.14.14,0,0,1,.18.1c.14.55.27,1.12.38,1.69a.15.15,0,0,1-.12.17Zm-.89-3.33a.13.13,0,0,1-.13-.09c-.19-.54-.41-1.07-.64-1.59a.14.14,0,0,1,.08-.19.15.15,0,0,1,.19.07c.23.53.44,1.07.64,1.61a.15.15,0,0,1-.09.18Zm-1.4-3.14a.17.17,0,0,1-.13-.07c-.27-.5-.57-1-.88-1.47a.15.15,0,0,1,0-.2.16.16,0,0,1,.2,0c.32.49.62,1,.9,1.49a.15.15,0,0,1-.06.19Zm-1.9-2.87a.14.14,0,0,1-.11-.05c-.36-.45-.73-.88-1.12-1.3a.14.14,0,0,1,0-.2.13.13,0,0,1,.2,0c.4.43.78.87,1.13,1.32a.14.14,0,0,1,0,.2Zm-2.35-2.52a.11.11,0,0,1-.09,0c-.42-.38-.86-.75-1.31-1.1a.14.14,0,0,1,0-.2.14.14,0,0,1,.2,0c.46.36.9.74,1.32,1.12a.15.15,0,0,1,0,.21A.15.15,0,0,1,685.15,276.22Zm-2.7-2.13-.08,0-.17-.12a.13.13,0,0,1,0-.19.15.15,0,0,1,.2-.05l.17.12a.15.15,0,0,1,0,.2A.16.16,0,0,1,682.45,274.09Z" transform="translate(-579.5 -235.02)"/><path class="cls-3" d="M663,341.37a2.11,2.11,0,0,0-.36-.31l2.15-3.68a1.26,1.26,0,1,0-.38-2.15,1.23,1.23,0,0,0-.39.6l-3.11-.37a1.94,1.94,0,0,0-3.19-1.28,1.94,1.94,0,0,0,1.28,3.41l1.78,3.49a1.7,1.7,0,0,0-.14.1,1.67,1.67,0,1,0,2.36.19Zm-3.53-3.85a1.82,1.82,0,0,0,.77-.39,1.91,1.91,0,0,0,.66-1.22l3.07.36a1.2,1.2,0,0,0,.29.74,1,1,0,0,0,.15.14l-2.17,3.72a1.67,1.67,0,0,0-1.06,0Z" transform="translate(-579.5 -235.02)"/><path class="cls-4" d="M662.82,260.52a1.32,1.32,0,0,0-.28-.25l1.72-2.94a1,1,0,1,0-.31-1.72.93.93,0,0,0-.31.48l-2.49-.3a1.55,1.55,0,0,0-2.54-1,1.56,1.56,0,0,0-.18,2.19,1.54,1.54,0,0,0,1.2.53l1.42,2.8-.11.08a1.33,1.33,0,1,0,1.88.15ZM660,257.44a1.45,1.45,0,0,0,.62-.31,1.51,1.51,0,0,0,.52-1l2.46.29a1,1,0,0,0,.23.6l.12.11-1.74,3a1.42,1.42,0,0,0-.84,0Z" transform="translate(-579.5 -235.02)"/><g class="cls-5"><path class="cls-6" d="M606.54,264.37l0,0a2.23,2.23,0,0,0-.68,3.06l2,3.1,3.78-2.4-2-3.11A2.23,2.23,0,0,0,606.54,264.37Z" transform="translate(-579.5 -235.02)"/><path class="cls-6" d="M613.3,272.12a1.55,1.55,0,0,1-.47,2.12l0,0a1.55,1.55,0,0,1-2.12-.47l-1.95-3.07-.58.37,2,3.06a2.21,2.21,0,0,0,3.06.68l0,0a2.2,2.2,0,0,0,.68-3.05l-2-3.07-.57.37Z" transform="translate(-579.5 -235.02)"/></g><polygon class="cls-3" points="88.18 44.02 85.02 44.02 85.02 40.85 82.2 40.85 82.2 44.02 79.03 44.02 79.03 46.84 82.2 46.84 82.2 50 85.02 50 85.02 46.84 88.18 46.84 88.18 44.02"/><polygon class="cls-3" points="36.82 50.76 35.17 50.76 35.17 49.1 33.69 49.1 33.69 50.76 32.04 50.76 32.04 52.23 33.69 52.23 33.69 53.89 35.17 53.89 35.17 52.23 36.82 52.23 36.82 50.76"/><polygon class="cls-3" points="61.22 4.22 58.46 4.22 58.46 1.46 56.01 1.46 56.01 4.22 53.25 4.22 53.25 6.67 56.01 6.67 56.01 9.44 58.46 9.44 58.46 6.67 61.22 6.67 61.22 4.22"/><polygon class="cls-3" points="89.56 7.32 87.91 7.32 87.91 5.67 86.43 5.67 86.43 7.32 84.78 7.32 84.78 8.79 86.43 8.79 86.43 10.45 87.91 10.45 87.91 8.79 89.56 8.79 89.56 7.32"/><path class="cls-3" d="M659.54,294h0c-.41-.48-.71-.82-.66-1a1.83,1.83,0,0,1,.42-.69.49.49,0,0,0,.13-.12h0a.62.62,0,0,0,.13-.4l-.12-.67a.15.15,0,0,0,.08-.22l-.33-.44a1.3,1.3,0,0,0,0-.18,1.84,1.84,0,0,0-.26-.72h0c.26-.08.32-.94-1.32-.71a1.39,1.39,0,0,0-1.3,1.29c0,.65,0,1.37.49,1.59l0,.71a3,3,0,0,0-.42.65h0a4.06,4.06,0,0,0-.37.84c-.07.31-.13.6-.17.89l-.32.44-.1.12h0l-1.12,1.44a.62.62,0,0,0-.16.31l.06,2.91c-.3.29-.07.92-.07.92l-.14.49a.13.13,0,0,0,.09.15h0a.12.12,0,0,0,.15-.08l.15-.53h0l-.11.67a.15.15,0,0,0,.11.16h0a.13.13,0,0,0,.16-.1l.1-.66-.05.73a.15.15,0,0,0,.13.15h0a.12.12,0,0,0,.15-.12L655,301l.08.72a.15.15,0,0,0,.15.13h0a.14.14,0,0,0,.13-.14l-.08-.8h0l0-.2v-.06l.16.12c.07,0,.23.13.29,0h0a.16.16,0,0,0-.08-.21,2.23,2.23,0,0,1-.47-.46l.47-2.4.21-.23c0,.52.14,1.08.25,1.71v1.27a2.26,2.26,0,0,0,.45,1.41l.34,2.68-1,4.91h.13a1.52,1.52,0,0,0-.07.65l-.07.23a.06.06,0,0,0,0,0,0,0,0,0,0,0,0l.21.06a.58.58,0,0,0,.19,0l.5,0h0l1.16.1a2.07,2.07,0,0,0,.43,0,2.19,2.19,0,0,0,.68-.17.07.07,0,0,0,0-.08l0-.13h0a.34.34,0,0,0-.08-.32,1.52,1.52,0,0,0-.57-.26h0a.16.16,0,0,1-.17,0h0a.16.16,0,0,0,.17,0h0l-.15-.05a0,0,0,0,0,0-.06h0s-.06,0-.08,0l-.06,0a.06.06,0,0,0,0-.07h0a.05.05,0,0,0-.08,0l-.06,0a0,0,0,0,0,0-.06h0l.81-4.38a1,1,0,0,0,0-.24,1.14,1.14,0,0,0,0-.37l0-.34.33.48.52,5.2.25-.06a1.45,1.45,0,0,0,0,.63l-.05.23a.09.09,0,0,0,0,.05l0,0,.21,0h.19l.5,0h0l1.16,0a2.14,2.14,0,0,0,.43-.07,1.92,1.92,0,0,0,.65-.26.05.05,0,0,0,0-.07l0-.14h0a.31.31,0,0,0-.11-.31,1.62,1.62,0,0,0-.61-.19h0l-.14,0a.06.06,0,0,0,0-.06h0a.07.07,0,0,0-.08,0l-.06,0a.05.05,0,0,0,0-.07h0a.06.06,0,0,0-.08,0l-.06,0a.06.06,0,0,0,0-.06h0a0,0,0,0,0-.06,0l-.06,0a.06.06,0,0,0,0-.08h0s0,0-.07,0l-.05,0a.15.15,0,0,0,0-.07l-.44-4.83c0-.07,0-.16,0-.26a5.15,5.15,0,0,0-.11-1.18c.42-.58,1.47-.73,1.5-3.37C661.83,295.17,660.23,294.78,659.54,294ZM658,309.43h0Zm4.47.13a.16.16,0,0,1-.17.06h0A.18.18,0,0,0,662.44,309.56Z" transform="translate(-579.5 -235.02)"/><path class="cls-3" d="M579.93,279.75a2.62,2.62,0,0,0,1.09,2.46,3.64,3.64,0,0,0-.08.86c0,.08,0,.14,0,.2l-.31,3.52s0,0,0,0l0,0a0,0,0,0,0-.05,0h0a0,0,0,0,0,0,.05l0,0a0,0,0,0,0,0,0h0a.08.08,0,0,0,0,.05l0,0a0,0,0,0,0-.06,0h0a0,0,0,0,0,0,.05h0a0,0,0,0,0,0,0h0s0,0,0,0l-.11,0h0a1.19,1.19,0,0,0-.44.14c-.06,0-.11.18-.08.22h0l0,.1a0,0,0,0,0,0,.05,1.3,1.3,0,0,0,.48.19,1.06,1.06,0,0,0,.31,0l.84,0h0l.37,0a.33.33,0,0,0,.14,0l.15,0h0a.06.06,0,0,0,0,0l0-.17a1.16,1.16,0,0,0,0-.46l.18.05.38-3.8c.06-.07.14-.2.24-.35l0,.26a.62.62,0,0,0,0,.27.52.52,0,0,0,0,.17l.59,3.2h0a0,0,0,0,0,0,0l0,0a0,0,0,0,0-.05,0h0a0,0,0,0,0,0,0l0,0a0,0,0,0,0-.05,0h0s0,0,0,.05l-.1,0h0a.14.14,0,0,0,.13,0h0a.11.11,0,0,1-.13,0h0a1.28,1.28,0,0,0-.42.19.24.24,0,0,0-.06.23h0l0,.1a.07.07,0,0,0,0,.06,1.75,1.75,0,0,0,.5.12,1.13,1.13,0,0,0,.32,0l.84-.07h0l.37,0,.13,0,.15,0,0,0a0,0,0,0,0,0,0l-.05-.16a1.18,1.18,0,0,0,0-.48h.1l-.7-3.58.25-1.95a1.63,1.63,0,0,0,.33-1v-.93c.09-.45.15-.86.19-1.24l.15.17.35,1.74a1.57,1.57,0,0,1-.35.34s-.1.09,0,.15h0c0,.09.16,0,.21,0l.12-.09v.19h0l-.06.58a.1.1,0,0,0,.09.1h0a.1.1,0,0,0,.11-.09l.06-.53,0,.6a.08.08,0,0,0,.1.08h0a.1.1,0,0,0,.09-.1l0-.54.07.48a.1.1,0,0,0,.12.08h0a.11.11,0,0,0,.08-.12l-.07-.49h0l.11.39a.08.08,0,0,0,.11.05h0a.09.09,0,0,0,.06-.11l-.1-.35s.17-.47-.05-.68l0-2.12a.45.45,0,0,0-.11-.23l-.82-1h0l-.08-.08-.23-.32c0-.21-.07-.43-.12-.65a2.86,2.86,0,0,0-.27-.61h0a2.5,2.5,0,0,0-.31-.48l0-.52c.33-.15.38-.68.35-1.15a1,1,0,0,0-.94-.94c-1.19-.17-1.15.46-1,.51h0a1.27,1.27,0,0,0-.19.53.84.84,0,0,0,0,.13l-.24.32a.12.12,0,0,0,.06.16l-.09.49a.5.5,0,0,0,.09.29h0l.09.09a1.37,1.37,0,0,1,.31.5c0,.11-.18.36-.48.71h0C581.67,276.26,580.51,276.54,579.93,279.75Zm3.38,7.18h0Zm-3.12.15h0a.13.13,0,0,1-.13-.05A.13.13,0,0,0,580.19,287.08Z" transform="translate(-579.5 -235.02)"/><path class="cls-3" d="M593.15,264.29l.25,1.3a.55.55,0,0,0-.29.66.55.55,0,0,0,1,.13l1.32.46a.79.79,0,0,0,0,.37.85.85,0,1,0,1.62-.54l-.1-.2,1-.87a.54.54,0,0,0,.53.11.55.55,0,0,0-.23-1.07l-.24-1.23h0a.78.78,0,1,0-.87-1.21l-1.45-.5s0-.07,0-.1a.58.58,0,0,0-.71-.36.55.55,0,0,0-.35.68l-.83.72a.89.89,0,0,0-.84-.14.92.92,0,0,0,.17,1.79Zm1.64-2.13a.53.53,0,0,0,.56.14.54.54,0,0,0,.34-.32l1.35.47a.8.8,0,0,0,0,.46.78.78,0,0,0,.71.54l.25,1.29a.55.55,0,0,0-.21.62v0l-1,.89a.85.85,0,0,0-.79-.14.9.9,0,0,0-.5.44l-1.3-.44a.53.53,0,0,0,0-.22.54.54,0,0,0-.5-.38l-.24-1.25.13,0a.93.93,0,0,0,.59-1.17.68.68,0,0,0-.14-.25Z" transform="translate(-579.5 -235.02)"/><path class="cls-3" d="M692,280l.33,1.69a.71.71,0,0,0-.38.87.74.74,0,0,0,.92.47.79.79,0,0,0,.37-.3l1.73.6a1.11,1.11,0,1,0,2.16-.22,1.26,1.26,0,0,0-.13-.26l1.31-1.14a.74.74,0,0,0,.69.14.72.72,0,0,0-.3-1.4l-.31-1.61h0a1,1,0,1,0-.64-1.95,1.05,1.05,0,0,0-.49.36l-1.9-.65a.51.51,0,0,0,0-.13.73.73,0,0,0-.92-.47.72.72,0,0,0-.46.89l-1.08.94A1.21,1.21,0,1,0,692,280Zm2.15-2.79a.72.72,0,0,0,.73.18.73.73,0,0,0,.44-.42l1.77.61a1.06,1.06,0,0,0,0,.61,1,1,0,0,0,.93.7l.33,1.69a.73.73,0,0,0-.28.81l0,0-1.35,1.17a1.1,1.1,0,0,0-1.68.4l-1.7-.59a.9.9,0,0,0,0-.28.71.71,0,0,0-.64-.5l-.32-1.63a.9.9,0,0,0,.16,0,1.21,1.21,0,0,0,.77-1.53,1.29,1.29,0,0,0-.17-.33Z" transform="translate(-579.5 -235.02)"/><g class="cls-5"><path class="cls-6" d="M658.18,253.71l-1.8,9a1.48,1.48,0,0,0,1.16,1.73l3.89.77a1.47,1.47,0,0,0,1.73-1.15l1.8-9a1.47,1.47,0,0,0-1.16-1.73l-3.89-.77A1.47,1.47,0,0,0,658.18,253.71Zm.19,0a1.27,1.27,0,0,1,1.5-1l3.89.77a1.29,1.29,0,0,1,1,1.5l-1.8,9a1.27,1.27,0,0,1-1.5,1l-3.89-.77a1.27,1.27,0,0,1-1-1.5Z" transform="translate(-579.5 -235.02)"/><path class="cls-6" d="M661.76,253.45a.11.11,0,0,1,.08.12l0,.2a.09.09,0,0,1-.12.08.1.1,0,0,1-.09-.12l0-.2A.12.12,0,0,1,661.76,253.45Z" transform="translate(-579.5 -235.02)"/><path class="cls-6" d="M661.16,256.46a.11.11,0,0,1,.08.12l-.08.41a.11.11,0,0,1-.12.08A.09.09,0,0,1,661,257l.08-.41A.1.1,0,0,1,661.16,256.46Z" transform="translate(-579.5 -235.02)"/><path class="cls-6" d="M660.73,258.61a.1.1,0,0,1,.08.12l-.08.4a.1.1,0,0,1-.12.08.11.11,0,0,1-.08-.12l.08-.4A.09.09,0,0,1,660.73,258.61Z" transform="translate(-579.5 -235.02)"/><path class="cls-6" d="M661.37,255.39a.1.1,0,0,1,.08.12l-.08.41a.1.1,0,0,1-.12.08.1.1,0,0,1-.08-.12l.08-.41A.1.1,0,0,1,661.37,255.39Z" transform="translate(-579.5 -235.02)"/><path class="cls-6" d="M660.94,257.53a.1.1,0,0,1,.08.13l-.07.4a.12.12,0,0,1-.13.08.11.11,0,0,1-.08-.12l.08-.4A.11.11,0,0,1,660.94,257.53Z" transform="translate(-579.5 -235.02)"/><path class="cls-6" d="M661.58,254.32a.1.1,0,0,1,.08.12l-.08.4a.1.1,0,0,1-.12.09.12.12,0,0,1-.08-.13l.08-.4A.11.11,0,0,1,661.58,254.32Z" transform="translate(-579.5 -235.02)"/><path class="cls-6" d="M660.52,259.68a.1.1,0,0,1,.08.12l-.08.4a.11.11,0,0,1-.12.08.1.1,0,0,1-.08-.12l.08-.4A.09.09,0,0,1,660.52,259.68Z" transform="translate(-579.5 -235.02)"/><path class="cls-6" d="M660.09,261.82a.1.1,0,0,1,.08.12l-.08.4a.1.1,0,0,1-.12.08.1.1,0,0,1-.08-.12l.08-.4A.1.1,0,0,1,660.09,261.82Z" transform="translate(-579.5 -235.02)"/><path class="cls-6" d="M659.88,262.89a.1.1,0,0,1,.08.12l-.08.4a.1.1,0,1,1-.2,0l.08-.4A.1.1,0,0,1,659.88,262.89Z" transform="translate(-579.5 -235.02)"/><path class="cls-6" d="M660.31,260.75a.1.1,0,0,1,.08.12l-.08.4a.11.11,0,0,1-.21,0l.08-.4A.11.11,0,0,1,660.31,260.75Z" transform="translate(-579.5 -235.02)"/><path class="cls-6" d="M659.67,264a.1.1,0,0,1,.08.12l0,.2a.1.1,0,0,1-.12.08.09.09,0,0,1-.08-.12l0-.2A.1.1,0,0,1,659.67,264Z" transform="translate(-579.5 -235.02)"/><path class="cls-6" d="M660.88,254.82a1.07,1.07,0,1,1-.84-1.26A1.06,1.06,0,0,1,660.88,254.82Z" transform="translate(-579.5 -235.02)"/><path class="cls-6" d="M664.14,255.46a1.08,1.08,0,0,1-1.26.85,1.07,1.07,0,1,1,1.26-.85Z" transform="translate(-579.5 -235.02)"/><path class="cls-6" d="M660.36,257.47a1.08,1.08,0,1,1-.85-1.26A1.07,1.07,0,0,1,660.36,257.47Z" transform="translate(-579.5 -235.02)"/><path class="cls-6" d="M663.61,258.11a1.07,1.07,0,1,1-.84-1.26A1.08,1.08,0,0,1,663.61,258.11Z" transform="translate(-579.5 -235.02)"/><path class="cls-6" d="M659.83,260.12a1.07,1.07,0,1,1-.84-1.26A1.06,1.06,0,0,1,659.83,260.12Z" transform="translate(-579.5 -235.02)"/><path class="cls-6" d="M663.09,260.76a1.08,1.08,0,0,1-1.26.85,1.08,1.08,0,1,1,1.26-.85Z" transform="translate(-579.5 -235.02)"/><path class="cls-6" d="M659.31,262.77a1.08,1.08,0,1,1-.85-1.26A1.07,1.07,0,0,1,659.31,262.77Z" transform="translate(-579.5 -235.02)"/><path class="cls-6" d="M662.56,263.41a1.07,1.07,0,0,1-2.1-.41,1.07,1.07,0,1,1,2.1.41Z" transform="translate(-579.5 -235.02)"/></g><g class="cls-5"><path class="cls-6" d="M611.91,305.41l-.22-.61-.72,4.37a.19.19,0,0,1-.19.16h0a.18.18,0,0,1-.18-.16l-.82-6.51-.43,2.71a.19.19,0,0,1-.19.16h-4.27a10.51,10.51,0,0,0,.63,1.32,14,14,0,0,0,5.12,4.71,13.9,13.9,0,0,0,5.13-4.71,10.51,10.51,0,0,0,.63-1.32h-4.31A.2.2,0,0,1,611.91,305.41Z" transform="translate(-579.5 -235.02)"/><path class="cls-6" d="M615.36,299.36a9.79,9.79,0,0,1-9.43,0c-1.63,1-2.06,3.26-1.18,5.8H609l.61-3.88a.19.19,0,0,1,.19-.16.2.2,0,0,1,.19.17l.82,6.54.63-3.81a.2.2,0,0,1,.17-.16.21.21,0,0,1,.2.13l.41,1.17h4.32C617.42,302.62,617,300.35,615.36,299.36Z" transform="translate(-579.5 -235.02)"/></g><g class="cls-5"><path class="cls-6" d="M686.52,288.72l-.12-.33-.4,2.4a.11.11,0,0,1-.1.09h0a.11.11,0,0,1-.1-.09l-.45-3.58-.23,1.49a.11.11,0,0,1-.11.09h-2.34a5.85,5.85,0,0,0,.34.72,7.7,7.7,0,0,0,2.82,2.59,7.7,7.7,0,0,0,2.82-2.59,5.85,5.85,0,0,0,.34-.72h-2.37A.1.1,0,0,1,686.52,288.72Z" transform="translate(-579.5 -235.02)"/><path class="cls-6" d="M688.41,285.4a5.41,5.41,0,0,1-5.18,0c-.9.54-1.13,1.79-.65,3.18h2.33l.34-2.13a.1.1,0,0,1,.11-.08.11.11,0,0,1,.1.09l.45,3.59.35-2.09s0-.08.09-.09a.12.12,0,0,1,.11.07l.23.64h2.37C689.54,287.19,689.3,285.94,688.41,285.4Z" transform="translate(-579.5 -235.02)"/></g><path class="cls-3" d="M623.4,249c.43-.44-.21-1.29.17-1.77a.92.92,0,0,1,1-.15,1.9,1.9,0,0,0,1,.14,1,1,0,0,0,.37-1.41,1.74,1.74,0,0,0-.85-.63.29.29,0,0,1-.07-.51,1.92,1.92,0,0,0,.61-.59.82.82,0,0,0-.24-1,2,2,0,0,0-1,.06.36.36,0,0,1-.46-.35,2.09,2.09,0,0,0-.17-1.1.87.87,0,0,0-1.09-.19c-.38.24-.28,1.27-.68,1.46a1.23,1.23,0,0,1-1-.09,3.35,3.35,0,0,0-1-.37.72.72,0,0,0-.81.46c-.09.39.29.72.64.92s.76.44.79.85-.38.71-.76.84a3.56,3.56,0,0,0-1.14.44,1,1,0,0,0,.91,1.78c.53-.14,1-.7,1.5-.61a1.14,1.14,0,0,1,.76.74,3.63,3.63,0,0,0,.5,1A.7.7,0,0,0,623.4,249ZM620.9,244a.34.34,0,0,1,.07-.48.34.34,0,0,1,.46.11.32.32,0,1,1-.53.37Zm2-.94a.65.65,0,0,1,.9.21.63.63,0,1,1-.9-.21Zm-3,3.63a.33.33,0,0,1,.06-.47.35.35,0,0,1,.4.58A.34.34,0,0,1,619.87,246.64Zm1.75-.56a1.08,1.08,0,0,1,.21-1.51,1.07,1.07,0,0,1,1.48.33,1,1,0,1,1-1.69,1.18Zm2.46-.8a.43.43,0,0,1,.59.13.42.42,0,1,1-.68.47A.43.43,0,0,1,624.08,245.28Zm-1.78,2.33a.32.32,0,0,1,.06-.47.35.35,0,0,1,.4.58A.33.33,0,0,1,622.3,247.61Z" transform="translate(-579.5 -235.02)"/><path class="cls-3" d="M639.17,333.32c.61-.63-.3-1.84.25-2.53a1.3,1.3,0,0,1,1.39-.22,2.57,2.57,0,0,0,1.46.2,1.37,1.37,0,0,0,.53-2,2.37,2.37,0,0,0-1.21-.89.42.42,0,0,1-.1-.74,2.68,2.68,0,0,0,.87-.83,1.19,1.19,0,0,0-.34-1.47,2.77,2.77,0,0,0-1.47.1.53.53,0,0,1-.65-.51,2.92,2.92,0,0,0-.25-1.57,1.22,1.22,0,0,0-1.55-.27c-.54.34-.4,1.82-1,2.08a1.75,1.75,0,0,1-1.41-.13,4.71,4.71,0,0,0-1.36-.52,1,1,0,0,0-1.16.65c-.13.56.42,1,.92,1.32s1.09.63,1.13,1.21-.54,1-1.09,1.21a4.73,4.73,0,0,0-1.63.63,1.46,1.46,0,0,0,1.3,2.54c.76-.2,1.37-1,2.14-.87a1.61,1.61,0,0,1,1.09,1.05,5,5,0,0,0,.72,1.4A1,1,0,0,0,639.17,333.32Zm-3.57-7.23a.49.49,0,0,1,.09-.68.5.5,0,0,1,.67.15.49.49,0,0,1-.1.68A.47.47,0,0,1,635.6,326.09Zm2.81-1.34a1,1,0,1,1-.18,1.32A.94.94,0,0,1,638.41,324.75Zm-4.29,5.2a.46.46,0,1,1,.66.15A.48.48,0,0,1,634.12,330Zm2.51-.81a1.48,1.48,0,1,1,2.42-1.68,1.48,1.48,0,1,1-2.42,1.68Zm3.51-1.15a.65.65,0,1,1-.12.87A.63.63,0,0,1,640.14,328Zm-2.55,3.34a.49.49,0,0,1,.09-.68.49.49,0,0,1,.67.16.47.47,0,0,1-.09.67A.48.48,0,0,1,637.59,331.33Z" transform="translate(-579.5 -235.02)"/><g class="cls-5"><polygon class="cls-6" points="71.12 41.19 67.87 30.31 70.09 29.65 73.34 40.53 73.69 40.42 70.28 29.03 67.37 29.9 70.78 41.29 71.12 41.19"/><path class="cls-6" d="M646.42,258.18l1.2,4.57.38-.12-1.48-4.49Z" transform="translate(-579.5 -235.02)"/><rect class="cls-6" x="649.69" y="275.87" width="4.25" height="0.55" transform="translate(-631.29 -36.78) rotate(-16.64)"/><polygon class="cls-6" points="69.36 29.61 69.34 29.56 68.45 29.83 68.46 29.88 69.36 29.61"/><polygon class="cls-6" points="68.57 27.53 67.98 27.71 68.22 29.35 69.28 29.04 68.57 27.53"/><rect class="cls-6" x="652.31" y="276.55" width="0.39" height="3.84" transform="translate(-631.93 -36.41) rotate(-16.65)"/><rect class="cls-6" x="650.64" y="269.98" width="0.39" height="5.79" transform="translate(-630.39 -37.25) rotate(-16.64)"/><rect class="cls-6" x="651.61" y="276.11" width="0.39" height="0.06" transform="translate(-631.33 -36.39) rotate(-16.67)"/><polygon class="cls-6" points="70.69 35.02 71.38 34.81 71.09 33.83 69.33 34.36 69.63 35.34 70.31 35.13 70.69 35.02"/><polygon class="cls-6" points="72.52 45.6 72.79 46.51 74.86 45.89 74.58 44.98 73.74 45.24 73.36 45.35 72.52 45.6"/><rect class="cls-6" x="647.72" y="266.7" width="0.8" height="0.34" transform="translate(-628.78 -38.32) rotate(-16.63)"/><rect class="cls-6" x="648.31" y="268.67" width="0.8" height="0.34" transform="translate(-629.32 -38) rotate(-16.64)"/><rect class="cls-6" x="648.9" y="270.63" width="0.8" height="0.34" transform="translate(-629.86 -37.7) rotate(-16.64)"/><rect class="cls-6" x="649.49" y="272.6" width="0.8" height="0.34" transform="translate(-630.4 -37.5) rotate(-16.64)"/><rect class="cls-6" x="650.07" y="274.56" width="0.8" height="0.34" transform="translate(-630.94 -37.25) rotate(-16.64)"/></g><g class="cls-5"><polygon class="cls-6" points="12.12 90.65 21.27 97.37 19.9 99.23 10.75 92.52 10.53 92.81 20.13 99.84 21.92 97.39 12.33 90.36 12.12 90.65"/><path class="cls-6" d="M605.85,337.51l-3.71-2.92-.23.32,3.89,2.69Z" transform="translate(-579.5 -235.02)"/><rect class="cls-6" x="588.59" y="326.17" width="4.25" height="0.55" transform="translate(-601.36 374.75) rotate(-53.75)"/><polygon class="cls-6" points="20.5 98.82 20.55 98.85 21.1 98.1 21.06 98.06 20.5 98.82"/><polygon class="cls-6" points="22.39 100.01 22.76 99.5 21.58 98.34 20.92 99.23 22.39 100.01"/><rect class="cls-6" x="588.56" y="323.08" width="0.39" height="3.84" transform="translate(-601 372.55) rotate(-53.75)"/><rect class="cls-6" x="593.27" y="325.56" width="0.39" height="5.79" transform="translate(-601.85 377.8) rotate(-53.75)"/><rect class="cls-6" x="590.52" y="326.41" width="0.39" height="0.06" transform="translate(-601.37 374.7) rotate(-53.74)"/><polygon class="cls-6" points="16.19 95.31 15.76 95.89 16.58 96.5 17.66 95.02 16.84 94.42 16.42 94.99 16.19 95.31"/><polygon class="cls-6" points="8.34 87.98 7.58 87.42 6.3 89.16 7.07 89.72 7.59 89 7.82 88.69 8.34 87.98"/><rect class="cls-6" x="598.85" y="331.44" width="0.8" height="0.34" transform="translate(-602.02 383.76) rotate(-53.75)"/><rect class="cls-6" x="597.2" y="330.23" width="0.8" height="0.34" transform="translate(-601.73 381.92) rotate(-53.75)"/><rect class="cls-6" x="595.54" y="329.02" width="0.8" height="0.34" transform="translate(-601.36 380.23) rotate(-53.76)"/><rect class="cls-6" x="593.89" y="327.8" width="0.8" height="0.34" transform="translate(-601.1 378.3) rotate(-53.75)"/><rect class="cls-6" x="592.24" y="326.59" width="0.8" height="0.34" transform="matrix(0.59, -0.81, 0.81, 0.59, -600.82, 376.43)"/></g><g class="cls-5"><path class="cls-6" d="M690.58,246.67h-5.26v-1a.53.53,0,0,1,.53-.53h4.2a.53.53,0,0,1,.53.53Zm-5.1-.16h4.94v-.81a.38.38,0,0,0-.37-.37h-4.2a.38.38,0,0,0-.37.37Z" transform="translate(-579.5 -235.02)"/><path class="cls-6" d="M685.06,248.37v3.42h5.77v-3.42Zm2.29,1.21h1.79v.29h-1.79Zm-1.14-.73a.48.48,0,0,1,.48.48.48.48,0,0,1-1,0A.48.48,0,0,1,686.21,248.85Zm4,2.46h-4.44V251h4.44Zm0-.72h-4.44v-.29h4.44Zm0-1.45h-2.82v-.28h2.82Z" transform="translate(-579.5 -235.02)"/><path class="cls-6" d="M685.22,248.23v-.56a.65.65,0,0,1,.65-.65H690a.66.66,0,0,1,.66.65v.56h.15v-.56a.81.81,0,0,0-.81-.81h-4.15a.82.82,0,0,0-.81.81v.56Z" transform="translate(-579.5 -235.02)"/><rect class="cls-6" x="105.69" y="13.48" width="0.03" height="3.16"/><rect class="cls-6" x="111.17" y="13.48" width="0.03" height="3.16"/><path class="cls-6" d="M690.68,251.93V253a.66.66,0,0,1-.66.65h-4.15a.65.65,0,0,1-.65-.65v-1.06h-.16V253a.82.82,0,0,0,.81.81H690a.81.81,0,0,0,.81-.81v-1.06Z" transform="translate(-579.5 -235.02)"/></g><path class="cls-7" d="M686.85,299.06l-3.73-4.71a1.84,1.84,0,0,0-1.07-.23H670.2a1.84,1.84,0,0,0-1.07.23l-3.73,4.71c-.2.25.05.48.63.56a86.3,86.3,0,0,0,20.19,0C686.79,299.54,687.05,299.31,686.85,299.06Z" transform="translate(-579.5 -235.02)"/><rect class="cls-7" x="85.83" y="62.32" width="1.34" height="1.88"/><rect class="cls-7" x="106.18" y="62.32" width="1.23" height="2.02"/><path class="cls-8" d="M670.2,292.19h11.85a1.93,1.93,0,0,1,1.07.23l3.73,4.71c.2.26-.06.49-.63.56a85.22,85.22,0,0,1-20.19,0c-.58-.07-.83-.3-.63-.56l3.73-4.71A1.93,1.93,0,0,1,670.2,292.19Z" transform="translate(-579.5 -235.02)"/><path class="cls-9" d="M682.12,292.45l3.27,4.7a82.8,82.8,0,0,1-18.53,0l3.27-4.7Z" transform="translate(-579.5 -235.02)"/><path class="cls-10" d="M672.72,297.07l.25-.7.06-.19c0-.09.24-.15.48-.15h5.24c.23,0,.44.06.47.15l.07.19.24.7c0,.09-.11.17-.34.18a38,38,0,0,1-6.13,0C672.83,297.24,672.69,297.16,672.72,297.07Z" transform="translate(-579.5 -235.02)"/><path class="cls-11" d="M672.89,296.72a10.86,10.86,0,0,0,4.29.39l-.68-1.1-3.32,0Z" transform="translate(-579.5 -235.02)"/><path class="cls-12" d="M673,296.37l.06-.19c0-.09.24-.15.48-.15h5.24c.23,0,.44.06.47.15l.07.19a4.41,4.41,0,0,1-.91.3l-.22.05a10.81,10.81,0,0,1-1.9.19H676a10.69,10.69,0,0,1-1.89-.19l-.23-.05A4.31,4.31,0,0,1,673,296.37Z" transform="translate(-579.5 -235.02)"/><path class="cls-12" d="M677.71,296.46l.22,0,.45.26-.22.05Z" transform="translate(-579.5 -235.02)"/><path class="cls-12" d="M673.88,296.67l.45-.26.22,0-.45.26Z" transform="translate(-579.5 -235.02)"/><path class="cls-12" d="M676,296.91v-.31h.27v.31H676Z" transform="translate(-579.5 -235.02)"/><path class="cls-13" d="M677.71,296.46l.22,0,.45.26-.22.05Z" transform="translate(-579.5 -235.02)"/><path class="cls-13" d="M673.88,296.67l.45-.26.22,0-.45.26Z" transform="translate(-579.5 -235.02)"/><path class="cls-13" d="M676,296.91v-.31h.27v.31H676Z" transform="translate(-579.5 -235.02)"/><polygon class="cls-2" points="96.62 61.98 96.86 62.32 96.39 62.32 96.62 61.98"/><path class="cls-14" d="M673.51,296h5.23c.31,0,.58.08.62.19l.32.9c0,.11-.15.22-.45.24a40.36,40.36,0,0,1-6.22,0c-.29,0-.48-.13-.44-.24l.32-.9C672.93,296.06,673.2,296,673.51,296Zm2.58,1.34c1,0,2-.05,3.06-.12.15,0,.25-.07.23-.13l-.3-.89c0-.06-.16-.1-.32-.1H673.5c-.16,0-.3,0-.32.1l-.31.89c0,.06.08.12.23.13C674.07,297.28,675.08,297.32,676.09,297.32Z" transform="translate(-579.5 -235.02)"/><path class="cls-15" d="M676,238.63c-.42,0-4.53.07-5,5.11-.61,4.13-1.12,6.42,1.67,7a17.18,17.18,0,0,0,1.7.28h3.19a17.18,17.18,0,0,0,1.7-.28c2.79-.55,2.28-2.84,1.68-7C680.57,238.7,676.46,238.63,676,238.63Z" transform="translate(-579.5 -235.02)"/><path class="cls-16" d="M682.33,254.56l1.16,2.45a20.21,20.21,0,0,1-3.44,2.06l-1.7-2.76C676.79,253.79,680.45,250.66,682.33,254.56Z" transform="translate(-579.5 -235.02)"/><path class="cls-17" d="M685.82,262l-3.22,1.27-2.55-4.16a20.21,20.21,0,0,0,3.44-2.06Z" transform="translate(-579.5 -235.02)"/><path class="cls-17" d="M685.8,261.89l3.59,6.26-1.54,1.11L683,263.91C681,261.58,684.05,259.21,685.8,261.89Z" transform="translate(-579.5 -235.02)"/><path class="cls-18" d="M691.52,270.18l.23.22.29.37.15,1.05a.31.31,0,0,0,.26.27l0,.34a.31.31,0,0,0,.4.26h0a.31.31,0,0,0,.13-.06.33.33,0,0,0,.35,0h0a.45.45,0,0,0,.25-.53l-.43-1.43v0l0,0,0,0s0,0,0,0l0,0h0l-1-1a.37.37,0,0,0-.53.06h0A.42.42,0,0,0,691.52,270.18Z" transform="translate(-579.5 -235.02)"/><path class="cls-17" d="M687.85,269.26l.68.6a1.74,1.74,0,0,0,.56.32l.55.17a.52.52,0,0,1,.18.1l1,.82a.37.37,0,0,0,.53-.1h0a.4.4,0,0,0,0-.56l-.67-.56.89.15,1.13.69.65,1.2a.34.34,0,0,0,.51.1h0a.44.44,0,0,0,.15-.56l-.81-1.4s-.79-.74-1.05-.94l-.21-.13a7.44,7.44,0,0,0-2.11-.84l-1.11-.42Z" transform="translate(-579.5 -235.02)"/><path class="cls-16" d="M669.62,254.56,668.46,257a19.83,19.83,0,0,0,3.44,2.06l1.69-2.76C675.16,253.79,671.49,250.66,669.62,254.56Z" transform="translate(-579.5 -235.02)"/><path class="cls-17" d="M666.13,262l3.22,1.27,2.55-4.16a19.83,19.83,0,0,1-3.44-2.06Z" transform="translate(-579.5 -235.02)"/><path class="cls-17" d="M666.14,261.89l-3.58,6.26,1.53,1.11,4.84-5.35C671,261.58,667.9,259.21,666.14,261.89Z" transform="translate(-579.5 -235.02)"/><path class="cls-18" d="M660.43,270.18l-.23.22-.29.37-.15,1.05a.32.32,0,0,1-.26.27l0,.34a.31.31,0,0,1-.4.26h0l-.12-.06a.34.34,0,0,1-.35,0h0a.46.46,0,0,1-.25-.53l.44-1.43v0l0,0v0l0,0,0,0h0l1-1a.37.37,0,0,1,.53.06h0A.42.42,0,0,1,660.43,270.18Z" transform="translate(-579.5 -235.02)"/><path class="cls-17" d="M664.09,269.26l-.67.6a1.85,1.85,0,0,1-.56.32l-.55.17a.52.52,0,0,0-.18.1l-1,.82a.37.37,0,0,1-.53-.1h0a.4.4,0,0,1,0-.56l.66-.56-.89.15-1.12.69-.65,1.2a.34.34,0,0,1-.51.1h0a.44.44,0,0,1-.15-.56l.81-1.4s.78-.74,1-.94l.21-.13a7.44,7.44,0,0,1,2.11-.84l1.11-.42Z" transform="translate(-579.5 -235.02)"/><path class="cls-15" d="M676.18,294.62a.14.14,0,0,1,0,.11.18.18,0,0,1-.08.07l-.44.13a1.32,1.32,0,0,1-.39.06l-1.07,0h-.08l-2.43.2a4.05,4.05,0,0,1-.92,0,4.61,4.61,0,0,1-1.43-.43.18.18,0,0,1-.08-.17l.06-.31L676,294Z" transform="translate(-579.5 -235.02)"/><path class="cls-19" d="M671.08,293.06c.67-.25,1.58,0,2.24-.89.26-.28.75-1.63-.19-1.57-.1,0,0,.3-.18.64A3.57,3.57,0,0,1,670.7,293h0A.38.38,0,0,0,671.08,293.06Z" transform="translate(-579.5 -235.02)"/><path class="cls-20" d="M675.65,291.92c-1.12.91-1.84.13-2.29-.19a.22.22,0,0,0-.31,0,4.52,4.52,0,0,1-2,1.29.36.36,0,0,1-.38-.09h0a3.07,3.07,0,0,0-1.22.59c-.19.16-.27.71-.14.76a5.29,5.29,0,0,0,1.66.37,4.84,4.84,0,0,0,1.47-.05l1.07-.29a3.32,3.32,0,0,1,.44-.06l2.06-.17A3.82,3.82,0,0,0,675.65,291.92Z" transform="translate(-579.5 -235.02)"/><path class="cls-21" d="M675.89,292.48c-.36.16-.36-.17-.87-.2.07-.1.19-.12.26-.42s.09-.43.19-.49h0a.11.11,0,0,1,.11,0,.12.12,0,0,1,.06.1C675.71,291.7,675.8,292.15,675.89,292.48Z" transform="translate(-579.5 -235.02)"/><path class="cls-15" d="M671.35,293.36h0a.12.12,0,0,1-.16-.07l-.18-.4a.15.15,0,0,1,0-.19h0a.12.12,0,0,1,.16.07l.18.4A.14.14,0,0,1,671.35,293.36Z" transform="translate(-579.5 -235.02)"/><path class="cls-15" d="M671.69,293.2h0a.12.12,0,0,1-.16-.07l-.18-.4a.14.14,0,0,1,0-.18h0c.06,0,.13,0,.17.08l.18.39A.15.15,0,0,1,671.69,293.2Z" transform="translate(-579.5 -235.02)"/><path class="cls-15" d="M672,293h0a.13.13,0,0,1-.17-.07l-.18-.39a.15.15,0,0,1,.05-.19h0c.06,0,.13,0,.17.07l.18.39A.15.15,0,0,1,672,293Z" transform="translate(-579.5 -235.02)"/><path class="cls-15" d="M672.38,292.82h0a.14.14,0,0,1-.18-.06l-.22-.39a.16.16,0,0,1,0-.2h0a.12.12,0,0,1,.17.06l.23.39A.15.15,0,0,1,672.38,292.82Z" transform="translate(-579.5 -235.02)"/><path class="cls-15" d="M672.73,292.57h0a.12.12,0,0,1-.18,0l-.28-.37a.15.15,0,0,1,0-.2h0a.12.12,0,0,1,.18,0l.28.37A.14.14,0,0,1,672.73,292.57Z" transform="translate(-579.5 -235.02)"/><path class="cls-22" d="M673.06,292.23h0a.12.12,0,0,1-.19,0l-.3-.34a.15.15,0,0,1,0-.2h0a.12.12,0,0,1,.18,0l.3.35A.15.15,0,0,1,673.06,292.23Z" transform="translate(-579.5 -235.02)"/><path class="cls-23" d="M676,281.06c-.38,2.93-3.61,3.45-5.34-.64l-3.36-11.16,8.73,1.78Z" transform="translate(-579.5 -235.02)"/><path class="cls-23" d="M676.07,293.49c-1.15-1.22-2.19-.44-3.67-1.47l-1.7-11.6c-.07-2.69,5.24-2.44,5.49.42Z" transform="translate(-579.5 -235.02)"/><path class="cls-15" d="M675.89,294.62a.22.22,0,0,0,0,.11.18.18,0,0,0,.08.07l.44.13a1.32,1.32,0,0,0,.39.06l1.07,0H678l2.43.2a4,4,0,0,0,.92,0,4.61,4.61,0,0,0,1.43-.43.16.16,0,0,0,.08-.17l-.05-.31-6.72-.26Z" transform="translate(-579.5 -235.02)"/><path class="cls-19" d="M681,293.06c-.67-.25-1.58,0-2.23-.89-.27-.28-.76-1.63.18-1.57.11,0,0,.3.19.64a3.55,3.55,0,0,0,2.25,1.72h0A.38.38,0,0,1,681,293.06Z" transform="translate(-579.5 -235.02)"/><path class="cls-20" d="M676.42,291.92c1.12.91,1.84.13,2.29-.19a.22.22,0,0,1,.31,0,4.52,4.52,0,0,0,2,1.29.36.36,0,0,0,.38-.09h0a3,3,0,0,1,1.21.59c.19.16.27.71.14.76a5.24,5.24,0,0,1-1.65.37,4.89,4.89,0,0,1-1.48-.05l-1.07-.29a3.18,3.18,0,0,0-.43-.06l-2.06-.17A3.73,3.73,0,0,1,676.42,291.92Z" transform="translate(-579.5 -235.02)"/><path class="cls-21" d="M676.19,292.48c.35.16.35-.17.86-.2-.06-.1-.19-.12-.25-.42s-.1-.43-.19-.49h0a.13.13,0,0,0-.12,0,.14.14,0,0,0-.06.1C676.36,291.7,676.28,292.15,676.19,292.48Z" transform="translate(-579.5 -235.02)"/><path class="cls-15" d="M680.73,293.36h0a.13.13,0,0,0,.17-.07l.18-.4a.15.15,0,0,0-.05-.19h0a.12.12,0,0,0-.16.07l-.18.4A.15.15,0,0,0,680.73,293.36Z" transform="translate(-579.5 -235.02)"/><path class="cls-15" d="M680.39,293.2h0a.12.12,0,0,0,.16-.07l.18-.4a.13.13,0,0,0,0-.18h0a.12.12,0,0,0-.16.08l-.18.39A.15.15,0,0,0,680.39,293.2Z" transform="translate(-579.5 -235.02)"/><path class="cls-15" d="M680.05,293h0a.12.12,0,0,0,.16-.07l.18-.39a.14.14,0,0,0,0-.19h0c-.06,0-.13,0-.16.07l-.18.39A.14.14,0,0,0,680.05,293Z" transform="translate(-579.5 -235.02)"/><path class="cls-15" d="M679.7,292.82h0a.13.13,0,0,0,.17-.06l.23-.39a.15.15,0,0,0,0-.2h0a.13.13,0,0,0-.18.06l-.22.39A.14.14,0,0,0,679.7,292.82Z" transform="translate(-579.5 -235.02)"/><path class="cls-15" d="M679.34,292.57h0a.12.12,0,0,0,.18,0l.28-.37a.15.15,0,0,0,0-.2h0a.13.13,0,0,0-.19,0l-.27.37A.15.15,0,0,0,679.34,292.57Z" transform="translate(-579.5 -235.02)"/><path class="cls-22" d="M679,292.23h0a.11.11,0,0,0,.18,0l.31-.34a.15.15,0,0,0,0-.2h0a.13.13,0,0,0-.19,0l-.3.35A.14.14,0,0,0,679,292.23Z" transform="translate(-579.5 -235.02)"/><path class="cls-23" d="M675.89,281c.37,2.93,3.75,3.5,5.49-.59l3.19-10.73L676,271Z" transform="translate(-579.5 -235.02)"/><path class="cls-23" d="M676,293.49c1.15-1.22,2.2-.44,3.67-1.47l1.71-11.6c.06-2.69-5.25-2.38-5.49.49Z" transform="translate(-579.5 -235.02)"/><path class="cls-16" d="M676,248.52h-2.66v2.93a16.6,16.6,0,0,1-2,1.28c-2.33,1.23-1.41,6.2-1.41,6.2H682.1s.92-5-1.42-6.19a15.93,15.93,0,0,1-2-1.29v-2.93Z" transform="translate(-579.5 -235.02)"/><path class="cls-23" d="M667,268.11c.78,4.28,4.51,6.24,9,6.24s8.21-2,9-6.24Z" transform="translate(-579.5 -235.02)"/><path class="cls-16" d="M685.19,266.36c0-5.5-4.1-11.93-9.15-11.93s-9.16,6.43-9.16,11.93a9.73,9.73,0,0,0,.16,1.75,20.28,20.28,0,0,0,18,0A9.73,9.73,0,0,0,685.19,266.36Z" transform="translate(-579.5 -235.02)"/><path class="cls-17" d="M676,248.52h-2.66v2.93c0,.76.91,1.2,2,1.32.24,0,.44,2.86.68,2.86s.53-2.85.76-2.88c1.05-.15,1.92-.58,1.91-1.3v-2.93Z" transform="translate(-579.5 -235.02)"/><path class="cls-24" d="M676,241.17a3.07,3.07,0,0,0-3.26,1.73,5.15,5.15,0,0,0-.35,1.75.44.44,0,0,0-.35-.12c-.34.06-.54.6-.44,1.21a1.25,1.25,0,0,0,.6,1,.75.75,0,0,0,.26,0c-.39,2.19,1.23,3.87,3.63,3.87a3.36,3.36,0,0,0,3.45-3.87.56.56,0,0,0,.26,0,1.24,1.24,0,0,0,.59-1c.1-.61-.09-1.15-.43-1.21a.42.42,0,0,0-.35.13,5.16,5.16,0,0,0-.35-1.76A3.07,3.07,0,0,0,676,241.17Z" transform="translate(-579.5 -235.02)"/><path class="cls-15" d="M672.11,241.4v1.71c2.62-3.05,5.24,3,7.85,0V241.4C677.2,238.74,674.6,239.16,672.11,241.4Z" transform="translate(-579.5 -235.02)"/><path class="cls-16" d="M678.57,253.47c-1.43,0-2.35,1.6-2.53,3.34-.18-1.74-1.1-3.34-2.53-3.34-1.59,0-3.43,2.39-3.63,4.39a3,3,0,0,0,3.09,3.49c1.64,0,2.86-1.5,3.07-3.36.21,1.86,1.42,3.36,3.07,3.36a3,3,0,0,0,3.09-3.49C682,255.86,680.16,253.47,678.57,253.47Z" transform="translate(-579.5 -235.02)"/><path class="cls-25" d="M681.83,256.46a5.67,5.67,0,0,1,.1.57,2.92,2.92,0,0,1-3,3.39c-1.57,0-2.73-1.46-2.93-3.26-.2,1.8-1.36,3.26-2.93,3.26a2.92,2.92,0,0,1-3-3.39,5.67,5.67,0,0,1,.1-.57,4.93,4.93,0,0,0-.37,1.4,3,3,0,0,0,3.09,3.49c1.64,0,2.86-1.5,3.07-3.36.21,1.86,1.42,3.36,3.07,3.36a3,3,0,0,0,3.09-3.49A5.29,5.29,0,0,0,681.83,256.46Z" transform="translate(-579.5 -235.02)"/><path class="cls-3" d="M673.06,273l2.39,2,.59,18.74.58-18.65L679.3,273A5.82,5.82,0,0,1,673.06,273Z" transform="translate(-579.5 -235.02)"/><polygon class="cls-26" points="22.98 44.82 22.02 45.12 22.93 37.11 23.82 36.62 22.98 44.82"/><polygon class="cls-27" points="22.02 45.12 20.44 44.49 21.49 36.11 22.93 37.11 22.02 45.12"/><polygon class="cls-28" points="22.94 36.02 21.49 36.11 22.93 37.11 23.82 36.62 22.94 36.02"/><polygon class="cls-26" points="25.26 47.59 24.26 47.64 27.07 40.09 28.05 39.82 25.26 47.59"/><polygon class="cls-27" points="24.26 47.64 22.88 46.66 25.91 38.77 27.07 40.09 24.26 47.64"/><polygon class="cls-28" points="27.34 39.03 25.91 38.77 27.07 40.09 28.05 39.82 27.34 39.03"/><polygon class="cls-26" points="23.36 47.4 22.36 47.49 25.32 39.15 25.92 39.56 23.36 47.4"/><polygon class="cls-27" points="22.36 47.49 21.43 47.15 23.74 38.57 25.32 39.15 22.36 47.49"/><polygon class="cls-26" points="21.99 48.15 21.02 48.42 22.13 40.44 23.03 39.97 21.99 48.15"/><polygon class="cls-27" points="21.02 48.42 19.47 47.76 20.71 39.4 22.13 40.44 21.02 48.42"/><polygon class="cls-28" points="22.16 39.35 20.71 39.4 22.13 40.44 23.03 39.97 22.16 39.35"/><polygon class="cls-26" points="20.39 45.42 19.45 45.74 19.95 37.7 20.65 37.91 20.39 45.42"/><polygon class="cls-27" points="19.45 45.74 18.47 45.66 18.29 37.57 19.95 37.7 19.45 45.74"/><polygon class="cls-26" points="17.17 44.44 16.25 44.85 16.27 36.79 17.09 36.2 17.17 44.44"/><polygon class="cls-27" points="16.25 44.85 14.62 44.4 14.72 35.95 16.27 36.79 16.25 44.85"/><polygon class="cls-28" points="16.15 35.7 14.72 35.95 16.27 36.79 17.09 36.2 16.15 35.7"/><polygon class="cls-26" points="14.81 44.87 13.9 45.3 13.78 36.45 14.49 36.63 14.81 44.87"/><polygon class="cls-27" points="13.9 45.3 12.91 45.3 12.11 36.45 13.78 36.45 13.9 45.3"/><polygon class="cls-26" points="18.17 45.03 17.2 45.31 17.74 36.77 18.93 37.28 18.17 45.03"/><polygon class="cls-27" points="17.2 45.31 16.23 45.15 16.82 37.02 17.74 36.77 17.2 45.31"/><polygon class="cls-26" points="20.02 46.87 19.25 47.38 21.27 39.9 22.22 39.54 20.02 46.87"/><polygon class="cls-27" points="19.25 47.38 18.05 47.02 20.15 39.34 21.27 39.9 19.25 47.38"/><polygon class="cls-28" points="21.44 38.81 20.15 39.34 21.27 39.9 22.22 39.54 21.44 38.81"/><polygon class="cls-26" points="14.3 46.11 13.48 46.7 11.76 38.83 12.44 38.07 14.3 46.11"/><polygon class="cls-27" points="13.48 46.7 11.79 46.62 10.06 38.34 11.76 38.83 13.48 46.7"/><polygon class="cls-28" points="11.41 37.79 10.06 38.34 11.76 38.83 12.44 38.07 11.41 37.79"/><polygon class="cls-26" points="12.36 47.78 11.53 48.35 10 39.63 10.72 39.7 12.36 47.78"/><polygon class="cls-27" points="11.53 48.35 10.56 48.51 8.35 39.9 10 39.63 11.53 48.35"/><polygon class="cls-26" points="14.97 47.19 14.01 47.46 14.54 38.92 15.74 39.44 14.97 47.19"/><polygon class="cls-27" points="14.01 47.46 13.03 47.3 13.63 39.18 14.54 38.92 14.01 47.46"/><polygon class="cls-26" points="16.91 48.69 16.33 49.41 16.11 41.66 16.91 41.04 16.91 48.69"/><polygon class="cls-27" points="16.33 49.41 15.08 49.41 14.87 41.45 16.11 41.66 16.33 49.41"/><polygon class="cls-28" points="15.96 40.57 14.87 41.45 16.11 41.66 16.91 41.04 15.96 40.57"/><polygon class="cls-26" points="19.24 47.76 18.65 48.47 18.43 40.72 19.24 40.1 19.24 47.76"/><polygon class="cls-27" points="18.65 48.47 17.4 48.47 17.2 40.51 18.43 40.72 18.65 48.47"/><polygon class="cls-28" points="18.29 39.63 17.2 40.51 18.43 40.72 19.24 40.1 18.29 39.63"/><polygon class="cls-26" points="18.23 50.5 17.26 50.78 17.8 42.24 18.99 42.76 18.23 50.5"/><polygon class="cls-27" points="17.26 50.78 16.29 50.62 16.88 42.49 17.8 42.24 17.26 50.78"/><polygon class="cls-29" points="24.55 62.26 15.01 62.26 13.14 45.8 26.41 45.8 24.55 62.26"/><polygon class="cls-16" points="22.71 45.8 22.22 50.09 22.1 51.21 21.51 56.41 21.38 57.53 20.84 62.26 11.31 62.26 10.77 57.53 10.64 56.41 10.05 51.21 9.93 50.09 9.44 45.8 22.71 45.8"/><polygon class="cls-10" points="22.22 50.09 22.1 51.21 21.51 56.41 21.38 57.53 10.77 57.53 10.64 56.41 10.05 51.21 9.93 50.09 22.22 50.09"/><polygon class="cls-23" points="22.1 51.21 21.51 56.41 10.64 56.41 10.05 51.21 22.1 51.21"/><path class="cls-30" d="M678.28,309.26a2,2,0,1,1-2-2A2,2,0,0,1,678.28,309.26Z" transform="translate(-579.5 -235.02)"/><g class="cls-31"><path class="cls-32" d="M675.35,308.91a2.69,2.69,0,0,1,.66-1,.18.18,0,0,0-.18-.31,1.79,1.79,0,0,0-1.08,1,1.81,1.81,0,0,0,.08,1.48.19.19,0,0,0,.35-.09A2.65,2.65,0,0,1,675.35,308.91Z" transform="translate(-579.5 -235.02)"/><path class="cls-10" d="M675.35,308.91a2.69,2.69,0,0,1,.66-1,.18.18,0,0,0-.18-.31,1.79,1.79,0,0,0-1.08,1,1.81,1.81,0,0,0,.08,1.48.19.19,0,0,0,.35-.09A2.65,2.65,0,0,1,675.35,308.91Z" transform="translate(-579.5 -235.02)"/></g><polygon class="cls-19" points="109.88 76.56 85.23 76.56 85.23 80.5 109.88 80.32 109.88 76.56"/><polygon class="cls-33" points="109.88 80.32 85.23 80.5 85.23 81.53 109.88 81.79 109.88 80.32"/><polygon class="cls-28" points="109.88 81.79 109.88 85.12 100.34 85.35 97.73 85.42 95.5 85.47 85.23 85.72 85.23 81.53 86.18 81.54 95.25 81.64 97.51 81.66 100.34 81.69 107.66 81.77 109.88 81.79"/><polygon class="cls-33" points="109.88 85.12 109.88 86.58 100.34 86.82 85.23 87.2 85.23 85.72 95.5 85.47 97.73 85.42 100.34 85.35 109.88 85.12"/><polygon class="cls-19" points="109.88 86.58 109.88 90.6 85.23 90.6 85.23 87.2 100.34 86.82 109.88 86.58"/><path class="cls-34" d="M689.76,313l0,3.69a2.45,2.45,0,0,1-.35,1.48,1,1,0,0,1-.26.23,1.29,1.29,0,0,1-1.66-.6,2.39,2.39,0,0,1-.3-1,7.39,7.39,0,0,1,0-.94c0-.16,0-.33,0-.49a2.85,2.85,0,0,0-.37-1.41,1.26,1.26,0,0,0-1.68-.5,2.24,2.24,0,0,0-.63,1.15,1.64,1.64,0,0,1-.47.78.69.69,0,0,1-.36.18,1,1,0,0,1-.69-.17c-.47-.28-.91-.78-1.43-.67a1.27,1.27,0,0,0-.76.68l-.13.2a1.22,1.22,0,0,1-.75.63.5.5,0,0,1-.27,0c-.33-.1-.44-.43-.52-.81a1.9,1.9,0,0,0-.42-1,1,1,0,0,0-1.41.37,1.68,1.68,0,0,0-.22.64,5.46,5.46,0,0,0,0,1c0,.09,0,.18,0,.26l.21,3.17a5.76,5.76,0,0,1,0,.59,2,2,0,0,1-.08.59,1.13,1.13,0,0,1-.79.81,1.15,1.15,0,0,1-1.15-.65,2.46,2.46,0,0,1-.21-.7c0-.23,0-.46-.07-.68-.06-1.05-.11-2.11-.18-3.15v-.06a4.38,4.38,0,0,0-.17-1.15,1.66,1.66,0,0,0-.18-.38,1.08,1.08,0,0,0-1.36-.45,1.41,1.41,0,0,0-.54.84,2.41,2.41,0,0,1-.08.25c-.13.4-.38.85-.81.89s-.74-.36-.86-.76c0-.12,0-.24-.07-.36a5.93,5.93,0,0,0-.13-.86c-.12-.4-.45-.79-.86-.76-.56.05-.86.84-1.43.85-.77,0-.9-1.34-1.66-1.46-.54-.08-.93.56-.93,1.1a9.34,9.34,0,0,0,.19,1.16,3.44,3.44,0,0,1,0,.46,1.16,1.16,0,0,1-.2.59.74.74,0,0,1-.83.37.31.31,0,0,1-.13-.06c-.36-.22-.42-.77-.41-1.22l0-2.57a3,3,0,0,1,.35-1.7c.55-.8,1.68-.88,2.65-.89l12.49,0,7.16,0a2.15,2.15,0,0,1,2.76,2.52Z" transform="translate(-579.5 -235.02)"/><path class="cls-35" d="M689.76,313l0,3.69a2.45,2.45,0,0,1-.35,1.48v7.48h-9.54V310.47l7.16,0a2.15,2.15,0,0,1,2.76,2.52Z" transform="translate(-579.5 -235.02)"/><rect class="cls-28" x="11.87" y="19.27" width="24.73" height="3.69" rx="0.71"/><rect class="cls-34" x="12.93" y="11.89" width="22.59" height="2.63" rx="1.3"/><rect class="cls-28" x="11.87" y="14.09" width="24.73" height="2.99" rx="0.71"/><path class="cls-28" d="M615.41,247.12H592.06a1,1,0,0,1-.92-1.25,5.42,5.42,0,0,1,2-2.48c2.3-1.68,6.18-2.79,10.57-2.79a19.27,19.27,0,0,1,10.2,2.53,5.76,5.76,0,0,1,2.4,2.74A1,1,0,0,1,615.41,247.12Z" transform="translate(-579.5 -235.02)"/><path class="cls-36" d="M613.93,243.13a3.1,3.1,0,0,1-2.51,1c-.85-.2-1.53-1-2.4-.93s-1.28,1-2,1.42a3,3,0,0,1-2.33,0,6.57,6.57,0,0,0-2.32-.56,6.5,6.5,0,0,0-2,.6,3,3,0,0,1-2,.2,1.26,1.26,0,0,1-.81-1.65l-2.63.76a1.53,1.53,0,0,1-1.5-.1.78.78,0,0,1-.21-.4c2.3-1.68,6.18-2.79,10.57-2.79A19.27,19.27,0,0,1,613.93,243.13Z" transform="translate(-579.5 -235.02)"/><path class="cls-34" d="M601.82,241.29l.27.09a2.58,2.58,0,0,0,.08.26.53.53,0,0,1,.56.13l.09-.17a.14.14,0,0,0,.23,0,.24.24,0,0,0,0-.27.94.94,0,0,0-.23-.16c-.08-.12-.18-.27-.33-.27a.49.49,0,0,0-.23.08A1.83,1.83,0,0,0,601.82,241.29Z" transform="translate(-579.5 -235.02)"/><path class="cls-34" d="M604,240.81l.12.23-.11.23a.49.49,0,0,1,.29.46l.18-.06a.13.13,0,0,0,.15.15.2.2,0,0,0,.16-.19.58.58,0,0,0,0-.26.43.43,0,0,0-.05-.4.37.37,0,0,0-.2-.09A1.35,1.35,0,0,0,604,240.81Z" transform="translate(-579.5 -235.02)"/><path class="cls-34" d="M603.73,240.14l-.12.18h-.22a.43.43,0,0,1-.22.4l.11.11c-.07,0-.1.12,0,.18a.2.2,0,0,0,.21,0,.46.46,0,0,0,.17-.14c.11,0,.25-.08.28-.19a.41.41,0,0,0,0-.19A1.17,1.17,0,0,0,603.73,240.14Z" transform="translate(-579.5 -235.02)"/><path class="cls-34" d="M600.73,240.91h-.28l-.17-.22a.53.53,0,0,1-.58.06l0,.19c-.07-.07-.2,0-.23.08a.24.24,0,0,0,.11.24.65.65,0,0,0,.28.08.46.46,0,0,0,.4.16.4.4,0,0,0,.19-.15A1.52,1.52,0,0,0,600.73,240.91Z" transform="translate(-579.5 -235.02)"/><path class="cls-34" d="M600.87,240.41l.14.14,0,.19a.4.4,0,0,1,.32.27l.11-.08a.1.1,0,0,0,.15.08.17.17,0,0,0,.07-.18.59.59,0,0,0-.1-.17c0-.11,0-.24-.12-.29a.32.32,0,0,0-.17,0A1.19,1.19,0,0,0,600.87,240.41Z" transform="translate(-579.5 -235.02)"/><path class="cls-34" d="M600.58,242l.16.21-.06.25a.52.52,0,0,1,.39.4l.16-.1a.14.14,0,0,0,.19.12.21.21,0,0,0,.11-.22.55.55,0,0,0-.1-.25.44.44,0,0,0-.13-.39.4.4,0,0,0-.22-.06A1.67,1.67,0,0,0,600.58,242Z" transform="translate(-579.5 -235.02)"/><path class="cls-34" d="M604.83,242.32l-.05.18-.18.07a.35.35,0,0,1-.07.39l.12,0a.1.1,0,0,0,0,.16.14.14,0,0,0,.18,0,.34.34,0,0,0,.1-.16c.09-.06.18-.13.18-.23a.31.31,0,0,0-.06-.16A1.22,1.22,0,0,0,604.83,242.32Z" transform="translate(-579.5 -235.02)"/><path class="cls-34" d="M603.33,242.08l0,.24-.21.11a.47.47,0,0,1,0,.5l.16,0a.12.12,0,0,0,0,.2.2.2,0,0,0,.22-.07.74.74,0,0,0,.1-.22c.09-.08.2-.19.18-.32a.34.34,0,0,0-.11-.18A1.38,1.38,0,0,0,603.33,242.08Z" transform="translate(-579.5 -235.02)"/><path class="cls-34" d="M606,242.09l.21,0,.09.18a.41.41,0,0,1,.44,0l.05-.14a.11.11,0,0,0,.18,0,.19.19,0,0,0,0-.2.46.46,0,0,0-.2-.09c-.07-.09-.16-.19-.28-.17s-.11.05-.16.08A1.28,1.28,0,0,0,606,242.09Z" transform="translate(-579.5 -235.02)"/><path class="cls-34" d="M605.15,241.13l.27,0,.12.24a.5.5,0,0,1,.56,0l.07-.18c.05.07.18,0,.22,0a.22.22,0,0,0-.07-.25.55.55,0,0,0-.24-.12c-.1-.12-.22-.24-.37-.22a.41.41,0,0,0-.21.12A1.24,1.24,0,0,0,605.15,241.13Z" transform="translate(-579.5 -235.02)"/><path class="cls-34" d="M607.27,240.08l0,.3-.25.15a.59.59,0,0,1,0,.64l.21.06c-.09.06,0,.21.05.25a.26.26,0,0,0,.28-.09.74.74,0,0,0,.12-.29c.12-.11.25-.25.22-.41a.46.46,0,0,0-.14-.23A1.55,1.55,0,0,0,607.27,240.08Z" transform="translate(-579.5 -235.02)"/><path class="cls-34" d="M608.15,241.83l.22.15v.26a.52.52,0,0,1,.48.28,1.59,1.59,0,0,1,.13-.13.14.14,0,0,0,.22.06.21.21,0,0,0,0-.25.5.5,0,0,0-.17-.21.44.44,0,0,0-.23-.35.6.6,0,0,0-.23,0A1.58,1.58,0,0,0,608.15,241.83Z" transform="translate(-579.5 -235.02)"/><path class="cls-34" d="M609.68,240.7l-.14.19h-.23a.44.44,0,0,1-.25.42l.12.12a.12.12,0,0,0-.06.19.19.19,0,0,0,.22,0,.62.62,0,0,0,.19-.14.42.42,0,0,0,.31-.2.46.46,0,0,0,0-.2A1.17,1.17,0,0,0,609.68,240.7Z" transform="translate(-579.5 -235.02)"/><path class="cls-34" d="M598.23,241.32l.06.15-.08.14a.33.33,0,0,1,.16.31l.11,0a.08.08,0,0,0,.09.1c.06,0,.1-.06.11-.11a.47.47,0,0,0,0-.17c0-.09.05-.19,0-.26a.21.21,0,0,0-.12-.07A.82.82,0,0,0,598.23,241.32Z" transform="translate(-579.5 -235.02)"/><path class="cls-34" d="M598.54,240.72l.09.16-.07.15a.34.34,0,0,1,.21.3l.12,0a.09.09,0,0,0,.11.1.14.14,0,0,0,.1-.14.47.47,0,0,0,0-.17c0-.1,0-.21,0-.27a.25.25,0,0,0-.14-.06A1,1,0,0,0,598.54,240.72Z" transform="translate(-579.5 -235.02)"/><path class="cls-34" d="M600.21,242.14l-.26.07-.22-.16a.56.56,0,0,1-.54.21l0,.19c-.08,0-.2,0-.2.13a.25.25,0,0,0,.18.21.88.88,0,0,0,.28,0,.47.47,0,0,0,.43,0,.38.38,0,0,0,.14-.19A1.35,1.35,0,0,0,600.21,242.14Z" transform="translate(-579.5 -235.02)"/><rect class="cls-30" x="12.93" y="18.13" width="22.59" height="1.15" rx="0.57"/><path class="cls-37" d="M614.27,253.15a18.72,18.72,0,0,0-9.52,3.37,1.85,1.85,0,0,1-2.12,0,20.49,20.49,0,0,0-9.33-3.36.52.52,0,0,1-.52-.52h0a.52.52,0,0,1,.52-.52h21a.52.52,0,0,1,.52.52h0A.53.53,0,0,1,614.27,253.15Z" transform="translate(-579.5 -235.02)"/><path class="cls-38" d="M603.07,255.47a.63.63,0,1,1,.62-.63.88.88,0,0,1,0,.17.87.87,0,0,0,.06-.32.81.81,0,1,0-.81.81,1,1,0,0,0,.25,0Z" transform="translate(-579.5 -235.02)"/><path class="cls-38" d="M606.55,252.41a.75.75,0,1,1-.75.75.64.64,0,0,1,0-.2,1,1,0,0,0-.08.39,1,1,0,1,0,1-1,.93.93,0,0,0-.29.05Z" transform="translate(-579.5 -235.02)"/><path class="cls-38" d="M599,253.89a.6.6,0,0,1-.59-.6.6.6,0,0,1,1.19,0,.41.41,0,0,1,0,.16.73.73,0,0,0,.07-.3.77.77,0,1,0-.77.77.85.85,0,0,0,.23,0Z" transform="translate(-579.5 -235.02)"/><path class="cls-38" d="M611.36,252.65a.41.41,0,0,1-.41.42.42.42,0,1,1,0-.84l.11,0a.54.54,0,0,0-.22,0,.54.54,0,1,0,.55.54,1,1,0,0,0,0-.17Z" transform="translate(-579.5 -235.02)"/><path class="cls-23" d="M602.22,249.11a1.61,1.61,0,0,1-.29.91,3.3,3.3,0,0,1-.77.72l-.28.2-2.11,1.45-.91.62.34-.62c.12-.22.23-.44.35-.65l-2.28.65-1.89.53c.16-.18.33-.36.5-.53l1.45-1.56-3.55.15,3.85-1.72-.37-.15Z" transform="translate(-579.5 -235.02)"/><path class="cls-23" d="M605.93,249.59l1.09,2-.7-.12-.87-.15V255c-.46-.87-.91-1.74-1.37-2.6-.15-.27-.28-.54-.43-.81l-.32.81-.57,1.4c-.08-.47-.17-.93-.25-1.4l-.3-1.63L601,251.89c0-.38.1-.77.17-1.15a7.31,7.31,0,0,1,.48-1.63H607l.45.43Z" transform="translate(-579.5 -235.02)"/><path class="cls-23" d="M612.86,254.57l-3.58-2.07c.17.71.33,1.42.5,2.14l-2.22-2.25-.51-.52v.52c0,.32,0,.63,0,1-.12-.32-.25-.64-.38-1l-.36-.95c-.18-.45-.35-.9-.52-1.34a3.45,3.45,0,0,1-.26-1h5.31l.71.25-1.41.19,3.34,2.64-2.79-.36.44.56C611.71,253.12,612.28,253.85,612.86,254.57Z" transform="translate(-579.5 -235.02)"/><path class="cls-26" d="M650.27,244.87c-2.11-4.57-7.79-5.34-8.45-6.84-.24-.71,1.56-2.34,4.66-2.26A11.58,11.58,0,0,1,656,252.91c-1.57,2.67-3.92,3.33-4.39,2.74C650.64,254.3,653,249.08,650.27,244.87Z" transform="translate(-579.5 -235.02)"/><path class="cls-27" d="M656.56,241.39l-.12-.23a11.92,11.92,0,0,0-6-5.27,1.79,1.79,0,0,0-1.7.19,6.31,6.31,0,0,0-2.45,4.49,1.54,1.54,0,0,0,.62,1.43,8.38,8.38,0,0,1,2.48,2.7,5.06,5.06,0,0,1,.24.46l0,.05,0,0c.09.15.18.3.26.45a8.32,8.32,0,0,1,1,3.53,1.56,1.56,0,0,0,.87,1.29,6.3,6.3,0,0,0,5.12.31A1.79,1.79,0,0,0,658,249.5a12,12,0,0,0-1.28-7.89A2.53,2.53,0,0,1,656.56,241.39Z" transform="translate(-579.5 -235.02)"/><path class="cls-28" d="M657,241.17l-.12-.21a11.74,11.74,0,0,0-2.2-2.85,1.15,1.15,0,0,0-1.35-.17h0c-2.63,1-4.79,4-4.2,6.87a1.52,1.52,0,0,0,.23.58,1.48,1.48,0,0,0,.37.5c2.08,2,5.81,1.8,8,.11h0a1.15,1.15,0,0,0,.56-1.23,11.73,11.73,0,0,0-1.23-3.38Z" transform="translate(-579.5 -235.02)"/><path class="cls-3" d="M652.21,250.69a1.79,1.79,0,0,1-.78-1.3,10.38,10.38,0,0,0-.75-3.06,4.68,4.68,0,0,1-.6-.5,1.92,1.92,0,0,1-.39-.54,1.78,1.78,0,0,1-.25-.62,5.23,5.23,0,0,1-.11-.78,10,10,0,0,0-2.19-2.26,1.76,1.76,0,0,1-.68-1.35c-2-1.27-3.93-2-4.52-2.82a.7.7,0,0,0-.12.56c.37.86,2.4,1.49,4.46,2.72a1.55,1.55,0,0,0,.63,1.26,8.6,8.6,0,0,1,2.09,2.08,4.43,4.43,0,0,0,.09.72,1.75,1.75,0,0,0,.22.59,2.2,2.2,0,0,0,.37.5,5.09,5.09,0,0,0,.58.46,9,9,0,0,1,.64,2.87,1.61,1.61,0,0,0,.73,1.21c0,2.4-.6,4.44-.07,5.22a.71.71,0,0,0,.57.19C651.85,254.84,652.23,252.91,652.21,250.69Z" transform="translate(-579.5 -235.02)"/><path class="cls-39" d="M655.21,239.35l-.11-.06,0-.12a.25.25,0,0,1-.24-.09l-.05.07a.06.06,0,0,0-.1,0,.1.1,0,0,0,0,.12l.09.08c0,.07.07.14.13.15l.11,0A.78.78,0,0,0,655.21,239.35Z" transform="translate(-579.5 -235.02)"/><path class="cls-39" d="M655.73,239.41l-.07.12h-.14a.28.28,0,0,1-.14.26l.07.06c-.05,0-.06.08,0,.12a.11.11,0,0,0,.13,0,.24.24,0,0,0,.11-.09c.08,0,.16,0,.18-.13a.13.13,0,0,0,0-.12A.55.55,0,0,0,655.73,239.41Z" transform="translate(-579.5 -235.02)"/><path class="cls-39" d="M656.23,240a1.16,1.16,0,0,1,0,.18.8.8,0,0,1-.16.08.37.37,0,0,1,0,.39l.12.05a.1.1,0,0,0,0,.16.18.18,0,0,0,.18-.05.53.53,0,0,0,.08-.17c.08-.06.17-.15.16-.25a.39.39,0,0,0-.08-.14A.85.85,0,0,0,656.23,240Z" transform="translate(-579.5 -235.02)"/><path class="cls-39" d="M657.28,241.4l-.11,0,0-.1a.21.21,0,0,1-.24,0l0,.08s-.07,0-.09,0a.08.08,0,0,0,0,.1.53.53,0,0,0,.1.06c0,.05.09.1.15.09a.18.18,0,0,0,.09,0A.54.54,0,0,0,657.28,241.4Z" transform="translate(-579.5 -235.02)"/><path class="cls-39" d="M655.17,238.68l-.09-.13,0-.14a.3.3,0,0,1-.22-.24l-.1.05a.08.08,0,0,0-.1-.08.14.14,0,0,0-.08.13.34.34,0,0,0,.06.15c0,.09,0,.18.06.23a.22.22,0,0,0,.13,0A.7.7,0,0,0,655.17,238.68Z" transform="translate(-579.5 -235.02)"/><path class="cls-39" d="M654.73,240.75l.06.12-.06.11a.25.25,0,0,1,.14.23l.09,0s0,.08.07.08a.11.11,0,0,0,.08-.1.2.2,0,0,0,0-.13.23.23,0,0,0,0-.2.22.22,0,0,0-.11-.05A.51.51,0,0,0,654.73,240.75Z" transform="translate(-579.5 -235.02)"/><path class="cls-39" d="M654,239.94l-.1.08-.12,0a.25.25,0,0,1-.18.19l0,.07s-.07.06-.06.1a.12.12,0,0,0,.12,0l.12,0c.06,0,.15,0,.18-.07a.35.35,0,0,0,0-.11A.66.66,0,0,0,654,239.94Z" transform="translate(-579.5 -235.02)"/><path class="cls-39" d="M654.2,239.14l-.08-.11,0-.12a.27.27,0,0,1-.18-.21l-.09,0c0-.05,0-.08-.09-.07a.13.13,0,0,0-.06.11.28.28,0,0,0,0,.13c0,.07,0,.16.06.2a.21.21,0,0,0,.11,0A1,1,0,0,0,654.2,239.14Z" transform="translate(-579.5 -235.02)"/><path class="cls-39" d="M654.62,239.92l0,.11-.06.1a.23.23,0,0,1,.11.22h.08a.06.06,0,0,0,.07.07s.07,0,.08-.08a.49.49,0,0,0,0-.12.19.19,0,0,0,0-.18.16.16,0,0,0-.09-.05A.55.55,0,0,0,654.62,239.92Z" transform="translate(-579.5 -235.02)"/><path class="cls-39" d="M654.47,242.29l-.1-.09v-.13a.24.24,0,0,1-.22-.16l-.08.06c0-.05-.06-.07-.1-.05a.11.11,0,0,0,0,.12.36.36,0,0,0,.08.12.23.23,0,0,0,.09.18.17.17,0,0,0,.12,0A.65.65,0,0,0,654.47,242.29Z" transform="translate(-579.5 -235.02)"/><path class="cls-39" d="M656,241.44c0,.05,0,.1-.08.14l-.15,0a.31.31,0,0,1-.13.31l.09.07c-.05,0-.06.09,0,.13a.15.15,0,0,0,.16,0A.41.41,0,0,0,656,242c.08,0,.17-.08.19-.16a.32.32,0,0,0,0-.14A1.15,1.15,0,0,0,656,241.44Z" transform="translate(-579.5 -235.02)"/><path class="cls-39" d="M655.55,242l-.11-.13,0-.16a.35.35,0,0,1-.25-.25l-.1.06c0-.06-.07-.1-.12-.07a.15.15,0,0,0-.07.14.46.46,0,0,0,.07.16.28.28,0,0,0,.09.25.32.32,0,0,0,.14,0A1.12,1.12,0,0,0,655.55,242Z" transform="translate(-579.5 -235.02)"/><path class="cls-39" d="M653.8,241l-.11,0-.09-.07a.24.24,0,0,1-.24.08v.08a.07.07,0,0,0-.09.06s0,.07.07.09h.13a.19.19,0,0,0,.18,0,.15.15,0,0,0,.06-.09A.49.49,0,0,0,653.8,241Z" transform="translate(-579.5 -235.02)"/><path class="cls-39" d="M655.07,243.26l.06.12,0,.11a.23.23,0,0,1,.14.21l.08,0a.06.06,0,0,0,.07.07.11.11,0,0,0,.08-.09.28.28,0,0,0,0-.13.21.21,0,0,0,0-.19.14.14,0,0,0-.1,0A1,1,0,0,0,655.07,243.26Z" transform="translate(-579.5 -235.02)"/><path class="cls-39" d="M656.41,242.59l0,.1-.09.05a.2.2,0,0,1,0,.22l.07,0a.06.06,0,0,0,0,.09.09.09,0,0,0,.1,0,.19.19,0,0,0,0-.1s.09-.08.09-.14a.22.22,0,0,0-.05-.08A.47.47,0,0,0,656.41,242.59Z" transform="translate(-579.5 -235.02)"/><path class="cls-39" d="M657.13,241.91l-.1.07-.1,0a.24.24,0,0,1-.18.16l0,.07s-.07,0,0,.08a.08.08,0,0,0,.09.05.21.21,0,0,0,.11,0,.19.19,0,0,0,.18,0,.18.18,0,0,0,0-.1A.54.54,0,0,0,657.13,241.91Z" transform="translate(-579.5 -235.02)"/><path class="cls-39" d="M658.16,242.85l-.15-.07,0-.16a.35.35,0,0,1-.33-.13l-.06.1a.09.09,0,0,0-.14,0,.13.13,0,0,0,0,.16.35.35,0,0,0,.13.11c0,.09.08.18.17.19a.22.22,0,0,0,.14,0A.94.94,0,0,0,658.16,242.85Z" transform="translate(-579.5 -235.02)"/><path class="cls-39" d="M657.24,243.9l-.13,0-.1-.09a.27.27,0,0,1-.28.09v.1s-.1,0-.1.06a.11.11,0,0,0,.08.1.32.32,0,0,0,.14,0,.2.2,0,0,0,.21,0,.22.22,0,0,0,.07-.09A.51.51,0,0,0,657.24,243.9Z" transform="translate(-579.5 -235.02)"/><path class="cls-39" d="M655.85,244.49l0,.12-.07.1a.24.24,0,0,1,.09.24H656a.07.07,0,0,0,.06.09.1.1,0,0,0,.09-.07.29.29,0,0,0,0-.13.22.22,0,0,0,0-.19.15.15,0,0,0-.09-.06A.6.6,0,0,0,655.85,244.49Z" transform="translate(-579.5 -235.02)"/><path class="cls-39" d="M655.55,242.68l-.12-.08a.57.57,0,0,0,0-.13.27.27,0,0,1-.26-.13l-.06.08s-.08-.06-.12,0a.12.12,0,0,0,0,.13.48.48,0,0,0,.09.11c0,.07.06.15.13.17a.17.17,0,0,0,.12,0A.64.64,0,0,0,655.55,242.68Z" transform="translate(-579.5 -235.02)"/><path class="cls-39" d="M653.78,243.39s0,.08,0,.12l-.08.07a.22.22,0,0,1,0,.24h.08s0,.08,0,.09.07,0,.09-.06a.2.2,0,0,0,0-.11c0-.06.08-.12,0-.18a.16.16,0,0,0-.07-.07A.52.52,0,0,0,653.78,243.39Z" transform="translate(-579.5 -235.02)"/><path class="cls-39" d="M653.48,242.44l-.17-.06c0-.06,0-.12,0-.17a.36.36,0,0,1-.37-.1l-.06.12a.1.1,0,0,0-.16,0,.17.17,0,0,0,0,.18.53.53,0,0,0,.15.11c0,.08.11.18.21.18a.25.25,0,0,0,.15-.05A1,1,0,0,0,653.48,242.44Z" transform="translate(-579.5 -235.02)"/><path class="cls-39" d="M653.1,240.38H653a.83.83,0,0,1-.08-.12.31.31,0,0,1-.32,0l0,.1s-.1,0-.12,0a.14.14,0,0,0,.06.13.34.34,0,0,0,.14.05c.06,0,.14.11.21.09a.23.23,0,0,0,.11-.08A.87.87,0,0,0,653.1,240.38Z" transform="translate(-579.5 -235.02)"/><path class="cls-39" d="M652.85,239.25l-.06.11-.12,0a.22.22,0,0,1-.1.23l.07,0a.06.06,0,0,0,0,.1.1.1,0,0,0,.12,0,.34.34,0,0,0,.08-.09.23.23,0,0,0,.15-.12.36.36,0,0,0,0-.1A.68.68,0,0,0,652.85,239.25Z" transform="translate(-579.5 -235.02)"/><path class="cls-39" d="M654.78,244.23l-.06.13-.14,0a.27.27,0,0,1-.09.28l.08.05a.08.08,0,0,0,0,.12.12.12,0,0,0,.14,0,.36.36,0,0,0,.1-.11c.06,0,.14-.07.15-.15a.25.25,0,0,0,0-.12A.88.88,0,0,0,654.78,244.23Z" transform="translate(-579.5 -235.02)"/><path class="cls-39" d="M657.49,244.86l-.14,0-.06-.11a.28.28,0,0,1-.29,0l0,.09a.07.07,0,0,0-.11,0,.12.12,0,0,0,0,.13.35.35,0,0,0,.13,0c.05.06.11.12.19.1a.18.18,0,0,0,.1-.06A.63.63,0,0,0,657.49,244.86Z" transform="translate(-579.5 -235.02)"/><path class="cls-39" d="M658.22,243.9l-.15.09-.16-.07a.35.35,0,0,1-.31.21l0,.12c-.06,0-.11.05-.1.11a.15.15,0,0,0,.14.1.58.58,0,0,0,.18,0,.29.29,0,0,0,.27,0,.25.25,0,0,0,.06-.14A.78.78,0,0,0,658.22,243.9Z" transform="translate(-579.5 -235.02)"/><path class="cls-39" d="M658,243.07l-.17,0-.13-.11a.33.33,0,0,1-.34.12v.12c-.05,0-.12,0-.13.08a.15.15,0,0,0,.11.13.32.32,0,0,0,.17,0,.33.33,0,0,0,.27,0,.34.34,0,0,0,.09-.12A.91.91,0,0,0,658,243.07Z" transform="translate(-579.5 -235.02)"/><path class="cls-39" d="M656.35,243.88l-.07-.1,0-.12a.23.23,0,0,1-.18-.2l-.08,0s0-.07-.09-.06a.13.13,0,0,0-.06.11.33.33,0,0,0,.05.12c0,.07,0,.15,0,.19a.14.14,0,0,0,.11,0A.65.65,0,0,0,656.35,243.88Z" transform="translate(-579.5 -235.02)"/><path class="cls-39" d="M652.24,238.37l.06.14-.07.12a.3.3,0,0,1,.16.27l.1,0s0,.1.08.09a.14.14,0,0,0,.1-.11.4.4,0,0,0,0-.15.23.23,0,0,0,0-.23.24.24,0,0,0-.11-.06A.69.69,0,0,0,652.24,238.37Z" transform="translate(-579.5 -235.02)"/><path class="cls-39" d="M652.82,237.54v.13l-.1.09a.28.28,0,0,1,0,.28h.09s0,.1,0,.11a.12.12,0,0,0,.12-.06.32.32,0,0,0,0-.14.23.23,0,0,0,.07-.2s-.05-.06-.08-.09A.57.57,0,0,0,652.82,237.54Z" transform="translate(-579.5 -235.02)"/><path class="cls-39" d="M652,237.26l-.14.09-.15-.06a.33.33,0,0,1-.27.21l0,.11s-.1,0-.09.11a.15.15,0,0,0,.14.08.47.47,0,0,0,.16,0c.09,0,.19,0,.25,0a.34.34,0,0,0,.05-.14A.81.81,0,0,0,652,237.26Z" transform="translate(-579.5 -235.02)"/><path class="cls-39" d="M651.16,238.21v.12l-.09.08a.23.23,0,0,1,0,.24h.08a.06.06,0,0,0,0,.09.08.08,0,0,0,.09-.05.27.27,0,0,0,0-.12s.07-.11,0-.17a.18.18,0,0,0-.07-.08A.72.72,0,0,0,651.16,238.21Z" transform="translate(-579.5 -235.02)"/><path class="cls-39" d="M650.62,236.39v.16l-.12.1a.32.32,0,0,1,0,.33h.11a.08.08,0,0,0,0,.13.13.13,0,0,0,.14-.06.29.29,0,0,0,0-.16c.06-.06.12-.14.09-.22a.23.23,0,0,0-.08-.11A.88.88,0,0,0,650.62,236.39Z" transform="translate(-579.5 -235.02)"/><path class="cls-39" d="M650.16,237.21l-.09-.14.06-.15a.32.32,0,0,1-.2-.27l-.11,0c0-.05-.05-.1-.1-.09a.14.14,0,0,0-.09.13.42.42,0,0,0,0,.16c0,.09,0,.19.05.25a.25.25,0,0,0,.13.05A.81.81,0,0,0,650.16,237.21Z" transform="translate(-579.5 -235.02)"/><path class="cls-39" d="M656.84,247.29l-.07.12h-.14a.28.28,0,0,1-.13.27l.08.07c-.05,0-.06.08,0,.12a.14.14,0,0,0,.14,0,.32.32,0,0,0,.1-.1.23.23,0,0,0,.18-.13.2.2,0,0,0,0-.13A.58.58,0,0,0,656.84,247.29Z" transform="translate(-579.5 -235.02)"/><path class="cls-39" d="M656,245.45l-.06.13-.14,0a.27.27,0,0,1-.1.29l.09.06a.08.08,0,0,0,0,.13.14.14,0,0,0,.15,0,.58.58,0,0,0,.1-.12c.07,0,.15-.08.16-.16a.19.19,0,0,0,0-.13A.65.65,0,0,0,656,245.45Z" transform="translate(-579.5 -235.02)"/><path class="cls-39" d="M657.13,245.61l-.12.09-.13,0a.3.3,0,0,1-.22.2l0,.08a.08.08,0,0,0-.07.1.12.12,0,0,0,.12.07.34.34,0,0,0,.14-.05c.08,0,.17,0,.21-.06a.17.17,0,0,0,0-.12A.82.82,0,0,0,657.13,245.61Z" transform="translate(-579.5 -235.02)"/><path class="cls-39" d="M658,246.63l-.14,0,0-.14a.33.33,0,0,1-.31-.09l-.05.09a.08.08,0,0,0-.13,0,.14.14,0,0,0,0,.15.34.34,0,0,0,.12.09c0,.07.09.15.17.16a.28.28,0,0,0,.13,0A.73.73,0,0,0,658,246.63Z" transform="translate(-579.5 -235.02)"/><path class="cls-39" d="M657.11,248.4l-.06.15-.14,0a.3.3,0,0,1-.09.31l.1.06a.08.08,0,0,0,0,.13.14.14,0,0,0,.15,0,.64.64,0,0,0,.1-.13c.07,0,.15-.1.16-.18a.21.21,0,0,0-.05-.13A.67.67,0,0,0,657.11,248.4Z" transform="translate(-579.5 -235.02)"/><path class="cls-39" d="M657.51,247.45v.17l-.13.1a.32.32,0,0,1,0,.35l.12,0s0,.12.05.14a.17.17,0,0,0,.15-.07.47.47,0,0,0,0-.17c.06-.07.12-.16.09-.24a.22.22,0,0,0-.09-.12A.85.85,0,0,0,657.51,247.45Z" transform="translate(-579.5 -235.02)"/><path class="cls-39" d="M658,249.1h-.1l0-.09a.18.18,0,0,1-.21,0l0,.07a.07.07,0,0,0-.09,0,.1.1,0,0,0,0,.1l.1,0a.15.15,0,0,0,.14.07.1.1,0,0,0,.07,0A.61.61,0,0,0,658,249.1Z" transform="translate(-579.5 -235.02)"/><path class="cls-39" d="M656.6,247.26l-.12-.08V247a.29.29,0,0,1-.27-.14l-.07.07c0-.05-.08-.06-.12,0a.14.14,0,0,0,0,.14.31.31,0,0,0,.09.11.23.23,0,0,0,.13.18.29.29,0,0,0,.13,0A.69.69,0,0,0,656.6,247.26Z" transform="translate(-579.5 -235.02)"/><path class="cls-39" d="M655.24,246.5l-.11-.06v-.12a.24.24,0,0,1-.23-.12l-.06.07a.06.06,0,0,0-.1,0,.09.09,0,0,0,0,.11s0,.07.08.1a.2.2,0,0,0,.12.15.17.17,0,0,0,.1,0A.88.88,0,0,0,655.24,246.5Z" transform="translate(-579.5 -235.02)"/><path class="cls-39" d="M651.77,240.16l-.1,0-.08-.06a.21.21,0,0,1-.21.08v.07a.06.06,0,0,0-.07,0,.09.09,0,0,0,.06.08h.11s.12,0,.16,0a.19.19,0,0,0,.06-.07A.52.52,0,0,0,651.77,240.16Z" transform="translate(-579.5 -235.02)"/><path class="cls-39" d="M658.29,244.94l-.11.15H658a.35.35,0,0,1-.2.34l.1.09a.09.09,0,0,0,0,.15.15.15,0,0,0,.18,0,.53.53,0,0,0,.15-.11c.1,0,.21-.07.24-.16a.33.33,0,0,0,0-.17A.82.82,0,0,0,658.29,244.94Z" transform="translate(-579.5 -235.02)"/><path class="cls-39" d="M654.18,238.07l-.08-.12,0-.14a.28.28,0,0,1-.19-.24l-.1,0a.07.07,0,0,0-.09-.07.12.12,0,0,0-.08.12.37.37,0,0,0,0,.14c0,.08,0,.17,0,.22a.19.19,0,0,0,.12,0A.67.67,0,0,0,654.18,238.07Z" transform="translate(-579.5 -235.02)"/><path class="cls-16" d="M598.29,315.61c.23-.12.52,0,.77.06.87.2,1.71-.38,2.59-.46.33,0,.67,0,1,0a6.07,6.07,0,0,0,2.05-.62l-14.07-7.52-7.78,3,17.46,9.34a2.55,2.55,0,0,1-.58-1.23c0-.15,0-.31,0-.46A1.22,1.22,0,0,0,599,317a2.62,2.62,0,0,1-.8-.54A.59.59,0,0,1,598.29,315.61Z" transform="translate(-579.5 -235.02)"/><path class="cls-40" d="M600.21,318.16c-.05-.24,4-2.26,4.46-2.31l-14.11-7.57-5.08,2Z" transform="translate(-579.5 -235.02)"/><path class="cls-41" d="M598.22,316.47a2.62,2.62,0,0,0,.8.54,1.22,1.22,0,0,1,.67.74c0,.15,0,.31,0,.46a2.55,2.55,0,0,0,.58,1.23l4,2.15,7.78-3-4-2.16-3.37-1.81a6.07,6.07,0,0,1-2.05.62c-.33,0-.67,0-1,0-.88.08-1.72.66-2.59.46-.25-.06-.54-.18-.77-.06A.59.59,0,0,0,598.22,316.47Z" transform="translate(-579.5 -235.02)"/><polygon class="cls-42" points="23.39 90.72 24.83 86.57 32.61 83.54 32.41 87.16 23.39 90.72"/><path class="cls-43" d="M581.41,314.25l14.64,7.82a1.57,1.57,0,0,0,.42-.9,3.36,3.36,0,0,1,0-.84c.68.13,1.26-.49,1.94-.65a5.61,5.61,0,0,1,1-.07c.33,0,.64.09.85-.17l-17.46-9.34Z" transform="translate(-579.5 -235.02)"/><path class="cls-34" d="M596.05,322.07l3.59,1.92.07,0,0,0,3.15,1.68,1.43-4.14-4-2.15c-.21.26-.52.15-.85.17a5.61,5.61,0,0,0-1,.07c-.68.16-1.26.78-1.94.65a3.36,3.36,0,0,0,0,.84A1.57,1.57,0,0,1,596.05,322.07Z" transform="translate(-579.5 -235.02)"/><polygon class="cls-34" points="25.06 82.2 25.44 82.4 28.77 84.11 30.5 83.49 31.08 83.28 27.61 81.41 25.06 82.2"/><polygon class="cls-42" points="25.44 82.4 28.77 84.11 30.5 83.49 27.36 81.81 25.44 82.4"/><polygon class="cls-34" points="21.56 83.5 25.27 85.41 27.58 84.58 24.11 82.71 21.56 83.5"/><path class="cls-44" d="M595.57,322.55a2.2,2.2,0,0,1,1.16.46,7.17,7.17,0,0,0,.61.51,4.12,4.12,0,0,0,.84.27,7.78,7.78,0,0,1,1.46.2l.07,0,0,0h0a1.59,1.59,0,0,0-.1-1.11,1.35,1.35,0,0,1,0-1,21.82,21.82,0,0,0,.65-2.53c-.21.26-.52.15-.85.17a5.61,5.61,0,0,0-1,.07c-.68.16-1.26.78-1.94.65a3.36,3.36,0,0,0,0,.84,1.57,1.57,0,0,1-.42.9A4.35,4.35,0,0,1,595.57,322.55Z" transform="translate(-579.5 -235.02)"/><polygon class="cls-42" points="21.94 83.7 25.27 85.41 27 84.79 23.86 83.1 21.94 83.7"/><path class="cls-45" d="M598.22,316.47a2.62,2.62,0,0,0,.8.54,1.22,1.22,0,0,1,.67.74c0,.15,0,.31,0,.46a2.55,2.55,0,0,0,.58,1.23,4.37,4.37,0,0,1,1.53-.93,14.9,14.9,0,0,0,1.59-.42c.69-.29,1.24-.87,2-1.09.89-.29,2,0,2.69-.6.16-.44-.22-.89-.63-1.09a5.27,5.27,0,0,1-1.24-.6c-.18-.15-.33-.36-.56-.4a.77.77,0,0,0-.39.07l-.55.21a6.07,6.07,0,0,1-2.05.62c-.33,0-.67,0-1,0-.88.08-1.72.66-2.59.46-.25-.06-.54-.18-.77-.06A.59.59,0,0,0,598.22,316.47Z" transform="translate(-579.5 -235.02)"/><path class="cls-23" d="M593.2,312.73c-.16.72,1,1.59,2.51,1.95s2.94.07,3.1-.65-.95-1.59-2.5-1.95S593.37,312,593.2,312.73Z" transform="translate(-579.5 -235.02)"/><polygon class="cls-23" points="14.3 75.86 14.7 75.71 10.84 73.68 10.44 73.83 14.3 75.86"/><polygon class="cls-23" points="13.5 76.19 13.9 76.05 10.04 74.02 9.64 74.16 13.5 76.19"/><polygon class="cls-23" points="10.94 75.59 11.34 75.45 9.25 74.35 8.85 74.5 10.94 75.59"/><polygon class="cls-23" points="11.11 77.19 11.51 77.05 7.65 75.02 7.25 75.16 11.11 77.19"/><polygon class="cls-16" points="39.7 29.21 40 29.48 44.21 25 47.71 24.13 47.85 23.65 43.97 24.68 39.7 29.21"/><path class="cls-46" d="M631.24,251.42c.82-.2,1.85-.41,2.26-1.44a6,6,0,0,0,.42,2.06c.82.83,2.88,1.44,3.91.62.41,2.06-.62,4.12.41,5.77a.73.73,0,0,0,1,.29,11.54,11.54,0,0,0,.69-2.67,6.06,6.06,0,0,0-2.47-5.29,6.94,6.94,0,0,0-5.82-1,4,4,0,0,0-2,1.2,4.38,4.38,0,0,0-.28.42A2.37,2.37,0,0,0,631.24,251.42Z" transform="translate(-579.5 -235.02)"/><path class="cls-46" d="M640.06,266.8c-.64-1.69-1.55-3.35-1.5-5.14a10,10,0,0,1,.7-2.94.73.73,0,0,1-1-.29c-1-1.65,0-3.71-.41-5.77-1,.82-3.09.21-3.91-.62a6,6,0,0,1-.42-2.06c-.41,1-1.44,1.24-2.26,1.44a2.37,2.37,0,0,1-1.91,0c-.63,1.15-.66,2.7-1.7,3.5-.33.25-.76.59-.58,1,.27.6.79.68.55,1.27a5.72,5.72,0,0,0-.42.95,3.44,3.44,0,0,0,.82,3.38c.17.19.33.37.46.54,1.28,1.75,3.07,2.48,3.14,3.4a3.26,3.26,0,0,1-.26,1.49l0,0c-.94,2.18-3.87,3.84-4.32,5.84,2,.78,5.65.35,7.78.1a24.32,24.32,0,0,1,2.56-.07,30.8,30.8,0,0,0,5.51-.53C641.29,270.9,640.81,268.73,640.06,266.8Z" transform="translate(-579.5 -235.02)"/><path class="cls-47" d="M642.16,257a9.54,9.54,0,0,0,.41-5.6,7.86,7.86,0,0,0-4-4.15c-1.19-.62-6.47-2.19-10.09,1a2.4,2.4,0,0,0-.74,1.32,2.64,2.64,0,0,0,.66,2.3c1,1,3.56,1,4.18-.22.37.93.31,1.5,1.08,2.14a6.09,6.09,0,0,1,1.57,1.46,4.85,4.85,0,0,1,.34,2.46,3.76,3.76,0,0,0,1.56,3.35,5.93,5.93,0,0,1,.92.81,5.69,5.69,0,0,1,.68,2.06c.32,1.13,1.12,3.23,2.16,3.75.17-.62.33-1.21.46-1.8a9.78,9.78,0,0,0,.24-3c-.15-1.64-1.11-2.21-.83-3.06S641.63,258.79,642.16,257Z" transform="translate(-579.5 -235.02)"/><path class="cls-3" d="M632.12,261.44a13.19,13.19,0,0,1-2.58.25,5.39,5.39,0,0,1-1.54-.25c.17.19.33.37.46.54,1.28,1.75,3.07,2.48,3.14,3.4a3.26,3.26,0,0,1-.26,1.49l0,0a3.3,3.3,0,0,0,.32-.4,2,2,0,0,0,.37-1.46,3.82,3.82,0,0,0-.55-1.13,1.86,1.86,0,0,1-.36-1.19A2.19,2.19,0,0,1,632.12,261.44Z" transform="translate(-579.5 -235.02)"/><path class="cls-3" d="M640.92,265c0-2.06-1.65-3.71-1.24-6a3.09,3.09,0,0,0,.62-1.45c-.41,1-1.65,1.65-2.06.83-1-1.65,0-3.71-.41-5.77-1,.82-3.09.21-3.91-.62a6,6,0,0,1-.42-2.06c-.41,1-1.44,1.24-2.26,1.44-1.65.6-2.86-.43-3.48-1.82a2.64,2.64,0,0,0,.66,2.3c1,1,3.56,1,4.18-.22.37.93.31,1.5,1.08,2.14a6.09,6.09,0,0,1,1.57,1.46,4.85,4.85,0,0,1,.34,2.46,3.76,3.76,0,0,0,1.56,3.35,5.93,5.93,0,0,1,.92.81,5.69,5.69,0,0,1,.68,2.06c.32,1.13,1.12,3.23,2.16,3.75.17-.62.33-1.21.46-1.8A1.06,1.06,0,0,1,640.92,265Z" transform="translate(-579.5 -235.02)"/><path class="cls-46" d="M635.62,253.74c-.68,0-1.27.86-1.31,2s.47,2.06,1.15,2.09,1.27-.86,1.31-2S636.3,253.76,635.62,253.74Z" transform="translate(-579.5 -235.02)"/><path class="cls-46" d="M657,325.35a2.34,2.34,0,0,1-.6,1.06,5.29,5.29,0,0,1-3.7,1.48l-1.06.08a1.23,1.23,0,0,0-.22-.46,23.81,23.81,0,0,0-4-3.81c-5.69-4.41-7-5-9-8.41-.27-.47-.55-1-.85-1.59-.22-.42.41-1,.46-1.46a4.65,4.65,0,0,1,3.07-3.62,10,10,0,0,1,4.93-.34,7.62,7.62,0,0,1,3.56,1.28c3.7,2.74,2.53,11.1,6.38,14.79Z" transform="translate(-579.5 -235.02)"/><path class="cls-15" d="M658.33,327.75c0,.93-1.06,1.33-1.49,2.16s-.64,1.7-1,2.58a3.23,3.23,0,0,1-2,2.07c-.21.05-2.68.11-4.27.13a1.65,1.65,0,0,1-1.14-.27c-.64-.55,1.12-1.12,1.89-1.47s1.8-3.45,1.37-5l1.06-.08a5.29,5.29,0,0,0,3.7-1.48,2.34,2.34,0,0,0,.6-1.06l.79.78A2.2,2.2,0,0,1,658.33,327.75Z" transform="translate(-579.5 -235.02)"/><path class="cls-3" d="M655.81,332.49a3.23,3.23,0,0,1-2,2.07c-.21.05-2.68.11-4.27.13a1.65,1.65,0,0,1-1.14-.27c-.64-.55,1.12-1.12,1.89-1.47s1.8-3.45,1.37-5a1.23,1.23,0,0,0-.22-.46,23.81,23.81,0,0,0-4-3.81c-5.69-4.41-7-5-9-8.41a1.85,1.85,0,0,1,.17-.5,3.08,3.08,0,0,1,2.07-1.26,23.68,23.68,0,0,1,8-.73,5.89,5.89,0,0,0-1,4.9,14.83,14.83,0,0,0,2.13,4.69,27.67,27.67,0,0,1,2.49,4.52c.12.32.23.65.34,1,.51,1.57,1,3.2,2.28,4.13A6.48,6.48,0,0,0,655.81,332.49Z" transform="translate(-579.5 -235.02)"/><path class="cls-15" d="M627.54,334.93a2.69,2.69,0,0,1-1,.2,47.34,47.34,0,0,1-5.19,0,41.17,41.17,0,0,0-4.84,0,2.83,2.83,0,0,1-1.36-.13c-.42-.2-.78-.35-.61-.78a1.45,1.45,0,0,1,.8-.63,33.71,33.71,0,0,0,3.51-1.39,20.79,20.79,0,0,0,2.52-1.82,5.81,5.81,0,0,0,4,1.89h.48l.16,0,.19,0a5.62,5.62,0,0,0,.55-.15l.12-.05.12,0,.16-.07.23-.12.18-.1a11.23,11.23,0,0,1,.49,1.23C628.22,333.6,628.25,334.6,627.54,334.93Z" transform="translate(-579.5 -235.02)"/><path class="cls-46" d="M635.38,315.54c-.14.46-.93.12-1.68-.22s-1.51-.72-1.43-.24c1.13,7.21-3.94,8.7-5.1,15a3,3,0,0,0,.33,1.5l-.18.1-.23.12-.16.07-.12,0-.12.05a5.62,5.62,0,0,1-.55.15l-.19,0-.16,0h-.48a5.81,5.81,0,0,1-4-1.89l.18-.19c1-1.23.14-7.55.09-9.05a34.17,34.17,0,0,1,.08-3.76,28.27,28.27,0,0,1,.34-2.84l.09-.5c.35-1.77.67-2.29,2.33-3a5.73,5.73,0,0,1,2.18-.34c2.53-.05,5.22.14,7.26,1.63A3.19,3.19,0,0,1,635.38,315.54Z" transform="translate(-579.5 -235.02)"/><path class="cls-3" d="M632.27,315.08c1.13,7.21-3.94,8.7-5.1,15a3,3,0,0,0,.33,1.5,11.23,11.23,0,0,1,.49,1.23c.23.75.26,1.75-.45,2.08a2.69,2.69,0,0,1-1,.2,47.34,47.34,0,0,1-5.19,0l2.38-1a4.77,4.77,0,0,0,1.8-1.14,2.59,2.59,0,0,0,.44-.75,25.63,25.63,0,0,0,.55-3.38c.31-1.36,1.19-2.52,1.6-3.86a5.78,5.78,0,0,0-4.46-7.38c-.64-.13-1.3-.14-1.94-.22a28.27,28.27,0,0,1,.34-2.84,8.78,8.78,0,0,0,2.61.27l8.84,0a5.54,5.54,0,0,1,.21.57C632.92,315,632.19,314.6,632.27,315.08Z" transform="translate(-579.5 -235.02)"/><path class="cls-46" d="M625.65,282.26a10.9,10.9,0,0,1-.36,1.39,4.63,4.63,0,0,1-1.51,2.25,1.11,1.11,0,0,1-.51.25,1.47,1.47,0,0,1-.55-.08c-.45-.12-.9-.25-1.34-.39l-.18-.06a4.4,4.4,0,0,1-1.16-.49,3.46,3.46,0,0,1-1.07-1.35,11.87,11.87,0,0,1-1.06-5.34c0-1.12.05-2.23.08-3.34,0-.33,0-.65,0-1s0-.8,0-1.19a8.21,8.21,0,0,0-.21-1.5,4.23,4.23,0,0,0-.19-.57l0-.09a1.21,1.21,0,0,1-.11-.37,1.48,1.48,0,0,1,.05-.47c.21-.93.55-2,1.45-2.29h0a2.68,2.68,0,0,1,.89-.06,4.59,4.59,0,0,1,.82.1,1.42,1.42,0,0,1,1.06.69,2.75,2.75,0,0,1,.17,1,4.46,4.46,0,0,0,.24,1.14c.07.22.16.43.25.64h0a8,8,0,0,0,.49.91h0c.12.2.25.41.39.61s.4.57.61.85a14.18,14.18,0,0,1,1.35,2.19A10.53,10.53,0,0,1,625.65,282.26Z" transform="translate(-579.5 -235.02)"/><path class="cls-16" d="M652.25,297.77c-.15-5.37-1-8.65-4.54-12.7a10,10,0,0,1-2.26-3,10.34,10.34,0,0,1-.12-3.77,11.31,11.31,0,0,0-2.1-7,6.35,6.35,0,0,0-1.19-1.24c0-.07-1.47-3.13-1.6-3.21-.89-.53-1.29-.93-2.32-.83a9.91,9.91,0,0,0-3.56,1.32l-2.31,1.22-2.2,1.16c-.59.31-1.18.62-1.75,1a42.48,42.48,0,0,0-4.43,2.87,10.55,10.55,0,0,0-3.76,4.71A4.64,4.64,0,0,0,620,281a5.16,5.16,0,0,0,2.73,3.11,12.39,12.39,0,0,0-1.3,1.57,17.85,17.85,0,0,0-1.45,2.37c-.17.34-.34.69-.5,1.06l-.3.75a18.57,18.57,0,0,0-.75,2.54c-.11.51-.2,1-.27,1.48a16.15,16.15,0,0,0-.17,2.25c0,.12,0,.25,0,.37s0,.25,0,.38l0,.38v0c0,.12,0,.23,0,.35s0,.25.05.37,0,.25.07.37a5.93,5.93,0,0,0,.16.73v0a15.69,15.69,0,0,0,1.16,3.08c.23.48.49,1,.78,1.48a3.78,3.78,0,0,1,.35,1.13c0,.16,0,.34.08.53a33.86,33.86,0,0,1-1,10.76,20,20,0,0,1,8.64.94,37.09,37.09,0,0,0,18.44-.67l1.87-.52a13.16,13.16,0,0,1,6.93-.14C652,310.68,652.4,303.15,652.25,297.77Z" transform="translate(-579.5 -235.02)"/><path class="cls-3" d="M648.61,315.85l-1.87.52a37.09,37.09,0,0,1-18.44.67,20,20,0,0,0-8.64-.94,33.86,33.86,0,0,0,1-10.76c0-.19,0-.37-.08-.53a3.78,3.78,0,0,0-.35-1.13c-.29-.51-.55-1-.78-1.48h0a15.39,15.39,0,0,1-1.16-3.07v0c-.06-.24-.12-.48-.16-.73s0-.24-.07-.37,0-.25-.05-.37,0-.23,0-.35v0l0-.38c0-.13,0-.25,0-.38s0-.25,0-.37a16.15,16.15,0,0,1,.17-2.25.45.45,0,0,1-.14-.1.6.6,0,0,1-.13-.84.59.59,0,0,1-.71-.46,1,1,0,0,1,.33-.8c-.22,0-.34-.28-.29-.48a1,1,0,0,1,.4-.49,5.77,5.77,0,0,1,1.56-.85l.3-.75-.22-.15a1.54,1.54,0,0,1-.53-.68.69.69,0,0,1,0-.47.35.35,0,0,1,.37-.24.69.69,0,0,1,.24.15,2.33,2.33,0,0,0,.67.33,17.85,17.85,0,0,1,1.45-2.37l-.18-.06a4.4,4.4,0,0,1-1.16-.49,3.46,3.46,0,0,1-1.07-1.35,11.87,11.87,0,0,1-1.06-5.34c0-1.12.05-2.23.08-3.34a18.7,18.7,0,0,0,.9,3.9,6.31,6.31,0,0,0,1.06,2l.09.12a7.33,7.33,0,0,0,5.25,2.53,6.46,6.46,0,0,0,4.92-1.74c.53-.62,1.14-6.69,1.68-7.31,2.58-2.94,3.6-.19,7.43-1-.07,1.9,1.61.19,1.91,2.06.44,2.75,1.1,8.25.42,11.88-.31,1.73-2.51,2.36-4.14,3a43.91,43.91,0,0,1-5.25,1.8c-1.82.44-3.08.5-5.24,1-.33.07-.8.85-1.07,1a6.11,6.11,0,0,0-.92,1,4,4,0,0,1-3.57,1.21,2,2,0,0,0-1.91,2.38c.32,2.25,1.37,4.09,1.21,5.84,2.47,5.2,7.35,7.84,9.22,8.89a31.78,31.78,0,0,0,8.26,3.27c2.44.48,4.93-.28,7.37-.77A16.61,16.61,0,0,1,648.61,315.85Z" transform="translate(-579.5 -235.02)"/><polygon class="cls-16" points="37.67 28.4 37.68 30.3 37.68 30.75 37.68 32.53 37.68 32.99 37.69 35.69 41.47 36.22 42.23 33.63 42.35 33.2 42.85 31.48 42.98 31.04 43.51 29.23 37.67 28.4"/><path class="cls-28" d="M618.11,262.3l4.32.61a.55.55,0,0,1,.48.48l.1.86-5.84-.83.34-.79A.56.56,0,0,1,618.11,262.3Z" transform="translate(-579.5 -235.02)"/><path class="cls-28" d="M617.12,262.87l6.1.86a.22.22,0,0,1,.19.25l0,.32-6.55-.93,0-.31A.23.23,0,0,1,617.12,262.87Z" transform="translate(-579.5 -235.02)"/><polygon class="cls-28" points="37.68 30.3 37.68 30.75 37.68 32.53 37.68 32.99 42.23 33.63 42.35 33.2 42.85 31.48 42.98 31.04 37.68 30.3"/><polygon class="cls-20" points="37.68 30.75 37.68 32.53 42.35 33.2 42.85 31.48 37.68 30.75"/><path class="cls-28" d="M617.84,266.76a1.82,1.82,0,1,0,2.06-1.55A1.82,1.82,0,0,0,617.84,266.76Z" transform="translate(-579.5 -235.02)"/><path class="cls-48" d="M618.27,266.82a1.39,1.39,0,1,0,1.57-1.19A1.39,1.39,0,0,0,618.27,266.82Z" transform="translate(-579.5 -235.02)"/><path class="cls-30" d="M618.78,266.89a.87.87,0,0,0,1.73.24.88.88,0,0,0-.74-1A.87.87,0,0,0,618.78,266.89Z" transform="translate(-579.5 -235.02)"/><path class="cls-46" d="M640.53,282.25c0-2.07.56-4.11.68-6.18A5.6,5.6,0,0,0,640,271.7a5,5,0,0,0-2.75-1.27,4.92,4.92,0,0,0-2.5.11,5,5,0,0,0-2.69,3.4,19.2,19.2,0,0,0-.71,6,14.53,14.53,0,0,0,.67,4.87,6.07,6.07,0,0,0,3.14,3.62,3.89,3.89,0,0,0,4.49-1C640.79,286.08,640.5,284.07,640.53,282.25Z" transform="translate(-579.5 -235.02)"/><path class="cls-46" d="M622.84,291.51a2.31,2.31,0,0,0,1.92,1.32,6.87,6.87,0,0,0,2.42-.28,64.23,64.23,0,0,0,8.51-2.47,9,9,0,0,0,3-1.72,3.79,3.79,0,0,0,1.3-3.09c-.19-1.76-1.92-2.95-3.62-3.45a6.52,6.52,0,0,0-3.61-.13,9.44,9.44,0,0,0-3.2,2c-1.8,1.46-3.6,2.93-5.28,4.53a6.21,6.21,0,0,0-1.23,1.47A2.28,2.28,0,0,0,622.84,291.51Z" transform="translate(-579.5 -235.02)"/><path class="cls-46" d="M627,291.45a2.09,2.09,0,0,1-.8,1.19l-.17.15-1.61,1.47a2.85,2.85,0,0,1-.6.45,2.53,2.53,0,0,1-.72.23,10.12,10.12,0,0,1-3.68,0,1.06,1.06,0,0,1-.59-.26.39.39,0,0,1,0-.57,2.11,2.11,0,0,1-.74-.22.45.45,0,0,1-.14-.1.6.6,0,0,1-.13-.84.59.59,0,0,1-.71-.46,1,1,0,0,1,.33-.8c-.22,0-.34-.28-.29-.48a1,1,0,0,1,.4-.49,5.77,5.77,0,0,1,1.56-.85h0a2.18,2.18,0,0,0,.62-.28.64.64,0,0,0-.35-.46l-.22-.15a1.54,1.54,0,0,1-.53-.68.69.69,0,0,1,0-.47.35.35,0,0,1,.37-.24.69.69,0,0,1,.24.15,2.33,2.33,0,0,0,.67.33l.08,0,1.11.39a4.07,4.07,0,0,0,1.37.31,3.64,3.64,0,0,0,1-.15l.49-.13.25-.09a2.6,2.6,0,0,1,.49-.18,1.39,1.39,0,0,1,1.16.64,6.52,6.52,0,0,1,1,1.76A1.79,1.79,0,0,1,627,291.45Z" transform="translate(-579.5 -235.02)"/><path class="cls-3" d="M641.21,276.07c0-.15,0-.3,0-.46-1.51,3.29-2.88,6.56-1.75,10.22-3.5,3.5-8.86,6.59-14,4.73-.9,3.31-3.77,3.87-6.62,3.54a.39.39,0,0,0,0,.57,1.06,1.06,0,0,0,.59.26,10.12,10.12,0,0,0,3.68,0,2.53,2.53,0,0,0,.72-.23,2.85,2.85,0,0,0,.6-.45l1.61-1.47h0c.38-.06.77-.15,1.14-.24a64.23,64.23,0,0,0,8.51-2.47,9,9,0,0,0,3-1.72l.09-.08a3.11,3.11,0,0,0,.89-.77c1.12-1.43.83-3.44.86-5.26C640.56,280.18,641.09,278.14,641.21,276.07Z" transform="translate(-579.5 -235.02)"/><path class="cls-3" d="M623.69,304.9c.74.75,1.45,1.54,2.2,2.27.91.87,1.83,1.71,2.78,2.52a25.66,25.66,0,0,0,6.55,4.07,22.4,22.4,0,0,0,4.65,1.39,24.3,24.3,0,0,0,4.08.31,14.42,14.42,0,0,1-6.91.07,17.66,17.66,0,0,1-3.72-1.3,22.64,22.64,0,0,1-3.27-2A23,23,0,0,1,623.69,304.9Z" transform="translate(-579.5 -235.02)"/><path class="cls-3" d="M629,307.79c.68.49,1.35,1,2,1.46a21.65,21.65,0,0,0,2.69,1.53,27.88,27.88,0,0,0,2.82,1.17c.54.18,1.09.33,1.64.49h0c1.51.33,3,.58,4.55.85a28.2,28.2,0,0,1,4.54,1c-1.11,0-2.23,0-3.34-.08-1.27-.05-2.54-.08-3.81-.24a16.93,16.93,0,0,1-3.85-.88,17.54,17.54,0,0,1-2.22-1,18.89,18.89,0,0,1-2.08-1.34A13.6,13.6,0,0,1,629,307.79Z" transform="translate(-579.5 -235.02)"/><path class="cls-46" d="M620.63,268.07c0,.55-.11,1.09-.1,1.64,0,.14,0,.28,0,.43a1.58,1.58,0,0,1-.07.53v0a2,2,0,0,1-.44.62,1.16,1.16,0,0,1-.49.37,1.12,1.12,0,0,1-.48,0l-.56-.11-.75-.12c-.28,0-.56-.06-.91-.08a.68.68,0,0,1-.69-.44.72.72,0,0,1,0-.5,1.13,1.13,0,0,0,0-.18,9.5,9.5,0,0,0-.33-1.21,5.27,5.27,0,0,1,.19-1c.05-.57-.39-.84-.19-1.36.08-.22.27-.39.3-.62s-.1-.48-.09-.72a.69.69,0,0,1,.77-.57,4.61,4.61,0,0,1,1,.33c.66.2,1.41.07,2,.48a1.83,1.83,0,0,1,.64.91,3.23,3.23,0,0,1,.18,1,1.21,1.21,0,0,1,0,.19C620.64,267.82,620.64,267.94,620.63,268.07Z" transform="translate(-579.5 -235.02)"/><path class="cls-46" d="M622.52,269.53a7.57,7.57,0,0,1,.06,1,1.77,1.77,0,0,1-.21.71h0a1.59,1.59,0,0,1-.18.27,1.78,1.78,0,0,1-.51.44.61.61,0,0,1-.33-.51,2.29,2.29,0,0,1,.07-.64v-.07a8,8,0,0,0,.14-1.69,1,1,0,0,0-.34-.87.73.73,0,0,0-.6-.05c-.22.06-.44.17-.65.23a1,1,0,0,1-.82-.1.58.58,0,0,1-.22-.55.4.4,0,0,1,.09-.2,1.15,1.15,0,0,1,.45-.24,4.68,4.68,0,0,0,1-.74,2.29,2.29,0,0,1,.6-.39.8.8,0,0,1,.57,0,1,1,0,0,1,.3.19,2.29,2.29,0,0,1,.56.6c.43.74,0,1.66,0,2.52A1.09,1.09,0,0,0,622.52,269.53Z" transform="translate(-579.5 -235.02)"/><path class="cls-3" d="M620.65,270.44a.83.83,0,0,1-.19.27c-.5.45-1.69.49-2,.85a.25.25,0,0,0-.06.16,20.73,20.73,0,0,1-.44,2.41c0-.4,0-.8,0-1.19a8.21,8.21,0,0,0-.21-1.5c-.28,0-.56-.06-.91-.08a.68.68,0,0,1-.69-.44.72.72,0,0,1,0-.5,3.82,3.82,0,0,0,1.35.36h.27c.84,0,2.34-.85,2.76-.65C620.63,270.18,620.67,270.28,620.65,270.44Z" transform="translate(-579.5 -235.02)"/><path class="cls-3" d="M622.85,270.41l-.06.34,0-.28Z" transform="translate(-579.5 -235.02)"/><path class="cls-3" d="M622.86,272.1l-.67-.64-.76-.73-.09-.08.09,0a.83.83,0,0,0,.54,0,.33.33,0,0,0,.15-.11.94.94,0,0,0,.23-.4c.06-.2.09-.42.17-.62a7.57,7.57,0,0,1,.06,1,1.77,1.77,0,0,1-.21.71h0A8,8,0,0,0,622.86,272.1Z" transform="translate(-579.5 -235.02)"/></g></g></svg>