<svg width="164" height="96" viewBox="0 0 164 96" fill="none" xmlns="http://www.w3.org/2000/svg">
<g clip-path="url(#clip0_1_2)">
<path d="M148.445 33.4345C140.041 30.0459 137.149 -16.9545 99.8064 6.56259C84.9755 15.9152 63.6608 4.59723 43.1482 10.7758C24.3639 16.4236 23.9464 32.8472 26.3071 38.7434C27.832 42.5386 24.8722 46.7744 20.0152 50.6939C20.9045 50.844 21.7657 51.1297 22.5683 51.5411C22.5683 51.5411 13.7918 56.432 15.3393 56.9516C16.8868 57.4712 26.2393 52.761 26.2393 52.761C26.2393 52.761 34.3152 55.0201 32.9597 59.6286C31.6043 64.2372 28.442 65.3554 27.2221 65.0956C26.0022 64.8358 19.1117 61.402 18.7616 62.3395C18.4114 63.277 22.2517 66.8577 25.3353 67.366C25.3353 67.366 18.3097 72.6523 14.7403 70.4949C11.1709 68.3374 11.3517 65.5813 9.09259 64.2824C6.8335 62.9834 4.77788 62.7575 5.57986 63.9096C6.38183 65.0617 10.5835 66.5753 11.5436 68.9925C12.5037 71.4098 13.4415 73.0815 9.51065 72.0649C6.15738 71.1106 3.10227 69.3186 0.632584 66.8577C-0.466036 71.2527 -0.182339 75.8796 1.44555 80.1073L1.60384 79.9943C3.03482 79.1693 4.64156 78.697 6.29134 78.6163C6.29134 78.6163 3.3093 83.4055 4.26941 83.8799C5.22952 84.3543 7.1953 78.3226 7.1953 78.3226C7.1953 78.3226 13.0685 77.7804 14.9549 78.6389C14.9549 78.6389 9.92865 82.5809 10.9904 82.8068C12.0522 83.0328 17.4737 79.1811 17.4737 79.1811C17.4737 79.1811 22.9408 80.0734 22.6471 83.27C22.3534 86.4666 20.4669 87.4493 19.6424 87.3589C18.8178 87.2686 13.9948 85.5065 13.8705 86.1503C13.7463 86.7942 16.6719 88.929 18.7163 89.0193C18.7163 89.0193 14.8644 93.097 12.3003 91.9223C9.73625 90.7476 9.52206 88.8838 7.9294 88.1835C7.20744 87.7607 6.35849 87.6086 5.53463 87.7543C5.76054 88.0366 5.97526 88.3303 6.21247 88.6127C7.34201 89.2001 9.35225 89.9004 10.0865 91.1542C10.5609 91.9562 11.0127 92.6339 10.9562 93.0293C13.3712 94.7556 16.2459 95.723 19.2133 95.8079C34.9252 95.9435 150.331 95.5368 150.331 95.5368C150.331 95.5368 181.789 46.7744 148.445 33.4345Z" fill="#F4F4F4"/>
<path d="M7.97479 88.1835C9.56745 88.8838 9.79294 90.7476 12.3457 91.9223C14.8985 93.097 18.7617 89.0194 18.7617 89.0194C16.7172 88.929 13.803 86.7603 13.9159 86.1503C14.0289 85.5404 18.8632 87.2799 19.6877 87.359C20.5123 87.438 22.3988 86.4553 22.6925 83.27C22.9862 80.0847 17.5191 79.1811 17.5191 79.1811C17.5191 79.1811 12.0976 83.0441 11.0358 82.8069C9.97404 82.5697 15.0002 78.6389 15.0002 78.6389C13.1139 77.7804 7.24014 78.3226 7.24014 78.3226C7.24014 78.3226 5.28621 84.3543 4.3148 83.8799C3.34339 83.4055 6.33673 78.6163 6.33673 78.6163C4.68695 78.697 3.08021 79.1693 1.64923 79.9943L1.49094 80.1073C2.46477 82.846 3.84316 85.4235 5.58002 87.7543C6.40388 87.6086 7.25283 87.7607 7.97479 88.1835V88.1835Z" fill="#E2E2E2"/>
<path d="M10.1886 91.1655C9.46574 89.9343 7.46605 89.2566 6.39298 88.6805C7.73344 90.3339 9.3002 91.7903 11.0468 93.0067C11.1033 92.6114 10.6631 91.9562 10.1886 91.1655Z" fill="#E2E2E2"/>
<path d="M9.55603 72.1101C13.4868 73.1267 12.5378 71.455 11.589 69.0378C10.6402 66.6206 6.42722 65.1183 5.62524 63.9549C4.82326 62.7914 6.90147 63.0399 9.13797 64.3276C11.3745 65.6152 11.1711 68.3826 14.7857 70.54C18.4002 72.6975 25.3807 67.4113 25.3807 67.4113C22.297 66.9143 18.4681 63.311 18.8069 62.3848C19.1458 61.4585 26.0244 64.8698 27.2669 65.1409C28.5094 65.412 31.6497 64.2937 33.0051 59.6738C34.3606 55.054 26.2847 52.8062 26.2847 52.8062C26.2847 52.8062 16.9321 57.5277 15.3847 56.9968C13.8372 56.4659 22.6136 51.5863 22.6136 51.5863C21.8111 51.175 20.9498 50.8892 20.0606 50.7392C16.3099 53.6502 12.2674 56.1637 7.99739 58.2393C6.23883 59.0835 4.68006 60.2928 3.42572 61.7868C2.17137 63.2807 1.24979 65.0248 0.722641 66.9029C3.1796 69.3573 6.21893 71.1488 9.55603 72.1101V72.1101Z" fill="#DDDDDD"/>
<path d="M113.813 86.7942C113.813 86.7942 114.366 92.0466 113.689 92.3402H104.968C104.968 92.3402 104.969 91.4592 106.369 91.2107C107.77 90.9622 110.232 90.2958 110.65 88.7031C111.068 87.1105 113.813 86.7942 113.813 86.7942Z" fill="#FEEDE5" stroke="#231F20" stroke-width="0.25" stroke-miterlimit="10"/>
<path d="M114.931 73.2397C114.615 80.898 113.971 88.1384 113.971 88.1384C113.461 88.5042 112.873 88.7477 112.254 88.85C111.723 88.9991 111.158 88.9632 110.65 88.7483C110.65 88.7483 110.04 84.4561 109.848 83.4395C109.656 82.4229 101.41 60.8486 102.483 52.8627C102.974 49.4496 104.437 46.2498 106.697 43.6456H113.474C113.474 43.6456 113.474 47.7684 114.05 53.3032C114.219 54.8733 114.423 56.5563 114.694 58.2958C115.174 63.2627 115.253 68.2601 114.931 73.2397V73.2397Z" fill="#FEEDE5" stroke="#231F20" stroke-width="0.25" stroke-miterlimit="10"/>
<path d="M114.931 73.2397C113.429 69.851 109.283 60.6001 108.752 58.9961C108.371 57.7911 107.669 56.7131 106.719 55.8786L114.073 53.3032C114.242 54.8733 114.446 56.5563 114.717 58.2958C115.189 63.2633 115.261 68.2607 114.931 73.2397V73.2397Z" fill="#FEEDE5" stroke="#231F20" stroke-width="0.25" stroke-miterlimit="10"/>
<path d="M112.22 14.9212C111.208 14.6589 110.133 14.7796 109.204 15.2601C104.087 15.791 104.019 21.1903 104.562 22.9297C105.104 24.6692 105.849 26.4991 104.234 29.2439C99.6029 37.1507 113.146 34.6431 113.146 34.6431C111.825 29.3681 119.539 29.7748 119.37 30.3734C129.118 30.396 116.377 15.8249 112.22 14.9212Z" fill="#FFCE7E" stroke="#231F20" stroke-width="0.25" stroke-miterlimit="10"/>
<path d="M101.727 50.3212C102.096 51.0442 102.394 51.8007 102.619 52.5803C102.651 53.0558 102.505 53.5261 102.212 53.9019C102.032 53.9809 101.93 52.9869 101.851 53.0434C101.772 53.0999 102.066 54.67 101.761 54.8281C101.456 54.9862 100.326 53.5178 100.168 52.8175C100.076 52.211 100.076 51.5941 100.168 50.9876L101.727 50.3212Z" fill="#FEEDE5" stroke="#231F20" stroke-width="0.25" stroke-miterlimit="10"/>
<path d="M110.549 34.8916C109.599 35.8892 108.783 37.0054 108.12 38.2125C107.605 39.1495 107.189 40.1375 106.878 41.1606C106.087 43.8263 102.981 48.9997 101.919 50.7279L101.557 51.3039L100.145 51.0667C100.145 51.0667 101.027 44.12 101.637 42.1433C102.246 40.1666 102.461 33.6492 103.444 31.5369C103.807 30.7446 104.354 30.0504 105.04 29.5122C105.726 28.9739 106.53 28.607 107.386 28.442L110.549 34.8916Z" fill="#FEEDE5" stroke="#231F20" stroke-width="0.25" stroke-miterlimit="10"/>
<path d="M108.12 38.2238C107.605 39.1608 107.189 40.1488 106.878 41.1719C106.087 43.8376 102.981 49.011 101.919 50.7392C101.919 50.7392 102.359 46.4582 103.274 45.0914C104.189 43.7247 104.291 35.479 104.291 35.479L108.12 38.2238Z" fill="#FEEDE5" stroke="#231F20" stroke-width="0.25" stroke-miterlimit="10"/>
<path d="M126.938 86.2859C126.938 86.2859 128.497 87.5284 128.192 88.4095C127.887 89.2905 126.486 89.8779 126.294 90.9509C126.264 91.3768 126.084 91.7783 125.786 92.0843C125.489 92.3903 125.093 92.581 124.668 92.6226H121.426C121.426 92.6226 120.917 91.8658 122.137 91.6399C122.684 91.4652 123.148 91.0965 123.441 90.6033C123.735 90.1102 123.837 89.5266 123.73 88.9629C123.697 88.0464 123.734 87.1288 123.843 86.2181L126.407 85.6986L126.938 86.2859Z" fill="#FEEDE5" stroke="#231F20" stroke-width="0.25" stroke-miterlimit="10"/>
<path d="M117.337 43.4536C118.992 44.1712 120.462 45.2559 121.637 46.6258C122.811 47.9957 123.658 49.6148 124.114 51.3604C125.481 57.6746 122.126 64.7229 122.883 67.6936C123.64 70.6643 126.441 76.3798 126.441 85.6534C126.159 86.0614 125.737 86.3511 125.255 86.4667C124.972 86.557 124.182 86.8055 123.809 86.8733C123.585 86.1617 123.302 85.4702 122.962 84.8062C120.771 80.7511 114.457 71.8503 114.152 69.6138C113.926 68.0325 112.028 57.5616 107.882 51.4169C106.877 49.9485 108.492 44.0861 108.492 44.0861L117.337 43.4536Z" fill="#FEEDE5" stroke="#231F20" stroke-width="0.25" stroke-miterlimit="10"/>
<path d="M120.025 49.09C118.229 45.5545 117.134 44.5718 117.337 43.4423C117.495 42.629 116.863 28.2499 116.863 28.2499C116.648 28.2499 116.23 28.137 115.993 28.0918C115.655 28.0118 115.338 27.8618 115.062 27.6517C114.786 27.4416 114.557 27.176 114.389 26.8719C113.77 25.7828 113.436 24.5551 113.417 23.3025L111.689 23.3816L109.227 24.0819C109.571 24.8142 109.782 25.6022 109.848 26.4087V26.4087C109.831 26.8562 109.664 27.2849 109.372 27.6252C109.081 27.9655 108.684 28.1976 108.245 28.2838L107.33 28.521C106.452 30.8342 105.886 33.2539 105.646 35.7162C105.375 39.3647 108.222 40.946 105.646 48.2428C103.071 55.5397 121.008 51.0328 120.025 49.09Z" fill="#FEEDE5" stroke="#231F20" stroke-width="0.25" stroke-miterlimit="10"/>
<path d="M109.317 24.3756C109.631 25.014 109.812 25.7096 109.848 26.42C110.636 26.3143 111.381 26.0028 112.01 25.517C112.638 25.0311 113.128 24.388 113.429 23.6526L109.317 24.3756Z" fill="#FEEDE5" stroke="#231F20" stroke-width="0.25" stroke-miterlimit="10"/>
<path d="M119.325 34.6205C119.653 37.6916 120.17 40.7396 120.873 43.7473C121.765 46.1758 120.873 47.4522 120.873 47.4522L112.198 49.3272L104.585 48.3784C104.359 47.4781 104.287 46.5465 104.37 45.6223C104.562 44.3459 105.342 43.3633 105.353 41.4317C105.353 37.8963 103.275 37.3653 103.986 34.3833C104.637 32.2022 105.798 30.2079 107.375 28.5662C107.375 28.5662 111.52 32.1129 116.908 28.2612L119.325 34.6205Z" fill="#FEEDE5" stroke="#231F20" stroke-width="0.25" stroke-miterlimit="10"/>
<path d="M109.362 25.8553C109.362 25.8553 114.355 24.8951 113.621 22.1729C112.887 19.4507 113.033 17.4966 109.814 18.0049C106.595 18.5132 106.256 19.6767 106.256 20.6368C106.256 21.5969 108.041 26.0473 109.362 25.8553Z" fill="#FEEDE5" stroke="#231F20" stroke-width="0.25" stroke-miterlimit="10"/>
<path d="M107.532 18.4116C107.532 18.4116 109.791 21.3145 111.983 21.3484C113.025 21.4758 114.079 21.249 114.977 20.7045C113.772 20.1602 112.792 19.2193 112.198 18.0388C112.198 18.0388 108.142 16.6834 107.532 18.4116Z" fill="#FFCE7E" stroke="#231F20" stroke-width="0.25" stroke-miterlimit="10"/>
<path d="M107.94 18.6036C107.446 18.9091 107.053 19.353 106.81 19.88C106.515 20.7324 106.515 21.6594 106.81 22.5118C106.81 22.5118 105.195 20.5577 106.019 19.1232C106.844 17.6887 107.94 18.6036 107.94 18.6036Z" fill="#FFCE7E" stroke="#231F20" stroke-width="0.25" stroke-miterlimit="10"/>
<path d="M124.397 55.167C121.508 54.6207 118.555 54.5028 115.632 54.8168C113.806 55.0139 112.026 55.518 110.368 56.3078C107.76 55.8398 105.107 55.6692 102.461 55.7995C102.461 55.7995 101.444 52.2414 104.212 47.1585C108.738 47.3479 113.272 47.1552 117.766 46.5825C118.896 46.4469 120.104 46.2661 121.324 46.0515C122.491 47.2405 123.374 48.6782 123.906 50.2568C124.438 51.8355 124.606 53.5142 124.397 55.167V55.167Z" fill="#DF2925" stroke="#231F20" stroke-width="0.25" stroke-miterlimit="10"/>
<path d="M120.217 40.8443C119.37 41.0476 118.569 41.217 117.801 41.3752C107.476 43.4648 104.607 42.0416 104.607 42.0416C104.177 39.9467 104.071 37.7982 104.291 35.671C104.766 33.1747 107.386 28.4419 107.386 28.4419L108.402 28.2838C108.402 28.2838 107.668 31.0173 107.533 31.9322C107.341 33.2989 108.515 33.7056 110.729 33.6378C113.96 33.5474 115.439 27.9336 115.439 27.9336C115.947 27.8848 116.46 27.9625 116.931 28.1595C116.526 30.5395 116.812 32.9857 117.755 35.2079V35.2079C118.29 36.5611 119.021 37.8283 119.924 38.9692L120.217 40.8443Z" fill="#DF2925" stroke="#231F20" stroke-width="0.25" stroke-miterlimit="10"/>
<path d="M124.397 55.167C121.508 54.6207 118.555 54.5028 115.632 54.8168C116.686 53.758 117.435 52.4338 117.799 50.9843C118.163 49.5347 118.128 48.0139 117.698 46.5825C118.828 46.4469 120.037 46.2661 121.257 46.0515C122.436 47.2343 123.331 48.6693 123.875 50.2482C124.419 51.8272 124.597 53.509 124.397 55.167V55.167Z" fill="#CC1B1B" stroke="#231F20" stroke-width="0.25" stroke-miterlimit="10"/>
<path d="M109.712 44.3234C109.724 44.3638 109.727 44.4065 109.72 44.4481C109.712 44.4896 109.695 44.5289 109.67 44.5628C109.645 44.5966 109.612 44.6241 109.574 44.643C109.536 44.662 109.495 44.6719 109.453 44.6719C109.41 44.6719 109.368 44.662 109.331 44.643C109.293 44.6241 109.261 44.5966 109.235 44.5628C109.21 44.5289 109.193 44.4896 109.186 44.4481C109.178 44.4065 109.181 44.3638 109.193 44.3234C109.193 44.2545 109.22 44.1884 109.269 44.1396C109.318 44.0909 109.384 44.0635 109.453 44.0635C109.522 44.0635 109.588 44.0909 109.636 44.1396C109.685 44.1884 109.712 44.2545 109.712 44.3234Z" fill="#E8945B" stroke="#231F20" stroke-width="0.25" stroke-miterlimit="10"/>
<path d="M116.931 28.1596C118.128 28.4221 119.219 29.0402 120.059 29.9329C120.895 31.1754 125.707 37.6703 126.407 40.9234C127.107 44.1765 122.499 52.0494 122.499 52.0494L121.268 51.3039C121.268 51.3039 121.81 42.2676 121.268 41.33C120.726 40.3925 119.924 38.9693 119.924 38.9693C119.924 38.9693 118.32 33.9428 118.32 33.6605C118.32 33.3781 116.931 28.1596 116.931 28.1596Z" fill="#FEEDE5" stroke="#231F20" stroke-width="0.25" stroke-miterlimit="10"/>
<path d="M121.301 50.7279C120.876 50.835 120.46 50.9786 120.059 51.1571C119.619 51.383 118.613 52.2866 118.85 52.456C119.088 52.6255 119.721 52.0494 120.059 52.0494C120.398 52.0494 118.512 53.5856 118.658 53.9132C118.805 54.2408 120.986 54.0713 121.708 53.5404C122.277 52.8518 122.665 52.0328 122.838 51.1571L121.301 50.7279Z" fill="#FEEDE5" stroke="#231F20" stroke-width="0.25" stroke-miterlimit="10"/>
<path d="M120.217 40.8443C119.37 41.0477 118.568 41.2171 117.8 41.3752C116.671 39.4211 117.902 35.5807 117.8 35.2079C118.335 36.5611 119.066 37.8284 119.969 38.9693L120.217 40.8443Z" fill="#CC1B1B" stroke="#231F20" stroke-width="0.25" stroke-miterlimit="10"/>
<path d="M130.372 92.7356H82.276V94.4864H130.372V92.7356Z" fill="#E0E0E0" stroke="#231F20" stroke-width="0.25" stroke-miterlimit="10"/>
<path d="M85.6195 93.4864H84.0946V94.5934H85.6195V93.4864Z" fill="#2E3552" stroke="#231F20" stroke-width="0.25" stroke-miterlimit="10"/>
<path d="M126.95 93.4864H125.425V94.5934H126.95V93.4864Z" fill="#2E3552" stroke="#231F20" stroke-width="0.25" stroke-miterlimit="10"/>
<path d="M94.1252 66.5528H80.7058C80.5624 66.552 80.4229 66.5086 80.3043 66.4282C80.1856 66.3477 80.0933 66.2338 80.0395 66.1009L78.8195 63.2206C78.7873 63.1479 78.7743 63.0682 78.7809 62.9889C78.7876 62.9096 78.8137 62.8333 78.8576 62.7669C78.9015 62.7005 78.9616 62.6463 79.0319 62.6091C79.1022 62.5719 79.1807 62.553 79.2602 62.5541H92.9389L94.4412 66.0783C94.4611 66.1305 94.4679 66.1866 94.4616 66.2421C94.4554 66.2975 94.4363 66.3506 94.4054 66.397C94.3744 66.4434 94.3328 66.4818 94.284 66.5089C94.2353 66.5359 94.181 66.551 94.1252 66.5528V66.5528Z" fill="#E0E0E0" stroke="#231F20" stroke-width="0.25" stroke-miterlimit="10"/>
<path d="M94.2495 66.5528H81.5306C81.3346 66.5539 81.1432 66.4964 80.9801 66.3877C80.8171 66.279 80.6904 66.1241 80.6161 65.9428L79.3509 62.9608C79.3323 62.9162 79.3247 62.8676 79.3294 62.8195C79.334 62.7714 79.3505 62.7251 79.3774 62.6849C79.4042 62.6447 79.4406 62.6117 79.4833 62.5889C79.5259 62.5661 79.5733 62.5541 79.6217 62.5541H92.9506C93.138 62.5525 93.3217 62.6063 93.4785 62.7088C93.6353 62.8114 93.7579 62.9579 93.8314 63.1302L94.8705 65.5926C94.915 65.6965 94.9336 65.8097 94.924 65.9222C94.9145 66.0348 94.8773 66.1433 94.8159 66.2381C94.7546 66.333 94.6709 66.4113 94.5722 66.4662C94.4734 66.521 94.3625 66.5508 94.2495 66.5528V66.5528Z" fill="#E0E0E0" stroke="#231F20" stroke-width="0.25" stroke-miterlimit="10"/>
<path d="M93.8652 65.2651H81.2482L80.2767 62.9947H92.8938L93.8652 65.2651Z" fill="white" stroke="#231F20" stroke-width="0.25" stroke-miterlimit="10"/>
<path d="M87.664 65.8525H86.4215V93.018H87.664V65.8525Z" fill="#E0E0E0" stroke="#231F20" stroke-width="0.25" stroke-miterlimit="10"/>
<path d="M48.3334 94.8306H52.6028C52.5294 94.3143 52.4163 93.8045 52.2642 93.3057C52.2008 93.093 52.1215 92.8853 52.027 92.6844C51.6091 91.8599 48.966 92.3795 48.966 92.3795C48.7363 92.6749 48.5879 93.0254 48.5364 93.3961C48.4279 93.8676 48.3602 94.3475 48.3334 94.8306V94.8306Z" fill="#FEEDE5" stroke="#231F20" stroke-width="0.25" stroke-miterlimit="10"/>
<path d="M56.1725 30.5429C56.1725 30.5429 59.5608 31.1416 60.3515 33.1521C61.1422 35.1627 65.4686 67.6146 65.4686 67.6146C65.4686 67.6146 63.3112 69.3202 58.6914 68.7441C54.0715 68.168 56.1725 30.5429 56.1725 30.5429Z" fill="white" stroke="#231F20" stroke-width="0.25" stroke-miterlimit="10"/>
<path d="M61.2438 93.4412C61.1996 93.9089 61.3025 94.3788 61.5378 94.7854H69.9868C69.8831 94.5282 69.7073 94.3063 69.481 94.1461C69.2547 93.9859 68.9875 93.8941 68.7105 93.8817C67.4494 93.7014 66.2701 93.1511 65.3219 92.3004C64.9989 91.9681 64.7723 91.5542 64.6667 91.1031C64.26 89.3297 61.3795 91.6452 61.3795 91.6452C61.2937 92.2401 61.2483 92.8402 61.2438 93.4412V93.4412Z" fill="#FEEDE5" stroke="#231F20" stroke-width="0.25" stroke-miterlimit="10"/>
<path d="M64.881 93.5715C63.9322 93.8764 62.136 94.7914 60.9839 94.3622C60.2497 94.0798 56.1042 82.0953 55.8331 76.8655C55.7939 76.3382 55.7223 75.8139 55.6185 75.2954C55.3813 73.9513 54.9521 72.0875 54.489 70.043C53.1674 64.5421 51.3715 57.6746 51.4054 55.4719C51.4731 52.0833 61.5713 54.7603 61.5713 54.7603C62.0608 57.0113 62.3409 59.3028 62.4074 61.6054C62.6785 69.6477 63.435 83.2248 65.4795 92.6565C65.5139 92.8565 65.4714 93.0621 65.3603 93.2318C65.2492 93.4016 65.078 93.523 64.881 93.5715V93.5715Z" fill="#4C4C4C" stroke="#231F20" stroke-width="0.25" stroke-miterlimit="10"/>
<path d="M57.8666 55.4945L52.5349 94.204C51.1672 94.521 49.7498 94.5594 48.3669 94.3169C48.3669 94.3169 46.7968 73.7254 46.9324 68.7554C47.0679 63.7854 45.8028 55.438 47.2148 54.5231C48.6267 53.6082 57.8666 55.4945 57.8666 55.4945Z" fill="#4C4C4C" stroke="#231F20" stroke-width="0.25" stroke-miterlimit="10"/>
<path d="M46.537 32.3163C46.537 32.3163 52.1851 28.6904 56.1724 30.5429C56.898 30.9939 57.5397 31.5671 58.0697 32.2372C59.5268 33.8412 62.3733 59.3463 62.3733 59.3463C62.3733 59.3463 54.297 62.0798 46.5597 58.42L46.537 32.3163Z" fill="#0A9D57" stroke="#231F20" stroke-width="0.25" stroke-miterlimit="10"/>
<path d="M56.5 30.4525C56.5 30.4525 62.1477 32.7794 62.9496 34.5641C64.3454 39.1749 65.436 43.8727 66.2142 48.6269C66.2142 49.9146 61.8652 48.9206 61.1649 46.8422C60.5775 45.114 58.6122 39.8165 57.5843 36.4617L56.5 30.4525Z" fill="white" stroke="#231F20" stroke-width="0.25" stroke-miterlimit="10"/>
<path d="M55.3136 32.2259C53.7892 32.4739 52.2271 32.1566 50.9201 31.3336C51.3779 30.2768 51.6927 29.1638 51.8572 28.024C51.8572 28.024 51.8572 27.9449 51.8572 27.911C51.8915 27.6599 51.8915 27.4054 51.8572 27.1543H55.0654C55.0654 27.1543 55.9462 27.5496 55.9462 27.832V28.2499C55.9462 28.6226 55.9462 28.939 55.9462 29.2214C55.9645 29.6653 56.0175 30.1072 56.1045 30.5429C56.1045 30.5429 56.6239 31.9774 55.3136 32.2259Z" fill="#FEEDE5" stroke="#231F20" stroke-width="0.25" stroke-miterlimit="10"/>
<path d="M56.0141 29.1874C55.2764 29.3514 54.5093 29.3277 53.7831 29.1186C53.0569 28.9094 52.3946 28.5214 51.8572 27.9901L51.7899 27.911H51.8687C53.2402 27.6378 54.6608 27.7552 55.9689 28.2499C55.9801 28.6226 55.9915 28.9389 56.0141 29.1874Z" fill="#FEEDE5" stroke="#231F20" stroke-width="0.25" stroke-miterlimit="10"/>
<path d="M51.0667 26.6234C51.496 28.9615 54.5115 28.8824 55.8105 28.7356L56.4095 28.6453C56.8274 28.5323 57.0532 27.8885 57.1662 27.03C57.3482 25.422 57.2294 23.7941 56.8159 22.2295C56.3867 21.2807 55.585 20.2527 52.5465 20.9982C49.508 21.7437 50.502 23.6301 51.0667 26.6234Z" fill="#FEEDE5" stroke="#231F20" stroke-width="0.25" stroke-miterlimit="10"/>
<path d="M56.9293 20.9305C56.3554 20.2263 55.6443 19.6461 54.8395 19.2248C54.2195 18.9623 53.5532 18.827 52.8799 18.827C52.2066 18.827 51.5403 18.9623 50.9203 19.2248C48.4353 20.3544 47.7911 22.2069 49.1013 25.1663C50.4116 28.1257 51.8237 27.9337 51.8237 27.9337C51.8237 27.9337 51.5413 27.7642 51.5639 26.8041C51.5579 26.7554 51.5579 26.706 51.5639 26.6573C51.5691 26.5585 51.5525 26.4598 51.5154 26.3681C51.4783 26.2763 51.4217 26.1938 51.3494 26.1263C51.0444 25.8553 50.8977 24.9968 51.1574 24.7935C51.4172 24.5902 51.9027 24.7935 52.0382 25.1098C52.0648 25.1545 52.1005 25.1934 52.1425 25.224C52.1845 25.2547 52.2319 25.2765 52.2826 25.2881C52.3333 25.2997 52.3858 25.3009 52.437 25.2916C52.4882 25.2823 52.537 25.2627 52.5804 25.234C53.3598 24.737 52.8514 23.7656 53.5969 23.1669C54.3424 22.5683 55.8562 23.0766 56.9293 22.6022C58.3864 22.0826 57.2455 21.3597 56.9293 20.9305Z" fill="#FFCE7E" stroke="#231F20" stroke-width="0.25" stroke-miterlimit="10"/>
<path d="M57.2791 69.9979C56.7897 70.1259 56.3039 70.2276 55.822 70.3029C55.4041 70.382 54.9747 70.4271 54.5568 70.4723C51.9755 70.6337 49.3869 70.3158 46.9213 69.5347L44.9446 68.9135C44.8768 68.9135 45.1363 61.4359 45.43 53.7437C45.43 52.953 45.4978 52.1511 45.5204 51.3604C45.5204 51.0215 45.5204 50.694 45.5204 50.3551C45.7915 43.5778 46.0513 37.4105 46.1078 37.0829C46.2433 36.3374 46.3674 35.6936 46.4917 35.1402C46.6682 33.8472 47.3509 32.6772 48.3895 31.8871C48.4912 31.808 49.327 31.3901 50.0612 31.0286L51.1907 30.4638C51.593 30.8628 51.8818 31.3619 52.0269 31.9096C52.6438 33.6397 53.1715 35.4004 53.6081 37.1846V37.1846C53.8792 38.2464 54.0712 39.071 54.1277 39.3082C54.1842 39.5454 54.3421 40.4377 54.4889 41.5673C54.681 42.9905 54.9183 44.9559 55.1668 47.1246C55.1668 47.3505 55.1666 47.5764 55.2456 47.8136C55.3247 48.0508 55.3022 48.3445 55.3361 48.6156V48.8754C55.4265 49.7451 55.5281 50.6375 55.6185 51.5524C55.7088 52.4673 56.8499 52.8514 56.9289 53.6195C56.9289 54.0713 57.0644 58.228 57.1887 59.5609C57.3807 60.4758 57.313 69.5461 57.2791 69.9979Z" fill="white" stroke="#231F20" stroke-width="0.25" stroke-miterlimit="10"/>
<path d="M48.9996 39.8277C48.9996 39.8277 48.8075 46.7067 53.9695 47.5312C59.1315 48.3558 55.698 48.593 55.698 48.593C55.698 48.593 45.9836 48.1751 45.8255 47.9153C45.6674 47.6555 48.9996 39.8277 48.9996 39.8277Z" fill="#C6D2CF" stroke="#231F20" stroke-width="0.25" stroke-miterlimit="10"/>
<path d="M53.3595 50.4793L53.0771 50.6714C51.0498 51.9197 48.8503 52.8635 46.5486 53.4726L45.4191 53.7437C45.4191 52.953 45.4869 52.1511 45.5095 51.3604C45.0803 51.3311 44.6533 51.2707 44.2327 51.1796C44.2327 51.078 44.2327 50.9764 44.2327 50.8634L45.5095 50.3551L46.4808 49.9823C47.8814 49.4514 48.9208 49.09 48.9208 49.09L53.0545 50.4003L53.3595 50.4793Z" fill="#C6D2CF" stroke="#231F20" stroke-width="0.25" stroke-miterlimit="10"/>
<path d="M54.4555 50.3664C54.4555 50.3664 53.9244 50.502 53.0772 50.6714C50.9301 51.1283 48.7437 51.3742 46.5487 51.4056H45.5322C45.103 51.3762 44.676 51.3159 44.2554 51.2249C43.4962 51.1067 42.7872 50.7735 42.2114 50.2647C38.7212 46.7066 44.1203 33.9654 45.2499 32.7229C46.6667 31.486 48.4457 30.741 50.3212 30.5994H50.4795C50.9539 30.5429 51.2473 30.5316 51.2699 30.5316C51.2699 30.5316 51.1569 30.8704 50.9875 31.4352L50.7503 32.192C49.937 34.8803 48.356 40.0989 47.6557 43.126C47.4536 43.8087 47.3434 44.5152 47.328 45.227C47.5991 46.2323 50.4228 46.7632 52.2075 46.9891C52.9417 47.0907 53.5065 47.1359 53.642 47.1359L53.7441 47.5538L53.9922 48.5704L54.2294 49.5644L54.4555 50.3664Z" fill="white" stroke="#231F20" stroke-width="0.25" stroke-miterlimit="10"/>
<path d="M64.1807 56.4772L52.2076 55.9689L54.6361 41.0477L66.6093 41.5447L64.1807 56.4772Z" fill="#FF753C" stroke="#231F20" stroke-width="0.25" stroke-miterlimit="10"/>
<path d="M53.6535 47.0794C53.6535 47.0794 55.9803 46.91 56.1046 47.4521C56.3757 48.7172 54.0938 49.7677 53.3596 49.7112C52.6254 49.6548 53.1114 46.9891 53.6535 47.0794Z" fill="#FFB27D" stroke="#231F20" stroke-width="0.25" stroke-miterlimit="10"/>
<path d="M65.9538 44.5832C65.9538 44.5832 63.6948 43.8829 63.4802 44.3912C62.9267 45.5207 64.9036 47.0908 65.6378 47.1924C66.372 47.2941 66.496 44.6283 65.9538 44.5832Z" fill="#FFB27D" stroke="#231F20" stroke-width="0.25" stroke-miterlimit="10"/>
<path d="M51.4959 29.7071C50.8769 29.8162 50.3143 30.1353 49.9031 30.6107C49.9031 30.6107 53.6874 37.2524 53.6761 37.1846C53.6648 37.1169 52.4334 30.5316 51.4959 29.7071Z" fill="#C6D2CF" stroke="#231F20" stroke-width="0.25" stroke-miterlimit="10"/>
<path d="M56.0593 29.7974C56.5387 30.0547 56.9315 30.4475 57.1888 30.9269L57.6295 36.4843C57.6295 36.4843 56.692 32.4066 56.2176 30.5654C56.141 30.3149 56.0879 30.0578 56.0593 29.7974V29.7974Z" fill="#C6D2CF" stroke="#231F20" stroke-width="0.25" stroke-miterlimit="10"/>
<path d="M58.6008 41.2171C58.6426 41.0867 58.7323 40.9769 58.8517 40.9098C58.9712 40.8428 59.1113 40.8234 59.2444 40.8556C59.7866 40.8556 62.8476 41.0476 62.8476 41.0476C62.8476 41.0476 63.4355 41.0477 63.3903 41.4204L58.6008 41.2171Z" fill="#FFA100" stroke="#231F20" stroke-width="0.25" stroke-miterlimit="10"/>
<path d="M79.5426 19.191V18.6827H84.0608V19.191L82.875 30.3847H80.751L79.5426 19.191ZM79.7461 32.3615H83.8462V36.4165H79.7461V32.3615Z" fill="#CECECE" stroke="#231F20" stroke-width="0.25" stroke-miterlimit="10"/>
<path d="M81.6774 39.2404C79.3657 39.2382 77.1064 38.5507 75.1853 37.2647C73.2643 35.9787 71.7676 34.1521 70.8844 32.0157C70.0013 29.8793 69.7713 27.529 70.2237 25.262C70.6761 22.9949 71.7905 20.9128 73.4259 19.279C75.0614 17.6451 77.1443 16.5328 79.4117 16.0826C81.6792 15.6324 84.0297 15.8647 86.1653 16.7498C88.3008 17.635 90.1257 19.1335 91.4098 21.0558C92.6939 22.978 93.3794 25.2379 93.3794 27.5496C93.3764 30.6512 92.142 33.6248 89.9477 35.8169C87.7535 38.009 84.7791 39.2404 81.6774 39.2404V39.2404ZM81.6774 16.8076C79.5529 16.8076 77.4758 17.4376 75.7093 18.618C73.9428 19.7983 72.5662 21.476 71.7531 23.4389C70.9401 25.4017 70.727 27.5616 71.1415 29.6453C71.5559 31.729 72.5794 33.6431 74.0817 35.1453C75.584 36.6476 77.4979 37.6707 79.5816 38.0852C81.6653 38.4997 83.8252 38.287 85.788 37.4739C87.7509 36.6609 89.4287 35.2841 90.609 33.5176C91.7894 31.7511 92.4192 29.6742 92.4192 27.5496C92.4236 26.1356 92.1494 24.7346 91.6117 23.4267C91.074 22.1189 90.2837 20.93 89.2859 19.928C88.2881 18.926 87.1024 18.1307 85.7969 17.5875C84.4913 17.0443 83.0915 16.7639 81.6774 16.7625V16.8076Z" fill="#CECECE" stroke="#231F20" stroke-width="0.25" stroke-miterlimit="10"/>
<path d="M162.866 94.85L0.134477 94.85L0.134039 94.85L0.133689 94.85L0.133601 94.85L0.133163 94.85L0.132905 94.85L0.132726 94.85L0.132289 94.85L0.132123 94.85L0.131852 94.85L0.131416 94.85L0.131344 94.85L0.13098 94.85L0.130569 94.85L0.130545 94.85L0.13011 94.85L0.129796 94.85L0.129675 94.85L0.12924 94.85L0.129027 94.85L0.128806 94.85L0.128373 94.85L0.128261 94.85L0.12794 94.85L0.127507 94.85L0.127497 94.85L0.127074 94.85L0.126737 94.85L0.126642 94.85L0.12621 94.85L0.12598 94.85L0.125779 94.85L0.125348 94.85L0.125226 94.85L0.124917 94.85L0.124487 94.85L0.124475 94.85L0.124057 94.85L0.123726 94.85L0.123628 94.85L0.123199 94.85L0.122981 94.85L0.122771 94.85L0.122342 94.85L0.122239 94.85L0.121915 94.85L0.1215 94.85L0.121487 94.85L0.12106 94.85L0.120764 94.85L0.120634 94.85L0.120207 94.85L0.12003 94.85L0.119782 94.85L0.119356 94.85L0.1193 94.85L0.118931 94.85L0.118573 94.85L0.118507 94.85L0.118083 94.85L0.117849 94.85L0.117659 94.85L0.117236 94.85L0.117127 94.85L0.116813 94.85L0.116409 94.85L0.116391 94.85L0.115969 94.85L0.115693 94.85L0.115547 94.85L0.115126 94.85L0.114981 94.85L0.114706 94.85L0.114286 94.85L0.114271 94.85L0.113866 94.85L0.113565 94.85L0.113447 94.85L0.113028 94.85L0.112861 94.85L0.112609 94.85L0.112191 94.85L0.11216 94.85L0.111774 94.85L0.111462 94.85L0.111357 94.85L0.11094 94.85L0.110767 94.85L0.110524 94.85L0.110108 94.85L0.110075 94.85L0.109693 94.85L0.109386 94.85L0.109278 94.85L0.108864 94.85L0.108699 94.85L0.10845 94.85L0.108037 94.85L0.108016 94.85L0.107624 94.85L0.107335 94.85L0.107212 94.85L0.1068 94.85L0.106658 94.85L0.106388 94.85L0.105983 94.85L0.105977 94.85L0.105567 94.85L0.105311 94.85L0.105157 94.85L0.104747 94.85L0.104641 94.85L0.104338 94.85L0.103975 94.85L0.10393 94.85L0.103522 94.85L0.103312 94.85L0.103114 94.85L0.102707 94.85L0.102651 94.85L0.1023 94.85L0.101993 94.85L0.101894 94.85L0.101489 94.85L0.101338 94.85L0.101084 94.85L0.100686 94.85L0.100679 94.85L0.100275 94.85L0.100036 94.85L0.0998713 94.85L0.0994683 94.85L0.0993897 94.85L0.0990658 94.85L0.0987458 94.85L0.0986637 94.85L0.0982622 94.85L0.0981048 94.85L0.0978613 94.85L0.0974665 94.85L0.0974608 94.85L0.0970609 94.85L0.096831 94.85L0.0966614 94.85L0.0962626 94.85L0.0961983 94.85L0.0958642 94.85L0.0955683 94.85L0.0954664 94.85L0.0950691 94.85L0.0949411 94.85L0.0946723 94.85L0.0943167 94.85L0.0942761 94.85L0.0938804 94.85L0.0936949 94.85L0.0934852 94.85L0.0930906 94.85L0.093076 94.85L0.0926966 94.85L0.0924597 94.85L0.0923031 94.85L0.0919101 94.85L0.0918462 94.85L0.0915177 94.85L0.0912354 94.85L0.0911258 94.85L0.0907345 94.85L0.0906273 94.85L0.0903438 94.85L0.0900219 94.85L0.0899536 94.85L0.089564 94.85L0.0894193 94.85L0.0891749 94.85L0.0888193 94.85L0.0887864 94.85L0.0883985 94.85L0.088222 94.85L0.0880111 94.85L0.0876274 94.85L0.0876243 94.85L0.0872381 94.85L0.0870355 94.85L0.0868524 94.85L0.0864673 94.85L0.0864462 94.85L0.0860828 94.85L0.0858596 94.85L0.0856989 94.85L0.0853156 94.85L0.0852757 94.85L0.0849328 94.85L0.0846944 94.85L0.0845507 94.85L0.0841691 94.85L0.0841158 94.85L0.0837881 94.85L0.0835398 94.85L0.0834077 94.85L0.0830279 94.85L0.0829664 94.85L0.0826487 94.85L0.0823957 94.85L0.0822701 94.85L0.0818921 94.85L0.0818276 94.85L0.0815147 94.85L0.0812621 94.85L0.0811379 94.85L0.0807617 94.85L0.0806993 94.85L0.0803861 94.85L0.080139 94.85L0.0800112 94.85L0.0796368 94.85L0.0795813 94.85L0.0792631 94.85L0.0790263 94.85L0.0788899 94.85L0.0785174 94.85L0.0784738 94.85L0.0781455 94.85L0.0779239 94.85L0.0777743 94.85L0.0774036 94.85L0.0773765 94.85L0.0770336 94.85L0.0768318 94.85L0.0766642 94.85L0.0762954 94.85L0.0762896 94.85L0.0759273 94.85L0.0757499 94.85L0.0755598 94.85L0.0752128 94.85L0.075193 94.85L0.0748267 94.85L0.0746783 94.85L0.0744612 94.85L0.0741463 94.85L0.0740962 94.85L0.0737319 94.85L0.0736168 94.85L0.0733683 94.85L0.0730899 94.85L0.0730053 94.85L0.0726429 94.85L0.0725654 94.85L0.0722812 94.85L0.0720435 94.85L0.0719202 94.85L0.0715598 94.85L0.0715241 94.85L0.0712 94.85L0.0710072 94.85L0.070841 94.85L0.0704928 94.85L0.0704826 94.85L0.0701248 94.85L0.0699809 94.85L0.0697677 94.85L0.0694715 94.85L0.0694113 94.85L0.0690556 94.85L0.0689645 94.85L0.0687005 94.85L0.06846 94.85L0.0683461 94.85L0.0679924 94.85L0.067958 94.85L0.0676393 94.85L0.0674585 94.85L0.067287 94.85L0.0669614 94.85L0.0669353 94.85L0.0665843 94.85L0.0664667 94.85L0.066234 94.85L0.0659745 94.85L0.0658843 94.85L0.0655354 94.85L0.0654847 94.85L0.0651872 94.85L0.0649974 94.85L0.0648396 94.85L0.0645125 94.85L0.0644927 94.85L0.0641466 94.85L0.06403 94.85L0.0638011 94.85L0.0635499 94.85L0.0634564 94.85L0.0631123 94.85L0.0630722 94.85L0.062769 94.85L0.0625969 94.85L0.0624263 94.85L0.062124 94.85L0.0620844 94.85L0.0617432 94.85L0.0616535 94.85L0.0614027 94.85L0.0611854 94.85L0.0610629 94.85L0.0607238 94.85L0.0607196 94.85L0.0603854 94.85L0.0602563 94.85L0.0600478 94.85L0.0597953 94.85L0.0597109 94.85L0.0593747 94.85L0.0593366 94.85L0.0590392 94.85L0.0588803 94.85L0.0587045 94.85L0.0584263 94.85L0.0583705 94.85L0.0580373 94.85L0.0579747 94.85L0.0577047 94.85L0.0575254 94.85L0.0573729 94.85L0.0570785 94.85L0.0570419 94.85L0.0567116 94.85L0.0566338 94.85L0.056382 94.85L0.0561915 94.85L0.0560532 94.85L0.0557515 94.85L0.0557251 94.85L0.0553978 94.85L0.0553138 94.85L0.0550712 94.85L0.0548784 94.85L0.0547454 94.85L0.0544452 94.85L0.0544203 94.85L0.054096 94.85L0.0540144 94.85L0.0537725 94.85L0.0535858 94.85L0.0534497 94.85L0.0531596 94.85L0.0531277 94.85L0.0528064 94.85L0.0527355 94.85L0.0524859 94.85L0.0523138 94.85L0.0521662 94.85L0.0518943 94.85L0.0518472 94.85L0.051529 94.85L0.051477 94.85L0.0512116 94.85L0.051062 94.85L0.050895 94.85L0.0506492 94.85L0.0505792 94.85L0.0502641 94.85L0.0502387 94.85L0.0499498 94.85L0.0498304 94.85L0.0496363 94.85L0.0494243 94.85L0.0493236 94.85L0.0490204 94.85L0.0490117 94.85L0.0487005 94.85L0.0486187 94.85L0.0483902 94.85L0.0482192 94.85L0.0480806 94.85L0.0478219 94.85L0.0477719 94.85L0.0474639 94.85L0.0474268 94.85L0.0471568 94.85L0.0470339 94.85L0.0468504 94.85L0.0466432 94.85L0.0465449 94.85L0.0462546 94.85L0.0462402 94.85L0.0459362 94.85L0.0458682 94.85L0.0456331 94.85L0.0454839 94.85L0.0453308 94.85L0.0451018 94.85L0.0450293 94.85L0.0447287 94.85L0.0447219 94.85L0.0444288 94.85L0.0443441 94.85L0.0441298 94.85L0.0439684 94.85L0.0438316 94.85L0.0435948 94.85L0.0435342 94.85L0.0432376 94.85L0.0432234 94.85L0.0429419 94.85L0.0428541 94.85L0.042647 94.85L0.0424869 94.85L0.0423529 94.85L0.0421218 94.85L0.0420597 94.85L0.0417673 94.85L0.0417588 94.85L0.0414758 94.85L0.0413979 94.85L0.041185 94.85L0.0410391 94.85L0.0408952 94.85L0.0406823 94.85L0.0406061 94.85L0.0403276 94.85L0.040318 94.85L0.0400306 94.85L0.039975 94.85L0.0397442 94.85L0.0396245 94.85L0.0394585 94.85L0.039276 94.85L0.0391737 94.85L0.0389296 94.85L0.0388898 94.85L0.0386068 94.85L0.0385852 94.85L0.0383246 94.85L0.0382428 94.85L0.0380432 94.85L0.0379025 94.85L0.0377628 94.85L0.0375642 94.85L0.0374832 94.85L0.0372279 94.85L0.0372044 94.85L0.0369265 94.85L0.0368936 94.85L0.0366495 94.85L0.0365614 94.85L0.0363734 94.85L0.0362311 94.85L0.0360982 94.85L0.0359028 94.85L0.0358238 94.85L0.0355765 94.85L0.0355503 94.85L0.0352777 94.85L0.0352522 94.85L0.035006 94.85L0.0349299 94.85L0.0347352 94.85L0.0346096 94.85L0.0344652 94.85L0.0342912 94.85L0.0341962 94.85L0.0339748 94.85L0.033928 94.85L0.0336607 94.85L0.0336603 94.85L0.0333944 94.85L0.0333478 94.85L0.0331289 94.85L0.0330372 94.85L0.0328643 94.85L0.0327285 94.85L0.0326006 94.85L0.0324218 94.85L0.0323379 94.85L0.032117 94.85L0.032076 94.85L0.0318151 94.85L0.0318141 94.85L0.031555 94.85L0.0315131 94.85L0.0312959 94.85L0.0312141 94.85L0.0310377 94.85L0.0309169 94.85L0.0307804 94.85L0.0306216 94.85L0.030524 94.85L0.0303282 94.85L0.0302685 94.85L0.0300367 94.85L0.030014 94.85L0.0297604 94.85L0.0297471 94.85L0.0295077 94.85L0.0294593 94.85L0.0292559 94.85L0.0291734 94.85L0.0290051 94.85L0.0288893 94.85L0.0287552 94.85L0.0286071 94.85L0.0285062 94.85L0.0283268 94.85L0.0282582 94.85L0.0280483 94.85L0.0280111 94.85L0.0277716 94.85L0.0277649 94.85L0.0275197 94.85L0.0274967 94.85L0.0272754 94.85L0.0272237 94.85L0.0270321 94.85L0.0269524 94.85L0.0267898 94.85L0.026683 94.85L0.0265483 94.85L0.0264154 94.85L0.0263079 94.85L0.0261496 94.85L0.0260683 94.85L0.0258855 94.85L0.0258298 94.85L0.0256233 94.85L0.0255922 94.85L0.0253628 94.85L0.0253555 94.85L0.0251198 94.85L0.0251041 94.85L0.0248851 94.85L0.0248471 94.85L0.0246514 94.85L0.024592 94.85L0.0244186 94.85L0.0243385 94.85L0.0241868 94.85L0.0240868 94.85L0.0239559 94.85L0.0238369 94.85L0.023726 94.85L0.0235887 94.85L0.0234972 94.85L0.0233422 94.85L0.0232692 94.85L0.0230975 94.85L0.0230423 94.85L0.0228544 94.85L0.0228163 94.85L0.0226131 94.85L0.0225914 94.85L0.0223735 94.85L0.0223674 94.85L0.0221444 94.85L0.0221356 94.85L0.0219224 94.85L0.0218993 94.85L0.0217013 94.85L0.0216648 94.85L0.0214813 94.85L0.0214319 94.85L0.0212623 94.85L0.0212007 94.85L0.0210443 94.85L0.0209712 94.85L0.0208272 94.85L0.0207434 94.85L0.0206112 94.85L0.0205172 94.85L0.0203962 94.85L0.0202926 94.85L0.0201821 94.85L0.0200697 94.85L0.0199691 94.85L0.0198484 94.85L0.0197571 94.85L0.0196288 94.85L0.0195461 94.85L0.0194108 94.85L0.0193361 94.85L0.0191944 94.85L0.0191272 94.85L0.0189796 94.85L0.0189192 94.85L0.0187665 94.85L0.0187123 94.85L0.0185549 94.85L0.0185064 94.85L0.0183449 94.85L0.0183015 94.85L0.0181366 94.85L0.0180977 94.85L0.0179298 94.85L0.0178948 94.85L0.0177246 94.85L0.017693 94.85L0.0175209 94.85L0.0174923 94.85L0.0173188 94.85L0.0172925 94.85L0.0171183 94.85L0.0170938 94.85L0.0169194 94.85L0.0168961 94.85L0.0167219 94.85L0.0166995 94.85L0.0165261 94.85L0.0165039 94.85L0.0163317 94.85L0.0163094 94.85L0.0161389 94.85L0.0161159 94.85L0.0159476 94.85L0.0159234 94.85L0.0157579 94.85L0.0157321 94.85L0.0155696 94.85L0.0155417 94.85L0.0153828 94.85L0.0153524 94.85L0.0151976 94.85L0.0151642 94.85L0.0150138 94.85L0.014977 94.85L0.0148316 94.85L0.0147909 94.85L0.0146508 94.85L0.0146058 94.85L0.0144714 94.85L0.0144218 94.85L0.0142936 94.85L0.0142389 94.85L0.0141172 94.85L0.014057 94.85L0.0139423 94.85L0.0138762 94.85L0.0137688 94.85L0.0136965 94.85L0.0135968 94.85L0.0135178 94.85L0.0134262 94.85L0.0133402 94.85L0.013257 94.85L0.0131637 94.85L0.0130893 94.85L0.0129883 94.85L0.012923 94.85L0.012814 94.85L0.0127581 94.85L0.0126407 94.85L0.0125946 94.85L0.0124685 94.85L0.0124325 94.85L0.0122974 94.85L0.0122718 94.85L0.0121274 94.85L0.0121125 94.85L0.0119585 94.85L0.0119546 94.85L0.0117981 94.85L0.0117907 94.85L0.0116429 94.85L0.011624 94.85L0.0114891 94.85L0.0114584 94.85L0.0113367 94.85L0.0112938 94.85L0.0111856 94.85L0.0111304 94.85L0.0110359 94.85L0.0109681 94.85L0.0108875 94.85L0.0108069 94.85L0.0107404 94.85L0.0106468 94.85L0.0105947 94.85L0.0104878 94.85L0.0104503 94.85L0.0103299 94.85L0.0103072 94.85L0.0101731 94.85L0.0101654 94.85L0.010025 94.85L0.0100174 94.85L0.00988582 94.85L0.00986288 94.85L0.00974795 94.85L0.00970945 94.85L0.00961136 94.85L0.00955714 94.85L0.00947606 94.85L0.00940596 94.85L0.00934204 94.85L0.0092559 94.85L0.00920928 94.85L0.00910696 94.85L0.00907779 94.85L0.00895916 94.85L0.00894756 94.85L0.00881857 94.85L0.00881249 94.85L0.00869084 94.85L0.00866694 94.85L0.00856434 94.85L0.00852254 94.85L0.00843907 94.85L0.00837927 94.85L0.00831504 94.85L0.00823713 94.85L0.00819222 94.85L0.00809614 94.85L0.00807062 94.85L0.00795629 94.85L0.00795023 94.85L0.00783104 94.85L0.00781759 94.85L0.00771305 94.85L0.00768003 94.85L0.00759625 94.85L0.00754362 94.85L0.00748064 94.85L0.00740836 94.85L0.0073662 94.85L0.00727425 94.85L0.00725294 94.85L0.0071413 94.85L0.00714084 94.85L0.00702991 94.85L0.00700951 94.85L0.00692013 94.85L0.00687887 94.85L0.0068115 94.85L0.00674939 94.85L0.00670401 94.85L0.00662108 94.85L0.00659766 94.85L0.00649393 94.85L0.00649244 94.85L0.00638834 94.85L0.00636794 94.85L0.00628537 94.85L0.00624313 94.85L0.0061835 94.85L0.00611948 94.85L0.00608274 94.85L0.00599701 94.85L0.00598309 94.85L0.00588452 94.85L0.00587571 94.85L0.00578705 94.85L0.00575559 94.85L0.00569066 94.85L0.00563664 94.85L0.00559534 94.85L0.00551888 94.85L0.00550109 94.85L0.00540791 94.85L0.0054023 94.85L0.00531579 94.85L0.0052869 94.85L0.00522472 94.85L0.00517269 94.85L0.00513469 94.85L0.00505967 94.85L0.00504571 94.85L0.00495776 94.85L0.00494783 94.85L0.00487084 94.85L0.00483719 94.85L0.00478494 94.85L0.00472775 94.85L0.00470005 94.85L0.0046195 94.85L0.00461618 94.85L0.00453331 94.85L0.00451244 94.85L0.00445143 94.85L0.00440659 94.85L0.00437055 94.85L0.00430194 94.85L0.00429065 94.85L0.00421174 94.85L0.0041985 94.85L0.0041338 94.85L0.00409626 94.85L0.00405682 94.85L0.00399522 94.85L0.00398081 94.85L0.00390575 94.85L0.0038954 94.85L0.00383164 94.85L0.00379679 94.85L0.00375847 94.85L0.0036994 94.85L0.00368625 94.85L0.00361495 94.85L0.00360322 94.85L0.00354458 94.85L0.00350826 94.85L0.00347513 94.85L0.00341452 94.85L0.00340659 94.85L0.00333896 94.85L0.003322 94.85L0.00327223 94.85L0.0032307 94.85L0.00320639 94.85L0.00314144 94.85L0.00314063 94.85L0.00307738 94.85L0.00305179 94.85L0.00301419 94.85L0.00296418 94.85L0.00295188 94.85L0.00289043 94.85L0.0028778 94.85L0.00282983 94.85L0.00279265 94.85L0.00277009 94.85L0.0027112 94.85L0.00270874 94.85L0.00265315 94.85L0.00262607 94.85L0.00259593 94.85L0.00254464 94.85L0.00253954 94.85L0.00248398 94.85L0.00246445 94.85L0.00242923 94.85L0.0023855 94.85L0.00237529 94.85L0.00232215 94.85L0.0023078 94.85L0.00226981 94.85L0.00223134 94.85L0.00221827 94.85L0.00216751 94.85L0.00215614 94.85L0.00211753 94.85L0.00208219 94.85L0.00206833 94.85L0.00201989 94.85L0.00200949 94.85L0.00197222 94.85L0.00193805 94.85L0.0019253 94.85L0.00187914 94.85L0.00186786 94.85L0.00183371 94.85L0.00179894 94.85L0.00178903 94.85L0.00174507 94.85L0.00173128 94.85L0.00170184 94.85L0.00166488 94.85L0.00165934 94.85L0.00161754 94.85L0.00159974 94.85L0.00157646 94.85L0.00153607 94.85L0.00153588 94.85L0.00149638 94.85L0.00147328 94.85L0.00145738 94.85L0.00141907 94.85L0.00141196 94.85L0.00138143 94.85L0.00135191 94.85L0.00134446 94.85L0.00130816 94.85L0.00129313 94.85L0.00127252 94.85L0.00123753 94.85L0.00123563 94.85L0.00120319 94.85L0.00117941 94.85L0.00116948 94.85L0.00113642 94.85L0.00112448 94.85L0.00110398 94.85L0.00107217 94.85L0.00107082 94.85L0.00104097 94.85L0.00101846 94.85L0.00101039 94.85L0.00098041 94.85L0.000967377 94.85L0.000951029 94.85L0.00092224 94.85L0.000917586 94.85L0.000894039 94.85L0.000869087 94.85L0.000866419 94.85L0.000839373 94.85L0.000821882 94.85L0.000812896 94.85L0.000786982 94.85L0.000775972 94.85L0.000761624 94.85L0.000736817 94.85L0.000731359 94.85L0.000712555 94.85L0.000688831 94.85L0.000688046 94.85L0.000665639 94.85L0.000646034 94.85L0.000642974 94.85L0.00062083 94.85L0.000605325 94.85L0.000599199 94.85L0.000578077 94.85L0.000565922 94.85L0.000557458 94.85L0.000537334 94.85L0.000527827 94.85L0.000517701 94.85L0.000498551 94.85L0.000491041 94.85L0.00047988 94.85L0.000461681 94.85L0.000455566 94.85L0.000443948 94.85L0.000426675 94.85L0.000421404 94.85L0.000409856 94.85L0.000393484 94.85L0.000388558 94.85L0.000377555 94.85L0.000362061 94.85L0.000357029 94.85L0.000346997 94.85L0.000332356 94.85L0.00032682 94.85L0.000318134 94.85L0.000304323 94.85L0.000297932 94.85L0.000290917 94.85L0.000277911 94.85L0.000270367 94.85L0.000265299 94.85L0.000253073 94.85L0.000244127 94.85L0.00024123 94.85L0.000229761 94.85L0.000219215 94.85L0.000218662 94.85L0.000207927 94.85L0.000197548 94.85L0.000195631 94.85L0.000187521 94.85L0.000177839 94.85L0.000173379 94.85L0.000168495 94.85L0.000159485 94.85L0.000152461 94.85L0.000150802 94.85L0.00014244 94.85L0.000134393 94.85L0.000132877 94.85L0.000126655 94.85L0.000119219 94.85L0.000114631 94.85L0.000112081 94.85L0.000105233 94.85L9.86697e-05 94.85L9.77236e-05 94.85L9.23852e-05 94.85L8.63733e-05 94.85L8.21576e-05 94.85L8.06279e-05 94.85L7.51432e-05 94.85L6.99129e-05 94.85L6.79347e-05 94.85L6.4931e-05 94.85L6.01916e-05 94.85L5.56885e-05 94.85L5.50569e-05 94.85L5.14158e-05 94.85L4.73673e-05 94.85L4.35263e-05 94.85L3.99191e-05 94.85L3.65072e-05 94.85L3.33448e-05 94.85L3.02777e-05 94.85L2.7448e-05 94.85L2.48003e-05 94.85L2.45143e-05 94.85L2.23285e-05 94.85L2.00266e-05 94.85L1.78886e-05 94.85L1.7037e-05 94.85L1.59084e-05 94.85L1.40799e-05 94.85L1.23972e-05 94.85L1.09147e-05 94.85L9.44469e-06 94.85L8.16285e-06 94.85L7.00256e-06 94.85L6.14946e-06 94.85L5.95778e-06 94.85L5.02246e-06 94.85L4.19056e-06 94.85L3.45604e-06 94.85L2.74326e-06 94.85L2.25495e-06 94.85L1.31134e-08 94.85L0 95L-1.31134e-08 95.15L2.22873e-06 95.15L2.71703e-06 95.15L3.42981e-06 95.15L4.16433e-06 95.15L4.99623e-06 95.15L5.93155e-06 95.15L6.12323e-06 95.15L6.97634e-06 95.15L8.13662e-06 95.15L9.41846e-06 95.15L1.08885e-05 95.15L1.2371e-05 95.15L1.40537e-05 95.15L1.58822e-05 95.15L1.70108e-05 95.15L1.78624e-05 95.15L2.00004e-05 95.15L2.23023e-05 95.15L2.44881e-05 95.15L2.47741e-05 95.15L2.74218e-05 95.15L3.02515e-05 95.15L3.33186e-05 95.15L3.6481e-05 95.15L3.98929e-05 95.15L4.35001e-05 95.15L4.73411e-05 95.15L5.13896e-05 95.15L5.50307e-05 95.15L5.56623e-05 95.15L6.01654e-05 95.15L6.49048e-05 95.15L6.79085e-05 95.15L6.98866e-05 95.15L7.51169e-05 95.15L8.06017e-05 95.15L8.21313e-05 95.15L8.6347e-05 95.15L9.23589e-05 95.15L9.76974e-05 95.15L9.86435e-05 95.15L0.000105207 95.15L0.000112055 95.15L0.000114605 95.15L0.000119193 95.15L0.000126629 95.15L0.000132851 95.15L0.000134367 95.15L0.000142414 95.15L0.000150776 95.15L0.000152434 95.15L0.000159459 95.15L0.000168469 95.15L0.000173353 95.15L0.000177812 95.15L0.000187495 95.15L0.000195605 95.15L0.000197522 95.15L0.0002079 95.15L0.000218636 95.15L0.000219188 95.15L0.000229735 95.15L0.000241204 95.15L0.000244101 95.15L0.000253047 95.15L0.000265272 95.15L0.00027034 95.15L0.000277885 95.15L0.000290891 95.15L0.000297905 95.15L0.000304296 95.15L0.000318107 95.15L0.000326794 95.15L0.00033233 95.15L0.000346971 95.15L0.000357003 95.15L0.000362035 95.15L0.000377528 95.15L0.000388532 95.15L0.000393458 95.15L0.000409829 95.15L0.000421378 95.15L0.000426649 95.15L0.000443922 95.15L0.00045554 95.15L0.000461655 95.15L0.000479854 95.15L0.000491014 95.15L0.000498525 95.15L0.000517674 95.15L0.000527801 95.15L0.000537308 95.15L0.000557431 95.15L0.000565896 95.15L0.000578051 95.15L0.000599173 95.15L0.000605299 95.15L0.000620804 95.15L0.000642948 95.15L0.000646008 95.15L0.000665613 95.15L0.000688019 95.15L0.000688805 95.15L0.000712529 95.15L0.000731333 95.15L0.000736791 95.15L0.000761598 95.15L0.000775945 95.15L0.000786956 95.15L0.00081287 95.15L0.000821855 95.15L0.000839347 95.15L0.000866393 95.15L0.000869061 95.15L0.000894013 95.15L0.00091756 95.15L0.000922214 95.15L0.000951002 95.15L0.000967351 95.15L0.000980383 95.15L0.00101036 95.15L0.00101843 95.15L0.00104095 95.15L0.0010708 95.15L0.00107214 95.15L0.00110396 95.15L0.00112445 95.15L0.00113639 95.15L0.00116946 95.15L0.00117939 95.15L0.00120316 95.15L0.00123561 95.15L0.0012375 95.15L0.00127249 95.15L0.0012931 95.15L0.00130813 95.15L0.00134443 95.15L0.00135188 95.15L0.0013814 95.15L0.00141193 95.15L0.00141904 95.15L0.00145736 95.15L0.00147326 95.15L0.00149636 95.15L0.00153585 95.15L0.00153604 95.15L0.00157643 95.15L0.00159972 95.15L0.00161752 95.15L0.00165931 95.15L0.00166485 95.15L0.00170182 95.15L0.00173125 95.15L0.00174505 95.15L0.001789 95.15L0.00179891 95.15L0.00183369 95.15L0.00186784 95.15L0.00187911 95.15L0.00192528 95.15L0.00193802 95.15L0.00197219 95.15L0.00200947 95.15L0.00201987 95.15L0.0020683 95.15L0.00208216 95.15L0.00211751 95.15L0.00215611 95.15L0.00216748 95.15L0.00221824 95.15L0.00223132 95.15L0.00226979 95.15L0.00230777 95.15L0.00232212 95.15L0.00237526 95.15L0.00238547 95.15L0.0024292 95.15L0.00246442 95.15L0.00248395 95.15L0.00253952 95.15L0.00254461 95.15L0.0025959 95.15L0.00262604 95.15L0.00265312 95.15L0.00270871 95.15L0.00271117 95.15L0.00277007 95.15L0.00279262 95.15L0.00282981 95.15L0.00287777 95.15L0.0028904 95.15L0.00295185 95.15L0.00296415 95.15L0.00301417 95.15L0.00305176 95.15L0.00307735 95.15L0.0031406 95.15L0.00314142 95.15L0.00320636 95.15L0.00323067 95.15L0.0032722 95.15L0.00332197 95.15L0.00333893 95.15L0.00340656 95.15L0.00341449 95.15L0.0034751 95.15L0.00350823 95.15L0.00354455 95.15L0.00360319 95.15L0.00361492 95.15L0.00368622 95.15L0.00369937 95.15L0.00375845 95.15L0.00379677 95.15L0.00383161 95.15L0.00389538 95.15L0.00390572 95.15L0.00398078 95.15L0.0039952 95.15L0.00405679 95.15L0.00409623 95.15L0.00413377 95.15L0.00419847 95.15L0.00421171 95.15L0.00429063 95.15L0.00430192 95.15L0.00437052 95.15L0.00440657 95.15L0.00445141 95.15L0.00451242 95.15L0.00453328 95.15L0.00461615 95.15L0.00461947 95.15L0.00470003 95.15L0.00472772 95.15L0.00478491 95.15L0.00483717 95.15L0.00487081 95.15L0.00494781 95.15L0.00495773 95.15L0.00504568 95.15L0.00505964 95.15L0.00513467 95.15L0.00517266 95.15L0.00522469 95.15L0.00528687 95.15L0.00531576 95.15L0.00540227 95.15L0.00540789 95.15L0.00550107 95.15L0.00551885 95.15L0.00559531 95.15L0.00563662 95.15L0.00569063 95.15L0.00575556 95.15L0.00578702 95.15L0.00587568 95.15L0.0058845 95.15L0.00598306 95.15L0.00599698 95.15L0.00608272 95.15L0.00611946 95.15L0.00618347 95.15L0.0062431 95.15L0.00628534 95.15L0.00636792 95.15L0.00638832 95.15L0.00649241 95.15L0.0064939 95.15L0.00659763 95.15L0.00662105 95.15L0.00670398 95.15L0.00674937 95.15L0.00681147 95.15L0.00687884 95.15L0.0069201 95.15L0.00700948 95.15L0.00702988 95.15L0.00714082 95.15L0.00714128 95.15L0.00725291 95.15L0.00727423 95.15L0.00736617 95.15L0.00740833 95.15L0.00748061 95.15L0.00754359 95.15L0.00759622 95.15L0.00768 95.15L0.00771302 95.15L0.00781756 95.15L0.00783101 95.15L0.0079502 95.15L0.00795627 95.15L0.00807059 95.15L0.00809612 95.15L0.00819219 95.15L0.00823711 95.15L0.00831501 95.15L0.00837924 95.15L0.00843905 95.15L0.00852251 95.15L0.00856431 95.15L0.00866692 95.15L0.00869081 95.15L0.00881246 95.15L0.00881855 95.15L0.00894753 95.15L0.00895913 95.15L0.00907776 95.15L0.00910694 95.15L0.00920926 95.15L0.00925587 95.15L0.00934201 95.15L0.00940593 95.15L0.00947604 95.15L0.00955712 95.15L0.00961134 95.15L0.00970942 95.15L0.00974792 95.15L0.00986285 95.15L0.00988579 95.15L0.0100174 95.15L0.010025 95.15L0.0101654 95.15L0.0101731 95.15L0.0103072 95.15L0.0103298 95.15L0.0104503 95.15L0.0104877 95.15L0.0105947 95.15L0.0106467 95.15L0.0107404 95.15L0.0108068 95.15L0.0108875 95.15L0.0109681 95.15L0.0110358 95.15L0.0111304 95.15L0.0111856 95.15L0.0112938 95.15L0.0113367 95.15L0.0114583 95.15L0.0114891 95.15L0.011624 95.15L0.0116429 95.15L0.0117907 95.15L0.0117981 95.15L0.0119546 95.15L0.0119585 95.15L0.0121125 95.15L0.0121274 95.15L0.0122718 95.15L0.0122974 95.15L0.0124325 95.15L0.0124685 95.15L0.0125946 95.15L0.0126407 95.15L0.0127581 95.15L0.0128139 95.15L0.012923 95.15L0.0129883 95.15L0.0130893 95.15L0.0131637 95.15L0.013257 95.15L0.0133402 95.15L0.0134262 95.15L0.0135178 95.15L0.0135968 95.15L0.0136964 95.15L0.0137688 95.15L0.0138762 95.15L0.0139423 95.15L0.014057 95.15L0.0141172 95.15L0.0142388 95.15L0.0142936 95.15L0.0144218 95.15L0.0144714 95.15L0.0146058 95.15L0.0146507 95.15L0.0147908 95.15L0.0148315 95.15L0.014977 95.15L0.0150138 95.15L0.0151641 95.15L0.0151976 95.15L0.0153524 95.15L0.0153828 95.15L0.0155417 95.15L0.0155696 95.15L0.015732 95.15L0.0157578 95.15L0.0159234 95.15L0.0159476 95.15L0.0161159 95.15L0.0161389 95.15L0.0163094 95.15L0.0163317 95.15L0.0165039 95.15L0.016526 95.15L0.0166995 95.15L0.0167219 95.15L0.0168961 95.15L0.0169193 95.15L0.0170938 95.15L0.0171183 95.15L0.0172925 95.15L0.0173188 95.15L0.0174922 95.15L0.0175209 95.15L0.017693 95.15L0.0177245 95.15L0.0178948 95.15L0.0179297 95.15L0.0180976 95.15L0.0181365 95.15L0.0183015 95.15L0.0183449 95.15L0.0185064 95.15L0.0185549 95.15L0.0187123 95.15L0.0187664 95.15L0.0189192 95.15L0.0189796 95.15L0.0191272 95.15L0.0191944 95.15L0.0193361 95.15L0.0194108 95.15L0.0195461 95.15L0.0196288 95.15L0.0197571 95.15L0.0198484 95.15L0.0199691 95.15L0.0200697 95.15L0.0201821 95.15L0.0202926 95.15L0.0203961 95.15L0.0205171 95.15L0.0206112 95.15L0.0207433 95.15L0.0208272 95.15L0.0209712 95.15L0.0210442 95.15L0.0212007 95.15L0.0212623 95.15L0.0214319 95.15L0.0214813 95.15L0.0216648 95.15L0.0217013 95.15L0.0218993 95.15L0.0219223 95.15L0.0221355 95.15L0.0221444 95.15L0.0223674 95.15L0.0223735 95.15L0.0225913 95.15L0.0226131 95.15L0.0228163 95.15L0.0228544 95.15L0.0230423 95.15L0.0230974 95.15L0.0232692 95.15L0.0233422 95.15L0.0234971 95.15L0.0235887 95.15L0.023726 95.15L0.0238369 95.15L0.0239559 95.15L0.0240868 95.15L0.0241867 95.15L0.0243385 95.15L0.0244186 95.15L0.0245919 95.15L0.0246513 95.15L0.0248471 95.15L0.0248851 95.15L0.025104 95.15L0.0251198 95.15L0.0253555 95.15L0.0253628 95.15L0.0255921 95.15L0.0256232 95.15L0.0258297 95.15L0.0258855 95.15L0.0260683 95.15L0.0261495 95.15L0.0263078 95.15L0.0264154 95.15L0.0265483 95.15L0.026683 95.15L0.0267897 95.15L0.0269524 95.15L0.0270321 95.15L0.0272236 95.15L0.0272754 95.15L0.0274967 95.15L0.0275197 95.15L0.0277649 95.15L0.0277715 95.15L0.0280111 95.15L0.0280482 95.15L0.0282581 95.15L0.0283268 95.15L0.0285062 95.15L0.0286071 95.15L0.0287551 95.15L0.0288893 95.15L0.029005 95.15L0.0291734 95.15L0.0292559 95.15L0.0294593 95.15L0.0295076 95.15L0.0297471 95.15L0.0297603 95.15L0.030014 95.15L0.0300367 95.15L0.0302685 95.15L0.0303282 95.15L0.030524 95.15L0.0306216 95.15L0.0307803 95.15L0.0309169 95.15L0.0310376 95.15L0.0312141 95.15L0.0312959 95.15L0.0315131 95.15L0.031555 95.15L0.0318141 95.15L0.031815 95.15L0.032076 95.15L0.032117 95.15L0.0323378 95.15L0.0324218 95.15L0.0326006 95.15L0.0327285 95.15L0.0328643 95.15L0.0330372 95.15L0.0331289 95.15L0.0333477 95.15L0.0333943 95.15L0.0336603 95.15L0.0336607 95.15L0.033928 95.15L0.0339747 95.15L0.0341961 95.15L0.0342912 95.15L0.0344652 95.15L0.0346096 95.15L0.0347351 95.15L0.0349299 95.15L0.035006 95.15L0.0352522 95.15L0.0352777 95.15L0.0355503 95.15L0.0355765 95.15L0.0358238 95.15L0.0359028 95.15L0.0360982 95.15L0.0362311 95.15L0.0363734 95.15L0.0365613 95.15L0.0366495 95.15L0.0368936 95.15L0.0369265 95.15L0.0372044 95.15L0.0372279 95.15L0.0374831 95.15L0.0375641 95.15L0.0377627 95.15L0.0379024 95.15L0.0380432 95.15L0.0382428 95.15L0.0383245 95.15L0.0385851 95.15L0.0386067 95.15L0.0388898 95.15L0.0389295 95.15L0.0391737 95.15L0.039276 95.15L0.0394585 95.15L0.0396245 95.15L0.0397441 95.15L0.039975 95.15L0.0400306 95.15L0.0403179 95.15L0.0403276 95.15L0.0406061 95.15L0.0406823 95.15L0.0408952 95.15L0.041039 95.15L0.041185 95.15L0.0413978 95.15L0.0414757 95.15L0.0417588 95.15L0.0417673 95.15L0.0420597 95.15L0.0421218 95.15L0.0423529 95.15L0.0424869 95.15L0.042647 95.15L0.0428541 95.15L0.0429419 95.15L0.0432234 95.15L0.0432376 95.15L0.0435342 95.15L0.0435948 95.15L0.0438316 95.15L0.0439684 95.15L0.0441298 95.15L0.044344 95.15L0.0444288 95.15L0.0447219 95.15L0.0447286 95.15L0.0450293 95.15L0.0451018 95.15L0.0453308 95.15L0.0454839 95.15L0.0456331 95.15L0.0458682 95.15L0.0459362 95.15L0.0462401 95.15L0.0462546 95.15L0.0465449 95.15L0.0466431 95.15L0.0468504 95.15L0.0470339 95.15L0.0471568 95.15L0.0474268 95.15L0.0474639 95.15L0.0477719 95.15L0.0478219 95.15L0.0480806 95.15L0.0482192 95.15L0.0483902 95.15L0.0486187 95.15L0.0487005 95.15L0.0490116 95.15L0.0490204 95.15L0.0493236 95.15L0.0494242 95.15L0.0496363 95.15L0.0498303 95.15L0.0499498 95.15L0.0502387 95.15L0.0502641 95.15L0.0505791 95.15L0.0506492 95.15L0.050895 95.15L0.051062 95.15L0.0512116 95.15L0.051477 95.15L0.051529 95.15L0.0518472 95.15L0.0518943 95.15L0.0521661 95.15L0.0523138 95.15L0.0524859 95.15L0.0527355 95.15L0.0528064 95.15L0.0531276 95.15L0.0531595 95.15L0.0534497 95.15L0.0535858 95.15L0.0537724 95.15L0.0540144 95.15L0.054096 95.15L0.0544203 95.15L0.0544452 95.15L0.0547454 95.15L0.0548783 95.15L0.0550712 95.15L0.0553138 95.15L0.0553978 95.15L0.0557251 95.15L0.0557515 95.15L0.0560532 95.15L0.0561915 95.15L0.056382 95.15L0.0566338 95.15L0.0567116 95.15L0.0570419 95.15L0.0570784 95.15L0.0573729 95.15L0.0575254 95.15L0.0577047 95.15L0.0579747 95.15L0.0580372 95.15L0.0583705 95.15L0.0584263 95.15L0.0587045 95.15L0.0588803 95.15L0.0590392 95.15L0.0593366 95.15L0.0593747 95.15L0.0597109 95.15L0.0597952 95.15L0.0600478 95.15L0.0602562 95.15L0.0603854 95.15L0.0607196 95.15L0.0607238 95.15L0.0610628 95.15L0.0611854 95.15L0.0614026 95.15L0.0616535 95.15L0.0617431 95.15L0.0620844 95.15L0.062124 95.15L0.0624263 95.15L0.0625969 95.15L0.0627689 95.15L0.0630722 95.15L0.0631123 95.15L0.0634563 95.15L0.0635498 95.15L0.0638011 95.15L0.0640299 95.15L0.0641466 95.15L0.0644927 95.15L0.0645124 95.15L0.0648396 95.15L0.0649974 95.15L0.0651871 95.15L0.0654847 95.15L0.0655354 95.15L0.0658843 95.15L0.0659745 95.15L0.0662339 95.15L0.0664667 95.15L0.0665843 95.15L0.0669353 95.15L0.0669613 95.15L0.0672869 95.15L0.0674584 95.15L0.0676393 95.15L0.067958 95.15L0.0679923 95.15L0.0683461 95.15L0.06846 95.15L0.0687005 95.15L0.0689645 95.15L0.0690555 95.15L0.0694113 95.15L0.0694714 95.15L0.0697677 95.15L0.0699809 95.15L0.0701248 95.15L0.0704825 95.15L0.0704928 95.15L0.0708409 95.15L0.0710072 95.15L0.0712 95.15L0.0715241 95.15L0.0715597 95.15L0.0719201 95.15L0.0720435 95.15L0.0722812 95.15L0.0725654 95.15L0.0726429 95.15L0.0730052 95.15L0.0730898 95.15L0.0733682 95.15L0.0736168 95.15L0.0737319 95.15L0.0740962 95.15L0.0741463 95.15L0.0744611 95.15L0.0746783 95.15L0.0748267 95.15L0.0751929 95.15L0.0752128 95.15L0.0755598 95.15L0.0757499 95.15L0.0759273 95.15L0.0762896 95.15L0.0762954 95.15L0.0766642 95.15L0.0768318 95.15L0.0770336 95.15L0.0773765 95.15L0.0774036 95.15L0.0777742 95.15L0.0779238 95.15L0.0781455 95.15L0.0784737 95.15L0.0785174 95.15L0.0788899 95.15L0.0790262 95.15L0.079263 95.15L0.0795813 95.15L0.0796368 95.15L0.0800111 95.15L0.080139 95.15L0.0803861 95.15L0.0806992 95.15L0.0807617 95.15L0.0811379 95.15L0.0812621 95.15L0.0815147 95.15L0.0818276 95.15L0.0818921 95.15L0.0822701 95.15L0.0823957 95.15L0.0826487 95.15L0.0829664 95.15L0.0830279 95.15L0.0834077 95.15L0.0835398 95.15L0.0837881 95.15L0.0841158 95.15L0.0841691 95.15L0.0845507 95.15L0.0846944 95.15L0.0849328 95.15L0.0852757 95.15L0.0853156 95.15L0.0856989 95.15L0.0858596 95.15L0.0860828 95.15L0.0864462 95.15L0.0864673 95.15L0.0868524 95.15L0.0870354 95.15L0.087238 95.15L0.0876243 95.15L0.0876274 95.15L0.0880111 95.15L0.088222 95.15L0.0883984 95.15L0.0887864 95.15L0.0888193 95.15L0.0891749 95.15L0.0894192 95.15L0.0895639 95.15L0.0899536 95.15L0.0900219 95.15L0.0903438 95.15L0.0906273 95.15L0.0907345 95.15L0.0911258 95.15L0.0912354 95.15L0.0915177 95.15L0.0918462 95.15L0.0919101 95.15L0.092303 95.15L0.0924597 95.15L0.0926966 95.15L0.0930759 95.15L0.0930906 95.15L0.0934852 95.15L0.0936949 95.15L0.0938804 95.15L0.0942761 95.15L0.0943166 95.15L0.0946723 95.15L0.0949411 95.15L0.095069 95.15L0.0954663 95.15L0.0955683 95.15L0.0958642 95.15L0.0961983 95.15L0.0962625 95.15L0.0966614 95.15L0.096831 95.15L0.0970608 95.15L0.0974608 95.15L0.0974665 95.15L0.0978612 95.15L0.0981048 95.15L0.0982622 95.15L0.0986637 95.15L0.0987458 95.15L0.0990657 95.15L0.0993896 95.15L0.0994683 95.15L0.0998713 95.15L0.100036 95.15L0.100275 95.15L0.100679 95.15L0.100686 95.15L0.101084 95.15L0.101338 95.15L0.101489 95.15L0.101894 95.15L0.101993 95.15L0.1023 95.15L0.102651 95.15L0.102707 95.15L0.103114 95.15L0.103312 95.15L0.103521 95.15L0.10393 95.15L0.103975 95.15L0.104338 95.15L0.104641 95.15L0.104747 95.15L0.105157 95.15L0.105311 95.15L0.105567 95.15L0.105977 95.15L0.105983 95.15L0.106388 95.15L0.106657 95.15L0.1068 95.15L0.107212 95.15L0.107335 95.15L0.107624 95.15L0.108016 95.15L0.108037 95.15L0.10845 95.15L0.108699 95.15L0.108864 95.15L0.109278 95.15L0.109386 95.15L0.109693 95.15L0.110075 95.15L0.110108 95.15L0.110524 95.15L0.110767 95.15L0.11094 95.15L0.111357 95.15L0.111462 95.15L0.111774 95.15L0.11216 95.15L0.112191 95.15L0.112609 95.15L0.112861 95.15L0.113028 95.15L0.113447 95.15L0.113565 95.15L0.113866 95.15L0.114271 95.15L0.114286 95.15L0.114706 95.15L0.114981 95.15L0.115126 95.15L0.115547 95.15L0.115693 95.15L0.115969 95.15L0.116391 95.15L0.116409 95.15L0.116813 95.15L0.117127 95.15L0.117236 95.15L0.117659 95.15L0.117849 95.15L0.118083 95.15L0.118507 95.15L0.118573 95.15L0.118931 95.15L0.1193 95.15L0.119356 95.15L0.119782 95.15L0.12003 95.15L0.120207 95.15L0.120634 95.15L0.120764 95.15L0.12106 95.15L0.121487 95.15L0.1215 95.15L0.121915 95.15L0.122239 95.15L0.122342 95.15L0.12277 95.15L0.122981 95.15L0.123199 95.15L0.123628 95.15L0.123726 95.15L0.124057 95.15L0.124475 95.15L0.124487 95.15L0.124917 95.15L0.125226 95.15L0.125348 95.15L0.125779 95.15L0.12598 95.15L0.12621 95.15L0.126642 95.15L0.126737 95.15L0.127074 95.15L0.127497 95.15L0.127507 95.15L0.12794 95.15L0.128261 95.15L0.128373 95.15L0.128806 95.15L0.129027 95.15L0.12924 95.15L0.129675 95.15L0.129796 95.15L0.13011 95.15L0.130545 95.15L0.130569 95.15L0.13098 95.15L0.131344 95.15L0.131416 95.15L0.131852 95.15L0.132123 95.15L0.132289 95.15L0.132726 95.15L0.132905 95.15L0.133163 95.15L0.133601 95.15L0.133689 95.15L0.134039 95.15L0.134477 95.15L162.866 95.15L162.866 95.15L162.866 95.15L162.867 95.15L162.867 95.15L162.868 95.15L162.868 95.15L162.869 95.15L162.869 95.15L162.869 95.15L162.87 95.15L162.87 95.15L162.871 95.15L162.871 95.15L162.872 95.15L162.872 95.15L162.872 95.15L162.873 95.15L162.873 95.15L162.874 95.15L162.874 95.15L162.875 95.15L162.875 95.15L162.876 95.15L162.876 95.15L162.876 95.15L162.877 95.15L162.877 95.15L162.878 95.15L162.878 95.15L162.879 95.15L162.879 95.15L162.879 95.15L162.88 95.15L162.88 95.15L162.881 95.15L162.881 95.15L162.882 95.15L162.882 95.15L162.882 95.15L162.883 95.15L162.883 95.15L162.884 95.15L162.884 95.15L162.884 95.15L162.885 95.15L162.885 95.15L162.886 95.15L162.886 95.15L162.887 95.15L162.887 95.15L162.887 95.15L162.888 95.15L162.888 95.15L162.889 95.15L162.889 95.15L162.889 95.15L162.89 95.15L162.89 95.15L162.891 95.15L162.891 95.15L162.892 95.15L162.892 95.15L162.892 95.15L162.893 95.15L162.893 95.15L162.894 95.15L162.894 95.15L162.894 95.15L162.895 95.15L162.895 95.15L162.896 95.15L162.896 95.15L162.896 95.15L162.897 95.15L162.897 95.15L162.898 95.15L162.898 95.15L162.899 95.15L162.899 95.15L162.899 95.15L162.9 95.15L162.9 95.15L162.901 95.15L162.901 95.15L162.901 95.15L162.902 95.15L162.902 95.15L162.903 95.15L162.903 95.15L162.903 95.15L162.904 95.15L162.904 95.15L162.905 95.15L162.905 95.15L162.905 95.15L162.906 95.15L162.906 95.15L162.907 95.15L162.907 95.15L162.907 95.15L162.908 95.15L162.908 95.15L162.908 95.15L162.909 95.15L162.909 95.15L162.91 95.15L162.91 95.15L162.91 95.15L162.911 95.15L162.911 95.15L162.912 95.15L162.912 95.15L162.912 95.15L162.913 95.15L162.913 95.15L162.914 95.15L162.914 95.15L162.914 95.15L162.915 95.15L162.915 95.15L162.915 95.15L162.916 95.15L162.916 95.15L162.917 95.15L162.917 95.15L162.917 95.15L162.918 95.15L162.918 95.15L162.918 95.15L162.919 95.15L162.919 95.15L162.92 95.15L162.92 95.15L162.92 95.15L162.921 95.15L162.921 95.15L162.921 95.15L162.922 95.15L162.922 95.15L162.923 95.15L162.923 95.15L162.923 95.15L162.924 95.15L162.924 95.15L162.924 95.15L162.925 95.15L162.925 95.15L162.926 95.15L162.926 95.15L162.926 95.15L162.927 95.15L162.927 95.15L162.927 95.15L162.928 95.15L162.928 95.15L162.928 95.15L162.929 95.15L162.929 95.15L162.93 95.15L162.93 95.15L162.93 95.15L162.931 95.15L162.931 95.15L162.931 95.15L162.932 95.15L162.932 95.15L162.932 95.15L162.933 95.15L162.933 95.15L162.933 95.15L162.934 95.15L162.934 95.15L162.934 95.15L162.935 95.15L162.935 95.15L162.936 95.15L162.936 95.15L162.936 95.15L162.937 95.15L162.937 95.15L162.937 95.15L162.938 95.15L162.938 95.15L162.938 95.15L162.939 95.15L162.939 95.15L162.939 95.15L162.94 95.15L162.94 95.15L162.94 95.15L162.941 95.15L162.941 95.15L162.941 95.15L162.942 95.15L162.942 95.15L162.942 95.15L162.943 95.15L162.943 95.15L162.943 95.15L162.944 95.15L162.944 95.15L162.944 95.15L162.945 95.15L162.945 95.15L162.945 95.15L162.946 95.15L162.946 95.15L162.946 95.15L162.947 95.15L162.947 95.15L162.947 95.15L162.948 95.15L162.948 95.15L162.948 95.15L162.948 95.15L162.949 95.15L162.949 95.15L162.949 95.15L162.95 95.15L162.95 95.15L162.95 95.15L162.951 95.15L162.951 95.15L162.951 95.15L162.952 95.15L162.952 95.15L162.952 95.15L162.953 95.15L162.953 95.15L162.953 95.15L162.953 95.15L162.954 95.15L162.954 95.15L162.954 95.15L162.955 95.15L162.955 95.15L162.955 95.15L162.956 95.15L162.956 95.15L162.956 95.15L162.956 95.15L162.957 95.15L162.957 95.15L162.957 95.15L162.958 95.15L162.958 95.15L162.958 95.15L162.959 95.15L162.959 95.15L162.959 95.15L162.959 95.15L162.96 95.15L162.96 95.15L162.96 95.15L162.961 95.15L162.961 95.15L162.961 95.15L162.961 95.15L162.962 95.15L162.962 95.15L162.962 95.15L162.963 95.15L162.963 95.15L162.963 95.15L162.963 95.15L162.964 95.15L162.964 95.15L162.964 95.15L162.964 95.15L162.965 95.15L162.965 95.15L162.965 95.15L162.966 95.15L162.966 95.15L162.966 95.15L162.966 95.15L162.967 95.15L162.967 95.15L162.967 95.15L162.967 95.15L162.968 95.15L162.968 95.15L162.968 95.15L162.968 95.15L162.969 95.15L162.969 95.15L162.969 95.15L162.969 95.15L162.97 95.15L162.97 95.15L162.97 95.15L162.97 95.15L162.971 95.15L162.971 95.15L162.971 95.15L162.971 95.15L162.972 95.15L162.972 95.15L162.972 95.15L162.972 95.15L162.973 95.15L162.973 95.15L162.973 95.15L162.973 95.15L162.974 95.15L162.974 95.15L162.974 95.15L162.974 95.15L162.975 95.15L162.975 95.15L162.975 95.15L162.975 95.15L162.976 95.15L162.976 95.15L162.976 95.15L162.976 95.15L162.977 95.15L162.977 95.15L162.977 95.15L162.977 95.15L162.977 95.15L162.978 95.15L162.978 95.15L162.978 95.15L162.978 95.15L162.979 95.15L162.979 95.15L162.979 95.15L162.979 95.15L162.979 95.15L162.98 95.15L162.98 95.15L162.98 95.15L162.98 95.15L162.98 95.15L162.981 95.15L162.981 95.15L162.981 95.15L162.981 95.15L162.981 95.15L162.982 95.15L162.982 95.15L162.982 95.15L162.982 95.15L162.983 95.15L162.983 95.15L162.983 95.15L162.983 95.15L162.983 95.15L162.984 95.15L162.984 95.15L162.984 95.15L162.984 95.15L162.984 95.15L162.984 95.15L162.985 95.15L162.985 95.15L162.985 95.15L162.985 95.15L162.985 95.15L162.986 95.15L162.986 95.15L162.986 95.15L162.986 95.15L162.986 95.15L162.986 95.15L162.987 95.15L162.987 95.15L162.987 95.15L162.987 95.15L162.987 95.15L162.988 95.15L162.988 95.15L162.988 95.15L162.988 95.15L162.988 95.15L162.988 95.15L162.989 95.15L162.989 95.15L162.989 95.15L162.989 95.15L162.989 95.15L162.989 95.15L162.99 95.15L162.99 95.15L162.99 95.15L162.99 95.15L162.99 95.15L162.99 95.15L162.99 95.15L162.991 95.15L162.991 95.15L162.991 95.15L162.991 95.15L162.991 95.15L162.991 95.15L162.991 95.15L162.992 95.15L162.992 95.15L162.992 95.15L162.992 95.15L162.992 95.15L162.992 95.15L162.992 95.15L162.993 95.15L162.993 95.15L162.993 95.15L162.993 95.15L162.993 95.15L162.993 95.15L162.993 95.15L162.994 95.15L162.994 95.15L162.994 95.15L162.994 95.15L162.994 95.15L162.994 95.15L162.994 95.15L162.994 95.15L162.994 95.15L162.995 95.15L162.995 95.15L162.995 95.15L162.995 95.15L162.996 95.15L162.996 95.15L162.996 95.15L162.996 95.15L162.996 95.15L162.997 95.15L162.997 95.15L162.997 95.15L162.997 95.15L162.997 95.15L162.997 95.15L162.998 95.15L162.998 95.15L162.998 95.15L162.998 95.15L162.998 95.15L162.998 95.15L162.998 95.15L162.999 95.15L162.999 95.15L162.999 95.15L162.999 95.15L162.999 95.15L162.999 95.15L162.999 95.15L163 95.15L163 95.15L163 95.15L163 95.15L163 95L163 94.85L163 94.85L163 94.85L163 94.85L162.999 94.85L162.999 94.85L162.999 94.85L162.999 94.85L162.999 94.85L162.999 94.85L162.999 94.85L162.998 94.85L162.998 94.85L162.998 94.85L162.998 94.85L162.998 94.85L162.998 94.85L162.998 94.85L162.997 94.85L162.997 94.85L162.997 94.85L162.997 94.85L162.997 94.85L162.997 94.85L162.996 94.85L162.996 94.85L162.996 94.85L162.996 94.85L162.996 94.85L162.995 94.85L162.995 94.85L162.995 94.85L162.995 94.85L162.995 94.85L162.994 94.85L162.994 94.85L162.994 94.85L162.994 94.85L162.994 94.85L162.994 94.85L162.994 94.85L162.994 94.85L162.993 94.85L162.993 94.85L162.993 94.85L162.993 94.85L162.993 94.85L162.993 94.85L162.993 94.85L162.992 94.85L162.992 94.85L162.992 94.85L162.992 94.85L162.992 94.85L162.992 94.85L162.992 94.85L162.991 94.85L162.991 94.85L162.991 94.85L162.991 94.85L162.991 94.85L162.991 94.85L162.991 94.85L162.99 94.85L162.99 94.85L162.99 94.85L162.99 94.85L162.99 94.85L162.99 94.85L162.99 94.85L162.989 94.85L162.989 94.85L162.989 94.85L162.989 94.85L162.989 94.85L162.989 94.85L162.988 94.85L162.988 94.85L162.988 94.85L162.988 94.85L162.988 94.85L162.988 94.85L162.987 94.85L162.987 94.85L162.987 94.85L162.987 94.85L162.987 94.85L162.986 94.85L162.986 94.85L162.986 94.85L162.986 94.85L162.986 94.85L162.986 94.85L162.985 94.85L162.985 94.85L162.985 94.85L162.985 94.85L162.985 94.85L162.984 94.85L162.984 94.85L162.984 94.85L162.984 94.85L162.984 94.85L162.984 94.85L162.983 94.85L162.983 94.85L162.983 94.85L162.983 94.85L162.983 94.85L162.982 94.85L162.982 94.85L162.982 94.85L162.982 94.85L162.981 94.85L162.981 94.85L162.981 94.85L162.981 94.85L162.981 94.85L162.98 94.85L162.98 94.85L162.98 94.85L162.98 94.85L162.98 94.85L162.979 94.85L162.979 94.85L162.979 94.85L162.979 94.85L162.979 94.85L162.978 94.85L162.978 94.85L162.978 94.85L162.978 94.85L162.977 94.85L162.977 94.85L162.977 94.85L162.977 94.85L162.977 94.85L162.976 94.85L162.976 94.85L162.976 94.85L162.976 94.85L162.975 94.85L162.975 94.85L162.975 94.85L162.975 94.85L162.974 94.85L162.974 94.85L162.974 94.85L162.974 94.85L162.973 94.85L162.973 94.85L162.973 94.85L162.973 94.85L162.972 94.85L162.972 94.85L162.972 94.85L162.972 94.85L162.971 94.85L162.971 94.85L162.971 94.85L162.971 94.85L162.97 94.85L162.97 94.85L162.97 94.85L162.97 94.85L162.969 94.85L162.969 94.85L162.969 94.85L162.969 94.85L162.968 94.85L162.968 94.85L162.968 94.85L162.968 94.85L162.967 94.85L162.967 94.85L162.967 94.85L162.967 94.85L162.966 94.85L162.966 94.85L162.966 94.85L162.966 94.85L162.965 94.85L162.965 94.85L162.965 94.85L162.964 94.85L162.964 94.85L162.964 94.85L162.964 94.85L162.963 94.85L162.963 94.85L162.963 94.85L162.963 94.85L162.962 94.85L162.962 94.85L162.962 94.85L162.961 94.85L162.961 94.85L162.961 94.85L162.961 94.85L162.96 94.85L162.96 94.85L162.96 94.85L162.959 94.85L162.959 94.85L162.959 94.85L162.959 94.85L162.958 94.85L162.958 94.85L162.958 94.85L162.957 94.85L162.957 94.85L162.957 94.85L162.956 94.85L162.956 94.85L162.956 94.85L162.956 94.85L162.955 94.85L162.955 94.85L162.955 94.85L162.954 94.85L162.954 94.85L162.954 94.85L162.953 94.85L162.953 94.85L162.953 94.85L162.953 94.85L162.952 94.85L162.952 94.85L162.952 94.85L162.951 94.85L162.951 94.85L162.951 94.85L162.95 94.85L162.95 94.85L162.95 94.85L162.949 94.85L162.949 94.85L162.949 94.85L162.948 94.85L162.948 94.85L162.948 94.85L162.948 94.85L162.947 94.85L162.947 94.85L162.947 94.85L162.946 94.85L162.946 94.85L162.946 94.85L162.945 94.85L162.945 94.85L162.945 94.85L162.944 94.85L162.944 94.85L162.944 94.85L162.943 94.85L162.943 94.85L162.943 94.85L162.942 94.85L162.942 94.85L162.942 94.85L162.941 94.85L162.941 94.85L162.941 94.85L162.94 94.85L162.94 94.85L162.94 94.85L162.939 94.85L162.939 94.85L162.939 94.85L162.938 94.85L162.938 94.85L162.938 94.85L162.937 94.85L162.937 94.85L162.937 94.85L162.936 94.85L162.936 94.85L162.936 94.85L162.935 94.85L162.935 94.85L162.934 94.85L162.934 94.85L162.934 94.85L162.933 94.85L162.933 94.85L162.933 94.85L162.932 94.85L162.932 94.85L162.932 94.85L162.931 94.85L162.931 94.85L162.931 94.85L162.93 94.85L162.93 94.85L162.93 94.85L162.929 94.85L162.929 94.85L162.928 94.85L162.928 94.85L162.928 94.85L162.927 94.85L162.927 94.85L162.927 94.85L162.926 94.85L162.926 94.85L162.926 94.85L162.925 94.85L162.925 94.85L162.924 94.85L162.924 94.85L162.924 94.85L162.923 94.85L162.923 94.85L162.923 94.85L162.922 94.85L162.922 94.85L162.921 94.85L162.921 94.85L162.921 94.85L162.92 94.85L162.92 94.85L162.92 94.85L162.919 94.85L162.919 94.85L162.918 94.85L162.918 94.85L162.918 94.85L162.917 94.85L162.917 94.85L162.917 94.85L162.916 94.85L162.916 94.85L162.915 94.85L162.915 94.85L162.915 94.85L162.914 94.85L162.914 94.85L162.914 94.85L162.913 94.85L162.913 94.85L162.912 94.85L162.912 94.85L162.912 94.85L162.911 94.85L162.911 94.85L162.91 94.85L162.91 94.85L162.91 94.85L162.909 94.85L162.909 94.85L162.908 94.85L162.908 94.85L162.908 94.85L162.907 94.85L162.907 94.85L162.907 94.85L162.906 94.85L162.906 94.85L162.905 94.85L162.905 94.85L162.905 94.85L162.904 94.85L162.904 94.85L162.903 94.85L162.903 94.85L162.903 94.85L162.902 94.85L162.902 94.85L162.901 94.85L162.901 94.85L162.901 94.85L162.9 94.85L162.9 94.85L162.899 94.85L162.899 94.85L162.899 94.85L162.898 94.85L162.898 94.85L162.897 94.85L162.897 94.85L162.896 94.85L162.896 94.85L162.896 94.85L162.895 94.85L162.895 94.85L162.894 94.85L162.894 94.85L162.894 94.85L162.893 94.85L162.893 94.85L162.892 94.85L162.892 94.85L162.892 94.85L162.891 94.85L162.891 94.85L162.89 94.85L162.89 94.85L162.889 94.85L162.889 94.85L162.889 94.85L162.888 94.85L162.888 94.85L162.887 94.85L162.887 94.85L162.887 94.85L162.886 94.85L162.886 94.85L162.885 94.85L162.885 94.85L162.884 94.85L162.884 94.85L162.884 94.85L162.883 94.85L162.883 94.85L162.882 94.85L162.882 94.85L162.882 94.85L162.881 94.85L162.881 94.85L162.88 94.85L162.88 94.85L162.879 94.85L162.879 94.85L162.879 94.85L162.878 94.85L162.878 94.85L162.877 94.85L162.877 94.85L162.876 94.85L162.876 94.85L162.876 94.85L162.875 94.85L162.875 94.85L162.874 94.85L162.874 94.85L162.873 94.85L162.873 94.85L162.872 94.85L162.872 94.85L162.872 94.85L162.871 94.85L162.871 94.85L162.87 94.85L162.87 94.85L162.869 94.85L162.869 94.85L162.869 94.85L162.868 94.85L162.868 94.85L162.867 94.85L162.867 94.85L162.866 94.85L162.866 94.85L162.866 94.85Z" fill="#283250" stroke="black" stroke-width="0.3"/>
</g>
<defs>
<clipPath id="clip0_1_2">
<rect width="163.784" height="96" fill="white"/>
</clipPath>
</defs>
</svg>
