<svg id="Layer_1" data-name="Layer 1" xmlns="http://www.w3.org/2000/svg" viewBox="0 0 60 60"><defs><style>.cls-1{fill:#fff;}</style></defs><path class="cls-1" d="M338,0a5,5,0,0,0,5,5,5,5,0,0,0,5-5,5,5,0,0,0-10,0Zm5-3a3,3,0,0,1,3,3,3,3,0,0,1-3,3,3,3,0,0,1-3-3A3,3,0,0,1,343-3ZM327,39h26a1,1,0,0,0,0-2H327a1,1,0,0,0,0,2Z" transform="translate(-301 7)"/><path class="cls-1" d="M324,21h36a1,1,0,0,0,1-1V-6a1,1,0,0,0-1-1H324a1,1,0,0,0-1,1V16a23,23,0,0,0-22,23,1.42,1.42,0,0,0,0,.2v.08a.76.76,0,0,0,0,.3c0,.14,0,.28,0,.42a13,13,0,0,0,24,7h16a1,1,0,0,0,.8-.4l2.2-2.93,2.2,2.93a1,1,0,0,0,.8.4h9a1,1,0,0,0,.89-.55l4-8A1,1,0,0,0,361,38V34a1,1,0,0,0-1-1H325a13,13,0,0,0-20.4-1.91,21,21,0,0,1,18.44-13V20A1,1,0,0,0,324,21Zm-10,8a11,11,0,0,1,9.53,5.5,1,1,0,0,0,.87.5H359v2.76L355.38,45H347.5l-2.7-3.6a1,1,0,0,0-1.6,0L340.5,45H324.4a1,1,0,0,0-.87.5A11,11,0,0,1,303.05,41a9.68,9.68,0,0,0,6.05,0,5,5,0,1,0,.06-2.19,7.7,7.7,0,0,1-6.1.11A11,11,0,0,1,314,29Zm-3,11a3,3,0,1,1,3,3A3,3,0,0,1,311,40Zm27-21V14a5,5,0,0,1,10,0v5ZM325-5h34V19h-9V14a7,7,0,0,0-14,0v5H325Z" transform="translate(-301 7)"/></svg>