<svg id="Ñëîé_1" data-name="Ñëîé 1" xmlns="http://www.w3.org/2000/svg" viewBox="0 0 120 78.27"><defs><style>.cls-1{fill:#ffc5c5;}.cls-2{fill:#df2926;}.cls-3{fill:#0b9d58;}.cls-4{fill:#fff9f9;}.cls-5{fill:#62d199;}.cls-6{fill:#ffafaf;}.cls-7{fill:#fff;}.cls-8{fill:#017a3e;}.cls-9{fill:#f2bdb3;}.cls-10{fill:#ffc3b6;}.cls-11{fill:#ff8989;}.cls-12{fill:#eb7070;}.cls-13{fill:#fa8282;}.cls-14{fill:#05773e;}</style></defs><path class="cls-1" d="M761.51,258.5a.5.5,0,0,0,0,.74l1.34,1.24.75.69a2.58,2.58,0,0,1-1.74,4.47h-3.92a2.58,2.58,0,0,1-2.56-2.34c0-.08,0-.16,0-.24a2.61,2.61,0,0,1,.22-1,2.56,2.56,0,0,1,.61-.86l2.1-1.93a.51.51,0,0,0,0-.74l-2.1-1.94a2.55,2.55,0,0,1-.83-1.89h0a2.58,2.58,0,0,1,1.48-2.33h0a2.63,2.63,0,0,1,1.09-.24h3.92a2.63,2.63,0,0,1,1.09.24h0a2.58,2.58,0,0,1,1.48,2.33h0v.11a2.57,2.57,0,0,1-.83,1.78l-.75.7Z" transform="translate(-731.21 -247.11)"/><path class="cls-2" d="M764,263.94c0,.78-.9,1.45-2.22,1.79a8,8,0,0,1-3.65,0,2.87,2.87,0,0,1-2.18-1.5,1,1,0,0,1,0-.29c0-.51,1.8-2.18,4-2.18a5.28,5.28,0,0,1,2.65.75C763.41,263,764,263.63,764,263.94Z" transform="translate(-731.21 -247.11)"/><path class="cls-3" d="M764.4,251v.49a.85.85,0,0,1-.85.85h-7.3a.85.85,0,0,1-.85-.85V251Z" transform="translate(-731.21 -247.11)"/><path class="cls-3" d="M764.4,266.12v.49h-9v-.49a.85.85,0,0,1,.85-.85h7.3A.85.85,0,0,1,764.4,266.12Z" transform="translate(-731.21 -247.11)"/><path class="cls-2" d="M759.9,258.87s-1.37,2.49,0,2.49S759.9,258.87,759.9,258.87Z" transform="translate(-731.21 -247.11)"/><path class="cls-2" d="M758,257.54c0-.37.43-.7,1.06-.85a3.5,3.5,0,0,1,1.74,0,1.34,1.34,0,0,1,1,.71.68.68,0,0,1,0,.14,2.21,2.21,0,0,1-1.93,1,2.52,2.52,0,0,1-1.26-.36C758.23,258,758,257.68,758,257.54Z" transform="translate(-731.21 -247.11)"/><path class="cls-4" d="M757.62,254.8c-.06.37.24.76,0,1.09a.69.69,0,0,1-1,0,1.92,1.92,0,0,1-.76-1,1.3,1.3,0,0,1,0-1,1.71,1.71,0,0,1,.64-.79,1.28,1.28,0,0,1,1.08-.24.7.7,0,0,1,.36.85C757.89,254.15,757.67,254.45,757.62,254.8Z" transform="translate(-731.21 -247.11)"/><rect class="cls-3" x="23.91" y="3.89" width="9.57" height="0.45"/><rect class="cls-3" x="23.78" y="19.05" width="9.57" height="0.45"/><path class="cls-3" d="M844.66,289.27c-.46,2.29-.42,3.82-3.71,4.81s-4.11-.33-5.74-2-1-2.47-1-3.71a13,13,0,0,0-1.52-4,1.92,1.92,0,0,0,1.38.43,13.11,13.11,0,0,0,3.91-.61,12.84,12.84,0,0,0,3.6-1.63c.56-.4.9-.79.92-1.12a13.61,13.61,0,0,0,.91,4.16C844.11,286.68,845.11,287,844.66,289.27Z" transform="translate(-731.21 -247.11)"/><circle class="cls-5" cx="104.92" cy="43.22" r="1.42"/><circle class="cls-5" cx="111.71" cy="41.19" r="1.42"/><path d="M833.54,283l.56,1.88a1.92,1.92,0,0,1-1.38-.43h0l-.08-.15C832.53,283.89,832.88,283.43,833.54,283Z" transform="translate(-731.21 -247.11)"/><path d="M842.52,281.31s0,.06,0,.17h0c0,.33-.36.72-.92,1.12l-.55-1.88C841.87,280.75,842.41,281,842.52,281.31Z" transform="translate(-731.21 -247.11)"/><path d="M834.8,289.24a1.53,1.53,0,0,1,2.94-.88,2.28,2.28,0,0,0-2.94.88Z" transform="translate(-731.21 -247.11)"/><path d="M840.5,287.54a1.53,1.53,0,0,1,2.94-.87,2.36,2.36,0,0,0-1.64-.14,2.41,2.41,0,0,0-1.3,1Z" transform="translate(-731.21 -247.11)"/><path d="M837.83,292.61a2.45,2.45,0,0,1,1.64-3.47c1.42-.47,3.25.41,3.28,2a5,5,0,0,0-2.66.08,4.9,4.9,0,0,0-2.26,1.39Z" transform="translate(-731.21 -247.11)"/><path class="cls-2" d="M850.68,285.85c-1.1,2.07-1.49,3.54-4.93,3.54s-3.84-1.47-4.93-3.54-.22-2.64.12-3.83a13,13,0,0,0-.31-4.24,1.92,1.92,0,0,0,1.19.8,14.53,14.53,0,0,0,7.85,0c.64-.22,1.07-.49,1.19-.8-.13.68-.61,3.21-.31,4.24C850.89,283.21,851.77,283.78,850.68,285.85Z" transform="translate(-731.21 -247.11)"/><circle class="cls-6" cx="111" cy="37.32" r="1.42"/><circle class="cls-6" cx="118.08" cy="37.32" r="1.42"/><path d="M841.82,276.63v1.95a1.92,1.92,0,0,1-1.19-.8h0c0-.11,0-.18,0-.18C840.59,277.23,841.06,276.89,841.82,276.63Z" transform="translate(-731.21 -247.11)"/><path d="M850.9,277.6a1.64,1.64,0,0,1,0,.18h0c-.12.31-.55.58-1.19.8v-1.95C850.43,276.89,850.9,277.23,850.9,277.6Z" transform="translate(-731.21 -247.11)"/><path d="M841.24,283a1.54,1.54,0,0,1,3.07,0,2.5,2.5,0,0,0-1.54-.61,2.4,2.4,0,0,0-1.53.61Z" transform="translate(-731.21 -247.11)"/><path d="M847.19,283a1.53,1.53,0,0,1,3.06,0,2.46,2.46,0,0,0-1.53-.61,2.4,2.4,0,0,0-1.53.61Z" transform="translate(-731.21 -247.11)"/><path d="M848.31,284.42a2.46,2.46,0,0,1-2.56,2.86c-1.49,0-3-1.33-2.57-2.86a5,5,0,0,0,2.57.68,4.76,4.76,0,0,0,2.56-.68Z" transform="translate(-731.21 -247.11)"/><rect class="cls-3" y="57" width="13.05" height="13.74" rx="1.23"/><path class="cls-3" d="M743,317.69a1.07,1.07,0,0,0,1.07-1.07V305.33a1.07,1.07,0,0,0-1.07-1.07h-10.6a1.07,1.07,0,0,0-1.07,1.07v11.29a1.07,1.07,0,0,0,1.07,1.07Z" transform="translate(-731.21 -247.11)"/><path class="cls-7" d="M740.82,307.47l-.75.63a3.28,3.28,0,0,1-2.1.76,3.22,3.22,0,0,1-1.12-.2,3.47,3.47,0,0,1-1-.56l-.75-.63a1.06,1.06,0,0,1-.39-.91,2,2,0,0,1,2.09-1.79h2.32a2,2,0,0,1,2.08,1.79A1.06,1.06,0,0,1,740.82,307.47Z" transform="translate(-731.21 -247.11)"/><path d="M738.34,308.35h-.7l.27-3.18a.08.08,0,0,1,.16,0Z" transform="translate(-731.21 -247.11)"/><ellipse cx="6.76" cy="60.87" rx="0.63" ry="0.59"/><path d="M736.57,306.58l-.81-.76c0-.06-.14,0-.08.09l.8.76C736.54,306.72,736.63,306.63,736.57,306.58Z" transform="translate(-731.21 -247.11)"/><path d="M737.34,306.34l-.28-1c0-.08-.14,0-.12,0l.27,1.05C737.23,306.45,737.36,306.42,737.34,306.34Z" transform="translate(-731.21 -247.11)"/><path d="M736.09,307.16l-1-.47c-.07,0-.13.08,0,.11l1,.48A.07.07,0,0,0,736.09,307.16Z" transform="translate(-731.21 -247.11)"/><path d="M739.36,306.62l.81-.75c.06-.06.15,0,.09.08l-.81.76A.06.06,0,0,1,739.36,306.62Z" transform="translate(-731.21 -247.11)"/><path d="M738.6,306.39l.27-1c0-.08.15-.05.13,0l-.27,1C738.71,306.5,738.58,306.47,738.6,306.39Z" transform="translate(-731.21 -247.11)"/><path d="M739.85,307.21l1-.47c.08,0,.13.08.06.11l-1,.47A.06.06,0,1,1,739.85,307.21Z" transform="translate(-731.21 -247.11)"/><path class="cls-8" d="M743.77,309.91a.34.34,0,0,1-.11.25.33.33,0,0,1-.24.1H732.56a.35.35,0,0,1-.34-.35.3.3,0,0,1,.1-.24.32.32,0,0,1,.24-.11h10.86A.35.35,0,0,1,743.77,309.91Z" transform="translate(-731.21 -247.11)"/><path class="cls-8" d="M743.77,312a.32.32,0,0,1-.11.24.3.3,0,0,1-.24.1H732.56a.34.34,0,0,1-.34-.34.32.32,0,0,1,.1-.25.35.35,0,0,1,.24-.1h10.86A.35.35,0,0,1,743.77,312Z" transform="translate(-731.21 -247.11)"/><path class="cls-8" d="M743.77,314.09a.33.33,0,0,1-.11.25.33.33,0,0,1-.24.1H732.56a.34.34,0,0,1-.34-.35.31.31,0,0,1,.1-.24.35.35,0,0,1,.24-.1h10.86A.35.35,0,0,1,743.77,314.09Z" transform="translate(-731.21 -247.11)"/><path class="cls-8" d="M743.77,316.18a.32.32,0,0,1-.11.24.3.3,0,0,1-.24.11H732.56a.35.35,0,0,1-.34-.35.32.32,0,0,1,.1-.25.35.35,0,0,1,.24-.1h10.86A.35.35,0,0,1,743.77,316.18Z" transform="translate(-731.21 -247.11)"/><polygon class="cls-2" points="9.38 65.09 8.11 65.09 8.11 69.3 5.45 69.3 5.45 65.09 4.18 65.09 6.78 62.24 9.38 65.09"/><path class="cls-9" d="M849.88,318.48a2.19,2.19,0,1,1-3.15-2v-8.25a1,1,0,1,1,1.93,0v8.25A2.19,2.19,0,0,1,849.88,318.48Z" transform="translate(-731.21 -247.11)"/><circle class="cls-2" cx="116.49" cy="71.41" r="1.79"/><rect class="cls-2" x="115.88" y="61.78" width="1.11" height="9.64"/><path class="cls-9" d="M839.78,318.45a2.19,2.19,0,1,1-3.15-1.95v-8.26a1,1,0,0,1,1-1,1,1,0,0,1,1,1v8.26A2.17,2.17,0,0,1,839.78,318.45Z" transform="translate(-731.21 -247.11)"/><circle class="cls-3" cx="106.39" cy="71.39" r="1.79"/><rect class="cls-3" x="105.78" y="67.19" width="1.11" height="4.2"/><polygon class="cls-3" points="111.78 65.93 111.78 65.18 109.3 65.18 109.3 63.61 111.78 63.61 111.78 62.86 113.46 64.39 111.78 65.93"/><polygon class="cls-3" points="110.98 66.86 110.98 67.61 113.46 67.61 113.46 69.18 110.98 69.18 110.98 69.93 109.3 68.4 110.98 66.86"/><path class="cls-3" d="M840.05,256.84a2.7,2.7,0,0,1-1,2.13h-12.3a2,2,0,0,1-.36-1.17,2,2,0,0,1,1.93-2,1.74,1.74,0,0,1,.45.06,2.71,2.71,0,0,1,2.66-2.64,2.59,2.59,0,0,1,1.47.46,2.4,2.4,0,0,1,2.27-1.68,2.43,2.43,0,0,1,2.39,2.15A2.64,2.64,0,0,1,840.05,256.84Z" transform="translate(-731.21 -247.11)"/><path class="cls-2" d="M835.2,257a5.46,5.46,0,0,1-1.72,1.11,5.29,5.29,0,0,1-2,.38h-.31a5.59,5.59,0,0,1-5.18-5.29,5.8,5.8,0,0,1,1.47-4.29,5.43,5.43,0,0,1,4-1.81,5.36,5.36,0,0,1,2.7.73.36.36,0,0,1,.16.42.35.35,0,0,1-.37.24,3.94,3.94,0,0,0-.77,0,4,4,0,0,0-3.7,3.81,4.17,4.17,0,0,0,1.05,3.1,3.92,3.92,0,0,0,2.9,1.31,3.84,3.84,0,0,0,1.38-.26.33.33,0,0,1,.41.14A.36.36,0,0,1,835.2,257Z" transform="translate(-731.21 -247.11)"/><path class="cls-2" d="M833.9,259.35s-.72,3.53-1.74,2.87S833.9,259.35,833.9,259.35Z" transform="translate(-731.21 -247.11)"/><path class="cls-2" d="M837.39,259.35s-.71,3.53-1.73,2.87S837.39,259.35,837.39,259.35Z" transform="translate(-731.21 -247.11)"/><path class="cls-2" d="M829.87,259.35s-.71,3.53-1.73,2.87S829.87,259.35,829.87,259.35Z" transform="translate(-731.21 -247.11)"/><path class="cls-2" d="M834.83,262s-.57,2.79-1.37,2.26S834.83,262,834.83,262Z" transform="translate(-731.21 -247.11)"/><path class="cls-2" d="M830.63,262s-.56,2.79-1.37,2.26S830.63,262,830.63,262Z" transform="translate(-731.21 -247.11)"/><path class="cls-2" d="M744.85,284.8l-.65.63.65.66.44.45-.44,1.51c-4.6-2.62-5.81-5.38-6.12-6.74a.43.43,0,0,1,0-.11c0-.13-.05-.25-.07-.35a.34.34,0,0,0,0-.1,1.82,1.82,0,0,1,0-.31,3.47,3.47,0,0,1,6.23-2.11l.75,2-.75.87-1.13,1.31,1.13,1.14.57.58Z" transform="translate(-731.21 -247.11)"/><path class="cls-2" d="M752.15,281.87l0,.09c0,.11-.07.23-.11.34l0,.1c-.53,1.29-2.17,3.82-7.13,5.65l.68-1.42-.36-.52-.53-.75.74-.52.66-.46-.47-.67-.93-1.31,1.33-1.11.88-.74-.42-2.09a3.47,3.47,0,0,1,5.8,3.1A2.28,2.28,0,0,1,752.15,281.87Z" transform="translate(-731.21 -247.11)"/><path class="cls-3" d="M753.33,283.75s0,.06,0,.17V284a1.28,1.28,0,0,1,0,.19s0,0,0,.06c0,.73-.38,2.22-2.36,4l-.14.12-.08,0c-2.54-.89-3.43-2.17-3.73-2.83l0-.06a1.34,1.34,0,0,1-.07-.18v0a.56.56,0,0,1,0-.17,1.86,1.86,0,0,1,1.45-2.2,1.91,1.91,0,0,1,1.53.36,1.84,1.84,0,0,1,1.29-.91A1.87,1.87,0,0,1,753.33,283.75Z" transform="translate(-731.21 -247.11)"/><path class="cls-10" d="M823.73,277.32c-2,20.83-19.83,23.6-32.62,36-6.53,6.2-15.06,7.1-22.6,2.06-9.81-6.23-10.21-20-6.55-30,4.29-10.07,13.31-17.77,22.86-22.76C798.07,255.26,825,257.59,823.73,277.32Z" transform="translate(-731.21 -247.11)"/><path class="cls-11" d="M801.14,319.9a38.75,38.75,0,0,1,2.14-6,57.81,57.81,0,0,1,8-13.28c.77-1,1.59-1.93,2.48-2.87a30.74,30.74,0,0,1,3.16-3.07c2.87,5.23,1.77,11.88-1.31,16.74s-8.56,8.75-14.51,8.45Z" transform="translate(-731.21 -247.11)"/><path class="cls-12" d="M816.64,297.2a54.65,54.65,0,0,1-12.18,19.93c-.67.69-1.7,1.7-2.41,2.34.66-.69,1.64-1.72,2.29-2.45a68.24,68.24,0,0,0,12.3-19.82Z" transform="translate(-731.21 -247.11)"/><path class="cls-12" d="M806.29,309.59a15.93,15.93,0,0,1,.06,5.51l-.22-.19c.55-.18,1.1-.35,1.65-.5a31.38,31.38,0,0,1,5.07-1c-2.22.54-4.43,1.13-6.61,1.83l-.27.09,0-.28a24.23,24.23,0,0,0,.27-5.45Z" transform="translate(-731.21 -247.11)"/><path class="cls-12" d="M810.91,303a22.13,22.13,0,0,1,.62,4.94l-.24-.15a27.91,27.91,0,0,1,5.87-2.15c-1.93.76-3.85,1.55-5.72,2.45l-.24.11V308c0-1.65-.13-3.3-.29-4.94Z" transform="translate(-731.21 -247.11)"/><path class="cls-12" d="M814,298.88a26.34,26.34,0,0,1,.81,3.11l-.25-.11c.24-.13.48-.26.73-.38a12.54,12.54,0,0,1,2.3-.88l-.72.4c-.74.4-1.62.86-2.35,1.27a28.07,28.07,0,0,1-.52-3.41Z" transform="translate(-731.21 -247.11)"/><path class="cls-6" d="M802,322.27a38.25,38.25,0,0,1,5.23-3.59,58.18,58.18,0,0,1,14.27-6.09c1.2-.35,2.42-.64,3.69-.88a30.09,30.09,0,0,1,4.36-.65c-.72,5.92-5.49,10.68-10.84,12.83S806.64,326,802,322.27Z" transform="translate(-731.21 -247.11)"/><path class="cls-11" d="M827.82,312.9A55,55,0,0,1,806.3,322c-.95.16-2.37.38-3.32.49.93-.17,2.33-.44,3.28-.66a68.13,68.13,0,0,0,21.56-8.9Z" transform="translate(-731.21 -247.11)"/><path class="cls-11" d="M812.18,316.91a15.76,15.76,0,0,1-3.16,4.51l-.07-.28c.55.17,1.09.36,1.63.55a32.72,32.72,0,0,1,4.71,2.14c-2.13-.85-4.27-1.67-6.44-2.37l-.27-.09.2-.19a23.37,23.37,0,0,0,3.4-4.27Z" transform="translate(-731.21 -247.11)"/><path class="cls-11" d="M819.77,314.27a22.11,22.11,0,0,1-2.38,4.38l-.1-.27a28.64,28.64,0,0,1,6,1.68c-2-.51-4-1-6.08-1.34l-.26-.05.15-.22c1-1.34,1.83-2.75,2.65-4.18Z" transform="translate(-731.21 -247.11)"/><path class="cls-11" d="M824.65,312.69a24.79,24.79,0,0,1-1.16,3l-.13-.24.81.12a13.12,13.12,0,0,1,2.39.62c-.28,0-.55-.06-.82-.09l-2.66-.34a28.6,28.6,0,0,1,1.57-3.07Z" transform="translate(-731.21 -247.11)"/><path class="cls-2" d="M818.47,307.52a28.19,28.19,0,0,1-2.15,3.43,25.75,25.75,0,0,1-2.64,3.07,23.38,23.38,0,0,1-3.16,2.62,21.76,21.76,0,0,1-3.71,2.08,21.22,21.22,0,0,1-4,1.29l-.51.09a.09.09,0,0,0,0,.17,20.25,20.25,0,0,0,4.1-1.19,22.82,22.82,0,0,0,3.79-2,23.48,23.48,0,0,0,3.27-2.6,26.13,26.13,0,0,0,2.72-3,27.48,27.48,0,0,0,2.23-3.42l.24-.45C818.67,307.49,818.52,307.43,818.47,307.52Z" transform="translate(-731.21 -247.11)"/><path class="cls-2" d="M817.91,308.59a7,7,0,0,1,2.78-6,5.43,5.43,0,0,1-2.78,6Z" transform="translate(-731.21 -247.11)"/><path class="cls-2" d="M816.48,310.82a4.42,4.42,0,0,1,6.3-.62,8,8,0,0,1-6.3.62Z" transform="translate(-731.21 -247.11)"/><path class="cls-2" d="M815.74,303.81a5.36,5.36,0,0,1,.74,7,9.74,9.74,0,0,1-.74-7Z" transform="translate(-731.21 -247.11)"/><path class="cls-2" d="M814.35,313.57a4.42,4.42,0,0,1,6.3-.61,8.05,8.05,0,0,1-6.3.61Z" transform="translate(-731.21 -247.11)"/><path class="cls-2" d="M813.61,306.57a5.34,5.34,0,0,1,.74,7,9.71,9.71,0,0,1-.74-7Z" transform="translate(-731.21 -247.11)"/><path class="cls-2" d="M811.51,316a4.43,4.43,0,0,1,6.3.61,8,8,0,0,1-6.3-.61Z" transform="translate(-731.21 -247.11)"/><path class="cls-2" d="M812.13,309a5.36,5.36,0,0,1-.62,7,9.67,9.67,0,0,1,.62-7Z" transform="translate(-731.21 -247.11)"/><path class="cls-2" d="M808.33,318.08a4.43,4.43,0,0,1,6.16,1.44,8,8,0,0,1-6.16-1.44Z" transform="translate(-731.21 -247.11)"/><path class="cls-2" d="M809.88,311.21a5.35,5.35,0,0,1-1.55,6.87,9.67,9.67,0,0,1,1.55-6.87Z" transform="translate(-731.21 -247.11)"/><path class="cls-2" d="M804.44,319.58a4.42,4.42,0,0,1,5.81,2.51,8,8,0,0,1-5.81-2.51Z" transform="translate(-731.21 -247.11)"/><path class="cls-2" d="M807.18,313.09a5.36,5.36,0,0,1-2.74,6.49,9.7,9.7,0,0,1,2.74-6.49Z" transform="translate(-731.21 -247.11)"/><path class="cls-11" d="M780,319.94a38.78,38.78,0,0,0-2.15-6,58.34,58.34,0,0,0-8-13.28c-.77-1-1.59-1.92-2.48-2.87a31.72,31.72,0,0,0-3.16-3.06c-2.88,5.22-1.78,11.87,1.3,16.74s8.57,8.74,14.52,8.44Z" transform="translate(-731.21 -247.11)"/><path class="cls-12" d="M764.49,297.25a54.83,54.83,0,0,0,12.18,19.92c.68.69,1.7,1.7,2.41,2.34-.66-.69-1.64-1.72-2.28-2.45a68,68,0,0,1-12.31-19.81Z" transform="translate(-731.21 -247.11)"/><path class="cls-12" d="M774.84,309.63a16.18,16.18,0,0,0-.06,5.51L775,315c-.54-.18-1.09-.35-1.65-.5a31.17,31.17,0,0,0-5.07-1c2.23.55,4.44,1.13,6.62,1.83l.26.09,0-.27a23.77,23.77,0,0,1-.28-5.46Z" transform="translate(-731.21 -247.11)"/><path class="cls-12" d="M770.22,303.06a22.2,22.2,0,0,0-.62,4.94l.24-.15A27.71,27.71,0,0,0,764,305.7c1.94.76,3.85,1.55,5.73,2.45l.23.11V308c0-1.65.12-3.3.28-4.94Z" transform="translate(-731.21 -247.11)"/><path class="cls-12" d="M767.18,298.92a28,28,0,0,0-.8,3.12l.25-.12-.73-.38a13.73,13.73,0,0,0-2.31-.88l.72.4,2.36,1.27a27.47,27.47,0,0,0,.51-3.41Z" transform="translate(-731.21 -247.11)"/><path class="cls-6" d="M779.15,322.32a38,38,0,0,0-5.22-3.6,58.09,58.09,0,0,0-14.28-6.09c-1.2-.35-2.42-.64-3.69-.88a31.16,31.16,0,0,0-4.35-.65c.71,5.92,5.48,10.68,10.83,12.83s12.06,2.11,16.71-1.61Z" transform="translate(-731.21 -247.11)"/><path class="cls-11" d="M753.32,312.94A54.94,54.94,0,0,0,774.84,322c.95.16,2.37.39,3.32.49-.94-.17-2.34-.44-3.29-.66a68,68,0,0,1-21.55-8.9Z" transform="translate(-731.21 -247.11)"/><path class="cls-11" d="M769,317a16,16,0,0,0,3.17,4.51l.07-.28c-.55.17-1.1.36-1.64.55a33.2,33.2,0,0,0-4.7,2.14c2.12-.85,4.26-1.66,6.44-2.37l.26-.08-.19-.2A23.43,23.43,0,0,1,769,317Z" transform="translate(-731.21 -247.11)"/><path class="cls-11" d="M761.36,314.31a22.11,22.11,0,0,0,2.38,4.38l.11-.27a28.47,28.47,0,0,0-6,1.68c2-.51,4-1,6.08-1.34l.26-.05-.15-.22c-1-1.34-1.83-2.75-2.66-4.18Z" transform="translate(-731.21 -247.11)"/><path class="cls-11" d="M756.48,312.73a26.56,26.56,0,0,0,1.16,3l.14-.24c-.27,0-.55.07-.82.12a13,13,0,0,0-2.38.62l.81-.09,2.66-.34a29.57,29.57,0,0,0-1.57-3.07Z" transform="translate(-731.21 -247.11)"/><path class="cls-2" d="M762.67,307.56a27,27,0,0,0,2.15,3.43,24.78,24.78,0,0,0,2.63,3.07,24.09,24.09,0,0,0,3.16,2.63,22.82,22.82,0,0,0,3.71,2.07,21.22,21.22,0,0,0,4,1.29l.52.09c.1,0,.08.19,0,.17a20.25,20.25,0,0,1-4.1-1.19,22.34,22.34,0,0,1-3.78-2,23.57,23.57,0,0,1-3.28-2.6,26,26,0,0,1-2.71-3,27.55,27.55,0,0,1-2.24-3.42c-.08-.15-.16-.3-.23-.45S762.62,307.47,762.67,307.56Z" transform="translate(-731.21 -247.11)"/><path class="cls-2" d="M763.22,308.63a7,7,0,0,0-2.78-6,5.43,5.43,0,0,0,2.78,6Z" transform="translate(-731.21 -247.11)"/><path class="cls-2" d="M764.65,310.86a4.41,4.41,0,0,0-6.3-.61,8.05,8.05,0,0,0,6.3.61Z" transform="translate(-731.21 -247.11)"/><path class="cls-2" d="M765.39,303.86a5.35,5.35,0,0,0-.74,7,9.67,9.67,0,0,0,.74-7Z" transform="translate(-731.21 -247.11)"/><path class="cls-2" d="M766.78,313.61a4.42,4.42,0,0,0-6.3-.61,8.05,8.05,0,0,0,6.3.61Z" transform="translate(-731.21 -247.11)"/><path class="cls-2" d="M767.52,306.61a5.34,5.34,0,0,0-.74,7,9.66,9.66,0,0,0,.74-7Z" transform="translate(-731.21 -247.11)"/><path class="cls-2" d="M769.63,316.07a4.43,4.43,0,0,0-6.3.61,8,8,0,0,0,6.3-.61Z" transform="translate(-731.21 -247.11)"/><path class="cls-2" d="M769,309.06a5.35,5.35,0,0,0,.63,7,9.67,9.67,0,0,0-.63-7Z" transform="translate(-731.21 -247.11)"/><path class="cls-2" d="M772.8,318.12a4.42,4.42,0,0,0-6.16,1.45,8,8,0,0,0,6.16-1.45Z" transform="translate(-731.21 -247.11)"/><path class="cls-2" d="M771.26,311.25a5.35,5.35,0,0,0,1.54,6.87,9.71,9.71,0,0,0-1.54-6.87Z" transform="translate(-731.21 -247.11)"/><path class="cls-2" d="M776.69,319.62a4.41,4.41,0,0,0-5.8,2.51,8,8,0,0,0,5.8-2.51Z" transform="translate(-731.21 -247.11)"/><path class="cls-2" d="M774,313.13a5.36,5.36,0,0,0,2.74,6.49,9.7,9.7,0,0,0-2.74-6.49Z" transform="translate(-731.21 -247.11)"/><path d="M802.81,286.37a3,3,0,0,0-1.19.13,13.77,13.77,0,0,1-2.3-1.16,6,6,0,0,1-2.29-2.45,6.8,6.8,0,0,1-.5-1.76,5.39,5.39,0,0,1,0-2.19l0,0a10.38,10.38,0,0,0,2.15-3.72c0-.12,0-.27,0-.43a3.38,3.38,0,0,0,1.73-2.54,8.82,8.82,0,0,0,.2-2.61c-.07-.76-.33-1.27-.79-1.33a1,1,0,0,0-1.05.5s.24-1.42-2.39-2.89-4.51-3.09-4.51-5.37c0,2.28-1.89,3.9-4.52,5.37s-2.38,2.91-2.38,2.89a1.06,1.06,0,0,0-1.06-.5c-.46.06-.71.57-.79,1.33a8.82,8.82,0,0,0,.2,2.61,3.4,3.4,0,0,0,1.73,2.54c0,.16,0,.31,0,.43a10.55,10.55,0,0,0,2.15,3.72l0,0a5.39,5.39,0,0,1,0,2.19,6.8,6.8,0,0,1-.5,1.76,6,6,0,0,1-2.29,2.45,15,15,0,0,1-2.57,1.27.7.7,0,0,0-.65-.42,1,1,0,0,0-.3,0c-1.64-7,.84-10,1.53-16.67.1-1,.17-2.14.17-3.37,0-9.38,9.26-9.47,9.26-9.47s9.25.09,9.25,9.47c0,1.23.07,2.34.17,3.37C802,276.31,804.51,279.23,802.81,286.37Z" transform="translate(-731.21 -247.11)"/><path class="cls-13" d="M798.77,270.8a9.64,9.64,0,0,1-.08,4.14,9.79,9.79,0,0,1,.08-4.14Z" transform="translate(-731.21 -247.11)"/><path class="cls-3" d="M816.9,306.55c-.24-2.89-1.9-5.61-2.89-8.42-.92-2.6-1.28-5.29-2.53-7.82a2.89,2.89,0,0,0-.71-1,5.91,5.91,0,0,0-2.35-.92l-5.25-1.23a9.7,9.7,0,0,0-1.71-.29,3.49,3.49,0,0,0-1,.08l.66.19s-2.39,4.67-9.06,4.67-9.07-4.67-9.07-4.67l.43-.12a.67.67,0,0,0-.56-.26,1.15,1.15,0,0,0-.26,0,2.73,2.73,0,0,0-.51.14,25,25,0,0,1-3.93.95,8.2,8.2,0,0,0-2.22.52,3.74,3.74,0,0,0-1.69,2c-2.48,5.39-5,10.87-5.16,16.54a3,3,0,0,0,1.61,3.17,7.37,7.37,0,0,0,3.49.23l4.44-.42a25.33,25.33,0,0,0-4.18,15.43H809.9a24.75,24.75,0,0,0,.07-3.85,11.83,11.83,0,0,0-.62-2.37,32.49,32.49,0,0,0-3.1-6.4,42.89,42.89,0,0,0,9.27-3.94,3.74,3.74,0,0,0,1.09-.83A2,2,0,0,0,816.9,306.55Zm-36.71-1.81c-1-.08-2-.11-3-.09a35.41,35.41,0,0,0,2.48-5.36,6.39,6.39,0,0,0,.85,1.22A26.2,26.2,0,0,0,780.19,304.74ZM804,308.1a51.32,51.32,0,0,0,.21-8.22,7.31,7.31,0,0,0,.82-1.23,38.89,38.89,0,0,0,3.32,5.81,13.09,13.09,0,0,0,.81,1.07A25.89,25.89,0,0,0,804,308.1Z" transform="translate(-731.21 -247.11)"/><path class="cls-6" d="M799.6,312.42a7.8,7.8,0,0,1-.26,1.86,17,17,0,0,0-1.87.32l-2.92.57a10,10,0,0,1-1.08.16,11,11,0,0,1-1.72,0l-1.59-.14-2-.18c-.14,0-.3,0-.34-.13a.17.17,0,0,1,0-.14,1,1,0,0,1,.57-.38c-.93-.27-2-.31-2.93-.49l-.12,0a.12.12,0,0,1,0-.14.93.93,0,0,1,.51-.46c-.38-.1-.82-.1-1.2-.22a.71.71,0,0,1-.26-.13.19.19,0,0,1-.08-.21.32.32,0,0,1,.14-.14,2,2,0,0,1,1-.32l-.47-.07c-.11,0-.24-.05-.25-.13a.11.11,0,0,1,0-.1,1.26,1.26,0,0,1,.6-.44,2.83,2.83,0,0,1,1-.06c.86,0,1.73.05,2.59,0a7.12,7.12,0,0,0,1.54-.15,3.43,3.43,0,0,1-1.6-.55c-.19-.13-.36-.34-.23-.5s.44-.18.7-.18a19,19,0,0,0,2,0,25.89,25.89,0,0,1,3.39-.31,10.61,10.61,0,0,1,2,.35l2.41.57A4.61,4.61,0,0,1,799.6,312.42Z" transform="translate(-731.21 -247.11)"/><path class="cls-6" d="M800.33,308.45a.21.21,0,0,1,0,.07,1.06,1.06,0,0,1-.78.32l.08.06c.11.08.23.17.24.27a.28.28,0,0,1-.17.23,1,1,0,0,1-.35.11,7.56,7.56,0,0,1-1.72.06.61.61,0,0,1,.12.16.2.2,0,0,1,0,.15c0,.11-.26.13-.43.13l-3.7,0c-.54,0-1.09,0-1.62-.07-1.9-.19-3.56-1-5.4-1.36a7.6,7.6,0,0,0-1.37-3.58c1.17-.19,2.28-.54,3.43-.77a8.13,8.13,0,0,1,3.92,0c.58.18,1.1.46,1.7.59a5.32,5.32,0,0,0,1.26.1,2.82,2.82,0,0,1,.58,0,.53.53,0,0,1,.42.25.39.39,0,0,1-.06.31,1.1,1.1,0,0,1-.29.36.88.88,0,0,1-.37.15q1.92.53,3.75,1.2a1.5,1.5,0,0,1,.52.27c.13.13.17.32,0,.43a.53.53,0,0,1-.34.1,1.52,1.52,0,0,1,.53.43A.1.1,0,0,1,800.33,308.45Z" transform="translate(-731.21 -247.11)"/><path class="cls-13" d="M798.9,310.55a22,22,0,0,0-4.36-.73c-1.51,0-3,.33-4.53.21,1.54-.09,3-.45,4.53-.46a12.62,12.62,0,0,1,4.36,1Z" transform="translate(-731.21 -247.11)"/><path class="cls-13" d="M794.4,311a5,5,0,0,0-1.44,0l-1.43.2a9.58,9.58,0,0,1-2.92.25,11.61,11.61,0,0,0,2.12-.37,14.54,14.54,0,0,1,2.2-.28,3.57,3.57,0,0,1,1.47.17Z" transform="translate(-731.21 -247.11)"/><path class="cls-13" d="M785.48,312.16a12.16,12.16,0,0,1,3,.22c1,.16,1.92.34,2.84.59-2-.1-3.85-.55-5.8-.81Z" transform="translate(-731.21 -247.11)"/><path class="cls-13" d="M785.83,313.22a11.16,11.16,0,0,1,2.83.21c.91.15,1.83.27,2.76.41a13.56,13.56,0,0,1-2.85-.16c-.89-.15-1.84-.34-2.74-.46Z" transform="translate(-731.21 -247.11)"/><path class="cls-13" d="M788.34,314.35c1,0,2.2,0,3.2.06l1.07,0a8.49,8.49,0,0,1-2.14.2,8.83,8.83,0,0,1-2.13-.3Z" transform="translate(-731.21 -247.11)"/><path class="cls-13" d="M792.86,305.17a4.32,4.32,0,0,1,1.29.18l1.22.32a18.07,18.07,0,0,1,2.35.81,24.18,24.18,0,0,1-3.68-.94,7.71,7.71,0,0,0-1.18-.37Z" transform="translate(-731.21 -247.11)"/><path class="cls-13" d="M800,308.17a3.08,3.08,0,0,0-1.4-.44c-.52-.08-1-.17-1.54-.27a14.72,14.72,0,0,1-3-.87l3.06.62c.51.11,1,.21,1.52.33s1.1.27,1.32.63Z" transform="translate(-731.21 -247.11)"/><path class="cls-13" d="M799.63,308.91a9.34,9.34,0,0,0-1.51-.26,24.26,24.26,0,0,1-4.57-.82c1.55.21,3.12.32,4.64.62a4.77,4.77,0,0,1,1.44.46Z" transform="translate(-731.21 -247.11)"/><path class="cls-13" d="M797.67,309.58a21,21,0,0,0-2.63-.46,16.06,16.06,0,0,1-2.7-.31c.69,0,1.36,0,2.06,0a7.94,7.94,0,0,1,3.27.76Z" transform="translate(-731.21 -247.11)"/><path class="cls-14" d="M780.91,301.1c-2.25-1.74-2.17-4.44-.85-6.48-.79,2.15-.93,4.55.85,6.48Z" transform="translate(-731.21 -247.11)"/><path class="cls-14" d="M777.94,294.58a25.84,25.84,0,0,0,1.31,3.83,4.76,4.76,0,0,1-1.31-3.83Z" transform="translate(-731.21 -247.11)"/><path class="cls-14" d="M784.83,301.24c4.66-1.63,10.08-1.9,15.19-1.53a58.55,58.55,0,0,0-15.19,1.53Z" transform="translate(-731.21 -247.11)"/><path class="cls-14" d="M789,301.1a23.13,23.13,0,0,1,7,0l-7,0Z" transform="translate(-731.21 -247.11)"/><path class="cls-14" d="M804.73,294.38a2.49,2.49,0,0,1,.8,1.71,6.91,6.91,0,0,1,.08,1.82,4.42,4.42,0,0,1-1,1.67c-.41.52-.8,1.05-1.17,1.6a8.21,8.21,0,0,1,.92-1.69,5.12,5.12,0,0,0,.92-1.62,3.59,3.59,0,0,0,0-.87,4.32,4.32,0,0,0-.55-2.62Z" transform="translate(-731.21 -247.11)"/><path class="cls-14" d="M784.87,304.69a5.35,5.35,0,0,1,1.32,2.19c.27.78.52,1.55.77,2.32l0,.18a13.24,13.24,0,0,0-2.27,0c-.69,0-1.37.07-2,.12-1.33.06-2.74.3-4.07.43,1.14-.21,2.36-.47,3.52-.6.85-.08,1.72-.15,2.57-.2a14.52,14.52,0,0,1,2.09,0l-.2.16c-.24-.78-.46-1.56-.68-2.33a5.67,5.67,0,0,0-1-2.24Z" transform="translate(-731.21 -247.11)"/><path class="cls-14" d="M784.55,304.76a6.33,6.33,0,0,1-1.58.2c-.53,0-1.07,0-1.6,0-.93,0-2.25-.11-3.19-.18a18.75,18.75,0,0,0-6.13.86,14.35,14.35,0,0,1,6.16-1.11c1.6.13,3.16.26,4.76.28a6.93,6.93,0,0,0,1.58-.07Z" transform="translate(-731.21 -247.11)"/><path class="cls-14" d="M813.65,305.39c-3.51-1-6.56,1.31-9.27,2.55a31.31,31.31,0,0,1-5.41,2.3l.09-.17a3.57,3.57,0,0,1,.75,2.23,6.38,6.38,0,0,1-.46,2.26l-.18-.12c2.46-.53,4.9-1.11,7.33-1.7-2.38.69-4.8,1.31-7.24,1.89l-.24.05a7.07,7.07,0,0,0,.45-2.38,3.37,3.37,0,0,0-.82-2.23,25.65,25.65,0,0,0,3.82-1.48c1.16-.55,2.29-1.12,3.45-1.68,2.16-1.08,5-2.49,7.73-1.52Z" transform="translate(-731.21 -247.11)"/><path class="cls-14" d="M785.93,316.51A106,106,0,0,0,798.2,315a43.15,43.15,0,0,1-12.27,1.52Z" transform="translate(-731.21 -247.11)"/><path class="cls-14" d="M797.53,316a64.41,64.41,0,0,1-9.73,2.84q4.79-1.56,9.73-2.84Z" transform="translate(-731.21 -247.11)"/><path class="cls-6" d="M802.39,286.81s-2.77,7.74-10.5,7.74-10.5-7.74-10.5-7.74l.49-.2a15,15,0,0,0,2.57-1.27,6,6,0,0,0,2.29-2.45,6.8,6.8,0,0,0,.5-1.76,5.39,5.39,0,0,0,0-2.19l0,0a5.5,5.5,0,0,0,9.25,0l0,0a5.39,5.39,0,0,0,0,2.19,6.8,6.8,0,0,0,.5,1.76,6,6,0,0,0,2.29,2.45,13.77,13.77,0,0,0,2.3,1.16Z" transform="translate(-731.21 -247.11)"/><path class="cls-6" d="M800.43,272.23a3.38,3.38,0,0,1-1.73,2.54c0,.16,0,.31,0,.43a10.38,10.38,0,0,1-2.15,3.72,5.5,5.5,0,0,1-9.25,0,10.55,10.55,0,0,1-2.15-3.72c0-.12,0-.27,0-.43a3.4,3.4,0,0,1-1.73-2.54,8.82,8.82,0,0,1-.2-2.61c.08-.76.33-1.27.79-1.33a1.06,1.06,0,0,1,1.06.5s-.25-1.42,2.38-2.89,4.52-3.09,4.52-5.37c0,2.28,1.88,3.9,4.51,5.37s2.38,2.91,2.39,2.89a1,1,0,0,1,1.05-.5c.46.06.72.57.79,1.33A8.82,8.82,0,0,1,800.43,272.23Z" transform="translate(-731.21 -247.11)"/><path class="cls-13" d="M784.89,271a7.71,7.71,0,0,1,.17,4.07,12.1,12.1,0,0,1-.17-4.07Z" transform="translate(-731.21 -247.11)"/><path class="cls-13" d="M787,278.6a8.55,8.55,0,0,0,5.24,2.51,6.48,6.48,0,0,0,2.73-1,9.21,9.21,0,0,0,2.26-2,7.18,7.18,0,0,1-2.07,2.25,6.26,6.26,0,0,1-2.89,1.17A7.18,7.18,0,0,1,787,278.6Z" transform="translate(-731.21 -247.11)"/><path class="cls-13" d="M784.58,287.72a16.62,16.62,0,0,1,5,1.94,16.37,16.37,0,0,1-5-1.94Z" transform="translate(-731.21 -247.11)"/><path class="cls-13" d="M794.07,289.65a11.45,11.45,0,0,1,5.2-1.89,37.14,37.14,0,0,1-5.2,1.89Z" transform="translate(-731.21 -247.11)"/><path d="M786.52,269.32a2.47,2.47,0,0,1,1.67-1.38,2.13,2.13,0,0,1,1.12-.12,1.25,1.25,0,0,1,.94.72,0,0,0,0,1,0,.06,9.86,9.86,0,0,0-1,0c-.3,0-.62-.06-.93,0a2.46,2.46,0,0,0-1.71.78s-.09,0-.07-.05Z" transform="translate(-731.21 -247.11)"/><path d="M797.35,269.37a2.46,2.46,0,0,0-1.72-.78c-.3,0-.62.07-.92,0s-.58,0-1,0a0,0,0,0,1-.05,0,1.23,1.23,0,0,1,.94-.74,2.28,2.28,0,0,1,1.13.12,2.5,2.5,0,0,1,1.67,1.38s0,.08-.07.05Z" transform="translate(-731.21 -247.11)"/><path class="cls-13" d="M793.35,274.4a.65.65,0,0,1-.54.78,1.54,1.54,0,0,0-.34.17,1.54,1.54,0,0,1-.53.1,1.28,1.28,0,0,1-.52-.11,2.15,2.15,0,0,0-.34-.17.64.64,0,0,1-.54-.77c.14.23.3.44.58.39s.51.19.82.16.51-.16.83-.16.43-.15.58-.39Z" transform="translate(-731.21 -247.11)"/><path class="cls-13" d="M794.27,276.84s-.3.3-2.31.3h0c-2,0-2.32-.3-2.32-.3a3.82,3.82,0,0,0,1.18-.33,4.16,4.16,0,0,1,1.14-.1h0a4.16,4.16,0,0,1,1.14.1A3.79,3.79,0,0,0,794.27,276.84Z" transform="translate(-731.21 -247.11)"/><path class="cls-13" d="M790.6,277.86c.41.06.93,0,1.34.05h1.35a1.89,1.89,0,0,1-2.69-.06Z" transform="translate(-731.21 -247.11)"/><path class="cls-13" d="M790.13,270.8a1.68,1.68,0,0,1-1.94.48,13.09,13.09,0,0,0,1.94-.48Z" transform="translate(-731.21 -247.11)"/><path class="cls-13" d="M790.68,270.13a1.92,1.92,0,0,1,.12,1.9,12.12,12.12,0,0,1-.12-1.9Z" transform="translate(-731.21 -247.11)"/><path class="cls-13" d="M793.72,270.8a12.66,12.66,0,0,0,1.93.48,1.67,1.67,0,0,1-1.93-.48Z" transform="translate(-731.21 -247.11)"/><path class="cls-13" d="M793.16,270.13a13.45,13.45,0,0,1-.11,1.9,1.9,1.9,0,0,1,.11-1.9Z" transform="translate(-731.21 -247.11)"/><path d="M793.82,270.43a5.67,5.67,0,0,1,1.83-.17,7.46,7.46,0,0,1,1.76.07l0,.05c-.75.75-1.82.27-2.71.17a4.29,4.29,0,0,0-.88-.06l0-.06Z" transform="translate(-731.21 -247.11)"/><path d="M790.05,270.49a8.24,8.24,0,0,0-1.78.21,1.85,1.85,0,0,1-1.81-.32l0-.05a7.36,7.36,0,0,1,1.75-.07,5.61,5.61,0,0,1,1.83.17v.06Z" transform="translate(-731.21 -247.11)"/><path class="cls-13" d="M783.6,270.76c0-.23-.07-.43.08-.65s.57-.07.69.16a2.62,2.62,0,0,1,.25,1.88,1.36,1.36,0,0,1-.29.59.91.91,0,0,0,.12,1,.94.94,0,0,1-.43-1.16c.05-.12.11-.21.14-.28a3.15,3.15,0,0,0,.09-.81,1.83,1.83,0,0,0-.29-1.25s-.07-.05-.13,0-.12.36-.23.51Z" transform="translate(-731.21 -247.11)"/><path class="cls-13" d="M800.2,270.85a.73.73,0,0,1-.11-.29c-.08-.3-.26-.31-.38,0a3.6,3.6,0,0,0-.12,1.67c0,.21.11.28.19.5a1,1,0,0,1-.42,1.16.92.92,0,0,0,.11-1,1.4,1.4,0,0,1-.29-.6c-.09-.71-.17-1.67.53-2.13a.34.34,0,0,1,.42.1c.15.21,0,.42.07.64Z" transform="translate(-731.21 -247.11)"/></svg>