<svg width="161" height="97" viewBox="0 0 161 97" fill="none" xmlns="http://www.w3.org/2000/svg">
<path d="M49.8665 0.788557C40.6771 3.07635 31.8227 4.08891 23.517 0.905303C16.2613 -1.87867 5.23269 1.52272 1.63069 14.3986C-1.20235 24.5197 -0.527793 70.0309 5.10904 89.1618C6.13658 92.6507 9.88021 95.1271 14.2242 95.1989C40.3061 95.6255 133.333 96.9703 137.054 94.5591C141.299 91.8088 142.253 88.0886 142.603 83.9126C143.761 70.1319 136.64 54.8605 147.026 42.5279C151.856 36.7939 167.037 26.1878 157.274 18.9922C144.744 9.74891 129.288 20.2449 117.057 23.8125C104.065 27.6 95.7256 18.588 89.7178 10.4674" fill="#F4F4F4"/>
<path d="M19.3985 87.4299C19.4328 86.3022 19.3131 85.175 19.0428 84.0796C18.8472 83.2678 18.7885 82.4291 18.8691 81.5979C18.9149 81.0999 18.9149 80.5987 18.8691 80.1006C18.6788 78.2063 16.6356 73.9461 13.0785 73.3422C13.0785 73.3422 13.6989 75.5509 14.2449 77.2384C14.7287 79.0186 15.6566 80.6467 16.9416 81.9702C18.1772 83.1534 18.9264 84.7553 19.0428 86.462C19.0595 86.79 19.0595 87.1185 19.0428 87.4464L19.3985 87.4299Z" fill="#E8E8E8" stroke="black" stroke-width="0.25" stroke-miterlimit="10"/>
<path d="M20.234 84.0796C20.1854 83.2625 20.2749 82.4431 20.4987 81.6558C20.9092 80.2787 20.9802 78.8227 20.7055 77.4121C19.9776 73.9626 15.949 70.5544 15.949 70.5544C16.2587 72.9987 16.7313 75.4196 17.3636 77.8009C17.8141 79.0098 18.3676 80.1777 19.018 81.2918C19.5839 82.3071 19.9067 83.4397 19.9611 84.6008C20.0402 86.4508 19.9711 88.3042 19.7543 90.1432L20.0768 90.1846C20.3063 88.158 20.3589 86.1153 20.234 84.0796V84.0796Z" fill="#EDEDED" stroke="black" stroke-width="0.25" stroke-miterlimit="10"/>
<path d="M26.0495 67.7997C26.0495 67.7997 22.3517 70.2401 21.3839 74.1198C21.1402 75.1171 21.1402 76.1584 21.3839 77.1557C21.6402 78.3064 21.6571 79.4974 21.4335 80.6549C20.8609 83.8586 20.7079 87.1233 20.9786 90.3666H21.3094C21.0509 87.3866 21.1593 84.3861 21.632 81.4325C21.8596 80.0148 22.4623 78.6839 23.3775 77.5776C24.2056 76.5472 24.8467 75.3797 25.2719 74.128C25.932 72.0874 26.196 69.9395 26.0495 67.7997V67.7997Z" fill="#EDEDED" stroke="black" stroke-width="0.25" stroke-miterlimit="10"/>
<path d="M21.723 92.6993C21.6649 90.4861 21.7977 88.2719 22.1201 86.0815C22.2651 85.1486 22.6628 84.2731 23.27 83.5502C23.965 82.7106 24.5437 81.7813 24.9906 80.7872C25.8796 78.5823 26.4936 76.2763 26.8188 73.9212C26.8188 73.9212 22.7736 76.2788 21.8554 79.7118C21.5068 80.9275 21.4783 82.2127 21.7727 83.4427C21.9627 84.169 21.9966 84.9275 21.872 85.6679C21.502 88.0147 21.3469 90.3905 21.4087 92.7655" fill="#E8E8E8"/>
<path d="M21.723 92.6993C21.6649 90.4861 21.7977 88.2719 22.1201 86.0815C22.2651 85.1486 22.6628 84.2731 23.27 83.5502C23.965 82.7106 24.5437 81.7813 24.9906 80.7872C25.8796 78.5823 26.4936 76.2763 26.8188 73.9212C26.8188 73.9212 22.7736 76.2788 21.8554 79.7118C21.5068 80.9275 21.4783 82.2127 21.7727 83.4427C21.9627 84.169 21.9966 84.9275 21.872 85.6679C21.502 88.0147 21.3469 90.3905 21.4087 92.7655" stroke="black" stroke-width="0.25" stroke-miterlimit="10"/>
<path d="M22.6578 96C25.032 94.3455 24.3123 85.8333 24.3123 85.8333H16.6356C16.6356 85.8333 15.9159 94.3124 18.2901 96" fill="#E8E8E8"/>
<path d="M22.6578 96C25.032 94.3455 24.3123 85.8333 24.3123 85.8333H16.6356C16.6356 85.8333 15.9159 94.3124 18.2901 96" stroke="black" stroke-width="0.25" stroke-miterlimit="10"/>
<path d="M44.9931 95.5119H33.2299L39.2521 58.4107L44.9931 95.5119Z" fill="#CCC6C6" stroke="black" stroke-width="0.25" stroke-miterlimit="10"/>
<path d="M89.0925 95.5119H44.9929L39.252 58.4107H83.3516L89.0925 95.5119Z" fill="#E3FFF0" stroke="black" stroke-width="0.25" stroke-miterlimit="10"/>
<path d="M80.9278 64.648H43.8183L43.4047 61.9678H80.5142L80.9278 64.648Z" fill="white" stroke="black" stroke-width="0.25" stroke-miterlimit="10"/>
<path d="M81.3249 65.7648H43.9259L48.0041 92.1451H85.4115L81.3249 65.7648ZM46.5813 81.143H53.7203L54.5475 86.3628H47.4168L46.5813 81.143ZM82.5162 75.3523H75.3772L74.5499 70.1408H81.6807L82.5162 75.3523ZM60.578 75.6419H67.7088L68.536 80.8534H61.397L60.578 75.6419ZM61.0992 80.8534H53.9602L53.133 75.6419H60.2637L61.0992 80.8534ZM60.5367 75.3523L59.7094 70.1408H66.8815L67.7088 75.3523H60.5367ZM67.9817 75.6419H75.1538L75.9811 80.8534H68.8503L67.9817 75.6419ZM68.5443 81.1347L69.3715 86.3545H62.2325L61.4053 81.1347H68.5443ZM68.8338 81.1347H75.9811L76.8083 86.3545H69.6776L68.8338 81.1347ZM76.2788 81.1347H83.4261L84.2533 86.3545H77.1144L76.2788 81.1347ZM76.2375 80.8534L75.4103 75.6419H82.5989L83.4261 80.8534H76.2375ZM75.1042 75.3523H67.9652L67.138 70.1408H74.3266L75.1042 75.3523ZM67.1131 69.8595L66.5258 66.046H73.6648L74.2521 69.8595H67.1131ZM66.8236 69.8595H59.6929L59.1056 66.046H66.2363L66.8236 69.8595ZM59.3785 69.8595H52.2396L51.6522 66.046H58.7912L59.3785 69.8595ZM59.4199 70.1408L60.2472 75.3523H53.1082L52.2809 70.1408H59.4199ZM52.8021 75.3523H45.6631L44.8359 70.1408H51.9914L52.8021 75.3523ZM52.8434 75.6419L53.6707 80.8534H46.54L45.7127 75.6419H52.8434ZM53.9767 81.1347H61.1157L61.943 86.3545H54.804L53.9767 81.1347ZM61.9678 86.6358L62.795 91.8556H55.6643L54.8371 86.6358H61.9678ZM62.2573 86.6358H69.388L70.2153 91.8556H63.0763L62.2573 86.6358ZM69.7024 86.6358H76.8414L77.6686 91.8556H70.5296L69.7024 86.6358ZM77.1474 86.6358H84.2533L85.0806 91.8556H77.9416L77.1474 86.6358ZM81.6889 69.8595H74.5582L73.9626 66.046H81.1016L81.6889 69.8595ZM51.4041 66.046L51.9997 69.8595H44.8607L44.2734 66.046H51.4041ZM47.4582 86.6358H54.5889L55.4161 91.8556H48.2854L47.4582 86.6358Z" fill="white" stroke="black" stroke-width="0.1" stroke-miterlimit="10"/>
<path d="M54.6551 82.0695L55.2011 85.5934C55.2189 85.7148 55.2796 85.8257 55.3721 85.9062C55.4647 85.9866 55.583 86.0312 55.7057 86.0319H60.8097C60.8839 86.0317 60.9572 86.0153 61.0245 85.984C61.0918 85.9527 61.1515 85.9072 61.1994 85.8505C61.2474 85.7939 61.2825 85.7275 61.3024 85.656C61.3222 85.5845 61.3263 85.5095 61.3143 85.4363L60.7683 81.9123C60.7503 81.7917 60.6893 81.6818 60.5966 81.6027C60.5038 81.5236 60.3856 81.4808 60.2637 81.4821H55.1597C55.0863 81.4825 55.0138 81.4987 54.9472 81.5295C54.8806 81.5603 54.8214 81.6051 54.7735 81.6608C54.7257 81.7164 54.6903 81.7817 54.6699 81.8522C54.6495 81.9228 54.6444 81.9968 54.6551 82.0695V82.0695Z" fill="#0A9D57" stroke="black" stroke-width="0.25" stroke-miterlimit="10"/>
<path d="M47.1934 82.0695L47.7394 85.5934C47.759 85.7155 47.8214 85.8266 47.9153 85.9069C48.0093 85.9872 48.1287 86.0315 48.2523 86.0319H53.348C53.4229 86.0329 53.4971 86.0174 53.5655 85.9866C53.6338 85.9559 53.6945 85.9105 53.7434 85.8537C53.7923 85.7969 53.8281 85.7301 53.8484 85.658C53.8687 85.5859 53.873 85.5102 53.8609 85.4363L53.3149 81.9123C53.2953 81.7925 53.2339 81.6835 53.1415 81.6047C53.0491 81.5259 52.9317 81.4825 52.8103 81.4821H47.7063C47.6326 81.4827 47.5599 81.4989 47.4929 81.5296C47.426 81.5604 47.3663 81.605 47.3178 81.6605C47.2693 81.716 47.2332 81.7811 47.2118 81.8516C47.1903 81.9221 47.1841 81.9964 47.1934 82.0695V82.0695Z" fill="#0A9D57" stroke="black" stroke-width="0.25" stroke-miterlimit="10"/>
<path d="M76.0803 76.5767L76.6263 80.0924C76.6443 80.2151 76.7062 80.3272 76.8005 80.4078C76.8948 80.4884 77.0151 80.5321 77.1391 80.5308H82.2349C82.3094 80.5304 82.3829 80.514 82.4505 80.4828C82.5181 80.4515 82.5783 80.4062 82.6269 80.3497C82.6755 80.2933 82.7114 80.2271 82.7323 80.1556C82.7531 80.0841 82.7584 80.0089 82.7478 79.9352L82.2018 76.4195C82.1838 76.2967 82.1219 76.1847 82.0276 76.104C81.9333 76.0234 81.813 75.9797 81.6889 75.981H76.5932C76.5187 75.9815 76.4452 75.9978 76.3776 76.0291C76.3099 76.0603 76.2498 76.1057 76.2012 76.1621C76.1526 76.2186 76.1167 76.2848 76.0958 76.3563C76.0749 76.4278 76.0697 76.5029 76.0803 76.5767V76.5767Z" fill="#F29999" stroke="black" stroke-width="0.25" stroke-miterlimit="10"/>
<path d="M68.627 76.5767L69.1729 80.0924C69.1907 80.2137 69.2514 80.3247 69.344 80.4051C69.4366 80.4855 69.5549 80.5301 69.6775 80.5308H74.7815C74.8558 80.5306 74.9291 80.5143 74.9964 80.4829C75.0636 80.4516 75.1233 80.4061 75.1713 80.3495C75.2193 80.2928 75.2544 80.2265 75.2742 80.1549C75.2941 80.0834 75.2981 80.0085 75.2862 79.9352L74.7485 76.4195C74.7305 76.2967 74.6686 76.1847 74.5743 76.104C74.48 76.0234 74.3596 75.9797 74.2356 75.981H69.1316C69.0574 75.9813 68.9841 75.9976 68.9168 76.0289C68.8495 76.0602 68.7898 76.1058 68.7418 76.1624C68.6938 76.219 68.6587 76.2854 68.6389 76.3569C68.6191 76.4284 68.615 76.5034 68.627 76.5767V76.5767Z" fill="#0A9D57" stroke="black" stroke-width="0.25" stroke-miterlimit="10"/>
<path d="M61.2315 76.5767L61.7775 80.0924C61.7955 80.2151 61.8574 80.3272 61.9517 80.4078C62.046 80.4884 62.1663 80.5321 62.2904 80.5308H67.3861C67.4606 80.5304 67.5341 80.514 67.6018 80.4828C67.6694 80.4515 67.7295 80.4062 67.7781 80.3497C67.8267 80.2933 67.8627 80.2271 67.8835 80.1556C67.9044 80.0841 67.9097 80.0089 67.899 79.9352L67.353 76.4195C67.335 76.2967 67.2732 76.1847 67.1789 76.104C67.0845 76.0234 66.9642 75.9797 66.8402 75.981H61.7444C61.6699 75.9815 61.5964 75.9978 61.5288 76.0291C61.4612 76.0603 61.401 76.1057 61.3524 76.1621C61.3038 76.2186 61.2679 76.2848 61.247 76.3563C61.2262 76.4278 61.2209 76.5029 61.2315 76.5767V76.5767Z" fill="#0A9D57" stroke="black" stroke-width="0.25" stroke-miterlimit="10"/>
<path d="M53.8527 76.5767L54.3986 80.0924C54.4164 80.2137 54.4771 80.3247 54.5697 80.4051C54.6623 80.4855 54.7806 80.5301 54.9032 80.5308H60.0073C60.0815 80.5306 60.1547 80.5143 60.222 80.4829C60.2893 80.4516 60.349 80.4061 60.397 80.3495C60.445 80.2928 60.4801 80.2265 60.4999 80.1549C60.5198 80.0834 60.5238 80.0085 60.5119 79.9352L59.9742 76.4195C59.9562 76.2967 59.8943 76.1847 59.8 76.104C59.7057 76.0234 59.5853 75.9797 59.4613 75.981H54.3573C54.283 75.9813 54.2098 75.9976 54.1425 76.0289C54.0752 76.0602 54.0155 76.1058 53.9675 76.1624C53.9195 76.219 53.8844 76.2854 53.8646 76.3569C53.8448 76.4284 53.8407 76.5034 53.8527 76.5767Z" fill="#0A9D57" stroke="black" stroke-width="0.25" stroke-miterlimit="10"/>
<path d="M47.3755 60.181C47.3944 60.2707 47.3926 60.3635 47.3703 60.4524C47.348 60.5413 47.3057 60.6239 47.2467 60.6941C47.1877 60.7642 47.1135 60.82 47.0298 60.8573C46.946 60.8945 46.8549 60.9122 46.7633 60.9089C46.5634 60.899 46.3728 60.8216 46.2226 60.6894C46.0724 60.5572 45.9714 60.3779 45.9361 60.181C45.9174 60.0909 45.9193 59.9977 45.9416 59.9085C45.9639 59.8192 46.006 59.7361 46.0648 59.6654C46.1236 59.5946 46.1976 59.5381 46.2813 59.4999C46.365 59.4617 46.4563 59.4428 46.5482 59.4447C46.7493 59.4551 46.9408 59.5337 47.0912 59.6675C47.2416 59.8013 47.3419 59.9825 47.3755 60.181V60.181Z" fill="white" stroke="black" stroke-width="0.25" stroke-miterlimit="10"/>
<path d="M53.4141 60.181C53.433 60.2707 53.4313 60.3635 53.409 60.4524C53.3867 60.5413 53.3444 60.6239 53.2854 60.6941C53.2264 60.7642 53.1523 60.82 53.0685 60.8573C52.9847 60.8945 52.8936 60.9122 52.802 60.9089C52.6021 60.899 52.4115 60.8216 52.2613 60.6894C52.111 60.5572 52.0101 60.3779 51.9748 60.181C51.9561 60.0909 51.958 59.9977 51.9803 59.9085C52.0025 59.8192 52.0447 59.7361 52.1035 59.6654C52.1623 59.5946 52.2363 59.5381 52.32 59.4999C52.4037 59.4617 52.4949 59.4428 52.5869 59.4447C52.788 59.4551 52.9795 59.5337 53.1299 59.6675C53.2803 59.8013 53.3805 59.9825 53.4141 60.181V60.181Z" fill="white" stroke="black" stroke-width="0.25" stroke-miterlimit="10"/>
<path d="M59.4365 60.181C59.4554 60.2707 59.4536 60.3635 59.4313 60.4524C59.409 60.5413 59.3668 60.6239 59.3078 60.6941C59.2488 60.7642 59.1746 60.82 59.0908 60.8573C59.0071 60.8945 58.9159 60.9122 58.8243 60.9089C58.6249 60.8975 58.4351 60.8196 58.2851 60.6877C58.1352 60.5557 58.0338 60.3773 57.9971 60.181C57.9784 60.0909 57.9803 59.9977 58.0026 59.9085C58.0249 59.8192 58.067 59.7361 58.1258 59.6654C58.1846 59.5946 58.2586 59.5381 58.3423 59.4999C58.426 59.4617 58.5173 59.4428 58.6093 59.4447C58.8103 59.4551 59.0018 59.5337 59.1522 59.6675C59.3026 59.8013 59.4029 59.9825 59.4365 60.181V60.181Z" fill="white" stroke="black" stroke-width="0.25" stroke-miterlimit="10"/>
<path d="M65.4917 60.181C65.5106 60.2707 65.5088 60.3635 65.4865 60.4524C65.4642 60.5413 65.4219 60.6239 65.363 60.6941C65.304 60.7642 65.2298 60.82 65.146 60.8573C65.0623 60.8945 64.9711 60.9122 64.8795 60.9089C64.6801 60.8975 64.4903 60.8196 64.3403 60.6877C64.1904 60.5557 64.0889 60.3773 64.0523 60.181C64.0336 60.0909 64.0355 59.9977 64.0578 59.9085C64.0801 59.8192 64.1222 59.7361 64.181 59.6654C64.2398 59.5946 64.3138 59.5381 64.3975 59.4999C64.4812 59.4617 64.5725 59.4428 64.6644 59.4447C64.8655 59.4551 65.057 59.5337 65.2074 59.6675C65.3578 59.8013 65.4581 59.9825 65.4917 60.181V60.181Z" fill="white" stroke="black" stroke-width="0.25" stroke-miterlimit="10"/>
<path d="M71.5305 60.181C71.5494 60.2707 71.5476 60.3635 71.5253 60.4524C71.503 60.5413 71.4607 60.6239 71.4018 60.6941C71.3428 60.7642 71.2686 60.82 71.1848 60.8573C71.1011 60.8945 71.0099 60.9122 70.9183 60.9089C70.7189 60.8975 70.5291 60.8196 70.3791 60.6877C70.2292 60.5557 70.1278 60.3773 70.0911 60.181C70.0724 60.0909 70.0743 59.9977 70.0966 59.9085C70.1189 59.8192 70.161 59.7361 70.2198 59.6654C70.2786 59.5946 70.3526 59.5381 70.4363 59.4999C70.52 59.4617 70.6113 59.4428 70.7033 59.4447C70.9043 59.4551 71.0958 59.5337 71.2462 59.6675C71.3966 59.8013 71.4969 59.9825 71.5305 60.181V60.181Z" fill="white" stroke="black" stroke-width="0.25" stroke-miterlimit="10"/>
<path d="M77.5776 60.181C77.595 60.2712 77.5919 60.3641 77.5685 60.453C77.5451 60.5418 77.502 60.6242 77.4424 60.6942C77.3828 60.7641 77.3083 60.8197 77.2243 60.8569C77.1403 60.894 77.049 60.9118 76.9571 60.9089C76.7577 60.8975 76.5679 60.8196 76.4179 60.6877C76.268 60.5557 76.1666 60.3773 76.1299 60.181C76.1112 60.0909 76.1131 59.9977 76.1354 59.9085C76.1577 59.8192 76.1998 59.7361 76.2586 59.6654C76.3175 59.5946 76.3915 59.5381 76.4752 59.4999C76.5589 59.4617 76.6501 59.4428 76.7421 59.4447C76.9437 59.4562 77.1356 59.535 77.2871 59.6684C77.4385 59.8019 77.5408 59.9824 77.5776 60.181Z" fill="#DDDDDD" stroke="black" stroke-width="0.25" stroke-miterlimit="10"/>
<path d="M96.4715 42.9167C96.4653 43.5521 96.3302 44.1797 96.0745 44.7614C96.7951 44.8098 97.5189 44.74 98.217 44.5546C98.8126 44.2816 98.2914 42.8257 98.2914 42.8257L96.4715 42.9167Z" fill="#FFCE7E" stroke="black" stroke-width="0.25" stroke-miterlimit="10"/>
<path d="M100.955 89.953L102.394 93.0799C102.394 93.0799 103.164 93.8492 103.644 93.6259C103.99 93.5171 104.297 93.3102 104.529 93.0302L103.701 89.3573" fill="#FEEDE5"/>
<path d="M100.955 89.953L102.394 93.0799C102.394 93.0799 103.164 93.8492 103.644 93.6259C103.99 93.5171 104.297 93.3102 104.529 93.0302L103.701 89.3573" stroke="black" stroke-width="0.25" stroke-miterlimit="10"/>
<path d="M104.454 92.7076C104.757 92.9698 104.982 93.3089 105.108 93.689C105.233 94.0692 105.253 94.4761 105.166 94.8667L102.336 95.5119H99.2923C99.2923 95.5119 99.0441 94.5027 101.029 94.1966C101.507 93.8554 101.963 93.4852 102.394 93.0881C103.101 93.1132 103.804 92.9833 104.454 92.7076V92.7076Z" fill="#7F7F7F" stroke="black" stroke-width="0.25" stroke-miterlimit="10"/>
<path d="M95.8345 89.8702L96.1157 93.5349C96.1157 93.5349 96.761 94.1718 97.2821 94.0726C97.6539 93.9948 97.9938 93.8075 98.2582 93.5349L98.6057 89.9612" fill="#FEEDE5"/>
<path d="M95.8345 89.8702L96.1157 93.5349C96.1157 93.5349 96.761 94.1718 97.2821 94.0726C97.6539 93.9948 97.9938 93.8075 98.2582 93.5349L98.6057 89.9612" stroke="black" stroke-width="0.25" stroke-miterlimit="10"/>
<path d="M98.2666 93.5349C98.5502 94.1561 98.5943 94.8601 98.3907 95.5119H92.3436C92.3436 95.5119 92.203 95.1893 92.8152 94.7757C93.8872 94.2837 94.993 93.8691 96.1241 93.5349C96.837 93.594 97.5537 93.594 98.2666 93.5349V93.5349Z" fill="#7F7F7F" stroke="black" stroke-width="0.25" stroke-miterlimit="10"/>
<path d="M93.1212 48.6246L90.6395 49.7579C90.6395 49.7579 88.5052 49.3112 87.2478 49.0878L83.8562 48.5005L83.5419 49.5511C85.1459 50.3417 86.8046 51.0163 88.5052 51.5695C90.565 52.1485 90.747 52.2396 90.9869 52.1982C92.1435 51.9655 93.2588 51.5612 94.2959 50.9987" fill="#FEEDE5"/>
<path d="M93.1212 48.6246L90.6395 49.7579C90.6395 49.7579 88.5052 49.3112 87.2478 49.0878L83.8562 48.5005L83.5419 49.5511C85.1459 50.3417 86.8046 51.0163 88.5052 51.5695C90.565 52.1485 90.747 52.2396 90.9869 52.1982C92.1435 51.9655 93.2588 51.5612 94.2959 50.9987" stroke="black" stroke-width="0.25" stroke-miterlimit="10"/>
<path d="M97.9522 50.0722C97.5938 50.3204 97.2209 50.5469 96.8355 50.7505C95.6525 51.3958 94.2297 52.0245 94.2297 52.0245C94.1707 51.9885 94.1153 51.947 94.0642 51.9004C93.0881 51.0732 92.4098 48.8562 92.4098 48.8562L96.8934 46.2504L97.9522 50.0722Z" fill="white" stroke="black" stroke-width="0.25" stroke-miterlimit="10"/>
<path d="M96.8354 50.7505C95.6525 51.3958 94.2297 52.0245 94.2297 52.0245C94.1707 51.9885 94.1152 51.947 94.0642 51.9004C94.6443 51.5189 95.0514 50.9247 95.1975 50.2459C95.2521 49.645 95.4235 49.0605 95.7021 48.5253L96.1902 48.9803C96.1902 48.9803 96.5376 49.973 96.8354 50.7505Z" fill="white" stroke="black" stroke-width="0.25" stroke-miterlimit="10"/>
<path d="M102.883 65.2022C102.883 65.2022 102.428 68.9992 102.221 71.241C102.022 73.3422 101.848 77.0316 101.848 77.0316L104.529 91.4254C104.529 91.4254 103.917 92.0624 100.525 92.294L96.6617 76.0224L98.8539 68.2795" fill="#4C4C4C"/>
<path d="M102.883 65.2022C102.883 65.2022 102.428 68.9992 102.221 71.241C102.022 73.3422 101.848 77.0316 101.848 77.0316L104.529 91.4254C104.529 91.4254 103.917 92.0624 100.525 92.294L96.6617 76.0224L98.8539 68.2795" stroke="black" stroke-width="0.25" stroke-miterlimit="10"/>
<path d="M100.07 44.6373L97.2904 45.6383C97.4286 45.1968 97.52 44.7421 97.5634 44.2816C97.6047 43.8928 97.6213 43.5454 97.6296 43.3303C97.6378 43.1152 97.6296 43.1069 97.6296 43.1069C97.6296 43.1069 99.6728 41.742 99.6066 42.5279C99.6421 43.252 99.7987 43.965 100.07 44.6373Z" fill="#FEEDE5" stroke="black" stroke-width="0.25" stroke-miterlimit="10"/>
<path d="M98.7711 43.2807C98.4563 43.7079 98.0416 44.0515 97.5634 44.2816C97.6047 43.8928 97.6213 43.5454 97.6295 43.3303L98.7711 43.2807Z" fill="#FEEDE5" stroke="black" stroke-width="0.25" stroke-miterlimit="10"/>
<path d="M98.614 36.6132C98.136 36.6053 97.664 36.7197 97.2427 36.9455C96.8213 37.1714 96.4648 37.5012 96.2068 37.9037C95.9887 38.7517 95.8311 39.6142 95.7352 40.4846V40.4846C95.5613 40.9003 95.4203 41.329 95.3134 41.7668C95.3134 41.8661 95.5284 41.9405 95.6773 41.9736C95.6691 42.5144 95.8032 43.0479 96.0661 43.5205C96.3143 43.8928 98.0763 44.1327 99.83 42.7843C100.988 41.8909 101.104 40.5012 101.129 39.2934C101.111 38.616 100.845 37.9687 100.382 37.4745C99.918 36.9804 99.2889 36.6738 98.614 36.6132Z" fill="#FEEDE5" stroke="black" stroke-width="0.25" stroke-miterlimit="10"/>
<path d="M95.2886 38.9791C95.888 39.2517 96.523 39.4383 97.1747 39.5333C97.1747 39.5333 97.762 40.8982 98.4155 40.9148C99.069 40.9313 99.2427 40.6914 99.3172 41.1878C99.3916 41.6841 98.9946 44.4967 98.9946 44.4967C100.24 44.3368 101.475 44.102 102.692 43.7935C102.692 43.7935 102.279 43.504 102.121 41.1216C101.964 38.7392 102.204 37.8623 100.715 37.275C98.8208 34.8015 95.8759 36.5966 95.2886 38.9791Z" fill="#FFCE7E" stroke="black" stroke-width="0.25" stroke-miterlimit="10"/>
<path d="M95.694 59.3537V62.4807C95.694 62.4807 95.0074 71.9359 94.7261 74.8891C94.5441 76.7586 94.9826 92.5835 94.9826 92.5835C96.5041 92.7761 98.0439 92.7761 99.5654 92.5835C99.5654 92.5835 100.26 78.1484 100.542 76.8662C100.881 75.9314 101.683 70.8357 102.593 67.2538C103.42 64.0441 102.419 63.0597 102.312 61.8933C102.234 61.0514 102.234 60.204 102.312 59.362L95.694 59.3537Z" fill="#4C4C4C" stroke="black" stroke-width="0.25" stroke-miterlimit="10"/>
<path d="M97.2905 45.6383C97.2905 45.6383 96.397 47.0859 95.8842 48.1199C95.6462 48.4952 95.4978 48.9202 95.4505 49.362C95.4031 49.8039 95.4581 50.2507 95.6112 50.6678C95.8541 51.3211 95.9719 52.0142 95.9586 52.7111L95.2141 63.0266C95.2141 63.0266 98.1508 63.2748 99.1435 63.2748C102.734 63.2748 103.04 62.6792 103.04 62.6792C103.04 62.6792 101.997 52.0741 101.766 49.5097C101.618 47.7614 101.035 46.078 100.07 44.6125L97.2905 45.6383Z" fill="white" stroke="black" stroke-width="0.25" stroke-miterlimit="10"/>
<path d="M95.2141 63.0514C95.2141 63.0514 98.1508 63.2996 99.1435 63.2996C102.734 63.2996 103.04 62.704 103.04 62.704" stroke="black" stroke-width="0.25" stroke-miterlimit="10"/>
<path d="M98.5891 50.8415C98.5891 50.8415 99.557 53.2074 99.6976 53.439C99.8945 53.4751 100.096 53.4751 100.293 53.439C100.492 53.6624 101.642 55.9207 101.642 55.9207L101.832 55.2259L100.475 51.0318L98.5891 50.8415Z" fill="white" stroke="black" stroke-width="0.25" stroke-miterlimit="10"/>
<path d="M96.4236 58.0935L95.1015 60.2425C94.3881 61.4021 94.7498 62.9204 95.9094 63.6338L100.299 66.3342C101.459 67.0476 102.977 66.6859 103.69 65.5263L105.012 63.3774C105.726 62.2178 105.364 60.6994 104.204 59.986L99.8149 57.2856C98.6553 56.5722 97.1369 56.9339 96.4236 58.0935Z" fill="#E2E2E2" stroke="black" stroke-width="0.25" stroke-miterlimit="10"/>
<path d="M104.554 55.3417C104.322 54.2911 103.197 50.8415 103.197 50.8415L100.161 51.9666L101.642 55.4409L98.2335 63.0018C98.0743 63.1623 97.8784 63.2816 97.6627 63.3492C97.3313 63.4935 97.0454 63.7251 96.8355 64.0193C96.6701 64.2344 97.0009 64.2096 97.1664 64.1847C97.2835 64.1444 97.3948 64.0888 97.4973 64.0193C97.4973 64.0193 97.216 64.5487 97.216 64.5984C97.2562 64.681 97.3129 64.7544 97.3826 64.8142C97.4523 64.874 97.5336 64.9188 97.6214 64.9458C97.8447 64.9954 97.7868 65.0699 97.9357 65.1691C98.0846 65.2684 98.0681 65.3346 98.2418 65.3677C98.3837 65.3969 98.53 65.3969 98.6719 65.3677C98.9075 65.1762 99.0984 64.9356 99.2313 64.6627C99.3641 64.3898 99.4358 64.0912 99.4413 63.7877C99.4884 63.6164 99.5639 63.4542 99.6646 63.3079V63.3079C101.187 61.1819 104.727 56.1606 104.554 55.3417Z" fill="#FEEDE5" stroke="black" stroke-width="0.25" stroke-miterlimit="10"/>
<path d="M100.45 45.2495C100.45 45.2495 101.716 46.3414 103.66 50.9904C102.51 51.8732 101.171 52.4765 99.7473 52.7524C99.1398 51.8713 98.6058 50.9417 98.1508 49.9729C98.3162 47.2265 98.4072 44.8358 100.45 45.2495Z" fill="white" stroke="black" stroke-width="0.25" stroke-miterlimit="10"/>
<path d="M98.2501 40.9396C98.2501 40.9396 98.581 40.162 99.1352 40.3192C99.8549 40.5094 99.5323 41.7916 98.8705 42.0481C98.2087 42.3045 98.035 41.4773 98.2501 40.9396Z" fill="#FEEDE5" stroke="black" stroke-width="0.25" stroke-miterlimit="10"/>
<path d="M83.6411 58.8657L81.0188 59.8749L74.8146 58.6919C75.0545 57.7324 74.9469 56.6735 75.1372 55.6229C75.3936 54.2166 74.98 52.6118 76.4442 50.1467L84.3112 49.8571C84.3112 49.8571 83.5501 50.5934 83.484 54.2001C83.3368 55.7556 83.3897 57.3236 83.6411 58.8657V58.8657Z" fill="#FEEDE5" stroke="black" stroke-width="0.25" stroke-miterlimit="10"/>
<path d="M78.7439 88.6459L78.653 93.0551C79.4899 93.2322 80.3468 93.2962 81.2008 93.2453L82.0942 89.0099" fill="#FEEDE5"/>
<path d="M78.7439 88.6459L78.653 93.0551C79.4899 93.2322 80.3468 93.2962 81.2008 93.2453L82.0942 89.0099" stroke="black" stroke-width="0.25" stroke-miterlimit="10"/>
<path d="M74.8146 58.6919C77.729 59.217 80.7083 59.2757 83.6411 58.8657C83.6411 58.8657 85.5603 67.3779 85.5272 72.548C85.5272 77.8837 85.1219 87.008 84.8075 90.7471C83.0538 91.5743 81.1677 90.9622 77.4948 90.0853C77.3624 88.1 79.6456 76.3119 79.7945 74.0536C79.2899 72.7218 75.9479 67.6343 75.1207 64.1268C74.2934 60.6194 74.8146 58.6919 74.8146 58.6919Z" fill="#4C4C4C" stroke="black" stroke-width="0.25" stroke-miterlimit="10"/>
<path d="M68.1803 86.6027L66.3604 90.1101C66.3604 90.1101 67.1876 91.7646 68.4532 91.5578L71.1086 88.5715" fill="#FEEDE5"/>
<path d="M68.1803 86.6027L66.3604 90.1101C66.3604 90.1101 67.1876 91.7646 68.4532 91.5578L71.1086 88.5715" stroke="black" stroke-width="0.25" stroke-miterlimit="10"/>
<path d="M67.9404 86.8095C70.3477 89.0182 72.0021 90.0605 74.2935 90.1846C75.6585 87.5209 79.3231 81.143 80.7294 76.2623C81.3167 74.2273 80.8617 65.5083 80.7294 63.8539C80.597 62.1994 74.8147 58.7168 74.8147 58.7168C73.8403 60.3474 73.4006 62.242 73.5573 64.1351C73.698 67.717 74.1529 73.4994 74.1529 73.4994C74.1529 73.4994 68.445 85.246 67.9404 86.8095Z" fill="#4C4C4C" stroke="black" stroke-width="0.25" stroke-miterlimit="10"/>
<path d="M74.3265 90.1846C75.6915 87.5209 79.3561 81.143 80.7624 76.2623C81.3497 74.2273 80.8947 65.5083 80.7624 63.8539" stroke="black" stroke-width="0.25" stroke-miterlimit="10"/>
<path d="M78.653 92.7076C78.653 92.7076 79.1907 93.1295 81.2422 93.0385C81.2422 93.0385 83.8976 94.2463 84.6256 94.6103C85.3535 94.9742 85.1633 95.5119 84.5429 95.5119H78.0243C77.8881 94.9074 77.8881 94.2801 78.0243 93.6755C78.1805 93.3212 78.3928 92.9944 78.653 92.7076V92.7076Z" fill="#7F7F7F" stroke="black" stroke-width="0.25" stroke-miterlimit="10"/>
<path d="M70.6537 95.5119H68.6683C68.0257 95.312 67.4295 94.9858 66.9146 94.5524C66.1055 93.6463 65.354 92.6903 64.6646 91.6901C64.842 91.2554 65.1098 90.8635 65.4504 90.5403C65.7378 90.3653 66.0428 90.2212 66.3604 90.1101C67.8163 91.6488 68.4533 91.5578 68.4533 91.5578C68.4533 91.5578 69.479 94.0395 70.298 94.5606C71.1169 95.0818 70.7281 95.4706 70.6537 95.5119Z" fill="#7F7F7F" stroke="black" stroke-width="0.25" stroke-miterlimit="10"/>
<path d="M83.7487 52.3057L83.6411 55.0935C83.6411 55.0935 86.2386 56.0944 86.313 55.4492C86.4497 54.6663 86.5436 53.8765 86.5943 53.0833C86.5943 52.3388 86.5943 51.8177 86.5943 51.8177" fill="#FEEDE5"/>
<path d="M83.7487 52.3057L83.6411 55.0935C83.6411 55.0935 86.2386 56.0944 86.313 55.4492C86.4497 54.6663 86.5436 53.8765 86.5943 53.0833C86.5943 52.3388 86.5943 51.8177 86.5943 51.8177" stroke="black" stroke-width="0.25" stroke-miterlimit="10"/>
<path d="M86.8591 52.5208C86.2355 52.8546 85.5397 53.0306 84.8324 53.0337L84.394 53.0751C84.0898 53.1006 83.7836 53.0839 83.484 53.0254C83.1585 52.9668 82.8398 52.8753 82.5327 52.7524L84.5015 48.9224L85.246 47.2679C85.9053 47.9531 86.3508 48.8154 86.5282 49.7496C86.7242 50.6611 86.835 51.5888 86.8591 52.5208V52.5208Z" fill="#DF2925" stroke="black" stroke-width="0.25" stroke-miterlimit="10"/>
<path d="M84.8324 53.0337L84.394 53.0751C84.0898 53.1006 83.7836 53.0839 83.484 53.0254L84.0879 50.7092C84.4476 51.4438 84.6984 52.2268 84.8324 53.0337Z" fill="#DF2925" stroke="black" stroke-width="0.25" stroke-miterlimit="10"/>
<path d="M84.4436 53.0171C84.3216 53.6207 83.9796 54.1573 83.484 54.5227C80.7128 55.3003 77.3708 54.6468 75.9314 54.2994C75.4599 54.1835 75.1869 54.1008 75.1869 54.1008C75.3023 52.9195 75.5125 51.7493 75.8156 50.6016C75.8156 50.6016 75.8156 50.552 75.8156 50.5355C76.1878 49.3194 77.2302 46.6227 78.5785 45.9774C80.2926 45.7005 82.0458 45.7879 83.7239 46.2339C84.2567 46.5152 84.7609 46.8477 85.2294 47.2265C86.1229 48.3681 84.4022 49.7082 84.0465 50.5355C84.2431 51.3511 84.3759 52.1809 84.4436 53.0171Z" fill="#DF2925" stroke="black" stroke-width="0.25" stroke-miterlimit="10"/>
<path d="M77.0812 50.8746C76.6061 51.9833 76.2216 53.1286 75.9314 54.2994C75.4599 54.1835 75.1869 54.1008 75.1869 54.1008C75.3023 52.9195 75.5125 51.7493 75.8156 50.6016L77.0812 50.8746Z" fill="#DF2925" stroke="black" stroke-width="0.25" stroke-miterlimit="10"/>
<path d="M84.8573 45.4563C84.5959 45.5303 84.3203 45.5389 84.0548 45.4811C83.7894 45.4234 83.5422 45.3013 83.3352 45.1254C83.3269 45.241 83.3269 45.3571 83.3352 45.4728C83.327 45.6409 83.3494 45.8091 83.4013 45.9691C83.4927 46.0855 83.6123 46.1767 83.7488 46.2339C83.7488 46.2339 83.6661 49.6586 82.0116 49.4187C79.7946 49.1043 79.8608 45.5473 79.8608 45.5473L80.4233 45.1502C80.6087 45.2253 80.7995 45.2862 80.9941 45.3322C81.3002 45.3322 81.4077 42.1308 81.4325 41.9074C81.3567 41.5096 81.3262 41.1044 81.3416 40.6997C81.3586 40.0795 81.4817 39.4667 81.7055 38.8881C82.2763 37.4818 85.5439 37.0268 86.7103 39.2769C87.8767 41.5269 85.9989 45.0757 84.8573 45.4563Z" fill="#FEEDE5" stroke="black" stroke-width="0.25" stroke-miterlimit="10"/>
<path d="M86.8426 38.8467C86.553 40.0958 87.1652 40.5012 87.0577 41.3284C87.0577 41.3284 87.7608 41.3284 88.1331 40.1206C88.5053 38.9129 88.2075 37.9367 87.1404 37.6389" fill="#FFCE7E"/>
<path d="M86.8426 38.8467C86.553 40.0958 87.1652 40.5012 87.0577 41.3284C87.0577 41.3284 87.7608 41.3284 88.1331 40.1206C88.5053 38.9129 88.2075 37.9367 87.1404 37.6389" stroke="black" stroke-width="0.25" stroke-miterlimit="10"/>
<path d="M83.335 45.4728C82.9055 45.1064 82.6137 44.6045 82.5078 44.05C82.7484 44.4342 83.0254 44.7943 83.335 45.1254C83.3268 45.241 83.3268 45.3571 83.335 45.4728V45.4728Z" fill="#FEEDE5" stroke="black" stroke-width="0.25" stroke-miterlimit="10"/>
<path d="M81.3332 43.3965C81.4934 43.2305 81.6086 43.0264 81.668 42.8035C81.7273 42.5806 81.7288 42.3462 81.6724 42.1225C81.6211 41.8561 81.5108 41.6046 81.3498 41.3863C81.34 41.0893 81.2927 40.7946 81.2092 40.5094C81.2836 40.4433 81.3332 40.4019 81.3415 40.4102C81.4809 39.974 81.5914 39.5291 81.6724 39.0783C81.6724 39.0039 81.052 37.9285 81.052 37.9285C80.4497 38.2988 79.9493 38.8134 79.596 39.4258C79.464 39.8446 79.4996 40.2983 79.6953 40.6914C79.5332 40.8254 79.3994 40.9903 79.3018 41.1767C79.2043 41.363 79.1449 41.5669 79.1272 41.7765C79.1095 41.986 79.1338 42.197 79.1986 42.3971C79.2635 42.5971 79.3677 42.7822 79.5051 42.9415C79.5051 42.9415 78.6778 44.2237 79.2321 44.9765L79.3148 45.0757C79.1425 45.37 79.0327 45.6967 78.9922 46.0353C79.0189 46.3391 79.1371 46.6275 79.3313 46.8626C79.2367 47.0514 79.1778 47.2562 79.1576 47.4664C79.1821 47.7754 79.3104 48.0669 79.5216 48.2937C79.4362 48.4438 79.3827 48.61 79.3644 48.7817C79.3889 49.0216 79.4939 49.2461 79.6622 49.4187C79.4555 49.5045 79.2876 49.6636 79.1907 49.8654C78.9177 50.3948 79.5381 51.0152 79.5216 51.1559C79.8795 50.9625 80.1578 50.6491 80.3075 50.2707C80.3728 50.055 80.3728 49.8247 80.3075 49.609C80.4757 49.4604 80.5995 49.2681 80.6652 49.0535C80.7309 48.8389 80.7359 48.6102 80.6797 48.3929C80.8512 48.1786 80.9668 47.9251 81.0159 47.655C81.065 47.385 81.0461 47.107 80.961 46.846C81.2289 46.3377 81.2967 45.7474 81.1512 45.1916C81.3521 44.9421 81.4762 44.6397 81.5085 44.321C81.5408 44.0024 81.4799 43.6812 81.3332 43.3965V43.3965Z" fill="#FFCE7E" stroke="black" stroke-width="0.25" stroke-miterlimit="10"/>
<path d="M86.735 40.3688C85.5356 41.0223 84.3112 39.2769 83.4675 39.7153C83.3196 39.8001 83.1947 39.9198 83.1039 40.064C83.013 40.2082 82.9589 40.3725 82.9463 40.5425V40.5425C82.9033 40.8898 82.7414 41.2114 82.488 41.4527C82.2346 41.694 81.9055 41.8401 81.5566 41.8661C81.4821 42.3459 80.8121 41.5269 80.4812 39.7649C80.1503 38.0029 81.5649 37.0185 82.5824 36.6297C83.6994 36.2035 84.929 36.1743 86.065 36.547C86.3762 36.6321 86.6645 36.7854 86.9092 36.9957C87.1539 37.206 87.3487 37.4681 87.4795 37.763C87.4795 37.763 88.282 39.5168 86.735 40.3688Z" fill="#FFCE7E" stroke="black" stroke-width="0.25" stroke-miterlimit="10"/>
<path d="M76.3864 50.9491C76.7256 50.2294 73.6317 49.2946 73.2016 49.9399C72.4156 51.2781 71.8566 52.7372 71.5471 54.258L74.3183 55.0852C74.3183 55.0852 75.584 52.6449 76.3864 50.9491Z" fill="#FEEDE5" stroke="black" stroke-width="0.25" stroke-miterlimit="10"/>
<path d="M78.5951 45.9774C78.5951 45.9774 76.0141 46.391 74.8146 47.5326C73.8982 48.4942 73.1389 49.5941 72.5646 50.7919C73.5478 51.6026 74.6685 52.2302 75.8735 52.6449C76.8416 51.3941 77.6735 50.0436 78.3552 48.6163L78.5951 45.9774Z" fill="#DF2925" stroke="black" stroke-width="0.25" stroke-miterlimit="10"/>
<path d="M81.9537 58.0384C81.8684 58.0296 81.7825 58.0296 81.6972 58.0384C81.9206 57.9805 81.9702 57.8978 81.9537 57.8564C81.9371 57.8151 81.8048 57.7406 81.6807 57.7158C81.5566 57.691 81.0685 57.7158 80.8948 57.7158C80.7193 57.6687 80.5478 57.6079 80.3819 57.5338C80.5552 57.5521 80.7298 57.5521 80.9031 57.5338C81.1264 57.5338 81.2671 57.3353 81.1016 57.2856C80.8122 57.1517 80.5013 57.0705 80.1834 57.0458L79.017 57.1698C78.5 56.8802 78.0025 56.5569 77.528 56.202C76.1548 55.1928 74.4424 53.7203 73.4746 53.4969L71.5719 54.3242C71.3734 55.9786 77.7265 58.1542 78.6944 58.4603C78.813 58.6092 78.9626 58.7306 79.1328 58.816C79.3464 58.8931 79.5647 58.9566 79.7863 59.0063C79.7863 59.0063 80.3323 59.0725 80.5639 59.0725C80.8863 59.05 81.1998 58.9568 81.4821 58.7995C81.4936 58.7839 81.4997 58.765 81.4997 58.7457C81.4997 58.7264 81.4936 58.7075 81.4821 58.6919C81.618 58.6787 81.75 58.6394 81.8709 58.5761C81.8709 58.5265 81.8709 58.4686 81.8048 58.4272C81.9502 58.4117 82.0909 58.3667 82.2184 58.2949C82.2515 58.1791 82.1026 58.0715 81.9537 58.0384Z" fill="#FEEDE5" stroke="black" stroke-width="0.25" stroke-miterlimit="10"/>
<path d="M86.5944 53.2819C85.6017 53.3811 83.848 55.0025 82.3259 55.7635C81.7911 56.04 81.2384 56.2804 80.6715 56.4832C80.3406 56.4832 79.8442 56.2516 79.4554 56.2102C79.1396 56.2468 78.8305 56.3275 78.5372 56.4502C78.3718 56.5081 78.5372 56.6735 78.7357 56.6983C78.909 56.7166 79.0837 56.7166 79.2569 56.6983C79.0901 56.7725 78.9188 56.836 78.744 56.8886C78.5703 56.9299 78.0905 56.8886 77.9582 56.8886C77.8258 56.8886 77.7017 56.9548 77.6852 57.0209C77.6686 57.0871 77.6852 57.145 77.9416 57.2029H77.6769C77.5363 57.2029 77.3874 57.3436 77.437 57.4346C77.5656 57.502 77.7061 57.5442 77.8506 57.5586C77.7927 57.5586 77.7596 57.6579 77.7844 57.7075C77.904 57.7754 78.0364 57.8176 78.1732 57.8316C78.1618 57.8472 78.1557 57.8661 78.1557 57.8854C78.1557 57.9047 78.1618 57.9236 78.1732 57.9392C78.4566 58.0941 78.7695 58.1871 79.0915 58.2122C79.3231 58.2122 79.8691 58.1377 79.8691 58.1377C80.0907 58.0881 80.3089 58.0245 80.5226 57.9474C80.6248 57.8941 80.7193 57.8273 80.8038 57.7489V57.7489C81.4656 57.6414 84.7083 57.2277 85.8334 56.3343C86.6275 55.7636 86.5944 53.2819 86.5944 53.2819Z" fill="#FEEDE5" stroke="black" stroke-width="0.25" stroke-miterlimit="10"/>
<path d="M83.6411 54.986C83.9064 54.7809 84.2242 54.6551 84.5579 54.6229C84.8916 54.5907 85.2276 54.6534 85.5272 54.804C85.3955 54.6831 85.2399 54.5914 85.0704 54.5346C84.901 54.4779 84.7215 54.4575 84.5436 54.4746C84.3657 54.4918 84.1934 54.5462 84.0379 54.6343C83.8825 54.7224 83.7473 54.8422 83.6411 54.986V54.986Z" fill="#DB7777" stroke="black" stroke-width="0.25" stroke-miterlimit="10"/>
<path d="M121.479 88.0255C121.335 86.2496 120.87 84.5145 120.106 82.905C120.294 82.416 120.384 81.8944 120.37 81.3704C120.356 80.8465 120.238 80.3305 120.023 79.8525C118.674 76.5932 114.373 74.4093 110.336 74.1446C111.364 75.5816 112.227 77.13 112.909 78.7605C113.536 80.0646 114.517 81.1667 115.739 81.9417C116.962 82.7166 118.377 83.1334 119.824 83.1449C120.554 84.7074 120.997 86.3887 121.131 88.1082L121.479 88.0255Z" fill="#EDEDED" stroke="black" stroke-width="0.25" stroke-miterlimit="10"/>
<path d="M121.934 74.1694C120.718 70.389 115.374 66.9808 115.374 66.9808C115.374 66.9808 115.771 73.2595 116.871 75.6336C117.847 77.7596 120.395 79.7697 121.139 80.2826C121.67 83.0074 121.919 85.7793 121.884 88.5549H122.256C122.282 85.7401 122.025 82.9299 121.487 80.1668C122.361 78.2888 122.52 76.1562 121.934 74.1694V74.1694Z" fill="#E5E5E5" stroke="black" stroke-width="0.25" stroke-miterlimit="10"/>
<path d="M125.532 78.653C126.492 78.3871 127.517 78.4934 128.403 78.9508C128.986 79.2244 129.494 79.6366 129.882 80.1513C130.27 80.666 130.526 81.2677 130.628 81.904C130.86 80.3324 130.615 78.7273 129.925 77.2963L129.817 77.0978L129.693 76.9158L128.312 75.7411L126.359 76.8993L125.532 78.653Z" fill="#CCCCCC" stroke="black" stroke-width="0.25" stroke-miterlimit="10"/>
<path d="M131.753 75.1042C130.595 74.628 129.309 74.5594 128.107 74.9096C126.904 75.2598 125.857 76.008 125.135 77.0316C123.638 79.0087 124.465 81.8544 124.804 82.8223C124.054 85.8803 123.651 89.0133 123.605 92.1617H123.969C124.019 89.0577 124.419 85.9692 125.16 82.9546C126.693 81.8834 128.071 80.6057 129.255 79.1576C130.512 77.5032 131.736 76.5684 132.564 76.4609C132.868 76.4356 133.173 76.5006 133.441 76.6477C133.709 76.7948 133.927 77.0176 134.069 77.2881C133.6 76.2942 132.773 75.5142 131.753 75.1042V75.1042Z" fill="#EDEDED" stroke="black" stroke-width="0.25" stroke-miterlimit="10"/>
<path d="M128.593 63.829C128.593 63.829 124.002 66.8484 122.802 71.6712C122.328 73.4933 122.524 75.4253 123.357 77.1143C122.539 81.0765 122.297 85.1358 122.637 89.1671H123.001C122.669 85.2223 122.9 81.2504 123.687 77.3708C124.25 77.0233 126.169 75.6088 127.584 71.6795C128.414 69.15 128.756 66.4861 128.593 63.829Z" fill="#E5E5E5" stroke="black" stroke-width="0.25" stroke-miterlimit="10"/>
<path d="M127.368 84.6256C127.381 84.5567 127.377 84.486 127.359 84.4185C127.341 84.351 127.309 84.2882 127.264 84.2346C127.219 84.1811 127.163 84.1379 127.099 84.1083C127.036 84.0787 126.967 84.0632 126.897 84.0631H117.632C117.562 84.0634 117.493 84.0789 117.429 84.1085C117.365 84.1381 117.309 84.181 117.263 84.2344C117.218 84.2878 117.184 84.3504 117.165 84.4179C117.146 84.4854 117.141 84.5562 117.152 84.6256C117.152 84.6256 117.4 92.9972 120.139 95.5119H124.39C127.129 92.9889 127.368 84.6256 127.368 84.6256Z" fill="#EAEAEA" stroke="black" stroke-width="0.25" stroke-miterlimit="10"/>
<path d="M60.8738 38.8799H68.1934C68.5349 38.8799 68.8625 39.0274 69.1049 39.2902C69.3473 39.5531 69.4848 39.9099 69.4873 40.283V44.703C69.4848 45.0761 69.3473 45.4329 69.1049 45.6958C68.8625 45.9586 68.5349 46.1061 68.1934 46.1061H67.6429C67.7699 46.7737 68.1127 47.3692 68.6086 47.7833C69.1976 48.2475 66.6194 47.9627 65.8372 46.1061H60.8448C60.505 46.1033 60.1798 45.9546 59.9395 45.6921C59.6992 45.4295 59.5631 45.0743 59.5605 44.703V40.283C59.5618 40.0964 59.5968 39.912 59.6636 39.7404C59.7304 39.5687 59.8277 39.4132 59.9498 39.2827C60.0719 39.1523 60.2163 39.0496 60.3749 38.9804C60.5335 38.9113 60.7031 38.8772 60.8738 38.8799V38.8799Z" fill="#F2F2F2" stroke="black" stroke-width="0.1" stroke-miterlimit="10"/>
<path d="M66.1712 44.6704H66.1856C66.6385 44.6704 67.0056 44.3897 67.0056 44.0434V41.1613C67.0056 40.815 66.6385 40.5342 66.1856 40.5342H66.1712C65.7183 40.5342 65.3512 40.815 65.3512 41.1613V44.0434C65.3512 44.3897 65.7183 44.6704 66.1712 44.6704Z" fill="#0A9D57" stroke="black" stroke-width="0.1" stroke-miterlimit="10"/>
<path d="M62.8622 44.6704H62.8766C63.3295 44.6704 63.6967 44.3897 63.6967 44.0434V41.1613C63.6967 40.815 63.3295 40.5342 62.8766 40.5342H62.8622C62.4093 40.5342 62.0422 40.815 62.0422 41.1613V44.0434C62.0422 44.3897 62.4093 44.6704 62.8622 44.6704Z" fill="#0A9D57" stroke="black" stroke-width="0.1" stroke-miterlimit="10"/>
<path d="M81.5849 28.0798C82.4738 22.6931 78.8276 17.6057 73.4409 16.7169C68.0542 15.828 62.9668 19.4742 62.0779 24.8609C61.1891 30.2476 64.8353 35.335 70.222 36.2238C75.6087 37.1127 80.6961 33.4665 81.5849 28.0798Z" fill="#EAEAEA" stroke="black" stroke-width="0.1" stroke-miterlimit="10"/>
<path d="M72.8044 26.4713C72.8044 26.7302 72.7015 26.9785 72.5185 27.1616C72.3354 27.3446 72.0871 27.4475 71.8283 27.4475C71.7005 27.4475 71.5739 27.4222 71.4559 27.373C71.338 27.3239 71.2309 27.2518 71.1409 27.1611C71.051 27.0703 70.9798 26.9626 70.9317 26.8443C70.8835 26.7259 70.8593 26.5991 70.8604 26.4713C70.8604 26.2146 70.9624 25.9685 71.1439 25.787C71.3254 25.6055 71.5716 25.5035 71.8283 25.5035C71.9561 25.5024 72.0828 25.5266 72.2012 25.5748C72.3196 25.6229 72.4272 25.694 72.518 25.784C72.6087 25.874 72.6808 25.9811 72.7299 26.099C72.7791 26.217 72.8044 26.3435 72.8044 26.4713V26.4713Z" fill="#0A9D57" stroke="black" stroke-width="0.1" stroke-miterlimit="10"/>
<path d="M71.8449 35.6371C69.4161 35.6327 67.0882 34.6653 65.3716 32.9471C63.6549 31.229 62.6897 28.9001 62.6875 26.4714C62.6919 24.044 63.6581 21.7173 65.3745 20.0009C67.0909 18.2845 69.4176 17.3183 71.8449 17.3139C74.2737 17.3161 76.6025 18.2813 78.3207 19.998C80.0389 21.7146 81.0063 24.0426 81.0106 26.4714C81.0084 28.9016 80.0421 31.2316 78.3236 32.9501C76.6052 34.6685 74.2752 35.6349 71.8449 35.6371V35.6371ZM71.8449 17.711C69.5251 17.7154 67.3015 18.6389 65.6611 20.2793C64.0207 21.9196 63.0972 24.1432 63.0929 26.4631C63.0929 28.7858 64.0144 31.0136 65.6553 32.6576C67.2961 34.3016 69.5222 35.2273 71.8449 35.2317C74.1677 35.2295 76.3946 34.3059 78.037 32.6634C79.6795 31.021 80.6031 28.7941 80.6053 26.4714C80.6031 24.1486 79.6795 21.9217 78.037 20.2793C76.3946 18.6368 74.1677 17.7132 71.8449 17.711V17.711Z" fill="white" stroke="black" stroke-width="0.1" stroke-miterlimit="10"/>
<path d="M67.0801 21.4253C68.3112 20.2618 69.9283 19.5932 71.6216 19.5474V18.2404C69.5828 18.2891 67.6357 19.0974 66.1619 20.507L67.0801 21.4253Z" fill="#0A9D57" stroke="black" stroke-width="0.1" stroke-miterlimit="10"/>
<path d="M72.0435 18.2404V19.5474C73.7342 19.5936 75.3485 20.2623 76.5767 21.4253L77.5032 20.507C76.0276 19.1001 74.0816 18.2922 72.0435 18.2404Z" fill="#0A9D57" stroke="black" stroke-width="0.1" stroke-miterlimit="10"/>
<path d="M64.9044 26.2645C64.9517 24.5715 65.6201 22.9551 66.7823 21.723L65.864 20.8048C64.4558 22.2795 63.6476 24.2261 63.5974 26.2645H64.9044Z" fill="#0A9D57" stroke="black" stroke-width="0.1" stroke-miterlimit="10"/>
<path d="M66.7823 31.2196C65.6193 29.9915 64.9507 28.3772 64.9045 26.6864H63.5726C63.6277 28.7223 64.4318 30.6663 65.831 32.1461L66.7823 31.2196Z" fill="#0A9D57" stroke="black" stroke-width="0.1" stroke-miterlimit="10"/>
<path d="M78.7605 26.6864C78.7074 28.3773 78.0364 29.9901 76.8744 31.2196L77.8009 32.1461C79.2068 30.6706 80.012 28.7239 80.0592 26.6864H78.7605Z" fill="#0A9D57" stroke="black" stroke-width="0.1" stroke-miterlimit="10"/>
<path d="M76.8744 21.723C78.0369 22.9555 78.7079 24.5711 78.7605 26.2645H80.0592C80.012 24.227 79.2068 22.2803 77.8009 20.8048L76.8744 21.723Z" fill="#0A9D57" stroke="black" stroke-width="0.1" stroke-miterlimit="10"/>
<path d="M76.5767 31.5175C75.3485 32.6804 73.7342 33.3491 72.0435 33.3953V34.7023C74.0806 34.6535 76.0268 33.8485 77.5032 32.4439L76.5767 31.5175Z" fill="#0A9D57" stroke="black" stroke-width="0.1" stroke-miterlimit="10"/>
<path d="M71.6216 33.4283C69.9281 33.3758 68.3126 32.7048 67.0801 31.5423L66.1619 32.4688C67.6365 33.876 69.5837 34.6815 71.6216 34.7271V33.4283Z" fill="#0A9D57" stroke="black" stroke-width="0.1" stroke-miterlimit="10"/>
<path d="M73.8964 32.08C73.854 32.08 73.8124 32.0674 73.7771 32.0438C73.7418 32.0203 73.7142 31.9868 73.6979 31.9476L71.6712 26.6285L66.0543 24.3288C66.0292 24.318 66.0066 24.3024 65.9876 24.2828C65.9686 24.2632 65.9537 24.2401 65.9437 24.2147C65.9337 24.1893 65.9288 24.1622 65.9294 24.135C65.9299 24.1077 65.9358 24.0808 65.9467 24.0558C65.9558 24.0304 65.9701 24.007 65.9885 23.9872C66.007 23.9675 66.0293 23.9517 66.0541 23.9408C66.0789 23.93 66.1056 23.9243 66.1327 23.9242C66.1597 23.924 66.1866 23.9294 66.2114 23.94L71.8862 26.2563C71.9361 26.2817 71.9767 26.3222 72.0021 26.3721L74.0618 31.7739C74.0724 31.7988 74.0779 31.8256 74.0777 31.8527C74.0776 31.8797 74.0719 31.9065 74.0611 31.9312C74.0502 31.956 74.0344 31.9783 74.0146 31.9968C73.9949 32.0153 73.9715 32.0295 73.946 32.0386L73.8964 32.08Z" fill="#0A9D57" stroke="black" stroke-width="0.1" stroke-miterlimit="10"/>
<path d="M118.443 32.262H109.873C109.675 32.2603 109.478 32.2988 109.295 32.3752C109.111 32.4517 108.945 32.5645 108.804 32.7072C108.664 32.8499 108.553 33.0196 108.478 33.2064C108.403 33.3932 108.365 33.5933 108.367 33.7951V38.6115C108.367 39.0181 108.526 39.408 108.808 39.6955C109.09 39.983 109.473 40.1445 109.873 40.1445H110.513C110.356 40.8747 109.946 41.5231 109.358 41.9714C108.668 42.4825 111.692 42.1759 112.596 40.1445H118.443C118.842 40.1445 119.225 39.983 119.507 39.6955C119.79 39.408 119.948 39.0181 119.948 38.6115V33.7951C119.948 33.3885 119.79 32.9985 119.507 32.711C119.225 32.4235 118.842 32.262 118.443 32.262V32.262Z" fill="#0A9D57" stroke="black" stroke-width="0.1" stroke-miterlimit="10"/>
<path d="M117.881 34.7436H110.434C110.325 34.7436 110.22 34.7001 110.142 34.6225C110.065 34.5449 110.021 34.4397 110.021 34.33V34.33C110.021 34.2203 110.065 34.1151 110.142 34.0376C110.22 33.96 110.325 33.9164 110.434 33.9164H117.881C117.99 33.9164 118.095 33.96 118.173 34.0376C118.25 34.1151 118.294 34.2203 118.294 34.33V34.33C118.294 34.4397 118.25 34.5449 118.173 34.6225C118.095 34.7001 117.99 34.7436 117.881 34.7436V34.7436Z" fill="white" stroke="black" stroke-width="0.1" stroke-miterlimit="10"/>
<path d="M117.881 36.3981H110.434C110.325 36.3981 110.22 36.3545 110.142 36.277C110.065 36.1994 110.021 36.0942 110.021 35.9845V35.9845C110.021 35.8748 110.065 35.7696 110.142 35.692C110.22 35.6145 110.325 35.5709 110.434 35.5709H117.881C117.99 35.5709 118.095 35.6145 118.173 35.692C118.25 35.7696 118.294 35.8748 118.294 35.9845V35.9845C118.294 36.0942 118.25 36.1994 118.173 36.277C118.095 36.3545 117.99 36.3981 117.881 36.3981Z" fill="white" stroke="black" stroke-width="0.1" stroke-miterlimit="10"/>
<path d="M115.366 38.0526H110.468C110.409 38.0526 110.351 38.0419 110.297 38.0211C110.243 38.0003 110.194 37.9698 110.152 37.9314C110.111 37.893 110.078 37.8474 110.055 37.7972C110.033 37.7471 110.021 37.6933 110.021 37.639C110.021 37.5293 110.069 37.4241 110.152 37.3465C110.236 37.2689 110.35 37.2253 110.468 37.2253H115.366C115.484 37.2253 115.598 37.2689 115.681 37.3465C115.765 37.4241 115.812 37.5293 115.812 37.639V37.639C115.812 37.6933 115.801 37.7471 115.778 37.7972C115.756 37.8474 115.723 37.893 115.681 37.9314C115.64 37.9698 115.591 38.0003 115.537 38.0211C115.482 38.0419 115.424 38.0526 115.366 38.0526V38.0526Z" fill="white" stroke="black" stroke-width="0.1" stroke-miterlimit="10"/>
<path d="M151.063 95.9558H1.14762C1.10888 95.9626 1.06965 95.9572 1.0323 95.94C0.994945 95.9229 0.960225 95.8942 0.930275 95.8558C0.900325 95.8174 0.875766 95.7701 0.858044 95.7167C0.840323 95.6632 0.829846 95.6049 0.827209 95.545C0.829846 95.4852 0.840323 95.4268 0.858044 95.3734C0.875766 95.32 0.900325 95.2726 0.930275 95.2342C0.960225 95.1958 0.994945 95.1672 1.0323 95.15C1.06965 95.1328 1.10888 95.1275 1.14762 95.1343H151.063C151.14 95.1251 151.217 95.1628 151.277 95.2395C151.337 95.3163 151.375 95.4259 151.383 95.545C151.375 95.6642 151.337 95.7738 151.277 95.8505C151.217 95.9272 151.14 95.965 151.063 95.9558V95.9558Z" fill="#232230" stroke="black" stroke-width="0.1" stroke-miterlimit="10"/>
</svg>
