<svg id="svg2" xmlns="http://www.w3.org/2000/svg" viewBox="0 0 600 599.86"><defs><style>.cls-1{fill:#df2926;}</style></defs><path id="pet" class="cls-1" d="M1069.4,79.34c-53.29,6.15-83.55,64.58-87.4,115.33-6.3,45.12,13.4,102.69,60.79,113.07,41.06,3.66,73.74-34.92,87.16-71.73,15.85-46.06,16.31-107.58-22.15-142.09C1097.12,84.66,1083.4,79,1069.4,79.34ZM852,81.75c-44.34,3.21-67.07,54.74-64,96.11.37,55.31,30.75,117.52,86.14,130.65,41.31,4.47,68.85-39.34,71.41-77.65,5.27-58.63-20.7-129.64-79.52-147.34a48,48,0,0,0-14-1.77Zm356.32,177.63c-59.49,4.36-97.12,67.77-99.7,125.06-3.13,37.31,21,84.24,61.56,81.67,60.71-6.44,97.31-74.09,95.8-132.88C1265.6,299.39,1244.15,260.79,1208.33,259.38ZM666.49,336.72C661,400.21,705.41,472,770,476c39.11-2.62,57.55-48.05,53.07-84-3.57-53-39-107.34-85.1-114.43S665.76,303,666.49,336.72Zm306.34,54.16c-60.5.14-115.82,39.7-145.4,93.23-24.77,40-45,85.28-48.88,133.07.84,36.86,36,67.53,71.27,60.19,50.29-6.53,95.23-41.46,147.54-34.91,43.46,3.47,79.31,37.17,123.19,36.68,42.61,1.6,67.19-47.23,50.94-85.47-17.48-54.76-51.39-102.39-87.77-145.28C1054.69,416.77,1016.67,389.48,972.83,390.88Z" transform="translate(-666.03 -79.32)"/></svg>