<svg width="221" height="256" viewBox="0 0 221 256" fill="none" xmlns="http://www.w3.org/2000/svg">
<path d="M209.37 198.46C192.03 230.27 164.15 247.27 129.38 253.67C100.05 259.07 72.01 254.99 46.43 238.92C20.5 222.63 6.92999 198.36 2.42999 168.57C0.329995 154.65 0.729995 140.7 2.38999 126.75C2.68999 124.25 3.41999 122.15 5.86999 121.17C8.40999 120.16 10.34 121.43 12.06 123.21C18.65 130.05 25.63 136.46 33.38 141.99C35.05 141.4 33.95 139.77 34.59 138.8C34 106.97 38.64 76.28 54.43 48.05C56.37 44.59 58.79 41.4 60.92 38.04C62.99 34.77 65.69 33.56 69.37 35.22C70.43 34.11 71.5 33.01 72.56 31.91C71.25 29.43 70.68 26.94 73.08 24.81C75.45 22.71 77.89 23.5 80.26 24.92C83.07 22.81 85.88 20.7 88.7 18.6C87.52 14.76 88.99 12.45 92.5 10.57C101.68 5.67001 111.45 2.64001 121.52 0.330007C123.98 -0.239993 126.15 -0.239993 127.88 1.81001C129.51 3.72001 129.14 5.82001 128.28 7.91001C123.87 18.68 119.94 29.6 117.87 41.11C116.05 51.19 115.25 61.28 118.42 71.24C123.44 86.96 139.91 93.8 153.51 85.95C158.98 82.8 162.1 78.23 162.07 71.78C162.05 69.2 162.15 66.76 164.96 65.46C168.03 64.03 170.05 65.91 171.99 67.74C189.88 84.61 195.7 105.58 192.91 129.47C192.02 137.07 189.79 144.34 187.17 152.23C196.46 150.64 205.65 150.76 212.1 142.99C213.51 141.29 215.47 140.95 217.55 141.76C219.93 142.68 220.57 144.63 220.65 146.95C221.21 165.07 218.11 182.44 209.37 198.46Z" fill="#F7F9FA"/>
<path d="M209.37 198.46C192.03 230.27 164.15 247.27 129.38 253.67C100.05 259.07 72.01 254.99 46.43 238.92C20.5 222.63 6.92999 198.36 2.42999 168.57C0.329995 154.65 0.729995 140.7 2.38999 126.75C2.68999 124.25 3.41999 122.15 5.86999 121.17C8.40999 120.16 10.34 121.43 12.06 123.21C18.65 130.05 25.63 136.46 33.38 141.99C35.89 141.72 34.82 140.1 34.59 138.8C34 106.97 38.64 76.28 54.43 48.05C56.37 44.59 58.79 41.4 60.92 38.04C62.99 34.77 65.69 33.56 69.37 35.22C73.34 37.12 72.7 40.13 71.07 43.12C69.07 46.77 66.5 50.06 64.39 53.66C53.36 72.48 48.85 93.14 46.78 114.55C45.69 125.83 45.35 137.08 46.57 148.4C47.28 155.01 42.58 158.32 36.29 156C27.54 152.76 20.57 146.78 13.65 140.71C9.18999 169.67 20.24 211.02 55.11 230.85C48.94 222.09 44.35 213.28 42.3 203.47C38.42 184.96 42.47 167.87 52.07 151.78C59.23 139.78 66.55 127.85 72.1 114.96C74.84 108.58 76.22 102.06 76.08 95.07C75.88 84.79 79.71 82.62 89.11 87.19C102.71 93.8 114.08 102.91 122.37 115.76C127.77 124.13 129.95 133.39 131 143.58C134.17 142.67 136.12 140.54 137.98 138.32C139.48 136.53 140.67 134.49 142.33 132.85C145.56 129.67 150.19 129.7 152.75 133.43C160.77 145.19 165.41 158.32 167.14 172.4C167.66 176.61 165.52 178.59 160.98 178.83C160.57 178.85 160.14 178.86 159.69 178.85H159.44C155.71 177.59 154.81 174.36 154.13 171.05C152.77 164.35 150.94 157.8 148.18 151.52C147.07 148.97 146.05 148.64 143.9 150.59C139.06 154.97 133.65 158.52 127.48 160.8C120.35 163.44 116.09 160.35 117.26 152.79C120.6 131.25 110.65 116.33 93.88 104.7C89.5 101.66 89.17 101.85 87.99 107.15C85.11 120.02 78.75 131.32 72.23 142.55C67.89 150.02 63.12 157.29 59.46 165.11C49.53 186.25 52.26 206.13 66.33 224.59C66.49 224.84 66.69 225.05 66.85 225.31C66.93 225.43 67 225.57 67.04 225.72C67.05 225.53 67 225.37 66.93 225.23C66.72 224.82 66.28 224.54 66.12 224.1C55.67 202.46 60.21 177.38 76.44 160.32C81.63 154.86 87.37 150.13 93.94 146.41C97.06 144.65 100.18 143.78 103.2 146.29C106.1 148.71 105.72 151.88 104.55 155C103.26 158.44 102.2 161.95 101.92 165.62C101.51 171.25 102.44 176.59 106.23 181.05C111.01 186.66 118.02 187.9 124.73 184.42C127.57 182.94 129.82 180.7 132.32 178.77C135.12 176.6 138.32 175.92 140.92 178.62C148.69 186.68 153.82 195.9 152.05 207.68C151.91 208.17 151.77 208.65 151.62 209.13C151.55 209.34 151.48 209.56 151.4 209.77C151.29 210.14 151.16 210.51 151.02 210.88C151.19 210.52 151.32 210.15 151.46 209.78C151.53 209.58 151.6 209.38 151.68 209.18C151.73 209.05 151.78 208.92 151.84 208.79C152.34 206.13 153.42 203.99 156.48 203.64C156.71 203.66 156.93 203.69 157.14 203.73C157.48 203.77 157.8 203.83 158.11 203.89C163.39 205.02 165.01 208.64 162.46 214.41C158.45 223.48 153.07 231.63 145.43 237.93C164.23 231.25 180.15 220.3 192.44 204.35C201.72 192.3 206.52 178.42 208.68 163.5C209.05 160.9 209.03 159.2 205.47 160.31C198.45 162.51 191.12 163.16 183.85 163.96C175.26 164.92 171.49 160.15 174.77 152.21C179.94 139.72 182.96 126.91 181.97 113.3C181.2 102.59 177.91 92.85 171.03 83.58C166.91 91.2 160.83 95.89 153.21 98.44C131.62 105.66 110.45 92.28 106.13 68.91C102.97 51.79 106.75 35.5 111.77 19.33C112.11 18.22 112.69 17.19 112.88 16.02C112.93 15.68 112.85 15.37 112.46 14.83C107.08 15.61 102.44 18.63 97.46 20.78C94.07 22.24 90.67 23.13 88.7 18.6C87.52 14.76 88.99 12.45 92.5 10.57C101.68 5.67001 111.45 2.64001 121.52 0.330007C123.98 -0.239993 126.15 -0.239993 127.88 1.81001C129.51 3.72001 129.14 5.82001 128.28 7.91001C123.87 18.68 119.94 29.6 117.87 41.11C116.05 51.19 115.25 61.28 118.42 71.24C123.44 86.96 139.91 93.8 153.51 85.95C158.98 82.8 162.1 78.23 162.07 71.78C162.05 69.2 162.15 66.76 164.96 65.46C168.03 64.03 170.05 65.91 171.99 67.74C189.88 84.61 195.7 105.58 192.91 129.47C192.02 137.07 189.79 144.34 187.17 152.23C196.46 150.64 205.65 150.76 212.1 142.99C213.51 141.29 215.47 140.95 217.55 141.76C219.93 142.68 220.57 144.63 220.65 146.95C221.21 165.07 218.11 182.44 209.37 198.46Z" fill="black"/>
<path d="M141.55 239.69C150.59 232.18 157.37 223.44 161.61 212.85C163.74 207.53 162.43 205.33 156.61 204.38C156.79 204.17 156.97 203.95 157.14 203.73C159.5 200.56 159.74 196.62 160.81 192.97C160.87 192.92 160.93 192.87 160.99 192.83C161.06 192.77 161.12 192.72 161.19 192.67C166.11 188.66 166.13 187.68 162.07 183.23C162.04 183.14 162.01 183.06 161.97 182.98C161.93 182.89 161.89 182.79 161.84 182.71C161.2 181.38 160.11 180.28 159.69 178.85C159.62 178.61 159.57 178.36 159.54 178.1C165.3 177.61 166.46 176.17 165.58 170.54C163.64 158.05 159.31 146.44 152.73 135.67C149.35 130.14 145.78 129.98 142.1 135.22C138.83 139.87 135.08 143.94 129.44 146.96C129.59 132.48 125.18 120.09 116.15 109.44C107.59 99.34 97.05 91.91 84.92 86.75C80.12 84.71 76.71 87.05 77.43 92.18C78.78 101.74 75.8 110.28 72 118.68C66.5 130.83 59.26 142.03 52.69 153.6C37.38 180.56 38.22 206.5 57.47 231.33C57.85 231.82 58.09 232.41 58.04 233.34C47.72 228.98 39.32 222.11 32.27 213.54C14.12 191.47 9.72 165.59 11.46 137.15C15.25 140.29 18.58 143.06 21.92 145.82C26.18 149.32 30.66 152.52 35.82 154.55C42.57 157.22 45.72 154.81 45.13 147.66C43.26 124.7 45.36 102.09 51.7 79.95C55.38 67.08 60.88 54.97 68.89 44.16C71.12 41.14 72.02 38.35 69.37 35.22C70.43 34.11 71.5 33.01 72.56 31.91C72.7 31.83 72.84 31.71 72.99 31.69C79.52 31.03 79.52 31.03 80.26 24.92C83.07 22.81 85.88 20.7 88.7 18.6C91.28 21.3 94 21.31 97.18 19.45C102.66 16.25 108.58 14.05 114.92 12.36C115.65 14.55 114.22 16.21 113.65 17.99C108.36 34.42 104.32 50.98 107.42 68.46C111.68 92.49 134.29 105.5 155.51 96.11C162.35 93.08 167.34 88.21 170.71 81.08C178.15 89.94 182 99.97 183.26 111C184.91 125.43 182.13 139.28 176.03 152.28C172.56 159.67 175.75 163.41 183.57 162.58C192.51 161.64 201.42 160.71 209.9 157.26C213.73 189.26 173.75 237.63 141.55 239.69Z" fill="#F34545"/>
<path d="M79.86 31.79C77.52 34.03 75.02 33.34 72.56 31.91C71.25 29.43 70.68 26.94 73.08 24.81C75.45 22.71 77.89 23.5 80.26 24.92C81.42 27.29 82.07 29.69 79.86 31.79Z" fill="#060404"/>
<path d="M34.87 142.38C34.5 142.94 33.73 142.73 33.38 141.99C35.05 141.4 33.95 139.77 34.59 138.8C35.46 139.93 35.66 141.21 34.87 142.38Z" fill="#4B4C4C"/>
<path d="M161.38 192.96C161.41 195.37 160.77 197.75 160.64 200.09C160.47 203.09 158.84 203.79 156.62 204.38C154.14 205.29 152.98 207.31 152.22 209.66C151.3 210 150.93 209.74 151.2 208.75C151.95 198.05 148.66 188.75 141.41 180.86C138.01 177.16 135.82 177.13 132.13 180.5C130.66 181.85 129.26 183.31 127.63 184.43C117.33 191.53 105.01 187.15 101.44 175.14C99.4 168.28 100.6 161.66 103 155.13C104.03 152.33 105.39 149.38 102.35 146.92C99.34 144.49 96.75 146.3 94.17 147.89C78.56 157.49 66.86 170.1 62.93 188.63C60.27 201.15 62.65 213.07 67.53 224.64C67.86 225.8 67.32 226.08 66.29 225.89C50.27 208.87 47.75 183.08 60.03 161.01C66.26 149.82 72.78 138.79 78.84 127.51C83.1 119.59 86.49 111.25 87.44 102.17C87.66 100.11 88.19 99.52 90.2 100.68C106.46 110.09 123.36 128.04 118.53 152.66C118.03 155.22 117.57 158.01 120.33 159.92C122.82 161.65 125.2 160.61 127.4 159.51C130.96 157.73 134.53 155.88 137.8 153.63C140.93 151.48 143.69 148.79 146.94 146.06C151.21 153.58 153.72 161.68 155.37 170.09C155.97 173.17 156.1 176.49 159.54 178.09C161.67 178.87 162.85 180.23 162.29 182.64C157.78 187.33 157.76 187.49 161.38 192.96Z" fill="#0B9D58"/>
<path d="M90.38 163.7C90.56 167.66 90.37 171.61 91.22 175.55C95.5 195.41 116.03 204.12 132.84 192.84C136.26 190.55 137.36 191.27 138.85 194.51C143.22 204.04 141.33 213.03 136.63 221.71C131.77 230.69 124.68 237.52 115.97 242.84C111.16 245.78 106.55 245.98 101.32 244.03C76.8 234.9 58.97 196.56 83.92 168.84C85.69 166.88 87.18 164.67 88.8 162.58C89.33 162.95 89.86 163.33 90.38 163.7Z" fill="#FEB94A"/>
<path d="M66.29 225.89C66.7 225.47 67.12 225.06 67.53 224.64C68.19 225.72 68.86 226.81 69.6 228.03C67.36 228.59 67.08 226.87 66.29 225.89Z" fill="#D76E39"/>
<path d="M151.19 208.74C151.53 209.04 151.87 209.35 152.21 209.65C151.85 210.5 151.5 211.35 151.05 212.41C149.92 210.84 150.37 209.77 151.19 208.74Z" fill="#793E20"/>
<path d="M161.38 192.96C158.63 192.1 156.85 190.45 157.09 187.36C157.34 184.22 159.44 182.99 162.29 182.65C165.14 183.43 166.9 185.14 166.65 188.24C166.41 191.4 164.27 192.64 161.38 192.96Z" fill="#050201"/>
</svg>
