<svg id="Layer_1" data-name="Layer 1" xmlns="http://www.w3.org/2000/svg" viewBox="0 0 600 599.96"><defs><style>.cls-1{fill:#df2926;}</style></defs><path id="flight_plane" data-name="flight plane" class="cls-1" d="M948.9-149.52c24.58-33,39.37-67.2,39.44-91.65a34.08,34.08,0,0,0-4.64-18.73,17.49,17.49,0,0,0-5.93-6,33.43,33.43,0,0,0-19-4.77c-24.39,0-58.63,14.77-91.6,39.43A790,790,0,0,0,777-144.28q-9.4,9.9-19.82,20.81l-71.46-21.42.2-.21a16,16,0,0,0,0-22.54L673-180.55a16.14,16.14,0,0,0-11.37-4.73,15.74,15.74,0,0,0-11.27,4.7L631-161.26l-10.25-3.08a16,16,0,0,0-1.28-21.13l-13-13a16,16,0,0,0-11.36-4.68,15.71,15.71,0,0,0-11.27,4.69L566.17-180.7,493.5-202.47a18.3,18.3,0,0,0-5.2-.73,19.21,19.21,0,0,0-13.43,5.44l-25.55,25.55a15,15,0,0,0-4.49,10.54,14.69,14.69,0,0,0,7.79,13.15L605.45-63.14a27.2,27.2,0,0,1,3.71,2.81l43.56,43.56C612,26.17,575.67,67.75,547.37,103.92c-2.64,3.36-5.12,6.65-7.6,9.89L421.54,103.07a15.56,15.56,0,0,0-2.05-.12,21.82,21.82,0,0,0-14.64,6l-11.91,11.89a14.86,14.86,0,0,0-4.57,10.55,14.52,14.52,0,0,0,8.6,13.31l83.17,39.52a18.27,18.27,0,0,1,3.18,2.28l6.91,6.84a50.71,50.71,0,0,0-3.33,16,21,21,0,0,0,5.81,15.37l.3.27.08,0a21.08,21.08,0,0,0,15.29,5.74,51,51,0,0,0,15.86-3.3l7,7a20.6,20.6,0,0,1,2.17,3.08l39.42,83a14.69,14.69,0,0,0,13.25,8.72h.09a14.81,14.81,0,0,0,10.51-4.42l12.21-12.3a21.81,21.81,0,0,0,5.83-14.61,11,11,0,0,0-.05-1.47L603.91,177.82c3.25-2.44,6.51-5,9.88-7.57C650,141.92,691.65,105.58,734.46,64.88l43.6,43.64a23.53,23.53,0,0,1,2.85,3.74L866.12,264.8a14.87,14.87,0,0,0,20.07,6.28,15.28,15.28,0,0,0,3.72-2.77l25.73-25.71a19.51,19.51,0,0,0,5.27-13.42,18.26,18.26,0,0,0-.71-5l-21.77-72.68,17.71-17.75a16,16,0,0,0,0-22.59l-13-13A16,16,0,0,0,882,96.82L879,86.63l19.33-19.32A16.19,16.19,0,0,0,903,56a15.77,15.77,0,0,0-4.66-11.26L885.36,31.77a16,16,0,0,0-22.64-.07l-.07.07-.13.12-21.4-71.46q11.07-10.57,21.12-20.08C901-96.39,929-122.95,948.9-149.52Z" transform="translate(-388.37 270.69)"/></svg>