<svg width="227" height="105" viewBox="0 0 227 105" fill="none" xmlns="http://www.w3.org/2000/svg">
<path d="M204.634 103.372L185.134 103.867L165.147 104L164.138 103.996L125.79 103.858L20.2594 103.54C20.2594 103.54 6.41484 91.3843 3.79395 70.6016C-3.99769 8.83554 47.1024 -11.6786 89.4293 6.21896C123.035 20.4291 154.425 -3.95789 173.915 9.74212C188.458 19.9648 150.888 37.8758 196.222 39.2104C238.195 40.4456 222.644 105.461 204.634 103.372Z" fill="#F4F4F4"/>
<g clip-path="url(#clip0_349_36160)">
<path d="M164.595 50.3819C161.649 50.3819 159.37 49.1457 156.25 47.0597C155.633 46.6471 154.978 46.0395 154.221 45.336C151.665 42.9635 148.165 39.7135 141.765 39.6529C141.686 39.6523 141.607 39.6518 141.528 39.6518C134.724 39.6518 131.383 42.454 128.151 45.1653C125.092 47.7306 122.201 50.1555 116.703 50.1555C116.658 50.1555 116.614 50.1555 116.568 50.1555C109.318 50.1037 103.465 46.5518 98.7615 43.6984C95.8846 41.9527 93.4 40.445 91.115 39.9625C83.2123 38.2928 80.166 40.1542 74.6345 43.5336C72.7279 44.6982 70.5669 46.0185 67.8244 47.4216C62.4783 50.1571 57.2731 50.8892 52.3531 49.5974C52.2325 49.566 52.1606 49.4421 52.1919 49.3209C52.2231 49.1997 52.3466 49.1276 52.4672 49.159C57.2769 50.4215 62.3752 49.701 67.6198 47.0178C70.3475 45.6225 72.5008 44.307 74.4003 43.1464C79.844 39.8203 83.13 37.813 91.2077 39.519C93.5678 40.0175 96.0826 41.544 98.9951 43.3111C103.893 46.2835 109.445 49.652 116.572 49.7032C116.614 49.7032 116.658 49.7032 116.7 49.7032C122.037 49.7032 124.866 47.3301 127.861 44.8182C131.194 42.0232 134.644 39.1312 141.769 39.2006C148.343 39.2629 152.064 42.7178 154.527 45.0039C155.27 45.6941 155.912 46.2901 156.499 46.6829C161.356 49.9307 163.968 51.0219 170.35 48.7007C170.468 48.6582 170.597 48.7188 170.639 48.8367C170.682 48.9546 170.621 49.084 170.504 49.127C168.139 49.9874 166.26 50.3824 164.594 50.3824L164.595 50.3819Z" fill="#DF2925"/>
<path d="M87.8445 50.1775C87.0733 50.1775 86.278 50.1268 85.4553 50.0183C82.3113 49.604 79.1921 47.6623 75.5808 45.4137C69.3675 41.5451 62.3249 37.1603 52.282 38.5539C52.1586 38.5699 52.0451 38.4845 52.0275 38.3606C52.0105 38.2366 52.0966 38.1221 52.2201 38.105C62.4247 36.6887 69.8513 41.3132 75.8189 45.0287C79.3857 47.2497 82.4666 49.1678 85.5145 49.5693C92.652 50.5102 97.7354 46.9825 102.651 43.5717C106.76 40.7204 110.64 38.0279 115.529 37.9078C115.677 37.9045 115.824 37.9023 115.969 37.9023C121.577 37.9023 125.131 40.5723 128.571 43.1563C132.071 45.7855 135.689 48.5029 141.537 48.5029C141.616 48.5029 141.695 48.5029 141.775 48.5012C147.121 48.434 150.896 45.6451 154.545 42.9481C159.107 39.5769 163.416 36.3929 170.267 38.7203C170.385 38.7605 170.448 38.8888 170.408 39.0073C170.368 39.1257 170.24 39.1891 170.122 39.1494C163.493 36.897 159.277 40.0137 154.812 43.3128C151.105 46.0527 147.271 48.8857 141.78 48.954C135.642 49.0345 131.909 46.229 128.301 43.5188C124.673 40.7942 121.254 38.2223 115.54 38.36C110.786 38.4763 106.959 41.1319 102.908 43.9435C98.4836 47.0134 93.9251 50.1764 87.8456 50.1769L87.8445 50.1775Z" fill="#DF2925"/>
<path d="M87.8445 50.1775C87.0733 50.1775 86.278 50.1268 85.4553 50.0183C82.3113 49.604 79.1921 47.6623 75.5808 45.4137C69.3675 41.5451 62.3249 37.1603 52.282 38.5539C52.1586 38.5699 52.0451 38.4845 52.0275 38.3606C52.0105 38.2366 52.0966 38.1221 52.2201 38.105C62.4247 36.6887 69.8513 41.3132 75.8189 45.0287C79.3857 47.2497 82.4666 49.1678 85.5145 49.5693C92.652 50.5102 97.7354 46.9825 102.651 43.5717C106.76 40.7204 110.64 38.0279 115.529 37.9078C115.677 37.9045 115.824 37.9023 115.969 37.9023C121.577 37.9023 125.131 40.5723 128.571 43.1563C132.071 45.7855 135.689 48.5029 141.537 48.5029C141.616 48.5029 141.695 48.5029 141.775 48.5012C147.121 48.434 150.896 45.6451 154.545 42.9481C159.107 39.5769 163.416 36.3929 170.267 38.7203C170.385 38.7605 170.448 38.8888 170.408 39.0073C170.368 39.1257 170.24 39.1891 170.122 39.1494C163.493 36.897 159.277 40.0137 154.812 43.3128C151.105 46.0527 147.271 48.8857 141.78 48.954C135.642 49.0345 131.909 46.229 128.301 43.5188C124.673 40.7942 121.254 38.2223 115.54 38.36C110.786 38.4763 106.959 41.1319 102.908 43.9435C98.4836 47.0134 93.9251 50.1764 87.8456 50.1769L87.8445 50.1775Z" fill="#0A9D57"/>
<path d="M52.475 48.1625C52.4432 48.1625 52.4108 48.1542 52.3812 48.1371C52.2913 48.0854 52.2605 47.9697 52.3121 47.8793L57.7789 38.3397C57.8305 38.2493 57.9456 38.2185 58.0356 38.2702C58.1256 38.322 58.1563 38.4377 58.1047 38.528L52.6379 48.0677C52.6034 48.1283 52.5397 48.1625 52.475 48.1625Z" fill="#DF2925"/>
<path d="M57.068 50.0849C57.0494 50.0849 57.0302 50.0822 57.0115 50.0761C56.9122 50.0447 56.8574 49.9384 56.8887 49.8393L60.4105 38.636C60.4418 38.5363 60.5482 38.4818 60.6464 38.5126C60.7456 38.544 60.8005 38.6498 60.7692 38.7495L57.2474 49.9527C57.2221 50.0332 57.1481 50.0849 57.068 50.0849Z" fill="#DF2925"/>
<path d="M62.7278 49.3848C62.6247 49.3848 62.5408 49.3011 62.5397 49.1975L62.4541 39.2563C62.453 39.1522 62.5364 39.0668 62.6406 39.0657H62.6422C62.7454 39.0657 62.8293 39.1494 62.8304 39.253L62.9159 49.1942C62.917 49.2983 62.8337 49.3837 62.7295 49.3848H62.7278Z" fill="#DF2925"/>
<path d="M67.4037 47.3604C67.3281 47.3604 67.2567 47.3147 67.2282 47.2392L64.2987 39.5895C64.2614 39.492 64.3097 39.383 64.4068 39.3455C64.5028 39.3086 64.6125 39.3565 64.6498 39.454L67.5793 47.1037C67.6166 47.2012 67.5683 47.3103 67.4712 47.3477C67.4493 47.356 67.4262 47.3604 67.4037 47.3604Z" fill="#DF2925"/>
<path d="M70.8379 45.5354C70.7836 45.5354 70.7298 45.5118 70.6925 45.4666L66.699 40.5827C66.6331 40.5023 66.6447 40.3833 66.7247 40.3172C66.8054 40.2506 66.9233 40.2627 66.9891 40.3431L70.9827 45.227C71.0485 45.3074 71.037 45.4264 70.9569 45.4925C70.9218 45.5211 70.8796 45.5354 70.8379 45.5354Z" fill="#DF2925"/>
<path d="M52.4108 40.7535C52.3658 40.7535 52.3203 40.7375 52.2841 40.7045C52.2073 40.6345 52.2018 40.515 52.2715 40.4379L54.3459 38.1485C54.4161 38.0714 54.5345 38.0659 54.6113 38.1358C54.6881 38.2058 54.6936 38.3253 54.624 38.4024L52.5496 40.6918C52.5123 40.7326 52.4618 40.7535 52.4102 40.7535H52.4108Z" fill="#DF2925"/>
<path d="M90.9233 49.8024C90.892 49.8024 90.8596 49.7946 90.8306 49.7776C90.7401 49.7258 90.7088 49.6107 90.7598 49.5203L95.3095 41.4657C95.3611 41.3754 95.4757 41.3435 95.5657 41.3947C95.6562 41.4465 95.6874 41.5616 95.6364 41.6519L91.0867 49.7065C91.0521 49.7677 90.9885 49.8024 90.9233 49.8024Z" fill="#DF2925"/>
<path d="M88.1753 50.0629C88.1556 50.0629 88.1358 50.0596 88.1161 50.0535C88.0173 50.0205 87.9641 49.9136 87.997 49.815L91.2869 39.8694C91.3192 39.7702 91.4262 39.7168 91.5244 39.7498C91.6231 39.7829 91.6763 39.8897 91.6434 39.9884L88.3536 49.934C88.3272 50.0133 88.2537 50.0635 88.1753 50.0635V50.0629Z" fill="#DF2925"/>
<path d="M86.1763 49.9357C86.0727 49.9357 85.9888 49.8519 85.9882 49.7478L85.9355 39.3824C85.9355 39.2783 86.0189 39.1929 86.1226 39.1924H86.1237C86.2273 39.1924 86.3113 39.2761 86.3118 39.3802L86.3645 49.7456C86.3645 49.8497 86.2811 49.9351 86.1774 49.9357H86.1763Z" fill="#DF2925"/>
<path d="M84.3225 49.679C84.2457 49.679 84.1733 49.631 84.1458 49.5545L80.7858 40.2203C80.7501 40.1222 80.8011 40.0142 80.8988 39.9784C80.9964 39.9421 81.1039 39.9939 81.1396 40.0919L84.4996 49.4261C84.5347 49.5242 84.4843 49.6321 84.3866 49.6679C84.3658 49.6757 84.3438 49.6795 84.323 49.6795L84.3225 49.679Z" fill="#DF2925"/>
<path d="M82.0817 48.9204C82.0236 48.9204 81.9665 48.8934 81.9298 48.8433L76.9572 42.0122C76.8957 41.9279 76.9144 41.81 76.9977 41.7483C77.0817 41.6872 77.199 41.7054 77.2605 41.7891L82.2331 48.6202C82.2945 48.7045 82.2759 48.8224 82.1925 48.8841C82.159 48.9089 82.1201 48.9204 82.0817 48.9204Z" fill="#DF2925"/>
<path d="M94.5668 48.7056C94.524 48.7056 94.4813 48.6913 94.4462 48.6615C94.3666 48.5943 94.3562 48.4753 94.4226 48.3955L98.369 43.6603C98.4353 43.5805 98.5538 43.57 98.6339 43.6367C98.7134 43.7039 98.7238 43.8228 98.6575 43.9027L94.7111 48.6379C94.6738 48.6825 94.6206 48.7056 94.5668 48.7056Z" fill="#DF2925"/>
<path d="M107.084 47.8562C107.054 47.8562 107.022 47.8485 106.994 47.8325C106.903 47.7824 106.87 47.6672 106.92 47.5764L111.745 38.7831C111.795 38.6916 111.909 38.658 112.001 38.7087C112.092 38.7588 112.125 38.874 112.075 38.9649L107.249 47.7581C107.215 47.8204 107.15 47.8556 107.084 47.8556V47.8562Z" fill="#DF2925"/>
<path d="M111.429 49.3093C111.412 49.3093 111.394 49.3071 111.376 49.3016C111.276 49.2719 111.219 49.1667 111.249 49.067L114.416 38.3567C114.446 38.2565 114.549 38.1986 114.65 38.2295C114.749 38.2592 114.806 38.3644 114.776 38.4641L111.609 49.1744C111.585 49.2565 111.51 49.3093 111.429 49.3093Z" fill="#0A9D57"/>
<path d="M117.035 49.7159C116.935 49.7159 116.852 49.6365 116.847 49.5352L116.394 38.571C116.389 38.4669 116.47 38.3788 116.574 38.3744C116.677 38.3661 116.765 38.4509 116.769 38.555L117.223 49.5192C117.227 49.6233 117.147 49.7115 117.043 49.7159C117.04 49.7159 117.038 49.7159 117.035 49.7159Z" fill="#0A9D57"/>
<path d="M122.244 48.8191C122.169 48.8191 122.098 48.7734 122.069 48.699L118.167 38.625C118.129 38.5275 118.178 38.4184 118.275 38.3804C118.371 38.3435 118.48 38.3909 118.518 38.4878L122.42 48.5618C122.457 48.6593 122.409 48.7684 122.312 48.8064C122.29 48.8152 122.267 48.8191 122.244 48.8191Z" fill="#0A9D57"/>
<path d="M126.124 46.5716C126.067 46.5716 126.011 46.5457 125.974 46.4972L120.297 38.9896C120.234 38.9065 120.25 38.788 120.333 38.7252C120.415 38.6619 120.534 38.6784 120.596 38.7616L126.273 46.2692C126.336 46.3524 126.32 46.4708 126.237 46.5336C126.203 46.5595 126.163 46.5721 126.124 46.5721L126.124 46.5716Z" fill="#0A9D57"/>
<path d="M103.603 46.2824C103.561 46.2824 103.519 46.2681 103.483 46.2394C103.403 46.1733 103.392 46.0544 103.458 45.9739L108.263 40.1184C108.329 40.0379 108.447 40.0264 108.527 40.093C108.607 40.1591 108.619 40.2781 108.553 40.3585L103.748 46.2141C103.711 46.2593 103.657 46.283 103.602 46.283L103.603 46.2824Z" fill="#DF2925"/>
<path d="M144.408 48.5916C144.38 48.5916 144.353 48.5855 144.326 48.5728C144.232 48.5277 144.193 48.4148 144.238 48.3206L147.781 40.9507C147.827 40.857 147.939 40.8174 148.032 40.8626C148.126 40.9077 148.165 41.0206 148.12 41.1148L144.577 48.4847C144.545 48.5519 144.478 48.5916 144.408 48.5916Z" fill="#9CBADA"/>
<path d="M141.881 48.4996C141.866 48.4996 141.85 48.4979 141.835 48.4935C141.734 48.4676 141.673 48.3646 141.699 48.2638L143.835 39.8815C143.861 39.7801 143.965 39.719 144.064 39.7454C144.164 39.7713 144.225 39.8743 144.199 39.9751L142.063 48.3575C142.042 48.4429 141.965 48.4996 141.881 48.4996Z" fill="#9CBADA"/>
<path d="M139.892 48.4087C139.793 48.4087 139.709 48.3299 139.704 48.2291L139.299 39.9669C139.294 39.8628 139.374 39.7741 139.477 39.7691C139.578 39.7636 139.669 39.844 139.674 39.9481L140.08 48.2104C140.084 48.3145 140.004 48.4032 139.901 48.4081C139.898 48.4081 139.895 48.4081 139.892 48.4081V48.4087Z" fill="#9CBADA"/>
<path d="M138.132 48.4682C138.058 48.4682 137.987 48.4236 137.958 48.3503L134.983 40.9694C134.944 40.873 134.99 40.7629 135.086 40.7237C135.182 40.6846 135.292 40.7309 135.331 40.8279L138.306 48.2087C138.345 48.3051 138.298 48.4153 138.202 48.4544C138.179 48.4638 138.155 48.4682 138.131 48.4682H138.132Z" fill="#9CBADA"/>
<path d="M135.722 47.854C135.666 47.854 135.61 47.8286 135.573 47.7813L131.599 42.6523C131.535 42.5702 131.55 42.4512 131.632 42.3873C131.714 42.3229 131.832 42.3383 131.896 42.4204L135.87 47.5494C135.934 47.6314 135.919 47.7504 135.837 47.8143C135.803 47.8413 135.762 47.854 135.722 47.854Z" fill="#9CBADA"/>
<path d="M147.519 47.5549C147.479 47.5549 147.438 47.5417 147.403 47.5152C147.322 47.4513 147.307 47.3323 147.371 47.2503L150.864 42.7393C150.928 42.6572 151.046 42.6418 151.128 42.7063C151.21 42.7702 151.225 42.8892 151.161 42.9712L147.667 47.4822C147.631 47.5301 147.575 47.5549 147.519 47.5549Z" fill="#9CBADA"/>
<path d="M158.501 48.0721C158.47 48.0721 158.438 48.0644 158.409 48.0479C158.319 47.9967 158.287 47.8815 158.338 47.7906L163.59 38.441C163.641 38.3501 163.756 38.3182 163.846 38.3694C163.936 38.4206 163.968 38.5358 163.917 38.6266L158.665 47.9763C158.631 48.038 158.567 48.0721 158.501 48.0721Z" fill="#0A9D57"/>
<path d="M162.941 50.037C162.924 50.037 162.906 50.0348 162.889 50.0299C162.789 50.0012 162.732 49.8965 162.76 49.7963L166.098 38.089C166.126 37.9887 166.231 37.9309 166.33 37.9596C166.43 37.9882 166.488 38.0929 166.459 38.1931L163.121 49.9004C163.098 49.983 163.022 50.037 162.941 50.037Z" fill="#0A9D57"/>
<path d="M168.361 49.5539C168.259 49.5539 168.176 49.4729 168.172 49.3705L167.853 38.3584C167.85 38.2543 167.932 38.1672 168.035 38.1639C168.14 38.1584 168.226 38.2427 168.229 38.3474L168.549 49.3595C168.551 49.4636 168.47 49.5506 168.366 49.5539C168.364 49.5539 168.362 49.5539 168.361 49.5539Z" fill="#0A9D57"/>
<path d="M155.447 46.0533C155.405 46.0533 155.364 46.0395 155.329 46.0114C155.248 45.9458 155.235 45.8269 155.301 45.7459L160.603 39.1599C160.669 39.0783 160.787 39.0662 160.867 39.1318C160.948 39.1973 160.96 39.3163 160.895 39.3973L155.593 45.9833C155.556 46.0296 155.501 46.0533 155.447 46.0533Z" fill="#0A9D57"/>
<path fill-rule="evenodd" clip-rule="evenodd" d="M110.661 20.4859C110.661 20.4859 110.089 20.0458 109.899 19.327C109.723 18.6566 109.916 17.7273 110.218 17.1423C111.416 14.8221 113.117 15.6142 113.117 15.6142C113.117 15.6142 113.756 15.1746 114.455 15.2159C115.154 15.2567 115.913 15.7784 115.913 15.7784C115.913 15.7784 117.857 15.8378 118.454 17.4744C118.669 18.0649 118.834 18.9794 118.654 19.6426C118.441 20.4287 117.855 20.92 117.855 20.92C117.855 20.92 121.78 22.0608 123.611 24.2268C124.487 25.2635 124.98 26.6021 125.155 27.6465C125.347 28.784 125.179 29.5844 125.179 29.5844L123.305 34.7117C123.305 34.7117 113.971 39.6281 107.998 40.4693C106.166 40.7271 104.316 40.8438 103.574 40.0093C102.873 39.2205 102.186 36.9647 102.546 35.2642C102.616 34.9343 102.861 34.1702 102.92 33.7902C103.065 32.8664 103.009 32.2213 103.166 31.1372C103.489 28.9024 103.947 26.5277 104.993 24.8404C107.001 21.6031 110.662 20.4859 110.662 20.4859H110.661Z" fill="#D7A083"/>
<path fill-rule="evenodd" clip-rule="evenodd" d="M103.874 53.0348L105.394 52.6751L108.466 54.3959L108.542 54.9457L107.694 56.3867L105.268 60.6321L102.328 65.5672L101.842 65.678L98.1918 63.544L97.9883 63.0664L103.875 53.0342L103.874 53.0348Z" fill="#DF2925"/>
<path fill-rule="evenodd" clip-rule="evenodd" d="M86.7968 76.0979L87.325 75.6016L87.9569 75.4611L100.982 75.4909L101.822 76.1227L106.722 82.6823C106.722 82.6823 107.457 83.5631 107.734 84.2147C108.011 84.8669 107.809 85.2922 107.809 85.2922L96.4316 85.304L85.0537 85.3159V83.3504L86.7957 76.0985L86.7968 76.0979Z" fill="#0A9D57"/>
<path fill-rule="evenodd" clip-rule="evenodd" d="M106.522 35.7319C107.111 35.2538 107.738 35.3827 108.662 35.4097C110.495 35.4636 112.933 35.7831 114.616 34.8434C115.373 34.4209 116.193 33.9295 116.667 32.8173C117.312 31.3025 117.567 29.1123 118.47 28.7845C119.783 28.3081 120.928 29.385 121.353 30.2002C121.65 30.7693 121.464 31.1169 121.695 31.0788C124.184 30.6657 125.191 29.5849 125.191 29.5849L131.006 31.0799L129.774 42.7355L127.449 42.7046L127.408 41.4222L126.121 41.0102L125.089 40.9755C125.089 40.9755 124.744 41.8921 124.169 43.2703C123.605 44.6227 122.824 46.4377 121.39 46.4548C119.635 46.4763 117.188 45.1201 115.625 44.9824C115.014 44.929 114.072 45.1543 113.611 45.0479C113.144 44.94 113.183 43.8724 113.005 43.1095C112.9 42.6605 112.519 42.3526 112.454 42.3118C111.046 41.4437 109.065 40.7513 107.578 39.7113C105.949 38.5727 104.864 37.0776 106.521 35.7314L106.522 35.7319Z" fill="#FFDDC0"/>
<path fill-rule="evenodd" clip-rule="evenodd" d="M106.179 61.4805L109.042 61.5085C109.042 61.5085 109.451 67.0925 108.822 70.9149C108.193 74.7373 106.672 76.8239 106.672 76.8239L102.794 76.3023C102.794 76.3023 104.783 74.5627 105.642 70.9067C106.502 67.2506 106.179 61.4805 106.179 61.4805H106.179Z" fill="#BDC9DA"/>
<path fill-rule="evenodd" clip-rule="evenodd" d="M103.723 52.9742C103.723 52.9742 102.941 52.5533 103.025 52.0592C103.109 51.5656 104.058 50.9988 104.058 50.9988C104.058 50.9988 103.614 50.2414 103.807 49.831C104 49.4206 104.77 49.2548 104.77 49.2548C104.77 49.2548 104.551 48.9414 104.562 48.5503C104.569 48.2605 104.814 48.0407 105.037 47.7212C105.363 47.2525 106.506 47.8099 106.506 47.8099C106.506 47.8099 105.951 46.8894 106.266 46.3524C106.425 46.0819 106.844 45.8158 107.293 45.8583C107.884 45.9144 108.511 46.3403 108.511 46.3403L111.953 47.7416C111.953 47.7416 112.865 49.0587 113.726 50.9834C114.158 51.9474 114.494 53.2805 114.805 54.1547C115.115 55.0256 115.406 55.6144 115.406 55.6144C115.406 55.6144 115.597 55.881 116.416 56.6401C117.236 57.3992 118.676 58.4761 118.676 58.4761L117.439 62.4725L115.674 63.3688C115.674 63.3688 114.408 61.9162 113.051 60.9059C111.693 59.8962 110.245 59.3294 110.245 59.3294L107.693 56.4407L108.493 55.0063L108.6 54.5678L105.413 52.6916C105.413 52.6916 105.352 53.0149 104.929 53.0855C104.507 53.1554 103.723 52.9731 103.723 52.9731L103.723 52.9742Z" fill="#FFDDC0"/>
<path fill-rule="evenodd" clip-rule="evenodd" d="M100.573 74.7758C100.573 74.7758 100.197 73.602 103.063 73.5518C105.93 73.5012 111.285 73.8201 111.285 73.8201C111.285 73.8201 110.968 73.5915 110.383 73.4064C109.513 73.1315 108.207 72.7955 107.725 72.1879C107.1 71.3986 107.529 70.9419 108.292 71.0069C108.718 71.0433 110.185 71.3848 110.633 71.468C112.141 71.7489 113.995 72.7046 115.261 73.3993C116.723 74.2019 117.551 74.7681 118.587 75.3476C119.675 75.9558 120.842 75.817 120.842 75.817L120.853 82.463C120.853 82.463 116.021 82.3022 110.885 82.4476C109.361 82.4911 107.627 82.8034 106.475 82.6349C105.287 82.4608 103.894 81.7921 103.243 81.4825C101.3 80.5581 101.909 79.6928 101.909 79.6928C101.909 79.6928 100.285 79.2339 99.8142 78.6726C99.3436 78.1118 100.028 77.4486 100.028 77.4486C100.028 77.4486 99.5361 76.977 99.5361 76.7831C99.5361 76.6636 99.7369 76.2042 100.302 76.2092C101.445 76.2196 103.374 76.4625 105.206 76.6796C107.144 76.9087 108.957 77.1021 109.04 76.7187C109.085 76.5116 108.718 76.1497 108.072 75.9459C106.411 75.422 103.045 75.3757 101.438 75.2088C100.874 75.1499 100.573 74.7758 100.573 74.7758H100.573Z" fill="#FFDDC0"/>
<path fill-rule="evenodd" clip-rule="evenodd" d="M126.469 41.2079L127.36 41.4366L127.447 42.4617C127.447 42.4617 127.685 42.7399 128.047 42.6975C128.409 42.655 128.895 42.2926 128.895 42.2926C128.895 42.2926 129.588 36.702 130.278 33.5676C130.967 30.4333 131.652 29.7563 131.652 29.7563L134.914 30.9907C134.914 30.9907 136.433 31.3207 138.635 32.0302C140.909 32.7623 143.917 33.9202 147.06 36.9185C149.87 39.5989 152.651 43.5827 155.075 49.1672C156.911 53.3983 158.441 58.2067 159.778 63.7042C160.797 67.894 161.756 73.1233 162.51 77.3643C163.193 81.2126 164.34 86.1207 164.799 89.4098C166.02 98.1656 165.957 102.516 165.957 102.516C165.957 102.516 156.009 104.049 147.491 104.049C138.972 104.049 131.882 102.516 131.882 102.516C131.882 102.516 132.175 96.5819 132.407 91.7234C132.638 86.8649 132.808 83.0827 132.808 83.0827C132.808 83.0827 131.055 83.2799 128.253 83.3697C125.45 83.4595 121.509 83.4744 121.509 83.4744C121.509 83.4744 120.407 82.2035 120.333 79.4372C120.233 75.758 121.362 75.3449 121.362 75.3449C121.362 75.3449 125.057 75.0953 127.925 74.7428C130.794 74.3903 132.836 73.9341 132.836 73.9341C132.836 73.9341 132.941 73.3668 132.823 72.8286C132.706 72.2909 132.366 71.7825 132.366 71.7825C132.366 71.7825 131.244 73.4813 129.012 73.3954C127.899 73.3524 125.958 72.2976 124.48 71.4696C122.556 70.3916 120.237 68.9396 117.945 67.3173C116.064 65.9859 114.117 64.4892 113.145 63.4106C112.336 62.5122 113.096 60.9819 113.096 60.9819L115.315 62.8873C115.315 62.8873 116.576 62.2147 117.352 61.0679C118.127 59.921 118.417 58.2993 118.417 58.2993L116.894 57.002C116.894 57.002 117.351 56.8538 117.64 57.0224C118.508 57.5286 120.345 58.968 122.121 59.9507C124.488 61.2612 126.526 62.2996 126.526 62.2996C126.526 62.2996 126.587 60.9009 126.332 58.7052C125.955 55.4497 125.187 50.6424 124.947 47.6783C124.713 44.7874 126.255 42.3846 126.255 42.3846L126.469 41.2079Z" fill="white"/>
<path fill-rule="evenodd" clip-rule="evenodd" d="M98.9552 63.9543L101.111 65.2846L98.6903 68.6592C98.6903 68.6592 98.0869 68.6647 97.6959 68.4168C97.3048 68.1695 97.126 67.6687 97.126 67.6687L98.9546 63.9538L98.9552 63.9543Z" fill="#6F798E"/>
<path fill-rule="evenodd" clip-rule="evenodd" d="M89.7444 72.5366L87.6014 72.5124L87.4703 72.2678L87.4561 71.5699L87.7945 71.4173L101.43 71.4085L101.619 71.7054L101.552 72.2667L101.325 72.459L91.0744 72.5085C91.0744 72.5085 90.9922 73.2797 91.3657 74.0179C91.7387 74.756 92.568 75.4606 92.568 75.4606L90.6883 75.547C90.6883 75.547 90.1124 74.5461 89.8771 73.7937C89.6412 73.0412 89.746 72.5372 89.746 72.5372L89.7444 72.5366Z" fill="#6F798E"/>
<path fill-rule="evenodd" clip-rule="evenodd" d="M109.247 45.222L109.79 45.2457L110.296 44.5367L112.377 45.8048L111.969 46.5694L112.309 46.982L108.15 54.1706L105.336 52.6398L105.217 52.1253C105.217 52.1253 106.46 52.8712 106.789 52.4789C107.276 51.8994 105.718 50.1362 105.718 50.1362C105.718 50.1362 107.041 50.9757 107.498 50.8738C107.769 50.8132 108.008 50.589 107.945 50.281C107.832 49.7247 107.19 48.9739 107.19 48.9739L107.434 48.6456C107.434 48.6456 107.931 48.8147 108.114 48.4241C108.298 48.033 108.168 47.0822 108.168 47.0822L109.247 45.222Z" fill="#FF2C27"/>
<path fill-rule="evenodd" clip-rule="evenodd" d="M85.0301 85.3225L107.784 85.3842C107.784 85.3842 108.275 85.4249 108.462 85.9918C108.649 86.5592 108.532 87.6532 108.532 87.6532L108.181 88.0652L84.5233 88.0266L84.293 87.754L84.3533 86.2441C84.3533 86.2441 84.2957 85.9323 84.4652 85.702C84.6341 85.4718 85.0296 85.3225 85.0296 85.3225H85.0301Z" fill="#0EB767"/>
<path fill-rule="evenodd" clip-rule="evenodd" d="M128.024 42.6622C128.403 42.6302 128.917 42.27 128.917 42.27C128.917 42.27 128.692 44.8551 128.724 48.5382C128.756 52.2212 129.046 57.0009 129.046 57.0009C129.046 57.0009 128.233 54.8933 127.841 51.2731C127.449 47.6524 127.399 42.3978 127.399 42.3978C127.399 42.3978 127.645 42.6936 128.024 42.6616L128.024 42.6622Z" fill="#0A9D57"/>
<path d="M108.808 79.3C108.804 79.3 108.801 79.3 108.797 79.3C107.474 79.2201 105.022 79.0163 103.457 78.5541C103.075 78.4418 102.642 78.3393 102.183 78.2313C100.673 77.876 99.2469 77.54 99.3467 76.754C99.4641 75.8263 100.247 75.9211 101.432 76.0643C101.557 76.0797 101.689 76.0957 101.827 76.1111C102.677 76.2081 103.558 76.2973 104.49 76.392C105.12 76.4559 105.773 76.5221 106.457 76.5948C108.315 76.792 108.753 76.6708 108.847 76.6256C108.825 76.3623 108.066 76.0621 107.337 75.9266C106.75 75.8181 105.606 75.6969 103.934 75.5669C103.528 75.5349 103.134 75.5167 102.787 75.5002C101.371 75.4336 100.348 75.3851 100.386 74.5296C100.43 73.516 101.944 73.4015 104.431 73.3326C106.796 73.2676 111.5 73.7287 112.853 73.9413C112.955 73.9573 113.026 74.0542 113.01 74.1572C112.994 74.2602 112.898 74.3308 112.795 74.3148C111.452 74.1038 106.788 73.6427 104.442 73.7105C102.375 73.7678 100.791 73.8658 100.762 74.5467C100.742 75.0039 101.486 75.0612 102.805 75.1234C103.155 75.14 103.552 75.1587 103.964 75.1906C105.648 75.3212 106.806 75.4446 107.406 75.5553C107.862 75.6401 109.341 75.9745 109.217 76.7215C109.175 76.9809 108.92 77.2354 106.42 76.9704C105.736 76.8977 105.083 76.8316 104.454 76.7677C103.52 76.673 102.639 76.5837 101.786 76.4862C101.647 76.4703 101.515 76.4543 101.389 76.4389C100.094 76.2824 99.7855 76.2973 99.7214 76.8013C99.6643 77.2497 101.17 77.6045 102.27 77.8634C102.714 77.968 103.173 78.076 103.564 78.1911C105.093 78.6428 107.514 78.8428 108.82 78.9221C108.924 78.9287 109.003 79.018 108.997 79.1221C108.991 79.2223 108.908 79.2995 108.809 79.2995L108.808 79.3Z" fill="black"/>
<path d="M121.752 83.6347H121.65C120.969 83.6341 120.393 81.5508 120.255 80.1114C120.034 77.7978 120.459 75.222 121.534 75.0942C121.887 75.0524 122.452 75.0116 123.168 74.9604C125.584 74.7869 130.081 74.4641 134.411 73.4703C135.672 73.1811 137.246 72.8594 138.636 72.5752C139.902 72.3168 140.995 72.0932 141.424 71.9797C142.463 71.7054 144.155 72.4138 145.445 73.6653C145.519 73.7375 145.521 73.857 145.449 73.9325C145.378 74.0074 145.259 74.0096 145.183 73.9369C143.836 72.6303 142.289 72.1428 141.52 72.3455C141.08 72.4617 139.982 72.6859 138.711 72.9454C137.324 73.2291 135.752 73.5502 134.494 73.8388C130.137 74.8392 125.62 75.1636 123.194 75.3377C122.484 75.3889 121.923 75.4292 121.579 75.4699C120.872 75.5542 120.411 77.7923 120.63 80.0756C120.797 81.8174 121.41 83.2193 121.653 83.2573H121.751C125.335 83.2573 130.947 83.1312 137.49 82.5368C141.962 82.1308 146.542 81.2715 150.385 80.1164C153.104 79.2995 153.405 76.1816 153.179 73.7094C152.822 69.7884 150.402 59.0044 146.791 48.9551C146.755 48.8571 146.806 48.7491 146.904 48.7133C147.001 48.6781 147.109 48.7287 147.144 48.8268C150.767 58.9058 153.194 69.7339 153.554 73.6747C153.891 77.3676 152.804 79.7837 150.492 80.4783C146.625 81.64 142.02 82.5049 137.523 82.9131C130.969 83.508 125.347 83.6347 121.753 83.6347H121.752Z" fill="black"/>
<path d="M107.133 82.8106C107.052 82.8106 106.975 82.8101 106.903 82.8078C106.006 82.7831 105.03 82.4878 103.642 81.8202L103.366 81.688C102.27 81.1663 101.608 80.8507 101.68 79.7881C101.687 79.684 101.782 79.6074 101.88 79.6123C101.984 79.6195 102.062 79.7093 102.055 79.8134C102.001 80.6199 102.448 80.8325 103.528 81.347L103.805 81.4797C105.142 82.1231 106.072 82.4074 106.914 82.4305C107.445 82.4465 108.274 82.3997 109.151 82.3517C109.576 82.3286 110.014 82.3049 110.441 82.2862C110.794 82.2708 115.33 82.1832 117.569 82.1832H117.625C118.565 82.1832 119.451 82.1947 120.957 82.2498C121.061 82.2537 121.142 82.3413 121.138 82.4454C121.135 82.5495 121.046 82.6371 120.944 82.6272C119.443 82.5726 118.561 82.5611 117.625 82.5605C115.408 82.5721 110.813 82.6481 110.457 82.663C110.032 82.6812 109.595 82.7054 109.172 82.7285C108.402 82.7704 107.67 82.8106 107.133 82.8106H107.133Z" fill="black"/>
<path d="M108.468 81.4026C108.46 81.4026 108.452 81.4026 108.443 81.401C107.9 81.3282 107.426 81.2809 106.967 81.2352C105.611 81.0996 104.54 80.9928 103.001 80.34C102.962 80.3235 102.868 80.2866 102.736 80.2342C101.581 79.7792 100.207 79.2174 99.8207 78.9067C99.5574 78.6946 99.4225 78.3961 99.451 78.087C99.4795 77.7763 99.671 77.4904 99.9502 77.3412C100.042 77.2921 100.156 77.3268 100.205 77.4188C100.253 77.5108 100.219 77.6254 100.127 77.6744C99.9584 77.7648 99.8432 77.9361 99.8256 78.1223C99.8086 78.3052 99.8904 78.4792 100.056 78.6125C100.447 78.9271 102.21 79.6217 102.874 79.8828C103.01 79.9368 103.107 79.9748 103.148 79.9924C104.635 80.6232 105.681 80.7278 107.004 80.86C107.466 80.9063 107.944 80.9542 108.493 81.0275C108.596 81.0413 108.668 81.136 108.655 81.2396C108.642 81.3343 108.561 81.4032 108.469 81.4032L108.468 81.4026Z" fill="black"/>
<path d="M121.306 46.6735C120.873 46.6735 120.384 46.5815 119.827 46.4355C118.614 46.1177 117.727 45.8098 116.606 45.3862C116.509 45.3493 116.46 45.2407 116.496 45.1427C116.533 45.0452 116.641 44.9962 116.739 45.0325C117.848 45.4523 118.725 45.7563 119.922 46.0703C121.344 46.4427 122.175 46.4455 122.78 45.4258C123.71 43.8587 124.824 41.2807 124.834 41.2548C124.876 41.1589 124.987 41.1148 125.082 41.1562C125.177 41.1975 125.221 41.3087 125.18 41.4046C125.169 41.4305 124.046 44.0305 123.104 45.6192C122.646 46.3909 122.064 46.6735 121.306 46.6735Z" fill="black"/>
<path d="M116.974 45.514C116.952 45.514 116.929 45.5101 116.907 45.5013C116.897 45.4974 115.941 45.13 115.379 45.1179C115.173 45.1129 114.953 45.1554 114.719 45.1994C114.3 45.2788 113.865 45.3603 113.481 45.1708C112.971 44.919 112.955 44.4222 112.94 43.9418C112.934 43.7303 112.927 43.5116 112.884 43.2924C112.82 42.9674 112.627 42.4848 111.69 42.0513C111.415 41.923 111.118 41.7957 110.806 41.6619C109.936 41.2878 108.949 40.8631 107.965 40.2412C106.983 39.6204 106.157 38.8018 105.579 37.8742C105.523 37.786 105.55 37.6693 105.638 37.6142C105.726 37.5585 105.842 37.5855 105.897 37.6737C106.446 38.5539 107.23 39.3306 108.165 39.9217C109.124 40.5276 110.096 40.9457 110.954 41.3148C111.269 41.4503 111.568 41.5792 111.848 41.7087C113.067 42.2733 113.207 42.9856 113.252 43.2191C113.301 43.4687 113.309 43.7138 113.316 43.9303C113.332 44.4233 113.353 44.6877 113.646 44.8326C113.918 44.967 114.273 44.8998 114.65 44.8293C114.891 44.7835 115.138 44.7362 115.387 44.7417C116.015 44.7554 117 45.1344 117.042 45.1504C117.139 45.1879 117.187 45.2969 117.15 45.3944C117.121 45.4693 117.049 45.5151 116.974 45.5151V45.514Z" fill="black"/>
<path d="M121.391 32.7424C121.373 32.7424 121.356 32.7402 121.338 32.7347C121.239 32.7055 121.181 32.6009 121.211 32.5006C121.593 31.1835 121.383 30.1947 120.551 29.3894C119.985 28.8429 119.292 28.6485 118.696 28.8683C118.048 29.1074 117.621 29.8102 117.522 30.7974C117.513 30.9015 117.418 30.9775 117.317 30.9665C117.214 30.956 117.138 30.8635 117.148 30.7599C117.261 29.6235 117.778 28.8049 118.566 28.5141C119.301 28.2431 120.14 28.4684 120.811 29.1173C121.743 30.0179 121.991 31.1593 121.571 32.6058C121.547 32.6885 121.472 32.7419 121.39 32.7419L121.391 32.7424Z" fill="black"/>
<path d="M119.667 31.2033C119.604 31.2033 119.542 31.172 119.507 31.1141C119.497 31.0976 119.256 30.7021 119.195 30.2256C119.182 30.122 119.254 30.0278 119.357 30.0141C119.458 29.9992 119.555 30.0735 119.568 30.1771C119.618 30.5704 119.825 30.9119 119.827 30.9153C119.882 31.0039 119.854 31.1202 119.766 31.1747C119.735 31.194 119.701 31.2028 119.667 31.2028L119.667 31.2033Z" fill="black"/>
<path d="M109.502 39.6413C109.499 39.6413 109.495 39.6413 109.491 39.6413C109.387 39.6353 109.308 39.546 109.314 39.4419C109.404 37.8615 110.553 37.2715 110.602 37.2473C110.695 37.201 110.807 37.239 110.853 37.3327C110.899 37.4263 110.862 37.5393 110.769 37.5855C110.724 37.6087 109.766 38.1127 109.689 39.4639C109.683 39.5642 109.6 39.6419 109.501 39.6419L109.502 39.6413Z" fill="black"/>
<path fill-rule="evenodd" clip-rule="evenodd" d="M123.214 45.0165C123.214 45.0165 124.289 42.909 124.377 40.6334C124.445 38.8382 123.915 37.2671 123.915 37.2671C123.915 37.2671 124.847 38.002 125.458 39.0222C126.007 39.9393 126.18 41.0025 126.18 41.0025C126.18 41.0025 125.613 41.0218 125.189 41.2184C124.97 41.3203 124.717 41.8904 124.603 42.1262C124.173 43.0186 123.214 45.0171 123.214 45.0171V45.0165Z" fill="black"/>
<path d="M104.661 37.6786C104.565 37.6786 104.482 37.6043 104.474 37.5057C104.417 36.8325 104.559 36.3285 104.908 35.9649C105.716 35.1232 107.526 35.2108 109.817 35.3215C112.634 35.457 116.102 35.0312 116.609 32.2301C116.628 32.1277 116.727 32.0599 116.828 32.0781C116.93 32.0968 116.998 32.1949 116.979 32.2979C116.539 34.7277 114.056 35.9038 109.799 35.6989C107.603 35.5925 105.868 35.5088 105.179 36.2277C104.91 36.5081 104.802 36.9157 104.849 37.4743C104.858 37.5784 104.781 37.6698 104.677 37.6786C104.672 37.6786 104.666 37.6792 104.661 37.6792V37.6786Z" fill="black"/>
<path d="M121.685 31.2584C121.595 31.2584 121.516 31.1934 121.5 31.102C121.483 30.999 121.551 30.9015 121.653 30.8839C122.464 30.7428 124.639 30.2041 124.955 29.4191C125.306 28.5488 124.955 25.3538 122.039 22.9725C120.932 22.0685 118.094 20.9432 115.262 20.6259C115.159 20.6143 115.084 20.5206 115.096 20.4171C115.107 20.3135 115.2 20.2397 115.303 20.2502C118.204 20.5752 121.127 21.7402 122.276 22.6789C125.385 25.2189 125.697 28.5846 125.303 29.5607C124.851 30.6806 122.036 31.2 121.717 31.2557C121.706 31.2573 121.695 31.2584 121.684 31.2584H121.685Z" fill="black"/>
<path d="M102.993 32.9396C102.901 32.9396 102.821 32.8724 102.807 32.7788C102.59 31.3284 103.399 27.8591 104.537 25.3544C105.841 22.4844 108.962 20.2898 111.797 20.2496H111.8C111.902 20.2496 111.986 20.3323 111.988 20.4358C111.99 20.5399 111.906 20.6259 111.802 20.6275C109.103 20.6655 106.127 22.7654 104.879 25.5119C103.766 27.9621 102.971 31.3323 103.179 32.7237C103.194 32.8267 103.123 32.9231 103.021 32.9385C103.011 32.9402 103.002 32.9407 102.993 32.9407V32.9396Z" fill="black"/>
<path d="M105.808 40.8273C104.471 40.8273 103.39 40.483 102.894 39.2497C102.311 37.7987 101.872 35.007 103.178 33.6905C103.251 33.6166 103.37 33.6161 103.444 33.6905C103.517 33.7643 103.518 33.8838 103.444 33.9576C102.328 35.0819 102.654 37.6467 103.242 39.1086C103.935 40.8317 106.03 40.5326 108.457 40.1856L108.492 40.1806C108.594 40.1652 108.69 40.2379 108.705 40.3409C108.72 40.4439 108.648 40.5398 108.545 40.5546L108.511 40.5596C107.563 40.6946 106.636 40.8273 105.807 40.8273H105.808Z" fill="black"/>
<path d="M117.839 21.0787C117.778 21.0787 117.717 21.0484 117.681 20.9922C117.625 20.9046 117.65 20.7878 117.737 20.7311C118.27 20.3857 118.459 19.804 118.523 19.3771C118.652 18.5227 118.389 17.5284 117.869 16.9032C117.097 15.9756 116.138 15.7965 115.019 16.3738C114.343 16.722 113.919 18.0831 114.393 19.479C114.426 19.5776 114.373 19.685 114.275 19.7186C114.177 19.7522 114.07 19.6993 114.037 19.6007C113.544 18.1492 113.915 16.5176 114.848 16.0373C116.126 15.3784 117.27 15.5944 118.157 16.6608C118.752 17.3753 119.042 18.4638 118.895 19.4338C118.788 20.1461 118.449 20.7195 117.942 21.0484C117.91 21.0687 117.875 21.0787 117.84 21.0787H117.839Z" fill="black"/>
<path d="M110.721 20.6484C110.701 20.6484 110.68 20.6451 110.66 20.638C110.351 20.53 110.066 20.2138 109.878 19.7704C109.629 19.181 109.511 18.2285 109.927 17.324C110.583 15.899 111.361 15.4175 111.899 15.265C112.389 15.1256 112.892 15.195 113.28 15.4539C113.367 15.5117 113.39 15.6291 113.333 15.7155C113.276 15.802 113.158 15.8263 113.072 15.7684C112.78 15.5734 112.38 15.5211 112.002 15.6285C111.54 15.7596 110.864 16.1876 110.269 17.4827C109.904 18.2754 110.007 19.1077 110.225 19.6228C110.369 19.9637 110.578 20.21 110.784 20.2816C110.882 20.3157 110.934 20.4231 110.9 20.5217C110.873 20.6 110.8 20.6484 110.722 20.6484H110.721Z" fill="black"/>
<path d="M113.387 20.7035C113.343 20.7035 113.299 20.6881 113.263 20.6567C112.222 19.7423 111.87 18.277 112.345 16.8316C112.641 15.9276 113.168 15.309 113.828 15.0909C114.513 14.8639 115.299 15.0595 116.163 15.6737C116.248 15.7337 116.268 15.8516 116.208 15.937C116.148 16.0218 116.031 16.0422 115.946 15.9822C115.185 15.4412 114.512 15.2627 113.945 15.45C113.402 15.6296 112.96 16.1628 112.701 16.95C112.367 17.9674 112.404 19.4013 113.51 20.3725C113.589 20.4413 113.596 20.5603 113.528 20.6391C113.491 20.6815 113.439 20.7035 113.387 20.7035Z" fill="black"/>
<path fill-rule="evenodd" clip-rule="evenodd" d="M112.526 40.7067C112.099 40.477 111.899 40.0165 112.079 39.6788C112.259 39.3411 112.751 39.2535 113.179 39.4832C113.605 39.7129 113.806 40.1734 113.626 40.5111C113.446 40.8488 112.953 40.9364 112.526 40.7067Z" fill="black"/>
<path d="M141.435 72.1367C141.358 72.1367 141.286 72.0893 141.258 72.0128C140.722 70.5365 140.49 69.4474 140.244 68.2939C139.964 66.9791 139.646 65.4885 138.815 63.0983C138.22 61.3846 137.543 59.5927 136.89 57.8597C135.66 54.6008 134.388 51.2313 133.526 48.0743C131.911 42.1615 134.185 38.4592 134.282 38.3044C134.337 38.2163 134.454 38.1904 134.542 38.246C134.629 38.3016 134.655 38.4184 134.6 38.5066C134.577 38.5429 132.32 42.232 133.889 47.9746C134.746 51.1139 136.015 54.4752 137.241 57.7258C137.896 59.461 138.573 61.2551 139.171 62.9733C140.01 65.3854 140.33 66.8887 140.613 68.2141C140.866 69.4039 141.085 70.4313 141.612 71.8828C141.648 71.9808 141.598 72.0888 141.5 72.1246C141.479 72.1323 141.457 72.1361 141.436 72.1361L141.435 72.1367Z" fill="black"/>
<path d="M120.945 75.9844H120.94C120.625 75.975 120.33 75.9602 120.064 75.9409C118.861 75.8528 118.035 75.2909 117.236 74.7477C116.842 74.4795 116.434 74.2019 115.977 73.9766C115.875 73.9259 115.714 73.841 115.508 73.732C114.445 73.1695 111.958 71.853 110.474 71.6442C109.885 71.5611 109.394 71.4569 109 71.3732C108.191 71.2014 107.827 71.1347 107.662 71.3506C107.602 71.4283 107.584 71.5115 107.605 71.6123C107.67 71.923 108.092 72.3339 108.68 72.6595C109.158 72.9244 109.558 73.017 109.945 73.1062C110.417 73.2153 110.905 73.3276 111.504 73.7375C111.59 73.7964 111.612 73.9138 111.554 73.9997C111.495 74.0862 111.378 74.1082 111.293 74.0498C110.752 73.6802 110.32 73.5805 109.862 73.4747C109.449 73.3794 109.023 73.2814 108.499 72.9905C107.798 72.6022 107.326 72.1163 107.237 71.69C107.194 71.4823 107.237 71.2856 107.363 71.1215C107.68 70.7067 108.206 70.8185 109.078 71.0041C109.467 71.0868 109.95 71.1892 110.527 71.2702C112.076 71.4883 114.512 72.7784 115.684 73.3982C115.886 73.505 116.044 73.5888 116.144 73.6383C116.624 73.8757 117.043 74.1605 117.448 74.436C118.24 74.9752 118.988 75.4842 120.092 75.5652C120.353 75.5845 120.642 75.5988 120.952 75.6082C121.056 75.6115 121.137 75.6985 121.135 75.8026C121.131 75.9051 121.048 75.9855 120.947 75.9855L120.945 75.9844Z" fill="black"/>
<path d="M111.545 55.1065C111.473 55.1065 111.404 55.0652 111.373 54.9953C110.807 53.7277 110.922 52.3523 111.006 51.3475C111.026 51.0991 111.042 50.4259 110.743 49.5407C110.71 49.4421 110.763 49.3347 110.861 49.3011C110.96 49.268 111.066 49.3204 111.099 49.419C111.421 50.3714 111.403 51.1068 111.38 51.3789C111.3 52.3423 111.189 53.6616 111.716 54.8405C111.759 54.9358 111.716 55.0476 111.622 55.09C111.597 55.1016 111.571 55.1065 111.545 55.1065Z" fill="black"/>
<path d="M118.353 58.4315C118.314 58.4315 118.274 58.4188 118.24 58.3935C116.313 56.9299 115.669 56.1967 115.293 55.6717C114.819 55.0118 113.88 52.2333 113.746 51.6874C113.413 50.3361 112.544 48.9954 112.126 48.3509C112.041 48.2198 111.976 48.1184 111.938 48.0534L111.88 47.9515C111.848 47.8931 111.819 47.8413 111.783 47.7873C111.725 47.7009 111.748 47.5835 111.834 47.5251C111.92 47.4667 112.037 47.4893 112.095 47.5758C112.138 47.6392 112.171 47.6987 112.209 47.7675L112.263 47.8639C112.298 47.9251 112.361 48.0209 112.441 48.1448C112.87 48.8064 113.762 50.183 114.11 51.5965C114.256 52.187 115.186 54.8768 115.597 55.4508C115.957 55.9526 116.579 56.6588 118.466 58.0916C118.549 58.1544 118.565 58.2728 118.503 58.356C118.466 58.405 118.41 58.4309 118.353 58.4309L118.353 58.4315Z" fill="black"/>
<path d="M129.528 66.6557C129.451 66.6557 129.379 66.6083 129.351 66.5318C128.84 65.1271 128.035 63.2057 126.946 62.7375C125.895 62.2853 123.034 60.7842 120.94 59.461C120.015 58.8755 119.218 58.3064 118.561 57.8266C117.827 57.2901 117.453 57.0621 116.966 57.1182C116.864 57.1298 116.769 57.056 116.757 56.9524C116.745 56.8489 116.819 56.7552 116.922 56.7431C117.541 56.6721 117.984 56.9376 118.783 57.5209C119.467 58.0211 120.227 58.5631 121.14 59.141C123.187 60.4344 126.079 61.9531 127.094 62.3899C128.316 62.916 129.169 64.9316 129.704 66.4018C129.739 66.4998 129.689 66.6084 129.592 66.6442C129.57 66.6519 129.549 66.6557 129.527 66.6557H129.528Z" fill="black"/>
<path d="M129.226 73.5783C128.784 73.5783 128.317 73.4962 127.832 73.3089C123.104 71.4801 116.994 67.0821 113.037 63.5346C112.959 63.4652 112.952 63.3456 113.021 63.268C113.09 63.1903 113.209 63.1831 113.287 63.2525C117.219 66.7769 123.283 71.1441 127.967 72.9558C129.787 73.6604 131.303 72.7526 132.113 71.6674C132.174 71.5842 132.292 71.5671 132.376 71.6294C132.459 71.6922 132.476 71.81 132.414 71.8938C131.767 72.7603 130.623 73.5777 129.226 73.5777L129.226 73.5783Z" fill="black"/>
<path d="M115.259 63.0245C115.212 63.0245 115.165 63.0069 115.128 62.9716C113.936 61.8143 113.015 61.0453 112.141 60.4796C111.814 60.2675 111.519 60.1303 111.235 59.9981C110.857 59.8224 110.466 59.6406 110.032 59.293C109.951 59.228 109.937 59.109 110.002 59.0275C110.067 58.946 110.185 58.9328 110.267 58.9978C110.666 59.3178 111.02 59.482 111.393 59.656C111.689 59.7937 111.996 59.9364 112.346 60.1628C113.241 60.7423 114.18 61.5251 115.39 62.7006C115.465 62.7733 115.467 62.8928 115.394 62.9678C115.358 63.0063 115.308 63.0251 115.26 63.0251L115.259 63.0245Z" fill="black"/>
<path d="M104.718 53.2981C104.226 53.2981 103.606 53.0959 103.172 52.7643C102.903 52.5588 102.785 52.2724 102.842 51.9584C102.926 51.4907 103.39 51.0533 103.996 50.8699C104.095 50.8402 104.2 50.8964 104.23 50.9961C104.26 51.0958 104.204 51.201 104.105 51.2313C103.638 51.3723 103.271 51.6989 103.212 52.0251C103.182 52.1969 103.245 52.3445 103.4 52.463C103.908 52.8508 104.69 53.0028 105.024 52.8739C105.139 52.8298 105.149 52.7731 105.153 52.7544C105.212 52.4393 104.537 51.9733 104.038 51.743C103.944 51.6995 103.903 51.5871 103.946 51.4924C103.989 51.3976 104.101 51.3558 104.195 51.3993C104.44 51.5122 105.656 52.1121 105.522 52.8243C105.487 53.0067 105.358 53.1493 105.159 53.2259C105.034 53.2738 104.883 53.297 104.718 53.297L104.718 53.2981Z" fill="black"/>
<path d="M106.42 52.8216C106.196 52.8216 105.947 52.7395 105.711 52.5787C104.993 52.0884 104.144 51.3145 103.898 51.0175C103.541 50.5879 103.447 50.1141 103.64 49.7181C103.838 49.3138 104.289 49.0846 104.847 49.1044C104.951 49.1083 105.032 49.1959 105.028 49.3C105.024 49.4041 104.934 49.4867 104.833 49.4818C104.425 49.468 104.108 49.6173 103.978 49.8839C103.853 50.14 103.929 50.465 104.187 50.7752C104.393 51.0236 105.209 51.7783 105.923 52.2658C106.238 52.4806 106.509 52.4779 106.637 52.3798C106.746 52.2966 106.771 52.1347 106.703 51.9358C106.547 51.472 105.524 50.4105 105.144 50.0403C105.069 49.9676 105.067 49.8481 105.139 49.7732C105.212 49.6983 105.331 49.6966 105.405 49.7688C105.552 49.9114 106.846 51.1806 107.06 51.8146C107.18 52.1716 107.107 52.4955 106.865 52.6806C106.742 52.7748 106.588 52.8216 106.42 52.8216H106.42Z" fill="black"/>
<path d="M107.424 51.0913C107.252 51.0913 107.068 51.0489 106.889 50.963C105.845 50.459 104.427 49.2487 104.363 48.8053C104.299 48.3767 104.455 47.887 104.749 47.5874C104.962 47.3703 105.231 47.2706 105.508 47.307C106.154 47.3924 106.883 47.8242 106.914 47.8424C107.004 47.8958 107.033 48.0115 106.979 48.1013C106.926 48.1911 106.811 48.2203 106.722 48.1669C106.719 48.1658 106.644 48.1206 106.523 48.0583C106.914 48.445 107.799 49.3518 108.037 49.874C108.297 50.4485 108.112 50.7553 107.978 50.887C107.841 51.0219 107.643 51.0908 107.424 51.0908L107.424 51.0913ZM105.394 47.6772C105.257 47.6772 105.13 47.7355 105.016 47.8523C104.805 48.0688 104.688 48.4379 104.734 48.7508C104.796 48.9898 105.953 50.0926 107.052 50.6231C107.307 50.7471 107.586 50.7449 107.714 50.6182C107.862 50.4727 107.765 50.1879 107.694 50.0315C107.469 49.5374 106.451 48.5073 106.077 48.152C106.002 48.0804 105.999 47.9608 106.07 47.8854C106.078 47.8771 106.086 47.8694 106.095 47.8633C105.893 47.7824 105.667 47.7097 105.458 47.6821C105.436 47.6794 105.415 47.6777 105.393 47.6777L105.394 47.6772Z" fill="black"/>
<path d="M107.724 48.8246C107.5 48.8246 107.263 48.7095 107.055 48.4908C106.483 47.8909 106.083 47.4298 105.994 47.1269C105.892 46.7853 105.973 46.435 106.22 46.1392C106.507 45.7966 106.972 45.5872 107.354 45.634C107.679 45.6726 108.103 45.888 108.65 46.2923C108.734 46.354 108.752 46.4724 108.69 46.5562C108.629 46.6405 108.511 46.6581 108.428 46.5964C107.822 46.1485 107.486 46.0296 107.31 46.0092C107.056 45.9789 106.712 46.1392 106.509 46.3821C106.393 46.5198 106.273 46.7424 106.355 47.0189C106.437 47.296 107.083 47.9741 107.327 48.2291C107.507 48.4175 107.691 48.488 107.832 48.423C107.975 48.3575 108.103 48.1261 108.069 47.7581C108.049 47.5428 107.841 47.0613 107.529 46.5005C107.478 46.4096 107.51 46.2945 107.6 46.2433C107.691 46.1921 107.806 46.2246 107.857 46.3155C108.061 46.6807 108.408 47.3489 108.443 47.7218C108.49 48.2153 108.316 48.6153 107.989 48.7656C107.905 48.8042 107.816 48.8235 107.725 48.8235L107.724 48.8246Z" fill="black"/>
<path d="M126.59 62.3982C126.487 62.3982 126.402 62.3133 126.402 62.2092C126.402 59.9171 125.986 57.1695 125.545 54.2604C125.284 52.5368 125.013 50.7542 124.833 49.0543C124.611 46.9478 124.956 45.6291 125.207 44.6657C125.245 44.5202 125.281 44.3836 125.312 44.2553C125.461 43.6301 125.863 42.5361 126.19 41.7208C126.229 41.6238 126.339 41.577 126.434 41.6161C126.53 41.6552 126.578 41.7649 126.539 41.8618C126.232 42.628 125.822 43.7375 125.677 44.3434C125.646 44.4745 125.609 44.6133 125.571 44.7621C125.326 45.6969 124.992 46.9776 125.207 49.0152C125.386 50.7069 125.656 52.485 125.916 54.2042C126.359 57.1276 126.778 59.8885 126.778 62.2098C126.778 62.3139 126.693 62.3987 126.59 62.3987L126.59 62.3982Z" fill="black"/>
<path d="M127.916 41.6971C127.901 41.6971 127.885 41.6954 127.87 41.6916L125.974 41.2157C125.974 41.2157 125.311 41.0961 125.006 41.5186C124.945 41.6029 124.829 41.6222 124.744 41.561C124.66 41.4999 124.641 41.382 124.702 41.2972C125.149 40.6764 126.019 40.8405 126.056 40.8477L127.961 41.3258C128.062 41.3512 128.123 41.4536 128.099 41.555C128.077 41.6409 128 41.6982 127.917 41.6982L127.916 41.6971Z" fill="black"/>
<path d="M134.96 103.488C134.857 103.488 134.773 103.405 134.772 103.302C134.77 103.178 134.573 90.8062 134.856 83.0552C134.86 82.9511 134.95 82.8624 135.05 82.8734C135.154 82.8773 135.235 82.9648 135.231 83.0689C134.949 90.8095 135.146 103.172 135.148 103.296C135.15 103.4 135.067 103.486 134.963 103.488H134.96Z" fill="black"/>
<path d="M134.17 73.7749C134.075 73.7749 133.993 73.7028 133.983 73.6058C133.883 72.638 133.649 72.2067 133.326 71.609C133.063 71.122 132.735 70.5161 132.394 69.4452C132.216 68.8889 132.025 68.294 131.826 67.6787C130.803 64.5074 129.644 60.9136 129.248 58.7906C129.229 58.6882 129.297 58.5896 129.399 58.5703C129.499 58.5505 129.599 58.6188 129.618 58.7212C130.01 60.82 131.165 64.4016 132.184 67.5619C132.384 68.1783 132.576 68.7732 132.753 69.3301C133.083 70.3668 133.388 70.9309 133.657 71.4289C133.988 72.0409 134.25 72.5245 134.358 73.5667C134.369 73.6703 134.293 73.7634 134.19 73.7744C134.184 73.7749 134.177 73.7755 134.171 73.7755L134.17 73.7749Z" fill="black"/>
<path d="M166.039 102.879C165.937 102.879 165.853 102.797 165.851 102.695C165.62 93.6596 164.17 86.5404 163.111 81.342C162.72 79.425 162.383 77.7697 162.148 76.2692C160.822 67.7861 158.774 59.7612 155.885 51.7375C150.7 37.3338 142.968 34.016 140.427 32.9259C138.414 32.0616 137.299 31.7955 136.316 31.5603C135.853 31.4496 135.415 31.3449 134.915 31.189C134.194 30.9643 133.479 30.6602 132.906 30.4156C132.413 30.2057 131.851 29.9667 131.705 29.9771C131.034 30.4938 130.223 34.7999 129.515 38.8018C128.76 43.0665 128.797 51.8603 129.335 56.8737C129.425 57.7187 129.569 58.4976 129.698 59.1481C129.718 59.2506 129.653 59.3497 129.55 59.3701C129.448 59.3894 129.35 59.3244 129.329 59.2219C129.199 58.5631 129.054 57.7743 128.961 56.9139C128.421 51.8752 128.384 43.0307 129.145 38.7352C130.142 33.1027 130.781 30.1518 131.509 29.6532C131.717 29.5111 132.068 29.6488 133.052 30.0675C133.618 30.3088 134.323 30.6084 135.027 30.8277C135.514 30.9797 135.946 31.0827 136.403 31.1923C137.4 31.4308 138.532 31.7013 140.575 32.5783C143.153 33.6844 150.998 37.0506 156.239 51.6086C159.135 59.6555 161.19 67.7029 162.52 76.2103C162.753 77.702 163.09 79.3534 163.48 81.266C164.541 86.4782 165.996 93.6161 166.227 102.685C166.23 102.789 166.148 102.876 166.044 102.879H166.039H166.039Z" fill="black"/>
<path d="M130.892 31.2177C130.877 31.2177 130.862 31.216 130.846 31.2122C127.041 30.2471 125.088 29.7629 125.069 29.7585C124.968 29.7337 124.907 29.6312 124.931 29.5298C124.956 29.4285 125.058 29.3668 125.159 29.3916C125.178 29.3965 127.131 29.8802 130.938 30.8458C131.038 30.8712 131.1 30.9742 131.074 31.075C131.053 31.1604 130.976 31.2177 130.892 31.2177Z" fill="black"/>
<path d="M132.898 74.014C132.795 74.014 132.712 73.9314 132.71 73.8278C132.697 72.8302 132.451 72.3295 132.005 71.4206C131.698 70.7959 131.317 70.0176 130.862 68.7886L130.796 68.6101C130.187 66.9697 128.572 62.6135 127.375 56.8522C127.315 56.5646 127.261 56.3327 127.209 56.1129C127.145 55.8452 127.085 55.5918 127.026 55.2773C127.006 55.1748 127.074 55.0762 127.175 55.0564C127.277 55.0371 127.376 55.1038 127.395 55.2068C127.453 55.5125 127.512 55.762 127.574 56.0253C127.627 56.2484 127.682 56.4831 127.743 56.7751C128.934 62.5083 130.542 66.8458 131.148 68.4779L131.214 68.6564C131.662 69.8672 132.039 70.6356 132.342 71.2531C132.797 72.1802 133.071 72.7393 133.085 73.8223C133.087 73.9264 133.003 74.0124 132.9 74.0135H132.897L132.898 74.014Z" fill="black"/>
<path d="M131.891 102.739C131.887 102.739 131.884 102.739 131.881 102.739C131.778 102.734 131.697 102.646 131.702 102.542L132.618 83.2491C132.623 83.145 132.712 83.0645 132.815 83.0695C132.919 83.0745 132.999 83.1631 132.994 83.2673L132.078 102.56C132.074 102.661 131.99 102.739 131.891 102.739Z" fill="black"/>
<path d="M129.366 58.5929C129.293 58.5929 129.223 58.5494 129.193 58.4766C128.92 57.8217 128.294 55.8012 127.879 52.8453C127.427 49.6222 127.195 45.7949 127.19 41.469C127.19 41.3649 127.274 41.2801 127.378 41.2801C127.482 41.2801 127.566 41.3644 127.566 41.4685C127.571 45.7767 127.802 49.5864 128.251 52.7924C128.661 55.7103 129.273 57.6911 129.54 58.3307C129.58 58.4271 129.535 58.5372 129.439 58.5775C129.415 58.5874 129.39 58.5923 129.366 58.5923V58.5929Z" fill="black"/>
<path d="M130.736 63.8067C130.643 63.8067 130.562 63.7373 130.549 63.642C129.974 59.1437 131.396 54.1585 132.079 51.7628C132.238 51.2081 132.375 50.725 132.391 50.5642C132.308 50.4694 131.938 50.2833 131.637 50.1323C131.107 49.8663 130.448 49.5352 130.042 49.1342C129.356 48.4572 128.762 46.6702 128.605 45.4038C128.592 45.3002 128.665 45.206 128.768 45.1934C128.871 45.1812 128.965 45.254 128.979 45.3575C129.147 46.7148 129.755 48.3211 130.306 48.8659C130.67 49.2251 131.3 49.5413 131.806 49.7952C132.427 50.107 132.77 50.2788 132.77 50.5388C132.77 50.7118 132.669 51.0715 132.442 51.8681C131.765 54.2395 130.357 59.174 130.924 63.5946C130.937 63.6982 130.864 63.7929 130.761 63.8062C130.753 63.8073 130.745 63.8078 130.737 63.8078L130.736 63.8067Z" fill="black"/>
<path d="M130.08 48.8687C130.053 48.8687 130.025 48.8626 129.999 48.8499C129.905 48.8048 129.866 48.6918 129.911 48.5982C130.762 46.8217 131.737 46.5419 132.205 46.4069C132.25 46.3937 132.303 46.3788 132.338 46.3661C132.341 46.1552 132.302 45.7128 132.254 45.1669C132.107 43.5033 131.863 40.7193 132.181 38.3661C132.615 35.1557 133.274 32.4323 133.28 32.4053C133.305 32.3039 133.408 32.2428 133.507 32.2665C133.608 32.2913 133.67 32.3932 133.645 32.4945C133.639 32.5215 132.986 35.2262 132.554 38.4168C132.241 40.7281 132.484 43.4857 132.628 45.1339C132.687 45.8032 132.726 46.2449 132.711 46.4526C132.696 46.6586 132.5 46.7154 132.309 46.7705C131.893 46.89 131.027 47.1384 130.25 48.7623C130.218 48.8301 130.15 48.8692 130.081 48.8692L130.08 48.8687Z" fill="black"/>
<path d="M148.871 50.5289C148.868 50.5289 148.864 50.5289 148.861 50.5289C148.757 50.5234 148.678 50.4342 148.683 50.3301C148.824 47.7714 146.915 42.6897 144.487 40.4064C144.412 40.3354 144.407 40.2159 144.479 40.1398C144.55 40.0638 144.669 40.0594 144.745 40.131C147.313 42.546 149.205 47.6964 149.059 50.351C149.054 50.4518 148.97 50.5295 148.871 50.5295V50.5289Z" fill="black"/>
<path d="M113.585 63.7042C113.275 63.7042 113.014 63.5968 112.83 63.3313C112.542 62.9149 112.531 61.9432 112.803 61.021C112.832 60.9208 112.936 60.8635 113.037 60.8938C113.136 60.9235 113.193 61.0282 113.163 61.1285C112.879 62.0957 112.981 62.8862 113.14 63.1165C113.423 63.5263 114.114 63.3567 115.605 62.5122C117.139 61.6424 118.506 59.1977 118.169 57.923C118.032 57.4047 117.607 57.1507 116.919 57.1463H116.919C116.815 57.1463 116.731 57.0626 116.731 56.9585C116.731 56.8544 116.814 56.7695 116.918 56.769H116.931C118.024 56.769 118.405 57.3435 118.533 57.8266C118.911 59.2611 117.475 61.8859 115.789 62.8416C114.995 63.2911 114.194 63.7048 113.585 63.7053V63.7042Z" fill="black"/>
<path d="M126.731 48.8092C126.666 48.8092 126.602 48.775 126.568 48.7139C126.143 47.9669 125.873 47.9818 125.729 47.9884C125.653 47.9922 125.539 47.9978 125.455 47.9025C125.357 47.7895 125.374 47.6303 125.437 47.2932C125.726 45.7255 126.108 42.4782 126.259 41.1551C126.27 41.0515 126.366 40.9766 126.467 40.9893C126.57 41.0008 126.644 41.0945 126.632 41.1986C126.481 42.5261 126.098 45.7833 125.806 47.3626C125.784 47.4805 125.773 47.5587 125.767 47.6105C126.078 47.6199 126.447 47.7405 126.895 48.5271C126.946 48.6175 126.915 48.7331 126.824 48.7849C126.795 48.802 126.763 48.8097 126.731 48.8097V48.8092Z" fill="black"/>
<path d="M130.492 63.0537C130.425 63.0537 130.361 63.0184 130.327 62.9562C127.234 57.3336 125.787 50.9724 125.649 50.0359C125.61 49.766 125.791 49.6134 125.965 49.4658C126.187 49.2785 126.49 49.0224 126.687 48.3751C127.043 47.2084 127.253 45.3845 127.255 45.3663C127.267 45.2628 127.361 45.1862 127.463 45.2C127.566 45.2116 127.64 45.3052 127.629 45.4088C127.62 45.4848 127.412 47.285 127.047 48.4853C126.817 49.2388 126.45 49.549 126.207 49.7539C126.043 49.8922 126.013 49.928 126.021 49.9803C126.03 50.0398 127.295 56.6643 130.656 62.7733C130.706 62.8647 130.673 62.9793 130.582 63.0294C130.554 63.0454 130.522 63.0531 130.492 63.0531V63.0537Z" fill="black"/>
<path d="M84.7863 88.2519C84.6892 88.2519 84.4633 88.2365 84.3146 88.1109C84.1227 87.9484 84.1205 87.6537 84.121 87.6206V86.303C84.1199 86.2903 84.0925 85.7307 84.4463 85.4277C84.7759 85.1462 85.3875 85.1324 85.456 85.1319H107.333C107.401 85.1335 108.003 85.1352 108.353 85.4332C108.719 85.7444 108.748 86.3328 108.749 86.3575V87.6229C108.748 87.6609 108.733 87.9374 108.551 88.0966C108.38 88.2459 108.114 88.2514 108.058 88.2514H84.8275C84.8198 88.2514 84.8061 88.2525 84.7869 88.2525L84.7863 88.2519ZM84.6903 85.7152C84.4803 85.8954 84.4967 86.2887 84.4967 86.2925V87.6229C84.4967 87.6857 84.5181 87.7892 84.5576 87.8223C84.6037 87.8614 84.7392 87.8785 84.8176 87.8735H108.059C108.13 87.8735 108.256 87.8537 108.305 87.8112C108.347 87.7743 108.371 87.6719 108.374 87.614V86.3647C108.368 86.249 108.309 85.8893 108.11 85.7202C107.904 85.5439 107.485 85.5197 107.334 85.5087H85.4577C85.3107 85.5103 84.8823 85.5505 84.6903 85.7147V85.7152Z" fill="black"/>
<path d="M85.103 85.398C84.9999 85.398 84.9159 85.3148 84.9148 85.2107L84.9033 83.9757C84.9033 83.9542 84.9055 83.4997 84.9571 83.0612C85.0086 82.6222 85.1085 82.2157 85.1123 82.1986L86.5373 76.3353C86.545 76.3078 86.6837 75.8385 87.0276 75.5867C87.3677 75.3372 87.8789 75.3256 87.9003 75.3251H100.284C100.308 75.3251 100.96 75.3146 101.515 75.6187C101.719 75.7305 101.917 75.9266 102.076 76.0841L102.125 76.1326C102.199 76.2059 102.201 76.3254 102.128 76.3998C102.055 76.4747 101.937 76.4752 101.862 76.4025L101.812 76.3524C101.677 76.2191 101.493 76.0362 101.336 75.9497C100.869 75.6941 100.292 75.7013 100.288 75.7024H87.9036C87.9036 75.7024 87.4922 75.7134 87.2487 75.8913C87.0101 76.0665 86.9009 76.4295 86.9004 76.4328L85.4776 82.2889C85.4765 82.2934 85.3794 82.6911 85.3306 83.1059C85.2818 83.5229 85.279 83.9707 85.279 83.9751L85.2906 85.2079C85.2917 85.312 85.2083 85.3974 85.1041 85.3985H85.1024L85.103 85.398Z" fill="black"/>
<path d="M107.918 85.4745C107.915 85.4745 107.911 85.4745 107.908 85.4745C107.804 85.4685 107.725 85.3798 107.731 85.2751C107.777 84.4323 107.114 83.4766 107.107 83.4672L106.629 82.8144C106.568 82.7302 106.586 82.6123 106.669 82.5506C106.753 82.4889 106.871 82.5071 106.932 82.5908L107.411 83.2469C107.444 83.2931 108.159 84.3216 108.105 85.2971C108.1 85.3979 108.017 85.4756 107.918 85.4756L107.918 85.4745Z" fill="black"/>
<path d="M101.28 72.6727H87.7742C87.5077 72.6727 87.291 72.4551 87.291 72.1868V71.7451C87.291 71.4773 87.5077 71.2598 87.7742 71.2598H101.28C101.546 71.2598 101.763 71.4773 101.763 71.7451V72.1868C101.763 72.4546 101.546 72.6727 101.28 72.6727ZM87.7742 71.6371C87.715 71.6371 87.6673 71.6856 87.6673 71.7451V72.1868C87.6673 72.2463 87.7155 72.2948 87.7742 72.2948H101.28C101.339 72.2948 101.387 72.2463 101.387 72.1868V71.7451C101.387 71.6856 101.339 71.6371 101.28 71.6371H87.7742Z" fill="black"/>
<path fill-rule="evenodd" clip-rule="evenodd" d="M91.2693 70.7039H97.8956C98.0585 70.7039 98.1907 70.8367 98.1907 71.0008V71.0708C98.1907 71.235 98.0585 71.3677 97.8956 71.3677H91.2693C91.1058 71.3677 90.9736 71.235 90.9736 71.0708V71.0008C90.9736 70.8372 91.1058 70.7039 91.2693 70.7039Z" fill="#E7F9FF"/>
<path d="M97.8962 71.5561H91.2699C91.0033 71.5561 90.7861 71.3385 90.7861 71.0708V71.0003C90.7861 70.7326 91.0028 70.515 91.2699 70.515H97.8962C98.1628 70.515 98.3794 70.7326 98.3794 71.0003V71.0708C98.3794 71.3385 98.1628 71.5561 97.8962 71.5561ZM91.2699 70.8929C91.2107 70.8929 91.1624 70.9413 91.1624 71.0008V71.0713C91.1624 71.1308 91.2107 71.1788 91.2699 71.1788H97.8962C97.9555 71.1788 98.0032 71.1308 98.0032 71.0713V71.0008C98.0032 70.9413 97.9549 70.8929 97.8962 70.8929H91.2699Z" fill="black"/>
<path d="M90.7966 75.6765C90.7505 75.6765 90.7039 75.6594 90.6677 75.6253C89.9102 74.9092 89.5137 73.5678 89.5137 72.6132C89.5137 72.5091 89.5981 72.4243 89.7018 72.4243C89.8055 72.4243 89.8899 72.5091 89.8899 72.6132C89.8899 73.4874 90.2459 74.7081 90.9255 75.3504C91.0012 75.4214 91.005 75.541 90.9337 75.617C90.8964 75.6567 90.8471 75.6765 90.7966 75.6765Z" fill="black"/>
<path d="M92.6813 75.682C92.655 75.682 92.6287 75.6765 92.6034 75.6649C91.3501 75.0893 90.8828 73.5072 90.8828 72.6457C90.8828 72.5416 90.9673 72.4568 91.0709 72.4568C91.1746 72.4568 91.2591 72.5416 91.2591 72.6457C91.2591 73.4703 91.7247 74.8464 92.7603 75.3217C92.8546 75.3653 92.8963 75.4771 92.853 75.5718C92.8212 75.6412 92.7532 75.682 92.6819 75.682H92.6813Z" fill="black"/>
<path d="M104.792 73.6593C104.765 73.6593 104.737 73.6538 104.711 73.6411C104.618 73.5965 104.577 73.4841 104.622 73.3893C104.849 72.904 105.052 72.3984 105.223 71.8872C106.254 68.8035 105.992 61.7427 105.989 61.6716C105.985 61.5675 106.066 61.4793 106.169 61.4755C106.275 61.4678 106.361 61.5526 106.365 61.6567C106.376 61.9492 106.632 68.8586 105.579 72.0073C105.404 72.5322 105.196 73.0511 104.962 73.5502C104.93 73.6185 104.862 73.6582 104.792 73.6582V73.6593Z" fill="black"/>
<path d="M102.77 76.5524C102.718 76.5524 102.666 76.5303 102.628 76.4879C102.56 76.4091 102.568 76.2901 102.646 76.2213C102.941 75.9629 103.232 75.6434 103.512 75.2705C103.574 75.1868 103.692 75.1703 103.775 75.2336C103.858 75.2964 103.874 75.4148 103.813 75.498C103.517 75.8913 103.208 76.2307 102.893 76.5061C102.858 76.5375 102.814 76.5524 102.77 76.5524H102.77Z" fill="black"/>
<path d="M108.799 71.2256C108.79 71.2256 108.781 71.2256 108.772 71.2234C108.669 71.2091 108.597 71.1132 108.612 71.0102C109.11 67.4919 108.88 61.6622 108.878 61.6038C108.873 61.4997 108.954 61.4116 109.058 61.4077C109.166 61.394 109.249 61.4843 109.253 61.5884C109.256 61.6474 109.487 67.5106 108.985 71.0631C108.972 71.1573 108.891 71.2256 108.799 71.2256Z" fill="black"/>
<path d="M108.172 73.7794C108.151 73.7794 108.129 73.7761 108.109 73.7683C108.011 73.7336 107.959 73.6257 107.994 73.5271C108.09 73.2577 108.177 72.9867 108.253 72.7217C108.282 72.6215 108.386 72.5647 108.485 72.5928C108.585 72.622 108.643 72.7267 108.614 72.8264C108.535 73.0985 108.446 73.3767 108.349 73.6532C108.321 73.7309 108.249 73.7788 108.172 73.7788V73.7794Z" fill="black"/>
<path d="M106.603 76.9545C106.567 76.9545 106.532 76.9446 106.5 76.9231C106.413 76.8658 106.389 76.749 106.446 76.662C106.658 76.3386 106.861 75.9993 107.049 75.6523C107.099 75.5603 107.213 75.5267 107.304 75.5768C107.395 75.6269 107.429 75.7415 107.379 75.8329C107.186 76.1893 106.977 76.538 106.76 76.8696C106.723 76.9247 106.664 76.955 106.602 76.955L106.603 76.9545Z" fill="black"/>
<path fill-rule="evenodd" clip-rule="evenodd" d="M105.036 59.2363C105.036 57.7099 106.176 56.4726 107.584 56.4726C108.991 56.4726 110.132 57.7104 110.132 59.2363C110.132 60.7621 108.991 62.0005 107.584 62.0005C106.177 62.0005 105.036 60.7632 105.036 59.2363Z" fill="#6F798E"/>
<path d="M107.584 62.1888C106.075 62.1888 104.848 60.864 104.848 59.2363C104.848 57.6085 106.075 56.2837 107.584 56.2837C109.092 56.2837 110.319 57.6085 110.319 59.2363C110.319 60.864 109.092 62.1888 107.584 62.1888ZM107.584 56.661C106.283 56.661 105.224 57.8162 105.224 59.2363C105.224 60.6564 106.283 61.811 107.584 61.811C108.885 61.811 109.943 60.6558 109.943 59.2363C109.943 57.8167 108.885 56.661 107.584 56.661Z" fill="black"/>
<path d="M107.584 60.6993C106.832 60.6993 106.221 60.0427 106.221 59.2363C106.221 58.4298 106.832 57.7732 107.584 57.7732C108.335 57.7732 108.946 58.4293 108.946 59.2363C108.946 60.0433 108.335 60.6993 107.584 60.6993ZM107.584 58.1505C107.04 58.1505 106.597 58.6375 106.597 59.2363C106.597 59.8351 107.04 60.322 107.584 60.322C108.128 60.322 108.57 59.8351 108.57 59.2363C108.57 58.6375 108.128 58.1505 107.584 58.1505Z" fill="black"/>
<path d="M107.718 56.5856C107.686 56.5856 107.653 56.5773 107.623 56.5597C107.533 56.5068 107.503 56.3911 107.556 56.3013L108.233 55.1385C108.302 55.0244 108.391 54.8179 108.382 54.7094C108.372 54.5975 108.229 54.5166 108.227 54.516L105.262 52.7621C105.172 52.7092 105.142 52.5935 105.195 52.5037C105.248 52.414 105.363 52.3842 105.452 52.4365L108.41 54.186C108.435 54.1987 108.727 54.3601 108.755 54.6747C108.78 54.9495 108.579 55.2927 108.555 55.3307L107.879 56.4914C107.844 56.5514 107.781 56.585 107.717 56.585L107.718 56.5856Z" fill="black"/>
<path d="M102.038 65.8691C101.841 65.8691 101.667 65.787 101.642 65.7755L98.221 63.7665C98.1809 63.74 97.9133 63.5533 97.8612 63.2768C97.8102 63.0074 97.978 62.7122 97.9972 62.6791L103.677 52.9262C103.729 52.837 103.846 52.8023 103.935 52.8541C104.024 52.9059 104.057 53.016 104.007 53.1064L103.585 53.8307L98.3214 62.8703C98.2835 62.9358 98.2111 63.1038 98.2303 63.2057C98.2484 63.3021 98.3685 63.4112 98.4201 63.4459L101.819 65.4416C101.851 65.4565 102.007 65.5127 102.104 65.4818C102.198 65.4521 102.302 65.3204 102.337 65.261L105.081 60.5148C105.133 60.425 105.248 60.3936 105.338 60.4465C105.428 60.4988 105.458 60.6145 105.406 60.7048L102.66 65.4532C102.641 65.4863 102.472 65.7611 102.217 65.8421C102.157 65.8608 102.097 65.8685 102.037 65.8685L102.038 65.8691Z" fill="black"/>
<path d="M98.5294 68.8316C98.3297 68.8316 98.0791 68.7556 97.7977 68.6046C97.3512 68.365 96.8779 67.9502 97.0112 67.5696L98.7214 63.9659C98.7658 63.8717 98.8788 63.832 98.972 63.8767C99.0658 63.9213 99.1053 64.0342 99.0609 64.1284L97.3584 67.7134C97.3496 67.7415 97.4489 67.9243 97.7533 68.1359C98.1624 68.4196 98.5469 68.4961 98.6111 68.4416L100.972 65.1932C101.034 65.1084 101.151 65.0907 101.235 65.1519C101.319 65.2136 101.337 65.3315 101.276 65.4157L98.9128 68.6669C98.8305 68.7771 98.6983 68.8316 98.5294 68.8316Z" fill="black"/>
<path d="M107.181 49.2074C107.149 49.2074 107.116 49.1992 107.086 49.1815C106.997 49.1287 106.967 49.0135 107.019 48.9232L107.222 48.5706C107.273 48.4797 107.388 48.4489 107.478 48.5007C107.568 48.5525 107.6 48.6681 107.548 48.7585L107.343 49.1143C107.308 49.1744 107.246 49.208 107.181 49.208V49.2074Z" fill="black"/>
<path d="M108.198 54.2665C108.165 54.2665 108.133 54.2582 108.103 54.2406C108.013 54.1877 107.983 54.0726 108.035 53.9822L112.004 47.1676C112.038 47.1065 112.084 46.9902 112.077 46.9341C112.071 46.885 112.006 46.8277 111.988 46.8156L109.686 45.4633C109.626 45.4302 109.501 45.3867 109.436 45.4049C109.371 45.4225 109.29 45.5217 109.254 45.5834L108.29 47.2409C108.237 47.3312 108.122 47.361 108.032 47.3086C107.943 47.2558 107.913 47.1401 107.965 47.0503L108.929 45.395C108.943 45.368 109.095 45.1074 109.337 45.0413C109.576 44.9758 109.843 45.1196 109.873 45.1361L112.187 46.4956C112.219 46.5165 112.422 46.6575 112.45 46.8883C112.475 47.0922 112.353 47.3152 112.328 47.3577L108.359 54.1728C108.324 54.2329 108.262 54.2665 108.197 54.2665H108.198Z" fill="black"/>
<path d="M111.981 46.652C111.949 46.652 111.917 46.6438 111.887 46.6261C111.797 46.5733 111.767 46.4581 111.819 46.3678L112.112 45.8649L110.348 44.8287L110.089 45.2738C110.036 45.3641 109.921 45.3939 109.831 45.3415C109.741 45.2887 109.712 45.173 109.764 45.0832L110.118 44.4751C110.171 44.3847 110.286 44.355 110.376 44.4073L112.464 45.634C112.554 45.6869 112.584 45.8021 112.532 45.8924L112.144 46.5584C112.109 46.6184 112.046 46.652 111.981 46.652Z" fill="black"/>
<path d="M97.6274 68.2559C97.5973 68.2559 97.5666 68.2488 97.538 68.2328C97.447 68.1832 97.4124 68.0687 97.4624 67.9772L99.3897 64.3994C99.4391 64.3074 99.5532 64.2733 99.6448 64.3234C99.7358 64.373 99.7699 64.4876 99.7205 64.579L97.7931 68.1568C97.7591 68.2201 97.6944 68.2559 97.6274 68.2559Z" fill="black"/>
<path d="M98.2182 68.6013C98.1836 68.6013 98.1491 68.592 98.1178 68.5721C98.0301 68.5165 98.0037 68.3997 98.0597 68.3116L100.254 64.8247C100.31 64.736 100.426 64.7101 100.514 64.7657C100.601 64.8214 100.628 64.9382 100.572 65.0263L98.3773 68.5132C98.3416 68.5705 98.2807 68.6013 98.2182 68.6013Z" fill="black"/>
<path d="M103.675 76.6168C103.632 76.6168 103.588 76.6014 103.552 76.5705C103.474 76.5022 103.465 76.3827 103.533 76.3045C103.756 76.0472 103.975 75.7696 104.186 75.4793C104.246 75.3945 104.364 75.3763 104.448 75.4374C104.532 75.4986 104.551 75.617 104.49 75.7013C104.274 76.0009 104.047 76.2874 103.817 76.5523C103.78 76.5953 103.728 76.6173 103.675 76.6173V76.6168Z" fill="black"/>
<path d="M105.604 73.5866C105.58 73.5866 105.554 73.5816 105.53 73.5711C105.434 73.5298 105.39 73.4185 105.431 73.3227L105.521 73.1139C106.543 70.6422 106.647 67.2159 106.709 65.1684C106.715 64.9773 106.721 64.7993 106.726 64.6374C106.749 64.0006 107.25 63.6558 107.71 63.6541H107.712C108.119 63.6541 108.539 63.9257 108.563 64.5327C108.655 66.8028 108.563 69.0393 108.305 70.829C108.29 70.9325 108.194 71.003 108.092 70.9887C107.989 70.9739 107.918 70.878 107.933 70.775C108.188 69.0073 108.279 66.7956 108.188 64.5476C108.168 64.0695 107.82 64.0314 107.712 64.0314H107.711C107.426 64.032 107.116 64.249 107.102 64.6501C107.097 64.812 107.091 64.9888 107.085 65.1794C107.022 67.2528 106.916 70.7221 105.868 73.2604L105.776 73.472C105.746 73.543 105.677 73.586 105.604 73.586L105.604 73.5866Z" fill="black"/>
<path d="M107.5 73.6493C107.48 73.6493 107.459 73.646 107.439 73.6389C107.341 73.6047 107.289 73.4968 107.323 73.3987C107.448 73.0379 107.556 72.6705 107.645 72.3058C107.67 72.2045 107.771 72.1428 107.872 72.167C107.973 72.1918 108.035 72.2937 108.01 72.3951C107.919 72.7713 107.807 73.1503 107.678 73.5221C107.652 73.5998 107.579 73.6488 107.501 73.6488L107.5 73.6493Z" fill="black"/>
<path d="M105.834 76.884C105.797 76.884 105.759 76.8724 105.725 76.8487C105.641 76.7881 105.621 76.6702 105.681 76.5854C105.923 76.2461 106.15 75.8886 106.358 75.5233C106.41 75.433 106.525 75.4011 106.615 75.4528C106.705 75.5046 106.737 75.6197 106.685 75.7106C106.471 76.0869 106.237 76.4548 105.988 76.8046C105.951 76.8564 105.894 76.884 105.835 76.884H105.834Z" fill="black"/>
<path d="M127.963 42.8781C127.879 42.8781 127.795 42.8655 127.714 42.8357C127.414 42.7261 127.237 42.4303 127.188 41.9566C127.178 41.853 127.253 41.7599 127.356 41.7494C127.462 41.7395 127.552 41.8144 127.563 41.918C127.585 42.1361 127.651 42.411 127.843 42.481C128.078 42.5669 128.481 42.3609 128.735 42.113C128.81 42.0403 128.928 42.0419 129.001 42.1168C129.073 42.1918 129.071 42.3113 128.997 42.384C128.8 42.5763 128.373 42.8787 127.964 42.8787L127.963 42.8781Z" fill="black"/>
<path d="M118.035 44.6816C117.987 44.6816 117.94 44.664 117.903 44.6276C117.829 44.5549 117.827 44.4354 117.9 44.3605C118.461 43.7837 118.854 42.6886 118.879 41.6354C118.881 41.5313 118.972 41.4553 119.071 41.4509C119.175 41.4531 119.257 41.5401 119.255 41.6442C119.228 42.7867 118.792 43.9842 118.169 44.6243C118.132 44.6623 118.084 44.6811 118.035 44.6811V44.6816Z" fill="black"/>
<path d="M116.01 20.6705C115.938 20.6705 115.869 20.6281 115.838 20.5576C115.796 20.4623 115.84 20.3504 115.935 20.3091C116.653 19.9935 117.295 19.2801 117.612 18.4467C117.86 17.7928 117.876 17.1665 117.655 16.6823C117.612 16.5876 117.654 16.4757 117.748 16.4322C117.843 16.3892 117.954 16.4306 117.997 16.5253C118.26 17.1021 118.248 17.8319 117.964 18.5811C117.612 19.5054 116.893 20.2998 116.086 20.6545C116.061 20.6655 116.036 20.6705 116.011 20.6705H116.01Z" fill="black"/>
<path d="M126.736 93.4316H51.4967C51.3931 93.4316 51.3086 93.3468 51.3086 93.2427C51.3086 93.1386 51.3931 93.0537 51.4967 93.0537H126.736C127.447 93.0537 128.024 92.4731 128.024 91.7592V89.6147C128.024 88.9008 127.446 88.3202 126.736 88.3202H51.4967C51.3931 88.3202 51.3086 88.2354 51.3086 88.1313C51.3086 88.0272 51.3931 87.9424 51.4967 87.9424H126.736C127.654 87.9424 128.401 88.6926 128.401 89.6142V91.7587C128.401 92.6808 127.654 93.4305 126.736 93.4305V93.4316Z" fill="black"/>
<path d="M123.006 102.728C122.903 102.728 122.818 102.643 122.818 102.539V93.3385C122.818 93.2344 122.903 93.1496 123.006 93.1496C123.11 93.1496 123.195 93.2344 123.195 93.3385V102.539C123.195 102.643 123.11 102.728 123.006 102.728Z" fill="black"/>
<path d="M66.1136 88.2018C65.9743 88.2018 65.5525 88.1682 65.3594 87.7903C65.1329 87.3474 65.327 86.996 65.3353 86.9811L70.9074 76.4609C70.9107 76.4548 71.084 76.1387 71.1751 75.7542C71.2683 75.362 71.2809 74.8816 71.2809 74.8767L71.3039 68.6801C71.3039 68.576 71.3884 68.4923 71.4921 68.4923H71.4926C71.5963 68.4923 71.6802 68.5776 71.6797 68.6818L71.6566 74.8822C71.6561 74.9075 71.6429 75.4104 71.5403 75.8417C71.4367 76.2786 71.2453 76.6273 71.237 76.6416L65.6644 87.1629C65.6589 87.1728 65.5629 87.3617 65.6934 87.6173C65.8092 87.8437 66.1416 87.8239 66.1443 87.8228H79.3053C79.3509 87.825 79.5604 87.8388 79.6843 87.5959C79.8226 87.3259 79.703 87.115 79.698 87.1061L74.3387 76.8052C74.3305 76.7909 74.0941 76.3573 73.9641 75.872C73.8341 75.3878 73.816 74.8711 73.8149 74.8491V68.7864C73.8149 68.6823 73.8989 68.5975 74.0031 68.5975C74.1073 68.5975 74.1912 68.6823 74.1912 68.7864V74.8425C74.1912 74.8425 74.2093 75.3328 74.3272 75.7734C74.4452 76.2136 74.6678 76.6223 74.67 76.6262L80.0255 86.9205C80.0282 86.9244 80.2564 87.3023 80.0189 87.7677C79.7693 88.2552 79.3004 88.2001 79.2812 88.1979L66.1591 88.1996C66.1591 88.1996 66.141 88.2012 66.1136 88.2012V88.2018Z" fill="black"/>
<path d="M73.9965 68.8591H71.4416C71.1608 68.8591 70.9326 68.63 70.9326 68.3479V67.8522C70.9326 67.5707 71.1608 67.341 71.4416 67.341H73.9965C74.2773 67.341 74.5055 67.5701 74.5055 67.8522V68.3479C74.5055 68.63 74.2773 68.8591 73.9965 68.8591ZM71.4416 67.7183C71.3681 67.7183 71.3089 67.7784 71.3089 67.8516V68.3474C71.3089 68.4212 71.3687 68.4812 71.4416 68.4812H73.9965C74.07 68.4812 74.1298 68.4212 74.1298 68.3474V67.8516C74.1298 67.7784 74.07 67.7183 73.9965 67.7183H71.4416Z" fill="black"/>
<path d="M72.7518 79.809C70.6714 79.809 69.6172 79.6256 69.6172 79.2631C69.6172 78.9006 70.6719 78.7172 72.7518 78.7172C74.8317 78.7172 75.8864 78.9006 75.8864 79.2631C75.8864 79.6256 74.8317 79.809 72.7518 79.809ZM70.2611 79.2631C70.7048 79.3501 71.5819 79.4311 72.7518 79.4311C73.9217 79.4311 74.7988 79.3496 75.242 79.2631C74.7982 79.1761 73.9212 79.0951 72.7518 79.0951C71.5824 79.0951 70.7048 79.1766 70.2611 79.2631Z" fill="black"/>
<path d="M59.6012 88.3048C59.4208 88.3048 59.0906 88.2073 58.9485 87.8162C58.7735 87.3342 58.9211 86.9574 58.9277 86.9414L63.5756 74.582C63.5783 74.5753 63.7259 74.1969 63.8038 73.7336C63.8827 73.2638 63.8937 72.6909 63.8937 72.6854L63.9135 65.4042C63.9135 65.3001 63.9979 65.2158 64.1016 65.2158C64.2053 65.2158 64.2892 65.3006 64.2892 65.4053L64.2694 72.6892C64.2694 72.7168 64.2579 73.2985 64.1745 73.797C64.0901 74.3005 63.9332 74.7015 63.9261 74.7186L59.2776 87.0792C59.2727 87.0924 59.1783 87.3469 59.3017 87.6873C59.3911 87.9341 59.5935 87.9291 59.6336 87.9253L70.6171 87.9242C70.6286 87.9242 70.6396 87.9253 70.6511 87.9275C70.6582 87.9297 70.7981 87.933 70.8963 87.662C71.0263 87.3028 70.9111 87.0224 70.9062 87.0103L66.4376 74.9125C66.4305 74.8943 66.2358 74.3925 66.1288 73.8311C66.0224 73.2715 66.007 72.6738 66.0065 72.6485V65.5303C66.0065 65.4262 66.091 65.3414 66.1946 65.3414C66.2983 65.3414 66.3828 65.4262 66.3828 65.5303V72.644C66.3828 72.644 66.3976 73.2318 66.4985 73.7601C66.5983 74.2856 66.787 74.7731 66.7892 74.7781L71.255 86.8698C71.2583 86.8764 71.4333 87.2841 71.2495 87.7914C71.0636 88.3037 70.706 88.3087 70.6083 88.3021H59.6528C59.6374 88.3043 59.6199 88.3048 59.6012 88.3048Z" fill="black"/>
<path d="M66.2188 65.4675H64.0226C63.767 65.4675 63.5586 65.2384 63.5586 64.9563V64.4606C63.5586 64.1791 63.767 63.9494 64.0226 63.9494H66.2188C66.4744 63.9494 66.6828 64.1785 66.6828 64.4606V64.9563C66.6828 65.2384 66.4749 65.4675 66.2188 65.4675ZM64.0226 64.3267C63.9809 64.3267 63.9349 64.384 63.9349 64.46V64.9558C63.9349 65.0346 63.9815 65.0896 64.0226 65.0896H66.2188C66.2605 65.0896 66.3065 65.0346 66.3065 64.9558V64.46C66.3065 64.3834 66.2599 64.3267 66.2188 64.3267H64.0226Z" fill="black"/>
<path d="M65.1115 77.5208C62.8105 77.5208 62.8105 77.1621 62.8105 77.0443C62.8105 76.9264 62.8105 76.5683 65.1115 76.5683C67.4124 76.5683 67.4129 76.9269 67.4129 77.0443C67.4129 77.1616 67.4129 77.5208 65.1115 77.5208ZM63.5351 77.0443C63.8653 77.0966 64.3951 77.1429 65.1115 77.1429C65.8278 77.1429 66.3576 77.0966 66.6884 77.0443C66.3582 76.9919 65.8278 76.9457 65.1115 76.9457C64.3951 76.9457 63.8653 76.9919 63.5351 77.0443Z" fill="black"/>
<path d="M90.8697 68.7517C90.8236 68.7517 90.7775 68.7352 90.7413 68.701L88.255 66.3715C88.1793 66.3004 88.1749 66.1809 88.2457 66.1043C88.3164 66.0283 88.4355 66.0239 88.5112 66.095L90.9975 68.4245C91.0732 68.4956 91.0775 68.6151 91.0068 68.6917C90.97 68.7313 90.9196 68.7517 90.8691 68.7517H90.8697Z" fill="black"/>
<path d="M92.8794 67.092C92.8179 67.092 92.7571 67.0617 92.7214 67.0055L90.6679 63.8172C90.6114 63.7296 90.6366 63.6128 90.7238 63.556C90.811 63.4999 90.9273 63.5247 90.9838 63.6122L93.0373 66.8C93.0938 66.8876 93.0686 67.0044 92.9814 67.0611C92.9496 67.0815 92.9145 67.0914 92.8794 67.0914V67.092Z" fill="black"/>
<path d="M95.0938 65.9021C95.0192 65.9021 94.9484 65.857 94.9193 65.7832L93.7253 62.7794C93.6869 62.6824 93.7341 62.5728 93.83 62.5342C93.926 62.4951 94.0357 62.543 94.0741 62.6394L95.2682 65.6432C95.3066 65.7402 95.2594 65.8498 95.1634 65.8884C95.1404 65.8977 95.1168 65.9021 95.0938 65.9021Z" fill="black"/>
</g>
<g clip-path="url(#clip1_349_36160)">
<path d="M21.1444 40H34.8556C35.4868 40 36 39.471 36 38.8204V25.1796C36 24.529 35.4868 24 34.8556 24H21.1444C20.5132 24 20 24.529 20 25.1796V38.8204C20 39.471 20.5132 40 21.1444 40Z" fill="#BCC3C9"/>
<path d="M34.2621 39.3069H21.7387C21.1614 39.3069 20.6934 38.8246 20.6934 38.2295V25.7705C20.6934 25.1755 21.1614 24.6931 21.7387 24.6931H34.2621C34.8394 24.6931 35.3074 25.1755 35.3074 25.7705V38.2295C35.3074 38.8246 34.8394 39.3069 34.2621 39.3069Z" fill="#E9E9E9"/>
<path d="M27.668 37.8462C27.668 38.0344 27.816 38.1882 27.9997 38.1882C28.1834 38.1882 28.3314 38.0356 28.3314 37.8462C28.3314 37.6569 28.1834 37.5043 27.9997 37.5043C27.816 37.5043 27.668 37.6569 27.668 37.8462Z" fill="#979797"/>
<path d="M30.3416 37.3632C30.4307 37.5284 30.6322 37.5881 30.7925 37.4963C30.9528 37.4045 31.0095 37.1968 30.9216 37.0316C30.8325 36.8663 30.631 36.8067 30.4707 36.8985C30.3104 36.9903 30.2526 37.1979 30.3416 37.3632Z" fill="#979797"/>
<path d="M32.6333 35.4871C32.7869 35.5892 32.9917 35.5433 33.0919 35.385C33.1921 35.2266 33.1465 35.0155 32.9929 34.9122C32.8392 34.8101 32.6344 34.856 32.5342 35.0144C32.4351 35.1727 32.4797 35.3838 32.6333 35.4871Z" fill="#979797"/>
<path d="M33.7683 32.5829C33.9508 32.5829 34.1 32.4303 34.1 32.241C34.1 32.0516 33.9519 31.899 33.7683 31.899C33.5846 31.899 33.4365 32.0516 33.4365 32.241C33.4365 32.4303 33.5846 32.5829 33.7683 32.5829Z" fill="#979797"/>
<path d="M33.1886 29.2129C33.3177 29.0798 33.3177 28.8629 33.1886 28.7298C33.0594 28.5967 32.849 28.5967 32.7199 28.7298C32.5908 28.8629 32.5908 29.0798 32.7199 29.2129C32.849 29.346 33.0594 29.346 33.1886 29.2129Z" fill="#979797"/>
<path d="M31.1075 27.0625C31.2366 26.9294 31.2366 26.7126 31.1075 26.5795C30.9784 26.4464 30.768 26.4464 30.6388 26.5795C30.5097 26.7126 30.5097 26.9294 30.6388 27.0625C30.768 27.1956 30.9784 27.1956 31.1075 27.0625Z" fill="#979797"/>
<path d="M27.668 25.9541C27.668 26.1423 27.816 26.2961 27.9997 26.2961C28.1834 26.2961 28.3314 26.1434 28.3314 25.9541C28.3314 25.7648 28.1834 25.6122 27.9997 25.6122C27.816 25.6122 27.668 25.7648 27.668 25.9541Z" fill="#979797"/>
<path d="M25.6457 37.3632C25.5567 37.5284 25.3552 37.5881 25.1949 37.4963C25.0346 37.4045 24.9778 37.1968 25.0657 37.0316C25.1548 36.8663 25.3563 36.8067 25.5166 36.8985C25.6769 36.9903 25.7348 37.1979 25.6457 37.3632Z" fill="#979797"/>
<path d="M23.3552 35.4871C23.2015 35.5892 22.9967 35.5433 22.8965 35.385C22.7975 35.2266 22.842 35.0155 22.9956 34.9122C23.1492 34.8101 23.3541 34.856 23.4542 35.0144C23.5533 35.1727 23.5088 35.3838 23.3552 35.4871Z" fill="#979797"/>
<path d="M22.2204 32.5829C22.0378 32.5829 21.8887 32.4303 21.8887 32.241C21.8887 32.0516 22.0367 31.899 22.2204 31.899C22.4041 31.899 22.5521 32.0516 22.5521 32.241C22.5521 32.4303 22.4041 32.5829 22.2204 32.5829Z" fill="#979797"/>
<path d="M22.799 29.2129C22.6699 29.0798 22.6699 28.8629 22.799 28.7298C22.9281 28.5967 23.1385 28.5967 23.2677 28.7298C23.3968 28.8629 23.3968 29.0798 23.2677 29.2129C23.1385 29.346 22.9281 29.346 22.799 29.2129Z" fill="#979797"/>
<path d="M24.881 27.0626C24.7519 26.9295 24.7519 26.7126 24.881 26.5795C25.0102 26.4464 25.2206 26.4464 25.3497 26.5795C25.4788 26.7126 25.4788 26.9295 25.3497 27.0626C25.2206 27.1957 25.0102 27.1957 24.881 27.0626Z" fill="#979797"/>
<path d="M27.9102 32.2421C27.9102 32.4303 28.0582 32.584 28.2419 32.584C28.4256 32.584 28.5736 32.4314 28.5736 32.2421C28.5736 32.0528 28.4256 31.9002 28.2419 31.9002C28.0582 31.9002 27.9102 32.0528 27.9102 32.2421Z" fill="#5F646C"/>
<path d="M28.2865 36.5095H28.1963V32.2421H28.2865V36.5095Z" fill="#5F646C"/>
<path d="M30.3115 34.1338L28.1162 32.3577L28.2839 32.1374L30.4792 33.9136L30.3115 34.1338Z" fill="#5F646C"/>
</g>
<path d="M226.468 102.775H0.267191C0.119625 102.775 0 102.894 0 103.041V103.157C0 103.303 0.119625 103.422 0.267191 103.422H226.468C226.616 103.422 226.735 103.303 226.735 103.157V103.041C226.735 102.894 226.616 102.775 226.468 102.775Z" fill="#2E3552"/>
<defs>
<clipPath id="clip0_349_36160">
<rect width="119.344" height="89.0493" fill="white" transform="translate(51.3086 15)"/>
</clipPath>
<clipPath id="clip1_349_36160">
<rect width="16" height="16" fill="white" transform="matrix(1 0 0 -1 20 40)"/>
</clipPath>
</defs>
</svg>
