<svg width="189" height="96" viewBox="0 0 189 96" fill="none" xmlns="http://www.w3.org/2000/svg">
<g clip-path="url(#clip0_10_865)">
<path d="M11.3113 95.5071C10.3418 85.3432 11.6991 70.5094 15.9247 58.98C21.5156 43.6937 33.3599 29.4658 58.0991 29.7567C111.238 30.3707 99.474 2.19767 136.672 0.0404592C151.821 -0.840201 174.201 11.6668 164.772 40.7528C157.638 62.7693 188.275 61.2261 179.275 95.6042L11.3113 95.5071Z" fill="#F4F4F4"/>
<path d="M123.163 90.0374C123.163 90.0374 124.343 91.1281 124.117 91.9037C123.891 92.6793 122.824 93.1964 122.678 94.1417C122.533 95.087 121.96 95.6041 121.442 95.6041H118.978C118.978 95.6041 118.59 94.9416 119.511 94.7396C120.432 94.5376 120.78 93.4226 120.723 92.3884C120.699 91.5794 120.729 90.7697 120.812 89.9646L122.767 89.5041L123.163 90.0374Z" fill="#2C3F4E" stroke="#231F20" stroke-width="0.25" stroke-miterlimit="10"/>
<path d="M108.475 95.5961H108.402H101.801C101.866 95.3681 102.002 95.1668 102.19 95.0215C102.377 94.8762 102.606 94.7944 102.843 94.7881C103.87 94.6184 105.655 94.0205 106.075 92.7036C106.075 92.7036 106.075 92.6148 106.075 92.5744C106.39 91.1685 108.693 93.0025 108.693 93.0025C108.689 93.0536 108.689 93.105 108.693 93.1561C108.774 93.7055 108.911 95.3779 108.475 95.5961Z" fill="#2C3F4E" stroke="#231F20" stroke-width="0.25" stroke-miterlimit="10"/>
<path d="M103.118 58.1155C103.118 58.1155 103.465 62.4703 103.877 67.7058C104.435 74.8157 105.106 83.5415 105.17 85.1978C105.283 88.0741 105.744 92.6632 105.744 92.6632C106.199 93.026 106.735 93.2734 107.306 93.3846C107.877 93.4957 108.466 93.4671 109.024 93.3014C110.269 88.887 111.107 84.3679 111.529 79.8007V79.4532C112.046 72.3918 112.854 57.5176 112.854 57.5176L103.118 58.1155Z" fill="#4C4C4C" stroke="#231F20" stroke-width="0.25" stroke-miterlimit="10"/>
<path d="M104.734 58.6326C104.734 58.6326 111.028 74.4036 115.172 81.8125C119.317 89.2213 120.602 91.2897 120.602 91.2897C120.602 91.2897 122.977 90.3444 123.187 89.6738C123.187 89.6738 121.572 75.3651 118.833 71.899C117.265 69.9357 115.431 64.0216 115.342 61.9532C115.253 59.8849 114.785 55.7886 114.785 55.7886L104.734 58.6326Z" fill="#4C4C4C" stroke="#231F20" stroke-width="0.25" stroke-miterlimit="10"/>
<path d="M87.9044 43.5887C88.1229 43.3801 88.3852 43.2227 88.6721 43.1281C88.6721 43.1281 98.5612 42.7079 98.8763 42.3201C99.1914 41.9323 100.605 38.5874 101.26 37.0847C101.462 36.5999 101.688 36.1313 101.922 35.6627L103.668 32.2208L106.568 32.1158C107.268 32.9929 107.76 34.0179 108.006 35.1132C108.119 37.0119 101.421 48.1535 98.9489 47.9919C96.6463 47.8546 87.2822 44.542 87.2822 44.542C87.4586 44.205 87.667 43.8858 87.9044 43.5887V43.5887Z" fill="white" stroke="#231F20" stroke-width="0.25" stroke-miterlimit="10"/>
<path d="M107.158 30.7504C109.509 31.4937 113.565 29.498 113.565 29.498C112.958 28.9689 112.465 28.3224 112.115 27.5976C111.766 26.8728 111.566 26.0846 111.529 25.2806C111.529 25.2806 111.529 25.1998 111.529 25.1594C111.529 24.9493 111.529 24.7312 111.529 24.505L110.891 25.022L108.467 26.953C108.467 26.953 108.596 27.9064 108.644 29.498C108.316 29.6812 108.007 29.8979 107.723 30.1444C107.514 30.326 107.324 30.5291 107.158 30.7504V30.7504Z" fill="#FEEDE5" stroke="#231F20" stroke-width="0.25" stroke-miterlimit="10"/>
<path d="M116.142 29.191C116.142 29.191 109.945 28.2134 105.857 30.92C105.857 30.92 103.086 49.0422 105.502 50.7551C107.917 52.4679 116.142 50.7551 116.142 50.7551V29.191Z" fill="#FEEDE5" stroke="#231F20" stroke-width="0.25" stroke-miterlimit="10"/>
<path d="M107.869 70.2588H119.075C119.075 70.2588 117.774 51.1591 117.403 46.5053C117.096 42.7322 116.457 33.6913 116.231 30.411C116.174 29.6435 116.142 29.191 116.142 29.191L113.468 28.7386L108.879 34.6851C108.879 34.6851 108.151 50.5531 108.176 53.0497C108.2 55.5462 107.885 65.29 107.869 66.9301C107.853 68.5702 107.869 70.2588 107.869 70.2588Z" fill="white" stroke="#231F20" stroke-width="0.25" stroke-miterlimit="10"/>
<path d="M108.879 34.6851L107.869 70.2347H102.593C102.593 70.2347 102.835 46.8043 102.851 44.6875C102.867 42.5706 102.278 33.2793 103.926 31.8411C105.308 30.6454 108.62 29.4738 108.62 29.4738L108.879 34.6851Z" fill="white" stroke="#231F20" stroke-width="0.25" stroke-miterlimit="10"/>
<path d="M108.588 28.6982C108.588 28.6982 107.077 29.7324 107.134 30.104C107.199 30.4306 107.288 30.752 107.4 31.0655L108.321 30.8796L107.513 31.421C107.885 32.5426 108.33 33.6385 108.846 34.7013L108.588 28.6982Z" fill="white" stroke="#231F20" stroke-width="0.25" stroke-miterlimit="10"/>
<path d="M116.853 39.2742C116.191 35.2345 108.58 41.2052 109.21 46.5457C110.381 56.3622 115.367 67.3099 119.067 70.2912L116.853 39.2742Z" fill="white" stroke="#231F20" stroke-width="0.25" stroke-miterlimit="10"/>
<path d="M111.504 25.2806C111.497 25.2432 111.497 25.2048 111.504 25.1675H111.464L110.818 25.0301L108.394 26.9611C108.394 26.9611 108.499 27.866 108.572 29.5142C109.336 29.0609 109.994 28.4481 110.5 27.7175C111.006 26.9868 111.349 26.1557 111.504 25.2806Z" fill="#FEEDE5" stroke="#231F20" stroke-width="0.25" stroke-miterlimit="10"/>
<path d="M107.465 27.5428C107.465 27.5428 111.65 27.4297 111.504 24.8281C111.359 22.2265 111.852 20.4571 109.178 20.4167C106.503 20.3763 106.027 21.4025 105.857 22.2751C105.687 23.1476 106.35 27.5105 107.465 27.5428Z" fill="#FEEDE5" stroke="#231F20" stroke-width="0.25" stroke-miterlimit="10"/>
<path d="M111.537 25.1675C111.351 25.2 111.16 25.1767 110.987 25.1005C110.815 25.0243 110.668 24.8985 110.567 24.7392C110.131 24.1656 109.412 21.9518 108.467 21.8064C107.521 21.661 106.261 22.372 105.857 21.968C105.267 21.3782 104.508 20.4167 104.508 20.4167C104.508 20.4167 109.218 17.0638 111.1 18.615C112.983 20.1663 113.621 22.4366 111.537 25.1675Z" fill="#FFCE7E" stroke="#231F20" stroke-width="0.25" stroke-miterlimit="10"/>
<path d="M105.889 34.4588C106.07 33.01 106.397 31.5833 106.867 30.201L106.616 30.3141C106.218 31.6673 105.947 33.055 105.809 34.4588H105.889Z" fill="black" stroke="#231F20" stroke-width="0.25" stroke-miterlimit="10"/>
<path d="M112.005 39.2741C112.094 39.1853 114.251 37.1169 113.791 35.6626C113.73 35.4491 113.621 35.2523 113.473 35.0872C113.324 34.922 113.14 34.7927 112.934 34.7092C112.456 34.5273 111.927 34.5273 111.448 34.7092C110.729 35.1617 110.373 36.4059 110.268 38.4824H110.349C110.479 36.0585 111.117 35.1375 111.585 34.9355C111.767 34.8528 111.964 34.8082 112.163 34.8044C112.363 34.8006 112.561 34.8377 112.745 34.9134C112.93 34.9891 113.098 35.1017 113.237 35.2445C113.377 35.3872 113.485 35.557 113.557 35.7434C113.606 36.1346 113.575 36.5316 113.467 36.9107C113.358 37.2897 113.175 37.6429 112.927 37.9491C112.466 38.652 111.973 39.266 111.965 39.2741H112.005Z" fill="black" stroke="#231F20" stroke-width="0.25" stroke-miterlimit="10"/>
<path d="M111.755 39.5004C111.797 39.539 111.851 39.5605 111.908 39.5605C111.965 39.5605 112.02 39.539 112.062 39.5004L112.207 39.3469C112.245 39.3065 112.267 39.253 112.267 39.1974C112.267 39.1419 112.245 39.0885 112.207 39.048V39.048C112.167 39.01 112.113 38.9887 112.058 38.9887C112.002 38.9887 111.949 39.01 111.908 39.048L111.755 39.2015C111.717 39.2419 111.696 39.2954 111.696 39.351C111.696 39.4065 111.717 39.4599 111.755 39.5004V39.5004Z" fill="#B64C41" stroke="#231F20" stroke-width="0.25" stroke-miterlimit="10"/>
<path d="M110.276 38.8864C110.333 38.8843 110.386 38.8604 110.425 38.8197C110.465 38.779 110.487 38.7247 110.487 38.6682V38.4662C110.487 38.4097 110.465 38.3555 110.425 38.3148C110.386 38.2741 110.333 38.2502 110.276 38.2481V38.2481C110.22 38.2502 110.166 38.2741 110.127 38.3148C110.088 38.3555 110.066 38.4097 110.066 38.4662V38.6682C110.066 38.7247 110.088 38.779 110.127 38.8197C110.166 38.8604 110.22 38.8843 110.276 38.8864Z" fill="#B64C41" stroke="#231F20" stroke-width="0.25" stroke-miterlimit="10"/>
<path d="M105.857 35.0406C106.174 35.0406 106.431 34.7837 106.431 34.4669C106.431 34.1501 106.174 33.8933 105.857 33.8933C105.54 33.8933 105.283 34.1501 105.283 34.4669C105.283 34.7837 105.54 35.0406 105.857 35.0406Z" fill="black" stroke="#231F20" stroke-width="0.25" stroke-miterlimit="10"/>
<path d="M106.132 34.4588C106.132 34.3817 106.101 34.3078 106.046 34.2532C105.992 34.1987 105.918 34.168 105.841 34.168C105.763 34.168 105.688 34.1983 105.632 34.2526C105.576 34.3069 105.544 34.381 105.542 34.4588C105.544 34.5375 105.576 34.6123 105.632 34.6679C105.687 34.7236 105.762 34.7557 105.841 34.7578C105.919 34.7557 105.992 34.7233 106.047 34.6674C106.101 34.6116 106.132 34.5368 106.132 34.4588V34.4588Z" fill="#FA412B" stroke="#231F20" stroke-width="0.25" stroke-miterlimit="10"/>
<path d="M108.467 70.2588C108.679 68.0193 108.765 65.7697 108.725 63.5206C108.725 62.2036 108.725 60.6605 108.725 59.1658C108.84 57.3254 108.84 55.4798 108.725 53.6394C108.434 51.3449 108.491 40.9224 108.612 39.7913C108.714 38.8997 108.679 37.9978 108.507 37.117C108.544 36.2982 108.669 35.4856 108.879 34.6932H108.822C108.591 35.4992 108.45 36.3283 108.402 37.1654C108.588 38.0303 108.64 38.9187 108.555 39.7993C108.434 40.9305 108.2 51.353 108.499 53.6475C108.681 55.4863 108.741 57.3352 108.677 59.1819C108.636 60.6766 108.604 62.2279 108.677 63.5449C108.707 65.7959 108.564 68.046 108.249 70.275L108.467 70.2588Z" fill="white" stroke="#231F20" stroke-width="0.25" stroke-miterlimit="10"/>
<path d="M111.068 43.1443C110.938 43.4169 110.869 43.7147 110.866 44.0168C110.906 44.3842 110.982 44.7468 111.093 45.0995C111.093 45.0995 119.851 46.9659 121.547 45.4065C123.373 43.7341 119.988 31.1867 118.534 29.9586C117.576 29.369 116.495 29.0094 115.374 28.9083C114.704 28.8032 114.066 28.7386 113.589 28.6982L112.781 28.6417L112.983 29.3688L113.751 32.2047L114.647 35.5092C114.647 35.5092 117.322 41.0113 117.403 41.5284C117.483 42.0455 111.068 43.1443 111.068 43.1443Z" fill="white" stroke="#231F20" stroke-width="0.25" stroke-miterlimit="10"/>
<path d="M109.848 33.8044C109.848 33.8044 112.078 32.8349 113.686 31.9542C114.205 31.6335 114.632 31.1849 114.928 30.6516C115.224 30.1183 115.377 29.518 115.374 28.9083C114.704 28.8032 114.066 28.7386 113.589 28.6982H113.468L112.983 29.3284L109.848 33.8044Z" fill="white" stroke="#231F20" stroke-width="0.25" stroke-miterlimit="10"/>
<path d="M108.879 34.6851L112.353 28.068C112.967 28.1782 113.554 28.4059 114.082 28.7386C114.002 29.5542 113.87 30.3639 113.686 31.1625C113.431 31.1324 113.173 31.1324 112.918 31.1625C113.044 31.361 113.187 31.5475 113.347 31.7199C111.714 32.4723 110.206 33.4725 108.879 34.6851V34.6851Z" fill="white" stroke="#231F20" stroke-width="0.25" stroke-miterlimit="10"/>
<path d="M112.894 34.9436C113.137 34.4184 115.229 29.9505 114.696 28.8113H114.494C114.898 29.6758 113.444 33.5539 112.813 34.9517L112.894 34.9436Z" fill="black" stroke="#231F20" stroke-width="0.25" stroke-miterlimit="10"/>
<path d="M108.281 38.8056C108.281 38.7327 108.252 38.6628 108.2 38.6113C108.149 38.5598 108.079 38.5309 108.006 38.5309C107.932 38.5309 107.862 38.5595 107.809 38.6108C107.756 38.6621 107.726 38.732 107.723 38.8056C107.723 38.8806 107.753 38.9525 107.806 39.0055C107.859 39.0585 107.931 39.0883 108.006 39.0883C108.08 39.0862 108.15 39.0555 108.201 39.0027C108.252 38.9499 108.281 38.8792 108.281 38.8056V38.8056Z" fill="#DCD1B8" stroke="#231F20" stroke-width="0.25" stroke-miterlimit="10"/>
<path d="M108.281 54.4231C108.281 54.3503 108.252 54.2804 108.2 54.2289C108.149 54.1774 108.079 54.1485 108.006 54.1485C107.932 54.1484 107.862 54.1771 107.809 54.2284C107.756 54.2797 107.726 54.3495 107.723 54.4231C107.723 54.4981 107.753 54.5701 107.806 54.6231C107.859 54.6762 107.931 54.7059 108.006 54.7059C108.08 54.7038 108.15 54.6731 108.201 54.6203C108.252 54.5675 108.281 54.4967 108.281 54.4231V54.4231Z" fill="#DCD1B8" stroke="#231F20" stroke-width="0.25" stroke-miterlimit="10"/>
<path d="M108.144 47.2809C108.144 47.2059 108.114 47.134 108.061 47.081C108.008 47.028 107.936 46.9982 107.861 46.9982C107.787 47.0003 107.717 47.031 107.666 47.0838C107.615 47.1366 107.586 47.2073 107.586 47.2809C107.586 47.3538 107.615 47.4236 107.666 47.4751C107.718 47.5266 107.788 47.5556 107.861 47.5556C107.934 47.5556 108.005 47.527 108.058 47.4757C108.111 47.4244 108.141 47.3545 108.144 47.2809Z" fill="#DCD1B8" stroke="#231F20" stroke-width="0.25" stroke-miterlimit="10"/>
<path d="M108.144 61.2099C108.141 61.1363 108.111 61.0664 108.058 61.0151C108.005 60.9638 107.934 60.9352 107.861 60.9352C107.788 60.9352 107.718 60.9642 107.666 61.0157C107.615 61.0672 107.586 61.137 107.586 61.2099C107.586 61.2835 107.615 61.3542 107.666 61.407C107.717 61.4598 107.787 61.4905 107.861 61.4926C107.936 61.4926 108.008 61.4628 108.061 61.4098C108.114 61.3568 108.144 61.2849 108.144 61.2099Z" fill="#DCD1B8" stroke="#231F20" stroke-width="0.25" stroke-miterlimit="10"/>
<path d="M111.197 30.201C110.392 30.5136 109.51 30.5755 108.669 30.3787L108.846 34.6851L111.197 30.201Z" fill="#0A9D57" stroke="#231F20" stroke-width="0.25" stroke-miterlimit="10"/>
<path d="M111.529 43.4189C111.529 43.4189 109.961 42.7322 109.242 42.9342C108.523 43.1362 107.554 43.2735 107.473 43.5321C107.544 43.8645 107.718 44.166 107.97 44.3938C108.223 44.6215 108.541 44.7639 108.879 44.8006C109.759 44.8491 111.303 45.2611 111.682 44.8006C112.062 44.3401 111.529 43.4189 111.529 43.4189Z" fill="#FEEDE5" stroke="#231F20" stroke-width="0.25" stroke-miterlimit="10"/>
<path d="M103.021 34.4588C102.698 36.7453 102.851 44.4046 102.851 44.4046L101.801 45.8508C101.252 43.5482 103.021 34.4588 103.021 34.4588Z" fill="white" stroke="#231F20" stroke-width="0.25" stroke-miterlimit="10"/>
<path d="M34.6527 56.9925L83.7598 56.9925V22.3962L34.6527 22.3962L34.6527 56.9925Z" fill="#0A9D57" stroke="#231F20" stroke-width="0.25" stroke-miterlimit="10"/>
<path d="M36.3574 55.1987L82.063 55.1987V24.1979L36.3574 24.1979L36.3574 55.1987Z" fill="white" stroke="#231F20" stroke-width="0.25" stroke-miterlimit="10"/>
<path d="M45.8589 94.1417H46.9418L53.6799 91.8148C55.0774 91.3327 56.2897 90.427 57.1484 89.2236C58.0071 88.0202 58.4697 86.5792 58.4712 85.1008V56.4915C58.4697 56.293 58.5412 56.1009 58.6723 55.9519C58.8035 55.8029 58.985 55.7073 59.182 55.6835C59.2854 55.6757 59.3892 55.6893 59.487 55.7236C59.5848 55.7578 59.6743 55.812 59.7501 55.8826C59.826 55.9531 59.8864 56.0386 59.9277 56.1337C59.9689 56.2287 59.9903 56.3312 59.99 56.4349V85.0685C59.9903 86.5471 60.4519 87.9887 61.3108 89.1923C62.1697 90.3959 63.3827 91.3014 64.7809 91.7825L71.5194 94.1093H72.7475C72.9422 94.1069 73.1301 94.1793 73.273 94.3116C73.4158 94.4439 73.5024 94.626 73.5148 94.8203C73.5238 94.9232 73.5114 95.0269 73.4781 95.1247C73.4448 95.2225 73.3914 95.3122 73.3215 95.3882C73.2515 95.4642 73.1664 95.5249 73.0718 95.5662C72.9771 95.6076 72.8748 95.6287 72.7715 95.6283H68.3764C68.1873 95.6207 68.0069 95.547 67.8667 95.42C67.7264 95.293 67.635 95.1208 67.6087 94.9335C67.6009 94.7513 67.6554 94.5719 67.7625 94.4244L62.8178 92.7197C60.4973 91.9119 57.9718 91.9119 55.6512 92.7197L50.8036 94.3841C50.9305 94.5289 50.997 94.7168 50.9894 94.9092C50.979 95.1049 50.8934 95.2891 50.7503 95.4231C50.6073 95.5572 50.4177 95.6306 50.2217 95.6283H45.8427C45.738 95.6392 45.6323 95.628 45.5322 95.5954C45.4321 95.5628 45.3401 95.5096 45.262 95.4391C45.1838 95.3687 45.1213 95.2826 45.0785 95.1864C45.0357 95.0903 45.0134 94.9862 45.0134 94.881C45.0134 94.7758 45.0357 94.6717 45.0785 94.5755C45.1213 94.4794 45.1838 94.3932 45.262 94.3228C45.3401 94.2523 45.4321 94.1991 45.5322 94.1665C45.6323 94.1339 45.738 94.1227 45.8427 94.1336L45.8589 94.1417Z" fill="#0A9D57" stroke="#231F20" stroke-width="0.25" stroke-miterlimit="10"/>
<path d="M34.0144 56.9925H34.6606L34.6606 22.3962H34.0144L34.0144 56.9925Z" fill="#0A9D57" stroke="#231F20" stroke-width="0.25" stroke-miterlimit="10"/>
<path d="M62.4216 34.879C62.683 34.6864 62.9862 34.5579 63.3065 34.5042C63.6267 34.4505 63.9552 34.4729 64.2651 34.5697C64.5751 34.6665 64.8576 34.8349 65.0904 35.0613C65.3232 35.2876 65.4995 35.5656 65.6049 35.8728C65.6695 36.0586 65.7341 36.2525 65.7907 36.4625C65.7949 36.477 65.8028 36.4902 65.8135 36.5008C65.8243 36.5114 65.8377 36.5192 65.8522 36.5232C65.8668 36.5272 65.8821 36.5274 65.8968 36.5239C65.9115 36.5204 65.9251 36.5132 65.9362 36.503V36.503C66.0963 36.3578 66.2242 36.1807 66.3118 35.9831C66.3995 35.7856 66.4449 35.5718 66.4451 35.3557L66.0333 31.6634C66.0219 31.562 66.032 31.4594 66.0629 31.3622C66.0938 31.265 66.145 31.1754 66.2128 31.0992C66.2806 31.023 66.3636 30.9618 66.4566 30.9199C66.5496 30.8779 66.6505 30.856 66.7525 30.8555H67.6409C67.7429 30.856 67.8438 30.8779 67.9368 30.9199C68.0297 30.9618 68.1128 31.023 68.1806 31.0992C68.2484 31.1754 68.2996 31.265 68.3305 31.3622C68.3614 31.4594 68.3714 31.562 68.3601 31.6634L67.9482 35.3799C67.9483 35.5988 67.9949 35.8151 68.0855 36.0144C68.1761 36.2137 68.3084 36.3912 68.4733 36.5352C68.4816 36.5454 68.4922 36.5536 68.5041 36.5592C68.5159 36.5648 68.5288 36.5678 68.5419 36.5678C68.5551 36.5678 68.5679 36.5648 68.5798 36.5592C68.5917 36.5536 68.6022 36.5454 68.6106 36.5352C68.6752 36.3171 68.7396 36.1151 68.8043 35.9212C68.9097 35.6141 69.0859 35.3361 69.3187 35.1097C69.5515 34.8833 69.8345 34.715 70.1444 34.6182C70.4544 34.5215 70.7828 34.499 71.1031 34.5527C71.4233 34.6065 71.7265 34.7348 71.9879 34.9274C76.5851 38.3127 76.4636 43.7502 75.9223 46.877C75.8751 47.1815 75.7604 47.4716 75.5866 47.726C75.4128 47.9805 75.1847 48.1929 74.9183 48.3478C74.6519 48.5026 74.3544 48.5961 74.0472 48.6212C73.7401 48.6463 73.431 48.6024 73.143 48.4929L70.1618 47.3536C69.873 47.2444 69.6126 47.0715 69.4 46.8477C69.1874 46.6238 69.028 46.3549 68.9337 46.0609C68.1872 43.8283 67.9121 41.4651 68.1257 39.1207C68.156 38.7873 68.0642 38.4542 67.8673 38.1835C67.5118 37.6906 67.2532 37.5613 67.1482 37.5613C67.0431 37.5613 66.7523 37.7714 66.4049 38.4743C66.2945 38.7056 66.2497 38.9627 66.2755 39.2177C66.4726 41.5299 66.1977 43.8581 65.4676 46.0609C65.3733 46.3549 65.2139 46.6238 65.0013 46.8477C64.7886 47.0715 64.5282 47.2444 64.2395 47.3536L61.2582 48.4929C60.9707 48.6025 60.6622 48.6464 60.3556 48.6213C60.0489 48.5961 59.7519 48.5027 59.4861 48.3477C59.2203 48.1927 58.9927 47.9801 58.8198 47.7256C58.6469 47.4711 58.533 47.1812 58.4868 46.877C57.9455 43.7098 57.8729 38.2643 62.4216 34.879Z" fill="#DF2925" stroke="#231F20" stroke-width="0.25" stroke-miterlimit="10"/>
<path d="M91.6125 45.1237C91.6743 45.1263 91.7352 45.1059 91.7829 45.0665C91.8306 45.027 91.8619 44.9713 91.8709 44.9101C91.8799 44.8488 91.8661 44.7864 91.8318 44.7348C91.7976 44.6833 91.7454 44.6462 91.6855 44.6309L65.4999 37.416C65.468 37.4075 65.4351 37.4053 65.4024 37.4096C65.3698 37.414 65.3382 37.4247 65.3097 37.4412C65.2812 37.4577 65.256 37.4797 65.2359 37.5058C65.2159 37.532 65.2014 37.5619 65.1929 37.5937C65.1845 37.6255 65.1823 37.6587 65.1866 37.6913C65.191 37.724 65.2017 37.7555 65.2182 37.784C65.2347 37.8125 65.2567 37.8375 65.2829 37.8575C65.309 37.8775 65.3386 37.8922 65.3705 37.9007L91.5482 45.1156L91.6125 45.1237Z" fill="black" stroke="#231F20" stroke-width="0.25" stroke-miterlimit="10"/>
<path d="M89.1972 43.2897C89.1972 43.2897 87.7591 42.3525 87.0239 42.4333C86.2887 42.5141 85.7635 42.7322 85.6423 42.9746C85.5924 43.1026 85.5715 43.2402 85.5816 43.3772C85.5917 43.5143 85.6321 43.6473 85.7003 43.7666C85.7685 43.8859 85.8627 43.9884 85.9757 44.0666C86.0886 44.1449 86.2176 44.1969 86.3532 44.2188C87.2177 44.4127 88.6802 45.0268 89.1246 44.6794C89.569 44.332 89.1972 43.2897 89.1972 43.2897Z" fill="#FEEDE5" stroke="#231F20" stroke-width="0.25" stroke-miterlimit="10"/>
<path d="M43.4594 34.7739C43.4594 33.7566 42.6346 32.9318 41.6173 32.9318C40.5999 32.9318 39.7751 33.7566 39.7751 34.7739C39.7751 35.7913 40.5999 36.6161 41.6173 36.6161C42.6346 36.6161 43.4594 35.7913 43.4594 34.7739Z" fill="#0A9D57" stroke="#231F20" stroke-width="0.25" stroke-miterlimit="10"/>
<path d="M54.4472 42.9099H45.1239C45.0017 42.9099 44.8844 42.9585 44.798 43.0448C44.7116 43.1312 44.6631 43.2484 44.6631 43.3705C44.6631 43.4926 44.7116 43.6098 44.798 43.6962C44.8844 43.7825 45.0017 43.831 45.1239 43.831H54.4472C54.5693 43.831 54.6867 43.7825 54.773 43.6962C54.8594 43.6098 54.908 43.4926 54.908 43.3705C54.908 43.2484 54.8594 43.1312 54.773 43.0448C54.6867 42.9585 54.5693 42.9099 54.4472 42.9099V42.9099Z" fill="#0A9D57" stroke="#231F20" stroke-width="0.25" stroke-miterlimit="10"/>
<path d="M54.4472 44.8086H45.1239C45.0017 44.8086 44.8844 44.8571 44.798 44.9435C44.7116 45.0298 44.6631 45.147 44.6631 45.2691C44.6631 45.3913 44.7116 45.5084 44.798 45.5948C44.8844 45.6812 45.0017 45.7296 45.1239 45.7296H54.4472C54.5693 45.7296 54.6867 45.6812 54.773 45.5948C54.8594 45.5084 54.908 45.3913 54.908 45.2691C54.908 45.147 54.8594 45.0298 54.773 44.9435C54.6867 44.8571 54.5693 44.8086 54.4472 44.8086Z" fill="#0A9D57" stroke="#231F20" stroke-width="0.25" stroke-miterlimit="10"/>
<path d="M54.4472 46.9255H45.1239C45.0588 46.9168 44.9926 46.9221 44.9298 46.9411C44.867 46.96 44.8087 46.9922 44.7594 47.0355C44.71 47.0787 44.6705 47.1319 44.6434 47.1917C44.6163 47.2514 44.6024 47.3163 44.6024 47.3819C44.6024 47.4475 44.6163 47.5124 44.6434 47.5722C44.6705 47.6319 44.71 47.6852 44.7594 47.7284C44.8087 47.7716 44.867 47.8038 44.9298 47.8228C44.9926 47.8418 45.0588 47.847 45.1239 47.8384H54.4472C54.5123 47.847 54.5785 47.8418 54.6413 47.8228C54.7041 47.8038 54.7624 47.7716 54.8117 47.7284C54.8611 47.6852 54.9006 47.6319 54.9277 47.5722C54.9548 47.5124 54.9687 47.4475 54.9687 47.3819C54.9687 47.3163 54.9548 47.2514 54.9277 47.1917C54.9006 47.1319 54.8611 47.0787 54.8117 47.0355C54.7624 46.9922 54.7041 46.96 54.6413 46.9411C54.5785 46.9221 54.5123 46.9168 54.4472 46.9255V46.9255Z" fill="#0A9D57" stroke="#231F20" stroke-width="0.25" stroke-miterlimit="10"/>
<path d="M54.4472 49.0342H45.1239C45.0588 49.0255 44.9926 49.0308 44.9298 49.0498C44.867 49.0688 44.8087 49.101 44.7594 49.1442C44.71 49.1874 44.6705 49.2406 44.6434 49.3004C44.6163 49.3602 44.6024 49.425 44.6024 49.4907C44.6024 49.5563 44.6163 49.6211 44.6434 49.6809C44.6705 49.7407 44.71 49.7939 44.7594 49.8371C44.8087 49.8804 44.867 49.9125 44.9298 49.9315C44.9926 49.9505 45.0588 49.9559 45.1239 49.9472H54.4472C54.5123 49.9559 54.5785 49.9505 54.6413 49.9315C54.7041 49.9125 54.7624 49.8804 54.8117 49.8371C54.8611 49.7939 54.9006 49.7407 54.9277 49.6809C54.9548 49.6211 54.9687 49.5563 54.9687 49.4907C54.9687 49.425 54.9548 49.3602 54.9277 49.3004C54.9006 49.2406 54.8611 49.1874 54.8117 49.1442C54.7624 49.101 54.7041 49.0688 54.6413 49.0498C54.5785 49.0308 54.5123 49.0255 54.4472 49.0342V49.0342Z" fill="#0A9D57" stroke="#231F20" stroke-width="0.25" stroke-miterlimit="10"/>
<path d="M54.4472 32.9318H45.1239C45.0017 32.9318 44.8844 32.9804 44.798 33.0667C44.7116 33.1531 44.6631 33.2703 44.6631 33.3924C44.6652 33.5131 44.7146 33.6281 44.8008 33.7127C44.8869 33.7974 45.0031 33.8448 45.1239 33.8448H54.4472C54.5679 33.8448 54.6841 33.7974 54.7703 33.7127C54.8564 33.6281 54.9058 33.5131 54.908 33.3924V33.3924C54.908 33.2703 54.8594 33.1531 54.773 33.0667C54.6867 32.9804 54.5693 32.9318 54.4472 32.9318Z" fill="#0A9D57" stroke="#231F20" stroke-width="0.25" stroke-miterlimit="10"/>
<path d="M54.4472 34.8305H45.1239C45.0017 34.8305 44.8844 34.879 44.798 34.9654C44.7116 35.0518 44.6631 35.1689 44.6631 35.2911C44.6652 35.4118 44.7146 35.5269 44.8008 35.6115C44.8869 35.6961 45.0031 35.7435 45.1239 35.7435H54.4472C54.5679 35.7435 54.6841 35.6961 54.7703 35.6115C54.8564 35.5269 54.9058 35.4118 54.908 35.2911C54.908 35.1689 54.8594 35.0518 54.773 34.9654C54.6867 34.879 54.5693 34.8305 54.4472 34.8305Z" fill="#0A9D57" stroke="#231F20" stroke-width="0.25" stroke-miterlimit="10"/>
<path d="M54.4472 36.9392H45.1239C45.0024 36.9413 44.8863 36.9905 44.8004 37.0764C44.7145 37.1623 44.6652 37.2783 44.6631 37.3998V37.3998C44.6652 37.5213 44.7145 37.6372 44.8004 37.7231C44.8863 37.809 45.0024 37.8582 45.1239 37.8603H54.4472C54.5687 37.8582 54.6848 37.809 54.7707 37.7231C54.8566 37.6372 54.9059 37.5213 54.908 37.3998V37.3998C54.9059 37.2783 54.8566 37.1623 54.7707 37.0764C54.6848 36.9905 54.5687 36.9413 54.4472 36.9392V36.9392Z" fill="#0A9D57" stroke="#231F20" stroke-width="0.25" stroke-miterlimit="10"/>
<path d="M54.4472 39.056H45.1239C45.0031 39.056 44.8869 39.1034 44.8008 39.1881C44.7146 39.2727 44.6652 39.3878 44.6631 39.5085V39.5085C44.6631 39.6306 44.7116 39.7478 44.798 39.8342C44.8844 39.9205 45.0017 39.969 45.1239 39.969H54.4472C54.5693 39.969 54.6867 39.9205 54.773 39.8342C54.8594 39.7478 54.908 39.6306 54.908 39.5085C54.9058 39.3878 54.8564 39.2727 54.7703 39.1881C54.6841 39.1034 54.5679 39.056 54.4472 39.056V39.056Z" fill="#0A9D57" stroke="#231F20" stroke-width="0.25" stroke-miterlimit="10"/>
<path d="M43.4594 44.7521C43.4594 43.7347 42.6346 42.9099 41.6173 42.9099C40.5999 42.9099 39.7751 43.7347 39.7751 44.7521C39.7751 45.7694 40.5999 46.5942 41.6173 46.5942C42.6346 46.5942 43.4594 45.7694 43.4594 44.7521Z" fill="#0A9D57" stroke="#231F20" stroke-width="0.25" stroke-miterlimit="10"/>
<path d="M40.5184 44.5986L41.1971 46.0771L42.8372 43.4917L41.084 44.9621L40.5184 44.5986Z" fill="white" stroke="#231F20" stroke-width="0.25" stroke-miterlimit="10"/>
<path d="M40.5184 34.58L41.1971 36.0667L42.8372 33.4812L41.084 34.9517L40.5184 34.58Z" fill="white" stroke="#231F20" stroke-width="0.25" stroke-miterlimit="10"/>
<path d="M42.7482 27.8014H75.6881C75.7408 27.8014 75.793 27.7909 75.8416 27.7705C75.8902 27.7501 75.9341 27.7202 75.971 27.6826C76.0079 27.6449 76.0368 27.6003 76.0562 27.5514C76.0756 27.5024 76.0853 27.4501 76.0842 27.3974V27.3974C76.0842 27.2924 76.0425 27.1917 75.9682 27.1174C75.894 27.0432 75.7931 27.0015 75.6881 27.0015H42.7482C42.6425 27.0015 42.5413 27.0429 42.4657 27.1169C42.3902 27.191 42.3464 27.2917 42.3442 27.3974C42.3442 27.5046 42.3868 27.6073 42.4626 27.683C42.5383 27.7588 42.6411 27.8014 42.7482 27.8014Z" fill="#0A9D57" stroke="#231F20" stroke-width="0.25" stroke-miterlimit="10"/>
<path d="M58.4547 58.3821H59.9574V56.9924H58.4547V58.3821Z" fill="#008175" stroke="#231F20" stroke-width="0.25" stroke-miterlimit="10"/>
<path d="M0.271445 95.55L188.28 95.8453C188.369 95.8454 188.442 95.7731 188.442 95.6839C188.442 95.5946 188.369 95.5222 188.28 95.5221L0.271953 95.2268C0.182704 95.2266 0.110096 95.2988 0.109956 95.3881C0.109816 95.4773 0.182197 95.5498 0.271445 95.55Z" fill="#161616" stroke="#231F20" stroke-width="0.25" stroke-miterlimit="10"/>
<path d="M31.437 33.7802C31.437 33.7802 36.0668 33.7802 37.1817 35.3072C38.2967 36.8343 40.7448 45.2691 39.4683 48.0646C38.1917 50.8601 35.8079 46.9093 34.4829 45.1965C33.1579 43.4836 31.437 33.7802 31.437 33.7802Z" fill="#DF2925" stroke="#231F20" stroke-width="0.25" stroke-miterlimit="10"/>
<path d="M31.4856 33.0773V33.554C31.4856 33.554 31.6149 35.0486 29.7647 35.2668C27.9145 35.4849 26.5328 34.6851 26.5732 33.5297C26.7616 32.7934 26.8834 32.0417 26.9369 31.2836C26.9416 30.9833 26.9199 30.6833 26.8722 30.3868L30.4433 30.3141L31.5017 30.4918L31.4856 33.0773Z" fill="#FEEDE5" stroke="#231F20" stroke-width="0.25" stroke-miterlimit="10"/>
<path d="M31.5017 30.4918V33.0773C31.0971 33.2664 30.6554 33.363 30.2089 33.3601C29.539 33.3137 28.892 33.0992 28.3271 32.7362C27.7622 32.3733 27.2976 31.8736 26.9771 31.2836C26.9817 30.9833 26.9604 30.6833 26.9128 30.3868L30.4838 30.3141L31.5017 30.4918Z" fill="#FEEDE5" stroke="#231F20" stroke-width="0.25" stroke-miterlimit="10"/>
<path d="M26.5977 29.8131C27.0097 32.0431 29.8942 31.9704 31.1384 31.833C31.4858 31.7926 31.7037 31.7441 31.7037 31.7441C32.0996 31.6391 32.3179 31.017 32.4229 30.209C32.5957 28.6751 32.4863 27.1224 32.0998 25.6279C31.6878 24.715 30.92 23.7293 28.0195 24.4403C25.1189 25.1513 26.0644 26.9611 26.5977 29.8131Z" fill="#FEEDE5" stroke="#231F20" stroke-width="0.25" stroke-miterlimit="10"/>
<path d="M28.3346 95.5071C28.2417 94.7767 28.0517 94.0622 27.7693 93.3823C27.3734 92.5743 24.8523 93.0994 24.8523 93.0994C24.8523 93.0994 24.3435 93.5276 24.2385 95.5232L28.3346 95.5071Z" fill="#2C3F4E" stroke="#231F20" stroke-width="0.25" stroke-miterlimit="10"/>
<path d="M36.9231 95.4911C36.3252 95.1275 36.6647 92.437 36.6647 92.437C36.6647 92.437 39.4197 90.2313 39.7994 91.9199C40.1791 93.6085 42.4253 94.3438 43.7018 94.57C43.9767 94.5811 44.2419 94.675 44.4624 94.8393C44.683 95.0037 44.8489 95.2309 44.9382 95.4911H36.9231Z" fill="#2C3F4E" stroke="#231F20" stroke-width="0.25" stroke-miterlimit="10"/>
<path d="M36.1719 40.0094C36.1719 40.0094 38.507 44.8571 38.4585 46.0528C37.8159 45.5334 36.9938 45.2894 36.1719 45.3742C34.7176 45.5035 36.1719 40.0094 36.1719 40.0094Z" fill="#BA0909" stroke="#231F20" stroke-width="0.25" stroke-miterlimit="10"/>
<path d="M31.1385 31.833C31.4859 31.7926 31.7038 31.7442 31.7038 31.7442C32.0997 31.6391 32.3179 31.017 32.423 30.209C32.1621 30.2816 31.9189 30.4074 31.7089 30.5784C31.499 30.7494 31.327 30.962 31.2032 31.2028C31.1356 31.4056 31.1134 31.6208 31.1385 31.833V31.833Z" fill="#FEEDE5" stroke="#231F20" stroke-width="0.25" stroke-miterlimit="10"/>
<path d="M33.021 33.0934C33.021 33.0934 34.6369 30.4353 33.3765 30.3141C32.9852 30.266 32.5884 30.3405 32.2411 30.5271C31.8938 30.7138 31.6129 31.0035 31.4371 31.3564C31.3582 31.9288 31.3746 32.5103 31.4856 33.0773L33.021 33.0934Z" fill="#FEEDE5" stroke="#231F20" stroke-width="0.25" stroke-miterlimit="10"/>
<path d="M31.2109 75.8983C31.3096 76.3891 31.377 76.8856 31.4129 77.3849C31.6714 82.3861 35.6221 93.8105 36.3331 94.0771C37.4238 94.4892 39.1529 93.6165 40.0497 93.3257C40.2286 93.267 40.3814 93.1478 40.4817 92.9885C40.582 92.8292 40.6237 92.6398 40.5993 92.4531C38.636 83.4526 37.9168 70.5012 37.6582 62.8338C37.5944 60.6372 37.3239 58.4516 36.8503 56.3057C36.8503 56.3057 27.2034 53.7283 27.155 56.9843C27.0984 59.8606 30.3464 71.1476 31.2109 75.8983Z" fill="#4C4C4C" stroke="#231F20" stroke-width="0.25" stroke-miterlimit="10"/>
<path d="M33.3518 56.9763L28.2536 93.8993C26.9468 94.2031 25.5926 94.2416 24.2707 94.0124C24.2707 94.0124 22.7758 74.3713 22.897 69.6287C23.0182 64.8861 21.8304 56.9197 23.1716 56.0471C24.5128 55.1745 33.3518 56.9763 33.3518 56.9763Z" fill="#4C4C4C" stroke="#231F20" stroke-width="0.25" stroke-miterlimit="10"/>
<path d="M22.4365 55.0129C22.4365 54.8513 22.4365 54.6978 22.4365 54.5362V54.415V54.0434V53.9383C22.4365 53.6232 22.4851 53.3162 22.5012 53.0092V52.9365V52.5568V52.476V52.0235V51.5953V51.4902V51.1267V51.054C22.5012 50.9086 22.5012 50.7712 22.5012 50.6258V50.5127C22.5012 50.3915 22.5012 50.2703 22.5012 50.1572V50.0279C22.5012 49.931 22.5012 49.8259 22.5012 49.729C22.5012 49.632 22.5012 49.6482 22.5012 49.6159V49.2522C22.5012 49.1553 22.5012 49.0664 22.5012 48.9776C22.5052 48.9562 22.5052 48.9343 22.5012 48.913C22.5012 48.4363 22.5009 47.9758 22.5494 47.5152C22.5494 47.2486 22.5494 46.9901 22.5494 46.7073V46.6588C22.5494 46.5537 22.5494 46.4487 22.5494 46.3436V46.2629C22.5494 46.1498 22.5494 46.0366 22.5494 45.9316V45.5923V45.4873V45.2529V45.1317C22.5494 45.0509 22.5494 44.9702 22.5494 44.8894V44.7439C22.5534 44.674 22.5534 44.6038 22.5494 44.5339V44.5339C22.5494 44.445 22.5494 44.3561 22.5494 44.2673C22.553 44.2378 22.553 44.2079 22.5494 44.1784C22.5494 44.0815 22.5494 43.9845 22.5494 43.8956L22.4527 43.7825C20.247 41.1244 19.1078 37.6906 20.0289 36.4141C21.4832 34.3457 26.1125 33.5539 26.1125 33.5539C26.1125 34.3619 27.7851 35.2829 29.1183 35.1698C29.3303 35.1534 29.5394 35.1099 29.7404 35.0405C30.1686 33.974 30.4675 33.2631 30.4675 33.2631C30.4675 33.2631 31.0007 32.1804 32.8913 32.8025C32.8913 32.8025 32.9479 33.7639 32.8913 35.2263V35.3072C34.3294 36.608 36.0584 38.5874 36.0584 40.478C36.0584 43.1523 36.0583 45.4065 36.1471 47.2971C36.2037 49.4058 36.2766 51.0782 36.3574 52.3871C36.5917 56.2733 36.8421 57.0894 36.6805 57.0894C36.6805 57.0894 35.194 58.4305 31.2916 58.4063C29.2971 58.4065 27.3075 58.2062 25.3531 57.8084C24.3031 57.6134 23.2749 57.3157 22.2831 56.9197C22.3235 56.8874 22.3961 55.4168 22.4365 55.0129Z" fill="#DF2925" stroke="#231F20" stroke-width="0.25" stroke-miterlimit="10"/>
<path d="M32.9885 23.503C32.0294 23.3946 31.092 23.1413 30.2089 22.7517C29.1318 22.4301 27.9717 22.5433 26.9771 23.0668C26.9922 22.9587 27.0342 22.856 27.0986 22.7679C26.9709 22.8605 26.8792 22.9948 26.8398 23.1476C26.8398 23.1476 26.8398 23.1476 26.8398 23.1476C26.7019 23.113 26.5576 23.113 26.4197 23.1476C26.4197 23.1476 26.5327 23.1475 26.5731 23.2041C24.6744 24.1251 24.497 27.1389 25.1111 27.8337C25.7421 28.6832 26.2836 29.5956 26.727 30.5565C26.94 30.2025 27.0092 29.7803 26.9207 29.3768C26.7833 28.6335 27.4217 28.6335 28.2296 28.3023C29.0376 27.971 28.3589 27.0257 29.0376 26.4601C29.7163 25.8946 32.3259 26.2259 32.2694 25.7896C33.2389 25.523 32.9885 23.6 32.9885 23.503Z" fill="#FFCE7E" stroke="#231F20" stroke-width="0.25" stroke-miterlimit="10"/>
<path d="M26.0157 47.4506C26.7671 50.4804 34.9518 52.0478 36.8101 52.3629C36.7293 51.0541 36.6564 49.3816 36.5998 47.2728L26.0157 47.4506Z" fill="#BA0909" stroke="#231F20" stroke-width="0.25" stroke-miterlimit="10"/>
<path d="M27.8096 48.4363C27.0893 48.3485 26.3763 48.2081 25.6765 48.0162C25.3695 47.8626 23.9395 45.8346 24.8686 45.3175C25.7977 44.8005 28.3106 46.8769 28.3106 46.8769L27.8096 48.4363Z" fill="#FEEDE5" stroke="#231F20" stroke-width="0.25" stroke-miterlimit="10"/>
<path d="M38.3934 49.0342C38.3934 49.0342 31.6633 49.3977 27.1469 48.4363C27.1366 48.0241 27.2579 47.6193 27.4933 47.2808C27.7287 46.9423 28.0655 46.6876 28.4555 46.5537C28.4555 46.5537 35.4929 45.059 37.1815 45.4711C38.8701 45.8831 38.3934 49.0342 38.3934 49.0342Z" fill="#DF2925" stroke="#231F20" stroke-width="0.25" stroke-miterlimit="10"/>
<path d="M22.9374 43.7583C24.2278 45.4683 26.0833 46.6649 28.1732 47.1355C32.3584 45.2449 33.2065 38.7652 33.3519 35.2022C33.3519 35.2022 31.3724 42.3767 28.6739 44.8975C28.2549 45.3105 27.7242 45.5914 27.1471 45.7055C27.1471 45.7055 23.7454 44.744 23.0344 43.8391C22.9859 43.7852 22.9535 43.7583 22.9374 43.7583Z" fill="#BA0909" stroke="#231F20" stroke-width="0.25" stroke-miterlimit="10"/>
<path d="M24.3272 39.6862C24.3272 39.6862 26.4278 42.312 27.6801 39.969C27.6801 40.0094 26.3632 41.2456 24.3272 39.6862Z" fill="#BA0909" stroke="#231F20" stroke-width="0.25" stroke-miterlimit="10"/>
<path d="M160.991 30.0475H122.274C122.224 30.0498 122.175 30.0326 122.137 29.9994C122.1 29.9663 122.076 29.9197 122.072 29.8697V29.3123C122.078 29.2637 122.103 29.2193 122.14 29.1878C122.178 29.1564 122.225 29.1402 122.274 29.1426" fill="#C6C6C6"/>
<path d="M160.991 30.0475H122.274C122.224 30.0498 122.175 30.0326 122.137 29.9994C122.1 29.9663 122.076 29.9197 122.072 29.8697V29.3123C122.078 29.2637 122.103 29.2193 122.14 29.1878C122.178 29.1564 122.225 29.1402 122.274 29.1426" stroke="#231F20" stroke-width="0.1" stroke-miterlimit="10"/>
<path d="M140.138 24.6585V24.4646H138.846V24.6585C138.846 24.6914 138.833 24.7231 138.81 24.7471C138.788 24.7712 138.757 24.7857 138.724 24.7878V24.7878C138.692 24.7878 138.661 24.8005 138.638 24.8233C138.616 24.846 138.603 24.8768 138.603 24.909V28.9487C138.603 29.0044 138.625 29.0578 138.664 29.0972C138.704 29.1366 138.757 29.1587 138.813 29.1587H140.179C140.234 29.1587 140.287 29.1366 140.327 29.0972C140.366 29.0578 140.388 29.0044 140.388 28.9487V24.909C140.388 24.8768 140.376 24.846 140.353 24.8233C140.33 24.8005 140.299 24.7878 140.267 24.7878V24.7878C140.25 24.7878 140.234 24.7844 140.218 24.7779C140.202 24.7714 140.188 24.7619 140.176 24.7499C140.164 24.7379 140.154 24.7237 140.148 24.708C140.141 24.6923 140.138 24.6754 140.138 24.6585V24.6585Z" fill="#0A9D57" stroke="#231F20" stroke-width="0.1" stroke-miterlimit="10"/>
<path d="M138.813 29.0457C138.787 29.0457 138.763 29.0354 138.744 29.0173C138.726 28.9991 138.716 28.9744 138.716 28.9487V25.0705C138.719 25.0255 138.732 24.9818 138.755 24.9426C138.777 24.9034 138.808 24.8698 138.845 24.8443C138.882 24.8224 138.912 24.7917 138.933 24.7549C138.954 24.7182 138.966 24.6766 138.967 24.6342V24.5615H140.025V24.6342C140.026 24.6756 140.037 24.7162 140.057 24.7527C140.076 24.7891 140.104 24.8205 140.138 24.8443C140.177 24.8679 140.211 24.9009 140.235 24.9403C140.259 24.9798 140.273 25.0245 140.276 25.0705V28.9487C140.274 28.9738 140.263 28.9974 140.245 29.0152C140.227 29.033 140.204 29.0438 140.178 29.0457H138.813Z" fill="#0A9D57" stroke="#231F20" stroke-width="0.1" stroke-miterlimit="10"/>
<path d="M140.146 23.9717H138.829C138.7 23.9717 138.595 24.0766 138.595 24.206V24.2141C138.595 24.3435 138.7 24.4484 138.829 24.4484H140.146C140.276 24.4484 140.38 24.3435 140.38 24.2141V24.206C140.38 24.0766 140.276 23.9717 140.146 23.9717Z" fill="#6B6B75" stroke="#231F20" stroke-width="0.1" stroke-miterlimit="10"/>
<path d="M139.823 24.917H139.169C139.142 24.9168 139.115 24.9091 139.092 24.8949C139.07 24.8806 139.051 24.8603 139.039 24.8362L138.845 24.4403H140.138L139.952 24.8362C139.94 24.8603 139.922 24.8806 139.899 24.8949C139.876 24.9091 139.85 24.9168 139.823 24.917V24.917Z" fill="#898991" stroke="#231F20" stroke-width="0.1" stroke-miterlimit="10"/>
<path d="M140.38 25.5311H138.595V27.8741H140.38V25.5311Z" fill="#EFA184" stroke="#231F20" stroke-width="0.1" stroke-miterlimit="10"/>
<path d="M140.049 25.9108H138.643V26.0158H140.049V25.9108Z" fill="white" stroke="#231F20" stroke-width="0.1" stroke-miterlimit="10"/>
<path d="M139.815 26.3309H138.878V26.436H139.815V26.3309Z" fill="white" stroke="#231F20" stroke-width="0.1" stroke-miterlimit="10"/>
<path d="M139.815 26.7511H138.878V26.8561H139.815V26.7511Z" fill="white" stroke="#231F20" stroke-width="0.1" stroke-miterlimit="10"/>
<path opacity="0.5" d="M138.983 25.5311H138.595V27.8741H138.983V25.5311Z" fill="#ED8F72" stroke="#231F20" stroke-width="0.1" stroke-miterlimit="10"/>
<path opacity="0.5" d="M140.38 25.5311H139.993V27.8741H140.38V25.5311Z" fill="#ED8F72" stroke="#231F20" stroke-width="0.1" stroke-miterlimit="10"/>
<path d="M142.796 24.6585V24.4646H141.503V24.6585C141.503 24.6914 141.491 24.7231 141.468 24.7471C141.446 24.7712 141.415 24.7857 141.382 24.7878C141.366 24.7866 141.35 24.7888 141.334 24.7945C141.319 24.8001 141.305 24.809 141.294 24.8205C141.282 24.832 141.273 24.8459 141.268 24.8611C141.262 24.8764 141.26 24.8928 141.261 24.909V28.9487C141.261 29.0044 141.283 29.0578 141.322 29.0972C141.362 29.1366 141.415 29.1587 141.471 29.1587H142.837C142.864 29.1587 142.891 29.1533 142.917 29.1427C142.942 29.1321 142.965 29.1167 142.985 29.0972C143.004 29.0777 143.02 29.0546 143.031 29.0291C143.041 29.0036 143.046 28.9763 143.046 28.9487V24.909C143.046 24.8924 143.043 24.8759 143.037 24.8607C143.03 24.8454 143.02 24.8316 143.008 24.8202C142.996 24.8088 142.982 24.8002 142.966 24.7946C142.95 24.789 142.934 24.7867 142.917 24.7878V24.7878C142.884 24.7857 142.854 24.7712 142.831 24.7471C142.809 24.7231 142.796 24.6914 142.796 24.6585Z" fill="#0A9D57" stroke="#231F20" stroke-width="0.1" stroke-miterlimit="10"/>
<path d="M141.471 29.0457C141.446 29.0457 141.421 29.0354 141.403 29.0173C141.384 28.9991 141.374 28.9744 141.374 28.9487V25.0705C141.375 25.0251 141.388 24.9806 141.41 24.9411C141.433 24.9017 141.465 24.8683 141.503 24.8443C141.54 24.8224 141.57 24.7917 141.591 24.7549C141.612 24.7182 141.624 24.6766 141.625 24.6342V24.5615H142.707V24.6342C142.709 24.6756 142.719 24.7162 142.739 24.7527C142.758 24.7891 142.787 24.8205 142.821 24.8443C142.859 24.8683 142.891 24.9017 142.914 24.9411C142.936 24.9806 142.948 25.0251 142.95 25.0705V28.9487C142.95 28.9731 142.941 28.9965 142.924 29.0145C142.908 29.0325 142.885 29.0436 142.861 29.0457H141.471Z" fill="#0A9D57" stroke="#231F20" stroke-width="0.1" stroke-miterlimit="10"/>
<path d="M142.804 23.9717H141.487C141.358 23.9717 141.253 24.0766 141.253 24.206V24.2141C141.253 24.3435 141.358 24.4484 141.487 24.4484H142.804C142.934 24.4484 143.039 24.3435 143.039 24.2141V24.206C143.039 24.0766 142.934 23.9717 142.804 23.9717Z" fill="#6B6B75" stroke="#231F20" stroke-width="0.1" stroke-miterlimit="10"/>
<path d="M142.481 24.917H141.827C141.8 24.9168 141.773 24.9091 141.751 24.8949C141.728 24.8806 141.709 24.8603 141.697 24.8362L141.503 24.4403H142.796L142.61 24.8362C142.598 24.8598 142.579 24.8796 142.557 24.8938C142.534 24.908 142.508 24.9159 142.481 24.917V24.917Z" fill="#898991" stroke="#231F20" stroke-width="0.1" stroke-miterlimit="10"/>
<path d="M143.039 25.5311H141.253V27.8741H143.039V25.5311Z" fill="#EFA184" stroke="#231F20" stroke-width="0.1" stroke-miterlimit="10"/>
<path d="M142.707 25.9108H141.301V26.0158H142.707V25.9108Z" fill="white" stroke="#231F20" stroke-width="0.1" stroke-miterlimit="10"/>
<path d="M142.473 26.3309H141.536V26.436H142.473V26.3309Z" fill="white" stroke="#231F20" stroke-width="0.1" stroke-miterlimit="10"/>
<path d="M142.473 26.7511H141.536V26.8561H142.473V26.7511Z" fill="white" stroke="#231F20" stroke-width="0.1" stroke-miterlimit="10"/>
<path opacity="0.5" d="M141.641 25.5311H141.253V27.8741H141.641V25.5311Z" fill="#ED8F72" stroke="#231F20" stroke-width="0.1" stroke-miterlimit="10"/>
<path opacity="0.5" d="M143.039 25.5311H142.651V27.8741H143.039V25.5311Z" fill="#ED8F72" stroke="#231F20" stroke-width="0.1" stroke-miterlimit="10"/>
<path d="M151.167 27.9872C151.158 27.9829 151.148 27.9807 151.138 27.9807C151.129 27.9807 151.119 27.9829 151.11 27.9872C151.101 28.0105 151.101 28.0366 151.11 28.0599C151.11 28.1326 151.11 28.1649 151.191 28.1649C151.217 28.1718 151.245 28.1718 151.272 28.1649V28.2216C151.243 28.2299 151.212 28.2299 151.183 28.2216C151.167 28.2294 151.148 28.2335 151.13 28.2335C151.112 28.2335 151.094 28.2294 151.078 28.2216C151.063 28.1825 151.063 28.1394 151.078 28.1003C151.073 28.0736 151.073 28.0463 151.078 28.0196C151.087 27.9958 151.104 27.9758 151.126 27.963C151.152 27.9549 151.181 27.9549 151.207 27.963C151.236 27.9546 151.267 27.9546 151.296 27.963V28.0196H151.256L151.167 27.9872Z" fill="white" stroke="#231F20" stroke-width="0.1" stroke-miterlimit="10"/>
<path d="M152.79 29.1426H151.982C151.708 29.1401 151.444 29.0364 151.241 28.8516C151.039 28.6667 150.911 28.4137 150.884 28.1408L150.738 26.7188C150.722 26.5631 150.739 26.4058 150.788 26.2572C150.837 26.1086 150.917 25.972 151.022 25.8562C151.127 25.7404 151.255 25.6479 151.398 25.585C151.542 25.522 151.696 25.4899 151.853 25.4907H152.992C153.148 25.4908 153.303 25.5239 153.446 25.5879C153.588 25.652 153.715 25.7455 153.819 25.8622C153.923 25.979 154.001 26.1164 154.048 26.2654C154.094 26.4144 154.109 26.5717 154.091 26.7269L153.93 28.1488C153.903 28.4287 153.77 28.6879 153.558 28.8728C153.346 29.0576 153.071 29.1542 152.79 29.1426V29.1426Z" fill="#DF2925" stroke="#231F20" stroke-width="0.1" stroke-miterlimit="10"/>
<path d="M153.307 29.1426H152.5C152.225 29.1401 151.961 29.0364 151.759 28.8516C151.556 28.6667 151.428 28.4137 151.4 28.1408L151.255 26.7188C151.239 26.5631 151.256 26.4058 151.305 26.2572C151.354 26.1086 151.434 25.972 151.539 25.8562C151.644 25.7404 151.772 25.6479 151.916 25.585C152.059 25.522 152.214 25.4899 152.37 25.4907H153.509C153.666 25.4908 153.82 25.5239 153.962 25.5879C154.105 25.652 154.233 25.7455 154.336 25.8622C154.44 25.979 154.518 26.1164 154.565 26.2654C154.612 26.4144 154.626 26.5717 154.608 26.7269L154.446 28.1488C154.42 28.4287 154.287 28.6879 154.075 28.8728C153.863 29.0576 153.588 29.1542 153.307 29.1426V29.1426Z" fill="#EEF2F9" stroke="#231F20" stroke-width="0.1" stroke-miterlimit="10"/>
<path d="M152.402 28.8517C152.199 28.8523 152.003 28.7762 151.853 28.6384C151.703 28.5006 151.611 28.3113 151.595 28.1084L151.449 26.6865C151.436 26.5712 151.448 26.4546 151.484 26.3444C151.521 26.2343 151.58 26.1332 151.659 26.0482C151.736 25.9609 151.83 25.8913 151.936 25.8439C152.042 25.7965 152.157 25.7725 152.273 25.7735H153.42C153.537 25.7723 153.652 25.7963 153.758 25.8438C153.865 25.8913 153.959 25.9611 154.036 26.0485C154.112 26.136 154.169 26.2391 154.203 26.3505C154.236 26.462 154.245 26.5794 154.228 26.6945L154.067 28.1165C154.049 28.318 153.956 28.5052 153.806 28.6413C153.657 28.7775 153.461 28.8525 153.259 28.8517H152.402Z" fill="#ACBFE2" stroke="#231F20" stroke-width="0.1" stroke-miterlimit="10"/>
<path d="M152.467 28.8517C152.264 28.8523 152.067 28.7762 151.918 28.6384C151.768 28.5006 151.675 28.3113 151.659 28.1084L151.514 26.6865C151.501 26.5712 151.513 26.4546 151.549 26.3444C151.585 26.2343 151.645 26.1332 151.724 26.0482C151.801 25.9609 151.895 25.8913 152.001 25.8439C152.107 25.7965 152.222 25.7725 152.338 25.7735H153.485C153.601 25.7723 153.716 25.7963 153.823 25.8438C153.929 25.8913 154.024 25.9611 154.1 26.0485C154.177 26.136 154.234 26.2391 154.267 26.3505C154.301 26.462 154.309 26.5794 154.293 26.6945L154.132 28.1165C154.113 28.318 154.02 28.5052 153.87 28.6413C153.721 28.7775 153.526 28.8525 153.324 28.8517H152.467Z" fill="white" stroke="#231F20" stroke-width="0.1" stroke-miterlimit="10"/>
<path d="M154.019 26.4118V27.4055C154.019 27.4513 154.001 27.4953 153.969 27.5284C153.938 27.5615 153.895 27.5812 153.849 27.5832H151.959C151.935 27.5833 151.911 27.5784 151.888 27.5689C151.866 27.5595 151.847 27.5458 151.83 27.5284C151.813 27.511 151.8 27.4904 151.792 27.4679C151.783 27.4454 151.78 27.4214 151.781 27.3974V26.4037C151.781 26.36 151.798 26.318 151.828 26.2864C151.858 26.2548 151.899 26.236 151.942 26.2339H153.841C153.864 26.2339 153.887 26.2386 153.909 26.2475C153.931 26.2565 153.95 26.2695 153.967 26.286C153.983 26.3025 153.996 26.3221 154.005 26.3437C154.014 26.3653 154.019 26.3884 154.019 26.4118Z" fill="white" stroke="#231F20" stroke-width="0.1" stroke-miterlimit="10"/>
<path d="M153.809 27.5832H151.918C151.893 27.5842 151.869 27.5796 151.847 27.5698C151.824 27.56 151.805 27.5453 151.789 27.5267C151.757 27.4915 151.739 27.4451 151.74 27.3974V26.4037C151.744 26.359 151.762 26.3168 151.793 26.2844C151.824 26.252 151.865 26.2313 151.91 26.2258H153.809C153.857 26.2278 153.903 26.248 153.938 26.2825C153.97 26.3177 153.987 26.364 153.986 26.4118V26.4118V27.4055C153.986 27.4527 153.967 27.4978 153.934 27.5312C153.901 27.5645 153.856 27.5832 153.809 27.5832ZM151.91 26.2258C151.867 26.2297 151.827 26.2491 151.797 26.2803C151.767 26.3115 151.75 26.3525 151.748 26.3956V27.3893C151.746 27.4132 151.749 27.4373 151.757 27.4598C151.766 27.4822 151.779 27.5024 151.797 27.5186C151.812 27.5347 151.831 27.5473 151.852 27.5556C151.873 27.564 151.895 27.5679 151.918 27.5671H153.809C153.854 27.5671 153.897 27.5492 153.929 27.5174C153.96 27.4855 153.978 27.4424 153.978 27.3974V26.4037C153.979 26.3812 153.975 26.3588 153.967 26.3379C153.959 26.317 153.946 26.2982 153.93 26.2825C153.914 26.2653 153.896 26.2514 153.875 26.2417C153.854 26.232 153.832 26.2266 153.809 26.2258H151.91Z" fill="black" stroke="#231F20" stroke-width="0.1" stroke-miterlimit="10"/>
<path d="M154.059 26.4118V27.4055C154.059 27.45 154.043 27.4929 154.013 27.5258C153.983 27.5587 153.942 27.5792 153.898 27.5832H151.926C151.902 27.5833 151.878 27.5784 151.856 27.5689C151.834 27.5595 151.814 27.5458 151.798 27.5284C151.781 27.511 151.768 27.4904 151.759 27.4679C151.751 27.4454 151.747 27.4214 151.748 27.3974V26.4037C151.748 26.3565 151.767 26.3113 151.8 26.2779C151.834 26.2446 151.879 26.2258 151.926 26.2258H153.881C153.905 26.2258 153.929 26.2307 153.951 26.2401C153.973 26.2496 153.993 26.2634 154.01 26.2808C154.027 26.2982 154.039 26.3187 154.048 26.3412C154.056 26.3637 154.06 26.3877 154.059 26.4118V26.4118Z" fill="#4D5671" stroke="#231F20" stroke-width="0.1" stroke-miterlimit="10"/>
<path d="M154.019 26.4118V27.4055C154.019 27.4513 154.001 27.4953 153.969 27.5284C153.938 27.5615 153.895 27.5812 153.849 27.5832H151.886C151.862 27.5833 151.838 27.5784 151.816 27.5689C151.794 27.5595 151.774 27.5458 151.757 27.5284C151.74 27.511 151.728 27.4904 151.719 27.4679C151.711 27.4454 151.707 27.4214 151.708 27.3974V26.4037C151.708 26.3565 151.727 26.3113 151.76 26.2779C151.793 26.2446 151.838 26.2258 151.886 26.2258H153.841C153.865 26.2258 153.889 26.2307 153.911 26.2401C153.933 26.2496 153.953 26.2634 153.969 26.2808C153.986 26.2982 153.999 26.3187 154.008 26.3412C154.016 26.3637 154.02 26.3877 154.019 26.4118V26.4118Z" fill="white" stroke="#231F20" stroke-width="0.1" stroke-miterlimit="10"/>
<path d="M152.031 28.4477H151.934C151.889 28.4477 151.846 28.4299 151.814 28.3981C151.782 28.3663 151.764 28.3231 151.764 28.2781V27.9629C151.764 27.9417 151.768 27.9207 151.777 27.9011C151.785 27.8815 151.797 27.8637 151.812 27.8487C151.827 27.8337 151.845 27.8218 151.864 27.8137C151.884 27.8056 151.905 27.8014 151.926 27.8014H152.338C152.383 27.8014 152.426 27.8193 152.458 27.8511C152.49 27.8829 152.508 27.926 152.508 27.971C152.506 28.0968 152.455 28.2169 152.366 28.3059C152.277 28.3948 152.157 28.4456 152.031 28.4477V28.4477Z" fill="#677297" stroke="#231F20" stroke-width="0.1" stroke-miterlimit="10"/>
<path d="M153.615 28.4558H153.712C153.757 28.4558 153.8 28.438 153.832 28.4062C153.863 28.3744 153.881 28.3311 153.881 28.2861V27.9791C153.882 27.9572 153.879 27.9354 153.871 27.9148C153.864 27.8943 153.852 27.8755 153.837 27.8596C153.822 27.8437 153.804 27.8311 153.783 27.8225C153.763 27.8139 153.741 27.8095 153.72 27.8095H153.308C153.286 27.8084 153.264 27.8117 153.243 27.8193C153.223 27.827 153.204 27.8388 153.188 27.8539C153.172 27.869 153.16 27.8872 153.151 27.9073C153.142 27.9275 153.138 27.9491 153.138 27.971V27.971C153.137 28.0343 153.149 28.0972 153.172 28.156C153.195 28.2147 153.23 28.2682 153.275 28.3134C153.319 28.3585 153.372 28.3943 153.43 28.4188C153.489 28.4433 153.551 28.4558 153.615 28.4558Z" fill="#677297" stroke="#231F20" stroke-width="0.1" stroke-miterlimit="10"/>
<path d="M152.104 28.4477H151.999C151.955 28.4456 151.914 28.4269 151.884 28.3953C151.854 28.3637 151.837 28.3217 151.837 28.2781V27.9629C151.837 27.941 151.841 27.9194 151.85 27.8992C151.859 27.8791 151.872 27.8609 151.887 27.8458C151.903 27.8307 151.922 27.8189 151.942 27.8113C151.963 27.8036 151.985 27.8003 152.007 27.8014H152.419C152.441 27.8014 152.463 27.8058 152.483 27.8144C152.503 27.823 152.521 27.8356 152.536 27.8515C152.551 27.8674 152.563 27.8862 152.57 27.9067C152.578 27.9273 152.582 27.9491 152.581 27.971C152.578 28.0968 152.527 28.2169 152.439 28.3059C152.35 28.3948 152.229 28.4456 152.104 28.4477V28.4477Z" fill="#DF2925" stroke="#231F20" stroke-width="0.1" stroke-miterlimit="10"/>
<path d="M153.679 28.4558H153.784C153.806 28.4558 153.828 28.4514 153.848 28.4428C153.868 28.4341 153.886 28.4215 153.901 28.4057C153.917 28.3898 153.929 28.371 153.936 28.3504C153.944 28.3299 153.947 28.308 153.946 28.2861V27.9791C153.946 27.9341 153.928 27.891 153.896 27.8592C153.864 27.8274 153.821 27.8095 153.776 27.8095H153.364C153.32 27.8094 153.279 27.8261 153.247 27.8562C153.215 27.8863 153.197 27.9274 153.194 27.971V27.971C153.193 28.035 153.205 28.0985 153.229 28.1578C153.253 28.2171 153.289 28.271 153.334 28.3162C153.379 28.3615 153.433 28.3972 153.492 28.4212C153.552 28.4451 153.615 28.4569 153.679 28.4558V28.4558Z" fill="#ACBFE2" stroke="#231F20" stroke-width="0.1" stroke-miterlimit="10"/>
<path d="M152.144 28.2861C152.093 28.2861 152.043 28.2657 152.007 28.2293C151.971 28.1929 151.95 28.1436 151.95 28.0922C151.95 28.0671 151.955 28.0423 151.965 28.0192C151.975 27.9962 151.989 27.9753 152.007 27.9579C152.025 27.9405 152.047 27.927 152.07 27.9181C152.094 27.9093 152.119 27.9053 152.144 27.9064C152.194 27.9064 152.241 27.926 152.276 27.9609C152.31 27.9957 152.33 28.0429 152.33 28.0922C152.331 28.1173 152.327 28.1423 152.318 28.1658C152.309 28.1893 152.296 28.2108 152.278 28.2289C152.261 28.247 152.24 28.2614 152.217 28.2712C152.194 28.2811 152.169 28.2861 152.144 28.2861V28.2861ZM152.144 27.9388C152.112 27.9372 152.079 27.9454 152.052 27.9625C152.024 27.9797 152.002 28.0048 151.988 28.0346C151.975 28.0645 151.971 28.0976 151.977 28.1297C151.983 28.1618 151.999 28.1912 152.022 28.2143C152.045 28.2374 152.075 28.253 152.107 28.259C152.139 28.265 152.172 28.2611 152.202 28.2479C152.232 28.2346 152.257 28.2127 152.274 28.1849C152.291 28.1572 152.299 28.1248 152.298 28.0922C152.296 28.0521 152.279 28.0142 152.25 27.9858C152.222 27.9574 152.184 27.9407 152.144 27.9388Z" fill="white" stroke="#231F20" stroke-width="0.1" stroke-miterlimit="10"/>
<path d="M152.144 28.2134V27.9953V28.2134Z" fill="white" stroke="#231F20" stroke-width="0.1" stroke-miterlimit="10"/>
<path d="M153.607 27.9872C153.597 27.9822 153.586 27.9796 153.574 27.9796C153.563 27.9796 153.552 27.9822 153.542 27.9872C153.537 28.0111 153.537 28.0359 153.542 28.0599C153.542 28.1326 153.542 28.1649 153.623 28.1649C153.649 28.1711 153.677 28.1711 153.703 28.1649V28.2215C153.674 28.229 153.644 28.229 153.615 28.2215C153.599 28.23 153.581 28.2344 153.562 28.2344C153.544 28.2344 153.526 28.23 153.51 28.2215C153.481 28.1879 153.466 28.1444 153.469 28.1003C153.461 28.074 153.461 28.0458 153.469 28.0195C153.473 28.0071 153.479 27.9957 153.487 27.9859C153.496 27.9761 153.506 27.9683 153.518 27.9629C153.544 27.9548 153.572 27.9548 153.599 27.9629H153.687V28.0195L153.607 27.9872Z" fill="white" stroke="#231F20" stroke-width="0.1" stroke-miterlimit="10"/>
<path d="M155.223 29.1426H154.415C154.14 29.1401 153.876 29.0364 153.674 28.8516C153.471 28.6667 153.343 28.4137 153.316 28.1408L153.17 26.7188C153.153 26.5636 153.169 26.4065 153.217 26.2579C153.265 26.1093 153.344 25.9725 153.448 25.8565C153.553 25.7405 153.681 25.6479 153.824 25.5849C153.966 25.5218 154.121 25.4898 154.277 25.4907H155.425C155.581 25.4908 155.735 25.5239 155.877 25.5879C156.02 25.652 156.147 25.7455 156.251 25.8622C156.355 25.979 156.433 26.1164 156.48 26.2654C156.527 26.4144 156.541 26.5717 156.523 26.7269L156.361 28.1488C156.333 28.428 156.199 28.686 155.988 28.8705C155.776 29.055 155.503 29.1523 155.223 29.1426V29.1426Z" fill="#DF2925" stroke="#231F20" stroke-width="0.1" stroke-miterlimit="10"/>
<path d="M155.739 29.1426H154.931C154.656 29.1403 154.391 29.0369 154.187 28.8522C153.983 28.6675 153.854 28.4144 153.824 28.1408L153.687 26.7188C153.67 26.5636 153.686 26.4065 153.734 26.2579C153.782 26.1093 153.861 25.9725 153.965 25.8565C154.07 25.7405 154.197 25.6479 154.34 25.5849C154.483 25.5218 154.638 25.4898 154.794 25.4907H155.941C156.097 25.4908 156.252 25.5239 156.395 25.5879C156.537 25.652 156.664 25.7455 156.768 25.8622C156.872 25.979 156.95 26.1164 156.997 26.2654C157.043 26.4144 157.059 26.5717 157.04 26.7269L156.879 28.1488C156.85 28.428 156.716 28.686 156.505 28.8705C156.293 29.055 156.02 29.1523 155.739 29.1426V29.1426Z" fill="#EEF2F9" stroke="#231F20" stroke-width="0.1" stroke-miterlimit="10"/>
<path d="M154.827 28.8517C154.623 28.8523 154.427 28.7762 154.277 28.6384C154.127 28.5006 154.035 28.3113 154.019 28.1084L153.873 26.6864C153.858 26.5719 153.868 26.4554 153.902 26.3449C153.936 26.2344 153.992 26.1325 154.069 26.046C154.146 25.9594 154.24 25.8903 154.346 25.8433C154.451 25.7963 154.565 25.7725 154.681 25.7735H155.82C155.936 25.7725 156.051 25.7965 156.157 25.8439C156.263 25.8913 156.358 25.9609 156.435 26.0481C156.513 26.1348 156.571 26.2376 156.606 26.3491C156.641 26.4607 156.652 26.5786 156.637 26.6945L156.483 28.1165C156.464 28.318 156.371 28.5052 156.222 28.6413C156.072 28.7774 155.877 28.8525 155.675 28.8517H154.827Z" fill="#ACBFE2" stroke="#231F20" stroke-width="0.1" stroke-miterlimit="10"/>
<path d="M154.907 28.8517C154.704 28.8523 154.507 28.7762 154.358 28.6384C154.208 28.5006 154.115 28.3113 154.099 28.1084L153.954 26.6864C153.941 26.5712 153.953 26.4545 153.989 26.3444C154.025 26.2343 154.085 26.1332 154.164 26.0481C154.241 25.9609 154.335 25.8913 154.441 25.8439C154.547 25.7965 154.662 25.7725 154.778 25.7735H155.925C156.04 25.7736 156.153 25.7982 156.258 25.8456C156.362 25.8929 156.455 25.962 156.531 26.0481C156.611 26.1342 156.671 26.2365 156.707 26.3482C156.744 26.4598 156.755 26.578 156.741 26.6945L156.579 28.1165C156.561 28.318 156.468 28.5052 156.319 28.6413C156.169 28.7774 155.974 28.8525 155.772 28.8517H154.907Z" fill="white" stroke="#231F20" stroke-width="0.1" stroke-miterlimit="10"/>
<path d="M156.443 26.4118V27.4055C156.443 27.4513 156.425 27.4953 156.393 27.5284C156.362 27.5615 156.319 27.5812 156.273 27.5832H154.382C154.358 27.5833 154.334 27.5784 154.312 27.5689C154.29 27.5595 154.27 27.5458 154.254 27.5284C154.237 27.511 154.224 27.4904 154.216 27.4679C154.207 27.4454 154.203 27.4214 154.205 27.3974V26.4037C154.207 26.3593 154.225 26.3172 154.257 26.2858C154.288 26.2544 154.33 26.2359 154.374 26.2339H156.273C156.296 26.2339 156.318 26.2386 156.34 26.2476C156.361 26.2567 156.38 26.2699 156.396 26.2865C156.412 26.3031 156.424 26.3228 156.432 26.3443C156.44 26.3658 156.444 26.3888 156.443 26.4118V26.4118Z" fill="white" stroke="#231F20" stroke-width="0.1" stroke-miterlimit="10"/>
<path d="M156.248 27.5832H154.358C154.309 27.5812 154.263 27.5611 154.229 27.5266C154.194 27.4922 154.174 27.4461 154.172 27.3974V26.4037C154.174 26.3585 154.192 26.3155 154.223 26.2828C154.255 26.25 154.297 26.2297 154.342 26.2258H156.24C156.263 26.2266 156.286 26.232 156.307 26.2417C156.327 26.2514 156.346 26.2653 156.361 26.2825C156.38 26.2983 156.395 26.3182 156.405 26.3405C156.415 26.3629 156.419 26.3873 156.418 26.4118V26.4118V27.4055C156.419 27.4285 156.416 27.4513 156.408 27.4729C156.4 27.4944 156.387 27.5141 156.371 27.5308C156.355 27.5474 156.336 27.5606 156.315 27.5696C156.294 27.5787 156.271 27.5833 156.248 27.5832V27.5832ZM154.35 26.2258C154.307 26.2297 154.267 26.2491 154.237 26.2803C154.207 26.3115 154.19 26.3525 154.188 26.3956V27.3893C154.187 27.413 154.191 27.4366 154.199 27.4587C154.208 27.4808 154.221 27.5008 154.238 27.5176C154.255 27.5343 154.275 27.5474 154.297 27.5559C154.319 27.5644 154.342 27.5682 154.366 27.5671H156.257C156.3 27.565 156.341 27.5462 156.371 27.5146C156.401 27.483 156.418 27.4411 156.418 27.3974V26.4037C156.419 26.3812 156.415 26.3588 156.407 26.3379C156.399 26.317 156.386 26.2982 156.37 26.2825C156.338 26.2492 156.294 26.229 156.248 26.2258H154.35Z" fill="black" stroke="#231F20" stroke-width="0.1" stroke-miterlimit="10"/>
<path d="M156.499 26.4118V27.4055C156.499 27.4513 156.482 27.4953 156.45 27.5284C156.418 27.5615 156.375 27.5812 156.329 27.5832H154.366C154.342 27.5833 154.318 27.5784 154.296 27.5689C154.274 27.5595 154.254 27.5458 154.238 27.5284C154.221 27.511 154.208 27.4904 154.199 27.4679C154.191 27.4454 154.187 27.4214 154.188 27.3974V26.4037C154.188 26.3565 154.207 26.3113 154.24 26.2779C154.274 26.2446 154.319 26.2258 154.366 26.2258H156.321C156.345 26.2258 156.369 26.2307 156.391 26.2401C156.413 26.2496 156.433 26.2634 156.45 26.2808C156.467 26.2982 156.479 26.3187 156.488 26.3412C156.496 26.3637 156.5 26.3877 156.499 26.4118V26.4118Z" fill="#4D5671" stroke="#231F20" stroke-width="0.1" stroke-miterlimit="10"/>
<path d="M156.443 26.4118V27.4055C156.443 27.4513 156.425 27.4953 156.393 27.5284C156.362 27.5615 156.319 27.5812 156.273 27.5832H154.309C154.285 27.5833 154.262 27.5784 154.24 27.5689C154.217 27.5595 154.197 27.5458 154.181 27.5284C154.164 27.511 154.151 27.4905 154.143 27.4679C154.135 27.4454 154.131 27.4214 154.132 27.3974V26.4037C154.132 26.3565 154.151 26.3113 154.184 26.2779C154.217 26.2446 154.262 26.2258 154.309 26.2258H156.273C156.297 26.2257 156.32 26.2306 156.342 26.2401C156.364 26.2497 156.383 26.2637 156.399 26.2812C156.415 26.2987 156.427 26.3193 156.435 26.3418C156.442 26.3643 156.445 26.3882 156.443 26.4118V26.4118Z" fill="white" stroke="#231F20" stroke-width="0.1" stroke-miterlimit="10"/>
<path d="M154.471 28.4477H154.374C154.329 28.4477 154.286 28.4299 154.254 28.3981C154.222 28.3663 154.204 28.3231 154.204 28.2781V27.9629C154.206 27.9194 154.225 27.8782 154.257 27.8481C154.288 27.818 154.33 27.8013 154.374 27.8014H154.786C154.831 27.8014 154.874 27.8193 154.906 27.8511C154.938 27.8829 154.956 27.926 154.956 27.971V27.971C154.952 28.0975 154.899 28.2176 154.809 28.3064C154.718 28.3951 154.598 28.4457 154.471 28.4477V28.4477Z" fill="#677297" stroke="#231F20" stroke-width="0.1" stroke-miterlimit="10"/>
<path d="M156.046 28.4558H156.152C156.197 28.4558 156.24 28.438 156.272 28.4062C156.303 28.3743 156.321 28.3311 156.321 28.2861V27.9791C156.321 27.9341 156.303 27.891 156.272 27.8592C156.24 27.8274 156.197 27.8095 156.152 27.8095H155.739C155.696 27.8113 155.655 27.8286 155.624 27.8583C155.593 27.888 155.574 27.9281 155.57 27.971V27.971C155.57 28.0982 155.62 28.2203 155.709 28.311C155.798 28.4017 155.919 28.4537 156.046 28.4558V28.4558Z" fill="#677297" stroke="#231F20" stroke-width="0.1" stroke-miterlimit="10"/>
<path d="M154.536 28.4477H154.439C154.394 28.4477 154.351 28.4299 154.319 28.3981C154.287 28.3663 154.269 28.3231 154.269 28.2781V27.9629C154.269 27.9417 154.273 27.9207 154.281 27.9011C154.289 27.8815 154.301 27.8637 154.316 27.8487C154.331 27.8337 154.349 27.8218 154.369 27.8137C154.388 27.8056 154.409 27.8014 154.43 27.8014H154.843C154.888 27.8014 154.931 27.8193 154.963 27.8511C154.994 27.8829 155.012 27.926 155.012 27.971V27.971C155.01 28.0968 154.959 28.2169 154.87 28.3059C154.781 28.3948 154.662 28.4456 154.536 28.4477V28.4477Z" fill="#DF2925" stroke="#231F20" stroke-width="0.1" stroke-miterlimit="10"/>
<path d="M156.119 28.4558H156.216C156.261 28.4558 156.305 28.438 156.336 28.4062C156.368 28.3744 156.386 28.3311 156.386 28.2861V27.9791C156.387 27.9572 156.384 27.9354 156.376 27.9148C156.369 27.8943 156.357 27.8755 156.341 27.8596C156.326 27.8437 156.308 27.8311 156.288 27.8225C156.268 27.8139 156.246 27.8095 156.224 27.8095H155.812C155.791 27.8084 155.769 27.8117 155.748 27.8193C155.728 27.827 155.709 27.8388 155.693 27.8539C155.677 27.869 155.664 27.8872 155.655 27.9073C155.647 27.9275 155.642 27.9491 155.642 27.971V27.971C155.641 28.0343 155.653 28.0972 155.677 28.156C155.7 28.2147 155.735 28.2682 155.779 28.3134C155.824 28.3585 155.877 28.3943 155.935 28.4188C155.993 28.4433 156.056 28.4558 156.119 28.4558Z" fill="#DF2925" stroke="#231F20" stroke-width="0.1" stroke-miterlimit="10"/>
<path d="M154.576 28.2861C154.551 28.2861 154.526 28.2811 154.503 28.2712C154.48 28.2614 154.459 28.247 154.442 28.2289C154.425 28.2108 154.411 28.1893 154.402 28.1658C154.393 28.1423 154.389 28.1173 154.39 28.0922C154.39 28.0429 154.41 27.9957 154.445 27.9609C154.48 27.926 154.527 27.9064 154.576 27.9064C154.601 27.9053 154.626 27.9093 154.65 27.9181C154.673 27.927 154.695 27.9405 154.713 27.9579C154.731 27.9753 154.745 27.9962 154.755 28.0192C154.765 28.0423 154.77 28.0671 154.77 28.0922C154.77 28.1436 154.75 28.1929 154.713 28.2293C154.677 28.2657 154.628 28.2861 154.576 28.2861ZM154.576 27.9388C154.535 27.9388 154.496 27.9548 154.468 27.9836C154.439 28.0124 154.423 28.0515 154.423 28.0922C154.422 28.1131 154.425 28.1339 154.432 28.1535C154.439 28.173 154.45 28.1909 154.464 28.206C154.479 28.2212 154.496 28.2332 154.515 28.2414C154.535 28.2497 154.555 28.2538 154.576 28.2538C154.6 28.2592 154.624 28.2592 154.648 28.2538C154.672 28.2484 154.694 28.2377 154.713 28.2226C154.732 28.2075 154.747 28.1883 154.758 28.1664C154.768 28.1445 154.774 28.1205 154.774 28.0963C154.774 28.072 154.768 28.048 154.758 28.0261C154.747 28.0043 154.732 27.9851 154.713 27.9699C154.694 27.9548 154.672 27.9442 154.648 27.9388C154.624 27.9334 154.6 27.9334 154.576 27.9388V27.9388Z" fill="white" stroke="#231F20" stroke-width="0.1" stroke-miterlimit="10"/>
<path d="M154.576 28.2134V27.9953V28.2134Z" fill="white" stroke="#231F20" stroke-width="0.1" stroke-miterlimit="10"/>
<path d="M156.038 27.9872C156.029 27.9829 156.02 27.9807 156.01 27.9807C156 27.9807 155.991 27.9829 155.982 27.9872C155.982 27.9872 155.982 27.9872 155.982 28.0599C155.982 28.1326 155.982 28.1649 156.054 28.1649C156.081 28.1718 156.109 28.1718 156.135 28.1649V28.2215C156.109 28.2292 156.081 28.2292 156.054 28.2215C156.038 28.23 156.02 28.2344 156.002 28.2344C155.984 28.2344 155.966 28.23 155.949 28.2215C155.921 28.1879 155.906 28.1444 155.909 28.1003C155.904 28.0736 155.904 28.0463 155.909 28.0195C155.921 27.9952 155.941 27.9753 155.966 27.9629C155.989 27.9549 156.015 27.9549 156.038 27.9629H156.135V28.0195L156.038 27.9872Z" fill="white" stroke="#231F20" stroke-width="0.1" stroke-miterlimit="10"/>
<path d="M148.807 26.2744H145.123C144.69 26.2744 144.339 26.6252 144.339 27.0581V28.3427C144.339 28.7755 144.69 29.1264 145.123 29.1264H148.807C149.24 29.1264 149.591 28.7755 149.591 28.3427V27.0581C149.591 26.6252 149.24 26.2744 148.807 26.2744Z" fill="#DF2925" stroke="#231F20" stroke-width="0.1" stroke-miterlimit="10"/>
<path d="M148.258 26.2744H144.574C144.141 26.2744 143.79 26.6252 143.79 27.0581V28.3427C143.79 28.7755 144.141 29.1264 144.574 29.1264H148.258C148.691 29.1264 149.042 28.7755 149.042 28.3427V27.0581C149.042 26.6252 148.691 26.2744 148.258 26.2744Z" fill="#DF2925" stroke="#231F20" stroke-width="0.1" stroke-miterlimit="10"/>
<path d="M148.29 26.9692H144.557C144.491 26.9692 144.436 27.0235 144.436 27.0904C144.436 27.1573 144.491 27.2116 144.557 27.2116H148.29C148.357 27.2116 148.411 27.1573 148.411 27.0904C148.411 27.0235 148.357 26.9692 148.29 26.9692Z" fill="white" stroke="#231F20" stroke-width="0.1" stroke-miterlimit="10"/>
<path d="M148.29 27.5752H144.557C144.491 27.5752 144.436 27.6294 144.436 27.6964C144.436 27.7633 144.491 27.8175 144.557 27.8175H148.29C148.357 27.8175 148.411 27.7633 148.411 27.6964C148.411 27.6294 148.357 27.5752 148.29 27.5752Z" fill="white" stroke="#231F20" stroke-width="0.1" stroke-miterlimit="10"/>
<path d="M148.29 28.1811H144.557C144.491 28.1811 144.436 28.2354 144.436 28.3023C144.436 28.3692 144.491 28.4235 144.557 28.4235H148.29C148.357 28.4235 148.411 28.3692 148.411 28.3023C148.411 28.2354 148.357 28.1811 148.29 28.1811Z" fill="white" stroke="#231F20" stroke-width="0.1" stroke-miterlimit="10"/>
<path d="M136.939 27.0177H139.144C139.239 27.0177 139.329 27.0551 139.396 27.1218C139.462 27.1885 139.5 27.2789 139.5 27.3732V28.6336C139.5 28.7278 139.462 28.8183 139.396 28.8849C139.329 28.9516 139.239 28.9891 139.144 28.9891H136.939V27.0177Z" fill="white" stroke="#231F20" stroke-width="0.1" stroke-miterlimit="10"/>
<path d="M137.593 27.4136C137.593 27.4843 137.565 27.5521 137.515 27.6021C137.465 27.6521 137.397 27.6802 137.326 27.6802C137.256 27.6802 137.188 27.6521 137.138 27.6021C137.088 27.5521 137.06 27.4843 137.06 27.4136C137.06 27.3429 137.088 27.275 137.138 27.225C137.188 27.175 137.256 27.1469 137.326 27.1469C137.397 27.1469 137.465 27.175 137.515 27.225C137.565 27.275 137.593 27.3429 137.593 27.4136Z" fill="#0A9D57" stroke="#231F20" stroke-width="0.1" stroke-miterlimit="10"/>
<path d="M138.393 27.4136C138.393 27.4843 138.365 27.5521 138.315 27.6021C138.265 27.6521 138.197 27.6802 138.126 27.6802C138.056 27.6802 137.988 27.6521 137.938 27.6021C137.888 27.5521 137.86 27.4843 137.86 27.4136C137.86 27.3429 137.888 27.275 137.938 27.225C137.988 27.175 138.056 27.1469 138.126 27.1469C138.197 27.1469 138.265 27.175 138.315 27.225C138.365 27.275 138.393 27.3429 138.393 27.4136Z" fill="#0A9D57" stroke="#231F20" stroke-width="0.1" stroke-miterlimit="10"/>
<path d="M139.185 27.4136C139.185 27.4843 139.157 27.5521 139.107 27.6021C139.057 27.6521 138.989 27.6802 138.918 27.6802C138.847 27.6802 138.779 27.6521 138.729 27.6021C138.679 27.5521 138.651 27.4843 138.651 27.4136C138.651 27.3429 138.679 27.275 138.729 27.225C138.779 27.175 138.847 27.1469 138.918 27.1469C138.989 27.1469 139.057 27.175 139.107 27.225C139.157 27.275 139.185 27.3429 139.185 27.4136Z" fill="#0A9D57" stroke="#231F20" stroke-width="0.1" stroke-miterlimit="10"/>
<path d="M137.326 28.8598C137.474 28.8598 137.593 28.7404 137.593 28.5932C137.593 28.4459 137.474 28.3265 137.326 28.3265C137.179 28.3265 137.06 28.4459 137.06 28.5932C137.06 28.7404 137.179 28.8598 137.326 28.8598Z" fill="#0A9D57" stroke="#231F20" stroke-width="0.1" stroke-miterlimit="10"/>
<path d="M138.118 28.8598C138.265 28.8598 138.385 28.7404 138.385 28.5932C138.385 28.4459 138.265 28.3265 138.118 28.3265C137.971 28.3265 137.852 28.4459 137.852 28.5932C137.852 28.7404 137.971 28.8598 138.118 28.8598Z" fill="#0A9D57" stroke="#231F20" stroke-width="0.1" stroke-miterlimit="10"/>
<path d="M138.91 28.8598C139.057 28.8598 139.177 28.7404 139.177 28.5932C139.177 28.4459 139.057 28.3265 138.91 28.3265C138.763 28.3265 138.643 28.4459 138.643 28.5932C138.643 28.7404 138.763 28.8598 138.91 28.8598Z" fill="#0A9D57" stroke="#231F20" stroke-width="0.1" stroke-miterlimit="10"/>
<path d="M139.362 28.0115H136.938H139.362Z" fill="#6A7FA2" stroke="#231F20" stroke-width="0.1" stroke-miterlimit="10"/>
<path d="M138.522 28.7547V27.2762V28.7547C138.538 28.7547 138.522 28.7547 138.522 28.7547Z" fill="#6A7FA2"/>
<path d="M138.522 28.7547V27.2762V28.7547ZM138.522 28.7547C138.522 28.7547 138.538 28.7547 138.522 28.7547Z" stroke="#231F20" stroke-width="0.1" stroke-miterlimit="10"/>
<path d="M137.722 28.7547V27.2762V28.7547Z" fill="#6A7FA2" stroke="#231F20" stroke-width="0.1" stroke-miterlimit="10"/>
<path d="M133.4 24.513V28.6982C133.4 28.8311 133.347 28.9584 133.253 29.0524C133.159 29.1463 133.032 29.1991 132.899 29.1991H129.942C129.851 29.1986 129.761 29.1735 129.683 29.1266C129.605 29.0797 129.541 29.0127 129.497 28.9325C129.463 28.8592 129.443 28.7794 129.441 28.6982V24.513C129.441 23.2849 129.837 23.3819 129.837 22.2508H133.012C132.998 22.6248 133.067 22.9972 133.214 23.3415C133.353 23.7159 133.416 24.114 133.4 24.513V24.513Z" fill="#0A9D57" stroke="#231F20" stroke-width="0.1" stroke-miterlimit="10"/>
<path d="M129.942 28.9729C129.869 28.9729 129.799 28.9439 129.747 28.8924C129.696 28.8409 129.667 28.7711 129.667 28.6982V24.4888C129.657 24.1192 129.72 23.7512 129.853 23.4061C129.972 23.1102 130.041 22.796 130.055 22.4771H132.786C132.8 22.796 132.868 23.1102 132.988 23.4061C133.126 23.7582 133.189 24.1352 133.174 24.513V28.6982C133.174 28.7711 133.145 28.8409 133.093 28.8924C133.042 28.9439 132.971 28.9729 132.899 28.9729H129.942Z" fill="#0A9D57" stroke="#231F20" stroke-width="0.1" stroke-miterlimit="10"/>
<path d="M132.955 21.6852H129.877C129.721 21.6852 129.594 21.8118 129.594 21.968C129.594 22.1242 129.721 22.2508 129.877 22.2508H132.955C133.112 22.2508 133.238 22.1242 133.238 21.968C133.238 21.8118 133.112 21.6852 132.955 21.6852Z" fill="#6C7294" stroke="#231F20" stroke-width="0.1" stroke-miterlimit="10"/>
<g opacity="0.25">
<path d="M131.84 22.2346L129.497 28.9164C129.463 28.843 129.443 28.7632 129.441 28.682V27.2681L131.21 22.2346H131.84Z" fill="#0A9D57" stroke="#231F20" stroke-width="0.1" stroke-miterlimit="10"/>
<path d="M133.4 24.513V25.6522L132.156 29.1991H130.426L132.85 22.2508H132.988C132.974 22.6248 133.043 22.9972 133.19 23.3415C133.337 23.7142 133.408 24.1124 133.4 24.513Z" fill="#0A9D57" stroke="#231F20" stroke-width="0.1" stroke-miterlimit="10"/>
</g>
<path d="M133.238 24.6342H129.594V28.4477H133.238V24.6342Z" fill="#FDFEFF" stroke="#231F20" stroke-width="0.1" stroke-miterlimit="10"/>
<path d="M132.915 26.5329H129.99C129.955 26.5329 129.926 26.56 129.926 26.5935C129.926 26.627 129.955 26.6541 129.99 26.6541H132.915C132.951 26.6541 132.98 26.627 132.98 26.5935C132.98 26.56 132.951 26.5329 132.915 26.5329Z" fill="#6C7294" stroke="#231F20" stroke-width="0.1" stroke-miterlimit="10"/>
<path d="M132.915 26.9611H129.99C129.955 26.9611 129.926 26.9883 129.926 27.0217C129.926 27.0552 129.955 27.0823 129.99 27.0823H132.915C132.951 27.0823 132.98 27.0552 132.98 27.0217C132.98 26.9883 132.951 26.9611 132.915 26.9611Z" fill="#6C7294" stroke="#231F20" stroke-width="0.1" stroke-miterlimit="10"/>
<path d="M132.915 27.3813H129.99C129.955 27.3813 129.926 27.4084 129.926 27.4419C129.926 27.4753 129.955 27.5024 129.99 27.5024H132.915C132.951 27.5024 132.98 27.4753 132.98 27.4419C132.98 27.4084 132.951 27.3813 132.915 27.3813Z" fill="#6C7294" stroke="#231F20" stroke-width="0.1" stroke-miterlimit="10"/>
<path d="M132.915 27.8095H129.99C129.955 27.8095 129.926 27.8366 129.926 27.8701C129.926 27.9035 129.955 27.9307 129.99 27.9307H132.915C132.951 27.9307 132.98 27.9035 132.98 27.8701C132.98 27.8366 132.951 27.8095 132.915 27.8095Z" fill="#6C7294" stroke="#231F20" stroke-width="0.1" stroke-miterlimit="10"/>
<path d="M126.605 25.7896V29.0214C126.603 29.0543 126.588 29.0851 126.564 29.1076C126.54 29.1301 126.509 29.1427 126.476 29.1426H124.601C124.585 29.1426 124.57 29.1394 124.555 29.1333C124.54 29.1273 124.527 29.1184 124.516 29.1071C124.504 29.0959 124.496 29.0825 124.49 29.0678C124.483 29.0531 124.48 29.0373 124.48 29.0214V25.7896C124.479 25.7401 124.488 25.691 124.506 25.6449C124.524 25.5989 124.552 25.5569 124.586 25.5216C124.621 25.4862 124.662 25.4581 124.708 25.4389C124.753 25.4197 124.802 25.4099 124.852 25.4099C124.889 25.41 124.925 25.3957 124.952 25.3702C124.979 25.3446 124.995 25.3097 124.997 25.2725V25.0625H126.088V25.2725C126.09 25.3083 126.105 25.3422 126.13 25.3675C126.156 25.3929 126.19 25.408 126.225 25.4099C126.326 25.4099 126.422 25.4499 126.494 25.5211C126.565 25.5923 126.605 25.6889 126.605 25.7896Z" fill="#0A9D57" stroke="#231F20" stroke-width="0.1" stroke-miterlimit="10"/>
<path d="M126.217 24.4161H124.86C124.824 24.4161 124.795 24.445 124.795 24.4807V25.0059C124.795 25.0416 124.824 25.0705 124.86 25.0705H126.217C126.253 25.0705 126.282 25.0416 126.282 25.0059V24.4807C126.282 24.445 126.253 24.4161 126.217 24.4161Z" fill="#DEE1F1" stroke="#231F20" stroke-width="0.1" stroke-miterlimit="10"/>
<path d="M125.167 24.4161V25.0624H124.868C124.859 25.0636 124.849 25.0628 124.841 25.0601C124.832 25.0574 124.824 25.0528 124.817 25.0467C124.81 25.0405 124.804 25.033 124.801 25.0246C124.797 25.0162 124.795 25.0071 124.795 24.9978V24.4807C124.795 24.4715 124.797 24.4623 124.801 24.4539C124.804 24.4455 124.81 24.438 124.817 24.4319C124.824 24.4258 124.832 24.4212 124.841 24.4185C124.849 24.4158 124.859 24.4149 124.868 24.4161H125.167Z" fill="#F2F3F9" stroke="#231F20" stroke-width="0.1" stroke-miterlimit="10"/>
<path d="M125.918 24.416V25.0624H126.217C126.234 25.0624 126.251 25.0556 126.263 25.0435C126.275 25.0314 126.282 25.015 126.282 24.9978V24.4807C126.282 24.4636 126.275 24.4471 126.263 24.435C126.251 24.4229 126.234 24.416 126.217 24.416H125.918Z" fill="#F2F3F9" stroke="#231F20" stroke-width="0.1" stroke-miterlimit="10"/>
<path d="M125.304 25.0625V29.1587H124.601C124.585 29.1587 124.57 29.1556 124.555 29.1495C124.54 29.1434 124.527 29.1345 124.516 29.1233C124.504 29.112 124.496 29.0986 124.49 29.0839C124.483 29.0692 124.48 29.0535 124.48 29.0376V25.8058C124.479 25.7563 124.488 25.707 124.506 25.661C124.524 25.615 124.552 25.5731 124.586 25.5377C124.621 25.5024 124.662 25.4743 124.708 25.4551C124.753 25.4359 124.802 25.426 124.852 25.426C124.889 25.426 124.925 25.4119 124.952 25.3863C124.979 25.3608 124.995 25.3259 124.997 25.2887V25.0786L125.304 25.0625Z" fill="#0A9D57" stroke="#231F20" stroke-width="0.1" stroke-miterlimit="10"/>
<path d="M125.781 25.0625V29.1587H126.476C126.509 29.1588 126.54 29.1463 126.564 29.1238C126.588 29.1013 126.603 29.0704 126.605 29.0376V25.8058C126.603 25.7057 126.562 25.6103 126.492 25.5395C126.421 25.4687 126.325 25.4281 126.225 25.426C126.19 25.4241 126.156 25.409 126.13 25.3837C126.105 25.3583 126.09 25.3245 126.088 25.2887V25.0786L125.781 25.0625Z" fill="#0A9D57" stroke="#231F20" stroke-width="0.1" stroke-miterlimit="10"/>
<path d="M125.781 25.0625H125.231V29.1587H125.781V25.0625Z" fill="#0A9D57" stroke="#231F20" stroke-width="0.1" stroke-miterlimit="10"/>
<path opacity="0.25" d="M126.088 25.0625H124.989V25.1594H126.088V25.0625Z" fill="#9E5134" stroke="#231F20" stroke-width="0.1" stroke-miterlimit="10"/>
<path d="M126.249 26.0966H124.763C124.642 26.0966 124.545 26.1943 124.545 26.3148V27.8175C124.545 27.938 124.642 28.0357 124.763 28.0357H126.249C126.37 28.0357 126.468 27.938 126.468 27.8175V26.3148C126.468 26.1943 126.37 26.0966 126.249 26.0966Z" fill="#FAFAFD" stroke="#231F20" stroke-width="0.1" stroke-miterlimit="10"/>
<path d="M126.088 26.5249H124.933C124.918 26.5249 124.903 26.5189 124.893 26.5083C124.882 26.4977 124.876 26.4833 124.876 26.4683C124.876 26.4533 124.882 26.4389 124.893 26.4283C124.903 26.4177 124.918 26.4117 124.933 26.4117H126.088C126.103 26.4117 126.117 26.4177 126.128 26.4283C126.138 26.4389 126.144 26.4533 126.144 26.4683C126.144 26.4833 126.138 26.4977 126.128 26.5083C126.117 26.5189 126.103 26.5249 126.088 26.5249Z" fill="#DEE1F1" stroke="#231F20" stroke-width="0.1" stroke-miterlimit="10"/>
<path d="M126.088 27.0823H124.933C124.918 27.0823 124.903 27.0763 124.893 27.0657C124.882 27.0551 124.876 27.0408 124.876 27.0258V27.0258C124.876 27.0108 124.882 26.9964 124.893 26.9857C124.903 26.9751 124.918 26.9692 124.933 26.9692H126.088C126.103 26.9692 126.117 26.9751 126.128 26.9857C126.138 26.9964 126.144 27.0108 126.144 27.0258V27.0258C126.144 27.0408 126.138 27.0551 126.128 27.0657C126.117 27.0763 126.103 27.0823 126.088 27.0823V27.0823Z" fill="#DEE1F1" stroke="#231F20" stroke-width="0.1" stroke-miterlimit="10"/>
<path d="M126.088 27.6075H124.933C124.919 27.6076 124.905 27.6028 124.895 27.5939C124.885 27.585 124.878 27.5725 124.876 27.559V27.559C124.876 27.544 124.882 27.5296 124.893 27.519C124.903 27.5084 124.918 27.5025 124.933 27.5025H126.088C126.103 27.5025 126.117 27.5084 126.128 27.519C126.138 27.5296 126.144 27.544 126.144 27.559V27.559C126.142 27.5725 126.136 27.585 126.125 27.5939C126.115 27.6028 126.102 27.6076 126.088 27.6075V27.6075Z" fill="#DEE1F1" stroke="#231F20" stroke-width="0.1" stroke-miterlimit="10"/>
</g>
<defs>
<clipPath id="clip0_10_865">
<rect width="188.534" height="96" fill="white"/>
</clipPath>
</defs>
</svg>
