<svg xmlns="http://www.w3.org/2000/svg" viewBox="0 0 120 98.3"><defs><style>.cls-1{isolation:isolate;}.cls-2{fill:#c62c38;}.cls-3{fill:#69101c;}.cls-4{fill:#ec8a8c;}.cls-5{fill:#c95944;}.cls-13,.cls-16,.cls-6{mix-blend-mode:multiply;}.cls-6{opacity:0.5;}.cls-7{fill:#dc4f5b;}.cls-8{fill:#9d132a;}.cls-9{fill:#b70b0b;}.cls-10{fill:#df2926;}.cls-11{fill:#a81829;}.cls-12{fill:#e5bba5;}.cls-13{opacity:0.3;}.cls-14{fill:#e27650;}.cls-15{mix-blend-mode:darken;opacity:0.7;}.cls-17{mix-blend-mode:screen;}.cls-18{fill:#d0022b;}.cls-19{fill:#75021d;}.cls-20{fill:#e22b37;}.cls-21{fill:#0b9d58;}.cls-22{fill:#03753c;}.cls-23{fill:#1c8ad2;}.cls-24{fill:#fff;}</style></defs><g class="cls-1"><g id="Ñëîé_1" data-name="Ñëîé 1"><path d="M1020.05,252.25v.23a.88.88,0,0,1-.06.33.92.92,0,0,1-.19.28.79.79,0,0,1-.61.27,1.15,1.15,0,0,1-.31,0,.8.8,0,0,1-.29-.15.89.89,0,0,1-.21-.28,1,1,0,0,1-.08-.42v-2.09a.93.93,0,0,1,.06-.34,1.12,1.12,0,0,1,.18-.28.84.84,0,0,1,.28-.18,1,1,0,0,1,.36-.07.84.84,0,0,1,.62.25,1,1,0,0,1,.19.29,1.1,1.1,0,0,1,.06.37v.21h-.54v-.18a.45.45,0,0,0-.09-.28.29.29,0,0,0-.24-.12.28.28,0,0,0-.27.13.61.61,0,0,0-.07.32v1.93a.61.61,0,0,0,.07.28.3.3,0,0,0,.26.11l.12,0a.3.3,0,0,0,.11-.06.36.36,0,0,0,.08-.12.5.5,0,0,0,0-.19v-.18Z" transform="translate(-1014.07 -242.18)"/><path d="M1020.46,250.44a1.07,1.07,0,0,1,.08-.41,1.27,1.27,0,0,1,.21-.29,1.22,1.22,0,0,1,.29-.17.94.94,0,0,1,.66,0,1.05,1.05,0,0,1,.29.17.86.86,0,0,1,.21.29,1.07,1.07,0,0,1,.08.41v2a1,1,0,0,1-.08.41.78.78,0,0,1-.21.29,1.05,1.05,0,0,1-.29.17.94.94,0,0,1-.66,0,1.22,1.22,0,0,1-.29-.17,1.08,1.08,0,0,1-.21-.29,1,1,0,0,1-.08-.41Zm.54,2a.35.35,0,0,0,.11.29.37.37,0,0,0,.26.1.36.36,0,0,0,.37-.39v-2a.37.37,0,0,0-.11-.29.4.4,0,0,0-.26-.1.42.42,0,0,0-.26.1.37.37,0,0,0-.11.29Z" transform="translate(-1014.07 -242.18)"/><path d="M1022.76,253.33v-3.79h.87c.64,0,1,.38,1,1.11a1.35,1.35,0,0,1-.11.57.78.78,0,0,1-.36.38l.58,1.73h-.57l-.51-1.62h-.32v1.62Zm.54-3.28v1.18h.31a.53.53,0,0,0,.23,0,.28.28,0,0,0,.13-.11.48.48,0,0,0,.06-.18,2.09,2.09,0,0,0,0-.26,1.93,1.93,0,0,0,0-.25.44.44,0,0,0-.07-.19.41.41,0,0,0-.38-.15Z" transform="translate(-1014.07 -242.18)"/><path d="M1025.28,253.33v-3.28h-.63v-.51h1.8v.51h-.63v3.28Z" transform="translate(-1014.07 -242.18)"/><path d="M1026.69,253.33v-3.79h1.61v.51h-1.07v1.11h.94v.51h-.94v1.12h1.07v.54Z" transform="translate(-1014.07 -242.18)"/><path d="M1028.39,253.33l.76-2-.7-1.81h.57l.41,1.13.41-1.13h.58l-.72,1.81.78,2h-.58l-.47-1.28-.47,1.28Z" transform="translate(-1014.07 -242.18)"/><path d="M1015.12,275V271.2h.52l.7,2h0l.69-2h.53V275H1017v-2.3h0l-.53,1.62h-.27l-.54-1.62h0V275Z" transform="translate(-1014.07 -242.18)"/><path d="M1018.08,275V271.2h1.61v.51h-1.07v1.11h.93v.51h-.93v1.11h1.07V275Z" transform="translate(-1014.07 -242.18)"/><path d="M1020,275V271.2h.8a.92.92,0,0,1,.71.26,1,1,0,0,1,.25.72V274a1,1,0,0,1-.26.78,1,1,0,0,1-.74.26Zm.54-3.28v2.77h.25a.4.4,0,0,0,.33-.12.56.56,0,0,0,.09-.36v-1.82a.55.55,0,0,0-.09-.34.37.37,0,0,0-.33-.13Z" transform="translate(-1014.07 -242.18)"/><path d="M1024.06,271.2v2.94a.8.8,0,0,1-.07.34.87.87,0,0,1-.19.28.92.92,0,0,1-.28.19.77.77,0,0,1-.34.07.8.8,0,0,1-.34-.07,1,1,0,0,1-.27-.19.9.9,0,0,1-.2-.28,1,1,0,0,1-.06-.34V271.2h.54v2.88a.41.41,0,0,0,.09.3.37.37,0,0,0,.24.1.33.33,0,0,0,.24-.1.41.41,0,0,0,.1-.3V271.2Z" transform="translate(-1014.07 -242.18)"/><path d="M1024.57,275V271.2h.54v3.24h1.07V275Z" transform="translate(-1014.07 -242.18)"/><path d="M1026.53,275V271.2h.55v3.24h1.07V275Z" transform="translate(-1014.07 -242.18)"/><path d="M1028.26,275l.84-3.79h.45l.85,3.79h-.55l-.16-.82H1029l-.16.82Zm1.33-1.33-.26-1.37h0l-.27,1.37Z" transform="translate(-1014.07 -242.18)"/><path d="M1019.94,284.39V280.6h.87q1,0,1,1.11a1.53,1.53,0,0,1-.1.57.85.85,0,0,1-.37.38l.59,1.73h-.58l-.5-1.62h-.33v1.62Zm.54-3.28v1.18h.31a.5.5,0,0,0,.23,0,.24.24,0,0,0,.13-.11.48.48,0,0,0,.06-.18,2,2,0,0,0,0-.26,1.81,1.81,0,0,0,0-.25.53.53,0,0,0-.06-.19.45.45,0,0,0-.39-.15Z" transform="translate(-1014.07 -242.18)"/><path d="M1022.2,284.39V280.6h1.62v.51h-1.07v1.11h.93v.51h-.93v1.11h1.07v.55Z" transform="translate(-1014.07 -242.18)"/><path d="M1024.15,284.39V280.6h.52l.82,2.28h0V280.6h.54v3.79h-.51l-.83-2.28h0v2.28Z" transform="translate(-1014.07 -242.18)"/><path d="M1026.28,284.39l.85-3.79h.45l.85,3.79h-.55l-.16-.82H1027l-.16.82Zm1.34-1.33-.26-1.37h0l-.27,1.37Z" transform="translate(-1014.07 -242.18)"/><path d="M1028.69,284.39V280.6h.54v3.24h1.08v.55Z" transform="translate(-1014.07 -242.18)"/><path d="M1018.41,289.68v.24a1,1,0,0,1-.06.33,1.07,1.07,0,0,1-.19.28,1,1,0,0,1-.27.19.8.8,0,0,1-.34.07,1.1,1.1,0,0,1-.31,0,.8.8,0,0,1-.29-.15,1,1,0,0,1-.21-.27,1.06,1.06,0,0,1-.08-.43v-2.08a1,1,0,0,1,.06-.35.71.71,0,0,1,.18-.27.92.92,0,0,1,.28-.19,1,1,0,0,1,.36-.06.8.8,0,0,1,.62.25.86.86,0,0,1,.19.29,1,1,0,0,1,.06.36v.21h-.54v-.18a.45.45,0,0,0-.09-.28.31.31,0,0,0-.25-.11.27.27,0,0,0-.26.12.63.63,0,0,0-.07.32v1.93a.51.51,0,0,0,.07.28.3.3,0,0,0,.26.11l.11,0,.12-.06a.36.36,0,0,0,.08-.12.48.48,0,0,0,0-.18v-.19Z" transform="translate(-1014.07 -242.18)"/><path d="M1018.82,287.87a1,1,0,0,1,.08-.4.81.81,0,0,1,.21-.3,1.05,1.05,0,0,1,.29-.17,1.11,1.11,0,0,1,.66,0,1.22,1.22,0,0,1,.29.17,1,1,0,0,1,.21.3,1,1,0,0,1,.08.4v2a1,1,0,0,1-.08.41,1,1,0,0,1-.21.28.79.79,0,0,1-.29.17.94.94,0,0,1-.66,0,.72.72,0,0,1-.29-.17.83.83,0,0,1-.21-.28,1,1,0,0,1-.08-.41Zm.54,2a.37.37,0,0,0,.11.29.39.39,0,0,0,.26.09.41.41,0,0,0,.26-.09.37.37,0,0,0,.11-.29v-2a.37.37,0,0,0-.11-.29.41.41,0,0,0-.26-.09.39.39,0,0,0-.26.09.37.37,0,0,0-.11.29Z" transform="translate(-1014.07 -242.18)"/><path d="M1021.12,290.76V287h.54v3.24h1.07v.54Z" transform="translate(-1014.07 -242.18)"/><path d="M1024.83,287v2.93a.93.93,0,0,1-.06.34.92.92,0,0,1-.19.28.87.87,0,0,1-.28.19.8.8,0,0,1-.34.07.77.77,0,0,1-.34-.07.87.87,0,0,1-.28-.19.92.92,0,0,1-.19-.28.77.77,0,0,1-.07-.34V287h.54v2.88a.4.4,0,0,0,.1.3.32.32,0,0,0,.24.09.36.36,0,0,0,.24-.09.45.45,0,0,0,.09-.3V287Z" transform="translate(-1014.07 -242.18)"/><path d="M1025.34,290.76V287h.52l.7,2h0l.69-2h.53v3.78h-.54v-2.3h0l-.54,1.63h-.27l-.53-1.63h0v2.3Z" transform="translate(-1014.07 -242.18)"/><path d="M1028.28,290.76V287h.52l.82,2.28h0V287h.54v3.78h-.51l-.83-2.27h0v2.27Z" transform="translate(-1014.07 -242.18)"/><path d="M1014.33,319.12v-3.78h.54v3.78Z" transform="translate(-1014.07 -242.18)"/><path d="M1015.37,319.12v-3.78h.52l.82,2.28h0v-2.28h.54v3.78h-.51l-.82-2.27h0v2.27Z" transform="translate(-1014.07 -242.18)"/><path d="M1018.11,319.12v-3.27h-.63v-.51h1.8v.51h-.63v3.27Z" transform="translate(-1014.07 -242.18)"/><path d="M1019.52,319.12v-3.78h1.61v.51h-1.07V317h.93v.51h-.93v1.11h1.07v.54Z" transform="translate(-1014.07 -242.18)"/><path d="M1021.48,319.12v-3.78h.87q1,0,1,1.11a1.42,1.42,0,0,1-.1.57.84.84,0,0,1-.37.38l.59,1.72h-.58l-.5-1.61H1022v1.61Zm.54-3.27V317h.31a.5.5,0,0,0,.23,0,.3.3,0,0,0,.13-.12.42.42,0,0,0,.06-.18,1.81,1.81,0,0,0,0-.25,1.69,1.69,0,0,0,0-.25.47.47,0,0,0-.06-.19.44.44,0,0,0-.38-.15Z" transform="translate(-1014.07 -242.18)"/><path d="M1023.75,319.12v-3.78h.54v3.24h1.07v.54Z" transform="translate(-1014.07 -242.18)"/><path d="M1025.68,316.23a1,1,0,0,1,.08-.4.7.7,0,0,1,.21-.29.72.72,0,0,1,.29-.17,1,1,0,0,1,.33-.06.87.87,0,0,1,.32.06.75.75,0,0,1,.3.17.94.94,0,0,1,.21.29,1,1,0,0,1,.08.4v2a.86.86,0,0,1-.29.69.92.92,0,0,1-.3.18,1.13,1.13,0,0,1-.32,0,1.26,1.26,0,0,1-.33,0,.88.88,0,0,1-.29-.18.74.74,0,0,1-.21-.28,1,1,0,0,1-.08-.41Zm.54,2a.37.37,0,0,0,.11.29.39.39,0,0,0,.26.09.41.41,0,0,0,.26-.09.37.37,0,0,0,.1-.29v-2a.37.37,0,0,0-.1-.29.41.41,0,0,0-.26-.09.39.39,0,0,0-.26.09.37.37,0,0,0-.11.29Z" transform="translate(-1014.07 -242.18)"/><path d="M1028,319.12v-3.78h.8a1.15,1.15,0,0,1,.44.08.81.81,0,0,1,.3.21.85.85,0,0,1,.17.31,1.36,1.36,0,0,1,0,.36v.13a.93.93,0,0,1,0,.26.54.54,0,0,1-.07.19.73.73,0,0,1-.27.25.66.66,0,0,1,.28.27,1.08,1.08,0,0,1,.09.48v.21a1.13,1.13,0,0,1-.24.77,1,1,0,0,1-.78.26Zm.55-3.27v1h.24a.4.4,0,0,0,.36-.13.68.68,0,0,0,.1-.4.57.57,0,0,0-.11-.38.44.44,0,0,0-.37-.13Zm0,1.52v1.21h.23a.6.6,0,0,0,.26-.05.29.29,0,0,0,.14-.13.59.59,0,0,0,.06-.2c0-.08,0-.17,0-.26a1.81,1.81,0,0,0,0-.25.48.48,0,0,0-.06-.18.42.42,0,0,0-.15-.11.75.75,0,0,0-.23,0Z" transform="translate(-1014.07 -242.18)"/><path d="M1032,315.34v2.93a.74.74,0,0,1-.07.34.75.75,0,0,1-.18.28.91.91,0,0,1-.29.19.77.77,0,0,1-.34.07.72.72,0,0,1-.33-.07.9.9,0,0,1-.47-.47.74.74,0,0,1-.07-.34v-2.93h.54v2.88a.45.45,0,0,0,.09.3.36.36,0,0,0,.24.09.32.32,0,0,0,.24-.09.4.4,0,0,0,.1-.3v-2.88Z" transform="translate(-1014.07 -242.18)"/><path d="M1032.5,319.12v-3.78h.54v3.24h1.08v.54Z" transform="translate(-1014.07 -242.18)"/><path d="M1034.22,319.12l.85-3.78h.45l.84,3.78h-.54l-.16-.81h-.74l-.16.81Zm1.34-1.32-.27-1.37h0l-.26,1.37Z" transform="translate(-1014.07 -242.18)"/><path d="M1036.63,319.12v-3.78h.87q1,0,1,1.11a1.41,1.41,0,0,1-.11.57.87.87,0,0,1-.36.38l.58,1.72H1038l-.51-1.61h-.32v1.61Zm.54-3.27V317h.31a.53.53,0,0,0,.23,0,.37.37,0,0,0,.13-.12.42.42,0,0,0,.06-.18,1.93,1.93,0,0,0,0-.25,1.85,1.85,0,0,0,0-.25.36.36,0,0,0-.07-.19.41.41,0,0,0-.38-.15Z" transform="translate(-1014.07 -242.18)"/><path d="M1014.07,325.5l.84-3.79h.45l.85,3.79h-.54l-.16-.82h-.74l-.16.82Zm1.33-1.33-.26-1.37h0l-.27,1.37Z" transform="translate(-1014.07 -242.18)"/><path d="M1016.47,325.5v-3.79h.87q1,0,1,1.11a1.35,1.35,0,0,1-.1.57.8.8,0,0,1-.37.38l.59,1.73h-.58l-.5-1.62H1017v1.62Zm.54-3.28v1.18h.31a.5.5,0,0,0,.23,0,.24.24,0,0,0,.13-.11.48.48,0,0,0,.06-.18,2,2,0,0,0,0-.26,1.81,1.81,0,0,0,0-.25.6.6,0,0,0-.06-.19.44.44,0,0,0-.38-.15Z" transform="translate(-1014.07 -242.18)"/><path d="M1019,325.5v-3.28h-.63v-.51h1.79v.51h-.62v3.28Z" transform="translate(-1014.07 -242.18)"/><path d="M1020.4,325.5v-3.79H1022v.51H1021v1.11h.93v.51H1021V325H1022v.55Z" transform="translate(-1014.07 -242.18)"/><path d="M1022.37,325.5v-3.79h.87q1,0,1,1.11a1.35,1.35,0,0,1-.11.57.82.82,0,0,1-.36.38l.58,1.73h-.57l-.5-1.62h-.33v1.62Zm.54-3.28v1.18h.31a.5.5,0,0,0,.23,0,.28.28,0,0,0,.13-.11.48.48,0,0,0,.06-.18,2.09,2.09,0,0,0,0-.26,1.93,1.93,0,0,0,0-.25.6.6,0,0,0-.06-.19.45.45,0,0,0-.39-.15Z" transform="translate(-1014.07 -242.18)"/><path d="M1024.65,325.5v-3.79h.54v3.79Z" transform="translate(-1014.07 -242.18)"/><path d="M1025.68,322.61a1,1,0,0,1,.08-.41,1.06,1.06,0,0,1,.22-.29.92.92,0,0,1,.29-.17.87.87,0,0,1,.32-.06,1,1,0,0,1,.33.06.92.92,0,0,1,.29.17.86.86,0,0,1,.21.29,1,1,0,0,1,.08.41v2a1,1,0,0,1-.08.41.67.67,0,0,1-.21.28.79.79,0,0,1-.29.18,1,1,0,0,1-.33.06.87.87,0,0,1-.32-.06,1,1,0,0,1-.51-.46,1,1,0,0,1-.08-.41Zm.55,2a.33.33,0,0,0,.11.29.33.33,0,0,0,.25.1.36.36,0,0,0,.37-.39v-2a.37.37,0,0,0-.11-.29.4.4,0,0,0-.26-.1.37.37,0,0,0-.25.1.34.34,0,0,0-.11.29Z" transform="translate(-1014.07 -242.18)"/><path d="M1028,325.5v-3.79h.54V325h1.07v.55Z" transform="translate(-1014.07 -242.18)"/><path d="M1030,325.5v-3.79h1.61v.51h-1.07v1.11h.93v.51h-.93V325h1.07v.55Z" transform="translate(-1014.07 -242.18)"/><path d="M1033.66,322.8h-.54v-.12a.57.57,0,0,0-.09-.32.31.31,0,0,0-.29-.14.3.3,0,0,0-.18,0,.36.36,0,0,0-.11.1.44.44,0,0,0-.06.16,1.1,1.1,0,0,0,0,.18c0,.08,0,.14,0,.19a.5.5,0,0,0,0,.13.28.28,0,0,0,.09.1l.17.09.42.16a1.3,1.3,0,0,1,.29.16.87.87,0,0,1,.17.22.82.82,0,0,1,.08.29,2.12,2.12,0,0,1,0,.37,2,2,0,0,1,0,.44,1.13,1.13,0,0,1-.16.35.66.66,0,0,1-.29.23,1,1,0,0,1-.44.09.94.94,0,0,1-.37-.07,1,1,0,0,1-.29-.19.81.81,0,0,1-.19-.29.78.78,0,0,1-.08-.35v-.2h.55v.17a.5.5,0,0,0,.08.27.35.35,0,0,0,.3.12.56.56,0,0,0,.21,0,.23.23,0,0,0,.12-.12.35.35,0,0,0,0-.18,1.55,1.55,0,0,0,0-.23,1.63,1.63,0,0,0,0-.24.46.46,0,0,0,0-.15.32.32,0,0,0-.1-.1.79.79,0,0,0-.16-.08l-.39-.16a.84.84,0,0,1-.47-.38,1.29,1.29,0,0,1-.12-.59,1.4,1.4,0,0,1,.06-.41,1.09,1.09,0,0,1,.17-.32.82.82,0,0,1,.29-.23,1,1,0,0,1,.41-.08.87.87,0,0,1,.37.08,1,1,0,0,1,.29.19.84.84,0,0,1,.24.59Z" transform="translate(-1014.07 -242.18)"/><path d="M1034.81,325.5l.85-3.79h.45l.84,3.79h-.54l-.16-.82h-.74l-.16.82Zm1.34-1.33-.27-1.37h0l-.26,1.37Z" transform="translate(-1014.07 -242.18)"/><path d="M1037.2,325.5v-3.79h.52l.82,2.28h0v-2.28h.54v3.79h-.51l-.83-2.28h0v2.28Z" transform="translate(-1014.07 -242.18)"/><path d="M1039.58,325.5v-3.79h.8a.94.94,0,0,1,.71.26,1,1,0,0,1,.24.72v1.77a1,1,0,0,1-.26.78,1,1,0,0,1-.74.26Zm.54-3.28V325h.25a.38.38,0,0,0,.32-.12.5.5,0,0,0,.1-.36v-1.82a.55.55,0,0,0-.09-.34.39.39,0,0,0-.33-.13Z" transform="translate(-1014.07 -242.18)"/><path d="M1016.15,328.09l-.78,3.78h-.48l-.77-3.78h.58l.43,2.64h0l.43-2.64Z" transform="translate(-1014.07 -242.18)"/><path d="M1016.47,331.87v-3.78h1.62v.51H1017v1.11h.94v.51H1017v1.11h1.08v.54Z" transform="translate(-1014.07 -242.18)"/><path d="M1018.42,331.87v-3.78h.52l.82,2.28h0v-2.28h.54v3.78h-.51l-.83-2.27h0v2.27Z" transform="translate(-1014.07 -242.18)"/><path d="M1022.55,328.09V331a.74.74,0,0,1-.07.34.75.75,0,0,1-.18.28.93.93,0,0,1-.63.26.72.72,0,0,1-.33-.07.67.67,0,0,1-.28-.19.77.77,0,0,1-.19-.28.74.74,0,0,1-.07-.34v-2.93h.54V331a.45.45,0,0,0,.09.3.36.36,0,0,0,.24.09.32.32,0,0,0,.24-.09.4.4,0,0,0,.1-.3v-2.88Z" transform="translate(-1014.07 -242.18)"/><path d="M1023.06,331.87v-3.78h.54v3.24h1.07v.54Z" transform="translate(-1014.07 -242.18)"/><path d="M1025,331.87v-3.78h1.61v.51h-1.07v1.11h.93v.51h-.93v1.11h1.07v.54Z" transform="translate(-1014.07 -242.18)"/><path d="M1028.74,329.18h-.54v-.12a.55.55,0,0,0-.09-.32.29.29,0,0,0-.29-.14.34.34,0,0,0-.18,0,.38.38,0,0,0-.11.11.39.39,0,0,0-.06.15,1.11,1.11,0,0,0,0,.19c0,.07,0,.13,0,.18a.57.57,0,0,0,0,.14.28.28,0,0,0,.09.1.91.91,0,0,0,.17.08l.42.17a1,1,0,0,1,.29.16.68.68,0,0,1,.17.21,1,1,0,0,1,.08.29,2.88,2.88,0,0,1,0,.82,1.25,1.25,0,0,1-.16.35.85.85,0,0,1-.29.23,1,1,0,0,1-.44.08.94.94,0,0,1-.37-.07.7.7,0,0,1-.29-.19.77.77,0,0,1-.19-.28.85.85,0,0,1-.08-.35v-.21h.55V331a.5.5,0,0,0,.08.27.35.35,0,0,0,.3.12.41.41,0,0,0,.21,0,.19.19,0,0,0,.12-.11.35.35,0,0,0,0-.18,1.69,1.69,0,0,0,0-.23,1.85,1.85,0,0,0,0-.25.54.54,0,0,0,0-.15l-.1-.1a.84.84,0,0,0-.16-.07l-.39-.16a.93.93,0,0,1-.47-.38,1.48,1.48,0,0,1-.06-1,.88.88,0,0,1,.18-.33.69.69,0,0,1,.28-.22,1,1,0,0,1,.41-.08.87.87,0,0,1,.37.07,1,1,0,0,1,.29.2.82.82,0,0,1,.24.58Z" transform="translate(-1014.07 -242.18)"/><path d="M1060.91,327.7v-3.78h.55v3.78Z" transform="translate(-1014.07 -242.18)"/><path d="M1062,327.7v-3.78h.52l.82,2.28h0v-2.28h.54v3.78h-.51l-.83-2.27h0v2.27Z" transform="translate(-1014.07 -242.18)"/><path d="M1064.7,327.7v-3.27h-.63v-.51h1.8v.51h-.63v3.27Z" transform="translate(-1014.07 -242.18)"/><path d="M1066.1,327.7v-3.78h1.62v.51h-1.07v1.11h.93v.51h-.93v1.11h1.07v.54Z" transform="translate(-1014.07 -242.18)"/><path d="M1068.07,327.7v-3.78h.87q1,0,1,1.11a1.41,1.41,0,0,1-.11.57.82.82,0,0,1-.36.38l.58,1.72h-.57l-.5-1.61h-.33v1.61Zm.54-3.27v1.18h.31a.5.5,0,0,0,.23,0,.35.35,0,0,0,.13-.11.47.47,0,0,0,.06-.19,1.69,1.69,0,0,0,0-.25,1.81,1.81,0,0,0,0-.25.53.53,0,0,0-.06-.19.45.45,0,0,0-.39-.15Z" transform="translate(-1014.07 -242.18)"/><path d="M1070.33,327.7v-3.78h.54v3.24H1072v.54Z" transform="translate(-1014.07 -242.18)"/><path d="M1072.27,324.81a.87.87,0,0,1,.08-.4.78.78,0,0,1,.21-.29.77.77,0,0,1,.29-.17.91.91,0,0,1,.32-.06,1,1,0,0,1,.33.06.9.9,0,0,1,.3.17.88.88,0,0,1,.2.29.87.87,0,0,1,.08.4v2a.86.86,0,0,1-.08.41.84.84,0,0,1-.2.28.92.92,0,0,1-.3.18,1,1,0,0,1-.33.06.91.91,0,0,1-.32-.06.79.79,0,0,1-.29-.18.74.74,0,0,1-.21-.28.86.86,0,0,1-.08-.41Zm.54,2a.34.34,0,0,0,.11.29.38.38,0,0,0,.25.09.39.39,0,0,0,.26-.09.34.34,0,0,0,.11-.29v-2a.35.35,0,0,0-.11-.29.39.39,0,0,0-.26-.09.38.38,0,0,0-.25.09.35.35,0,0,0-.11.29Z" transform="translate(-1014.07 -242.18)"/><path d="M1074.56,327.7v-3.78h.79a1.21,1.21,0,0,1,.45.08.81.81,0,0,1,.3.21.83.83,0,0,1,.16.31,1,1,0,0,1,0,.36V325a1.06,1.06,0,0,1,0,.26.75.75,0,0,1-.07.18.71.71,0,0,1-.28.26.59.59,0,0,1,.28.26,1.08,1.08,0,0,1,.09.48v.21a1.11,1.11,0,0,1-.24.77,1,1,0,0,1-.77.26Zm.54-3.27v1h.25a.4.4,0,0,0,.36-.13.74.74,0,0,0,.09-.4.58.58,0,0,0-.1-.38.44.44,0,0,0-.37-.13Zm0,1.52v1.21h.24a.44.44,0,0,0,.25-.05.32.32,0,0,0,.15-.13.42.42,0,0,0,0-.2,2.09,2.09,0,0,0,0-.26,2,2,0,0,0,0-.25.36.36,0,0,0-.07-.18.31.31,0,0,0-.14-.11.78.78,0,0,0-.24,0Z" transform="translate(-1014.07 -242.18)"/><path d="M1078.58,323.92v2.93a.81.81,0,0,1-.07.35,1,1,0,0,1-.19.28.92.92,0,0,1-.28.19.86.86,0,0,1-.68,0,.9.9,0,0,1-.47-.47,1,1,0,0,1-.07-.35v-2.93h.55v2.88a.43.43,0,0,0,.09.3.36.36,0,0,0,.24.09.32.32,0,0,0,.24-.09.43.43,0,0,0,.1-.3v-2.88Z" transform="translate(-1014.07 -242.18)"/><path d="M1079.09,327.7v-3.78h.54v3.24h1.07v.54Z" transform="translate(-1014.07 -242.18)"/><path d="M1080.81,327.7l.84-3.78h.46l.84,3.78h-.54l-.16-.81h-.74l-.16.81Zm1.34-1.32-.27-1.37h0l-.26,1.37Z" transform="translate(-1014.07 -242.18)"/><path d="M1083.22,327.7v-3.78h.87c.63,0,1,.37,1,1.11a1.42,1.42,0,0,1-.1.57.82.82,0,0,1-.36.38l.58,1.72h-.57l-.51-1.61h-.32v1.61Zm.54-3.27v1.18h.31a.46.46,0,0,0,.22,0,.38.38,0,0,0,.14-.11.71.71,0,0,0,.06-.19,1.85,1.85,0,0,0,0-.25,1.93,1.93,0,0,0,0-.25.84.84,0,0,0-.07-.19.42.42,0,0,0-.38-.15Z" transform="translate(-1014.07 -242.18)"/><path d="M1060.65,334.08l.85-3.78h.45l.84,3.78h-.54l-.16-.81h-.74l-.15.81Zm1.34-1.32-.26-1.37h0l-.27,1.37Z" transform="translate(-1014.07 -242.18)"/><path d="M1063.06,334.08V330.3h.87q1,0,1,1.11a1.41,1.41,0,0,1-.11.57.8.8,0,0,1-.36.37l.58,1.73h-.57l-.5-1.62h-.33v1.62Zm.54-3.27V332h.31a.68.68,0,0,0,.23,0,.37.37,0,0,0,.13-.12.48.48,0,0,0,.06-.18,1.81,1.81,0,0,0,0-.25,2,2,0,0,0,0-.26.6.6,0,0,0-.06-.19.47.47,0,0,0-.39-.14Z" transform="translate(-1014.07 -242.18)"/><path d="M1065.58,334.08v-3.27H1065v-.51h1.79v.51h-.62v3.27Z" transform="translate(-1014.07 -242.18)"/><path d="M1067,334.08V330.3h1.62v.51h-1.08v1.11h.94v.51h-.94v1.11h1.08v.54Z" transform="translate(-1014.07 -242.18)"/><path d="M1069,334.08V330.3h.87c.64,0,1,.37,1,1.11a1.42,1.42,0,0,1-.1.57.8.8,0,0,1-.36.37l.58,1.73h-.57l-.51-1.62h-.32v1.62Zm.54-3.27V332h.31a.73.73,0,0,0,.23,0,.37.37,0,0,0,.13-.12.48.48,0,0,0,.06-.18,1.93,1.93,0,0,0,0-.25,2.09,2.09,0,0,0,0-.26.62.62,0,0,0-.07-.19.44.44,0,0,0-.38-.14Z" transform="translate(-1014.07 -242.18)"/><path d="M1071.24,334.08V330.3h.54v3.78Z" transform="translate(-1014.07 -242.18)"/><path d="M1072.3,334.08V330.3h1.62v.51h-1.07v1.11h.93v.51h-.93v1.11h1.07v.54Z" transform="translate(-1014.07 -242.18)"/><path d="M1076,331.39h-.54v-.13a.57.57,0,0,0-.09-.32.31.31,0,0,0-.29-.13.3.3,0,0,0-.18,0,.27.27,0,0,0-.11.1.44.44,0,0,0-.06.16,1.1,1.1,0,0,0,0,.18,1,1,0,0,0,0,.19.28.28,0,0,0,0,.13.22.22,0,0,0,.09.1l.17.09.41.16a1.07,1.07,0,0,1,.3.17.68.68,0,0,1,.17.21.89.89,0,0,1,.08.29,2.12,2.12,0,0,1,0,.37,1.52,1.52,0,0,1,0,.44.86.86,0,0,1-.15.35.76.76,0,0,1-.29.24,1.15,1.15,0,0,1-.44.08.9.9,0,0,1-.37-.07.81.81,0,0,1-.29-.19,1.1,1.1,0,0,1-.2-.28,1,1,0,0,1-.07-.36V333h.55v.17a.43.43,0,0,0,.08.27.35.35,0,0,0,.3.12.41.41,0,0,0,.21,0,.34.34,0,0,0,.12-.12.29.29,0,0,0,0-.17,1.69,1.69,0,0,0,0-.23,1.85,1.85,0,0,0,0-.25.54.54,0,0,0,0-.15.47.47,0,0,0-.1-.1l-.16-.08-.39-.16a.84.84,0,0,1-.47-.38,1.26,1.26,0,0,1-.12-.59,1.29,1.29,0,0,1,.06-.4,1,1,0,0,1,.17-.33.8.8,0,0,1,.29-.22.86.86,0,0,1,.41-.09.91.91,0,0,1,.37.08.84.84,0,0,1,.29.2.82.82,0,0,1,.24.58Z" transform="translate(-1014.07 -242.18)"/><path d="M1077.17,334.08l.84-3.78h.46l.84,3.78h-.54l-.16-.81h-.74l-.16.81Zm1.34-1.32-.27-1.37h0l-.26,1.37Z" transform="translate(-1014.07 -242.18)"/><path d="M1079.56,334.08V330.3h.52l.81,2.28h0V330.3h.55v3.78h-.51l-.83-2.27h0v2.27Z" transform="translate(-1014.07 -242.18)"/><path d="M1081.94,334.08V330.3h.8a.93.93,0,0,1,.71.25,1,1,0,0,1,.24.72V333a1.07,1.07,0,0,1-.26.79,1,1,0,0,1-.74.25Zm.54-3.27v2.76h.25a.38.38,0,0,0,.32-.12.54.54,0,0,0,.1-.35v-1.83a.55.55,0,0,0-.09-.34.39.39,0,0,0-.33-.12Z" transform="translate(-1014.07 -242.18)"/><path d="M1062.74,336.67l-.78,3.78h-.48l-.77-3.78h.58l.43,2.64h0l.43-2.64Z" transform="translate(-1014.07 -242.18)"/><path d="M1063.06,340.45v-3.78h1.61v.51h-1.07v1.11h.94v.51h-.94v1.11h1.07v.54Z" transform="translate(-1014.07 -242.18)"/><path d="M1065,340.45v-3.78h.54v3.78Z" transform="translate(-1014.07 -242.18)"/><path d="M1066.09,340.45v-3.78h.52l.82,2.28h0v-2.28h.54v3.78h-.51l-.83-2.27h0v2.27Z" transform="translate(-1014.07 -242.18)"/><path d="M1070.22,337.76h-.54v-.12a.55.55,0,0,0-.09-.32.33.33,0,0,0-.29-.14.4.4,0,0,0-.18,0,.43.43,0,0,0-.12.11.75.75,0,0,0,0,.16,1.1,1.1,0,0,0,0,.18,1.09,1.09,0,0,0,0,.19.31.31,0,0,0,.13.23.54.54,0,0,0,.17.08l.41.17a1.11,1.11,0,0,1,.29.16.63.63,0,0,1,.18.22.82.82,0,0,1,.08.29c0,.1,0,.23,0,.37a1.61,1.61,0,0,1,0,.44.93.93,0,0,1-.15.35.82.82,0,0,1-.29.23,1,1,0,0,1-.44.09,1.11,1.11,0,0,1-.37-.07,1,1,0,0,1-.29-.19,1.15,1.15,0,0,1-.2-.29,1,1,0,0,1-.07-.35v-.2h.54v.17a.41.41,0,0,0,.09.26.35.35,0,0,0,.3.12.41.41,0,0,0,.21,0,.25.25,0,0,0,.12-.11.35.35,0,0,0,.05-.18,2.77,2.77,0,0,0,0-.47.53.53,0,0,0,0-.16.28.28,0,0,0-.1-.09l-.16-.08-.39-.16a.85.85,0,0,1-.47-.38,1.32,1.32,0,0,1-.12-.59,1.35,1.35,0,0,1,.06-.41.86.86,0,0,1,.17-.33.93.93,0,0,1,.29-.22,1,1,0,0,1,.41-.08.9.9,0,0,1,.37.07,1,1,0,0,1,.29.2.84.84,0,0,1,.24.58Z" transform="translate(-1014.07 -242.18)"/><path d="M1112.1,306.35v2.93a.74.74,0,0,1-.07.34.67.67,0,0,1-.19.28.88.88,0,0,1-.62.26.8.8,0,0,1-.34-.07.83.83,0,0,1-.27-.19.8.8,0,0,1-.2-.28.9.9,0,0,1-.06-.34v-2.93h.54v2.88a.45.45,0,0,0,.09.3.36.36,0,0,0,.24.09.32.32,0,0,0,.24-.09.4.4,0,0,0,.1-.3v-2.88Z" transform="translate(-1014.07 -242.18)"/><path d="M1112.61,310.13v-3.78h.87q1,0,1,1.11a1.41,1.41,0,0,1-.11.57.8.8,0,0,1-.36.37l.58,1.73H1114l-.51-1.61h-.32v1.61Zm.54-3.27V308h.31a.73.73,0,0,0,.23,0,.37.37,0,0,0,.13-.12.48.48,0,0,0,.06-.18,1.93,1.93,0,0,0,0-.25,1.85,1.85,0,0,0,0-.25.36.36,0,0,0-.07-.19.41.41,0,0,0-.38-.15Z" transform="translate(-1014.07 -242.18)"/><path d="M1114.87,310.13v-3.78h1.62v.51h-1.08V308h.94v.51h-.94v1.11h1.08v.54Z" transform="translate(-1014.07 -242.18)"/><path d="M1117.19,310.13v-3.27h-.62v-.51h1.79v.51h-.62v3.27Z" transform="translate(-1014.07 -242.18)"/><path d="M1118.6,310.13v-3.78h1.62v.51h-1.08V308h.94v.51h-.94v1.11h1.08v.54Z" transform="translate(-1014.07 -242.18)"/><path d="M1120.57,310.13v-3.78h.87c.64,0,1,.37,1,1.11a1.42,1.42,0,0,1-.1.57.8.8,0,0,1-.36.37l.58,1.73h-.57l-.51-1.61h-.32v1.61Zm.54-3.27V308h.31a.73.73,0,0,0,.23,0,.37.37,0,0,0,.13-.12.48.48,0,0,0,.06-.18,1.93,1.93,0,0,0,0-.25,1.85,1.85,0,0,0,0-.25.47.47,0,0,0-.07-.19.41.41,0,0,0-.38-.15Z" transform="translate(-1014.07 -242.18)"/><path d="M1112.07,246.53v.23a.72.72,0,0,1-.07.33.75.75,0,0,1-.18.28,1,1,0,0,1-.28.2.88.88,0,0,1-.33.07,1.75,1.75,0,0,1-.32,0,.76.76,0,0,1-.28-.15.74.74,0,0,1-.21-.28.87.87,0,0,1-.09-.42v-2.09a.77.77,0,0,1,.07-.34.78.78,0,0,1,.46-.46.83.83,0,0,1,.36-.07.81.81,0,0,1,.62.25.79.79,0,0,1,.18.29.86.86,0,0,1,.07.36v.22h-.54v-.18a.4.4,0,0,0-.1-.28.29.29,0,0,0-.24-.12.28.28,0,0,0-.27.13.71.71,0,0,0-.06.31v1.94a.45.45,0,0,0,.07.27.27.27,0,0,0,.25.12l.12,0,.11-.06a.25.25,0,0,0,.08-.12.49.49,0,0,0,0-.19v-.18Z" transform="translate(-1014.07 -242.18)"/><path d="M1112.26,247.61l.85-3.79h.45l.84,3.79h-.54l-.16-.82H1113l-.15.82Zm1.34-1.33-.26-1.37h0l-.27,1.37Z" transform="translate(-1014.07 -242.18)"/><path d="M1114.67,247.61v-3.79h.81a1.25,1.25,0,0,1,.4.06.75.75,0,0,1,.3.21.77.77,0,0,1,.2.35,2.47,2.47,0,0,1,0,.54,2.63,2.63,0,0,1,0,.43.91.91,0,0,1-.13.33.81.81,0,0,1-.29.29,1.15,1.15,0,0,1-.49.1h-.28v1.48Zm.54-3.28v1.29h.26a.6.6,0,0,0,.26-.05.27.27,0,0,0,.13-.13.39.39,0,0,0,.05-.2,2.09,2.09,0,0,0,0-.26,2,2,0,0,0,0-.25.65.65,0,0,0,0-.21.35.35,0,0,0-.13-.14.55.55,0,0,0-.25,0Z" transform="translate(-1014.07 -242.18)"/><path d="M1118.59,244.91H1118v-.12a.66.66,0,0,0-.08-.32.34.34,0,0,0-.3-.14.35.35,0,0,0-.18,0,.27.27,0,0,0-.11.1.44.44,0,0,0-.06.16,1.1,1.1,0,0,0,0,.18c0,.08,0,.14,0,.19a.5.5,0,0,0,0,.13.24.24,0,0,0,.1.1l.16.09.42.16a1.3,1.3,0,0,1,.29.16.87.87,0,0,1,.17.22.82.82,0,0,1,.08.29,2.1,2.1,0,0,1,0,.81.94.94,0,0,1-.16.35.66.66,0,0,1-.29.23,1,1,0,0,1-.44.09,1.16,1.16,0,0,1-.37-.07.85.85,0,0,1-.48-.48.78.78,0,0,1-.07-.35v-.2h.54v.17a.44.44,0,0,0,.09.27.32.32,0,0,0,.29.12.67.67,0,0,0,.22,0,.34.34,0,0,0,.12-.12.78.78,0,0,0,0-.18v-.23a1.63,1.63,0,0,0,0-.24.34.34,0,0,0,0-.16.29.29,0,0,0-.1-.09l-.16-.08-.39-.16a.88.88,0,0,1-.47-.38,1.32,1.32,0,0,1-.12-.59,1.4,1.4,0,0,1,.06-.41,1.06,1.06,0,0,1,.18-.33.88.88,0,0,1,.28-.22,1,1,0,0,1,.41-.08.87.87,0,0,1,.37.08,1,1,0,0,1,.29.19.85.85,0,0,1,.25.59Z" transform="translate(-1014.07 -242.18)"/><path d="M1120.74,243.82v2.94a1,1,0,0,1-.06.34.9.9,0,0,1-.47.47,1,1,0,0,1-.34.07.94.94,0,0,1-.34-.07.92.92,0,0,1-.28-.19.87.87,0,0,1-.19-.28.8.8,0,0,1-.07-.34v-2.94h.54v2.88a.38.38,0,0,0,.1.3.33.33,0,0,0,.24.1.33.33,0,0,0,.23-.1.38.38,0,0,0,.1-.3v-2.88Z" transform="translate(-1014.07 -242.18)"/><path d="M1121.25,247.61v-3.79h.54v3.24h1.08v.55Z" transform="translate(-1014.07 -242.18)"/><path d="M1123.22,247.61v-3.79h1.61v.51h-1.07v1.11h.94V246h-.94v1.11h1.07v.55Z" transform="translate(-1014.07 -242.18)"/><path d="M1110.35,286v-3.78h.87c.63,0,1,.37,1,1.11a1.42,1.42,0,0,1-.1.57.8.8,0,0,1-.36.37l.58,1.73h-.57l-.51-1.62h-.32V286Zm.54-3.27v1.18h.31a.62.62,0,0,0,.22,0,.33.33,0,0,0,.14-.12.76.76,0,0,0,.06-.18,1.93,1.93,0,0,0,0-.25,2.09,2.09,0,0,0,0-.26.75.75,0,0,0-.07-.18.42.42,0,0,0-.38-.15Z" transform="translate(-1014.07 -242.18)"/><path d="M1112.61,286v-3.78h1.61v.51h-1.07v1.11h.94v.51h-.94v1.11h1.07V286Z" transform="translate(-1014.07 -242.18)"/><path d="M1114.55,286v-3.78h.52l.82,2.28h0v-2.28h.54V286h-.51l-.82-2.27h0V286Z" transform="translate(-1014.07 -242.18)"/><path d="M1116.69,286l.84-3.78h.46l.84,3.78h-.54l-.16-.81h-.74l-.16.81Zm1.34-1.32-.27-1.37h0l-.26,1.37Z" transform="translate(-1014.07 -242.18)"/><path d="M1119.1,286v-3.78h.54v3.24h1.07V286Z" transform="translate(-1014.07 -242.18)"/><path d="M1123.89,282.24l-.78,3.78h-.48l-.77-3.78h.58l.43,2.64h0l.43-2.64Z" transform="translate(-1014.07 -242.18)"/><path d="M1124.21,286v-3.78h1.62v.51h-1.08v1.11h.94v.51h-.94v1.11h1.08V286Z" transform="translate(-1014.07 -242.18)"/><path d="M1126.19,286v-3.78h.54V286Z" transform="translate(-1014.07 -242.18)"/><path d="M1127.24,286v-3.78h.52l.82,2.28h0v-2.28h.54V286h-.51l-.83-2.27h0V286Z" transform="translate(-1014.07 -242.18)"/><path d="M1110.35,278.66v-3.78h.87c.63,0,1,.37,1,1.11a1.39,1.39,0,0,1-.1.57.82.82,0,0,1-.36.38l.58,1.72h-.57l-.51-1.61h-.32v1.61Zm.54-3.27v1.18h.31a.46.46,0,0,0,.22,0,.31.31,0,0,0,.14-.11.71.71,0,0,0,.06-.19,1.85,1.85,0,0,0,0-.25,1.93,1.93,0,0,0,0-.25.84.84,0,0,0-.07-.19.42.42,0,0,0-.38-.15Z" transform="translate(-1014.07 -242.18)"/><path d="M1112.61,278.66v-3.78h1.61v.51h-1.07v1.11h.94V277h-.94v1.11h1.07v.54Z" transform="translate(-1014.07 -242.18)"/><path d="M1114.55,278.66v-3.78h.52l.82,2.28h0v-2.28h.54v3.78h-.51l-.82-2.27h0v2.27Z" transform="translate(-1014.07 -242.18)"/><path d="M1116.69,278.66l.84-3.78h.46l.84,3.78h-.54l-.16-.81h-.74l-.16.81Zm1.34-1.32-.27-1.37h0l-.26,1.37Z" transform="translate(-1014.07 -242.18)"/><path d="M1119.1,278.66v-3.78h.54v3.24h1.07v.54Z" transform="translate(-1014.07 -242.18)"/><path d="M1121.8,278.66l.85-3.78h.45l.85,3.78h-.55l-.16-.81h-.73l-.16.81Zm1.34-1.32-.26-1.37h0l-.27,1.37Z" transform="translate(-1014.07 -242.18)"/><path d="M1124.21,278.66v-3.78h.87q1,0,1,1.11a1.57,1.57,0,0,1-.1.57.8.8,0,0,1-.37.38l.59,1.72h-.58l-.5-1.61h-.33v1.61Zm.54-3.27v1.18h.31a.5.5,0,0,0,.23,0,.28.28,0,0,0,.13-.11.47.47,0,0,0,.06-.19,1.69,1.69,0,0,0,0-.25,1.81,1.81,0,0,0,0-.25.53.53,0,0,0-.06-.19.45.45,0,0,0-.39-.15Z" transform="translate(-1014.07 -242.18)"/><path d="M1126.73,278.66v-3.27h-.62v-.51h1.79v.51h-.62v3.27Z" transform="translate(-1014.07 -242.18)"/><path d="M1128.14,278.66v-3.78h1.62v.51h-1.08v1.11h.94V277h-.94v1.11h1.08v.54Z" transform="translate(-1014.07 -242.18)"/><path d="M1130.11,278.66v-3.78h.87q1,0,1,1.11a1.38,1.38,0,0,1-.11.57.82.82,0,0,1-.36.38l.58,1.72h-.57l-.51-1.61h-.32v1.61Zm.54-3.27v1.18h.31a.53.53,0,0,0,.23,0,.35.35,0,0,0,.13-.11.47.47,0,0,0,.06-.19,1.85,1.85,0,0,0,0-.25,1.93,1.93,0,0,0,0-.25.4.4,0,0,0-.07-.19.41.41,0,0,0-.38-.15Z" transform="translate(-1014.07 -242.18)"/><path d="M1132.78,278.66v-1.59l-.74-2.19h.57l.44,1.51h0l.43-1.51h.58l-.75,2.19v1.59Z" transform="translate(-1014.07 -242.18)"/><path class="cls-2" d="M1065.93,296c1.83-1.46,4.14-1.2,5.08.81s2.1,14.71-12.48,14.93c-7.77-.73-20.93-12.3-16.86-35.14,2.74-12.41,7.36-26.47,23.64-31.3,9.67-2.53,18.36,3.07,19.35,11.75.66,7.14-2,11-5.67,11.32s-4.58-1.88-4.87-3.53c-.19.21-.36.41-.5.6-1.27,3.9,3,7.62,8.62,5.89s10.47-18.81-1.43-26.47c-5-3.19-22.1-6.92-34.74,13-6.27,9.88-10.85,31.52-2.5,46.75,6.6,10.54,20.23,14.5,27.86,6.44,4.1-6,6.15-14.35,1-17.42a4.5,4.5,0,0,0-6.09.45A3,3,0,0,0,1065.93,296Z" transform="translate(-1014.07 -242.18)"/><path class="cls-3" d="M1061.3,315.38c-6.73,0-13.72-4.23-17.82-10.77-4.79-8.73-5-18.66-4.25-25.45.83-8.07,3.35-16.07,6.74-21.42,8.18-12.86,17.89-15.56,24.6-15.56a19.94,19.94,0,0,1,10.3,2.57c5.49,3.53,8.2,9.8,7.24,16.76-.68,4.9-3.13,9.07-5.84,9.9a9.68,9.68,0,0,1-2.82.44,6.48,6.48,0,0,1-5.3-2.41,4.43,4.43,0,0,1-.64-4.06l0,0c.16-.21.35-.42.51-.6a.11.11,0,0,1,.19.06c.45,2.53,2,3.64,4.76,3.43a5.22,5.22,0,0,0,3.6-1.89c1.64-1.94,2.33-5.25,2-9.31-.81-7.11-7-12.26-14.6-12.26a18.43,18.43,0,0,0-4.62.6c-15.65,4.65-20.57,17.76-23.56,31.22-1.92,10.82-.09,20.57,5.15,27.46,3.91,5.13,8.56,7.27,11.62,7.55,5.3-.08,9.06-1.81,11.14-5.14,2.31-3.69,1.82-8.39,1.23-9.63a2.73,2.73,0,0,0-2.54-1.68,3.83,3.83,0,0,0-2.37.91.11.11,0,0,1-.11,0,.1.1,0,0,1-.07-.09,3.11,3.11,0,0,1,.45-2,4.73,4.73,0,0,1,3.33-1.48,5.25,5.25,0,0,1,2.92,1,6.21,6.21,0,0,1,2.88,4.14c.78,3.58-.74,8.85-3.88,13.44A13.72,13.72,0,0,1,1061.3,315.38Zm9.27-73c-6.65,0-16.29,2.68-24.41,15.46-3.38,5.32-5.89,13.29-6.72,21.32-.7,6.76-.53,16.64,4.23,25.31,4,6.48,11,10.67,17.63,10.67a13.49,13.49,0,0,0,10-4.24c3.09-4.54,4.6-9.74,3.83-13.26a6,6,0,0,0-2.78-4,4.92,4.92,0,0,0-2.8-1,4.56,4.56,0,0,0-3.16,1.39,3,3,0,0,0-.42,1.68,4,4,0,0,1,2.35-.83,3,3,0,0,1,2.74,1.8,12.49,12.49,0,0,1-1.24,9.84c-2.13,3.41-5.95,5.17-11.34,5.25-3.11-.29-7.83-2.45-11.78-7.63-5.29-6.94-7.13-16.76-5.19-27.64,3-13.54,7.94-26.71,23.71-31.39a18.51,18.51,0,0,1,4.68-.61c7.76,0,14,5.24,14.82,12.46.38,4.18-.31,7.45-2,9.47a5.43,5.43,0,0,1-3.76,2c-2.79.22-4.42-.89-5-3.4l-.34.41a4.19,4.19,0,0,0,.62,3.84,6.24,6.24,0,0,0,5.12,2.32,9.37,9.37,0,0,0,2.76-.43c2.63-.81,5-4.9,5.68-9.72.95-6.88-1.72-13.06-7.14-16.55A19.77,19.77,0,0,0,1070.57,242.4Z" transform="translate(-1014.07 -242.18)"/><path class="cls-4" d="M1067.43,298c1.55,1.2,3.78,3,1.94,5.67s-8.21,5.23-9.45,2.41.62-8.23,2.6-11.27c1.61-2.82,1.54-3.77,0-3.63s-3.92,3.26-5.21,8.46-2.16,7.21-6.23,4.74-6-6.32-2.14-9.39,9.34-4.94,11-5.93,1.54-3.4-1.74-2.52-5.54,3.41-8.47,5.25-4.9.75-5.89-2.22-1.65-8.27,2.82-8.16a29.38,29.38,0,0,1,10.88,2.23c3.89,1.43,6,.22,6.45-1.9s-1.76-3.73-7.22-3.34a54.15,54.15,0,0,0-8,1.07c-2.13.44-5.58-.88-4.29-6.59s3.85-7.44,6.89-5.61,6.08,4.73,8.72,7.07,4.22,4,6.05,2.09.51-5.05-4.69-7.73-10.78-4.06-10.26-7.06,3.18-6.56,6.59-6.92c2.06-.22,2.75,1.68,4.66,6.59s2.89,4.5,4,4.1.77-3.3-.15-6.19-3.92-7.32-1.24-9.26,8-1,9,.95c.7,1.58-.25,2.86-2,5.42s-3.27,7.17-2.13,8.09c1,.62,1.5-.95,2.24-3.15s2-8.56,5.26-8.68c1.87,0,4.78,2.86,5.11,6.32s-2.2,3-3.9,3.46a20.22,20.22,0,0,0-4.55,2.41c.29,1.65,1.17,3.82,4.87,3.53s6.33-4.18,5.67-11.32c-1-8.68-9.68-14.28-19.35-11.75-16.28,4.83-20.9,18.89-23.64,31.3-4.07,22.84,9.09,34.41,16.86,35.14,14.58-.22,13.43-12.92,12.48-14.93s-3.25-2.27-5.08-.81C1065.93,296,1065.88,296.84,1067.43,298Z" transform="translate(-1014.07 -242.18)"/><path class="cls-5" d="M1058.52,311.83h0c-3.1-.29-7.82-2.45-11.77-7.63-5.29-6.94-7.13-16.76-5.19-27.64,3-13.54,7.94-26.71,23.71-31.39a18.51,18.51,0,0,1,4.68-.61c7.76,0,14,5.24,14.82,12.46.38,4.18-.31,7.45-2,9.47a5.43,5.43,0,0,1-3.76,2c-2.88.22-4.52-1-5-3.62v-.07l0,0a20.11,20.11,0,0,1,4.59-2.43c.32-.08.69-.13,1-.18,1.57-.24,3-.45,2.79-3.16-.34-3.55-3.27-6.21-5-6.21-2.71.09-4,4.62-4.78,7.33-.14.5-.27.93-.38,1.27l0,.06c-.64,1.92-1.1,3.3-1.9,3.3a.84.84,0,0,1-.48-.16c-1.25-1,.4-5.78,2.1-8.24l.2-.29c1.63-2.38,2.45-3.57,1.8-5-.61-1.11-2.79-2-5.07-2a6.52,6.52,0,0,0-3.78,1.05c-2,1.43-.72,4.32.39,6.87.35.81.68,1.58.9,2.27.87,2.76,1.35,5.87.08,6.32h0a2.86,2.86,0,0,1-.94.22c-.78,0-1.71-.53-3.2-4.39l-.12-.29c-1.81-4.66-2.5-6.44-4.43-6.23-2.61.28-5.84,3-6.5,6.83-.37,2.16,2.58,3.47,6.32,5.13,1.27.56,2.58,1.14,3.89,1.82,3.19,1.63,5.19,3.64,5.49,5.49a2.71,2.71,0,0,1-.77,2.41,2.41,2.41,0,0,1-1.73.84c-1.19,0-2.39-1.07-4-2.55l-.42-.38-1.22-1.08a52.73,52.73,0,0,0-7.49-6,4.26,4.26,0,0,0-2.15-.69c-2.08,0-3.66,2.15-4.57,6.22-.52,2.29-.3,4.11.61,5.26a3.55,3.55,0,0,0,2.79,1.27,3.67,3.67,0,0,0,.75-.07,53.76,53.76,0,0,1,8-1.06c3.44-.25,5.85.28,6.87,1.51a2.28,2.28,0,0,1,.47,1.95,3.22,3.22,0,0,1-3.52,2.61,8.94,8.94,0,0,1-3.07-.63,29.29,29.29,0,0,0-10.86-2.22,3,3,0,0,0-2.7,1.14c-1.16,1.61-.77,4.61,0,6.88.67,2,1.74,3,3.17,3a5,5,0,0,0,2.56-.89c1-.61,1.89-1.3,2.77-2a16.55,16.55,0,0,1,5.73-3.29,5.44,5.44,0,0,1,1.29-.19c.85,0,1.43.33,1.59.92a1.91,1.91,0,0,1-1,2c-.5.3-1.34.68-2.4,1.16a41.45,41.45,0,0,0-8.58,4.76A4.55,4.55,0,0,0,1047,299c.12,1.87,1.65,3.83,4.2,5.38a5.78,5.78,0,0,0,2.75,1c1.63,0,2.34-1.76,3.32-5.71,1.27-5.14,3.69-8.38,5.3-8.54.6-.06,1,.06,1.16.37.3.51,0,1.57-1.09,3.42-1.82,2.78-3.89,8.26-2.6,11.18a2.25,2.25,0,0,0,2.22,1.15,10.17,10.17,0,0,0,7-3.59c1.82-2.61-.52-4.43-1.92-5.51-1.58-1.22-1.54-2.12-1.54-2.16v0l0,0a4.07,4.07,0,0,1,2.51-1,3,3,0,0,1,2.74,1.8,12.49,12.49,0,0,1-1.24,9.84c-2.13,3.41-5.95,5.17-11.34,5.25Zm11.43-67a18.43,18.43,0,0,0-4.62.6c-15.65,4.65-20.57,17.76-23.56,31.22-1.92,10.82-.09,20.57,5.15,27.46,3.91,5.13,8.56,7.26,11.61,7.55,5.31-.08,9.07-1.81,11.15-5.14,2.31-3.69,1.82-8.39,1.23-9.63a2.73,2.73,0,0,0-2.54-1.68,3.88,3.88,0,0,0-2.33.87c0,.19.18.94,1.46,1.92s3.9,3,2,5.82a10.45,10.45,0,0,1-7.22,3.68,2.4,2.4,0,0,1-2.42-1.28c-1.33-3,.77-8.57,2.61-11.38,1-1.72,1.34-2.77,1.09-3.2-.13-.23-.45-.31-1-.26-1.5.15-3.88,3.39-5.11,8.37-.88,3.55-1.59,5.88-3.53,5.88a5.84,5.84,0,0,1-2.87-1.07c-2.61-1.58-4.18-3.61-4.29-5.54a4.74,4.74,0,0,1,2.14-4,41.74,41.74,0,0,1,8.63-4.79c1-.48,1.88-.85,2.38-1.15a1.7,1.7,0,0,0,.95-1.74c-.13-.48-.64-.76-1.38-.76a4.56,4.56,0,0,0-1.23.19,16.4,16.4,0,0,0-5.66,3.24c-.89.68-1.8,1.37-2.79,2a5.15,5.15,0,0,1-2.67.92c-1.51,0-2.68-1.11-3.38-3.19-.77-2.32-1.17-5.4,0-7.07a3.19,3.19,0,0,1,2.89-1.24,29.54,29.54,0,0,1,10.92,2.24,9,9,0,0,0,3,.61,3,3,0,0,0,3.31-2.43,2.08,2.08,0,0,0-.43-1.77c-.81-1-2.58-1.5-5.11-1.5-.49,0-1,0-1.57.06a54.58,54.58,0,0,0-8,1.06,3.56,3.56,0,0,1-.8.08,3.74,3.74,0,0,1-3-1.36c-1-1.2-1.19-3.08-.66-5.44.94-4.18,2.59-6.38,4.79-6.38a4.5,4.5,0,0,1,2.27.71,53.84,53.84,0,0,1,7.52,6l1.21,1.09.43.38c1.62,1.45,2.8,2.49,3.9,2.49a2.19,2.19,0,0,0,1.57-.78,2.51,2.51,0,0,0,.72-2.21c-.29-1.79-2.25-3.73-5.38-5.34-1.3-.67-2.61-1.25-3.88-1.81-3.82-1.7-6.84-3-6.44-5.37.52-3.08,3.23-6.64,6.69-7l.32,0c1.86,0,2.58,1.87,4.34,6.39l.11.29c1.46,3.75,2.33,4.25,3,4.25a2.75,2.75,0,0,0,.86-.2h0c.92-.33.83-2.76-.21-6.06-.22-.67-.55-1.43-.9-2.24-1.13-2.63-2.42-5.61-.31-7.14a6.74,6.74,0,0,1,3.91-1.08c2.4,0,4.61.87,5.27,2.07.7,1.58-.2,2.88-1.82,5.24l-.2.29c-1.79,2.61-3.21,7.09-2.15,7.94a.64.64,0,0,0,.35.12c.64,0,1.1-1.39,1.69-3.15l0-.06c.11-.34.24-.76.38-1.26.79-2.77,2.11-7.4,5-7.49,2,0,4.9,3,5.23,6.41.28,2.91-1.45,3.17-3,3.39-.36.06-.7.11-1,.19a19.43,19.43,0,0,0-4.45,2.35c.47,2.49,2,3.58,4.75,3.37a5.22,5.22,0,0,0,3.6-1.89c1.64-1.94,2.33-5.25,2-9.31C1083.74,249.93,1077.6,244.78,1070,244.78Z" transform="translate(-1014.07 -242.18)"/><g class="cls-6"><path class="cls-4" d="M1058.23,286.58a10.22,10.22,0,0,0-1.78.67c.16.56.33,1.13.49,1.7s.26.95.37,1.42c1.17-.53,2.12-.95,2.66-1.27C1061.62,288.11,1061.51,285.7,1058.23,286.58Z" transform="translate(-1014.07 -242.18)"/></g><g class="cls-6"><path class="cls-4" d="M1066.48,265.45c1.14-.4.77-3.3-.15-6.19-.09-.28-.19-.57-.31-.87a32.3,32.3,0,0,0-3.57,3C1064.35,266.25,1065.34,265.85,1066.48,265.45Z" transform="translate(-1014.07 -242.18)"/></g><g class="cls-6"><path class="cls-4" d="M1064,281.78c.41-2.13-1.76-3.73-7.22-3.34l-1.61.13a31.51,31.51,0,0,0,.27,4.34v0c.67.22,1.37.47,2.11.74C1061.46,285.11,1063.62,283.9,1064,281.78Z" transform="translate(-1014.07 -242.18)"/></g><g class="cls-6"><path class="cls-4" d="M1084.66,257a13.7,13.7,0,0,0-9-11.32,6.5,6.5,0,0,1-1.1,7.18,9.61,9.61,0,0,1-.73.7,28.49,28.49,0,0,1-1.78,2.78c-1.76,2.56-3.27,7.17-2.13,8.09,1,.62,1.5-.95,2.24-3.15s2-8.56,5.26-8.68c1.87,0,4.78,2.86,5.11,6.32s-2.2,3-3.9,3.46a20.22,20.22,0,0,0-4.55,2.41c.29,1.65,1.17,3.82,4.87,3.53S1085.32,264.17,1084.66,257Z" transform="translate(-1014.07 -242.18)"/></g><g class="cls-6"><path class="cls-4" d="M1066.15,276.47c1.83-1.87.51-5.05-4.69-7.73-1.18-.6-2.37-1.14-3.51-1.64a21,21,0,0,0-1.65,3.91c1.33,1.14,2.61,2.31,3.8,3.37C1062.74,276.72,1064.32,278.34,1066.15,276.47Z" transform="translate(-1014.07 -242.18)"/></g><g class="cls-6"><path class="cls-4" d="M1065.93,296s0,.86,1.5,2.06,3.78,3,1.94,5.67-8.21,5.23-9.45,2.41.62-8.23,2.6-11.27c1.61-2.82,1.54-3.77,0-3.63s-3.92,3.26-5.21,8.46-2.16,7.21-6.23,4.74a12.5,12.5,0,0,1-2.18-1.66,8.14,8.14,0,0,1-4-1.53c3.78,6.63,9.46,10.1,13.61,10.49,14.58-.22,13.43-12.92,12.48-14.93S1067.76,294.52,1065.93,296Z" transform="translate(-1014.07 -242.18)"/></g><path class="cls-7" d="M1101.59,320.73c-2.86-12.08-6.93-27.46-22.76-39.32-6.38-4.47-10.11-9.77-5.17-16.14a.54.54,0,0,0,0,.15c.14-.19.31-.39.5-.6a20.22,20.22,0,0,1,4.55-2.41c1.7-.44,4.23,0,3.9-3.46s-3.24-6.32-5.11-6.32c-3.3.12-4.53,6.48-5.26,8.68s-1.25,3.77-2.24,3.15c-1.14-.92.37-5.53,2.13-8.09s2.71-3.84,2-5.42c-1.06-1.94-6.34-2.89-9-.95s.33,6.37,1.24,9.26,1.29,5.79.15,6.19-2.13.8-4-4.1-2.6-6.81-4.66-6.59c-3.41.36-6.08,3.92-6.59,6.92s5,4.39,10.26,7.06,6.52,5.86,4.69,7.73-3.41.25-6.05-2.09-5.68-5.23-8.72-7.07-5.61-.1-6.89,5.61,2.16,7,4.29,6.59a54.15,54.15,0,0,1,8-1.07c5.46-.39,7.63,1.21,7.22,3.34s-2.56,3.33-6.45,1.9a29.38,29.38,0,0,0-10.88-2.23c-4.47-.11-3.81,5.2-2.82,8.16s3,4.05,5.89,2.22,5.19-4.38,8.47-5.25,3.39,1.53,1.74,2.52-7.09,2.85-11,5.93-1.93,6.92,2.14,9.39,5,.46,6.23-4.74,3.7-8.31,5.21-8.46,1.57.81,0,3.63c-2,3-3.85,8.45-2.6,11.27s7.62.22,9.45-2.41-.39-4.47-1.94-5.67-1.5-2.06-1.5-2.06a3,3,0,0,1,.43-2l0,.06c1.45-2.91,5.65-5,11.67-1.83s8.06,6.87,10.2,10.36a56.47,56.47,0,0,1,6.37,18.45c1.1,8.57,1.43,9.55,5.28,9.44S1103,326.83,1101.59,320.73Z" transform="translate(-1014.07 -242.18)"/><path class="cls-8" d="M1099.34,330.62h0c-3.56,0-3.86-1.51-4.89-9.55a56.75,56.75,0,0,0-6.37-18.41l-.31-.51c-2-3.34-4.14-6.8-9.84-9.8a12.24,12.24,0,0,0-5.62-1.57,6.52,6.52,0,0,0-5.38,2.49l.08-.08-.55.89A2.82,2.82,0,0,0,1066,296s0,.84,1.46,2,3.9,3,2,5.82a10.45,10.45,0,0,1-7.22,3.68,2.4,2.4,0,0,1-2.42-1.28c-1.33-3,.77-8.57,2.61-11.38,1-1.72,1.34-2.77,1.09-3.2-.13-.23-.45-.31-1-.26-1.5.15-3.88,3.39-5.11,8.37-.88,3.55-1.59,5.88-3.53,5.88a5.84,5.84,0,0,1-2.87-1.07c-2.61-1.58-4.18-3.61-4.29-5.54a4.74,4.74,0,0,1,2.14-4,41.74,41.74,0,0,1,8.63-4.79c1-.48,1.88-.85,2.38-1.15a1.7,1.7,0,0,0,.95-1.74c-.2-.72-1.21-.95-2.61-.57a16.4,16.4,0,0,0-5.66,3.24c-.89.68-1.8,1.37-2.79,2a5.15,5.15,0,0,1-2.67.92c-1.51,0-2.68-1.11-3.38-3.19-.77-2.32-1.17-5.4,0-7.07a3.19,3.19,0,0,1,2.89-1.24,29.54,29.54,0,0,1,10.92,2.24,9,9,0,0,0,3,.61,3,3,0,0,0,3.31-2.43,2.08,2.08,0,0,0-.43-1.77c-.81-1-2.57-1.5-5.11-1.5-.49,0-1,0-1.57.06a54.58,54.58,0,0,0-8,1.06,3.56,3.56,0,0,1-.8.08,3.74,3.74,0,0,1-3-1.36c-1-1.2-1.19-3.08-.66-5.44.94-4.18,2.59-6.38,4.79-6.38a4.5,4.5,0,0,1,2.27.71,53.84,53.84,0,0,1,7.52,6l1.21,1.09.43.38c1.62,1.45,2.8,2.49,3.9,2.49a2.19,2.19,0,0,0,1.57-.78,2.51,2.51,0,0,0,.72-2.21c-.29-1.79-2.25-3.73-5.38-5.34-1.3-.67-2.61-1.25-3.88-1.81-3.82-1.7-6.84-3-6.44-5.37.52-3.08,3.23-6.64,6.69-7l.32,0c1.86,0,2.58,1.87,4.34,6.39l.11.29c1.46,3.75,2.33,4.25,3,4.25a2.75,2.75,0,0,0,.86-.2h0c.92-.33.83-2.76-.21-6.06-.22-.67-.55-1.43-.9-2.24-1.13-2.63-2.42-5.61-.31-7.14a6.74,6.74,0,0,1,3.91-1.08c2.4,0,4.61.87,5.27,2.07.7,1.58-.2,2.88-1.82,5.24l-.2.29c-2.12,3.09-3,7.23-2.15,7.94a.64.64,0,0,0,.35.12c.64,0,1.1-1.39,1.69-3.15l0-.06c.11-.34.24-.76.38-1.26.79-2.77,2.11-7.4,5-7.49,2,0,4.9,3,5.23,6.41.28,2.91-1.45,3.17-3,3.39-.36.06-.7.11-1,.19a19.89,19.89,0,0,0-4.5,2.39c-.15.17-.33.37-.49.57l-.37.49,0-.11a8.55,8.55,0,0,0-1.79,6.29c.46,3,2.86,6,7.32,9.17,16.4,12.28,20.25,28.59,22.81,39.38,1,4.44,1.65,7.46.52,8.93a2.9,2.9,0,0,1-2.39,1Zm-27-40.06a12.27,12.27,0,0,1,5.72,1.6c5.75,3,7.88,6.51,9.93,9.88l.31.51a56.84,56.84,0,0,1,6.39,18.49c1.13,8.78,1.64,9.36,4.68,9.36h.49a2.7,2.7,0,0,0,2.21-.89c1.08-1.4.48-4.37-.56-8.75-2.54-10.76-6.39-27-22.72-39.25-4.51-3.16-6.93-6.21-7.4-9.32a9.05,9.05,0,0,1,2.22-7l.43-.56-.09.24.12-.13v0a20.11,20.11,0,0,1,4.59-2.43c.32-.08.69-.13,1-.18,1.57-.24,3-.45,2.79-3.16-.34-3.55-3.27-6.21-5-6.21-2.71.09-4,4.62-4.78,7.33-.14.5-.27.93-.38,1.27l0,.06c-.64,1.91-1.1,3.3-1.9,3.3a.84.84,0,0,1-.48-.16c-1.25-1,.4-5.78,2.1-8.24l.2-.29c1.63-2.38,2.45-3.57,1.8-5-.61-1.11-2.79-2-5.07-2a6.52,6.52,0,0,0-3.78,1.05c-2,1.43-.72,4.32.39,6.87.35.81.68,1.58.9,2.27.87,2.76,1.35,5.87.08,6.32h0a2.86,2.86,0,0,1-.94.22c-.78,0-1.71-.53-3.2-4.39l-.12-.29c-1.81-4.66-2.5-6.44-4.43-6.23-2.61.28-5.84,3-6.5,6.83-.37,2.16,2.58,3.47,6.32,5.13,1.27.56,2.58,1.14,3.89,1.82,3.19,1.63,5.19,3.64,5.49,5.49a2.71,2.71,0,0,1-.77,2.41,2.41,2.41,0,0,1-1.73.84c-1.19,0-2.39-1.07-4-2.55l-.43-.38-1.22-1.08a52.73,52.73,0,0,0-7.49-6,4.26,4.26,0,0,0-2.15-.69c-2.08,0-3.66,2.15-4.57,6.22-.52,2.29-.3,4.11.61,5.26a3.55,3.55,0,0,0,2.79,1.27,3.67,3.67,0,0,0,.75-.07,53.76,53.76,0,0,1,8-1.06c3.44-.25,5.85.28,6.87,1.51a2.28,2.28,0,0,1,.47,1.95,3.22,3.22,0,0,1-3.52,2.61,8.94,8.94,0,0,1-3.07-.63,29.29,29.29,0,0,0-10.86-2.22,3,3,0,0,0-2.7,1.14c-1.16,1.61-.77,4.61,0,6.88.67,2,1.74,3,3.17,3a5,5,0,0,0,2.56-.89c1-.61,1.89-1.3,2.77-2a16.55,16.55,0,0,1,5.73-3.29,5.44,5.44,0,0,1,1.29-.19c.85,0,1.43.33,1.59.92a1.91,1.91,0,0,1-1,2c-.5.3-1.34.68-2.4,1.16a41.45,41.45,0,0,0-8.58,4.76A4.55,4.55,0,0,0,1047,299c.12,1.87,1.65,3.83,4.2,5.38a5.78,5.78,0,0,0,2.75,1c1.63,0,2.34-1.76,3.32-5.71,1.27-5.14,3.69-8.38,5.3-8.54.6-.06,1,.06,1.16.37.3.51,0,1.57-1.09,3.42-1.82,2.78-3.89,8.26-2.6,11.18a2.25,2.25,0,0,0,2.22,1.15,10.17,10.17,0,0,0,7-3.59c1.82-2.61-.52-4.43-1.92-5.51-1.58-1.22-1.54-2.12-1.54-2.16a3.06,3.06,0,0,1,.14-1.35l-.11.11.36-.7A6.57,6.57,0,0,1,1072.31,290.56Z" transform="translate(-1014.07 -242.18)"/><path class="cls-9" d="M1101.59,320.73c-2.86-12.08-6.93-27.46-22.76-39.32-6.38-4.47-10.11-9.77-5.17-16.14a.54.54,0,0,0,0,.15c.14-.19.31-.39.5-.6a27.1,27.1,0,0,1,2.92-1.75c-.36.14-.72.29-1.08.46a17.1,17.1,0,0,0-3.88,2.46,8.32,8.32,0,0,0-2.95,4.53,8.66,8.66,0,0,0,1,5.26,12.61,12.61,0,0,1,1.52,4.47,5.1,5.1,0,0,1-1.07,3.34c-1.67,2.29-4.66,4.18-5.07,7.19a10.49,10.49,0,0,0,.16,3.62c.06.24.13.52.22.79a3,3,0,0,1,.42-1.17l0,.06c1.45-2.91,5.65-5,11.67-1.83s8.06,6.87,10.2,10.36a56.47,56.47,0,0,1,6.37,18.45c1.1,8.57,1.43,9.55,5.28,9.44S1103,326.83,1101.59,320.73Z" transform="translate(-1014.07 -242.18)"/><g class="cls-6"><path class="cls-10" d="M1097.6,328.67a25.18,25.18,0,0,1-1.75-8.12,10.92,10.92,0,0,1,.47-3.59,3.88,3.88,0,0,1,1.92-2.07,4.5,4.5,0,0,0,1.53-1.23l0,0c-3-10.62-8.09-22.58-21-32.22-6.38-4.47-10.11-9.77-5.17-16.14a.54.54,0,0,0,0,.15c.14-.19.31-.39.5-.6a27.1,27.1,0,0,1,2.92-1.75c-.36.14-.72.29-1.08.46a17.1,17.1,0,0,0-3.88,2.46,8.32,8.32,0,0,0-2.95,4.53,8.66,8.66,0,0,0,1,5.26,12.61,12.61,0,0,1,1.52,4.47,5.1,5.1,0,0,1-1.07,3.34c-1.67,2.29-4.66,4.18-5.07,7.19a10.49,10.49,0,0,0,.16,3.62c.06.24.13.52.22.79a3,3,0,0,1,.42-1.17l0,.06c1.45-2.91,5.65-5,11.67-1.83s8.06,6.87,10.2,10.36a56.47,56.47,0,0,1,6.37,18.45c.94,7.27,1.32,9.08,3.77,9.4C1098.06,329.86,1097.82,329.27,1097.6,328.67Z" transform="translate(-1014.07 -242.18)"/><path class="cls-10" d="M1098.32,330.57h0c-2.57-.33-2.94-2.4-3.85-9.5a56.75,56.75,0,0,0-6.37-18.41l-.31-.51c-2-3.34-4.14-6.8-9.84-9.8a12.24,12.24,0,0,0-5.62-1.57,6.38,6.38,0,0,0-5.84,3.22.12.12,0,0,1,0,.08,2.66,2.66,0,0,0-.41,1.13.11.11,0,0,1-.1.09.13.13,0,0,1-.12-.07c-.07-.24-.14-.5-.21-.81a10.26,10.26,0,0,1-.16-3.66c.28-2.09,1.78-3.64,3.23-5.15a19.33,19.33,0,0,0,1.85-2.08,5,5,0,0,0,1-3.27,10.77,10.77,0,0,0-1.25-3.88c-.09-.18-.17-.37-.26-.55a8.8,8.8,0,0,1-1-5.33,8.29,8.29,0,0,1,3-4.6,17.31,17.31,0,0,1,3.91-2.47c.31-.15.65-.3,1.08-.46a.1.1,0,0,1,.14,0,.11.11,0,0,1-.05.15,27.34,27.34,0,0,0-2.9,1.74c-.15.17-.33.37-.49.57a.1.1,0,0,1-.1,0,8.82,8.82,0,0,0-2,6.63c.46,3,2.86,6,7.32,9.17,13.38,10,18.25,22.52,21,32.28a.09.09,0,0,1,0,.09l0,0a4.22,4.22,0,0,1-1.46,1.2l-.1.06a3.88,3.88,0,0,0-1.88,2,11,11,0,0,0-.46,3.55,24.85,24.85,0,0,0,1.74,8.08c.24.65.48,1.23.72,1.78a.11.11,0,0,1,0,.11A.1.1,0,0,1,1098.32,330.57Zm-26-40a12.27,12.27,0,0,1,5.72,1.6c5.75,3,7.88,6.51,9.93,9.88l.31.51a56.84,56.84,0,0,1,6.39,18.49c.94,7.3,1.33,8.92,3.48,9.28-.22-.5-.43-1-.64-1.61a24.83,24.83,0,0,1-1.76-8.15,11.22,11.22,0,0,1,.47-3.63,4.08,4.08,0,0,1,2-2.14l.09-.06a4,4,0,0,0,1.39-1.11c-2.75-9.73-7.61-22.16-20.91-32.12-4.51-3.16-6.93-6.21-7.4-9.32a9.05,9.05,0,0,1,2.22-7,.1.1,0,0,1,.1,0,5,5,0,0,1,.36-.41v0l.64-.42a14.9,14.9,0,0,0-2.54,1.76,8.11,8.11,0,0,0-2.91,4.47,8.66,8.66,0,0,0,1,5.2c.09.18.17.36.26.55a10.82,10.82,0,0,1,1.27,4,5.21,5.21,0,0,1-1.09,3.41,20.33,20.33,0,0,1-1.87,2.11c-1.43,1.48-2.9,3-3.18,5a10.28,10.28,0,0,0,.16,3.58c0,.13.06.26.09.37a3.19,3.19,0,0,1,.28-.66.07.07,0,0,1,0-.05A6.57,6.57,0,0,1,1072.31,290.56Z" transform="translate(-1014.07 -242.18)"/></g><path class="cls-7" d="M1079.78,262.21a5.33,5.33,0,0,0,1.72-.46Z" transform="translate(-1014.07 -242.18)"/><path class="cls-11" d="M1067.59,258.53a17.63,17.63,0,0,1-1.21-2.27c-.34-.72-.37-1.55-.66-2.28,0,0-.06,0,0,.06.26.75.34,1.57.6,2.33a7.59,7.59,0,0,0,.47,1.07,11.79,11.79,0,0,1-2.13-5.34s0,0,0,0a7.47,7.47,0,0,0,.87,3.29,12,12,0,0,0,1.83,3.1s0,0,.08,0a2.14,2.14,0,0,0,.13.19S1067.62,258.57,1067.59,258.53Z" transform="translate(-1014.07 -242.18)"/><path class="cls-11" d="M1068,258.65a17,17,0,0,1-1.64-6.74s0,0,0,0a12.41,12.41,0,0,0,1.54,6.87C1067.86,258.87,1068,258.71,1068,258.65Z" transform="translate(-1014.07 -242.18)"/><path class="cls-11" d="M1068.66,253.93s-.05,0-.05,0c-.06,1.63-.21,3.29-.31,4.93l-.15-.46A66.13,66.13,0,0,1,1068,251s0,0,0,0a36.9,36.9,0,0,0,0,6.73,14.34,14.34,0,0,1-.79-5s0,0,0,0a11.66,11.66,0,0,0,.94,5.92s0,.07,0,.1,0,0,0,0l.1.24s.09,0,.11-.08,0,.08,0,.13.13,0,.13-.1A38.88,38.88,0,0,0,1068.66,253.93Z" transform="translate(-1014.07 -242.18)"/><path class="cls-11" d="M1070.35,250.65c-.3,1.4-.82,2.79-1.15,4.18a19.69,19.69,0,0,0-.56,4.38c0,.09.15-.06.15-.11.16-1.46.32-2.94.6-4.38s.88-2.74,1-4.11C1070.44,250.54,1070.36,250.62,1070.35,250.65Z" transform="translate(-1014.07 -242.18)"/><path class="cls-11" d="M1071,253.3a46.67,46.67,0,0,1-2,5.65c-.07.13.07.09.12,0a27.25,27.25,0,0,0,1.92-5.67C1071.1,253.22,1071,253.27,1071,253.3Z" transform="translate(-1014.07 -242.18)"/><path class="cls-11" d="M1073,252.54c-.65,1-1,2.1-1.66,3.08s-1.23,2.19-2,3.19c-.06.08,0,.17.05.08,1.65-1.81,2.39-4.29,3.64-6.34C1073.1,252.49,1073,252.49,1073,252.54Z" transform="translate(-1014.07 -242.18)"/><path class="cls-11" d="M1076.68,253.71a13,13,0,0,0-3,6.71c0,.1.12,0,.13-.08a23.86,23.86,0,0,1,1-3.52,20.29,20.29,0,0,1,1.91-3.08S1076.71,253.68,1076.68,253.71Z" transform="translate(-1014.07 -242.18)"/><path class="cls-11" d="M1078.06,254.67a15.18,15.18,0,0,0-2.4,2.9,15.86,15.86,0,0,0-1.53,2.76,14.22,14.22,0,0,1,2.16-5s0-.06,0,0a11.58,11.58,0,0,0-2.36,5.54c0,.07,0,.05.07,0a2,2,0,0,0,0,.24c0,.1.11,0,.12-.07a17,17,0,0,1,4-6.35S1078.09,254.65,1078.06,254.67Z" transform="translate(-1014.07 -242.18)"/><path class="cls-11" d="M1077.37,256.61a9.3,9.3,0,0,0-2,2.27,9.59,9.59,0,0,0-1.39,2.88c0,.1.1,0,.12-.05a12.51,12.51,0,0,1,3.3-5S1077.42,256.57,1077.37,256.61Z" transform="translate(-1014.07 -242.18)"/><path class="cls-11" d="M1079.24,256.37a8.11,8.11,0,0,0-2.64,2.06,11.06,11.06,0,0,0-2.41,3.46c-.06.14.11,0,.14,0a12.79,12.79,0,0,1,4.87-5.38S1079.29,256.35,1079.24,256.37Z" transform="translate(-1014.07 -242.18)"/><path class="cls-11" d="M1078.93,257.91a8.47,8.47,0,0,1-1.3.88,18.46,18.46,0,0,0-1.66,1.41,5.74,5.74,0,0,0-1.56,2.29c0,.13.11.05.14,0a9,9,0,0,1,2.33-2.91A16.5,16.5,0,0,0,1079,258S1079,257.86,1078.93,257.91Z" transform="translate(-1014.07 -242.18)"/><path class="cls-11" d="M1080.66,258.61a11.65,11.65,0,0,0-6.06,3.77c-.07.08-.06.22.05.11a15.21,15.21,0,0,1,6-3.8S1080.7,258.6,1080.66,258.61Z" transform="translate(-1014.07 -242.18)"/><path class="cls-11" d="M1079.75,260c-1.73.76-3.65,1.41-5,2.82,0,0-.07.21,0,.12a19.92,19.92,0,0,1,4.94-2.85S1079.79,260,1079.75,260Z" transform="translate(-1014.07 -242.18)"/><path class="cls-11" d="M1081.33,260.32a25.16,25.16,0,0,0-6.63,2.74s-.15.24,0,.18c1.14-.62,2.29-1.21,3.47-1.74,1-.45,2.13-.62,3.15-1.07C1081.31,260.42,1081.38,260.31,1081.33,260.32Z" transform="translate(-1014.07 -242.18)"/><path class="cls-11" d="M1061.49,263.44v0h0a6.29,6.29,0,0,0-.2-.71.13.13,0,0,0,0-.07,14.79,14.79,0,0,0-1.08-3.44,13.27,13.27,0,0,0-1.7-3.28s-.09.06-.07.09a24.87,24.87,0,0,1,2.43,5.83,26.89,26.89,0,0,0-2.63-3.72s-.1.06-.08.09a35.64,35.64,0,0,1,2.91,4.7,23.42,23.42,0,0,0-4.9-5.64s-.08.06-.06.08a51.92,51.92,0,0,1,5.16,6.3C1061.37,263.72,1061.54,263.5,1061.49,263.44Z" transform="translate(-1014.07 -242.18)"/><path class="cls-11" d="M1061.25,263.68a10.33,10.33,0,0,0-1.74-2,12.38,12.38,0,0,1-2-1.79s-.11.06-.09.1a7.18,7.18,0,0,0,1.57,1.54,17.37,17.37,0,0,1,2.15,2.3C1061.16,263.89,1061.28,263.73,1061.25,263.68Z" transform="translate(-1014.07 -242.18)"/><path class="cls-11" d="M1061.06,264.24a34.29,34.29,0,0,0-5.6-5.24s-.07.05,0,.07c.8.76,1.66,1.44,2.43,2.25s1.49,1.59,2.27,2.35a8.48,8.48,0,0,1-3.11-2s-.12.07-.1.11a9.34,9.34,0,0,0,3.92,2.58l.11.09C1061,264.47,1061.1,264.3,1061.06,264.24Z" transform="translate(-1014.07 -242.18)"/><path class="cls-11" d="M1061.14,264.55c-2.33-.93-4.43-2.33-6.66-3.47,0,0-.09.07-.06.08,1.07.73,2.18,1.34,3.3,2a11.41,11.41,0,0,0,3.35,1.53S1061.18,264.56,1061.14,264.55Z" transform="translate(-1014.07 -242.18)"/><path class="cls-11" d="M1060.52,264.86l-.36-.05a14.27,14.27,0,0,1-4-1.86s-.12.09-.09.12a9.7,9.7,0,0,0,2.26,1.34c-.74-.21-1.46-.46-2.18-.74s-1.21-.49-1.83-.72a4.43,4.43,0,0,1-1.66-.81s-.1.07-.08.1c.69.89,2.42,1.22,3.43,1.63a13.13,13.13,0,0,0,4.29,1.19l.06,0,0,0h0C1060.48,265.07,1060.6,264.87,1060.52,264.86Z" transform="translate(-1014.07 -242.18)"/><path class="cls-11" d="M1059.66,265.89a17.42,17.42,0,0,1-3.71-1.38s-.14.11-.09.14a11.84,11.84,0,0,0,3.71,1.42C1059.63,266.08,1059.73,265.92,1059.66,265.89Z" transform="translate(-1014.07 -242.18)"/><path class="cls-11" d="M1059.17,266.28a24.37,24.37,0,0,1-3.3-1.26,9.63,9.63,0,0,1-2.6-1.31s-.09.07-.07.09a7.17,7.17,0,0,0,2.52,1.43,14.55,14.55,0,0,0,3.36,1.22C1059.13,266.45,1059.23,266.3,1059.17,266.28Z" transform="translate(-1014.07 -242.18)"/><path class="cls-11" d="M1057.8,273.54a38.5,38.5,0,0,0-3.34-2.62c-1.34-1.08-2.72-2.06-4.07-3.11,0,0-.1.08-.07.11,1.14,1.08,2.46,1.95,3.67,3s2.57,1.79,3.65,2.88C1057.69,273.81,1057.86,273.61,1057.8,273.54Z" transform="translate(-1014.07 -242.18)"/><path class="cls-11" d="M1057.33,274c-1.66-1.37-3.71-2.32-5.3-3.75,0,0-.08.06-.06.09a12.63,12.63,0,0,0,2.29,1.73c1,.7,1.94,1.44,3,2.06C1057.28,274.11,1057.37,274,1057.33,274Z" transform="translate(-1014.07 -242.18)"/><path class="cls-11" d="M1057.73,274.42c-.91-.55-1.92-.94-2.87-1.44s-1.55-1.11-2.35-1.64c0,0-.08.06-.06.08a15.52,15.52,0,0,0,5.18,3.14S1057.78,274.45,1057.73,274.42Z" transform="translate(-1014.07 -242.18)"/><path class="cls-11" d="M1057.69,275c-1.37-.61-2.84-1-4.25-1.51-1.09-.42-2.08-1.14-3.18-1.5,0,0-.07.07,0,.07,1.19.49,2.26,1.27,3.48,1.75s2.6.95,3.91,1.33C1057.65,275.16,1057.73,275,1057.69,275Z" transform="translate(-1014.07 -242.18)"/><path class="cls-11" d="M1057.37,275.81c-1.77-.62-3.37-1.44-5.2-1.91,0,0-.08.07,0,.08,1,.32,1.94.64,2.88,1a13.2,13.2,0,0,0,2.27.93S1057.41,275.83,1057.37,275.81Z" transform="translate(-1014.07 -242.18)"/><path class="cls-11" d="M1057,276.08a15.08,15.08,0,0,0-3.92-1,47.45,47.45,0,0,0-4.89-.66s-.09.09-.05.09c1.49.18,3,.5,4.43.72a40.4,40.4,0,0,1,4.36,1S1057,276.1,1057,276.08Z" transform="translate(-1014.07 -242.18)"/><path class="cls-11" d="M1057.44,276.38c-2.23-.4-4.43-.4-6.66-.65,0,0-.08.07,0,.08a18.69,18.69,0,0,0,3.09.29c1.18.09,2.34.35,3.52.45C1057.4,276.56,1057.5,276.4,1057.44,276.38Z" transform="translate(-1014.07 -242.18)"/><path class="cls-11" d="M1056.86,277.07a16.46,16.46,0,0,0-3.95-.51c-1.37,0-2.64.14-4,.21,0,0-.12.12-.07.12a8,8,0,0,0,1.55-.1,15.76,15.76,0,0,1,2.38,0c.42,0,.85.06,1.27.12a12,12,0,0,0-2.32.37s-.09.1,0,.09a14.32,14.32,0,0,1,4.62,0s.12-.08.13-.14l.31,0C1056.82,277.26,1056.94,277.09,1056.86,277.07Z" transform="translate(-1014.07 -242.18)"/><path class="cls-11" d="M1056.51,277.49a29.06,29.06,0,0,0-7.09,1.19s-.1.12,0,.11c2.36-.44,4.66-.91,7-1.15C1056.48,277.64,1056.57,277.49,1056.51,277.49Z" transform="translate(-1014.07 -242.18)"/><path class="cls-11" d="M1053.83,287.73a10.87,10.87,0,0,1-1.66,1.43,15.3,15.3,0,0,1-1.69,1.28,9.92,9.92,0,0,1-3.47,1.29s-.14.17-.08.17a7.66,7.66,0,0,0,3.83-1.45,15.51,15.51,0,0,0,1.68-1.35,8,8,0,0,0,1.44-1.34C1053.91,287.7,1053.88,287.68,1053.83,287.73Z" transform="translate(-1014.07 -242.18)"/><path class="cls-11" d="M1053.67,286.52a7.56,7.56,0,0,1-2.32,2.76,22.94,22.94,0,0,1-3,1.52s-.15.23-.06.19c2.31-.92,4.49-2,5.46-4.48C1053.77,286.44,1053.69,286.48,1053.67,286.52Z" transform="translate(-1014.07 -242.18)"/><path class="cls-11" d="M1053.64,286.33c-.55,1.28-2.32,2-3.47,2.54a17.13,17.13,0,0,1-3.34,1.15c-.06,0-.18.22-.1.21a12.21,12.21,0,0,0,4.37-1.64c.92-.49,2.29-1.19,2.59-2.28C1053.71,286.26,1053.64,286.32,1053.64,286.33Z" transform="translate(-1014.07 -242.18)"/><path class="cls-11" d="M1053.2,285.72c-.61,1.34-2.42,2.11-3.67,2.75,0,0-.14.21,0,.18a11.35,11.35,0,0,0,2.58-1.46,3.18,3.18,0,0,0,1.22-1.49C1053.31,285.62,1053.22,285.69,1053.2,285.72Z" transform="translate(-1014.07 -242.18)"/><path class="cls-11" d="M1052.81,284.93s.1-.16,0-.14a15.43,15.43,0,0,0-5.64,2.78s0,.08,0,.05a29.4,29.4,0,0,1,5.57-2.67l-.06.07a6.94,6.94,0,0,1-2.75,2.28,6.36,6.36,0,0,1-3,1s-.11.11-.06.12c1,.33,2.46-.57,3.33-1a6.24,6.24,0,0,0,2.61-2.32C1052.89,284.93,1052.86,284.91,1052.81,284.93Z" transform="translate(-1014.07 -242.18)"/><path class="cls-11" d="M1052.24,284.52a19,19,0,0,0-7.57,3.15s-.05.11,0,.08a21.88,21.88,0,0,1,3.62-2c1.26-.54,2.61-.65,3.89-1.1C1052.22,284.66,1052.32,284.5,1052.24,284.52Z" transform="translate(-1014.07 -242.18)"/><path class="cls-11" d="M1052.37,284.16a14.1,14.1,0,0,0-2.15.13c-.39.06-.78.13-1.17.23s-.6.3-.9.34c0,0-.07.09,0,.09a8.47,8.47,0,0,0,1.44-.37c.9-.17,1.82-.13,2.72-.24C1052.33,284.34,1052.44,284.17,1052.37,284.16Z" transform="translate(-1014.07 -242.18)"/><path class="cls-11" d="M1051.74,283.84c-1,.18-2,.18-3,.38a14.79,14.79,0,0,0-2.92.92s-.12.16-.06.14c.83-.27,1.64-.53,2.49-.74,1.15-.29,2.32-.24,3.46-.49C1051.73,284,1051.85,283.83,1051.74,283.84Z" transform="translate(-1014.07 -242.18)"/><path class="cls-11" d="M1051.83,283.6a5,5,0,0,0-2.07-.1,4.9,4.9,0,0,0-1.89.41s-.06.09,0,.08a10,10,0,0,1,3.89-.23S1051.88,283.62,1051.83,283.6Z" transform="translate(-1014.07 -242.18)"/><path class="cls-11" d="M1051.14,282.92c-2.09-.11-4-.24-5.91.63,0,0-.09.12,0,.1a14.69,14.69,0,0,1,2.56-.61,32.58,32.58,0,0,1,3.28.09C1051.11,283.13,1051.22,282.93,1051.14,282.92Z" transform="translate(-1014.07 -242.18)"/><path class="cls-11" d="M1058.43,294.17a19.14,19.14,0,0,0-3.35,8.94c0,.09.14-.06.15-.11a27.28,27.28,0,0,1,1.13-4.53,23.68,23.68,0,0,1,2.12-4.28C1058.51,294.14,1058.46,294.13,1058.43,294.17Z" transform="translate(-1014.07 -242.18)"/><path class="cls-11" d="M1058.22,293.29a23.84,23.84,0,0,0-3.27,3.54,20.88,20.88,0,0,0-1.88,4.37c0,.13.11,0,.13,0,.59-1.32,1-2.7,1.69-4,.83-1.54,2.26-2.53,3.35-3.85C1058.27,293.3,1058.27,293.24,1058.22,293.29Z" transform="translate(-1014.07 -242.18)"/><path class="cls-11" d="M1057.55,292.17c-3.07,1.76-6,4.79-6.71,8.39,0,.1.11,0,.12-.07,1-3.64,3.5-6.2,6.57-8.24C1057.55,292.24,1057.6,292.13,1057.55,292.17Z" transform="translate(-1014.07 -242.18)"/><path class="cls-11" d="M1057.44,292a13.93,13.93,0,0,0-7.11,6.67c-.07.14.07.1.12,0a11.71,11.71,0,0,1,2.92-3.85,20.12,20.12,0,0,1,4.05-2.73S1057.49,292,1057.44,292Z" transform="translate(-1014.07 -242.18)"/><path class="cls-11" d="M1057.07,292a16.22,16.22,0,0,0-4.64,2.69,12.64,12.64,0,0,0-3.31,3.49c-.06.11,0,.12.1,0a18.64,18.64,0,0,1,7.83-6.15S1057.1,292,1057.07,292Z" transform="translate(-1014.07 -242.18)"/><path class="cls-11" d="M1056.74,291.88c-2.14.64-4.64,1.43-6.06,3.26-.07.09,0,.19.06.09,1.67-1.81,3.86-2.25,6-3.28C1056.74,291.94,1056.78,291.87,1056.74,291.88Z" transform="translate(-1014.07 -242.18)"/><path class="cls-11" d="M1056.16,291.65c-3.13,1.17-6.84,2.9-8.5,6-.06.11,0,.11.09,0a15.28,15.28,0,0,1,3.82-3.66,38.86,38.86,0,0,1,4.56-2.29S1056.2,291.64,1056.16,291.65Z" transform="translate(-1014.07 -242.18)"/><path class="cls-11" d="M1062.79,295.89a12.65,12.65,0,0,0-2,4.61c-.29,1.56-.51,3.77.16,5.26,0,.07.16-.1.14-.15a12.18,12.18,0,0,1,1.79-9.7C1062.88,295.85,1062.82,295.85,1062.79,295.89Z" transform="translate(-1014.07 -242.18)"/><path class="cls-11" d="M1063.23,296.13a12.73,12.73,0,0,0-1.6,6.51c0,.11.16-.08.17-.14a32.12,32.12,0,0,1,.37-3.24,16.75,16.75,0,0,1,1.11-3.14S1063.25,296.11,1063.23,296.13Z" transform="translate(-1014.07 -242.18)"/><path class="cls-11" d="M1063.54,296.1a6.49,6.49,0,0,0-1.19,3.42,12.88,12.88,0,0,0,.38,5.45c0,.07.18-.11.17-.16-.39-2.8-1-6.15.67-8.67C1063.59,296.1,1063.57,296.06,1063.54,296.1Z" transform="translate(-1014.07 -242.18)"/><path class="cls-11" d="M1063.53,299.47a19.86,19.86,0,0,1,.27-3.44c0-.06-.06,0-.07,0a14.37,14.37,0,0,0,0,6.65c0,.07.15-.09.15-.14C1063.83,301.54,1063.59,300.51,1063.53,299.47Z" transform="translate(-1014.07 -242.18)"/><path class="cls-11" d="M1065.2,302.92a12.37,12.37,0,0,1-1-3.84,15.74,15.74,0,0,1-.07-1.82,3.81,3.81,0,0,0,0-1.11s-.1.06-.1.09a13.73,13.73,0,0,1-.14,1.55,13.78,13.78,0,0,0,.09,1.82,7.56,7.56,0,0,0,1,3.49C1065.1,303.17,1065.23,303,1065.2,302.92Z" transform="translate(-1014.07 -242.18)"/><path class="cls-11" d="M1065.73,301c-.31-.77-.62-1.54-.87-2.33s-.29-1.7-.52-2.54c0,0,0,0,0,.05a13.74,13.74,0,0,0,1.33,4.95C1065.64,301.22,1065.75,301.09,1065.73,301Z" transform="translate(-1014.07 -242.18)"/><path class="cls-11" d="M1067,301.62a26.21,26.21,0,0,1-1.52-2.69,24.86,24.86,0,0,1-.93-2.76s-.07,0-.06.06a13.45,13.45,0,0,0,2.39,5.54S1067.05,301.67,1067,301.62Z" transform="translate(-1014.07 -242.18)"/><path class="cls-11" d="M1066.88,300.37a10.56,10.56,0,0,1-1-2,6.69,6.69,0,0,1-.68-2c0-.05-.09,0-.09.08a5.69,5.69,0,0,0,.52,1.84,7.77,7.77,0,0,0,1.14,2.24S1066.92,300.42,1066.88,300.37Z" transform="translate(-1014.07 -242.18)"/><path class="cls-11" d="M1068.23,301.22c-.91-1.61-2-3.1-2.85-4.76,0,0-.08,0-.07.07a10.28,10.28,0,0,0,1.18,2.31c.51.85,1,1.72,1.61,2.52C1068.14,301.42,1068.26,301.27,1068.23,301.22Z" transform="translate(-1014.07 -242.18)"/><path class="cls-12" d="M1062.65,296.29a4.33,4.33,0,0,1,2.67.22s-.93-6.14,6.36-6.52a19.77,19.77,0,0,1,15.11,8.09,108.26,108.26,0,0,1,7.07,12.6c1.36,2.77,2.61,2,3.43,1.58s.81-2-1.14-6.84-8.52-17.57-19.81-24.89c-5.94-4.61-8.51-11.67-1.59-17.45a15.6,15.6,0,0,1-1.17-2.9s-1.64,6.73-3.91,5.85,0-7.43,0-7.43a2,2,0,0,1-2.6-.18c1.32,6.81.66,8.29-1.06,8.42-3.08.24-3.91-4.1-4.62-4.92a4.15,4.15,0,0,1-2.48,4.44c3.91,1.49,8.26,4.49,8.8,7.2s-1,5.43-4.51,4.39a43.23,43.23,0,0,1-5.72-4.56s1,2.69-.82,4.12c3.79.06,7.2.22,8.19,2.69s-1,5.55-5.55,4.78c-3.08-.69-5.65-1.89-8.36-1.92,2.31,2.08,3.15,3.33,3,4.9,2.86-1.86,5.9-3.2,7.55-1.33.82,1.32.22,3-3.19,4.34-2.14.71-2.42.82-2.42.82a2.39,2.39,0,0,1,2.47,2.8c2.09-3.35,3.63-4.45,5.36-3.95S1064.29,294.15,1062.65,296.29Z" transform="translate(-1014.07 -242.18)"/><g class="cls-13"><path class="cls-14" d="M1061.8,277a55.27,55.27,0,0,1-4.36-3.65,4.72,4.72,0,0,1,.13,2.78A30.52,30.52,0,0,1,1061.8,277Z" transform="translate(-1014.07 -242.18)"/></g><g class="cls-13"><path class="cls-14" d="M1052.39,284.51a17,17,0,0,0,4.22.94,21.5,21.5,0,0,0,6.5-.38,4.43,4.43,0,0,0,2.66-1.57,3.37,3.37,0,0,0-.25-3.71,7.26,7.26,0,0,0-2.31-1.83h0l-.12-.07a12.42,12.42,0,0,0-1.47-.62,29.77,29.77,0,0,0-4.1-.83,2.68,2.68,0,0,1-.85,1.08c3.79.06,7.2.22,8.19,2.69s-1,5.55-5.55,4.78c-3.08-.69-5.65-1.89-8.36-1.92C1051.49,283.59,1052,284.07,1052.39,284.51Z" transform="translate(-1014.07 -242.18)"/></g><g class="cls-13"><path class="cls-14" d="M1058.49,285.82c-.85,0-1.69-.05-2.51-.13a17.05,17.05,0,0,1-3.25-.79,4,4,0,0,1,1.18,3.06A14.09,14.09,0,0,1,1058.49,285.82Z" transform="translate(-1014.07 -242.18)"/></g><g class="cls-13"><path class="cls-14" d="M1061.26,263.47l.19.32c.53.84,1,1.7,1.64,2.5a5.8,5.8,0,0,0,2,1.88,1.72,1.72,0,0,0,2.46-.93,10,10,0,0,0,.26-2.94c.07-1.72.14-3.45.25-5.17a.86.86,0,0,0,0-.16,2.57,2.57,0,0,1-1-.55c1.32,6.81.66,8.29-1.06,8.42-3.08.24-3.91-4.1-4.62-4.92A5.83,5.83,0,0,1,1061.26,263.47Z" transform="translate(-1014.07 -242.18)"/></g><g class="cls-13"><path class="cls-14" d="M1096.15,305.42c-2-4.84-8.52-17.57-19.81-24.89-5.94-4.61-8.51-11.67-1.59-17.45a4.79,4.79,0,0,1-.33-.64c-3.8,3.29-5.67,7.15-4.08,12.27a9.78,9.78,0,0,0,2.88,4.45c1.33,1.2,2.81,2.2,4.18,3.35a98.52,98.52,0,0,1,8,8,31.61,31.61,0,0,1,5.27,7.11,5.5,5.5,0,0,1,1,2.8c-.07.54-.54,1-1.09.68a6.53,6.53,0,0,1-2-2.41c-.6-1-1.15-2-1.8-2.92-2.06-3-4.73-5.93-8.12-7.43s-7.4-1.68-10.46.47a8.84,8.84,0,0,0-3.33,4.91c-.24.82-.45,1.65-.69,2.47a3.58,3.58,0,0,1,1.19.32s-.93-6.14,6.36-6.52a19.77,19.77,0,0,1,15.11,8.09,108.26,108.26,0,0,1,7.07,12.6c1.36,2.77,2.61,2,3.43,1.58S1098.1,310.25,1096.15,305.42Z" transform="translate(-1014.07 -242.18)"/></g><g class="cls-15"><path class="cls-14" d="M1068.37,268.36a1.46,1.46,0,0,1,0-1.59.63.63,0,0,0-.27.06c-.47.22-.56,1-.2,1.71s1,1.12,1.47.9a.74.74,0,0,0,.17-.12A1.55,1.55,0,0,1,1068.37,268.36Z" transform="translate(-1014.07 -242.18)"/><g class="cls-16"><path class="cls-14" d="M1069.62,267.72a1.53,1.53,0,0,0-1.21-1,1.46,1.46,0,0,0,0,1.59,1.55,1.55,0,0,0,1.21,1A1.48,1.48,0,0,0,1069.62,267.72Z" transform="translate(-1014.07 -242.18)"/></g></g><g class="cls-17"><path class="cls-4" d="M1061.52,247.3a44.71,44.71,0,0,0-8.41,6.17,30.15,30.15,0,0,0-5.81,8,58.59,58.59,0,0,0-5.67,19.34c-.11.8.88-.18,1-.56,1.2-6.05,2.44-12.15,5.08-17.77a28.74,28.74,0,0,1,5.33-7.91,52.68,52.68,0,0,1,8.4-6.7C1061.56,247.76,1061.88,247.08,1061.52,247.3Z" transform="translate(-1014.07 -242.18)"/></g><g class="cls-17"><path class="cls-4" d="M1042.53,289a28.14,28.14,0,0,1-.41-6.79c0-.19-.29.14-.31.22a15,15,0,0,0,.18,7.08C1042,289.68,1042.56,289.15,1042.53,289Z" transform="translate(-1014.07 -242.18)"/></g><path class="cls-18" d="M1075.39,262s1.42,10.37,15.63,12.29a48.36,48.36,0,0,0,11.87.55c2.1-.18,2.9,1.61,2.72,3.71s-1,2.53-7,4.13-12.43,4.51-19.72,12.78c-6.61,8.46-9.58,14.32-21.5,14.63-3.59-.74-6.44-3.6-8.2-3.9,2,0,2.44.36,2.44.36s-6-5-6.87-6.79a5.62,5.62,0,0,0,1.72,1.5,27.61,27.61,0,0,1-.88-2.68,7.24,7.24,0,0,0-.69-1.9,15.18,15.18,0,0,1,1.39,3.08c.62,1.86,1.36,2.67,3.41,4.24s1.94.81,3.3,2.34a5.39,5.39,0,0,0,4,2.06,3.46,3.46,0,0,1-.88-3.67,5.26,5.26,0,0,0,1.28,2.79,7,7,0,0,1-.07-4.18c.18,1.69.58,1.69.58,1.69a4.59,4.59,0,0,0,.77-3.26,4.43,4.43,0,0,1-.11-2.38,6.66,6.66,0,0,0,.55,1.65,2.23,2.23,0,0,1,.81-1.43,11.22,11.22,0,0,0-.51,2.34c-.08,1.47-.3,2.09-.41,3.85s1.36,2.38,3.89,2.05a11.48,11.48,0,0,0,7.22-4c1.72-2.23,2.45-3.55,4.47-6.22s3.15-3.89,3.22-5.2c-2.67,1.68-4.83,2.82-7.44,4.57-.69-.95-.95-1.24-.95-1.24l6.86-4.47s-6.82,1.58-10.16.88c.26-1.79.3-1.94.3-1.94a21.41,21.41,0,0,0,10-.84c5.46-1.8,13.63-8.06,20-10a32.59,32.59,0,0,1-15.76-2.92c-3.77-1.76-6.67-2.2-11.87.69-.81-1.17-.92-1.35-.92-1.35s1.83-3,10.74-2.9c-4-3.15-6.16-9.08-6.16-9.08Z" transform="translate(-1014.07 -242.18)"/><path class="cls-19" d="M1057.41,310.16h0a17.41,17.41,0,0,1-5.46-2.52,9.16,9.16,0,0,0-2.74-1.38.11.11,0,0,1,0-.22,10,10,0,0,1,1.93.17c-1.41-1.21-5.68-4.95-6.46-6.44a.13.13,0,0,1,0-.15.11.11,0,0,1,.14,0,7.75,7.75,0,0,0,1.43,1.33c-.17-.46-.51-1.41-.77-2.4a7.45,7.45,0,0,0-.68-1.87h0a.11.11,0,0,1,.18-.12h0a15.43,15.43,0,0,1,1.4,3.1c.63,1.86,1.36,2.64,3.38,4.19a9.32,9.32,0,0,0,1.76,1.12,4.06,4.06,0,0,1,1.55,1.24,5.43,5.43,0,0,0,3.64,2,3.41,3.41,0,0,1-.77-3.45l0-.1a.11.11,0,0,1,.11-.1.12.12,0,0,1,.11.1,5.44,5.44,0,0,0,.92,2.32,6.47,6.47,0,0,1,.08-3.74.1.1,0,0,1,.11-.07.13.13,0,0,1,.1.1c.12,1.13.34,1.46.44,1.55a4.42,4.42,0,0,0,.7-3.08,4.52,4.52,0,0,1-.11-2.45.12.12,0,0,1,.11-.07.11.11,0,0,1,.1.09,8.49,8.49,0,0,0,.4,1.37c.23-.73.67-1.24.85-1.24a.12.12,0,0,1,.1.05c0,.07,0,.14-.06.37a6.25,6.25,0,0,0-.44,2c0,.73-.11,1.25-.19,1.81s-.16,1.15-.22,2a1.73,1.73,0,0,0,.41,1.35c.56.6,1.71.8,3.35.59a11.47,11.47,0,0,0,7.15-4c.87-1.13,1.49-2,2.15-3s1.33-1.92,2.32-3.24c.36-.48.69-.91,1-1.3,1.29-1.67,2-2.65,2.18-3.62-1,.63-2,1.19-2.86,1.73-1.46.86-2.84,1.68-4.38,2.72a.1.1,0,0,1-.15,0c-.69-.94-1-1.24-1-1.24a.14.14,0,0,1,0-.09s0-.06,0-.07l6.36-4.14a42,42,0,0,1-7.51.93,10.5,10.5,0,0,1-2.11-.18.12.12,0,0,1-.09-.13c.26-1.77.3-1.94.3-1.95a.11.11,0,0,1,.13-.08,17.35,17.35,0,0,0,3.11.25,21.76,21.76,0,0,0,6.87-1.09,54.68,54.68,0,0,0,9-4.57,65.44,65.44,0,0,1,10.17-5.16c-.44,0-.89,0-1.33,0a32.46,32.46,0,0,1-13.65-3,12,12,0,0,0-5.21-1.38,13.63,13.63,0,0,0-6.57,2.08.11.11,0,0,1-.14,0c-.8-1.16-.92-1.35-.92-1.36a.11.11,0,0,1,0-.11,4.73,4.73,0,0,1,2-1.49c1.4-.67,4-1.47,8.52-1.46-3.85-3.18-5.92-8.87-5.94-8.93a.1.1,0,0,1,.05-.13l2.93-1.8a.11.11,0,0,1,.11,0,.1.1,0,0,1,.06.08,12.85,12.85,0,0,0,2.47,5.38c1.94,2.57,5.77,5.83,13.07,6.81a50.25,50.25,0,0,0,7.79.69c1.25,0,2.47-.06,3.88-.13h.47a2.28,2.28,0,0,1,1.76.72,4,4,0,0,1,.78,3.12c-.19,2.11-1,2.58-7.07,4.23-9.74,2.64-15.4,7.92-19.65,12.74-.75.95-1.44,1.87-2.12,2.76-5.32,7-8.83,11.63-19.47,11.91Zm-7.41-3.87a17.7,17.7,0,0,1,2,1.16,17.17,17.17,0,0,0,5.37,2.49c10.52-.28,14-4.87,19.29-11.83.67-.88,1.37-1.8,2.12-2.76,7.61-8.64,14.26-11.33,19.77-12.81,6-1.63,6.72-2.05,6.9-4a3.85,3.85,0,0,0-.72-2.95,2.16,2.16,0,0,0-1.88-.64h-.18c-1.41.07-2.63.13-3.89.13a50.6,50.6,0,0,1-7.82-.69c-4.07-.55-9.67-2.19-13.22-6.9a13.57,13.57,0,0,1-2.48-5.32l-2.72,1.67c.28.73,2.39,6.06,6.09,8.95a.1.1,0,0,1,0,.12.1.1,0,0,1-.1.07c-8.07-.1-10.3,2.39-10.61,2.79l.82,1.21a13.72,13.72,0,0,1,6.59-2.06,12.1,12.1,0,0,1,5.3,1.41,32.44,32.44,0,0,0,13.56,3c.71,0,1.44,0,2.15-.08a.12.12,0,0,1,.11.09.11.11,0,0,1-.07.13c-3.35,1-7.2,3.25-10.92,5.4a54.78,54.78,0,0,1-9.06,4.59,22.15,22.15,0,0,1-6.94,1.1,18.67,18.67,0,0,1-3-.23c0,.17-.09.61-.25,1.72a10.07,10.07,0,0,0,2,.16,44.2,44.2,0,0,0,8-1.05.1.1,0,0,1,.13.06.1.1,0,0,1,0,.13l-6.74,4.4c.11.15.37.47.81,1.07,1.52-1,2.87-1.82,4.3-2.67,1-.57,2-1.17,3.06-1.85a.11.11,0,0,1,.11,0,.09.09,0,0,1,.05.1c-.06,1.12-.84,2.13-2.25,4l-1,1.3c-1,1.32-1.67,2.29-2.32,3.23s-1.28,1.86-2.15,3a11.55,11.55,0,0,1-7.3,4.07c-1.72.22-2.92,0-3.54-.66a1.93,1.93,0,0,1-.47-1.51c.06-.89.14-1.48.22-2.05s.15-1.07.19-1.79a6.64,6.64,0,0,1,.42-2,2.79,2.79,0,0,0-.5,1.13.11.11,0,0,1-.2,0,4.54,4.54,0,0,1-.44-1.16,5.54,5.54,0,0,0,.2,1.8,4.65,4.65,0,0,1-.79,3.35.11.11,0,0,1-.09.05c-.1,0-.43-.11-.63-1.32a7.63,7.63,0,0,0,.22,3.66.11.11,0,0,1,0,.13.11.11,0,0,1-.14,0,5.08,5.08,0,0,1-1.19-2.25c-.17,1.07-.12,1.67,1,3a.09.09,0,0,1,0,.11.1.1,0,0,1-.09.07h0a5.56,5.56,0,0,1-4-2.09,3.94,3.94,0,0,0-1.49-1.2,9,9,0,0,1-1.8-1.13c-2-1.56-2.81-2.4-3.44-4.3-.17-.5-.35-1-.52-1.35l0,.12a24,24,0,0,0,.88,2.65.12.12,0,0,1,0,.12.11.11,0,0,1-.11,0,2.86,2.86,0,0,1-.68-.46,78.83,78.83,0,0,0,5.93,5.56.11.11,0,0,1,0,.16.12.12,0,0,1-.16,0A3.62,3.62,0,0,0,1050,306.29Z" transform="translate(-1014.07 -242.18)"/><g class="cls-16"><path class="cls-2" d="M1095.52,278c-6.17-.14-12.82-1.78-17.08-6.55-1.32-1.48-5.44-6.61-2.61-7.87a9.34,9.34,0,0,1-.44-1.63l-2.94,1.8s2.13,5.93,6.16,9.08c-8.91-.11-10.74,2.9-10.74,2.9s.11.18.92,1.35c5.2-2.89,8.1-2.45,11.87-.69a32.59,32.59,0,0,0,15.76,2.92c-6.34,1.94-14.51,8.2-20,10a21.41,21.41,0,0,1-10,.84s0,.15-.3,1.94c3.34.7,10.16-.88,10.16-.88l-6.86,4.47s.26.29.95,1.24c2.61-1.75,4.77-2.89,7.44-4.57-.07,1.31-1.21,2.52-3.22,5.2s-2.75,4-4.47,6.22a11.48,11.48,0,0,1-7.22,4c-2.53.33-4-.3-3.89-2.05s.33-2.38.41-3.85a11.22,11.22,0,0,1,.51-2.34,2.23,2.23,0,0,0-.81,1.43,6.66,6.66,0,0,1-.55-1.65,4.43,4.43,0,0,0,.11,2.38,4.59,4.59,0,0,1-.77,3.26s-.4,0-.58-1.69a7,7,0,0,0,.07,4.18,5.26,5.26,0,0,1-1.28-2.79,3.46,3.46,0,0,0,.88,3.67,5.39,5.39,0,0,1-4-2.06c-1.36-1.53-1.25-.76-3.3-2.34s-2.79-2.38-3.41-4.24a15.18,15.18,0,0,0-1.39-3.08,7.24,7.24,0,0,1,.69,1.9,27.61,27.61,0,0,0,.88,2.68,5.62,5.62,0,0,1-1.72-1.5c.92,1.75,6.87,6.79,6.87,6.79s-.41-.33-2.44-.36c1.76.3,4.61,3.16,8.2,3.9,11.92-.31,14.89-6.17,21.5-14.63,7.29-8.27,13.78-11.17,19.72-12.78s6.79-2,7-4.13a5.33,5.33,0,0,0-.12-1.81A27.8,27.8,0,0,1,1095.52,278Z" transform="translate(-1014.07 -242.18)"/></g><path class="cls-18" d="M1075.37,261.92c.22.38-.3,1.07-1.14,1.54s-1.71.54-1.92.16.3-1.08,1.15-1.55S1075.16,261.53,1075.37,261.92Z" transform="translate(-1014.07 -242.18)"/><path class="cls-19" d="M1072.9,264a.74.74,0,0,1-.69-.3c-.24-.44.28-1.19,1.19-1.69a3,3,0,0,1,1.39-.42.74.74,0,0,1,.68.3.82.82,0,0,1-.18.86,3.45,3.45,0,0,1-1,.84A3.07,3.07,0,0,1,1072.9,264Zm1.89-2.19a2.79,2.79,0,0,0-1.28.39c-.85.47-1.26,1.11-1.1,1.39.06.13.24.19.49.19a2.75,2.75,0,0,0,1.27-.39,3,3,0,0,0,.94-.77c.19-.25.25-.48.17-.62A.55.55,0,0,0,1074.79,261.78Z" transform="translate(-1014.07 -242.18)"/><path class="cls-18" d="M1067.85,275.68c.18-.12.55.11.82.53s.34.85.15,1-.56-.12-.83-.53S1067.66,275.8,1067.85,275.68Z" transform="translate(-1014.07 -242.18)"/><path class="cls-19" d="M1068.7,277.32a1.17,1.17,0,0,1-.8-.61,1.63,1.63,0,0,1-.26-.64.45.45,0,0,1,.14-.48c.25-.16.68.09,1,.56s.37,1,.12,1.12A.35.35,0,0,1,1068.7,277.32Zm-.74-1.56h-.06c-.05,0-.06.13-.05.27a1.58,1.58,0,0,0,.23.55c.26.39.57.57.68.5s.08-.42-.18-.82S1068.1,275.76,1068,275.76Z" transform="translate(-1014.07 -242.18)"/><path class="cls-18" d="M1066.68,291.17c-.09.53-.36.93-.6.89s-.37-.5-.29-1,.36-.92.6-.89S1066.76,290.65,1066.68,291.17Z" transform="translate(-1014.07 -242.18)"/><path class="cls-19" d="M1066.11,292.17h0c-.31-.05-.48-.54-.38-1.15s.42-1,.73-1,.47.54.37,1.15S1066.41,292.17,1066.11,292.17Zm.26-1.92c-.17,0-.39.33-.47.8s.06.88.19.9h0c.15,0,.38-.33.46-.79s-.06-.88-.2-.91Z" transform="translate(-1014.07 -242.18)"/><path class="cls-18" d="M1070.15,296.12c.25.36.32.75.15.87s-.5-.09-.76-.45-.31-.75-.15-.87S1069.9,295.76,1070.15,296.12Z" transform="translate(-1014.07 -242.18)"/><path class="cls-19" d="M1070.19,297.13a1.09,1.09,0,0,1-.74-.53,1.66,1.66,0,0,1-.25-.57.45.45,0,0,1,.13-.45c.22-.15.62.06.91.48a1.49,1.49,0,0,1,.25.57.42.42,0,0,1-.13.45A.31.31,0,0,1,1070.19,297.13Zm-.68-1.38h-.06s0,.12,0,.24a1.41,1.41,0,0,0,.21.48c.24.33.52.48.61.42a.25.25,0,0,0,0-.23,1.4,1.4,0,0,0-.22-.49A.92.92,0,0,0,1069.51,295.75Z" transform="translate(-1014.07 -242.18)"/><g class="cls-17"><path class="cls-20" d="M1102,275.51c-4.85.16-9.62.16-14.34-1.17a27.7,27.7,0,0,1-6.08-2.87,15.68,15.68,0,0,1-4.61-3.76s-.17.11-.14.16a13.84,13.84,0,0,0,4.46,4,28.92,28.92,0,0,0,5.75,2.82,29.68,29.68,0,0,0,7.42,1.35c1.23.07,2.46,0,3.69,0a13.74,13.74,0,0,0,3.68-.21C1101.94,275.86,1102.17,275.51,1102,275.51Z" transform="translate(-1014.07 -242.18)"/></g><path class="cls-21" d="M1068.9,269.94s7.12,7.76,17.21,10.44c5.85,1.2,9.79,1.5,15.34-.65,1.44-.72,3,.36,3.17,2.8s-.42,3.58-3.28,4.06a43.78,43.78,0,0,0-18.45,8.53,71,71,0,0,0-9.32,9.18c-3.82,4.29-7.26,6.21-12.59,6.68-4.78.42-8.84-2.75-9.92-3.52a14.09,14.09,0,0,0,2.93,1.4,54,54,0,0,0-5-4c-1.65-1-3.11-2.27-3.3-4a8.22,8.22,0,0,0,1.1,1.76,17,17,0,0,1-.58-2.35c.8,1.47.73,2.31,1.35,3.08a4,4,0,0,0,1.62,1.1,8.6,8.6,0,0,1-1.58-2.34c2.42,2.92,2.46,2.67,4.14,3.84s3.48,2.82,4.18,3a9.87,9.87,0,0,0-1.39-2.57,2.83,2.83,0,0,1,1.32,1.72,2.77,2.77,0,0,0,2.93,1.14s-2.25-1.06-1.64-3.2c0,0-.72-.47,0-3.41-.11,2.17.39,2.91.44,3a9.48,9.48,0,0,0,.53-3.84,3.19,3.19,0,0,1-.2-2,15.18,15.18,0,0,0,.53,1.89c.11.66.27.91.33-.05s-.17-5.85,2.36-7.34a7.72,7.72,0,0,0-1.57,3.19c0,.66.8-.44,1.35-1.48-.41,1.76-1.54,2.17-1.65,4s.2,2.21-.53,3.82c-1,2.27-1,4.78,2.16,4.39,4.51-.54,8-.25,14.48-9.88a19.71,19.71,0,0,1-5.17,1.87l-.5-1.67s3.47.72,8.56-4.56,6.71-6.55,9-7.57c-1.58-1.91-7.18-4.1-10.37-3.63s-6.2,3.59-6.2,3.59l-.55-2.2a19.47,19.47,0,0,1,3.3-2.27,10.8,10.8,0,0,1-4.87-1.61l.8-1.54s2.9,2.35,9.17,1.51c-4.11-2.68-9.12-6.63-10.7-9.27A5.93,5.93,0,0,0,1068.9,269.94Z" transform="translate(-1014.07 -242.18)"/><path class="cls-22" d="M1060.11,311.13c-4.21,0-7.77-2.6-8.94-3.46l-.17-.12a.11.11,0,0,1,.12-.19c1.21.67,1.94,1,2.36,1.2A48,48,0,0,0,1049,305c-1.45-.9-3.14-2.19-3.34-4.11a.11.11,0,0,1,.08-.12.11.11,0,0,1,.12.06,9.81,9.81,0,0,0,.72,1.26,12.77,12.77,0,0,1-.41-1.78.1.1,0,0,1,.08-.12.1.1,0,0,1,.12,0,9.14,9.14,0,0,1,.74,1.77,3.76,3.76,0,0,0,.61,1.29,3.44,3.44,0,0,0,1.13.87,6.83,6.83,0,0,1-1.29-2,.11.11,0,0,1,.06-.12.12.12,0,0,1,.14,0c2,2.41,2.36,2.66,3.36,3.32.22.14.46.3.75.51.7.48,1.42,1,2.06,1.55a16.24,16.24,0,0,0,1.84,1.35,8.9,8.9,0,0,0-1.25-2.26.12.12,0,0,1,0-.15.12.12,0,0,1,.15,0,2.83,2.83,0,0,1,1.31,1.65l0,.12a2.67,2.67,0,0,0,2.52,1.13,2.84,2.84,0,0,1-1.45-3.12c-.18-.19-.59-1,.07-3.47a.11.11,0,0,1,.21,0,6.17,6.17,0,0,0,.32,2.73,9.43,9.43,0,0,0,.43-3.56,3.23,3.23,0,0,1-.19-2.07.1.1,0,0,1,.12-.07.1.1,0,0,1,.09.1,3.92,3.92,0,0,0,.29,1.13,2.86,2.86,0,0,1,.23.75c0,.16.06.27.08.35,0-.08,0-.21,0-.39s0-.26,0-.44c0-1.54.1-5.63,2.4-7a.11.11,0,0,1,.14,0,.11.11,0,0,1,0,.15,7.61,7.61,0,0,0-1.54,3.12s0,.06,0,.07a5.68,5.68,0,0,0,1.13-1.61.13.13,0,0,1,.14-.06.12.12,0,0,1,.07.13,5.63,5.63,0,0,1-.85,1.84,4.11,4.11,0,0,0-.8,2.15c0,.53,0,.94,0,1.3a4.88,4.88,0,0,1-.51,2.57c-.66,1.46-.77,2.77-.29,3.51a2.28,2.28,0,0,0,2.34.73l.94-.11c4-.44,7.39-.82,13.19-9.34a21.33,21.33,0,0,1-4.79,1.65.11.11,0,0,1-.12-.08l-.51-1.67a.14.14,0,0,1,0-.11.11.11,0,0,1,.11,0,2.5,2.5,0,0,0,.44,0c1.09,0,4.06-.44,8-4.55,5-5.24,6.68-6.53,8.91-7.54-1.57-1.75-6.23-3.54-9.24-3.54a7,7,0,0,0-.94.06c-3.11.47-6.1,3.53-6.13,3.56a.12.12,0,0,1-.1,0,.11.11,0,0,1-.08-.08l-.55-2.2a.11.11,0,0,1,0-.11,21.8,21.8,0,0,1,3-2.1,11.4,11.4,0,0,1-4.52-1.61.1.1,0,0,1,0-.14l.81-1.54a.08.08,0,0,1,.07-.05.1.1,0,0,1,.09,0s2.11,1.66,6.47,1.66h0a18.79,18.79,0,0,0,2.32-.15c-4.16-2.73-8.95-6.57-10.48-9.13a.11.11,0,0,1,0-.14,6.18,6.18,0,0,0,.93-1.05.1.1,0,0,1,.08-.05.12.12,0,0,1,.09,0c.07.08,7.22,7.77,17.16,10.42a37.33,37.33,0,0,0,7.36.92,21.18,21.18,0,0,0,7.92-1.57,2,2,0,0,1,.92-.23c1.07,0,2.23,1,2.39,3.12.17,2.37-.3,3.66-3.38,4.18a43.55,43.55,0,0,0-18.39,8.5,71.18,71.18,0,0,0-9.3,9.17c-3.9,4.38-7.45,6.26-12.67,6.72C1060.7,311.11,1060.4,311.13,1060.11,311.13Zm-7.55-2.76a14.35,14.35,0,0,0,7.55,2.54c.28,0,.57,0,.86,0,5.22-.46,8.62-2.26,12.52-6.64a71,71,0,0,1,9.33-9.2,44.06,44.06,0,0,1,18.5-8.55c2.92-.49,3.36-1.66,3.19-3.94-.13-1.75-1-2.92-2.17-2.92a1.86,1.86,0,0,0-.84.21,21.38,21.38,0,0,1-8,1.59,37.1,37.1,0,0,1-7.41-.93c-9.4-2.5-16.3-9.46-17.18-10.38a5.23,5.23,0,0,1-.82.92c1.6,2.59,6.46,6.45,10.62,9.15a.11.11,0,0,1,0,.12.1.1,0,0,1-.09.08,18.54,18.54,0,0,1-2.64.19h0a11.35,11.35,0,0,1-6.5-1.63l-.7,1.33a10.8,10.8,0,0,0,4.73,1.54.11.11,0,0,1,.11.09.1.1,0,0,1-.06.12,18.61,18.61,0,0,0-3.22,2.21l.48,1.95c.64-.62,3.32-3.07,6.12-3.49a7.43,7.43,0,0,1,1-.06c3.18,0,8,1.88,9.5,3.73a.08.08,0,0,1,0,.09.13.13,0,0,1-.07.08c-2.26,1-3.88,2.24-9,7.55-4.48,4.64-7.72,4.67-8.49,4.61l.43,1.41a19.45,19.45,0,0,0,5-1.83.11.11,0,0,1,.15.15c-6,9-9.54,9.38-13.61,9.83l-.94.1a2.44,2.44,0,0,1-2.55-.82c-.53-.81-.43-2.17.27-3.72a4.7,4.7,0,0,0,.49-2.48c0-.36,0-.77,0-1.31a4.34,4.34,0,0,1,.83-2.26c.14-.21.28-.43.41-.67-.27.39-.56.72-.74.72a.19.19,0,0,1-.13-.05.38.38,0,0,1-.07-.26,6.42,6.42,0,0,1,1.12-2.61c-1.6,1.61-1.66,5-1.68,6.31,0,.19,0,.35,0,.45,0,.56-.1.74-.25.74s-.2-.05-.3-.67a3.69,3.69,0,0,0-.22-.71,4.44,4.44,0,0,1-.17-.48,6.48,6.48,0,0,0,.27,1.25,9.51,9.51,0,0,1-.53,3.94.13.13,0,0,1-.19,0,4.06,4.06,0,0,1-.46-2c-.35,1.91.12,2.29.12,2.3a.09.09,0,0,1,0,.12c-.57,2,1.56,3.06,1.59,3.07a.11.11,0,0,1,0,.21,2.31,2.31,0,0,1-.61.08,2.79,2.79,0,0,1-2.45-1.28l-.06-.13a2.75,2.75,0,0,0-.63-1.09c.23.4.5,1,1,2a.11.11,0,0,1,0,.12.09.09,0,0,1-.11,0,10.22,10.22,0,0,1-2.17-1.51c-.63-.5-1.35-1.06-2-1.54l-.75-.51a10.51,10.51,0,0,1-2.86-2.69,12.9,12.9,0,0,0,1.19,1.53.12.12,0,0,1,0,.14.11.11,0,0,1-.13,0,4,4,0,0,1-1.66-1.13,3.89,3.89,0,0,1-.65-1.36,8.91,8.91,0,0,0-.36-1c.17.72.43,1.51.43,1.52a.12.12,0,0,1,0,.13.11.11,0,0,1-.14,0,7.18,7.18,0,0,1-.72-1,7,7,0,0,0,3.06,3.13,54.24,54.24,0,0,1,5,4,.1.1,0,0,1,0,.12.12.12,0,0,1-.12.07A7.93,7.93,0,0,1,1052.56,308.37Z" transform="translate(-1014.07 -242.18)"/><g class="cls-17"><path class="cls-23" d="M1101,280.68a27.78,27.78,0,0,1-5.7,1.12,54.88,54.88,0,0,1-5.59-.24,23.84,23.84,0,0,1-4.8-1,16.78,16.78,0,0,1-4.88-2s-.14.1-.1.14a12.92,12.92,0,0,0,4.13,2,25.63,25.63,0,0,0,5.45,1.25c1.85.15,3.72.29,5.58.26a20.35,20.35,0,0,0,5.8-1.22C1101,280.94,1101.17,280.64,1101,280.68Z" transform="translate(-1014.07 -242.18)"/></g><path class="cls-24" d="M1060.44,251.29h-27.79a.3.3,0,0,1-.31-.3.31.31,0,0,1,.31-.31h27.79a.3.3,0,0,1,.3.31A.29.29,0,0,1,1060.44,251.29Z" transform="translate(-1014.07 -242.18)"/><path class="cls-24" d="M1050.22,273h-17.57a.3.3,0,0,1-.31-.3.31.31,0,0,1,.31-.31h17.57a.31.31,0,0,1,.31.31A.3.3,0,0,1,1050.22,273Z" transform="translate(-1014.07 -242.18)"/><path class="cls-24" d="M1109.48,304h-16.35a.31.31,0,1,1,0-.61h16.35a.31.31,0,0,1,0,.61Z" transform="translate(-1014.07 -242.18)"/><path class="cls-24" d="M1109.48,284.8h-9.81a.3.3,0,0,1-.31-.3.31.31,0,0,1,.31-.31h9.81a.3.3,0,0,1,.3.31A.29.29,0,0,1,1109.48,284.8Z" transform="translate(-1014.07 -242.18)"/><path class="cls-24" d="M1109.48,277.45h-9.81a.31.31,0,0,1-.31-.31.3.3,0,0,1,.31-.3h9.81a.29.29,0,0,1,.3.3A.3.3,0,0,1,1109.48,277.45Z" transform="translate(-1014.07 -242.18)"/><path class="cls-24" d="M1060.44,282.35h-27.79a.3.3,0,0,1-.31-.3.31.31,0,0,1,.31-.31h27.79a.3.3,0,0,1,.3.31A.29.29,0,0,1,1060.44,282.35Z" transform="translate(-1014.07 -242.18)"/><path class="cls-24" d="M1026.93,313.82a.31.31,0,0,1-.28-.18.31.31,0,0,1,.1-.38L1046,299.37a.3.3,0,0,1,.42.07.31.31,0,0,1-.07.43l-17.94,13,24.61-5.93a.31.31,0,0,1,.37.22.3.3,0,0,1-.22.37l-26.13,6.3Z" transform="translate(-1014.07 -242.18)"/><path class="cls-24" d="M1109.47,246.39h-28.19a.31.31,0,0,1-.31-.31.3.3,0,0,1,.31-.3h28.19a.3.3,0,0,1,.31.3A.31.31,0,0,1,1109.47,246.39Z" transform="translate(-1014.07 -242.18)"/></g></g></svg>