<svg width="183" height="97" viewBox="0 0 183 97" fill="none" xmlns="http://www.w3.org/2000/svg">
<path d="M3.52568 96.6662C2.5335 84.1701 3.92252 65.9326 8.24678 51.7577C13.9684 32.9639 17.7123 23.1189 39.8525 15.0679C51.5265 15.0679 84.9382 11.8475 116.74 1.78371C132.242 0.700977 150.151 -4.25455 156.19 29.1571C157.8 56.128 184.623 54.5193 175.413 96.7856L3.52568 96.6662Z" fill="#F4F4F4"/>
<path d="M127.294 91.0211L127.15 94.2978C128.019 94.5812 128.936 94.6879 129.847 94.6118L130.201 91.2626" fill="#FEEDE5"/>
<path d="M127.294 91.0211L127.15 94.2978C128.019 94.5812 128.936 94.6879 129.847 94.6118L130.201 91.2626" stroke="black" stroke-width="0.25" stroke-miterlimit="10"/>
<path d="M134.283 64.9439C134.218 65.0727 134.001 66.4816 133.759 68.1643C133.365 70.9338 132.89 74.5004 132.842 74.7178C132.804 75.1633 132.764 75.598 132.721 76.022C131.859 84.9667 131.473 88.807 131.111 93.0499C129.669 93.2179 128.209 93.1362 126.795 92.8084L126.658 74.5648C126.586 71.3444 127.464 63.9616 127.882 59.0988H136.682C136.915 62.5124 134.878 63.7765 134.283 64.9439Z" fill="#4C4C4C" stroke="black" stroke-width="0.25" stroke-miterlimit="10"/>
<path d="M137.302 90.9406L137.785 94.2898C138.637 94.3507 139.493 94.3129 140.337 94.1771L140.498 90.7312" fill="#FEEDE5"/>
<path d="M137.302 90.9406L137.785 94.2898C138.637 94.3507 139.493 94.3129 140.337 94.1771L140.498 90.7312" stroke="black" stroke-width="0.25" stroke-miterlimit="10"/>
<path d="M140.659 61.8201C140.2 64.0663 140.16 71.0868 139.975 74.2669C141.118 79.9831 140.981 93.0338 140.981 93.0338C139.648 93.227 138.298 93.2675 136.956 93.1546C136.956 93.1546 134.315 77.7852 133.864 74.8466C133.792 74.4038 133.727 73.9449 133.655 73.4538C133.019 69.1384 132.286 63.3015 131.811 59.3645L140.812 58.9217C140.937 59.8891 140.885 60.8712 140.659 61.8201V61.8201Z" fill="#4C4C4C" stroke="black" stroke-width="0.25" stroke-miterlimit="10"/>
<path d="M130.587 29.0122C130.316 29.4799 130.181 30.014 130.196 30.5545C130.212 31.095 130.378 31.6204 130.676 32.0716C131.345 32.8467 131.829 33.7633 132.093 34.7526C132.173 36.3225 132.278 38.6573 132.278 38.6573C132.82 38.7569 133.379 38.6982 133.888 38.4882C134.693 38.134 134.162 33.5288 134.162 33.5288C134.162 33.5288 133.663 30.9445 133.582 30.6949C133.502 30.4453 131.924 28.4889 131.924 28.4889L130.587 29.0122Z" fill="#C37B7B" stroke="black" stroke-width="0.25" stroke-miterlimit="10"/>
<path d="M133.043 37.2887C133.229 36.9208 133.307 36.5076 133.268 36.0971C133.268 35.292 133.268 34.5352 133.268 34.5352L133.51 34.1488L134.621 32.3695C134.621 32.3695 136.352 31.3551 136.505 32.4098C136.585 32.9814 136.505 35.3645 136.505 36.5721C136.497 36.7805 136.555 36.986 136.67 37.1595C136.786 37.333 136.953 37.4655 137.149 37.5382L138.34 37.9891C137.632 39.6959 135.289 39.8086 135.289 39.8086C131.964 40.0421 130.716 38.0455 130.716 38.0455C131.509 37.8491 132.286 37.5961 133.043 37.2887V37.2887Z" fill="#FEEDE5" stroke="black" stroke-width="0.25" stroke-miterlimit="10"/>
<path d="M135.579 33.8992C135.384 34.4157 135.075 34.8816 134.675 35.2621C134.275 35.6427 133.794 35.9281 133.268 36.0971V35.1149L135.579 33.8992Z" fill="#FEEDE5" stroke="black" stroke-width="0.25" stroke-miterlimit="10"/>
<path d="M130.636 28.5372C130.636 28.5372 130.306 35.0746 132.173 35.3725C132.905 35.3638 133.625 35.1864 134.277 34.8541C134.929 34.5217 135.496 34.0434 135.933 33.4564C136.763 32.2792 137.202 30.8711 137.189 29.4309C137.036 27.3134 131.562 25.6308 130.636 28.5372Z" fill="#FEEDE5" stroke="black" stroke-width="0.25" stroke-miterlimit="10"/>
<path d="M137.245 28.1508C137.245 28.1508 136.601 25.7355 133.365 26.1783C130.128 26.6211 128.655 29.1813 130.515 31.814C130.313 31.1279 130.359 30.3927 130.644 29.7368C130.644 29.7368 130.982 29.3504 131.843 29.6483C132.581 29.9794 133.408 30.0558 134.194 29.8656C134.203 30.1952 134.322 30.5123 134.532 30.7663C134.742 31.0202 135.031 31.1964 135.353 31.2665V31.2665C135.489 31.4663 135.661 31.6384 135.861 31.7737C136.064 32.2713 136.183 32.799 136.215 33.3356C136.215 33.9153 136.279 35.2437 136.384 36.5963C136.412 36.8437 136.516 37.0764 136.682 37.2623C136.848 37.4482 137.067 37.5783 137.31 37.6348L138.115 38.9955C138.115 38.9955 138.252 37.5221 138.244 34.8573C138.654 33.4081 139.508 29.1008 137.245 28.1508Z" fill="#C37B7B" stroke="black" stroke-width="0.25" stroke-miterlimit="10"/>
<path d="M132.367 38.3111L129.525 43.3994L128.897 43.5282L127.52 43.7939L126.425 43.9951C126.1 43.3574 125.867 42.6771 125.733 41.9743C125.592 41.272 125.521 40.5572 125.523 39.8408C126.175 39.5993 128.744 38.6895 130.072 38.1904C130.693 38.0322 131.343 38.0322 131.964 38.1904C132.066 38.2128 132.166 38.2452 132.262 38.287L132.367 38.3111Z" fill="white" stroke="black" stroke-width="0.25" stroke-miterlimit="10"/>
<path d="M129.098 41.6443L128.897 43.5282L127.52 43.7939L129.098 41.6443Z" fill="#92D0EF" stroke="black" stroke-width="0.25" stroke-miterlimit="10"/>
<path d="M127.6 59.131C127.705 58.3662 128.631 50.4762 128.872 48.3749C128.914 48.0545 128.858 47.7291 128.711 47.441C128.322 46.686 128.069 45.8684 127.963 45.0257C127.898 43.9388 129.017 42.1354 129.178 41.3142C129.315 40.6459 129.903 38.8023 130.104 38.1582L130.209 38.1099C130.943 37.8464 131.69 37.6207 132.447 37.4336H132.503C132.503 37.4336 133.566 40.4285 137.334 37.5382C137.535 37.5865 139.701 38.0616 140.554 39.4866C141.657 41.29 141.11 43.8583 140.949 45.1706C140.723 47.0545 140.321 48.9948 140.144 50.8063C140.007 52.2313 141.021 58.6882 141.118 59.4772C137.237 60.7815 130.475 60.4111 127.6 59.131Z" fill="white" stroke="black" stroke-width="0.25" stroke-miterlimit="10"/>
<path d="M139.854 44.293C139.854 44.293 136.102 49.5664 134.025 50.2025C134.025 50.2025 133.405 50.5165 132.037 49.1478C130.668 47.7791 139.854 44.293 139.854 44.293Z" fill="white" stroke="black" stroke-width="0.25" stroke-miterlimit="10"/>
<path d="M130.193 38.134C130.927 37.8706 131.674 37.6449 132.431 37.4577Z" fill="#ABE0FF"/>
<path d="M130.193 38.134C130.927 37.8706 131.674 37.6449 132.431 37.4577" stroke="black" stroke-width="0.25" stroke-miterlimit="10"/>
<path d="M141.142 59.4772C139.486 60.0672 137.747 60.3933 135.989 60.4433C134.021 60.5583 132.046 60.4012 130.12 59.9764C129.253 59.7807 128.408 59.4947 127.6 59.123C129.233 59.6211 130.92 59.9212 132.624 60.0166C134.595 60.1628 136.575 60.1358 138.542 59.9361C139.417 59.8347 140.285 59.6815 141.142 59.4772V59.4772Z" fill="#92D0EF" stroke="black" stroke-width="0.25" stroke-miterlimit="10"/>
<path d="M135.233 31.4919C135.233 31.4919 135.643 30.4292 136.336 30.9847C136.835 31.3873 136.682 33.2471 135.748 33.3034" fill="#FEEDE5"/>
<path d="M135.233 31.4919C135.233 31.4919 135.643 30.4292 136.336 30.9847C136.835 31.3873 136.682 33.2471 135.748 33.3034" stroke="black" stroke-width="0.25" stroke-miterlimit="10"/>
<path d="M129.903 94.0804C129.903 94.0804 130.539 94.5715 130.539 96.3991H123.341C123.295 96.0752 123.376 95.7459 123.569 95.4813C123.761 95.2166 124.049 95.0375 124.372 94.9821C125.588 94.6359 127.158 93.9919 127.158 93.9919C127.576 93.8875 128.01 93.8629 128.438 93.9194C128.913 94.0566 129.409 94.111 129.903 94.0804V94.0804Z" fill="#191919" stroke="black" stroke-width="0.25" stroke-miterlimit="10"/>
<path d="M140.345 94.0804C140.345 94.0804 140.973 94.5715 140.973 96.3991H133.783C133.732 96.0746 133.812 95.7431 134.006 95.4774C134.199 95.2118 134.49 95.0336 134.814 94.9821C136.134 94.6198 137.745 94.008 137.745 94.008C138.111 93.8884 138.5 93.858 138.88 93.9194C139.355 94.0569 139.851 94.1114 140.345 94.0804V94.0804Z" fill="#191919" stroke="black" stroke-width="0.25" stroke-miterlimit="10"/>
<path d="M100.702 52.8271C100.91 56.2496 100.792 59.6841 100.348 63.0841C100.135 65.2613 99.572 67.39 98.6812 69.388C98.3139 70.1613 97.7913 70.8507 97.1458 71.4131C96.5003 71.9755 95.7458 72.3988 94.9294 72.6567C94.9038 72.6631 94.8818 72.6794 94.8682 72.7021C94.8546 72.7247 94.8506 72.7519 94.857 72.7775C94.8634 72.8031 94.8797 72.8251 94.9024 72.8387C94.925 72.8523 94.9521 72.8563 94.9778 72.8499C97.4655 72.1254 98.8503 69.9757 99.5829 67.6329C100.36 64.9412 100.803 62.1643 100.903 59.3645C101.024 57.187 101.024 55.0046 100.903 52.8271C100.897 52.8052 100.884 52.786 100.866 52.7723C100.847 52.7586 100.825 52.7512 100.803 52.7512C100.78 52.7512 100.758 52.7586 100.74 52.7723C100.722 52.786 100.708 52.8052 100.702 52.8271V52.8271Z" fill="#DF2925"/>
<path d="M80.2765 36.2098C80.2765 45.6053 80.6952 58.2937 78.9965 64.018C78.618 65.1184 78.0215 66.1311 77.2427 66.9957C76.4639 67.8603 75.5187 68.5589 74.4637 69.0499" stroke="#DF2925" stroke-width="0.25" stroke-miterlimit="10"/>
<path d="M87.9813 58.8251C86.1789 59.8601 84.8205 61.5223 84.1651 63.4947C83.5286 65.448 83.1233 67.4691 82.9575 69.5168C82.2168 75.598 81.3419 81.6524 80.3328 87.6799C80.1596 89.3768 79.6419 91.0206 78.8113 92.5105C77.8854 93.9355 76.1785 94.9902 74.52 94.636" stroke="#DF2925" stroke-width="0.25" stroke-miterlimit="10"/>
<path d="M116.579 41.8938H110.242V40.9116L116.603 41.3866C116.667 41.3926 116.726 41.4224 116.77 41.4701C116.813 41.5178 116.837 41.5799 116.836 41.6443C116.836 41.6777 116.83 41.7109 116.817 41.7417C116.803 41.7725 116.784 41.8003 116.76 41.8236C116.736 41.8469 116.708 41.8651 116.677 41.8772C116.645 41.8893 116.612 41.8949 116.579 41.8938V41.8938Z" fill="#CECECE" stroke="black" stroke-width="0.25" stroke-miterlimit="10"/>
<path d="M120.91 48.0367H104.43V49.3491H120.91V48.0367Z" fill="#A8A8A8" stroke="black" stroke-width="0.25" stroke-miterlimit="10"/>
<path d="M90.5013 33.9877C91.6479 33.9877 92.7476 34.4432 93.5584 35.254C94.3692 36.0648 94.8247 37.1645 94.8247 38.3111V96.3991H86.1457V38.3353C86.1425 37.7628 86.253 37.1953 86.4709 36.6659C86.6887 36.1364 87.0095 35.6555 87.4148 35.2511C87.82 34.8466 88.3015 34.5267 88.8313 34.3098C89.3611 34.0929 89.9288 33.9835 90.5013 33.9877V33.9877Z" fill="#DBDBDD" stroke="black" stroke-width="0.25" stroke-miterlimit="10"/>
<path d="M121.111 26.291H103.858V21.3477H103.552V30.4131H103.858V28.5453H121.111V26.291Z" fill="#A8A8A8" stroke="black" stroke-width="0.25" stroke-miterlimit="10"/>
<path d="M102.682 20.6472C102.913 20.6472 103.134 20.7388 103.297 20.9019C103.46 21.065 103.552 21.2861 103.552 21.5167V54.4695C103.552 54.7001 103.46 54.9213 103.297 55.0843C103.134 55.2474 102.913 55.339 102.682 55.339V55.339C100.902 55.339 99.1938 54.6316 97.9345 53.3724C96.6753 52.1131 95.9679 50.4053 95.9679 48.6245V27.3618C95.9679 25.581 96.6753 23.8731 97.9345 22.6139C99.1938 21.3546 100.902 20.6472 102.682 20.6472V20.6472Z" fill="#DBDBDD" stroke="black" stroke-width="0.25" stroke-miterlimit="10"/>
<path d="M103.866 26.4762V21.3879C103.866 21.1915 103.944 21.0031 104.083 20.8642C104.222 20.7253 104.41 20.6472 104.607 20.6472H116.506C117.185 20.6462 117.858 20.7791 118.485 21.0385C119.113 21.2979 119.683 21.6786 120.163 22.1587C120.644 22.6389 121.024 23.2092 121.284 23.8367C121.543 24.4643 121.676 25.1369 121.675 25.816V26.4762C121.675 26.5734 121.656 26.6698 121.618 26.7596C121.581 26.8495 121.527 26.9311 121.458 26.9999C121.389 27.0687 121.307 27.1233 121.218 27.1605C121.128 27.1977 121.031 27.2168 120.934 27.2168H104.631C104.532 27.2201 104.433 27.2033 104.34 27.1676C104.247 27.1318 104.163 27.0777 104.091 27.0086C104.02 26.9395 103.963 26.8568 103.925 26.7653C103.886 26.6738 103.866 26.5755 103.866 26.4762V26.4762Z" fill="#DBDBDD" stroke="black" stroke-width="0.25" stroke-miterlimit="10"/>
<path d="M103.866 49.5181V54.5983C103.866 54.7955 103.944 54.9847 104.082 55.1249C104.221 55.2651 104.41 55.3449 104.607 55.347H116.506C117.877 55.347 119.192 54.8025 120.161 53.8332C121.13 52.8638 121.675 51.5492 121.675 50.1783V49.5181C121.675 49.4209 121.656 49.3245 121.618 49.2347C121.581 49.1448 121.527 49.0632 121.458 48.9944C121.389 48.9256 121.307 48.871 121.218 48.8338C121.128 48.7966 121.031 48.7774 120.934 48.7774H104.631C104.532 48.7742 104.433 48.791 104.34 48.8267C104.247 48.8625 104.163 48.9165 104.091 48.9857C104.02 49.0548 103.963 49.1375 103.925 49.229C103.886 49.3205 103.866 49.4188 103.866 49.5181V49.5181Z" fill="#DBDBDD" stroke="black" stroke-width="0.25" stroke-miterlimit="10"/>
<path d="M120.033 27.5872H105.468C104.579 27.5872 103.858 28.3081 103.858 29.1974V29.3262C103.858 30.2155 104.579 30.9364 105.468 30.9364H120.033C120.922 30.9364 121.643 30.2155 121.643 29.3262V29.1974C121.643 28.3081 120.922 27.5872 120.033 27.5872Z" fill="#CECECE" stroke="black" stroke-width="0.25" stroke-miterlimit="10"/>
<path d="M99.0274 27.7885C99.0274 27.2238 98.5714 26.766 98.0089 26.766C97.4465 26.766 96.9905 27.2238 96.9905 27.7885V47.1028C96.9905 47.6675 97.4465 48.1253 98.0089 48.1253C98.5714 48.1253 99.0274 47.6675 99.0274 47.1028V27.7885Z" fill="#EAEAEA" stroke="black" stroke-width="0.25" stroke-miterlimit="10"/>
<path d="M103.858 49.5181H103.552V54.6466H103.858V49.5181Z" fill="#A8A8A8" stroke="black" stroke-width="0.25" stroke-miterlimit="10"/>
<path d="M120.548 46.3219H104.953C104.348 46.3219 103.858 46.8121 103.858 47.4168C103.858 48.0216 104.348 48.5118 104.953 48.5118H120.548C121.152 48.5118 121.643 48.0216 121.643 47.4168C121.643 46.8121 121.152 46.3219 120.548 46.3219Z" fill="#CECECE" stroke="black" stroke-width="0.25" stroke-miterlimit="10"/>
<path d="M110.403 44.6875H109.131C108.411 44.6875 107.827 45.2715 107.827 45.9918V46.1126C107.827 46.8329 108.411 47.4168 109.131 47.4168H110.403C111.124 47.4168 111.708 46.8329 111.708 46.1126V45.9918C111.708 45.2715 111.124 44.6875 110.403 44.6875Z" fill="#C1C1C1" stroke="black" stroke-width="0.25" stroke-miterlimit="10"/>
<path d="M110.895 41.4108H109.582V44.6875H110.895V41.4108Z" fill="#C1C1C1" stroke="black" stroke-width="0.25" stroke-miterlimit="10"/>
<path d="M110.895 44.438H109.582V44.6875H110.895V44.438Z" fill="#A8A8A8" stroke="black" stroke-width="0.25" stroke-miterlimit="10"/>
<path d="M110.242 42.6587C110.932 42.6587 111.49 42.1 111.49 41.4108C111.49 40.7216 110.932 40.1629 110.242 40.1629C109.553 40.1629 108.995 40.7216 108.995 41.4108C108.995 42.1 109.553 42.6587 110.242 42.6587Z" fill="#C1C1C1" stroke="black" stroke-width="0.25" stroke-miterlimit="10"/>
<path d="M110.242 42.071C110.607 42.071 110.903 41.7754 110.903 41.4108C110.903 41.0462 110.607 40.7506 110.242 40.7506C109.878 40.7506 109.582 41.0462 109.582 41.4108C109.582 41.7754 109.878 42.071 110.242 42.071Z" fill="#CECECE" stroke="black" stroke-width="0.25" stroke-miterlimit="10"/>
<path d="M95.509 38.1501C95.509 37.7499 95.1846 37.4255 94.7844 37.4255C94.3842 37.4255 94.0598 37.7499 94.0598 38.1501V78.4374C94.0598 78.8375 94.3842 79.1619 94.7844 79.1619C95.1846 79.1619 95.509 78.8375 95.509 78.4374V38.1501Z" fill="#CECECE" stroke="black" stroke-width="0.25" stroke-miterlimit="10"/>
<path d="M95.9679 38.4158H95.509V49.9368H95.9679V38.4158Z" fill="#A8A8A8" stroke="black" stroke-width="0.25" stroke-miterlimit="10"/>
<path d="M86.9509 92.3253H100.976C101.504 92.3253 102.028 92.4294 102.516 92.6318C103.005 92.8341 103.448 93.1306 103.822 93.5044C104.196 93.8782 104.492 94.3219 104.695 94.8103C104.897 95.2987 105.001 95.8222 105.001 96.3508V96.3508H82.8529C82.8528 95.816 82.9593 95.2866 83.1661 94.7934C83.3729 94.3002 83.6759 93.8532 84.0575 93.4784C84.439 93.1037 84.8913 92.8087 85.3881 92.6107C85.8849 92.4127 86.4162 92.3157 86.9509 92.3253V92.3253Z" fill="#CECECE" stroke="black" stroke-width="0.25" stroke-miterlimit="10"/>
<path d="M121.981 93.5974C121.907 92.9985 121.907 92.3928 121.981 91.7939C120.977 91.9844 119.959 92.0921 118.938 92.116C119.099 93.3317 119.211 94.1126 119.211 94.1126L120.886 94.4427L121.981 93.5974Z" fill="#FEEDE5" stroke="black" stroke-width="0.25" stroke-miterlimit="10"/>
<path d="M121.981 93.5974C121.043 93.8616 120.046 93.825 119.131 93.4927C119.131 93.4927 116.103 94.8453 115.371 95.2639C114.783 95.594 114.477 96.3991 115.089 96.3991H122.44C122.599 95.9303 122.64 95.4295 122.56 94.9409C122.48 94.4524 122.281 93.991 121.981 93.5974V93.5974Z" fill="#191919" stroke="black" stroke-width="0.25" stroke-miterlimit="10"/>
<path d="M131.867 90.7554C131.698 90.385 131.312 89.3625 131.312 89.3625C130.538 89.9095 129.674 90.3156 128.76 90.5622L129.307 91.6812C129.778 91.8022 130.273 91.7786 130.73 91.6134C131.187 91.4482 131.583 91.1492 131.867 90.7554V90.7554Z" fill="#FEEDE5" stroke="black" stroke-width="0.25" stroke-miterlimit="10"/>
<path d="M125.741 55.5242C122.061 56.5386 117.287 55.7657 115.274 55.4115C115.666 53.8917 115.975 52.3517 116.2 50.7982C116.281 49.8804 115.709 47.9562 115.395 46.2977C115.339 45.6859 115.282 45.6617 115.258 45.1787C115.254 45.1331 115.254 45.0873 115.258 45.0418C115.258 44.5587 114.509 43.8744 114.509 43.8744C114.537 43.8306 114.561 43.7848 114.582 43.7375C114.872 43.19 115.926 41.2014 116.256 40.7184C116.957 39.6959 118.422 37.498 118.422 37.498C119.664 37.3743 120.847 36.912 121.844 36.1615C121.937 36.447 122.07 36.718 122.238 36.9666C123.417 38.422 124.244 40.1304 124.654 41.9582C125.044 44.4497 125.011 46.9892 124.557 49.4698C123.889 53.3102 124.96 53.4953 125.741 55.5242Z" fill="#FEEDE5" stroke="black" stroke-width="0.25" stroke-miterlimit="10"/>
<path d="M116.506 43.7375C116.506 43.7375 116.562 44.3735 115.274 45.0418C115.274 44.5587 114.526 43.8744 114.526 43.8744C114.553 43.8306 114.577 43.7848 114.598 43.7375H116.506Z" fill="#FEEDE5" stroke="black" stroke-width="0.25" stroke-miterlimit="10"/>
<path d="M131.529 89.6282C131.046 90.3367 128.695 91.166 127.278 91.2384C126.409 89.4511 120.765 75.2894 120.58 74.6695C119.938 71.3438 119.591 67.9681 119.541 64.5815C119.541 63.1968 119.541 62.2468 119.541 62.2468L120.99 55.7093C122.549 55.7116 124.106 55.585 125.644 55.3309C126.361 56.5071 126.822 57.8211 126.996 59.1874C127.214 61.2967 126.473 62.3595 126.191 63.2612C126.014 63.865 126.61 70.2897 126.699 73.5906C128.164 78.4534 131.529 89.6282 131.529 89.6282Z" fill="#4C4C4C" stroke="black" stroke-width="0.25" stroke-miterlimit="10"/>
<path d="M123.277 55.6449C120.618 55.7759 117.953 55.6979 115.306 55.4115C114.9 57.1717 114.668 58.9677 114.614 60.7734C114.537 62.6535 114.59 64.5366 114.775 66.4091C114.775 66.4091 117.327 87.2129 118.036 92.3575C119.513 92.4385 120.995 92.3001 122.432 91.9469C122.601 87.696 121.474 74.0334 121.474 74.0334C121.474 74.0334 122.367 64.4366 122.947 63.0518C124.179 61.5463 124.42 57.9717 123.277 55.6449Z" fill="#4C4C4C" stroke="black" stroke-width="0.25" stroke-miterlimit="10"/>
<path d="M114.091 29.6402C113.992 29.8461 113.939 30.0705 113.934 30.2987C113.928 30.5268 113.972 30.7535 114.061 30.9636C114.15 31.1737 114.283 31.3625 114.45 31.5174C114.618 31.6724 114.816 31.7899 115.033 31.8623C116.393 32.45 115.604 29.9944 115.604 29.9944" fill="#C37B7B"/>
<path d="M114.091 29.6402C113.992 29.8461 113.939 30.0705 113.934 30.2987C113.928 30.5268 113.972 30.7535 114.061 30.9636C114.15 31.1737 114.283 31.3625 114.45 31.5174C114.618 31.6724 114.816 31.7899 115.033 31.8623C116.393 32.45 115.604 29.9944 115.604 29.9944" stroke="black" stroke-width="0.25" stroke-miterlimit="10"/>
<path d="M119.944 38.0132C119.944 38.0132 118.132 37.7395 118.454 37.5141C118.546 37.425 118.615 37.3164 118.658 37.1965C118.702 37.0766 118.717 36.9485 118.704 36.8217C118.715 36.6663 118.715 36.5102 118.704 36.3547C118.638 35.9744 118.533 35.6021 118.39 35.2437C118.285 34.9458 118.189 34.7445 118.189 34.7445L119.388 32.4097L120.821 31.9508L122.158 36.9747" fill="#FEEDE5"/>
<path d="M119.944 38.0132C119.944 38.0132 118.132 37.7395 118.454 37.5141C118.546 37.425 118.615 37.3164 118.658 37.1965C118.702 37.0766 118.717 36.9485 118.704 36.8217C118.715 36.6663 118.715 36.5102 118.704 36.3547C118.638 35.9744 118.533 35.6021 118.39 35.2437C118.285 34.9458 118.189 34.7445 118.189 34.7445L119.388 32.4097L120.821 31.9508L122.158 36.9747" stroke="black" stroke-width="0.25" stroke-miterlimit="10"/>
<path d="M119.606 34.7123C119.442 35.3239 119.117 35.8801 118.664 36.3225C118.598 35.9422 118.493 35.5699 118.35 35.2115L119.606 34.7123Z" fill="#FEEDE5" stroke="black" stroke-width="0.25" stroke-miterlimit="10"/>
<path d="M121.683 31.1296C121.683 31.1296 119.928 31.4758 119.646 32.8204C119.517 33.4242 120.113 34.7123 119.018 35.4772C118.232 35.9501 117.326 36.185 116.409 36.1535C114.799 35.7429 114.856 31.2665 114.864 30.6144C114.872 29.9622 115.089 27.6436 117.327 27.3537C119.565 27.0639 121.796 27.9897 121.683 31.1296Z" fill="#FEEDE5" stroke="black" stroke-width="0.25" stroke-miterlimit="10"/>
<path d="M122.255 32.3534C122.085 32.7881 122.577 34.8331 121.449 34.4869C121.267 33.8155 120.996 33.1712 120.644 32.5708C120.04 32.2085 116.764 31.8542 116.619 30.6063C114.397 31.2746 113.72 29.3906 113.938 28.6097C114.155 27.8287 116.474 26.0333 119.211 26.3151C121.562 26.5647 123.357 29.5033 122.255 32.3534Z" fill="#C37B7B" stroke="black" stroke-width="0.25" stroke-miterlimit="10"/>
<path d="M131.867 90.7554C132.635 91.3798 133.196 92.2217 133.478 93.1707C133.478 93.1707 132.463 94.1046 130.966 95.3042C130.668 95.5457 129.734 96.3669 129.355 96.3669H127.085C126.827 96.3669 126.546 96.0449 126.65 95.8033C126.768 95.5867 126.931 95.3982 127.128 95.2508C127.325 95.1035 127.553 95.0008 127.794 94.9499C128.366 93.8834 128.869 92.7808 129.299 91.649C129.824 91.6446 130.344 91.5492 130.837 91.3673C131.21 91.217 131.557 91.0106 131.867 90.7554V90.7554Z" fill="#191919" stroke="black" stroke-width="0.25" stroke-miterlimit="10"/>
<path d="M121.876 36.1776C122.049 36.4621 122.283 36.7044 122.562 36.8869C122.841 37.0693 123.156 37.1873 123.486 37.2323C124.322 37.2825 125.121 37.5921 125.773 38.1179C128.051 40.5332 124.911 46.4185 124.911 46.4185L123.124 44.5104L121.876 36.1776Z" fill="#FEEDE5" stroke="black" stroke-width="0.25" stroke-miterlimit="10"/>
<path d="M115.153 38.8666C114.002 39.6717 108.978 43.0612 108.334 43.496C106.313 43.0919 104.252 42.9137 102.191 42.9646C101.922 42.9604 101.653 42.9416 101.386 42.9083C101.086 42.838 100.808 42.691 100.581 42.4816C100.403 42.3346 100.205 42.2127 99.9934 42.1193C99.0495 41.8088 98.0869 41.5587 97.1112 41.3705C96.9582 41.3705 96.7892 41.8375 97.3125 42.0951L97.6909 42.2722H97.2964C97.1434 42.2722 97.0629 42.1031 97.0146 42.0387C96.8025 42.0229 96.5898 42.0588 96.3947 42.1434C96.3034 42.3032 96.2695 42.4894 96.2988 42.671C96.3281 42.8527 96.4188 43.0188 96.5556 43.1417C96.5461 43.2887 96.5771 43.4355 96.6453 43.5661C96.7134 43.6967 96.8161 43.8061 96.9421 43.8824C96.9421 43.8824 97.0227 44.446 97.4252 44.607C97.4252 44.607 97.6989 45.1223 98.1095 45.1545C98.9397 45.1536 99.7676 45.07 100.581 44.9049L100.766 44.8647C101.005 44.8723 101.243 44.9047 101.475 44.9613V44.9613C103.89 45.6859 107.964 46.821 109.679 46.2977C109.679 46.2977 112.191 45.4926 113.857 44.8163C115.524 44.1401 117.15 43.5282 117.15 43.5282L118.479 37.5302C117.305 37.7928 116.182 38.2442 115.153 38.8666Z" fill="#FEEDE5" stroke="black" stroke-width="0.25" stroke-miterlimit="10"/>
<path d="M125.129 40.7184C125.329 42.6188 125.258 44.5379 124.919 46.4185L125.129 40.7184Z" fill="black"/>
<path d="M85.1152 19.6006H74.1095C70.3612 19.6006 67.3225 22.6392 67.3225 26.3876V30.6949C67.3225 34.4432 70.3612 37.4819 74.1095 37.4819H85.1152C88.8636 37.4819 91.9022 34.4432 91.9022 30.6949V26.3876C91.9022 22.6392 88.8636 19.6006 85.1152 19.6006Z" fill="#CECECE" stroke="black" stroke-width="0.25" stroke-miterlimit="10"/>
<path d="M86.5403 20.3896H72.6926C70.1448 20.3896 68.0793 22.455 68.0793 25.0028V32.0716C68.0793 34.6194 70.1448 36.6848 72.6926 36.6848H86.5403C89.0881 36.6848 91.1535 34.6194 91.1535 32.0716V25.0028C91.1535 22.455 89.0881 20.3896 86.5403 20.3896Z" fill="#0A9D57" stroke="black" stroke-width="0.25" stroke-miterlimit="10"/>
<path opacity="0.57" d="M82.8368 27.5469C82.268 27.4129 81.6692 27.5083 81.1702 27.8126C80.9689 27.9173 80.7757 28.03 80.5906 28.1427C80.3324 28.3082 80.0635 28.4561 79.7855 28.5855C79.1312 28.7633 78.444 28.7826 77.7808 28.6419C77.6538 28.6047 77.5248 28.5751 77.3943 28.5533C76.8575 28.4583 76.3058 28.4914 75.7841 28.6499C75.7572 28.3747 75.6949 28.1041 75.5989 27.8448C75.9658 27.3947 76.4238 27.0271 76.9428 26.7662C77.4617 26.5054 78.0299 26.3572 78.6101 26.3312C78.8113 26.3312 79.0126 26.3312 79.2139 26.3312C79.6932 26.3701 80.1756 26.3237 80.6388 26.1944C81.037 26.029 81.4046 25.7977 81.7258 25.51C81.7401 25.4958 81.7515 25.4789 81.7593 25.4602C81.7671 25.4416 81.7711 25.4216 81.7711 25.4013C81.7711 25.3811 81.7671 25.3611 81.7593 25.3425C81.7515 25.3238 81.7401 25.3069 81.7258 25.2927C81.6948 25.2649 81.6546 25.2496 81.6131 25.2496C81.5715 25.2496 81.5313 25.2649 81.5003 25.2927C81.2025 25.5591 80.8624 25.774 80.494 25.9287C80.0703 26.0487 79.6277 26.0869 79.1897 26.0414C78.9884 26.0414 78.7791 26.0414 78.5698 26.0414C77.9726 26.0654 77.3867 26.2114 76.8481 26.4703C76.3095 26.7292 75.8296 27.0956 75.4379 27.5469C75.3481 27.3547 75.2402 27.1714 75.1158 26.9995C75.2855 26.8323 75.4417 26.6519 75.5829 26.4601C75.8277 26.1001 76.1232 25.7774 76.4604 25.502C76.7896 25.2307 77.1886 25.0577 77.6116 25.0028C77.9633 24.9881 78.3153 25.0206 78.6583 25.0994C79.0664 25.1991 79.4888 25.2263 79.9063 25.1799C79.9432 25.1679 79.9745 25.1429 79.9945 25.1095C80.0145 25.0761 80.0217 25.0367 80.0149 24.9984C80.008 24.9601 79.9875 24.9256 79.9572 24.9013C79.9268 24.8769 79.8887 24.8644 79.8498 24.8659C79.4697 24.9067 79.0853 24.8794 78.7147 24.7854C78.5 24.7479 78.2826 24.7157 78.0625 24.6888C78.2159 24.3021 78.4587 23.9572 78.771 23.6825C78.9191 23.5742 79.0817 23.4874 79.2541 23.4248C79.687 23.2551 80.15 23.1757 80.6147 23.1913H80.8885C81.1868 23.2435 81.4919 23.2435 81.7902 23.1913C81.8309 23.1783 81.8653 23.1503 81.8862 23.1129C81.9071 23.0755 81.9131 23.0316 81.9029 22.9901C81.8899 22.9496 81.8615 22.9159 81.8238 22.8963C81.7861 22.8767 81.7422 22.8728 81.7016 22.8854C81.4354 22.933 81.1628 22.933 80.8965 22.8854H80.6067C80.0956 22.8634 79.5855 22.9484 79.1092 23.135C78.9121 23.2136 78.7255 23.3164 78.5536 23.4409C78.1691 23.7805 77.8734 24.2089 77.6922 24.6888H77.5553C77.0737 24.7501 76.619 24.9454 76.243 25.2524C75.8784 25.546 75.5607 25.8935 75.301 26.2829C75.1776 26.4475 75.0431 26.6035 74.8985 26.7499L74.7858 26.6291C74.7716 26.6148 74.7547 26.6034 74.736 26.5956C74.7173 26.5878 74.6973 26.5838 74.6771 26.5838C74.6569 26.5838 74.6369 26.5878 74.6183 26.5956C74.5996 26.6034 74.5827 26.6148 74.5684 26.6291C74.5389 26.6592 74.5223 26.6997 74.5223 26.7418C74.5223 26.784 74.5389 26.8244 74.5684 26.8545C75.1019 27.4073 75.4092 28.1396 75.4298 28.9075C75.4512 29.6755 75.1873 30.4241 74.6892 31.0089C74.6697 31.0316 74.6568 31.0594 74.6522 31.0891C74.6476 31.1187 74.6514 31.1491 74.6631 31.1767C74.6748 31.2043 74.694 31.2281 74.7185 31.2454C74.743 31.2627 74.7719 31.2728 74.8018 31.2745C74.8247 31.2738 74.8473 31.2685 74.8681 31.2588C74.8888 31.2491 74.9074 31.2353 74.9226 31.2182C75.0414 31.084 75.1466 30.9384 75.2366 30.7834C75.6099 30.9342 75.964 31.1288 76.2914 31.3631C76.6654 31.6568 77.0178 31.977 77.346 32.3212L77.7244 32.6915L77.9579 32.933C78.3238 33.383 78.7853 33.7458 79.3089 33.995C79.8325 34.2443 80.4051 34.3738 80.9851 34.3742C81.1245 34.3821 81.2643 34.3821 81.4037 34.3742C81.4393 34.3661 81.4711 34.3461 81.4938 34.3176C81.5166 34.2891 81.5289 34.2537 81.5289 34.2172C81.5289 34.1807 81.5166 34.1453 81.4938 34.1168C81.4711 34.0882 81.4393 34.0683 81.4037 34.0602C80.7976 34.1301 80.1836 34.0441 79.62 33.8102C79.0564 33.5763 78.5619 33.2023 78.1833 32.7237L77.9418 32.4822L77.5714 32.1119C77.2296 31.7571 76.8638 31.4262 76.4765 31.1216C76.1387 30.8791 75.774 30.6765 75.3897 30.5177C75.6182 30.06 75.7393 29.5561 75.7438 29.0444C76.2492 28.8745 76.7893 28.8357 77.3138 28.9317C77.7896 29.0302 78.2539 29.1787 78.6986 29.3745C78.9723 29.4872 79.2541 29.5999 79.5037 29.6885C79.8777 29.813 80.2688 29.8782 80.663 29.8817C81.1156 29.897 81.5614 29.7672 81.9351 29.5114C81.9524 29.5 81.9671 29.4854 81.9786 29.4682C81.99 29.451 81.9979 29.4316 82.0017 29.4113C82.0054 29.391 82.005 29.3701 82.0005 29.3499C81.996 29.3298 81.9874 29.3108 81.9753 29.294C81.9496 29.2602 81.9122 29.2374 81.8705 29.2299C81.8287 29.2224 81.7856 29.231 81.7499 29.2538C81.4238 29.4335 81.062 29.5389 80.6904 29.5626C80.3188 29.5862 79.9466 29.5275 79.6003 29.3906C79.3427 29.3101 79.093 29.2054 78.8435 29.1088C79.1809 29.1112 79.5162 29.054 79.8337 28.9398C80.1369 28.805 80.4302 28.649 80.7114 28.4728C80.8885 28.3681 81.0736 28.2554 81.2588 28.1588C81.6909 27.8978 82.2053 27.8088 82.6999 27.9092C82.7405 27.9219 82.7844 27.918 82.8221 27.8984C82.8598 27.8788 82.8883 27.845 82.9012 27.8046C82.9207 27.7859 82.9348 27.7624 82.9423 27.7365C82.9497 27.7106 82.9502 27.6832 82.9437 27.6571C82.9371 27.6309 82.9238 27.607 82.905 27.5876C82.8863 27.5683 82.8628 27.5542 82.8368 27.5469V27.5469Z" fill="white" stroke="black" stroke-width="0.25" stroke-miterlimit="10"/>
<g opacity="0.5">
<path opacity="0.57" d="M89.0602 21.6053H84.7851C84.6428 21.6053 84.5275 21.7206 84.5275 21.8629C84.5275 22.0052 84.6428 22.1206 84.7851 22.1206H89.0602C89.2025 22.1206 89.3178 22.0052 89.3178 21.8629C89.3178 21.7206 89.2025 21.6053 89.0602 21.6053Z" fill="white" stroke="black" stroke-width="0.25" stroke-miterlimit="10"/>
<path opacity="0.57" d="M89.0602 22.4587H84.7851C84.6428 22.4587 84.5275 22.574 84.5275 22.7163C84.5275 22.8586 84.6428 22.974 84.7851 22.974H89.0602C89.2025 22.974 89.3178 22.8586 89.3178 22.7163C89.3178 22.574 89.2025 22.4587 89.0602 22.4587Z" fill="white" stroke="black" stroke-width="0.25" stroke-miterlimit="10"/>
<path opacity="0.57" d="M87.0313 23.3202H84.7851C84.6428 23.3202 84.5275 23.4355 84.5275 23.5778C84.5275 23.7201 84.6428 23.8354 84.7851 23.8354H87.0313C87.1736 23.8354 87.289 23.7201 87.289 23.5778C87.289 23.4355 87.1736 23.3202 87.0313 23.3202Z" fill="white" stroke="black" stroke-width="0.25" stroke-miterlimit="10"/>
</g>
<g opacity="0.5">
<path opacity="0.57" d="M73.6748 33.086H69.3997C69.2574 33.086 69.1421 33.2014 69.1421 33.3437C69.1421 33.486 69.2574 33.6013 69.3997 33.6013H73.6748C73.8171 33.6013 73.9324 33.486 73.9324 33.3437C73.9324 33.2014 73.8171 33.086 73.6748 33.086Z" fill="white" stroke="black" stroke-width="0.25" stroke-miterlimit="10"/>
<path opacity="0.57" d="M73.6748 33.9475H69.3997C69.2574 33.9475 69.1421 34.0628 69.1421 34.2051C69.1421 34.3474 69.2574 34.4628 69.3997 34.4628H73.6748C73.8171 34.4628 73.9324 34.3474 73.9324 34.2051C73.9324 34.0628 73.8171 33.9475 73.6748 33.9475Z" fill="white" stroke="black" stroke-width="0.25" stroke-miterlimit="10"/>
<path opacity="0.57" d="M71.646 34.8009H69.3997C69.2574 34.8009 69.1421 34.9162 69.1421 35.0585C69.1421 35.2008 69.2574 35.3162 69.3997 35.3162H71.646C71.7882 35.3162 71.9036 35.2008 71.9036 35.0585C71.9036 34.9162 71.7882 34.8009 71.646 34.8009Z" fill="white" stroke="black" stroke-width="0.25" stroke-miterlimit="10"/>
</g>
<path d="M66.2759 43.9307C66.2358 43.9008 66.2022 43.863 66.1772 43.8197C66.1522 43.7764 66.1361 43.7285 66.1301 43.6788C66.1241 43.6292 66.1282 43.5788 66.1422 43.5308C66.1562 43.4827 66.1798 43.438 66.2115 43.3994L74.4154 33.0216C74.4534 32.9745 74.5083 32.9439 74.5684 32.9364C74.6284 32.9289 74.6891 32.945 74.7375 32.9814V32.9814C74.783 33.0205 74.8123 33.0751 74.8197 33.1346C74.8272 33.1942 74.8123 33.2543 74.7778 33.3034L66.7992 43.8341C66.7717 43.8755 66.7362 43.9109 66.6947 43.9382C66.6533 43.9656 66.6069 43.9843 66.558 43.9933C66.5092 44.0023 66.4591 44.0014 66.4106 43.9907C66.3621 43.9799 66.3163 43.9595 66.2759 43.9307V43.9307Z" fill="black" stroke="black" stroke-width="0.25" stroke-miterlimit="10"/>
<path d="M70.0678 51.4021C70.0395 51.3685 70.0071 51.3387 69.9712 51.3135C69.6054 51.0615 69.2037 50.8661 68.7796 50.7338C68.3127 50.6211 67.8941 50.6131 67.5076 50.5084C67.3009 50.4555 67.0989 50.3855 66.9038 50.2991C66.9038 50.2991 63.6833 48.4554 62.3227 47.8838L60.2698 46.9499L54.3604 41.2578L51.7357 45.8388C53.4607 47.081 55.2623 48.2131 57.1299 49.2283C59.7274 50.1591 62.3919 50.8912 65.1004 51.4182V51.4182C65.6317 51.6275 65.4787 51.6678 65.9618 52.0059C66.4448 52.344 66.6703 52.3118 67.1614 52.6097C67.6525 52.9076 67.7491 53.0364 67.9665 52.9076C68.1839 52.7788 67.8699 52.3521 67.6847 52.1025C67.6275 52.0212 67.5657 51.9433 67.4996 51.869L67.9987 51.8046C68.1939 51.9294 68.3748 52.0752 68.5382 52.2394C68.623 52.3179 68.7236 52.3772 68.8334 52.4133C68.9431 52.4494 69.0593 52.4615 69.1741 52.4487C69.1884 52.4473 69.202 52.4422 69.2136 52.4338C69.2252 52.4253 69.2344 52.414 69.2402 52.4008C69.2459 52.3877 69.2481 52.3733 69.2464 52.3591C69.2447 52.3448 69.2392 52.3313 69.2305 52.3199L69.311 52.3924C69.3934 52.4716 69.4928 52.5309 69.6016 52.5658C69.7105 52.6007 69.8259 52.6102 69.939 52.5936C70.0034 52.5936 70.0195 52.5453 70.0115 52.5051C70.0989 52.5251 70.1897 52.5251 70.2771 52.5051C70.3737 52.5051 70.3576 52.4084 70.2771 52.3279C70.4029 52.3948 70.5475 52.4175 70.6877 52.3924C70.889 52.3038 70.3174 51.7322 70.0678 51.4021Z" fill="#FEEDE5" stroke="black" stroke-width="0.25" stroke-miterlimit="10"/>
<path d="M43.0245 91.4075C43.7654 92.0813 44.6255 92.611 45.5606 92.9694L47.2674 94.9661C47.2674 94.9661 49.0226 95.1271 49.1916 96.1737C49.2005 96.1987 49.2034 96.2254 49.2 96.2517C49.1966 96.278 49.1871 96.3032 49.1722 96.3251C49.1573 96.347 49.1374 96.3652 49.1142 96.3781C49.091 96.3909 49.0651 96.3981 49.0386 96.3991H46.0195C45.8614 96.3997 45.7051 96.3668 45.5606 96.3025L41.1245 94.3461C41.1245 94.3461 41.8249 91.9791 43.0245 91.4075Z" fill="#424242" stroke="black" stroke-width="0.25" stroke-miterlimit="10"/>
<path d="M47.1386 90.86L45.5284 92.9694C44.5285 92.756 43.6328 92.2043 42.9923 91.4075L44.2 89.3223" fill="#FEEDE5"/>
<path d="M56.3167 27.8448C56.4881 27.8628 56.6537 27.9163 56.8032 28.0019C56.9527 28.0875 57.0828 28.2032 57.185 28.3419C57.2873 28.4805 57.3596 28.6389 57.3972 28.807C57.4349 28.9751 57.437 29.1492 57.4036 29.3182C57.315 30.075 55.89 30.9284 55.89 30.9284L56.3167 27.8448Z" fill="#C37B7B" stroke="black" stroke-width="0.25" stroke-miterlimit="10"/>
<path d="M53.0481 35.9441C52.9997 35.4869 52.9781 35.0272 52.9837 34.5674L51.6714 33.7623L50.0612 32.7157C50.4705 33.9574 50.5124 35.291 50.1819 36.556L53.4667 37.7556C53.2513 37.1719 53.1107 36.5632 53.0481 35.9441Z" fill="#FEEDE5" stroke="black" stroke-width="0.25" stroke-miterlimit="10"/>
<path d="M51.478 33.714C51.7363 34.6234 52.3063 35.4129 53.0882 35.9441C53.0397 35.4869 53.0183 35.0272 53.0239 34.5674L51.7115 33.7623L51.478 33.714Z" fill="#FEEDE5" stroke="black" stroke-width="0.25" stroke-miterlimit="10"/>
<path d="M56.7112 29.3987C56.7112 29.3987 56.365 34.7928 55.4794 35.284C54.5938 35.7751 52.6133 35.1954 51.615 34.4386C50.8092 33.8821 50.2523 33.0331 50.0629 32.0723C49.8734 31.1115 50.0663 30.1148 50.6005 29.294C51.7921 27.394 56.6146 26.605 56.7112 29.3987Z" fill="#FEEDE5" stroke="black" stroke-width="0.25" stroke-miterlimit="10"/>
<path d="M52.5409 94.0563C52.261 94.8077 52.2023 95.6235 52.3717 96.4072H60.0605C60.6965 95.6021 55.5358 94.0563 55.5358 94.0563H52.5409Z" fill="#424242" stroke="black" stroke-width="0.25" stroke-miterlimit="10"/>
<path d="M55.7452 91.8986L55.5358 94.0563C54.5432 94.2065 53.5336 94.2065 52.5409 94.0563L52.2751 90.5944" fill="#FEEDE5"/>
<path d="M55.7452 91.8986L55.5358 94.0563C54.5432 94.2065 53.5336 94.2065 52.5409 94.0563L52.2751 90.5944" stroke="black" stroke-width="0.25" stroke-miterlimit="10"/>
<path d="M58.3778 55.1941C58.3778 55.1941 60.4067 72.1012 60.0766 73.9368C59.7465 75.7725 47.3318 92.1884 47.3318 92.1884C46.0887 91.5541 44.9127 90.7961 43.8215 89.9261L50.834 74.0012L52.6294 53.8335L58.3778 55.1941Z" fill="#4C4C4C" stroke="black" stroke-width="0.25" stroke-miterlimit="10"/>
<path d="M50.8903 53.4148L50.6649 54.8479C50.6649 54.8479 49.4411 55.7657 48.9581 58.6882C48.5636 61.1035 49.7632 69.9999 50.2946 75.0559C50.8259 80.1119 51.3009 92.8325 51.3009 92.8325C51.3009 92.8325 52.9756 92.9533 53.5311 92.9372C54.2979 92.9345 55.063 92.8644 55.8176 92.7279C55.8176 92.7279 56.9608 79.492 57.2345 74.1059C57.46 69.702 58.3778 55.1941 58.3778 55.1941L50.8903 53.4148Z" fill="#4C4C4C" stroke="black" stroke-width="0.25" stroke-miterlimit="10"/>
<path d="M59.8431 59.5738C56.0446 60.1864 52.1613 60.0249 48.4268 59.0988C48.8491 57.5536 49.1878 55.9868 49.4412 54.4051C49.6755 52.6035 49.7778 50.7872 49.7471 48.9707C49.7471 47.3605 49.6908 46.0562 49.6908 46.0562C48.9904 43.5523 48.2577 40.7103 48.4671 39.4624C48.6898 38.1509 49.3013 36.9364 50.2222 35.9763L53.0722 37.3209C53.0722 37.3209 58.0477 41.2337 58.2087 42.7392C58.2939 43.72 58.1591 44.7074 57.8143 45.6295C57.8143 45.6295 57.8142 45.8066 57.8867 46.2655C57.9591 46.7244 58.0075 47.2719 58.1202 48.1656C58.1766 48.6567 58.249 49.2444 58.3295 49.9368C58.8448 51.3538 59.8431 59.5738 59.8431 59.5738Z" fill="white" stroke="black" stroke-width="0.25" stroke-miterlimit="10"/>
<path d="M48.4268 59.131C51.447 59.6872 54.5211 59.8952 57.5888 59.7509C58.3456 59.7107 59.0944 59.6463 59.8431 59.606C56.7672 60.2856 53.5831 60.3131 50.4959 59.6865C49.7922 59.5583 49.1001 59.3725 48.4268 59.131Z" fill="#92D0EF" stroke="black" stroke-width="0.25" stroke-miterlimit="10"/>
<path d="M56.4455 27.1202C56.6617 27.3238 56.8257 27.5763 56.9238 27.8566C57.0219 28.1368 57.0511 28.4365 57.0091 28.7304C56.9205 29.3342 56.5018 30.0106 55.0768 30.1072C54.159 30.1716 54.0624 31.2504 53.4666 31.5322C52.8708 31.814 52.6052 30.9767 52.0577 31.0974C51.0513 31.3228 50.3268 34.9941 50.3268 34.9941C50.201 34.9243 50.0904 34.8299 50.0019 34.7165C49.9134 34.6031 49.8486 34.473 49.8115 34.3339C49.6586 33.7865 49.731 32.9089 49.3043 32.5225C48.4992 31.7979 47.694 30.2843 48.636 29.3021C49.578 28.3198 48.7487 28.352 49.8678 26.9914C50.9145 25.7515 54.7307 25.4215 56.4455 27.1202Z" fill="#C37B7B" stroke="black" stroke-width="0.25" stroke-miterlimit="10"/>
<path d="M50.4235 28.2876C50.4741 27.9383 50.4085 27.5821 50.2369 27.2737C50.0652 26.9653 49.797 26.7219 49.4734 26.5808C49.2084 26.471 48.9197 26.4304 48.6346 26.4629C48.3495 26.4954 48.0774 26.5999 47.8439 26.7666C47.6103 26.9333 47.4231 27.1567 47.2997 27.4157C47.1763 27.6748 47.1209 27.961 47.1386 28.2474C47.2755 29.7529 49.0789 30.1957 49.5942 29.7529C49.9761 29.3322 50.2594 28.8316 50.4235 28.2876V28.2876Z" fill="#C37B7B" stroke="black" stroke-width="0.25" stroke-miterlimit="10"/>
<path d="M52.4039 31.7093C52.4039 31.7093 52.5086 30.8076 51.7438 30.8076C50.979 30.8076 50.673 32.6915 51.4137 32.9733C51.9853 33.1827 52.412 32.5064 52.4039 31.7093Z" fill="#FEEDE5" stroke="black" stroke-width="0.25" stroke-miterlimit="10"/>
<path d="M58.1201 48.1656C56.2524 47.464 54.4699 46.5539 52.8065 45.4524C49.3526 43.2625 49.1191 41.0082 49.1191 41.0082C49.6988 42.9324 52.887 44.9693 52.887 44.9693L53.1043 44.5909L57.935 46.2655C57.935 46.6681 58.0074 47.2719 58.1201 48.1656Z" fill="white" stroke="black" stroke-width="0.25" stroke-miterlimit="10"/>
<path d="M70.2208 40.8955C70.2286 41.0352 70.2052 41.1749 70.1523 41.3044C70.0994 41.4339 70.0183 41.55 69.9149 41.6442C69.9149 41.6442 69.7538 42.1515 69.3915 42.2561C68.9695 42.3726 68.5332 42.4295 68.0953 42.4252C67.7228 42.4266 67.351 42.3942 66.9843 42.3286C66.8128 42.2832 66.6324 42.2832 66.461 42.3286C64.5207 43.6006 60.3664 47.8113 57.935 46.9418C56.3068 46.4191 54.7576 45.6769 53.3298 44.7358L53.0963 44.5909C53.0963 44.5909 54.0464 42.8519 54.8515 41.0565C55.8498 41.6603 57.8062 42.8358 59.046 43.6087C60.6562 42.8599 63.305 41.7006 64.1584 41.3866C65.0118 41.0726 65.6317 40.8069 66.0504 40.5815L66.6703 40.2917C66.805 40.1206 66.9652 39.9713 67.1453 39.8489C67.9399 39.3943 68.7629 38.9909 69.6089 38.6412C69.7458 38.6412 69.9793 39.0035 69.5526 39.3336C69.4721 39.4061 69.3754 39.4705 69.2869 39.5429C69.3896 39.513 69.4946 39.4915 69.6009 39.4785C69.7392 39.4773 69.8757 39.4473 70.0019 39.3904C70.128 39.3336 70.241 39.2512 70.3335 39.1484H70.414C70.5129 39.2855 70.5662 39.4503 70.5662 39.6194C70.5662 39.7885 70.5129 39.9533 70.414 40.0904C70.4657 40.2286 70.4748 40.379 70.4404 40.5225C70.4059 40.6659 70.3295 40.7958 70.2208 40.8955Z" fill="#FEEDE5" stroke="black" stroke-width="0.25" stroke-miterlimit="10"/>
<path d="M74.7455 56.0717H61.1151V55.025C61.1145 54.9438 61.1412 54.8648 61.1908 54.8006C61.2404 54.7363 61.3102 54.6906 61.3889 54.6708L71.7988 52.0623L76.2994 42.0227C76.3623 41.8786 76.4659 41.7562 76.5975 41.6703C76.7291 41.5845 76.8829 41.539 77.04 41.5396H78.1511C78.2077 41.5401 78.2634 41.5536 78.314 41.5789C78.3646 41.6043 78.4087 41.641 78.4429 41.6861C78.4771 41.7312 78.5005 41.7835 78.5114 41.8391C78.5222 41.8946 78.5201 41.9519 78.5054 42.0066L74.7455 56.0717Z" fill="#DBDBDD" stroke="black" stroke-width="0.25" stroke-miterlimit="10"/>
<path d="M75.6391 56.8123V96.4072H60.2778V56.8123C60.2778 56.6159 60.3558 56.4275 60.4947 56.2886C60.6336 56.1497 60.822 56.0717 61.0185 56.0717H74.8984C75.0948 56.0717 75.2833 56.1497 75.4222 56.2886C75.5611 56.4275 75.6391 56.6159 75.6391 56.8123V56.8123Z" fill="#EDEDED" stroke="black" stroke-width="0.25" stroke-miterlimit="10"/>
<path d="M75.6392 92.3253H60.2778V96.4072H75.6392V92.3253Z" fill="#DBDBDD" stroke="black" stroke-width="0.25" stroke-miterlimit="10"/>
<path d="M63.442 57.6496H72.4591C73.0193 57.6475 73.5575 57.8674 73.9559 58.2613C74.3543 58.6551 74.5803 59.1908 74.5846 59.751V61.6268C74.5889 61.9083 74.537 62.1877 74.432 62.4489C74.327 62.7101 74.171 62.9477 73.9731 63.1478C73.7752 63.348 73.5394 63.5067 73.2794 63.6146C73.0195 63.7225 72.7406 63.7776 72.4591 63.7765H63.442C63.165 63.7765 62.8907 63.7219 62.6348 63.6159C62.3789 63.5099 62.1463 63.3545 61.9505 63.1586C61.7546 62.9628 61.5992 62.7302 61.4932 62.4743C61.3872 62.2184 61.3326 61.9441 61.3326 61.6671V59.751C61.3348 59.1929 61.5579 58.6585 61.9533 58.2646C62.3487 57.8708 62.884 57.6496 63.442 57.6496V57.6496Z" fill="#DBDBDD" stroke="black" stroke-width="0.25" stroke-miterlimit="10"/>
<path d="M73.7231 60.4192H62.186C62.0303 60.4192 61.9042 60.5453 61.9042 60.701C61.9042 60.8566 62.0303 60.9828 62.186 60.9828H73.7231C73.8787 60.9828 74.0048 60.8566 74.0048 60.701C74.0048 60.5453 73.8787 60.4192 73.7231 60.4192Z" fill="#EDEDED" stroke="black" stroke-width="0.25" stroke-miterlimit="10"/>
<path d="M152.687 86.3032C152.721 84.9751 152.577 83.6484 152.261 82.3582C152.025 81.3921 151.957 80.3926 152.059 79.4034C152.116 78.8171 152.116 78.2266 152.059 77.6403C151.842 75.4101 149.427 70.3944 145.264 69.6778C145.264 69.6778 145.981 72.2783 146.633 74.275C147.202 76.3705 148.293 78.2874 149.805 79.8463C151.265 81.2368 152.15 83.1243 152.285 85.1358C152.305 85.5219 152.305 85.9089 152.285 86.2951L152.687 86.3032Z" fill="#E8E8E8" stroke="black" stroke-width="0.25" stroke-miterlimit="10"/>
<path d="M153.67 82.3582C153.613 81.3946 153.719 80.4283 153.984 79.5C154.465 77.8769 154.545 76.1613 154.217 74.5004C153.364 70.4749 148.622 66.4494 148.622 66.4494C148.622 66.4494 149.427 72.3991 150.288 74.9915C150.811 76.4088 151.452 77.7796 152.204 79.0895C152.875 80.3006 153.256 81.6511 153.315 83.0344C153.408 85.2139 153.327 87.3972 153.074 89.5638L153.46 89.6121C153.731 87.2041 153.801 84.7778 153.67 82.3582Z" fill="#EDEDED" stroke="black" stroke-width="0.25" stroke-miterlimit="10"/>
<path d="M160.521 63.1565C160.521 63.1565 156.165 66.0307 155.014 70.6037C154.732 71.7758 154.732 72.9981 155.014 74.1703C155.315 75.5287 155.334 76.9343 155.071 78.3005C154.392 82.0741 154.214 85.9206 154.539 89.7409L154.926 89.7007C154.625 86.1905 154.755 82.6567 155.312 79.178C155.572 77.5038 156.281 75.9316 157.365 74.6292C158.334 73.4257 159.089 72.0639 159.595 70.6037C160.376 68.203 160.69 65.6752 160.521 63.1565V63.1565Z" fill="#EDEDED" stroke="black" stroke-width="0.25" stroke-miterlimit="10"/>
<path d="M155.57 77.1492C155.157 78.5841 155.124 80.1015 155.473 81.5531C155.691 82.408 155.73 83.2991 155.586 84.1697C155.147 86.9326 154.964 89.73 155.038 92.5266H155.425C155.357 89.9149 155.513 87.3021 155.892 84.7171C156.06 83.6163 156.528 82.5829 157.244 81.7302C158.066 80.7422 158.746 79.6448 159.265 78.4695C160.313 75.8851 161.038 73.1809 161.423 70.4185C161.423 70.4185 156.656 73.1478 155.57 77.1492Z" fill="#E8E8E8" stroke="black" stroke-width="0.25" stroke-miterlimit="10"/>
<path d="M158.476 84.4273H149.435C149.435 84.4273 148.63 94.4025 151.391 96.3991H156.52C159.321 94.4025 158.476 84.4273 158.476 84.4273Z" fill="#E8E8E8" stroke="black" stroke-width="0.25" stroke-miterlimit="10"/>
<path d="M134.411 43.6811L132.358 46.0964L127.021 42.7633C127.021 42.7633 126.111 41.0887 125.95 40.7264C125.761 40.3802 125.516 40.0674 125.225 39.8006C125 39.5751 124.895 39.9535 125.072 40.34C125.19 40.626 125.25 40.9324 125.249 41.2417C124.847 41.0082 124.356 40.1306 123.921 39.873C123.655 39.712 123.575 39.9294 123.631 40.1226C123.564 40.0054 123.459 39.9146 123.333 39.865C123.172 39.8006 122.794 39.865 123.108 40.4285C123.108 40.4285 122.842 40.4285 122.898 40.7023C122.963 40.9249 123.055 41.1385 123.172 41.3383C123.133 41.4696 123.133 41.6096 123.172 41.7408C123.33 42.2862 123.569 42.8046 123.881 43.2786C124.566 43.6692 125.292 43.9824 126.046 44.2125C126.57 44.5104 130.539 49.1317 132.423 49.9126C133.55 50.3796 137.35 46.3863 137.35 46.3863L134.411 43.6811Z" fill="#FEEDE5" stroke="black" stroke-width="0.25" stroke-miterlimit="10"/>
<path d="M139.854 44.293C139.854 44.293 138.55 45.5973 137.189 47.0706C135.911 46.2335 134.773 45.2012 133.816 44.0112C134.677 42.8599 135.627 41.7167 136.231 40.8874C137.841 38.7861 140.933 41.3061 140.74 42.1273C140.604 42.9046 140.302 43.6434 139.854 44.293V44.293Z" fill="white" stroke="black" stroke-width="0.25" stroke-miterlimit="10"/>
<path d="M182.355 96.6487C182.355 96.7128 182.316 96.7742 182.246 96.8195C182.176 96.8648 182.081 96.8902 181.982 96.8902H0.373333C0.274294 96.8902 0.17928 96.8648 0.10925 96.8195C0.039219 96.7742 0 96.7128 0 96.6487V96.6487C0.00311503 96.5853 0.0433776 96.525 0.112744 96.4802C0.182111 96.4353 0.275283 96.4092 0.373333 96.4072H181.982C182.081 96.4072 182.176 96.4326 182.246 96.4779C182.316 96.5232 182.355 96.5847 182.355 96.6487V96.6487Z" fill="#232230"/>
</svg>
