<svg width="231" height="256" viewBox="0 0 231 256" fill="none" xmlns="http://www.w3.org/2000/svg">
<g filter="url(#filter0_d_22_288)">
<path d="M127.76 255.07C56.59 262.99 -4.56 204.61 0.27 133.23C1.46 115.58 6.24 98.88 15.31 83.61C17.15 80.52 17.05 78.71 14.31 76.59C12.62 75.27 11.17 73.6 9.77 71.96C3.33 64.46 3.22 54.94 9.71 47.47C13.09 43.59 16.8 39.96 20.54 36.41C28.97 28.41 39.2 28.48 47.7 36.45C54.18 42.53 54.19 42.56 62.04 38.48C75.18 31.66 89.12 27.43 103.84 26.19C110.34 25.65 106.69 21.15 107.43 18.44C108.4 14.87 105.86 14.86 103.34 14.99C101.34 15.1 99.34 15.07 97.34 15C92.35 14.83 89.08 11.89 89.03 7.6C88.98 3.3 92.25 0.149996 97.18 0.0499962C103.17 -0.0600038 109.17 0.0299962 115.17 0.0299962C121 0.0199962 126.83 -0.0500038 132.66 0.0499962C137.65 0.139996 140.92 3.16 140.95 7.46C140.99 11.76 137.72 14.79 132.78 15C131.62 15.05 130.45 15.01 129.28 15.01C122.37 15.02 122.53 15.02 122.41 21.81C122.35 24.94 123.21 25.88 126.47 26.27C175.64 32.1 213.65 64.69 226.12 111.47C244.15 179.16 197.47 247.31 127.76 255.07Z" fill="#F7F9FA"/>
<path d="M127.76 255.07C56.59 262.99 -4.56 204.61 0.27 133.23C1.46 115.58 6.24 98.88 15.31 83.61C17.15 80.52 17.05 78.71 14.31 76.59C12.62 75.27 11.17 73.6 9.77 71.96C3.33 64.46 3.22 54.94 9.71 47.47C13.09 43.59 16.8 39.96 20.54 36.41C28.97 28.41 39.2 28.48 47.7 36.45C54.18 42.53 54.19 42.56 62.04 38.48C75.18 31.66 89.12 27.43 103.84 26.19C110.34 25.65 106.69 21.15 107.43 18.44C108.4 14.87 105.86 14.86 103.34 14.99C101.34 15.1 99.34 15.07 97.34 15C92.35 14.83 89.08 11.89 89.03 7.6C88.98 3.3 92.25 0.149996 97.18 0.0499962C103.17 -0.0600038 109.17 0.0299962 115.17 0.0299962C121 0.0199962 126.83 -0.0500038 132.66 0.0499962C137.65 0.139996 140.92 3.16 140.95 7.46C140.99 11.76 137.72 14.79 132.78 15C131.62 15.05 130.45 15.01 129.28 15.01C122.37 15.02 122.53 15.02 122.41 21.81C122.35 24.94 123.21 25.88 126.47 26.27C175.64 32.1 213.65 64.69 226.12 111.47C244.15 179.16 197.47 247.31 127.76 255.07Z" fill="#0B9D58"/>
<path d="M115.06 40.61C170.08 40.68 214.96 85.71 214.93 140.8C214.9 195.83 169.85 240.91 114.91 240.88C60.01 240.85 15.02 195.7 15.04 140.65C15.07 85.59 60.11 40.54 115.06 40.61Z" fill="#F7F9FA"/>
<path d="M41.55 51.37C41.08 52.24 40.99 52.6 40.76 52.8C35.85 57.05 31.57 61.93 26.92 66.41C25.22 68.05 23.91 64.74 22.54 63.62C20.75 62.16 18.62 60.14 20.72 57.77C24.34 53.68 28.33 49.89 32.32 46.14C33.52 45.01 35.19 45.42 36.42 46.51C38.22 48.13 39.94 49.84 41.55 51.37Z" fill="#F6F8F9"/>
<path d="M200.93 140.72C200.93 188.1 162.1 226.95 114.86 226.85C67.55 226.74 28.86 187.79 29.05 140.47C29.24 93.18 67.59 54.86 114.87 54.72C162.18 54.58 200.93 93.3 200.93 140.72Z" fill="#0B9D58"/>
<path d="M185.1 130.71C185.71 132.62 184.84 133.24 182.86 133.18C180.54 133.1 178.15 132.96 175.89 133.39C171.78 134.16 169.39 136.82 169.64 141.11C169.89 145.35 172.35 147.75 176.66 148.09C176.99 148.12 177.33 148.12 177.66 148.14C185.94 148.51 185.94 148.51 184 156.98C177.76 184.19 154.99 205.92 127.8 210.78C123.93 211.47 121.61 211.05 122.47 206.36C122.59 205.72 122.5 205.03 122.48 204.36C122.31 198.61 119.39 195.1 114.87 195.18C110.37 195.26 107.64 198.75 107.5 204.6C107.48 205.27 107.4 205.95 107.51 206.6C108.33 211.07 105.99 211.54 102.44 210.78C76 205.06 57.83 189.67 48.12 164.4C47.29 162.24 46.67 159.98 46.12 157.72C43.98 148.85 44 148.81 53.07 148.13C57.35 147.81 59.87 145.62 60.34 141.37C60.79 137.34 58.07 134.04 53.85 133.29C53.04 133.15 52.19 133.18 51.36 133.16C44.05 132.96 44.05 132.96 45.79 125.45C52.49 96.47 74.93 75.32 103.69 70.53C107.1 69.96 107.85 70.78 107.52 73.85C107.36 75.33 107.42 76.85 107.52 78.34C107.88 83.29 110.52 86.07 114.85 86.13C119.39 86.2 122.1 83.34 122.46 78.09C122.49 77.59 122.47 77.09 122.47 76.59C122.59 69.83 122.59 69.83 128.96 71.02C156.69 76.19 180.39 100.4 184.83 128.1C184.97 128.91 185.01 129.75 185.1 130.71Z" fill="#F7F9FA"/>
<path d="M122.93 120.3C122.94 121.46 122.93 122.63 122.94 123.79C122.95 127.62 121.67 132.19 123.32 135.07C125.26 138.44 130.25 135.77 133.87 136.41C138.21 137.19 141.02 140.04 140.94 144.04C140.85 148.03 137.99 151.07 133.54 151.23C127.4 151.45 121.23 151.45 115.09 151.2C110.6 151.02 108.05 148.26 108 143.78C107.88 131.31 107.88 118.83 108 106.36C108.04 101.66 111.11 98.7 115.39 98.69C119.62 98.68 122.71 101.66 122.89 106.32C123.07 110.98 122.93 115.65 122.93 120.3Z" fill="#0B9D58"/>
</g>
<defs>
<filter id="filter0_d_22_288" x="-3.99799" y="-0.00467682" width="238.007" height="263.796" filterUnits="userSpaceOnUse" color-interpolation-filters="sRGB">
<feFlood flood-opacity="0" result="BackgroundImageFix"/>
<feColorMatrix in="SourceAlpha" type="matrix" values="0 0 0 0 0 0 0 0 0 0 0 0 0 0 0 0 0 0 127 0" result="hardAlpha"/>
<feOffset dy="4"/>
<feGaussianBlur stdDeviation="2"/>
<feComposite in2="hardAlpha" operator="out"/>
<feColorMatrix type="matrix" values="0 0 0 0 0 0 0 0 0 0 0 0 0 0 0 0 0 0 0.25 0"/>
<feBlend mode="normal" in2="BackgroundImageFix" result="effect1_dropShadow_22_288"/>
<feBlend mode="normal" in="SourceGraphic" in2="effect1_dropShadow_22_288" result="shape"/>
</filter>
</defs>
</svg>
