<svg width="181" height="256" viewBox="0 0 181 256" fill="none" xmlns="http://www.w3.org/2000/svg">
<path d="M55.44 28.01C55.64 33.82 55.64 39.66 55.44 45.48C55.35 48.28 56.5 48.82 58.96 48.75C64.45 48.61 69.95 48.72 75.44 48.71C78.02 48.7 80.32 49.34 80.3 52.38C80.28 55.35 78.11 56.01 75.46 56.1C67.8 56.38 67.8 56.44 67.8 64.08C67.8 67.24 67.71 70.41 67.83 73.56C67.93 76.25 66.89 78.04 64.38 78.97C64.38 81.27 64.39 83.58 64.4 85.88C67.12 86.66 67.82 88.63 67.82 91.23C67.78 119.03 67.84 146.83 67.74 174.64C67.71 181.66 64.19 186.65 57.55 189.11C55.41 189.9 54.49 191.02 54.13 193.28C53.5 197.21 52.32 201.05 51.53 204.95C51.04 207.34 49.99 209.19 47.35 208.96C44.19 208.69 43.89 210.28 43.91 212.83C44.01 224.48 43.95 236.14 43.95 247.79C43.95 248.95 43.97 250.12 43.93 251.28C43.85 253.67 43.07 255.75 40.35 255.78C37.43 255.82 36.42 253.83 36.43 251.12C36.45 241.3 36.43 231.48 36.43 221.66C36.43 218.49 36.33 215.32 36.47 212.17C36.57 209.95 36.11 208.69 33.52 209.01C30.58 209.36 29.37 207.48 28.8 204.96C28.36 203.02 27.83 201.09 27.52 199.12C26.74 194 25.7 189.81 19.75 187.37C13.99 184.99 12.44 178.9 12.45 172.62C12.53 135.66 12.37 98.71 12.63 61.75C12.66 56.75 11.24 55.21 6.61 56.06C6.12 56.15 5.61 56.05 5.11 56.07C2.51 56.21 0.240002 55.61 0.160002 52.54C0.070002 49.09 2.61 48.69 5.33 48.7C10.66 48.73 15.99 48.6 21.31 48.76C23.85 48.83 24.87 48.12 24.79 45.42C24.63 39.6 24.6 33.76 24.81 27.95C24.91 25.15 23.8 24.64 21.34 24.71C16.01 24.87 10.68 24.71 5.36 24.77C1.94 24.82 -0.029998 23.49 2.03901e-06 19.83C0.040002 14.84 0.010002 9.84 0.010002 4.85C2.03867e-06 1.6 1.46 -0.0099958 4.86 4.20142e-06C28.33 0.0500042 51.8 0.0500042 75.28 4.20142e-06C78.83 -0.0099958 80.49 1.48 80.42 5.07C80.34 9.73 80.26 14.4 80.45 19.05C80.61 23.12 78.88 24.86 74.86 24.78C69.54 24.68 64.2 24.87 58.88 24.71C56.37 24.64 55.35 25.27 55.44 28.01Z" fill="#F7F9FA"/>
<path d="M180.91 179.99C180.44 197.3 180.82 214.62 180.77 231.94C180.73 247.44 172.17 255.88 156.58 255.89C141.1 255.9 125.61 255.92 110.13 255.88C95.88 255.85 87.09 247.19 87.01 232.89C86.9 214.24 87.11 195.59 86.92 176.94C86.83 168.49 89.46 161.41 96.41 156.62C100.57 153.75 100.8 150.12 100.69 145.86C100.63 143.66 99.84 143.17 97.75 143.04C86.35 142.34 86.42 142.28 86.93 131.24C87.06 128.58 87.91 126.76 90.5 125.94C90.49 123.65 90.49 121.37 90.48 119.09C85.08 117.33 87.05 112.85 87.24 109.38C87.44 105.69 90.71 106.04 93.39 106.04C120.36 106.04 147.34 106.12 174.31 105.97C179.02 105.95 180.98 107.5 180.85 112.31C180.62 120.63 180.67 128.96 180.83 137.29C180.91 141.53 179.33 143.59 174.96 143.11C174.47 143.05 173.93 142.99 173.47 143.12C171.41 143.71 167.9 141.58 167.44 144.46C166.89 147.87 165.47 152.12 169.55 154.94C178.34 161.01 181.2 169.5 180.91 179.99Z" fill="#F7F9FA"/>
<path d="M80.3 52.38C80.28 55.35 78.11 56.01 75.46 56.1C67.8 56.38 67.8 56.44 67.8 64.08C67.8 67.24 67.71 70.41 67.83 73.56C67.93 76.25 66.89 78.04 64.38 78.97C60.05 79.9 59.42 76.79 59.04 73.82C58.52 69.87 58.9 65.88 58.79 61.91C58.72 59.45 57.94 57.72 55.14 57.61C54.01 57.57 52.88 57.53 51.76 57.5C42.79 57.26 33.82 57.42 24.85 57.54C24.23 57.55 23.68 57.91 23.22 58.37C23.07 58.52 22.94 58.67 22.81 58.83C21.13 64.21 22.23 69.69 22.13 75.12C22.09 77.42 23.66 78.2 25.72 78.34C28.2 78.5 30.71 78.25 33.16 78.72C35.88 79.25 37.85 80.72 37.75 83.69C37.66 86.41 35.77 87.74 33.25 88.23C30.79 88.7 28.29 88.49 25.81 88.59C23.45 88.69 22.32 89.73 22.01 92.19C20.75 102.22 21.71 103.38 31.75 103.41C38.65 103.44 45.55 103.28 52.46 103.48C52.68 103.49 52.91 103.49 53.13 103.5C53.21 103.49 53.3 103.49 53.38 103.48C58.79 103 58.79 102.92 58.89 97.42C58.94 94.97 58.63 92.47 59.22 90.08C59.86 87.49 60.7 84.84 64.4 85.88C67.12 86.66 67.82 88.63 67.82 91.23C67.78 119.03 67.84 146.83 67.74 174.64C67.71 181.66 64.19 186.65 57.55 189.11C55.41 189.9 54.49 191.02 54.13 193.28C53.5 197.21 52.32 201.05 51.53 204.95C51.04 207.34 49.99 209.19 47.35 208.96C44.19 208.69 43.89 210.28 43.91 212.83C44.01 224.48 43.95 236.14 43.95 247.79C43.95 248.95 43.97 250.12 43.93 251.28C43.85 253.67 43.07 255.75 40.35 255.78C37.43 255.82 36.42 253.83 36.43 251.12C36.45 241.3 36.43 231.48 36.43 221.66C36.43 218.49 36.33 215.32 36.47 212.17C36.57 209.95 36.11 208.69 33.52 209.01C30.58 209.36 29.37 207.48 28.8 204.96C28.36 203.02 27.83 201.09 27.52 199.12C26.74 194 25.7 189.81 19.75 187.37C13.99 184.99 12.44 178.9 12.45 172.62C12.53 135.66 12.37 98.71 12.63 61.75C12.66 56.75 11.24 55.21 6.61 56.06C6.12 56.15 5.61 56.05 5.11 56.07C2.51 56.21 0.240002 55.61 0.160002 52.54C0.070002 49.09 2.61 48.69 5.33 48.7C10.66 48.73 15.99 48.6 21.31 48.76C23.85 48.83 24.87 48.12 24.79 45.42C24.63 39.6 24.6 33.76 24.81 27.95C24.91 25.15 23.8 24.64 21.34 24.71C16.01 24.87 10.68 24.71 5.36 24.77C1.94 24.82 -0.029998 23.49 2.03901e-06 19.83C0.040002 14.84 0.010002 9.84 0.010002 4.85C2.03867e-06 1.6 1.46 -0.0099958 4.86 4.20142e-06C28.33 0.0500042 51.8 0.0500042 75.28 4.20142e-06C78.83 -0.0099958 80.49 1.48 80.42 5.07C80.34 9.73 80.26 14.4 80.45 19.05C80.61 23.12 78.88 24.86 74.86 24.78C69.54 24.68 64.2 24.87 58.88 24.71C56.37 24.64 55.35 25.27 55.44 28.01C55.64 33.82 55.64 39.66 55.44 45.48C55.35 48.28 56.5 48.82 58.96 48.75C64.45 48.61 69.95 48.72 75.44 48.71C78.02 48.7 80.32 49.34 80.3 52.38Z" fill="black"/>
<path d="M180.91 179.99C180.44 197.3 180.82 214.62 180.77 231.94C180.73 247.44 172.17 255.88 156.58 255.89C141.1 255.9 125.61 255.92 110.13 255.88C95.88 255.85 87.09 247.19 87.01 232.89C86.9 214.24 87.11 195.59 86.92 176.94C86.83 168.49 89.46 161.41 96.41 156.62C100.57 153.75 100.8 150.12 100.69 145.86C100.63 143.66 99.84 143.17 97.75 143.04C86.35 142.34 86.42 142.28 86.93 131.24C87.06 128.58 87.91 126.76 90.5 125.94C93.58 124.72 94.48 126.99 95.36 129.08C95.98 130.54 95.78 132.3 97.01 133.54C98.42 134.75 100.13 134.52 101.77 134.52C122.33 134.53 142.89 134.56 163.45 134.51H163.96C164.67 134.51 165.32 134.5 165.9 134.49C171.59 134.34 171.72 133.32 171.75 126.06C171.75 124.9 171.76 123.74 171.74 122.58C171.67 116.32 171.67 116.03 166.07 115.53C165.85 115.51 165.62 115.49 165.37 115.47C165.32 115.47 165.27 115.46 165.22 115.46C145.41 115.79 125.61 115.52 105.82 115.59C101.34 115.61 96.79 115.08 93.27 118.87C92.6 119.59 91.46 119.67 90.48 119.09C85.08 117.33 87.05 112.85 87.24 109.38C87.44 105.69 90.71 106.04 93.39 106.04C120.36 106.04 147.34 106.12 174.31 105.97C179.02 105.95 180.98 107.5 180.85 112.31C180.62 120.63 180.67 128.96 180.83 137.29C180.91 141.53 179.33 143.59 174.96 143.11C174.47 143.05 173.93 142.99 173.47 143.12C171.41 143.71 167.9 141.58 167.44 144.46C166.89 147.87 165.47 152.12 169.55 154.94C178.34 161.01 181.2 169.5 180.91 179.99Z" fill="black"/>
<path d="M166.51 132.96C166.46 133.59 166.24 134.1 165.9 134.49C165.34 135.13 164.42 135.45 163.32 135.44C140.55 135.27 117.78 135.81 95.02 135.13C94.87 135.12 94.72 134.98 94.58 134.9C93.95 131.58 95.89 127.09 90.5 125.94C90.49 123.65 90.49 121.37 90.48 119.09C91.38 118.69 92.92 118.46 93.07 117.87C94.46 112.35 98.79 113.7 102.48 113.71C123.45 113.75 144.41 113.84 165.38 113.91C165.64 114.45 165.87 114.99 166.07 115.53C168.15 121.22 166.96 127.12 166.51 132.96Z" fill="#0B9D58"/>
<path d="M60.36 91.09C60.47 93.56 60.38 96.05 60.38 98.53C60.38 105.2 60.38 105.2 53.38 104.78C52.99 104.37 52.69 103.93 52.46 103.48C51.56 101.7 51.8 99.65 51.79 97.7C51.72 86.9 51.79 76.1 51.75 65.3C51.72 58.88 51.49 58.69 44.92 58.65C38.94 58.62 32.96 58.68 26.98 58.63C25.71 58.62 24.43 58.63 23.22 58.37C22.21 58.15 21.25 57.74 20.38 56.96C20.71 56.66 21.04 56.1 21.37 56.1C33.52 56.06 45.67 56.12 57.82 56.03C60.29 56.01 60.42 57.29 60.4 59.14C60.34 63.81 60.51 68.47 60.33 73.13C60.22 76.24 61.18 78.3 64.38 78.97C64.38 81.27 64.39 83.58 64.4 85.88C61.45 86.37 60.22 88.13 60.36 91.09Z" fill="#A5D2E7"/>
<path d="M26.15 182.15C21.31 181.08 20.19 177.55 20.09 173.2C19.87 163.38 19.83 163.38 29.49 163.35C29.66 163.35 29.82 163.36 29.99 163.35C32.9 163.23 36.74 164 36.76 159.62C36.78 155.2 32.94 155.94 30.03 155.93C20.1 155.88 20.1 155.89 20.1 145.75C20.1 137.93 20.1 137.93 27.87 137.93C29.03 137.93 30.2 137.89 31.36 137.94C34.07 138.06 36.72 137.63 36.8 134.35C36.89 130.72 34.01 130.36 31.17 130.37C28.51 130.38 25.85 130.25 23.2 130.4C20.81 130.53 19.98 129.59 20.07 127.24C20.21 123.43 20.18 119.6 20.08 115.78C20.02 113.6 20.5 112.4 23.06 112.46C33.18 112.67 43.29 112.73 53.41 112.85C55.08 114.77 55.07 117.12 55.08 119.45C55.11 136.38 55.12 153.32 55.07 170.25C55.06 172.25 54.92 174.23 54.46 176.18C53.28 181.22 51.83 182.44 46.54 182.39C39.74 182.33 32.94 182.73 26.15 182.15Z" fill="#0B9D58"/>
<path d="M20.38 56.96C29.53 56.97 38.68 57.19 47.81 56.89C52.1 56.75 53.58 57.84 53.48 62.38C53.18 76.51 53.37 90.65 53.37 104.78C43.23 104.84 33.08 104.86 22.94 105C20.87 105.03 19.76 104.53 20.08 102.26C20.17 101.61 20.09 100.93 20.09 100.27C20.13 96.11 18.65 90.89 20.61 88.09C22.72 85.08 28.27 87.27 32.31 87.03C34.82 86.88 36.7 86.06 36.82 83.46C36.95 80.49 34.85 79.53 32.2 79.5C31.7 79.49 31.2 79.5 30.7 79.49C20.09 79.3 20.06 79.3 20.1 68.41C20.12 64.59 20.29 60.78 20.38 56.96Z" fill="#CFEFFD"/>
<path d="M65.38 16.91C47.03 16.98 28.67 17.03 10.32 17.15C8.32 17.16 7.17 16.8 7.43 14.47C7.66 12.35 7.66 10.2 7.76 8.07C9.8 7 11.99 7.58 14.1 7.57C29.5 7.51 44.9 7.53 60.29 7.54C67.14 7.54 68.69 10.4 65.38 16.91Z" fill="#CDEDFA"/>
<path d="M26.15 182.15C32.95 182.07 39.75 181.88 46.55 181.97C50.17 182.02 52 180.65 52.67 177.01C53.09 174.71 53.37 172.45 53.37 170.13C53.38 151.04 53.39 131.94 53.4 112.85C60.37 112.13 60.37 112.13 60.37 118.72C60.37 136.52 60.38 154.31 60.36 172.11C60.35 179.84 57.64 182.82 49.91 182.77C42 182.72 34.04 183.72 26.15 182.15Z" fill="#0B9D58"/>
<path d="M40.41 25.01C41.72 24.92 43.05 24.92 44.35 24.74C47.44 24.31 48.35 25.65 48.23 28.65C48.02 34.09 48.06 39.55 48.22 45C48.3 47.72 47.52 49.09 44.62 48.73C40.64 48.23 36.53 49.89 32.64 47.98C38.79 46.7 39.18 42.33 38.98 37.12C38.83 33.09 37.76 28.78 40.41 25.01Z" fill="#7CB7CE"/>
<path d="M40.41 25.01C40.41 30.8 40.16 36.6 40.49 42.36C40.73 46.56 39.69 48.73 35.11 47.94C34.31 47.8 33.46 47.96 32.64 47.98C32.55 41.88 32.75 35.75 32.26 29.68C31.91 25.34 33.51 24.07 37.47 24.75C38.44 24.91 39.43 24.93 40.41 25.01Z" fill="#A4D1E6"/>
<path d="M65.38 16.91C65.43 8.17001 65.43 8.18001 56.86 8.17001C40.49 8.14001 24.12 8.10001 7.76 8.06001C8.8 6.79001 10.24 7.38001 11.48 7.38001C30.09 7.37001 48.71 7.58001 67.32 7.35001C71.85 7.30001 73.13 8.46001 73.16 13.07C73.2 18.18 70.16 17.07 67.36 17.11C66.69 17.12 66.04 16.98 65.38 16.91Z" fill="#A0CBDF"/>
<path d="M40.5 189.77C42.29 191.41 46.33 187.53 46.52 192.41C46.77 198.94 44.7 201.72 40.24 201.73C35.91 201.74 33.2 198.45 33.77 192.12C34.16 187.86 38.35 191.34 40.5 189.77Z" fill="#0B9D58"/>
<path d="M115.28 179.92C116.13 183.43 118.74 183.78 121.78 183.78C136.3 183.79 150.82 183.9 165.34 183.98C166.98 185.71 166.94 187.91 166.95 190.06C166.98 204.31 167.1 218.57 166.9 232.82C166.81 238.97 165.41 244.7 159.36 248.01C141.94 248.71 124.52 248.53 107.11 248.11C100 247.94 94.63 242.2 94.52 235.08C94.28 218.98 94.48 202.87 94.37 186.77C94.35 184.34 95.15 183.5 97.51 183.71C99.16 183.86 100.83 183.66 102.49 183.75C105.64 183.93 107.58 182.65 108.05 179.43C110.55 178.22 112.97 178.22 115.28 179.92Z" fill="#0B9D58"/>
<path d="M115.28 179.92C112.87 179.77 110.4 180.34 108.04 179.44C106.35 174.96 102.46 176.18 99.16 176.11C93.77 176 93.57 175.71 95.11 170.46C96.2 166.76 98.52 163.99 101.6 161.99C107.01 158.49 109.41 153.82 108.31 147.39C108.12 146.29 108.44 145.1 108.52 143.95C114.94 142.85 121.41 143.63 127.85 143.49C134.5 143.34 141.15 143.65 147.79 143.38C151.3 143.23 152.92 144.62 152.75 147.86C152.53 152.32 154.55 155.33 157.9 158C161.59 160.93 164.42 164.63 165.81 169.26C166.49 171.52 167.12 173.78 165.32 175.86C150.79 175.93 136.27 176.05 121.74 176.05C118.71 176.05 116.12 176.41 115.28 179.92Z" fill="#CFEFFD"/>
<path d="M159.36 248.02C164.07 242.62 165.6 236.37 165.44 229.23C165.11 214.15 165.34 199.07 165.33 183.98C165.82 183.91 166.31 183.79 166.81 183.78C173.33 183.58 173.33 183.59 173.33 189.89C173.33 204.54 173.41 219.19 173.3 233.84C173.24 242.47 167.82 247.82 159.36 248.02Z" fill="#0B9D58"/>
<path d="M165.34 175.86C165.68 167.91 161.41 162.25 155.53 157.93C152.28 155.54 150.82 153.07 151.38 149.27C151.97 145.26 150.54 143.8 146.27 143.89C133.7 144.15 121.11 143.96 108.53 143.95C109.5 142.19 111.16 143.06 112.46 143.06C126.72 143.01 140.99 143.2 155.25 143C158.89 142.95 160.09 144.2 159.45 147.51C158.18 154.08 161.04 158.56 166.31 162.09C169.39 164.15 171.59 166.99 172.74 170.67C173.94 174.49 173.65 176.83 168.79 176.09C167.66 175.93 166.49 175.94 165.34 175.86Z" fill="#A5D1E6"/>
<path d="M94.58 134.9C116.72 134.92 138.87 134.87 161.01 135.04C164.63 135.07 165.58 133.77 165.45 130.4C165.23 124.91 165.39 119.41 165.39 113.92C166.22 113.86 167.05 113.86 167.87 113.73C172.07 113.06 173.93 114.4 173.44 119.04C172.99 123.32 173.23 127.68 173.39 132C173.49 134.63 172.91 135.87 169.87 135.86C145.59 135.8 121.31 135.9 97.03 135.93C96.11 135.93 94.96 136.26 94.58 134.9Z" fill="#0B9D58"/>
<path d="M117.53 209.94C117.44 214.64 114.74 215.51 110.81 214.46C105.23 212.97 101.42 207.79 101.76 202.24C102.1 196.79 106.23 192.03 111.5 191.03C117.07 189.98 122.72 193.05 124.85 198.29C126.68 202.78 125.8 205.01 121.49 206.78C119.02 206.62 117.77 205.12 116.96 202.91C116.38 201.34 115.46 199.84 113.36 200.21C112.31 200.4 111.6 201.19 111.35 202.2C110.85 204.3 112.39 205.07 113.87 205.92C115.5 206.86 117.8 207.25 117.53 209.94Z" fill="#010101"/>
<path d="M153.29 228.54C153.42 233.97 148.69 238.79 143.26 238.77C138 238.76 133.47 234.26 133.36 228.97C133.25 223.53 137.43 219.07 142.83 218.86C148.46 218.63 153.17 222.99 153.29 228.54Z" fill="#010101"/>
<path d="M117.53 209.94C116.45 207.98 114.53 207.55 112.57 207.01C110.14 206.34 109.08 204.53 109.46 202.06C109.78 200.02 111.18 198.81 113.15 198.53C115.65 198.17 117.58 199.44 118.04 201.78C118.5 204.11 119.35 205.81 121.5 206.81C120.17 207.84 118.85 208.89 117.53 209.94Z" fill="#F34545"/>
<path d="M145.6 228.77C145.51 230.11 144.9 230.96 143.48 231.04C141.83 231.13 140.96 230.22 140.94 228.68C140.92 227.37 141.78 226.45 143.09 226.35C144.68 226.24 145.48 227.21 145.6 228.77Z" fill="#F34545"/>
</svg>
