<svg id="Ñëîé_1" data-name="Ñëîé 1" xmlns="http://www.w3.org/2000/svg" viewBox="0 0 120 98.21"><defs><style>.cls-1{fill:#df2926;}.cls-2{fill:#0b9d58;}.cls-3{fill:#014c82;opacity:0.2;}.cls-4{opacity:0.3;}</style></defs><path class="cls-1" d="M905,296.09c-3.76-10.67-4.57-21.86-2.23-30.71,1.83-6.93,5.41-12,10.64-15.06a17.4,17.4,0,0,1,8.8-2.55c4,0,7.73,1.55,11.41,4.56a31.56,31.56,0,0,0-20.49-7.8,33.26,33.26,0,0,0-12.79,2.64c-7.62,3.17-12.86,8.41-15.56,15.57-3.46,9.15-2.36,20.72,3,31.76,7.72,15.83,39.76,38.47,55,48.16v-.29C932.16,332.86,910.37,311.25,905,296.09Z" transform="translate(-882.81 -244.45)"/><path class="cls-1" d="M972,250.22c5.22,3,8.83,8,10.73,14.81,2.47,8.81,1.81,20.09-1.8,31-5.2,15.6-26.37,36.74-37,46.18,15.42-9.75,46.35-31.63,54-47.78,5.32-11.23,6.36-22.9,2.84-32-2.72-7-7.93-12.21-15.47-15.32-12.14-5-24.59-2.7-34.24,6.07C957.42,247.65,964.68,246,972,250.22Z" transform="translate(-882.81 -244.45)"/><path class="cls-2" d="M982.68,265c-1.9-6.82-5.51-11.8-10.73-14.81-7.27-4.21-14.53-2.57-20.9,2.91A39.64,39.64,0,0,0,947.3,257l-4.46,5.3,0,0L938.37,257c-.77-.91-1.56-1.75-2.37-2.55s-1.53-1.45-2.29-2.08a.46.46,0,0,1-.07-.07c-3.68-3-7.37-4.56-11.41-4.56a17.4,17.4,0,0,0-8.8,2.55c-5.23,3.07-8.81,8.13-10.64,15.06-2.34,8.85-1.53,20,2.23,30.71,5.35,15.16,27.14,36.77,37.79,46.28.11.09.23.2.33.3l.78-.5c10.59-9.44,31.76-30.58,37-46.18C984.49,285.12,985.15,273.84,982.68,265Z" transform="translate(-882.81 -244.45)"/><path class="cls-3" d="M942.81,342.37c.11.09.23.2.33.3l.78-.5c10.59-9.44,31.76-30.58,37-46.18,3.61-10.87,4.27-22.15,1.8-31-1.9-6.82-5.51-11.8-10.73-14.81-7.27-4.21-14.53-2.57-20.9,2.91A39.64,39.64,0,0,0,947.3,257l-4.46,5.3,0,0Z" transform="translate(-882.81 -244.45)"/><circle class="cls-4" cx="949.2" cy="284.06" r="21.78" transform="translate(-805.66 509.93) rotate(-45)"/><circle class="cls-4" cx="66.38" cy="39.61" r="12.75"/><path d="M976.4,282.22l-7.87-23-8.69,23H935.09l-5.3,19.53-12-43.19-7.89,23.66h-8c.18,1.61.42,3.23.74,4.86H913.4l4-11.86,12.48,44.89,9-33h24.4l5.1-13.49,4.62,13.49h10.22c.3-1.63.52-3.25.68-4.86Z" transform="translate(-882.81 -244.45)"/><path class="cls-1" d="M955.26,284.06A6.06,6.06,0,1,1,949.2,278,6.06,6.06,0,0,1,955.26,284.06Z" transform="translate(-882.81 -244.45)"/></svg>