<svg xmlns="http://www.w3.org/2000/svg" viewBox="0 0 147.4 147.4"><defs><style>.cls-1{fill:#fff;}.cls-2{opacity:0.03;}.cls-3{fill:#0b9d58;}.cls-4{fill:#fefefe;}.cls-5{fill:#fdfdfd;}</style></defs><g id="Objects"><rect class="cls-1" width="147.4" height="147.4" rx="58.62"/><path class="cls-2" d="M1289.76,322V305.7l-63.58-28.93-20.11-9.62,1.22,8.14-.23,3,.8,4.57,1.1,5.43-2.49,5.58s-21.15,0-.31,22.5c4.34,4.68-2.45,27.58-.76,31.86l16.48,30.4h9.26C1263.51,378.62,1287.9,354.05,1289.76,322Z" transform="translate(-1142.35 -231.21)"/><path class="cls-3" d="M1225.24,352.78c-1-.4-1.12-1.19-1.12-2.14,0-8.9,0-17.8,0-26.7,0-.83-.24-1-1-1-2.42,0-4.83,0-7.25,0-.57,0-.73-.15-.73-.73,0-2.27,0-2.27,2.24-2.27,1.95,0,3.9,0,5.85,0,.72,0,.9-.19.9-.91q0-26.66,0-53.32c0-.32,0-.64,0-1,.1-.95.66-1.42,1.74-1.42h9.68c1.43,0,2.86,0,4.28,0,.56,0,.7.17.66.69a8.27,8.27,0,0,0,0,1.65c0,.57-.17.66-.69.66-3.95,0-7.91,0-11.86,0-.67,0-.87.15-.86.85q0,40.88,0,81.77c0,.67.15.86.84.85,3.9,0,7.8,0,11.7,0,.75,0,.95.21.86.91a16.08,16.08,0,0,1-.08,2.08Z" transform="translate(-1142.35 -231.21)"/><path class="cls-3" d="M1251,291.35c1.45.88,2.9,1.67,4.25,2.6a16.36,16.36,0,0,1,7.52,14.75c-.26,7.18-3.8,12.38-10,15.81l-1.38.75a1,1,0,0,0-.14.19c1.43.85,3,1.55,4.32,2.5a16.11,16.11,0,0,1,7.23,12.51c.07.87,0,1.75.09,2.61.07.7-.21.88-.83.79a5.06,5.06,0,0,0-.87,0c-.81.06-1.57.1-1.3-1.1.08-.36-.18-.43-.48-.42-.7,0-1.4,0-2.1,0-6.77,0-13.55,0-20.33,0-.7,0-1,.14-.9.89.11.56-.17.72-.68.65a3.23,3.23,0,0,0-.44,0c-1.86,0-1.87,0-1.85-1.83a16.45,16.45,0,0,1,9-15.13c.86-.48,1.73-.94,2.65-1.44a4.29,4.29,0,0,0-1.37-.85,19.18,19.18,0,0,1-7.52-6.83,17.52,17.52,0,0,1,3.21-22.63,36.63,36.63,0,0,1,5-3.24l1-.57c-1.58-1-3.12-1.82-4.56-2.81a16.17,16.17,0,0,1-7.27-13c0-.84,0-1.68,0-2.52,0-.57.18-.72.7-.66a4.4,4.4,0,0,0,1,0c.83-.06,1.58-.1,1.35,1.14-.1.54.39.38.66.38H1246c4.34,0,8.67,0,13,0,.63,0,1-.07.89-.83-.11-.58.16-.72.72-.72,2.29,0,2.29,0,2.26,2.24a16.57,16.57,0,0,1-8.62,14.85c-1,.61-2,1.2-3.08,1.8Z" transform="translate(-1142.35 -231.21)"/><path class="cls-3" d="M1188.39,287.74c0,1.75,0,3.49,0,5.24a4.47,4.47,0,1,0,8.92,0q0-5.44,0-10.91c0-.58.1-.79.74-.79,3.49,0,7,0,10.47,0,.28,0,.71-.18.7.37-.07,2.78.29,5.59-.68,8.29a13.19,13.19,0,0,1-9.3,8.75c-1.5.43-1.89.77-1.92,1.85s.35,1.67,1.54,2a13.12,13.12,0,0,1,6.26,3.41,13.58,13.58,0,0,1,4.12,10.64c0,.39-.14.48-.51.48-3.63,0-7.27,0-10.91,0-.55,0-.5-.28-.5-.64,0-2.3,0-4.6,0-6.9a4.43,4.43,0,0,0-4-4.34,4.48,4.48,0,0,0-4.8,3.43,7.64,7.64,0,0,0-.11,1.91c0,1.95,0,3.9,0,5.85,0,.5-.08.7-.66.7q-5.31,0-10.64,0c-.46,0-.64-.08-.66-.6a13.48,13.48,0,0,1,10.43-13.93c1.09-.3,1.51-.79,1.52-1.82s-.38-1.55-1.55-1.87a13.42,13.42,0,0,1-10.38-13.53c0-1.1,0-2.21,0-3.32,0-.51.11-.71.67-.7q5.33,0,10.65,0c.5,0,.63.16.63.65C1188.37,283.85,1188.39,285.79,1188.39,287.74Z" transform="translate(-1142.35 -231.21)"/><path class="cls-3" d="M1203.24,336.38c-1.75,0-3.49,0-5.24,0-.47,0-.71,0-.71-.63,0-3.05,0-6.11,0-9.16,0-.47.09-.66.61-.66,3.55,0,7.1,0,10.65,0,.46,0,.67.07.67.6,0,3.09,0,6.17,0,9.26,0,.55-.23.59-.67.58C1206.79,336.37,1205,336.38,1203.24,336.38Z" transform="translate(-1142.35 -231.21)"/><path class="cls-3" d="M1182.39,336.38c-1.77,0-3.55,0-5.32,0-.51,0-.63-.14-.62-.63,0-3.06,0-6.11,0-9.17,0-.48.13-.65.64-.65,3.55,0,7.1,0,10.65,0,.56,0,.66.2.66.71,0,3,0,6.05,0,9.08,0,.55-.16.67-.68.66C1185.94,336.36,1184.17,336.38,1182.39,336.38Z" transform="translate(-1142.35 -231.21)"/><path class="cls-3" d="M1203.28,339.36h5.32c.26,0,.63-.13.61.37a28.53,28.53,0,0,1-.16,5.39,5.91,5.91,0,0,1-6.25,4.67,6.16,6.16,0,0,1-5.44-5.59c-.1-1.44,0-2.9-.06-4.35,0-.47.21-.5.58-.5Z" transform="translate(-1142.35 -231.21)"/><path class="cls-3" d="M1182.45,339.36h5.32c.26,0,.64-.12.61.37-.08,2,.28,4-.34,6a6,6,0,0,1-6.19,4.08,6.16,6.16,0,0,1-5.32-5.49c-.08-1.45,0-2.91-.08-4.36,0-.46.15-.59.6-.58C1178.85,339.37,1180.65,339.36,1182.45,339.36Z" transform="translate(-1142.35 -231.21)"/><path class="cls-3" d="M1203.17,272.32c-1.71,0-3.43,0-5.14,0-.68,0-.74-.2-.65-.79a6,6,0,0,1,6.06-5.15,6.16,6.16,0,0,1,5.71,5.3c.06.5-.05.65-.56.64C1206.78,272.3,1205,272.32,1203.17,272.32Z" transform="translate(-1142.35 -231.21)"/><path class="cls-3" d="M1182.37,272.32c-1.77,0-3.54,0-5.31,0-.46,0-.57-.11-.55-.58a6,6,0,0,1,4.06-5.07,5.85,5.85,0,0,1,6.29,1.83,6.35,6.35,0,0,1,1.39,2.95c.11.63,0,.91-.74.88C1185.8,272.27,1184.09,272.32,1182.37,272.32Z" transform="translate(-1142.35 -231.21)"/><path class="cls-3" d="M1182.4,278.28c-1.77,0-3.54,0-5.31,0-.48,0-.63-.11-.65-.62,0-2.37-.06-2.37,2.31-2.37,3,0,5.92,0,8.88,0,.61,0,.84.15.76.76s.31,1.65-.14,2.1-1.38.11-2.1.12C1184.9,278.3,1183.65,278.28,1182.4,278.28Z" transform="translate(-1142.35 -231.21)"/><path class="cls-3" d="M1203.23,278.28c-1.74,0-3.49,0-5.23,0-.58,0-.74-.17-.7-.73.06-.72-.23-1.68.13-2.1s1.41-.16,2.16-.16c2.93,0,5.86,0,8.79,0,.71,0,.92.21.84.87s.3,1.62-.15,2-1.32.12-2,.13C1205.78,278.29,1204.51,278.28,1203.23,278.28Z" transform="translate(-1142.35 -231.21)"/><path class="cls-3" d="M1182.38,323c-1.72,0-3.43,0-5.14,0-.57,0-.8-.09-.8-.74,0-2.26,0-2.26,2.24-2.26,3,0,6,0,9,0,.54,0,.82.1.74.71s.32,1.73-.17,2.16-1.38.12-2.1.12Z" transform="translate(-1142.35 -231.21)"/><path class="cls-3" d="M1203.28,320c1.77,0,3.54,0,5.31,0,.51,0,.67.15.63.64,0,.75.24,1.72-.13,2.19s-1.41.15-2.15.16c-3,0-5.93,0-8.89,0-.61,0-.82-.15-.75-.76s-.3-1.65.14-2.1,1.38-.12,2.1-.13C1200.78,320,1202,320,1203.28,320Z" transform="translate(-1142.35 -231.21)"/><path class="cls-4" d="M1248,309.58c3.66,0,7.32,0,11,0,.61,0,.79.1.67.76a26.2,26.2,0,0,1-.73,3c-.16.54-.41.69-1,.69-5.35,0-10.7,0-16,0-1.36,0-2.73,0-4.09,0-.46,0-.64-.15-.79-.58a24.12,24.12,0,0,1-.78-3.12c-.11-.61,0-.79.68-.78C1240.62,309.6,1244.31,309.58,1248,309.58Z" transform="translate(-1142.35 -231.21)"/><path class="cls-4" d="M1247.92,306.59c-3.67,0-7.33,0-11,0-.65,0-.84-.19-.69-.78,0-.11,0-.23,0-.35.65-3.34.66-3.34,4-3.34,5.82,0,11.63,0,17.45,0a.94.94,0,0,1,1.06.73,20.61,20.61,0,0,1,.83,3c.15.71-.12.75-.68.74-2,0-3.9,0-5.85,0Z" transform="translate(-1142.35 -231.21)"/><path class="cls-4" d="M1248,276.82c3.66,0,7.32,0,11,0,.65,0,.79.18.64.78a17.32,17.32,0,0,1-1.11,3.2.75.75,0,0,1-.8.49h-19.43a.8.8,0,0,1-.85-.54,17.25,17.25,0,0,1-1.09-3.2c-.16-.61,0-.73.59-.72C1240.6,276.83,1244.29,276.82,1248,276.82Z" transform="translate(-1142.35 -231.21)"/><path class="cls-4" d="M1259.66,339.36h-.82c-7.24,0-14.48,0-21.72,0-.84,0-.87-.26-.7-.91a18.13,18.13,0,0,1,1.11-3,.88.88,0,0,1,.94-.56q9.46,0,18.93,0a.94.94,0,0,1,1,.6A14.68,14.68,0,0,1,1259.66,339.36Z" transform="translate(-1142.35 -231.21)"/><path class="cls-4" d="M1238.88,317h18.06a12.4,12.4,0,0,1-3.54,3.6,56.33,56.33,0,0,1-5.07,2.87.58.58,0,0,1-.65.05c-2.57-1.46-5.36-2.58-7.39-4.85C1239.85,318.22,1239.43,317.7,1238.88,317Z" transform="translate(-1142.35 -231.21)"/><path class="cls-4" d="M1256.6,299.13h-17.23a11.88,11.88,0,0,1,3.05-2.77c1.69-1.07,3.43-2.06,5.15-3.08.18-.11.35-.26.62-.09,2.58,1.6,5.41,2.82,7.58,5C1256,298.47,1256.24,298.74,1256.6,299.13Z" transform="translate(-1142.35 -231.21)"/><path class="cls-5" d="M1240.08,284.29H1256a11,11,0,0,1-2.88,2.32c-1.53.93-3.1,1.82-4.65,2.72-.21.12-.39.33-.7.14-2.5-1.58-5.25-2.74-7.43-4.81C1240.19,284.57,1240,284.51,1240.08,284.29Z" transform="translate(-1142.35 -231.21)"/><path class="cls-5" d="M1255.83,331.88H1240.3a6.15,6.15,0,0,1,1.41-1.26c1.88-1.27,3.93-2.23,5.91-3.34a.54.54,0,0,1,.63,0c2.35,1.37,4.91,2.38,7,4.2A6.83,6.83,0,0,0,1255.83,331.88Z" transform="translate(-1142.35 -231.21)"/></g></svg>