<svg id="Capa_1" data-name="Capa 1" xmlns="http://www.w3.org/2000/svg" viewBox="0 0 600 600"><defs><style>.cls-1{fill:#df2926;}</style></defs><circle class="cls-1" cx="300" cy="298.79" r="20"/><path class="cls-1" d="M255-305.62C89.58-305.62-45-171-45-5.62s134.58,300,300,300S555,159.8,555-5.62,420.42-305.62,255-305.62Zm-10,78.79a10,10,0,0,1,10-10,10,10,0,0,1,10,10v10a10,10,0,0,1-10,10,10,10,0,0,1-10-10ZM45,3.17H35a10,10,0,0,1-10-10,10,10,0,0,1,10-10H45a10,10,0,0,1,10,10A10,10,0,0,1,45,3.17Zm68.58,145.57-7.07,7.07a10,10,0,1,1-14.14-14.14l7.07-7.07a10,10,0,0,1,14.14,14.14Zm0-297a10,10,0,0,1-7.07,2.93,10,10,0,0,1-7.07-2.93l-7.07-7.07a10,10,0,0,1,0-14.14,10,10,0,0,1,14.14,0l7.07,7.07A10,10,0,0,1,113.58-148.26ZM265,213.17a10,10,0,0,1-20,0v-10a10,10,0,1,1,20,0Zm-10-180a40,40,0,0,1-38.58-30H145a10,10,0,0,1-10-10,10,10,0,0,1,10-10h71.42A40,40,0,0,1,245-45.41V-146.83a10,10,0,0,1,10-10,10,10,0,0,1,10,10V-45.41A40,40,0,0,1,295-6.83,40,40,0,0,1,255,33.17ZM417.63,155.81a10,10,0,0,1-14.14,0l-7.07-7.07a10,10,0,0,1,14.14-14.14l7.07,7.07A10,10,0,0,1,417.63,155.81Zm0-311.14-7.07,7.07a10,10,0,0,1-7.07,2.93,10,10,0,0,1-7.07-2.93,10,10,0,0,1,0-14.14l7.07-7.07a10,10,0,0,1,14.14,0A10,10,0,0,1,417.63-155.33ZM475,3.17H465a10,10,0,0,1-10-10,10,10,0,0,1,10-10h10a10,10,0,0,1,10,10A10,10,0,0,1,475,3.17Z" transform="translate(45 305.62)"/></svg>