<svg width="87" height="95" viewBox="0 0 87 95" fill="none" xmlns="http://www.w3.org/2000/svg">
<g clip-path="url(#clip0_349_3088)">
<path d="M75.3662 75.4203C90.8782 60.0534 90.8782 35.1386 75.3662 19.7716C59.8542 4.40466 34.7044 4.40466 19.1924 19.7716C3.68041 35.1386 3.68041 60.0534 19.1924 75.4203C34.7044 90.7873 59.8543 90.7873 75.3662 75.4203Z" fill="#FCD9D9"/>
<path d="M34.9629 11.0323V33.8491C34.9629 34.2282 35.2731 34.5355 35.6558 34.5355H54.7174C55.1 34.5355 55.4102 34.2282 55.4102 33.8491V11.0323C55.4102 10.6532 55.1 10.3459 54.7174 10.3459H35.6558C35.2731 10.3459 34.9629 10.6532 34.9629 11.0323Z" fill="#DF2925"/>
<path d="M47.7128 40.0172C47.7128 40.0172 47.9723 40.2522 47.9153 40.4998C47.8584 40.7474 46.6213 42.0356 45.223 42.233C44.315 42.3615 42.48 42.559 41.3031 42.6749L43.1191 44.0947L41.1386 46.1351V64.8586C41.1386 66.0496 40.1926 67.0181 39.0252 67.0181H9.56749C8.40006 67.0181 7.4541 66.0528 7.4541 64.8586V2.88031C7.4541 1.68932 8.40006 0.720861 9.56749 0.720861H39.022C40.1894 0.720861 41.1354 1.68619 41.1354 2.88031V38.2651C41.8599 38.099 42.4958 37.9987 42.6508 37.9298C43.3848 37.6446 43.7708 37.6634 43.5873 38.0865C43.2962 38.776 42.1478 38.8857 41.9548 39.1521C41.7713 39.4091 43.2108 39.359 43.7613 39.3402C44.3118 39.312 45.5678 38.6319 46.1373 38.729C46.6498 38.8168 46.5233 39.0926 46.4853 39.1615C46.5707 39.1427 47.0643 38.9829 47.2193 39.1208C47.3838 39.2587 47.2193 39.4843 47.2193 39.4843C47.2193 39.4843 47.6622 39.3872 47.8552 39.5815C48.0482 39.7696 47.7097 40.014 47.7097 40.014L47.7128 40.0172Z" fill="#FCD9D9"/>
<path d="M20.618 53.6069H1.5026C0.980162 53.6069 0.556641 54.0265 0.556641 54.5441V75.4271C0.556641 75.9446 0.980162 76.3642 1.5026 76.3642H20.618C21.1404 76.3642 21.564 75.9446 21.564 75.4271V54.5441C21.564 54.0265 21.1404 53.6069 20.618 53.6069Z" fill="#FCD9D9"/>
<path d="M18.7231 76.9158H3.39787C1.52493 76.9158 0 75.4051 0 73.5497V56.4246C0 54.5691 1.52493 53.0585 3.39787 53.0585H18.7231C20.596 53.0585 22.1209 54.5691 22.1209 56.4246V73.5497C22.1209 75.4051 20.596 76.9158 18.7231 76.9158ZM3.39787 54.1586C2.1387 54.1586 1.11048 55.174 1.11048 56.4246V73.5497C1.11048 74.7971 2.13553 75.8157 3.39787 75.8157H18.7231C19.9823 75.8157 21.0105 74.8002 21.0105 73.5497V56.4246C21.0105 55.1772 19.9854 54.1586 18.7231 54.1586H3.39787Z" fill="#FCD9D9"/>
<path d="M40.759 2.99316H12.6997C12.3607 2.99316 12.0859 3.26539 12.0859 3.60119V58.3302C12.0859 58.666 12.3607 58.9382 12.6997 58.9382H40.759C41.098 58.9382 41.3728 58.666 41.3728 58.3302V3.60119C41.3728 3.26539 41.098 2.99316 40.759 2.99316Z" fill="#DF2925"/>
<path d="M41.2044 0H12.2466C11.0981 0 10.168 0.921448 10.168 2.05915V61.2011C10.168 62.3388 11.0981 63.2602 12.2466 63.2602H41.2044C42.3528 63.2602 43.283 62.3388 43.283 61.2011V2.05915C43.283 0.921448 42.3528 0 41.2044 0ZM41.3657 57.1204C41.3657 58.1264 40.5495 58.935 39.5339 58.935H13.917C12.9015 58.935 12.0852 58.1264 12.0852 57.1204V4.81409C12.0852 3.80802 12.9015 2.99 13.917 2.99H39.5339C40.5495 2.99 41.3657 3.80802 41.3657 4.81409V57.1204Z" fill="#6A8F9B"/>
<path d="M26.727 5.75748C28.2681 5.75748 29.5174 4.51984 29.5174 2.99314C29.5174 1.46643 28.2681 0.228795 26.727 0.228795C25.1858 0.228795 23.9365 1.46643 23.9365 2.99314C23.9365 4.51984 25.1858 5.75748 26.727 5.75748Z" fill="#6A8F9B"/>
<path d="M27.5402 2.99314C27.5402 3.43819 27.1764 3.79862 26.7271 3.79862C26.2779 3.79862 25.9141 3.43819 25.9141 2.99314C25.9141 2.54809 26.2779 2.18765 26.7271 2.18765C27.1764 2.18765 27.5402 2.54809 27.5402 2.99314Z" fill="#1E5259"/>
<path d="M36.8393 23.7433L36.8392 23.7435C36.6679 24.3872 36.1944 24.8916 35.7481 25.2404C35.5266 25.4135 35.3159 25.5451 35.1607 25.6333C35.0832 25.6773 35.0198 25.7104 34.9762 25.7323C34.9544 25.7432 34.9375 25.7513 34.9263 25.7566L34.9139 25.7625L34.911 25.7638L34.9105 25.764L34.9105 25.764L34.9104 25.764L34.9104 25.7641L34.7119 25.8533L34.8657 26.0066L34.8657 26.0066L34.8659 26.0068L34.866 26.0069L34.8661 26.0071L34.8666 26.0076L34.8727 26.0142C34.8786 26.0205 34.8878 26.031 34.8998 26.0456C34.9238 26.0747 34.959 26.1205 35.0003 26.1836C35.0829 26.3099 35.1902 26.5061 35.2823 26.779C35.4662 27.3235 35.592 28.1806 35.3315 29.408C34.7037 32.3498 33.0276 34.1596 31.0482 34.0441L31.0481 34.0441C30.6475 34.0211 27.148 33.6472 23.6021 32.7761C21.8291 32.3406 20.0522 31.7826 18.6475 31.0858C17.2334 30.3843 16.2376 29.5622 15.9594 28.6196L15.9593 28.6194C15.5055 27.0868 15.6502 26.2119 15.8823 25.7292C15.9986 25.4872 16.1395 25.3378 16.2478 25.2499C16.3021 25.2057 16.3486 25.1768 16.38 25.1594C16.3958 25.1508 16.4078 25.145 16.4151 25.1417L16.4224 25.1384L16.4225 25.1384L16.4228 25.1382L16.4229 25.1382L16.423 25.1382L16.4232 25.1381L16.6182 25.0647L16.4851 24.903L16.485 24.9029L16.485 24.9029L16.4849 24.9028L16.4842 24.9019L16.4805 24.8974L16.4652 24.8778C16.4515 24.86 16.4311 24.8331 16.4053 24.7974C16.3537 24.7259 16.2805 24.6194 16.1958 24.4809C16.0263 24.2037 15.8113 23.7997 15.6305 23.2944C15.2691 22.2844 15.0456 20.8729 15.5937 19.2576L15.5937 19.2575C16.8617 15.5181 20.47 14.5113 23.8293 14.4571C25.5036 14.4301 27.0993 14.6409 28.2776 14.8591C28.8664 14.9681 29.3502 15.0787 29.6863 15.162C29.8544 15.2037 29.9856 15.2385 30.0745 15.2628C30.1189 15.275 30.1528 15.2845 30.1755 15.291L30.2009 15.2983L30.2072 15.3001L30.2087 15.3006L30.209 15.3007L30.2517 15.1569L30.2089 15.3013L30.2228 15.3041L36.0145 16.4417L37.0441 19.0278L37.0448 19.0444C37.0459 19.0694 37.0475 19.1064 37.0493 19.154C37.053 19.2492 37.0578 19.3868 37.0625 19.5564C37.0718 19.8957 37.0803 20.3622 37.0774 20.8716C37.0714 21.8971 37.0186 23.0738 36.8393 23.7433Z" fill="#773128" stroke="black" stroke-width="0.3"/>
<path d="M27.0859 25.7195L26.944 25.7155L26.9321 25.857C26.91 26.121 26.8824 26.4197 26.8603 26.6526C26.8492 26.769 26.8396 26.8688 26.8327 26.9396L26.8245 27.0223L26.8224 27.0443L26.8218 27.05L26.8217 27.0514L26.8216 27.0518L26.8216 27.0519L26.8216 27.0519L26.8112 27.156L26.9054 27.2017L30.122 28.762C30.1114 28.779 30.1 28.7974 30.0876 28.8172C30.0097 28.9422 29.8977 29.1208 29.7616 29.3352C29.4894 29.7641 29.1212 30.3357 28.7364 30.9069C28.3512 31.4788 27.9513 32.0478 27.6154 32.4729C27.4471 32.6858 27.2977 32.859 27.1763 32.9776C27.1154 33.0372 27.065 33.0794 27.0257 33.1058C27.0031 33.121 26.9892 33.1274 26.9827 33.1301C26.9803 33.1294 26.9774 33.1284 26.9738 33.127C26.9576 33.1208 26.9349 33.1101 26.9052 33.0934C26.8459 33.0601 26.7689 33.0089 26.6754 32.9404C26.4888 32.8036 26.2482 32.6063 25.9712 32.3667C25.418 31.8881 24.7288 31.2487 24.0548 30.6078C23.3812 29.9672 22.7241 29.3265 22.2353 28.8459C21.9909 28.6056 21.7886 28.4053 21.6475 28.2652L21.5732 28.1912L24.2451 26.837L24.321 26.7985L24.3269 26.7136L24.4313 25.2092L24.4386 25.1037L24.3418 25.0614C24.1732 24.9876 23.9767 24.8437 23.7951 24.6839C23.6152 24.5254 23.4609 24.3608 23.377 24.2558L23.377 24.2558L23.3755 24.254C23.0839 23.9002 22.8637 23.4865 22.7138 23.0668V23.0602L22.7049 23.0356C22.4617 22.3586 22.3866 21.6826 22.4377 21.1842C22.4401 21.1622 22.4437 21.1345 22.4479 21.1006C22.4489 21.0934 22.4498 21.0859 22.4508 21.0781C22.4563 21.034 22.4628 20.9823 22.4692 20.9248L22.495 20.6953L22.2748 20.7651C22.0734 20.8289 21.7495 20.8587 21.3362 20.6296L21.3348 20.6289C20.9672 20.43 20.6719 20.0184 20.5664 19.5432C20.4618 19.072 20.5467 18.5518 20.9201 18.1304L20.9204 18.1301C21.115 17.9093 21.4365 17.7771 21.7831 17.758C22.1291 17.7388 22.4754 17.8338 22.7136 18.0356L22.9208 18.2113L22.959 17.9424C23.0432 17.3512 23.1251 16.7426 23.2008 16.1795C23.2517 15.8015 23.2997 15.444 23.3439 15.1262C23.3991 14.7292 23.4481 14.3938 23.4892 14.1539C23.5097 14.0336 23.5279 13.9399 23.5433 13.8754C23.546 13.8638 23.5486 13.8535 23.551 13.8446C23.5587 13.843 23.5673 13.8412 23.5769 13.8394C23.6344 13.8283 23.7163 13.8149 23.8205 13.7997C24.0283 13.7694 24.3177 13.7325 24.6619 13.6915C25.35 13.6095 26.2529 13.5115 27.1514 13.4173C28.0498 13.3231 28.9432 13.2328 29.612 13.1659C29.9465 13.1325 30.2247 13.105 30.4193 13.0858L30.6452 13.0636L30.6611 13.0621L32.7371 14.8522V15.9091L32.737 15.9094L32.7273 15.9552L32.6903 16.1303L32.556 16.7642C32.4436 17.2942 32.2907 18.0134 32.129 18.7706C31.8054 20.2856 31.4468 21.9501 31.3048 22.5566C31.1616 23.1595 30.962 23.7096 30.6076 24.1894C30.2544 24.6674 29.7405 25.085 28.9541 25.4112C28.5262 25.5873 27.7281 25.7378 27.0859 25.7195Z" fill="#F9AA8F" stroke="black" stroke-width="0.3"/>
<path d="M24.2852 25.1988C24.2852 25.1988 25.0128 25.5561 25.9778 25.6877C26.9427 25.8193 27.0851 25.8695 27.0851 25.8695L26.9743 27.0699L29.6888 27.9757L30.2172 28.6432L26.3479 27.6121L26.4239 26.3302C26.4239 26.3302 25.769 26.1108 25.1805 25.8256C24.592 25.5404 24.2852 25.2019 24.2852 25.2019V25.1988Z" fill="#CC6148"/>
<path d="M28.5629 22.5692C28.411 22.5692 28.3035 22.5567 28.2877 22.5535C28.1991 22.541 28.139 22.4626 28.1484 22.3749C28.1611 22.2871 28.2402 22.2213 28.3288 22.237C28.3383 22.237 29.2494 22.3404 29.3285 21.9173C29.4013 21.5349 29.3728 20.6636 29.2558 19.5291C29.1672 18.6672 30.0245 18.2597 30.0625 18.2409C30.1384 18.2064 30.2365 18.2378 30.2745 18.3161C30.3125 18.3945 30.2745 18.4916 30.1986 18.5292C30.1701 18.5418 29.512 18.8583 29.5785 19.4946C29.6481 20.181 29.7525 21.4127 29.6481 21.9737C29.5532 22.4877 28.9331 22.5661 28.5661 22.5661L28.5629 22.5692Z" fill="#CC6148"/>
<path d="M27.4896 23.8166C27.3409 23.8166 27.1732 23.8009 27.0119 23.7571C26.6417 23.6536 26.281 23.3057 26.2652 23.2901C26.202 23.2274 26.202 23.1271 26.2652 23.0644C26.3253 23.0017 26.4297 23.0017 26.493 23.0644C26.493 23.0675 26.8094 23.3716 27.1005 23.453C27.4959 23.5596 27.9357 23.453 27.9389 23.453C28.0306 23.428 28.1129 23.4844 28.135 23.569C28.1572 23.6536 28.1065 23.7414 28.0179 23.7633C28.0053 23.7665 27.7807 23.8229 27.4928 23.8229L27.4896 23.8166Z" fill="#CC6148"/>
<path d="M22.5575 19.9866C22.4848 19.9866 22.4215 19.9396 22.4025 19.8675C22.3962 19.8487 22.276 19.4382 21.7539 19.3629C21.6653 19.3504 21.6052 19.2689 21.6179 19.1812C21.6305 19.0934 21.716 19.037 21.8014 19.0464C22.5417 19.153 22.7094 19.761 22.7157 19.7861C22.7379 19.8707 22.6872 19.9584 22.6018 19.9804C22.5892 19.9835 22.5733 19.9866 22.5607 19.9866H22.5575Z" fill="#CC6148"/>
<path d="M27.5534 18.0779C27.5534 18.0779 27.6578 17.6266 27.5598 17.426C27.4617 17.2254 26.8479 17.2254 26.2183 17.4197C25.5888 17.6172 25.2471 18.0685 25.2471 18.0685C25.2471 18.0685 26.1519 17.8899 26.636 17.8867C27.1232 17.8867 27.5534 18.0748 27.5534 18.0748V18.0779Z" fill="#773128"/>
<path d="M32.1254 19.4068C32.1254 19.4068 32.1096 18.9367 31.8976 18.6139C31.6857 18.2911 30.9643 17.9557 30.6859 17.9557C30.4075 17.9557 29.9551 18.36 29.9551 18.36C29.9551 18.36 30.6543 18.4885 31.0561 18.6609C31.4579 18.8333 32.1222 19.4068 32.1222 19.4068H32.1254Z" fill="#773128"/>
<path d="M25.9591 19.761C25.8927 20.0901 26.0002 20.3909 26.1995 20.4286C26.3989 20.4662 26.6172 20.2342 26.6836 19.9052C26.75 19.5761 26.6425 19.2752 26.4431 19.2376C26.2438 19.1968 26.0255 19.4319 25.9591 19.761Z" fill="#773128"/>
<path d="M30.1222 20.438C30.0557 20.767 30.1633 21.0679 30.3626 21.1055C30.5619 21.1463 30.7802 20.9112 30.8467 20.5821C30.9131 20.253 30.8055 19.9522 30.6062 19.9146C30.4069 19.8738 30.1886 20.1089 30.1222 20.438Z" fill="#773128"/>
<path d="M27.3205 13.4668L27.3205 13.4668L27.3206 13.467L27.3211 13.468L27.323 13.4723L27.331 13.49C27.3381 13.5057 27.3489 13.5291 27.3632 13.5593C27.3918 13.6197 27.4343 13.7071 27.4896 13.8142C27.6004 14.0285 27.7621 14.3209 27.9657 14.633C28.377 15.2635 28.9434 15.9491 29.5888 16.2563C30.2654 16.5783 30.6847 16.6911 30.9278 16.7259C31.0489 16.7432 31.1246 16.7409 31.1658 16.7363C31.1863 16.734 31.1981 16.7311 31.2027 16.7299L31.3774 16.6463L31.4091 16.8426L31.4091 16.8428L31.4091 16.8429L31.4092 16.8434L31.4098 16.8459C31.4106 16.8496 31.4122 16.8566 31.415 16.8667C31.4206 16.8868 31.4309 16.9195 31.4487 16.9638C31.4843 17.0523 31.5502 17.188 31.6695 17.3643C31.9081 17.717 32.361 18.2332 33.2135 18.8597L33.2136 18.8597C34.2484 19.621 35.5535 19.8735 36.6499 19.8336L27.3205 13.4668ZM27.3205 13.4668L27.3205 13.4668M27.3205 13.4668L27.3205 13.4668M27.3205 13.4668L27.2812 13.3771M27.3205 13.4668L27.2812 13.3771M27.2812 13.3771H27.1832M27.2812 13.3771H27.1832M27.1832 13.3771H27.1769H27.0595L27.0313 13.4909L27.0313 13.4909L27.0313 13.491L27.0313 13.491L27.0312 13.4915L27.0305 13.4941L27.0275 13.5054C27.0248 13.5157 27.0205 13.5314 27.0146 13.5521C27.0028 13.5936 26.9845 13.6552 26.9587 13.7343C26.9071 13.8925 26.8258 14.1207 26.7075 14.3974C26.4708 14.9512 26.0868 15.6983 25.4979 16.47L25.4979 16.47C24.6738 17.5502 24.0211 17.8844 23.5979 17.9651C23.386 18.0055 23.2254 17.9837 23.121 17.9547C23.0684 17.94 23.0295 17.9234 23.005 17.9113C22.9927 17.9052 22.9841 17.9003 22.9792 17.8974L22.9748 17.8946L22.9747 17.8946C22.9744 17.8944 22.9744 17.8944 22.9746 17.8945L22.8111 17.7802M27.1832 13.3771L22.8111 17.7802M22.89 18.0184C22.7476 17.971 22.7476 17.9711 22.7476 17.9712L22.7475 17.9714L22.7474 17.9717L22.7472 17.9724L22.7467 17.9741L22.7453 17.9787L22.7411 17.9933C22.7377 18.0058 22.7329 18.0241 22.7268 18.0504C22.7145 18.1029 22.6963 18.1879 22.6717 18.3214C22.6224 18.5883 22.5469 19.0517 22.4408 19.8413L22.4407 19.8415C22.4012 20.1391 22.3963 20.5659 22.3908 21.0497C22.3888 21.2234 22.3867 21.4045 22.3829 21.5895C22.3684 22.2997 22.3291 23.0862 22.1803 23.8091C22.0311 24.5339 21.7754 25.1767 21.3416 25.615C20.9145 26.0465 20.2984 26.2963 19.3867 26.206L19.3866 26.206C18.3732 26.1061 17.4698 25.8088 16.758 25.1651C16.0466 24.5219 15.5093 23.5171 15.2584 21.9685L15.2584 21.9684C15.0379 20.6136 15.3294 18.8651 15.9443 17.2018C16.5588 15.5395 17.4877 13.9855 18.5192 13.0158C19.5519 12.0464 20.4597 11.7469 21.0988 11.683C21.4196 11.651 21.676 11.678 21.8503 11.7121C21.9374 11.7292 22.004 11.7481 22.0478 11.7622C22.0697 11.7693 22.0859 11.7752 22.0961 11.7791L22.1068 11.7833L22.1085 11.784L22.1087 11.7841L22.1088 11.7841L22.1088 11.7841L22.1088 11.7842L22.3382 11.8849L22.3182 11.6349L22.3182 11.6349L22.3182 11.6348L22.3182 11.6346L22.3182 11.6345L22.318 11.6314L22.3172 11.617C22.3166 11.6037 22.316 11.5834 22.316 11.5569C22.316 11.5037 22.3182 11.4258 22.3278 11.3296C22.3468 11.1368 22.3947 10.8727 22.5098 10.5882C22.7378 10.0244 23.2331 9.36975 24.3233 9.0318C25.4266 8.68974 26.1247 8.86273 26.5413 9.10066C26.752 9.221 26.8965 9.36118 26.9877 9.47008C27.0332 9.52451 27.0654 9.57096 27.0856 9.60288C27.0957 9.61882 27.1029 9.6311 27.1072 9.63887L27.1117 9.64704L27.1121 9.64779L27.1122 9.64797L27.1122 9.64812L27.1123 9.64833L27.1124 9.64838L27.2455 9.91698L27.3803 9.64883L27.3804 9.64878L27.3804 9.64869L27.3805 9.64857L27.3805 9.64848L27.3818 9.64597L27.3883 9.634C27.3943 9.62304 27.4038 9.60626 27.4169 9.58449C27.4431 9.54094 27.4837 9.47756 27.5398 9.40101C27.6523 9.24777 27.8265 9.04258 28.0718 8.838C28.5606 8.43034 29.3351 8.02195 30.478 8.03558C31.6083 8.04905 32.4629 8.61886 33.0408 9.19639C33.3294 9.48471 33.5464 9.77255 33.6911 9.98822C33.7634 10.0959 33.8175 10.1853 33.8532 10.2473C33.8711 10.2783 33.8843 10.3024 33.893 10.3184L33.9025 10.3364L33.9047 10.3406L33.9052 10.3415L33.9052 10.3416L33.9052 10.3416L33.945 10.4203L34.0332 10.4237L34.0333 10.4237L34.0334 10.4237L34.034 10.4237L34.0366 10.4239L34.0478 10.4244L34.0921 10.4267C34.131 10.4289 34.1881 10.4325 34.2602 10.4381C34.4043 10.4493 34.6077 10.4684 34.8441 10.5001C35.3186 10.5637 35.9185 10.677 36.4375 10.8747C36.4633 10.8845 36.4891 10.8943 36.5148 10.9041C37.0273 11.0984 37.5395 11.2927 38.0115 11.8305C38.5096 12.3982 38.9748 13.3645 39.3015 15.1556C39.6242 16.9336 39.3282 18.0846 38.7838 18.7953C38.239 19.5066 37.4241 19.805 36.65 19.8336L22.89 18.0184ZM22.89 18.0184L22.7476 17.971M22.89 18.0184L22.7476 17.971M22.8111 17.7802L22.7476 17.971M22.8111 17.7802L22.7476 17.971" fill="#A54D3C" stroke="black" stroke-width="0.3"/>
<path d="M23.3143 18.4478L22.5677 23.0895C22.3177 22.3937 22.2386 21.6948 22.2924 21.1714C22.2988 21.1149 22.3114 21.0241 22.3241 20.9112C22.0868 20.9864 21.7198 21.0147 21.2674 20.7639C20.4448 20.3189 19.9924 18.9586 20.8118 18.034C21.2674 17.5169 22.2671 17.4605 22.8144 17.9244L23.3175 18.4478H23.3143Z" fill="#F9AA8F"/>
<path d="M28.6894 27.8451C28.6912 27.8286 28.6931 27.8133 28.6949 27.799L29.0214 27.9376L29.0227 27.9382L29.7332 28.2479L29.7619 28.2604H29.7717L30.9041 28.7485L31.0389 30.3514L31.0389 30.3515L31.1997 32.2445V32.2475H31.1992L31.2002 32.2599L31.3616 34.2063L31.3616 34.2064L31.399 34.6515V34.6546H31.3985L31.3995 34.6666L31.5983 37.1429V37.1463H31.5978L31.5989 37.1587L33.3982 58.7819H23.4169L21.7798 43.5712L21.7798 43.5709L21.2863 38.9169L21.2863 38.9166L21.1534 37.6849L21.1533 37.6843L21.0585 36.8388L21.0584 36.8381L20.5365 31.9589L20.5364 31.9587L20.1966 28.8286L21.4786 28.198L21.4786 28.198L21.4817 28.1964L21.6554 28.1059C21.7052 28.0858 21.7456 28.0658 21.7813 28.0481L21.7827 28.0474L21.7892 28.0442H21.8253L21.8518 28.0179L22.5415 27.6848C22.9965 28.1547 25.2249 30.4426 26.2322 31.2904C26.5038 31.5196 26.7567 31.6269 26.9945 31.6165C27.2349 31.6061 27.4245 31.4772 27.5716 31.3117C27.7176 31.1475 27.8326 30.9354 27.9268 30.7288C27.9962 30.5766 28.0577 30.4193 28.1119 30.2805C28.1312 30.2312 28.1495 30.1843 28.167 30.1408L28.1671 30.1406C28.354 29.6727 28.5266 28.785 28.6213 28.2041C28.6382 28.1257 28.6534 28.042 28.6663 27.9708C28.6742 27.9271 28.6813 27.8881 28.6873 27.858L28.6879 27.8581L28.6894 27.8451Z" fill="#0A6A3D" stroke="black" stroke-width="0.3"/>
<path d="M27.7892 58.7819H16.0785C16.0827 58.4002 16.0868 58.0561 16.0899 57.7984L16.0942 57.4529L16.0954 57.3588L16.0957 57.3344L16.0958 57.3281L16.0958 57.3266L16.0958 57.3262L16.0958 57.3261L16.0958 57.326L15.9458 57.3241L16.0958 57.326L16.0958 57.3246L16.1338 46.9724L16.1339 46.9724L16.1337 46.966L15.9838 46.9719C16.1337 46.966 16.1337 46.966 16.1337 46.9659L16.1337 46.9655L16.1336 46.964L16.1334 46.9578L16.1324 46.9334L16.1288 46.8379C16.1257 46.754 16.1212 46.6306 16.1156 46.4725C16.1045 46.1564 16.0893 45.7018 16.0728 45.1479C16.0397 44.04 16.0015 42.535 15.9808 40.9464C15.96 39.3577 15.9568 37.6865 15.9936 36.2458C16.0306 34.8007 16.1077 33.6004 16.2445 32.9458L16.2446 32.9458L16.245 32.9434C16.2907 32.7054 16.3115 32.4724 16.3312 32.2514L16.3327 32.2353C16.3531 32.007 16.373 31.7922 16.4166 31.5823C16.502 31.1715 16.6785 30.778 17.1416 30.3893C17.1505 30.3822 17.1594 30.3752 17.1683 30.3681C17.2561 30.2983 17.3458 30.2271 17.4425 30.1632C18.2469 29.6351 19.6777 28.9725 20.6864 28.52L20.6866 28.5199C20.9252 28.4124 21.1409 28.3218 21.3193 28.2468C21.3736 28.224 21.4244 28.2026 21.4714 28.1827C21.4984 28.1712 21.521 28.1611 21.5412 28.1522C21.579 28.1353 21.608 28.1225 21.6402 28.1118L21.6403 28.1121L21.6484 28.1088C21.68 28.0963 21.7079 28.0838 21.7332 28.0718C21.8888 28.3068 22.3036 28.9356 22.8012 29.8021C23.3302 30.7286 23.9529 31.9439 24.4429 33.2136L24.4429 33.2136L24.4436 33.2152C24.6219 33.6614 24.7722 34.108 24.9038 34.5644C24.9998 34.8977 25.1074 35.2521 25.2228 35.6322C25.9424 38.0016 26.9665 41.3732 27.3661 46.9075L27.3661 46.9085C27.3994 47.3299 27.4232 47.7596 27.4477 48.2006C27.4579 48.386 27.4683 48.5733 27.4796 48.7628V48.796H27.4795L27.4797 48.8021C27.5544 50.6248 27.7119 55.5007 27.7892 58.7819ZM21.7419 27.9642L21.7356 27.9515L21.7419 27.9642Z" fill="#FCF9F9" stroke="black" stroke-width="0.3"/>
<path d="M27.2544 45.1901C27.2689 45.2717 27.2831 45.353 27.297 45.4338C27.3796 45.9128 27.4525 46.3759 27.515 46.797C27.1255 40.6329 26.4993 36.5236 25.8291 34.197L22.8678 36.1276C22.8678 36.1276 24.7977 39.033 25.8671 40.8007C26.5445 41.9146 27.0709 44.8275 27.3657 46.8128C27.3305 46.255 27.2933 45.7142 27.2544 45.1901ZM27.2544 45.1901C26.8629 39.9219 26.2907 36.3413 25.685 34.2385L25.6849 34.2383C24.778 31.0703 22.5859 27.8566 22.4501 27.6596L22.4443 27.6512L22.4397 27.6421L22.4334 27.6295L22.4253 27.6136L22.4218 27.5986M27.2544 45.1901C27.109 44.3707 26.9359 43.5166 26.7388 42.7547C26.5232 41.9214 26.2751 41.183 25.9954 40.7231C25.4594 39.837 24.7084 38.667 24.0922 37.7195C23.7839 37.2456 23.5091 36.8269 23.3114 36.5267C23.2125 36.3766 23.1329 36.2561 23.0779 36.1732L23.0401 36.116L24.1545 33.8078L24.212 33.6886L24.1011 33.6167L21.7229 32.0745L21.7194 32.0069C21.7146 31.916 21.7078 31.7852 21.6997 31.6257C21.6835 31.3067 21.662 30.8726 21.6407 30.4126C21.5979 29.4901 21.5562 28.4701 21.5593 28.0583H21.5593V28.0571C21.5593 28.0049 21.5609 27.9657 21.5629 27.9387C21.5629 27.9384 21.5629 27.9382 21.5629 27.938C21.5638 27.9374 21.5646 27.9368 21.5655 27.9362C21.5879 27.9207 21.62 27.9015 21.6612 27.8795C21.7432 27.8358 21.85 27.7866 21.9606 27.7402C22.0708 27.6939 22.1819 27.6515 22.2716 27.621C22.3166 27.6057 22.3547 27.5938 22.3838 27.586C22.3974 27.5824 22.4068 27.5803 22.4128 27.579M22.4218 27.5986L22.4219 27.5987M22.4218 27.5986L22.4214 27.5967L22.4215 27.5971L22.4216 27.5978L22.4219 27.5987M22.4218 27.5986L22.4203 27.5941C22.4184 27.5892 22.4158 27.5837 22.4128 27.579M22.4219 27.5987L22.4219 27.5988C22.4219 27.599 22.422 27.599 22.4219 27.599C22.4219 27.599 22.4219 27.5989 22.4219 27.5987ZM22.4128 27.579C22.4187 27.5778 22.4213 27.5774 22.4213 27.5772C22.4213 27.5772 22.4203 27.5772 22.4186 27.5772C22.4186 27.5772 22.4171 27.5771 22.4148 27.5764C22.4125 27.5757 22.4106 27.5748 22.4094 27.574C22.4088 27.5736 22.4085 27.5733 22.4085 27.5733C22.4085 27.5733 22.4099 27.5745 22.4122 27.578C22.4124 27.5783 22.4126 27.5786 22.4128 27.579Z" fill="#0A9D57" stroke="black" stroke-width="0.3"/>
<path d="M30.3707 47.7429L30.3707 47.7414C30.3233 42.884 30.2569 36.9372 30.1617 35.3235C30.1443 34.9712 30.1113 34.5883 30.0771 34.1919C30.0735 34.1508 30.07 34.1096 30.0664 34.0682L30.0663 34.0669C29.9426 32.7566 29.7524 31.2965 29.5814 30.1106C29.4769 29.3861 29.3819 28.7555 29.3154 28.3316L29.3155 28.3316L29.3142 28.3252C29.3008 28.2586 29.2927 28.199 29.2852 28.1431C29.2827 28.1249 29.2803 28.1072 29.2778 28.0897C29.2704 28.0352 29.2631 27.9848 29.2563 27.9402C29.3501 27.9638 29.4703 27.9961 29.6078 28.0377L29.629 28.0442H29.6353C29.6598 28.0527 29.6848 28.0613 29.7105 28.0702C29.8515 28.1188 30.0092 28.1733 30.1737 28.24C31.0208 28.5851 31.2766 28.7295 31.9102 29.0874C32.0286 29.1543 32.1602 29.2287 32.3114 29.3132C33.2174 29.8221 34.0959 30.5151 34.5808 31.6935L34.5808 31.6935L34.5827 31.6978C34.6912 31.9395 34.7738 32.211 34.8386 32.514L34.8386 32.514L34.8389 32.5154C35.0495 33.4565 35.2033 35.1866 35.3043 36.692C35.3546 37.4425 35.3917 38.1335 35.4161 38.6369C35.4283 38.8886 35.4374 39.0934 35.4434 39.2351L35.4501 39.3986L35.4518 39.4411L35.4522 39.4519L35.4523 39.4542L35.4523 39.4546L35.4523 39.4553L35.4524 39.4555L35.7085 48.2724L35.7086 48.2738L35.9144 58.7819H30.4366C30.4279 56.4775 30.4005 52.9605 30.3808 50.4499C30.3771 49.973 30.3737 49.5324 30.3707 49.1433L30.3707 47.7429Z" fill="#FCF9F9" stroke="black" stroke-width="0.3"/>
<path d="M31.7182 31.4586L31.6981 31.4262L31.5032 31.1119C31.3398 30.8485 31.1168 30.4893 30.8784 30.1062C30.4014 29.3398 29.8637 28.4795 29.6177 28.0981C29.5805 28.0414 29.5491 27.9952 29.5258 27.962C29.5141 27.9454 29.5048 27.9326 29.4982 27.9238C29.497 27.9223 29.4961 27.921 29.4952 27.9199C29.4914 27.9175 29.4827 27.912 29.4666 27.9038C29.4411 27.8907 29.4066 27.8753 29.3645 27.8583C29.2805 27.8243 29.174 27.7872 29.065 27.7534C28.9853 27.7286 28.9058 27.7061 28.8344 27.6882L28.9564 27.8091H28.7648L28.7705 27.8445C28.7922 27.9798 28.8232 28.1761 28.861 28.4207C28.9366 28.9097 29.039 29.5915 29.1465 30.3624C29.3613 31.9028 29.597 33.804 29.678 35.235C29.6934 35.4883 29.7199 35.8853 29.7539 36.3936C29.8901 38.4339 30.146 42.2665 30.2828 45.7861C30.3786 44.1977 30.4999 42.4674 30.643 41.6645L31.7182 31.4586ZM31.7182 31.4586L30.4751 33.2204L30.414 33.3069L30.4751 33.3934L31.9677 35.5075M31.7182 31.4586L31.9677 35.5075M31.9677 35.5075L31.9376 35.6394C31.9087 35.766 31.8671 35.9488 31.8162 36.1735C31.7144 36.6229 31.5756 37.2399 31.4272 37.9103C31.1308 39.2499 30.7955 40.8068 30.643 41.6645L31.9677 35.5075Z" fill="#0A9D57" stroke="black" stroke-width="0.3"/>
<path d="M21.229 38.9047C21.0786 38.9047 20.9563 38.7853 20.9563 38.635V36.2561C20.9563 36.1084 21.0761 35.9865 21.229 35.9865C21.3821 35.9865 21.5017 36.1056 21.5017 36.2561V38.635C21.5017 38.7828 21.3818 38.9047 21.229 38.9047Z" fill="#81F2EF" stroke="black" stroke-width="0.1"/>
<path d="M19.8276 39.9797C19.6773 39.9797 19.5549 39.8603 19.5549 39.71V35.3159C19.5549 35.1681 19.6747 35.0462 19.8276 35.0462C19.9807 35.0462 20.1003 35.1653 20.1003 35.3159V39.71C20.1003 39.8578 19.9804 39.9797 19.8276 39.9797Z" fill="#2D918A" stroke="black" stroke-width="0.1"/>
<path d="M20.2298 34.8677C20.2298 35.0872 20.0501 35.2659 19.8274 35.2659C19.6047 35.2659 19.425 35.0872 19.425 34.8677C19.425 34.6482 19.6047 34.4695 19.8274 34.4695C20.0501 34.4695 20.2298 34.6482 20.2298 34.8677Z" fill="#2D918A" stroke="black" stroke-width="0.1"/>
<path d="M19.1086 34.8708C19.1086 34.475 19.4282 34.1498 19.8274 34.1498C20.2273 34.1498 20.5557 34.4758 20.5557 34.8708C20.5557 35.1601 20.3788 35.4152 20.1304 35.53C20.0401 35.5657 19.933 35.5918 19.8274 35.5918C19.722 35.5918 19.6152 35.5658 19.525 35.5303C19.276 35.4062 19.1086 35.16 19.1086 34.8708ZM19.8274 34.6892C19.7361 34.6892 19.6445 34.7653 19.6445 34.8708C19.6445 34.9242 19.6706 34.9651 19.7072 34.991C19.7422 35.0158 19.7862 35.0266 19.8274 35.0266C19.8686 35.0266 19.9125 35.0158 19.9476 34.991C19.9842 34.9651 20.0103 34.9242 20.0103 34.8708C20.0103 34.7676 19.9305 34.6892 19.8274 34.6892Z" fill="#2D918A" stroke="black" stroke-width="0.1"/>
<path d="M18.8295 37.8479H22.7111C22.713 37.8828 22.7151 37.9239 22.7172 37.9706C22.7249 38.1381 22.733 38.3778 22.7349 38.6656C22.7387 39.2417 22.7173 40.0077 22.6175 40.7719C22.5173 41.5389 22.3396 42.2906 22.0382 42.8465C21.7385 43.3992 21.3316 43.7347 20.7703 43.7347C20.209 43.7347 19.8021 43.3992 19.5025 42.8465C19.201 42.2906 19.0233 41.5389 18.9231 40.7719C18.8233 40.0077 18.8019 39.2417 18.8057 38.6656C18.8076 38.3778 18.8157 38.1381 18.8234 37.9706C18.8255 37.9239 18.8276 37.8828 18.8295 37.8479Z" fill="#939AA0" stroke="black" stroke-width="0.3"/>
<path d="M39.9648 38.5629C39.9648 38.5629 40.5217 37.3625 40.9298 36.7545C41.436 36.0054 44.4036 35.6481 44.7769 35.5039C45.4951 35.225 45.8747 35.2438 45.6944 35.6544C45.4097 36.3063 44.2834 36.416 44.0967 36.6667C43.91 36.9175 45.3274 36.8673 45.8652 36.8454C46.4062 36.8234 47.6401 36.1715 48.2064 36.2655C48.7696 36.3596 48.5354 36.6855 48.5354 36.6855C48.5354 36.6855 49.0986 36.5006 49.2631 36.6385C49.4276 36.7764 49.2631 36.9864 49.2631 36.9864C49.2631 36.9864 49.7092 36.8924 49.8959 37.0804C50.0825 37.2653 49.7535 37.5004 49.7535 37.5004C49.7535 37.5004 50.0098 37.7292 49.9528 37.9643C49.8959 38.1993 48.681 39.4311 47.2984 39.6191C45.9127 39.804 42.3693 40.1551 42.3693 40.1551L39.968 38.5723L39.9648 38.5629Z" fill="#F9AA8F"/>
<path d="M34.8775 41.5789L39.5254 37.2634L45.0077 41.4027L35.1566 51.2614L34.8775 41.5789Z" fill="#FCF9F9" stroke="black" stroke-width="0.3"/>
<path d="M56.0991 71.3182L56.0802 67.0338C56.0802 67.0338 55.6499 68.0304 54.8336 68.6134C54.0079 69.1995 52.5146 69.2716 52.5146 69.2716H20.7727C19.6242 69.2716 18.6973 70.193 18.6973 71.3276V90.3081C18.6973 91.4459 19.6274 92.3642 20.7727 92.3642H54.0237C55.1722 92.3642 56.0991 91.4427 56.0991 90.3081V71.3276C56.0991 71.3276 56.0991 71.3213 56.0991 71.315V71.3182Z" fill="#FCF9F9"/>
<path d="M31.7701 76.7184H21.6366C21.4404 76.7184 21.2822 76.5616 21.2822 76.3673C21.2822 76.173 21.4404 76.0163 21.6366 76.0163H31.7701C31.9662 76.0163 32.1244 76.173 32.1244 76.3673C32.1244 76.5616 31.9662 76.7184 31.7701 76.7184Z" fill="#939AA0"/>
<path d="M38.4359 81.9744H21.6395C21.4433 81.9744 21.2852 81.8177 21.2852 81.6233C21.2852 81.429 21.4433 81.2723 21.6395 81.2723H38.4359C38.632 81.2723 38.7902 81.429 38.7902 81.6233C38.7902 81.8177 38.632 81.9744 38.4359 81.9744Z" fill="#939AA0"/>
<path d="M38.4359 79.3448H21.6395C21.4433 79.3448 21.2852 79.1881 21.2852 78.9938C21.2852 78.7994 21.4433 78.6427 21.6395 78.6427H38.4359C38.632 78.6427 38.7902 78.7994 38.7902 78.9938C38.7902 79.1881 38.632 79.3448 38.4359 79.3448Z" fill="#939AA0"/>
<path d="M34.7282 84.5851H21.6366C21.4404 84.5851 21.2822 84.4284 21.2822 84.2341C21.2822 84.0398 21.4404 83.8831 21.6366 83.8831H34.7282C34.9243 83.8831 35.0825 84.0398 35.0825 84.2341C35.0825 84.4284 34.9243 84.5851 34.7282 84.5851Z" fill="#939AA0"/>
<path d="M34.7282 89.4807H21.6366C21.4404 89.4807 21.2822 89.324 21.2822 89.1297C21.2822 88.9354 21.4404 88.7787 21.6366 88.7787H34.7282C34.9243 88.7787 35.0825 88.9354 35.0825 89.1297C35.0825 89.324 34.9243 89.4807 34.7282 89.4807Z" fill="#939AA0"/>
<path d="M31.7701 87.0329H21.6366C21.4404 87.0329 21.2822 86.8762 21.2822 86.6819C21.2822 86.4876 21.4404 86.3309 21.6366 86.3309H31.7701C31.9662 86.3309 32.1244 86.4876 32.1244 86.6819C32.1244 86.8762 31.9662 87.0329 31.7701 87.0329Z" fill="#939AA0"/>
<path d="M21.6363 74.3082H40.5049V72.4496H21.6363V74.3082Z" fill="#939AA0"/>
<path d="M34.2215 69.6257H31.2381C31.042 69.6257 30.8838 69.469 30.8838 69.2747C30.8838 69.0804 31.042 68.9237 31.2381 68.9237H34.2215C34.4177 68.9237 34.5759 69.0804 34.5759 69.2747C34.5759 69.469 34.4177 69.6257 34.2215 69.6257Z" fill="#939AA0"/>
<path d="M54.0238 92.7215H20.7728C19.4313 92.7215 18.3398 91.6402 18.3398 90.3113V71.3307C18.3398 70.0018 19.4313 68.9205 20.7728 68.9205H27.1794C27.3755 68.9205 27.5337 69.0772 27.5337 69.2716C27.5337 69.4659 27.3755 69.6226 27.1794 69.6226H20.7728C19.8236 69.6226 19.0517 70.3873 19.0517 71.3276V90.3081C19.0517 91.2484 19.8236 92.0131 20.7728 92.0131H54.0238C54.9729 92.0131 55.7449 91.2484 55.7449 90.3081V83.0995C55.7449 82.9052 55.9031 82.7485 56.0992 82.7485C56.2954 82.7485 56.4536 82.9052 56.4536 83.0995V90.3081C56.4536 91.637 55.3621 92.7183 54.0206 92.7183L54.0238 92.7215Z" fill="#939AA0"/>
<path d="M43.7502 74.3082V78.1131C43.7502 78.1131 45.7814 79.8149 45.3542 81.6202C44.9303 83.4255 43.5984 84.4096 42.0513 84.231C40.5074 84.0555 39.4475 83.8737 38.9318 84.535C38.4161 85.1963 38.6281 88.437 38.6281 88.437H40.172C40.172 88.437 39.8398 86.7853 40.2638 86.1867C40.6877 85.5881 42.6682 88.1079 45.4808 88.0171C48.2934 87.9262 52.9567 84.325 52.8966 80.5138C52.8365 76.7027 49.7455 75.4427 48.4136 75.5932C47.0817 75.7436 45.4808 76.944 45.4808 76.944V74.3082H43.7471H43.7502Z" fill="#FF7769"/>
<path d="M40.1757 88.7912H38.6318C38.4451 88.7912 38.2901 88.647 38.2774 88.4621C38.2394 87.898 38.0844 85.0521 38.6539 84.3219C39.255 83.5509 40.3117 83.6731 41.7734 83.8486L42.0961 83.8862C43.4881 84.0429 44.6397 83.1246 45.0099 81.545C45.38 79.9685 43.5387 78.4014 43.5197 78.3857C43.4407 78.3199 43.3932 78.2196 43.3932 78.1162V74.3113C43.3932 74.117 43.5514 73.9603 43.7475 73.9603H45.4813C45.6774 73.9603 45.8356 74.117 45.8356 74.3113V76.2796C46.4494 75.8972 47.4555 75.3487 48.3729 75.2453C49.1607 75.1575 50.4231 75.4804 51.4797 76.4018C52.2707 77.0882 53.2166 78.3607 53.2514 80.5138C53.3147 84.5663 48.4615 88.2772 45.4908 88.3744C43.7444 88.4464 42.2637 87.5219 41.3083 86.917C41.0267 86.7383 40.6819 86.5221 40.5142 86.4656C40.3338 86.8511 40.4035 87.7883 40.5237 88.3744C40.5427 88.4778 40.5173 88.5843 40.4509 88.6658C40.3845 88.7473 40.2832 88.7943 40.1757 88.7943V88.7912ZM38.9671 88.086H39.7549C39.6726 87.4968 39.6093 86.5033 39.9732 85.9861C40.3433 85.4658 40.9698 85.8607 41.6943 86.3183C42.6307 86.9076 43.9342 87.7318 45.4718 87.666C48.1736 87.5783 52.5997 84.0868 52.5428 80.5233C52.5143 78.6302 51.6949 77.5238 51.0115 76.9315C50.1225 76.1573 49.0595 75.869 48.4552 75.9474C47.234 76.0853 45.7122 77.2167 45.6964 77.2292C45.5888 77.3107 45.4433 77.3233 45.3231 77.2637C45.2029 77.2042 45.1269 77.0819 45.1269 76.9472V74.6655H44.105V77.9595C44.5701 78.3889 46.1077 79.9685 45.6996 81.7017C45.2472 83.6261 43.7697 84.7951 42.0106 84.5851L41.6848 84.5475C40.4541 84.4065 39.5682 84.2999 39.2107 84.7544C38.9608 85.0709 38.8943 86.6662 38.9608 88.086H38.9671Z" fill="#DD4231"/>
<path d="M58.1307 12.9097V8.64406C58.1307 7.50635 57.2005 6.58804 56.0553 6.58804H39.7619C38.6135 6.58804 37.6865 7.50949 37.6865 8.64406V28.7185C37.6865 29.8562 38.6167 30.7745 39.7619 30.7745H56.0553C57.2037 30.7745 58.1307 29.853 58.1307 28.7185V12.9097Z" fill="#FCF9F9"/>
<path d="M43.6504 28.1324C42.4324 28.1324 41.4453 27.1545 41.4453 25.9478V15.7116C41.4453 14.505 42.4324 13.5271 43.6504 13.5271C44.8685 13.5271 45.8556 14.505 45.8556 15.7116V25.9447C45.8556 27.1514 44.8685 28.1292 43.6504 28.1292V28.1324Z" fill="#FCF9F9"/>
<path d="M43.6503 28.4834C42.2393 28.4834 41.0908 27.3457 41.0908 25.9478V15.7116C41.0908 14.3138 42.2393 13.1761 43.6503 13.1761C45.0613 13.1761 46.2098 14.3138 46.2098 15.7116V25.9447C46.2098 27.3425 45.0613 28.4803 43.6503 28.4803V28.4834ZM43.6503 13.8813C42.6316 13.8813 41.8027 14.7024 41.8027 15.7116V25.9447C41.8027 26.9539 42.6316 27.7751 43.6503 27.7751C44.669 27.7751 45.4979 26.9539 45.4979 25.9447V15.7116C45.4979 14.7024 44.669 13.8813 43.6503 13.8813Z" fill="#939AA0"/>
<path d="M45.8556 20.8297V26.1672C45.8556 27.2517 44.8685 28.1324 43.6504 28.1324C42.4324 28.1324 41.4453 27.2548 41.4453 26.1672V20.8297H45.8556Z" fill="#0A9D57"/>
<path d="M43.6505 28.4834C42.2363 28.4834 41.0879 27.4428 41.0879 26.1672V20.8297C41.0879 20.6354 41.2461 20.4787 41.4422 20.4787H45.8525C46.0487 20.4787 46.2068 20.6354 46.2068 20.8297V26.1672C46.2068 27.446 45.0584 28.4834 43.6474 28.4834H43.6505ZM41.7997 21.1839V26.1672C41.7997 27.0573 42.6286 27.7782 43.6474 27.7782C44.6661 27.7782 45.4982 27.0542 45.4982 26.1672V21.1839H41.7997Z" fill="#088248"/>
<path d="M54.3692 24.1426C54.3692 25.7347 53.0657 27.026 51.4585 27.026C49.8513 27.026 48.5479 25.7347 48.5479 24.1426C48.5479 22.5504 49.8513 21.2591 51.4585 21.2591C53.0657 21.2591 54.3692 22.5504 54.3692 24.1426Z" fill="#FCF9F9"/>
<path d="M51.4583 27.3802C49.6582 27.3802 48.1934 25.929 48.1934 24.1426C48.1934 22.3561 49.6582 20.9081 51.4583 20.9081C53.2585 20.9081 54.7265 22.3592 54.7265 24.1426C54.7265 25.9259 53.2617 27.3802 51.4583 27.3802ZM51.4583 21.6133C50.0505 21.6133 48.9052 22.7478 48.9052 24.1426C48.9052 25.5373 50.0505 26.675 51.4583 26.675C52.8662 26.675 54.0147 25.5404 54.0147 24.1426C54.0147 22.7447 52.8694 21.6133 51.4583 21.6133Z" fill="#939AA0"/>
<path d="M54.3277 24.1426C54.3277 25.7347 53.0685 27.026 51.4613 27.026C49.8541 27.026 48.5918 25.7347 48.5918 24.1426H54.3308H54.3277Z" fill="#FCF9F9"/>
<path d="M51.4585 27.377C49.6804 27.377 48.2314 25.9259 48.2314 24.1426C48.2314 23.9482 48.3896 23.7915 48.5858 23.7915H54.3217C54.5178 23.7915 54.676 23.9482 54.676 24.1426C54.676 25.9259 53.2302 27.377 51.4521 27.377H51.4585ZM48.9686 24.4936C49.1331 25.741 50.1677 26.6718 51.4585 26.6718C52.7493 26.6718 53.7807 25.741 53.9483 24.4936H48.9686Z" fill="#939AA0"/>
<path d="M54.3694 16.0564C54.3694 17.6485 53.0659 18.9398 51.4556 18.9398C49.8452 18.9398 48.5449 17.6485 48.5449 16.0564H54.3662H54.3694Z" fill="#FCF9F9"/>
<path d="M51.4554 19.2909C49.6552 19.2909 48.1904 17.8397 48.1904 16.0564C48.1904 15.8621 48.3486 15.7054 48.5448 15.7054H54.3661C54.5622 15.7054 54.7204 15.8621 54.7204 16.0564C54.7204 17.8397 53.2556 19.2909 51.4523 19.2909H51.4554ZM48.9276 16.4074C49.1016 17.636 50.1709 18.5857 51.4554 18.5857C52.7399 18.5857 53.8124 17.636 53.9864 16.4074H48.9244H48.9276Z" fill="#939AA0"/>
<path d="M58.1307 19.761C57.9346 19.761 57.7764 19.6043 57.7764 19.4099V16.5579C57.7764 16.3635 57.9346 16.2068 58.1307 16.2068C58.3269 16.2068 58.485 16.3635 58.485 16.5579V19.4099C58.485 19.6043 58.3269 19.761 58.1307 19.761Z" fill="#939AA0"/>
<path d="M46.3395 31.1255H39.762C38.4206 31.1255 37.3291 30.0442 37.3291 28.7153V8.64406C37.3291 7.31517 38.4206 6.23388 39.762 6.23388H56.0553C57.3968 6.23388 58.4883 7.31517 58.4883 8.64406V12.9097C58.4883 13.104 58.3301 13.2607 58.1339 13.2607C57.9378 13.2607 57.7796 13.104 57.7796 12.9097V8.64406C57.7796 7.7038 57.0076 6.93906 56.0585 6.93906H39.7652C38.8161 6.93906 38.0441 7.7038 38.0441 8.64406V28.7153C38.0441 29.6556 38.8161 30.4203 39.7652 30.4203H46.3426C46.5388 30.4203 46.697 30.577 46.697 30.7713C46.697 30.9657 46.5388 31.1224 46.3426 31.1224L46.3395 31.1255Z" fill="#939AA0"/>
<path d="M40.4582 11.1796L55.3848 11.1796V9.32104L40.4582 9.32104V11.1796Z" fill="#939AA0"/>
<path d="M71.3065 13.991L71.3058 14.2372L71.3028 15.3113C71.3004 16.2097 71.2975 17.4306 71.2951 18.7205C71.2904 21.2996 71.288 24.156 71.2975 25.2622C71.2975 25.2624 71.2975 25.2626 71.2975 25.2627L71.3065 13.991ZM71.3065 13.991L66.2883 14.1091L66.2803 14.1115C66.263 14.1166 66.2372 14.1244 66.2039 14.135C66.1373 14.156 66.0408 14.1878 65.9227 14.2306C65.6862 14.3161 65.3639 14.4448 65.0206 14.6178C64.3264 14.9675 63.5777 15.4823 63.2492 16.1593C62.9171 16.849 62.8368 17.6498 62.8049 18.3807C62.7985 18.5261 62.794 18.6708 62.7897 18.8112C62.7833 19.0166 62.7772 19.2127 62.766 19.388C62.7472 19.6823 62.7128 19.952 62.6251 20.1504C62.4666 20.5131 62.1716 20.7054 61.9366 20.8586C61.9148 20.8728 61.8935 20.8867 61.8729 20.9004C61.6192 21.0683 61.4703 21.1957 61.4703 21.4534C61.4703 21.7382 61.6531 22.0266 61.8634 22.259C61.9656 22.3719 62.0683 22.465 62.1455 22.5299C62.1841 22.5623 62.216 22.5874 62.238 22.6042C62.249 22.6126 62.2575 22.6189 62.2631 22.623L62.2692 22.6275L62.2705 22.6285L62.2707 22.6285L62.2707 22.6286L62.2707 22.6286L62.2708 22.6286L62.3354 22.6743L62.334 22.7536L62.334 22.7536L62.334 22.7536L62.334 22.7538L62.334 22.7547L62.3339 22.7589L62.3338 22.7759C62.3337 22.7911 62.3337 22.8138 62.334 22.8432C62.3345 22.9019 62.3362 22.9874 62.3407 23.0931C62.3497 23.3046 62.3702 23.5963 62.4156 23.917C62.5076 24.567 62.6981 25.3022 63.0762 25.7468C63.2614 25.9618 63.5323 26.1283 63.846 26.2555C64.1588 26.3823 64.5048 26.4663 64.8299 26.5216C65.1545 26.5768 65.4544 26.6028 65.6734 26.6149C65.7827 26.621 65.8715 26.6236 65.9327 26.6246C65.9633 26.6252 65.987 26.6253 66.0029 26.6253L66.0207 26.6253L66.025 26.6253L66.0259 26.6253L66.0261 26.6253H66.0261H66.0261L66.1741 26.6234L66.1779 26.7714L66.2349 28.9527L66.237 29.0346L66.1694 29.0806L63.7249 30.7455L70.2092 32.1438L70.721 29.484L70.7212 29.4831L70.7625 29.2612L69.1667 28.8095L69.0699 28.7821L69.0585 28.6822L68.8117 26.5196L68.7936 26.3605L68.9535 26.3528L68.9535 26.3528L71.3065 13.991Z" fill="#F9AA8F" stroke="black" stroke-width="0.3"/>
<path d="M61.9795 45.429L61.9795 45.4285C62.2026 44.3191 62.4422 43.1204 62.6261 42.199L62.8511 41.0707L62.8951 40.8496L59.1705 41.5237L59.162 41.6084L59.1092 42.1345C59.0651 42.5727 59.0055 43.1643 58.9432 43.7773C58.8189 45.0009 58.6835 46.3138 58.6404 46.6605C58.6198 46.8425 58.491 47.4133 58.3146 48.1504C58.1365 48.8952 57.9062 49.8243 57.6783 50.7318C57.4505 51.6394 57.225 52.5258 57.0565 53.1853C56.9722 53.5151 56.9022 53.7881 56.8533 53.9787L56.7965 54.1996L56.7816 54.2576L56.7777 54.2725L56.7767 54.2762L56.7765 54.2772L56.7764 54.2774L56.6312 54.2401M61.9795 45.429L56.5512 62.7272L56.5386 62.8878L56.5386 62.8879L56.5386 62.8879L56.5386 62.8879L56.5386 62.888L56.5385 62.8888L56.5381 62.8934L56.536 62.9127C56.534 62.9296 56.5307 62.9538 56.5258 62.9819C56.5157 63.0399 56.4997 63.1073 56.4765 63.1621C56.4582 63.2051 56.443 63.2227 56.4366 63.229C56.4266 63.2257 56.4059 63.2152 56.3716 63.1839C56.2946 63.1136 56.1271 62.9118 55.9172 62.6161C55.7102 62.3245 55.4691 61.9519 55.2449 61.5482C55.0204 61.1441 54.8146 60.712 54.6762 60.3009C54.5369 59.8871 54.4708 59.5085 54.5114 59.2057L54.5114 59.2056C54.5537 58.8884 54.7109 58.426 54.9316 57.8998C55.1507 57.3775 55.4268 56.8053 55.6982 56.2734C55.9695 55.7418 56.2352 55.2521 56.4333 54.8952C56.5322 54.7168 56.6142 54.5717 56.6714 54.4713C56.7 54.4211 56.7224 54.382 56.7377 54.3556L56.755 54.3255L56.7594 54.3179L56.7605 54.316L56.7608 54.3156L56.7608 54.3155L56.6312 54.2401M61.9795 45.429C61.6946 46.868 61.4386 48.1455 61.363 48.5015L61.3629 48.5015L61.3626 48.503C61.3435 48.5981 61.2827 48.7678 61.1829 49.0045C61.0848 49.2374 60.9537 49.5241 60.8003 49.8477C60.5491 50.378 60.2401 51.0031 59.9221 51.6465C59.8519 51.7886 59.7812 51.9315 59.7106 52.0746C59.321 52.8642 58.934 53.6556 58.6408 54.3046C58.4943 54.6291 58.3702 54.92 58.2807 55.1585C58.1937 55.3905 58.1325 55.59 58.1235 55.7244L61.9795 45.429ZM56.6312 54.2401L56.7764 54.2775L56.7713 54.2975L56.7609 54.3154L56.6312 54.2401ZM57.6394 59.8814C57.6394 59.8819 57.6394 59.8823 57.6395 59.8828L57.7891 59.8722L57.6393 59.8801C57.6393 59.8805 57.6394 59.881 57.6394 59.8814ZM56.4439 63.2302C56.444 63.2304 56.4429 63.2306 56.4405 63.2301C56.4427 63.2298 56.4439 63.23 56.4439 63.2302Z" fill="#F9AA8F" stroke="black" stroke-width="0.3"/>
<path d="M80.9621 46.1917C80.9524 46.1967 80.9437 46.2011 80.9359 46.2049L76.1145 45.3845L75.8855 44.0231L75.8854 44.0228L74.903 38.11L79.475 37.1579L79.502 37.2184C79.5512 37.3285 79.6223 37.4885 79.71 37.6874C79.8853 38.0854 80.1271 38.6394 80.3924 39.2638C80.767 40.1516 81.1883 41.1811 81.5312 42.1076C81.8762 43.0397 82.1355 43.8514 82.1947 44.3113L82.1943 44.3114L82.1964 44.3219C82.2121 44.3995 82.2124 44.4525 82.2124 44.5154C82.1854 45.3253 81.537 45.8512 81.1465 46.0909C81.0692 46.1359 81.0058 46.1695 80.9621 46.1917Z" fill="#F9AA8F" stroke="black" stroke-width="0.3"/>
<path d="M60.9087 93.4129C60.8819 93.4104 60.8626 93.408 60.8499 93.4058L60.8299 93.3926H60.7848H60.7817H60.7817H60.7817H60.7817L60.7813 93.3926L60.7791 93.3926L60.7699 93.3925C60.7615 93.3924 60.749 93.3921 60.7329 93.3916C60.7008 93.3906 60.6546 93.3886 60.5992 93.3846C60.4879 93.3765 60.343 93.3604 60.2027 93.3289C60.0593 93.2967 59.936 93.2516 59.857 93.194C59.785 93.1415 59.764 93.0921 59.7748 93.0287C59.7746 93.0295 59.7746 93.0299 59.7746 93.0299C59.7749 93.03 59.7801 93.0147 59.8075 92.9821C59.8368 92.9473 59.8814 92.9045 59.9427 92.8541C60.0648 92.7535 60.2387 92.6347 60.4504 92.5037C60.873 92.2424 61.4305 91.9427 61.9884 91.6582C62.5456 91.3741 63.1002 91.1068 63.5158 90.9103C63.7236 90.8121 63.8964 90.7317 64.0173 90.6759C64.0777 90.648 64.1251 90.6262 64.1574 90.6114L64.1816 90.6004L67.5494 90.3992C67.5588 90.4314 67.5698 90.4697 67.5821 90.5131C67.6221 90.6538 67.6757 90.8475 67.7303 91.0597C67.8408 91.4894 67.9506 91.9773 67.9655 92.2592C67.9803 92.5422 67.9378 92.8511 67.8898 93.0935C67.866 93.2138 67.8412 93.3158 67.8224 93.3875C67.8218 93.3899 67.8212 93.3922 67.8206 93.3945L67.6327 93.3975C67.4418 93.4005 67.169 93.4047 66.8409 93.4094C66.1849 93.4187 65.3083 93.4298 64.4262 93.4373C63.544 93.4447 62.6568 93.4484 61.9793 93.4429C61.6404 93.4401 61.3552 93.435 61.1497 93.4269C61.0467 93.4229 60.9657 93.4182 60.9087 93.4129Z" fill="#1E5259" stroke="black" stroke-width="0.3"/>
<path d="M70.8675 93.4459C70.8856 93.3408 70.9116 93.1955 70.9437 93.0306C71.0091 92.694 71.0988 92.2814 71.1975 91.9636C71.2401 91.8266 71.3354 91.6706 71.465 91.5086C71.5931 91.3483 71.7475 91.1909 71.8981 91.0512C72.0484 90.9119 72.1929 90.7922 72.2998 90.7073C72.3532 90.6649 72.3971 90.6313 72.4275 90.6084L72.4585 90.5853L74.2051 89.922C74.2439 90.0036 74.3022 90.1178 74.3818 90.253C74.5429 90.5265 74.7925 90.8878 75.147 91.239C75.2925 91.3832 75.3941 91.5939 75.4605 91.8429C75.5267 92.0907 75.555 92.3649 75.5626 92.6236C75.57 92.8815 75.5567 93.1196 75.5414 93.2934C75.5362 93.3524 75.5308 93.4038 75.5259 93.4459H70.8675Z" fill="#1E5259" stroke="black" stroke-width="0.3"/>
<path d="M76.5238 58.0258C76.446 62.8342 76.0595 70.8684 75.6902 77.7364C75.5034 81.2109 75.321 84.386 75.1853 86.6925C75.1174 87.8458 75.0613 88.7819 75.0221 89.4296C75.0025 89.7535 74.9871 90.0053 74.9767 90.1761L74.9693 90.296H72.2779L70.1156 63.6743L70.101 63.4952L69.9274 63.5415L68.5891 63.8988L68.4809 63.9277L68.4779 64.0397L67.7605 90.296H64.116L64.1094 90.2099L64.0604 89.5657C64.018 89.0061 63.957 88.1963 63.8829 87.1955C63.7346 85.1938 63.5335 82.428 63.3224 79.3713C62.9 73.2571 62.4375 65.982 62.2762 61.3306L62.2762 61.3302C62.2324 60.158 62.1967 58.9938 62.1615 57.8445C63.0046 58.3663 64.0406 58.8404 65.1012 58.9464L65.1012 58.9464L65.1019 58.9465C65.9635 59.028 67.906 58.9038 70.0982 58.7056C72.2332 58.5126 74.6228 58.2476 76.5238 58.0258Z" fill="#6A8F9B" stroke="black" stroke-width="0.3"/>
<path d="M68.9601 26.5026L69.2069 28.6652L70.9343 29.1541L70.8679 29.5114L68.2483 29.0507L68.1724 27.4052L66.0273 26.7753C66.0273 26.7753 67.5175 26.5966 69.2259 26.0607C70.3459 25.7034 71.0767 25.4119 71.4469 25.2615C71.4469 25.4777 71.4563 25.6282 71.4563 25.694C71.4943 26.3804 68.9601 26.5026 68.9601 26.5026Z" fill="#CC6148"/>
<path d="M76.5995 42.3143L76.5361 42.3591V42.4367V56.4841C76.5361 56.8613 76.5361 57.2764 76.529 57.7231C74.6226 57.9458 72.2176 58.2128 70.0715 58.4068C67.8696 58.6059 65.9588 58.7261 65.1308 58.6478C64.0633 58.5411 63.0036 58.0337 62.1505 57.4823C62.0188 53.5771 61.9082 49.927 61.8304 47.2477C61.7913 45.8991 61.7604 44.7964 61.7394 44.0309C61.7288 43.6481 61.7208 43.3497 61.7153 43.1469L61.7091 42.916L61.7076 42.857L61.7072 42.8421L61.7071 42.8384L61.707 42.8374L61.707 42.8372L61.5571 42.841L61.707 42.8371L61.7042 42.7295L61.6013 42.6977L59.1051 41.9272C59.1137 41.8704 59.1252 41.7955 59.1391 41.7047C59.1735 41.4811 59.2232 41.1607 59.2848 40.7731C59.408 39.9979 59.5784 38.9545 59.7674 37.8814C59.9565 36.8079 60.164 35.7062 60.3613 34.8137C60.46 34.3673 60.5557 33.9751 60.6449 33.6658C60.7357 33.3508 60.8153 33.1384 60.8775 33.0386C61.0141 32.8208 61.3556 32.4992 61.8141 32.1295C62.2665 31.7647 62.8149 31.3671 63.3463 30.9984C63.8773 30.6299 64.3897 30.2914 64.7694 30.045C64.914 29.9511 65.0394 29.8706 65.1391 29.807C65.1391 29.8104 65.1391 29.8137 65.1391 29.8172C65.1386 30.0116 65.1655 30.276 65.2777 30.549C65.3906 30.8238 65.5889 31.1045 65.9252 31.3284C66.2604 31.5515 66.7249 31.7131 67.3633 31.764L67.3634 31.764C68.6797 31.8685 69.4737 31.1582 69.9294 30.4382C70.1563 30.0796 70.3016 29.7162 70.3902 29.4434C70.4279 29.3271 70.4556 29.2267 70.4749 29.1495C70.4916 29.1552 70.5095 29.1614 70.5287 29.168C70.6645 29.215 70.8602 29.2835 71.0994 29.3697C71.5779 29.542 72.23 29.7846 72.9247 30.0657C73.6198 30.347 74.3557 30.6661 75.0024 30.9915C75.6523 31.3185 76.2005 31.6461 76.5287 31.9421C76.8503 32.2343 77.265 32.8543 77.7115 33.6418C78.1547 34.4235 78.6192 35.3519 79.0421 36.2436C79.4647 37.135 79.8449 37.9879 80.1194 38.6181C80.2567 38.9332 80.3675 39.1924 80.4439 39.3729C80.4732 39.4419 80.4974 39.4995 80.5162 39.5441L76.5995 42.3143Z" fill="#FCF9F9" stroke="black" stroke-width="0.3"/>
<path d="M69.0907 20.3638C69.0497 20.3773 69.0118 20.3906 68.9775 20.4032C68.9749 20.3466 68.9718 20.2802 68.9683 20.2062C68.9566 19.958 68.9403 19.6233 68.9219 19.2774C68.9035 18.9316 68.883 18.574 68.8629 18.2802C68.8438 18.001 68.8244 17.7685 68.8064 17.6631C68.7973 17.5452 68.6933 17.4868 68.6204 17.4692C68.5391 17.4441 68.4346 17.4387 68.3291 17.4396C68.2157 17.4407 68.0817 17.4496 67.9378 17.4612C67.8729 17.4664 67.8058 17.4721 67.7369 17.478C67.4961 17.4986 67.2337 17.5211 66.9715 17.5288C66.6335 17.5386 66.3113 17.5231 66.0543 17.4523C65.7977 17.3816 65.6318 17.2638 65.5594 17.0873C65.3929 16.6772 65.3995 16.4156 65.4348 16.2664C65.4526 16.1911 65.4784 16.141 65.4972 16.1118C65.5067 16.0971 65.5145 16.0875 65.5189 16.0825L65.5222 16.0789L65.8572 15.7829L65.4085 15.8191L65.4084 15.8191L65.4084 15.8191L65.4081 15.8191L65.4064 15.8193L65.3991 15.8198L65.3693 15.8218C65.3429 15.8234 65.3039 15.8256 65.2541 15.8276C65.1543 15.8317 65.0112 15.8353 64.8394 15.8333C64.495 15.8293 64.0386 15.8026 63.5844 15.7133C63.128 15.6236 62.6871 15.4731 62.3633 15.2299C62.0459 14.9914 61.8404 14.6644 61.8404 14.201C61.8404 13.2809 62.0613 12.6151 62.3833 12.1312C62.7057 11.6467 63.1362 11.3345 63.571 11.1332C64.0067 10.9314 64.4445 10.8422 64.7749 10.8037C64.9397 10.7845 65.0768 10.7781 65.172 10.7765C65.2196 10.7756 65.2566 10.776 65.2814 10.7766L65.3091 10.7774L65.3157 10.7777L65.317 10.7777L65.3171 10.7777L65.3172 10.7778L65.3172 10.7778L65.4004 10.7825L65.448 10.7147L65.448 10.7146L65.448 10.7146L65.4482 10.7143L65.4487 10.7137L65.4535 10.7073C65.4582 10.7012 65.466 10.6914 65.4768 10.6786C65.4986 10.6528 65.5329 10.6147 65.5809 10.5686C65.6768 10.4763 65.8272 10.3518 66.0409 10.2292C66.4669 9.9849 67.1505 9.74483 68.1662 9.79057L68.1669 9.7906C69.1397 9.83003 69.7467 10.4426 70.1177 11.0699C70.3028 11.3829 70.4257 11.6945 70.5023 11.9286C70.5405 12.0453 70.567 12.1421 70.5838 12.2093C70.5922 12.2428 70.5982 12.2689 70.602 12.2863L70.6062 12.3058L70.6071 12.3103L70.6073 12.3112L70.6073 12.3113L70.6073 12.3113L70.6073 12.3114L70.6767 12.6709L70.8794 12.366L70.8794 12.366L70.8794 12.366L70.8795 12.3659L70.8798 12.3655L70.8819 12.3624L70.8916 12.3486C70.9004 12.3362 70.9141 12.3177 70.9322 12.2944C70.9685 12.2477 71.0228 12.1821 71.0932 12.1085C71.2347 11.9605 71.4375 11.784 71.6872 11.6603C71.9355 11.5374 72.2273 11.4677 72.5541 11.5261C72.8811 11.5846 73.2593 11.7743 73.6746 12.1992C74.0566 12.5958 74.2501 12.976 74.3287 13.3308C74.4602 13.9258 74.2796 14.4655 74.057 14.8649C73.9462 15.0637 73.8266 15.2246 73.7349 15.3355C73.6891 15.3908 73.6505 15.4335 73.6237 15.4619C73.6103 15.4761 73.5999 15.4868 73.593 15.4937L73.5855 15.5012L73.5839 15.5028L73.5837 15.5029L73.5837 15.5029L73.5836 15.503L73.5836 15.503L73.2309 15.8401L73.7121 15.7593L73.7121 15.7593L73.7121 15.7593L73.7122 15.7593L73.7127 15.7592L73.7155 15.7587L73.728 15.7568C73.7392 15.7552 73.7562 15.7529 73.7781 15.7502C73.822 15.7449 73.8855 15.7383 73.9626 15.7336C74.1175 15.7241 74.324 15.7223 74.5352 15.7517C74.9681 15.8118 75.3555 15.9896 75.4485 16.4232C75.5071 16.6978 75.5015 17.0586 75.4377 17.4884C75.3742 17.9163 75.2547 18.4031 75.0931 18.9251C74.7698 19.9693 74.2816 21.144 73.7502 22.2529C73.219 23.3616 72.6467 24.4005 72.157 25.173C71.9119 25.5596 71.6894 25.8766 71.5045 26.1015C71.4119 26.2141 71.3311 26.3007 71.2638 26.3607C71.192 26.4247 71.1509 26.4443 71.1373 26.4476L71.1722 26.5935L71.1378 26.4475C71.0475 26.4687 70.9676 26.4893 70.8936 26.5084C70.801 26.5323 70.7176 26.5538 70.6345 26.5713C70.49 26.6015 70.3885 26.6088 70.3119 26.5908C70.2455 26.5753 70.1859 26.5381 70.1293 26.4428C70.0686 26.3407 70.0142 26.1753 69.9726 25.9119L69.9725 25.911C69.9135 25.5513 69.9126 24.9051 69.9281 24.3363C69.9358 24.0545 69.9473 23.796 69.9569 23.6079C69.9611 23.5257 69.9649 23.457 69.9679 23.4058C70.0159 23.3895 70.078 23.3666 70.1493 23.3364C70.3145 23.2662 70.5326 23.1546 70.7382 22.9894C70.944 22.824 71.1415 22.6015 71.2572 22.3091C71.3738 22.0147 71.403 21.6604 71.2884 21.2415C71.1725 20.8177 70.9524 20.5464 70.6775 20.3895C70.4072 20.2351 70.1 20.2007 69.8216 20.2169C69.5425 20.2332 69.2807 20.3012 69.0907 20.3638Z" fill="#773128" stroke="black" stroke-width="0.3"/>
<path d="M71.506 13.7019L71.5058 13.7018L71.5058 13.7018L71.5058 13.7018L71.2001 13.5965L71.317 13.8978L71.317 13.8978L71.3171 13.8979L71.3171 13.8979L71.3172 13.8981L71.318 13.9004L71.3218 13.9108C71.3252 13.9204 71.3303 13.9349 71.3364 13.9538C71.3487 13.9916 71.3653 14.0468 71.3818 14.1143C71.415 14.2502 71.4467 14.4321 71.4446 14.6223C71.4424 14.8131 71.4062 15.0033 71.3117 15.1638C71.2192 15.3208 71.0648 15.4603 70.8038 15.5437L70.8033 15.5438C69.8843 15.8413 69.3424 15.6496 69.1893 15.5857L69.0295 15.8341C69.0964 15.8962 69.2112 16.0192 69.2547 16.208C69.297 16.3913 69.2783 16.6644 69.026 17.0416C68.9182 17.2017 68.765 17.3377 68.5597 17.4546C68.4901 17.4419 68.4099 17.4389 68.3291 17.4396C68.2157 17.4407 68.0817 17.4496 67.9378 17.4612C67.8729 17.4664 67.8058 17.4721 67.7369 17.478C67.4961 17.4986 67.2337 17.5211 66.9715 17.5288C66.6335 17.5386 66.3113 17.5231 66.0543 17.4523C65.7977 17.3816 65.6318 17.2638 65.5594 17.0873C65.3929 16.6772 65.3995 16.4156 65.4348 16.2664C65.4526 16.1911 65.4784 16.141 65.4972 16.1118C65.5067 16.0971 65.5145 16.0875 65.5189 16.0825L65.5222 16.0789L65.8572 15.7829L65.4085 15.8191L65.4084 15.8191L65.4084 15.8191L65.4081 15.8191L65.4064 15.8193L65.3991 15.8198L65.3693 15.8218C65.3429 15.8234 65.3039 15.8256 65.2541 15.8276C65.1543 15.8317 65.0112 15.8353 64.8394 15.8333C64.495 15.8293 64.0386 15.8026 63.5844 15.7133C63.128 15.6236 62.6871 15.4731 62.3633 15.2299C62.0459 14.9914 61.8404 14.6644 61.8404 14.201C61.8404 13.2809 62.0613 12.6151 62.3833 12.1312C62.7057 11.6467 63.1362 11.3345 63.571 11.1332C64.0067 10.9314 64.4445 10.8422 64.7749 10.8037C64.9397 10.7845 65.0768 10.7781 65.172 10.7765C65.2196 10.7756 65.2566 10.776 65.2814 10.7766L65.3091 10.7774L65.3157 10.7777L65.317 10.7777L65.3171 10.7777L65.3172 10.7778L65.3172 10.7778L65.4004 10.7825L65.448 10.7147L65.448 10.7146L65.448 10.7146L65.4482 10.7143L65.4487 10.7137L65.4535 10.7073C65.4582 10.7012 65.466 10.6914 65.4768 10.6786C65.4986 10.6528 65.5329 10.6147 65.5809 10.5686C65.6768 10.4763 65.8272 10.3518 66.0409 10.2292C66.4669 9.9849 67.1505 9.74483 68.1662 9.79057L68.1669 9.7906C69.1397 9.83003 69.7467 10.4426 70.1177 11.0699C70.3028 11.3829 70.4257 11.6945 70.5023 11.9286C70.5405 12.0453 70.567 12.1421 70.5838 12.2093C70.5922 12.2428 70.5982 12.2689 70.602 12.2863L70.6062 12.3058L70.6071 12.3103L70.6073 12.3112L70.6073 12.3113L70.6073 12.3113L70.6073 12.3114L70.6767 12.6709L70.8794 12.366L70.8794 12.366L70.8794 12.366L70.8795 12.3659L70.8798 12.3655L70.8819 12.3624L70.8916 12.3486C70.9004 12.3362 70.9141 12.3177 70.9322 12.2944C70.9685 12.2477 71.0228 12.1821 71.0932 12.1085C71.2347 11.9605 71.4375 11.784 71.6872 11.6603C71.9355 11.5374 72.2273 11.4677 72.5541 11.5261C72.8811 11.5846 73.2593 11.7743 73.6746 12.1992C74.0434 12.5821 74.2365 12.9497 74.3201 13.2938C74.2298 13.5817 74.0354 13.7542 73.7803 13.8549C73.5082 13.9622 73.1687 13.986 72.826 13.9643C72.4856 13.9427 72.1551 13.8772 71.9083 13.8164C71.7853 13.7861 71.6839 13.7572 71.6136 13.736C71.5785 13.7254 71.5511 13.7167 71.5327 13.7108L71.5121 13.704L71.5071 13.7023L71.506 13.7019Z" fill="#A54D3C" stroke="black" stroke-width="0.3"/>
<path d="M64.6131 24.1864C64.515 24.1864 64.4232 24.1238 64.3884 24.0297C64.3505 23.92 64.3948 23.8009 64.4992 23.7445L65.5084 23.2054C65.597 23.1584 65.7014 23.171 65.7773 23.2336C65.8501 23.2963 65.8786 23.3998 65.8438 23.4938C65.6666 23.9764 64.8219 24.152 64.6542 24.1833C64.6384 24.1833 64.6257 24.1864 64.6099 24.1864H64.6131Z" fill="#CC6148"/>
<path d="M69.1562 22.3279C69.0992 22.3279 69.0423 22.3091 68.998 22.2683C68.9126 22.1931 68.8936 22.0709 68.9505 21.9737C68.9917 21.9016 69.3745 21.2811 69.9534 21.256C70.061 21.256 70.1527 21.3155 70.1875 21.4127C70.2224 21.5098 70.1875 21.6195 70.1053 21.6791L69.2985 22.2777C69.2574 22.3091 69.2068 22.3247 69.1562 22.3247V22.3279Z" fill="#CC6148"/>
<path d="M64.2842 20.4787C64.2842 20.789 64.145 21.0429 63.9741 21.0429C63.8033 21.0429 63.6641 20.7921 63.6641 20.4787C63.6641 20.1653 63.8033 19.9146 63.9741 19.9146C64.145 19.9146 64.2842 20.1653 64.2842 20.4787Z" fill="#773128"/>
<path d="M63.4804 18.5669C63.3887 18.5073 63.3285 17.9964 63.4804 17.9964C63.6323 17.9964 64.2682 17.9996 64.5403 18.1939C64.8123 18.3882 64.9326 18.6577 64.9326 18.6577C64.9326 18.6577 64.3568 18.5669 64.0404 18.523C63.724 18.4791 63.4804 18.5669 63.4804 18.5669Z" fill="#773128"/>
<path d="M65.6778 50.0077L65.941 50.1421C65.9417 50.1424 65.9417 50.1424 65.9417 50.1424L65.9418 50.1422L65.9419 50.142L65.942 50.1416L65.9421 50.1411C65.9422 50.141 65.9421 50.1412 65.942 50.1416L65.9403 50.1476C65.9387 50.1537 65.9364 50.1636 65.9343 50.1763C65.93 50.2022 65.9273 50.2365 65.932 50.2728C65.9405 50.3375 65.9719 50.4176 66.098 50.4735L66.0991 50.474C66.0981 50.4736 66.0976 50.4734 66.0976 50.4733C66.0978 50.4726 66.1222 50.4778 66.1901 50.4614C66.2594 50.4446 66.3501 50.4112 66.4594 50.3615C66.6772 50.2623 66.9499 50.107 67.24 49.9213C67.8208 49.5498 68.4528 49.0693 68.8278 48.7069L68.8285 48.7063C69.1286 48.42 69.4374 48.0385 69.7326 47.6738C69.8069 47.5819 69.8804 47.4911 69.9527 47.4032C70.1296 47.188 70.3001 46.989 70.4541 46.8419C70.5312 46.7684 70.6079 46.7041 70.6827 46.6567C70.7555 46.6106 70.8391 46.5723 70.9276 46.5682C70.9277 46.5682 70.9277 46.5682 70.9278 46.5682L70.9347 46.718C71.0744 46.7114 71.6139 46.8296 72.3367 46.9878C73.6765 47.2811 75.646 47.7124 76.8667 47.7429L65.6778 50.0077ZM65.6778 50.0077L65.6772 50.0073L65.6771 50.0073L65.6757 50.0092L65.6679 50.0195C65.6607 50.0288 65.6495 50.0425 65.6349 50.0589C65.6054 50.0919 65.5637 50.1335 65.5139 50.1703C65.4108 50.2464 65.3023 50.2826 65.1933 50.2372L65.1917 50.2365C65.1701 50.2278 65.168 50.2204 65.166 50.2139L65.166 50.2136C65.1615 50.1985 65.1603 50.1691 65.1711 50.1234C65.1928 50.0322 65.2459 49.939 65.2655 49.9052L65.4734 49.5447L65.0833 49.6897C65.0753 49.6926 65.0654 49.6964 65.0539 49.7009C65.0016 49.7211 64.9161 49.7541 64.8254 49.7781C64.7703 49.7927 64.7208 49.8018 64.6823 49.8034C64.6592 49.8043 64.6475 49.8022 64.6432 49.8013C64.6273 49.787 64.623 49.7737 64.622 49.7574C64.6205 49.7327 64.6277 49.6974 64.6467 49.6538C64.665 49.6116 64.6898 49.5717 64.7113 49.5412C64.7217 49.5263 64.7309 49.5144 64.7372 49.5065L64.7442 49.498L64.7455 49.4964L64.7455 49.4963L64.7451 49.496L64.5585 49.2679L64.5582 49.2674L64.5583 49.2674L64.5575 49.2678L64.5508 49.2713C64.5443 49.2746 64.5345 49.2794 64.5221 49.2847C64.4968 49.2957 64.4642 49.3075 64.4309 49.3141C64.3606 49.3283 64.3383 49.3135 64.3264 49.2954C64.3204 49.2822 64.31 49.2367 64.3179 49.1419C64.3256 49.05 64.3484 48.9349 64.3842 48.8071C64.4559 48.5514 64.5746 48.2621 64.7056 48.0338L64.7056 48.0338L64.7067 48.0319C64.713 48.0206 64.7316 47.9957 64.7717 47.9556C64.8099 47.9175 64.8612 47.872 64.9252 47.8198C65.0531 47.7154 65.2248 47.5894 65.4288 47.4485C65.8364 47.167 66.3649 46.8313 66.9113 46.4982C68.0059 45.8309 69.1591 45.1819 69.5451 45.002C69.916 44.834 70.4485 44.7324 71.0396 44.6693C71.6277 44.6065 72.2584 44.5831 72.8188 44.5643L65.6778 50.0077ZM65.1355 50.3756C65.33 50.4567 65.5079 50.3683 65.6306 50.2697L65.1355 50.3756ZM65.1355 50.3756C64.9831 50.3141 64.9986 50.1561 65.0441 50.0243L65.1355 50.3756ZM81.1167 47.2952C80.0413 47.5175 78.1565 47.6116 76.8697 47.5929L72.8139 44.4144C73.4214 44.3956 74.7027 44.217 75.7372 44.0477L75.7614 44.1957C75.7614 44.1957 75.7615 44.1957 75.7615 44.1957C76.1938 44.1251 76.5833 44.0593 76.8648 44.011C77.0055 43.9869 77.1192 43.9672 77.1978 43.9535L77.2883 43.9377L77.3033 43.9351L77.3116 43.9355L77.3835 43.939C77.4463 43.9421 77.5376 43.9467 77.6519 43.9527C77.8806 43.9648 78.2011 43.9824 78.5684 44.0047C79.3033 44.0493 80.2237 44.1126 80.9704 44.1875C81.3203 44.225 81.6269 44.2645 81.8589 44.3059C81.9752 44.3266 82.0697 44.3473 82.1404 44.3676C82.1757 44.3777 82.2028 44.3871 82.2225 44.3955C82.2226 44.3955 82.2226 44.3956 82.2227 44.3956C82.2341 44.4794 82.2458 44.6363 82.2506 44.8419C82.2563 45.0871 82.2519 45.3899 82.228 45.6956C82.2041 46.0022 82.1609 46.3064 82.0909 46.5569C82.0188 46.8146 81.9267 46.9835 81.8273 47.0579C81.7138 47.1399 81.4784 47.2197 81.1167 47.2952ZM64.5755 47.9592C64.8413 47.4796 68.6947 45.2324 69.4825 44.8657L64.5755 47.9592Z" fill="#F9AA8F" stroke="black" stroke-width="0.3"/>
<path d="M48.5482 49.1564C48.5482 49.6265 48.1623 50.0089 47.6877 50.0089C47.2131 50.0089 46.8271 49.6265 46.8271 49.1564C46.8271 48.6863 47.2131 48.3039 47.6877 48.3039C48.1623 48.3039 48.5482 48.6863 48.5482 49.1564Z" fill="#FCF9F9"/>
<path d="M51.791 43.2704C51.791 43.4585 51.636 43.6121 51.4462 43.6121C51.2564 43.6121 51.1045 43.4585 51.1045 43.2704C51.1045 43.0824 51.2595 42.9288 51.4462 42.9288C51.6328 42.9288 51.791 43.0824 51.791 43.2704Z" fill="#FCF9F9"/>
<path d="M52.383 64.5233C52.383 65.2222 51.8104 65.7864 51.108 65.7864C50.4056 65.7864 49.833 65.2191 49.833 64.5233C49.833 63.8275 50.4056 63.2602 51.108 63.2602C51.8104 63.2602 52.383 63.8275 52.383 64.5233Z" fill="#FCF9F9"/>
<path d="M48.548 62.4861C48.548 62.7211 48.3551 62.9123 48.1178 62.9123C47.8805 62.9123 47.6875 62.7211 47.6875 62.4861C47.6875 62.251 47.8805 62.0598 48.1178 62.0598C48.3551 62.0598 48.548 62.251 48.548 62.4861Z" fill="#FCF9F9"/>
<path d="M83.4633 55.6222C83.4633 55.9231 83.2165 56.1676 82.9128 56.1676C82.6091 56.1676 82.3623 55.9231 82.3623 55.6222C82.3623 55.3213 82.6091 55.0769 82.9128 55.0769C83.2165 55.0769 83.4633 55.3213 83.4633 55.6222Z" fill="#FCF9F9"/>
<path d="M82.403 78.1444C82.403 78.9687 81.7291 79.6394 80.8939 79.6394C80.0586 79.6394 79.3848 78.9718 79.3848 78.1444C79.3848 77.317 80.0586 76.6494 80.8939 76.6494C81.7291 76.6494 82.403 77.317 82.403 78.1444Z" fill="#FCD9D9"/>
<path d="M84.438 83.858C84.438 84.2749 84.0963 84.6133 83.6756 84.6133C83.2548 84.6133 82.9131 84.2749 82.9131 83.858C82.9131 83.4412 83.2548 83.1027 83.6756 83.1027C84.0963 83.1027 84.438 83.4412 84.438 83.858Z" fill="#FCD9D9"/>
<path d="M85.0768 68.3031C85.4315 68.3031 85.7191 68.0182 85.7191 67.6669C85.7191 67.3155 85.4315 67.0306 85.0768 67.0306C84.7221 67.0306 84.4346 67.3155 84.4346 67.6669C84.4346 68.0182 84.7221 68.3031 85.0768 68.3031Z" fill="#FCD9D9"/>
<path d="M15.3414 80.4794C15.3414 80.9714 14.9365 81.3726 14.4398 81.3726C13.943 81.3726 13.5381 80.9714 13.5381 80.4794C13.5381 79.9873 13.943 79.5861 14.4398 79.5861C14.9365 79.5861 15.3414 79.9873 15.3414 80.4794Z" fill="#FCD9D9"/>
<path d="M13.3071 72.6815C13.3071 72.9793 13.0635 73.2206 12.7629 73.2206C12.4624 73.2206 12.2188 72.9793 12.2188 72.6815C12.2188 72.3838 12.4624 72.1425 12.7629 72.1425C13.0635 72.1425 13.3071 72.3838 13.3071 72.6815Z" fill="#FCD9D9"/>
<path d="M64.8479 6.35611C64.8479 7.00175 64.3196 7.52829 63.6647 7.52829C63.0098 7.52829 62.4814 7.00488 62.4814 6.35611C62.4814 5.70733 63.0098 5.18393 63.6647 5.18393C64.3196 5.18393 64.8479 5.70733 64.8479 6.35611Z" fill="#FCD9D9"/>
<path d="M60.1183 2.77061C60.1183 3.09343 59.8557 3.35357 59.5299 3.35357C59.204 3.35357 58.9414 3.09343 58.9414 2.77061C58.9414 2.44779 59.204 2.18765 59.5299 2.18765C59.8557 2.18765 60.1183 2.44779 60.1183 2.77061Z" fill="#FCD9D9"/>
</g>
<defs>
<clipPath id="clip0_349_3088">
<rect width="87" height="95" fill="white"/>
</clipPath>
</defs>
</svg>
