<svg width="232" height="232" viewBox="0 0 232 232" fill="none" xmlns="http://www.w3.org/2000/svg">
<path d="M121.77 38.51C121.78 29.43 121.77 20.34 121.77 11.26C121.77 1.37 123.7 -0.41 133.88 0.08C149.52 0.05 165.17 -0.04 180.82 0.02C186.48 0.04 188.92 2.64 188.96 8.37C189.02 18.19 189.01 28.01 188.96 37.84C188.93 44.1 186.54 46.51 180.14 46.59C171.65 46.69 163.14 46.95 154.67 46.5C148.46 46.16 143.28 47.33 139.17 52.25C138.21 53.39 137.06 55.28 135.09 54.3C133.14 53.33 133.79 51.31 134.21 49.83C134.98 47.16 133.89 46.63 131.55 46.71C129.93 46.77 128.2 47.11 126.73 45.98C122.75 45.04 121.77 42.11 121.77 38.51Z" fill="#F7F9FA"/>
<path d="M228.15 231.75C194.37 231.58 160.6 231.56 126.82 231.5C121.68 231.57 116.54 231.53 111.41 231.76C108.61 231.89 108.11 230.56 108.14 228.16C108.19 223.36 108.03 218.56 107.96 213.75C90.27 213.7 72.58 213.65 54.89 213.59C39.76 213.65 24.63 213.72 9.49 213.76C3.45 213.78 0.480004 211.98 0.0600044 207.88C-0.479996 202.77 2.95 200.94 7.09 199.83C7.09 183.37 7.02 166.91 7.09 150.45C7.16 134.44 16.57 122.54 32.05 118.72C37.69 117.33 43.35 116.05 49 114.72C51.85 113.54 55.42 114.58 57.77 111.87C58.12 109.87 56.27 109.48 55.24 108.58C50.33 104.28 47.1 99.02 45.92 92.6C45.62 90.97 45.06 90.11 43.42 89.42C34.15 85.53 32.76 79.45 39.18 71.66C39.11 63.67 39.11 55.68 38.96 47.7C38.78 37.47 43.81 30.8 52.95 26.85C63.19 21.5 73.23 23.4 83.05 27.95C86.02 29.32 88.62 30.03 92.01 29.3C99.35 27.72 105.68 32.04 107.01 39.6C108.84 49.97 107.49 60.49 107.72 70.95C109.48 74.5 112.93 77.44 111.1 82.19C109.78 85.63 108.05 88.38 104.15 89.1C102.85 90 101.31 90.45 100.97 92.49C99.66 100.38 95.08 106.22 88.82 110.91C88.92 111.54 89.02 112.17 89.12 112.8C91.71 113.42 94.3 114.04 96.88 114.66C102.5 116.05 108.12 117.42 113.73 118.83C128.39 122.51 137.78 134.33 138 149.39C138.07 154.52 138.07 159.65 138.11 164.78C139.7 164.79 141.29 164.8 142.88 164.81C143.07 155.49 145.57 152.97 154.89 152.69C153.73 149.17 152.86 145.61 152.84 141.88C146.39 135.29 142.38 127.34 139.76 118.6C133.7 113.78 132.32 109.27 135.25 102.26C137.03 97.99 134.72 93.44 136.55 89.25C138.19 80.3 142.53 73.69 151.84 71.14C157.08 69.7 161.12 65.37 166.73 64.7C172.71 62.84 177.93 66.3 183.36 67.49C197.2 70.52 202.2 77.67 203.73 94.3C203.9 96.12 203.99 97.95 204.12 99.77C209.76 106.52 209.09 112.91 202.23 117.94C199.53 127.7 195.38 136.62 187.62 143.49V143.5C187.01 146.58 186.4 149.66 185.78 152.74C192.41 153 194.9 155.05 195.79 161.7C196.11 164.06 196.97 164.7 199.18 164.81C202.4 164.98 205.76 163.91 208.84 165.65C223.45 169.01 231.75 179.24 231.81 194.07C231.86 205.22 231.77 216.37 231.86 227.52C231.89 230.25 231.51 231.77 228.15 231.75Z" fill="#F7F9FA"/>
<path d="M228.15 231.75C194.37 231.58 160.6 231.56 126.82 231.5C125.14 229.72 125.49 227.46 125.48 225.33C125.43 214.51 125.35 203.68 125.49 192.86C125.64 181.17 131.01 172.58 141.39 167.01C140.11 166.91 138.73 166.87 137.91 165.57C137.94 165.45 137.97 165.33 138 165.2C138.04 165.06 138.07 164.92 138.11 164.78C139.7 164.79 141.29 164.8 142.88 164.81C145.46 162.74 148.37 163.18 151.27 163.45C151.43 163.47 151.6 163.48 151.77 163.49C151.92 163.51 152.06 163.52 152.21 163.53C162.82 164.77 173.48 164.02 184.11 164.08C192.2 164.13 200.2 165.65 208.29 165.65H208.84C223.45 169.01 231.75 179.24 231.81 194.07C231.86 205.22 231.77 216.37 231.86 227.52C231.89 230.25 231.51 231.77 228.15 231.75Z" fill="#0B9D58"/>
<path d="M202.23 117.94C199.53 127.7 195.38 136.62 187.62 143.49V143.5C187.62 143.5 187.61 143.5 187.61 143.51C184.35 148.3 179.32 149.18 174.09 149.59C173 149.39 171.91 149.16 170.84 148.88C170.16 148.71 169.47 148.52 168.8 148.31C168.69 148.28 168.58 148.25 168.48 148.21C168.36 148.18 168.24 148.14 168.12 148.1C167.8 147.98 167.48 147.86 167.17 147.72C159.06 144.47 153.76 138.15 149.87 130.6C143.73 118.67 141.61 105.63 141.78 92.47C141.92 82 146.58 73.58 157.62 70.22C160.95 69.21 163.88 67.18 167.1 65.84C168.49 65.26 166.56 65.2 166.73 64.7C172.71 62.84 177.93 66.3 183.36 67.49C197.2 70.52 202.2 77.67 203.73 94.3C203.9 96.12 203.99 97.95 204.12 99.77C206.17 106.11 205.87 112.2 202.23 117.94Z" fill="#5B5E8A"/>
<path d="M138.11 164.78L137.83 165.1C134.08 168.62 128.96 166.82 124.74 168.48C124.18 168.44 123.62 168.4 123.06 168.38C122.5 168.35 121.94 168.32 121.38 168.3C116.22 168.12 111.06 168.34 105.9 168.34C103.9 168.34 101.65 168.45 101.76 171.34C101.86 174.14 104.12 174.09 106.11 174.27C108.7 174.51 111.44 173.84 113.82 175.48C113.8 175.56 113.78 175.63 113.76 175.71C113.73 175.79 113.71 175.87 113.69 175.95C111.43 183.86 109.73 191.89 108.14 199.95C108.12 200.06 108.03 200.14 107.91 200.22C107.75 200.34 107.53 200.44 107.37 200.55C107.35 200.55 107.33 200.55 107.31 200.56C106.46 200.63 105.62 200.71 104.77 200.77C95.66 201.51 86.56 201.6 77.46 200.78C76.43 200.7 75.41 200.6 74.38 200.48C74.18 200.26 74.01 200.05 73.85 199.82C73.76 199.71 73.68 199.59 73.61 199.47C71.31 195.89 73.03 191.68 72.43 187.83C72.42 187.79 72.42 187.74 72.41 187.7C72.38 187.42 72.38 187.14 72.41 186.87C72.47 186.36 72.64 185.86 72.94 185.41C73.08 185.25 73.22 185.1 73.35 184.94C73.7 184.55 74.04 184.16 74.37 183.77C82.96 173.96 90.92 163.62 99.13 153.48C100.75 151.47 100.73 149.64 99.29 147.62C98.52 146.54 97.83 145.39 97.28 144.18C95.58 140.36 96.25 138.82 100.45 138.7C104.23 138.6 104.55 137.45 103.22 134.27C100.79 128.42 98.01 122.71 95.85 116.75C95.81 116.67 95.78 116.58 95.75 116.49L95.54 115.92C95.63 115.11 95.93 114.54 96.88 114.66C102.5 116.05 108.12 117.42 113.73 118.83C128.39 122.51 137.78 134.33 138 149.39C138.07 154.52 138.07 159.65 138.11 164.78Z" fill="#DF2926"/>
<path d="M188.96 37.84C188.93 44.1 186.54 46.51 180.14 46.59C171.65 46.69 163.14 46.95 154.67 46.5C148.46 46.16 143.28 47.33 139.17 52.25C138.21 53.39 137.06 55.28 135.09 54.3C133.14 53.33 133.79 51.31 134.21 49.83C134.98 47.16 133.89 46.63 131.55 46.71C129.93 46.77 128.2 47.11 126.73 45.98C128.51 44.65 129.23 43.35 128.96 40.69C127.82 29.59 128.31 18.43 128.65 7.29C128.75 3.9 130.48 1.28 133.88 0.08C149.52 0.05 165.17 -0.04 180.82 0.02C186.48 0.04 188.92 2.64 188.96 8.37C189.02 18.19 189.01 28.01 188.96 37.84Z" fill="#E73D62"/>
<path d="M104.15 89.1C102.85 90 101.31 90.45 100.97 92.49C99.66 100.38 95.08 106.22 88.82 110.91C85.33 115.63 80.27 116.57 75.08 115.63C62.52 113.35 52.89 101.61 52.55 88.8C52.47 85.66 52.47 82.51 52.55 79.36C52.68 74.62 53.22 73.25 56.53 72.73H56.54C57.27 72.61 58.12 72.54 59.14 72.48C60.27 72.41 61.48 72.75 62.41 71.87C62.33 71.72 62.25 71.58 62.17 71.46C60.87 69.45 59.09 70.42 57.4 71.01C56.99 71.16 56.59 71.4 56.19 71.63C55.78 71.84 55.38 72.03 54.96 72.06C54.47 72.1 53.97 71.92 53.43 71.34C52.27 66.62 51.05 61.91 54.32 57.52C54.33 57.52 54.33 57.52 54.33 57.52C54.37 57.46 54.41 57.4 54.46 57.34C57.19 56.38 59.69 57.61 62.15 58.4C70.29 61 78.63 61.67 87.1 61.35C90.45 61.23 93.63 60.48 96.74 59.3C98.42 58.66 100.11 57.6 101.93 58.66C102.05 58.72 102.16 58.8 102.28 58.88C102.3 58.9 102.31 58.91 102.33 58.92C104.16 62.25 103.36 65.85 103.39 69.36V69.91C103.4 70.11 103.4 70.32 103.4 70.52C103.4 71.46 103.39 72.39 103.37 73.32C103.28 78.06 103.08 82.81 103.74 87.53C103.81 87.73 103.88 87.93 103.94 88.13C104.03 88.45 104.1 88.77 104.15 89.1Z" fill="#FEAE92"/>
<path d="M107.72 70.95C107.3 71.08 106.94 71.02 106.62 70.75C106.57 70.72 106.52 70.67 106.47 70.62C106.45 70.57 106.43 70.51 106.41 70.46C104.73 66.19 106.12 61.67 105.42 56.92C104.15 57.2 103.42 58.5 102.28 58.88C102.14 58.93 101.99 58.97 101.83 58.98C86.02 66.23 70.47 62.82 54.96 57.82C54.74 57.74 54.53 57.64 54.33 57.52C54.33 57.52 54.33 57.52 54.32 57.52C54.01 57.34 53.75 57.12 53.52 56.85C53.31 56.61 53.14 56.32 53.01 56C53.01 55.99 53 55.99 53 55.98C51.98 46.27 52.03 36.56 52.95 26.85C63.19 21.5 73.23 23.4 83.05 27.95C86.02 29.32 88.62 30.03 92.01 29.3C99.35 27.72 105.68 32.04 107.01 39.6C108.84 49.97 107.49 60.49 107.72 70.95Z" fill="#AA604B"/>
<path d="M71.24 184.78C71.23 184.79 71.23 184.79 71.23 184.8C71.18 184.84 71.13 184.88 71.07 184.92C70.8 185.1 70.5 185.22 70.18 185.26C70.1 185.28 70.02 185.29 69.93 185.28C69.88 185.29 69.84 185.29 69.79 185.29C67.66 184.78 66.56 183.01 65.34 181.48C58.74 173.12 51.86 164.99 45.28 156.63C41.31 151.6 41.12 150.56 44.5 145.12C46.3 142.21 46.07 141.28 42.44 141.01C38.27 140.7 37.63 139.4 38.93 135.38C40.56 130.34 43.26 125.71 45.08 119.65C37.03 121.1 30.78 124.27 25.91 129.98C20.46 136.35 18.42 143.97 18.38 152.19C18.33 166 18.41 179.81 18.33 193.62C18.32 195.62 18.72 197.8 17.47 199.52C17.39 199.64 17.3 199.75 17.2 199.86C17 200.09 16.76 200.31 16.48 200.52C13.26 201.46 10.07 202.05 7.09001 199.83C7.09001 183.37 7.02001 166.91 7.09001 150.45C7.16001 134.44 16.57 122.54 32.05 118.72C37.69 117.33 43.35 116.05 49 114.72C51.33 115.7 51.59 118 52.27 119.97C55.05 128.07 57.21 136.37 60.14 144.42C60.15 144.44 60.15 144.47 60.16 144.49C60.21 144.68 60.27 144.86 60.32 145.05C62.33 152.02 64.63 158.89 66.77 165.81C66.91 166.26 67.05 166.72 67.19 167.17C67.26 167.66 67.36 168.13 67.48 168.61C67.5 168.67 67.52 168.74 67.53 168.81C67.61 169.08 67.68 169.34 67.77 169.61C68.11 170.73 68.53 171.82 68.93 172.92C69.63 176.88 72.77 180.38 71.24 184.78Z" fill="#DF2926"/>
<path d="M146.21 166.08C144.84 166.79 143.85 167.31 142.85 167.82C132.44 173.07 126.91 181.39 126.89 193.19C126.88 205.96 126.85 218.73 126.82 231.5C121.68 231.57 116.54 231.53 111.41 231.76C108.61 231.89 108.11 230.56 108.14 228.16C108.19 223.36 108.03 218.56 107.96 213.75C105.4 209.86 106.4 205.64 106.86 201.48C106.86 201.45 106.87 201.42 106.87 201.39C106.96 201.17 107.06 200.97 107.18 200.77C107.22 200.7 107.26 200.63 107.31 200.56C107.46 200.31 107.64 200.07 107.84 199.85C108.04 191.44 108.58 183.13 113.69 175.95C113.74 175.87 113.8 175.79 113.86 175.71C115.54 172.13 117.94 169.51 121.38 168.3C122.42 167.93 123.56 167.69 124.81 167.59C128.85 165.2 133.51 166.06 137.83 165.1C137.89 165.14 137.94 165.17 138 165.2C140.42 166.59 143.12 165.36 146.21 166.08Z" fill="#0B9D58"/>
<path d="M89.4 115.83C89.19 116.05 88.97 116.25 88.75 116.44C88.53 116.64 88.3 116.83 88.07 117C85.04 119.26 81.31 119.65 77.63 120.11C76.17 120.3 74.67 120.15 73.2 120.39C70.85 120.77 68.57 121.4 67.85 124.04C67.18 126.51 68.87 127.94 70.46 129.46C71.44 130.39 73.67 131.43 72.96 132.56C72.83 132.78 72.6 133 72.22 133.22C71.84 133.45 71.33 133.68 70.64 133.91C61.22 134.1 53.28 120.75 57.77 111.87C58.12 109.87 56.27 109.48 55.24 108.58C50.33 104.28 47.1 99.02 45.92 92.6C45.62 90.97 45.06 90.11 43.42 89.42C34.15 85.53 32.76 79.45 39.18 71.66C42.69 68.71 43.81 65.02 43.64 60.4C43.38 52.88 45.87 51.67 52.44 55.58C52.64 55.7 52.83 55.85 53.01 56C53.33 56.27 53.63 56.58 53.95 56.85C54.12 57.01 54.29 57.18 54.46 57.34C54.63 57.5 54.8 57.66 54.96 57.82C53.01 62.45 53.81 67.15 54.55 71.85C55.1 71.77 55.65 71.69 56.19 71.63C58.19 71.39 60.18 71.3 62.17 71.46C63.15 71.53 64.13 71.66 65.11 71.86C65.9 75.05 63.34 73.78 62.21 73.83C53.93 74.24 54.05 74.2 53.89 82.47C53.75 89.67 54.14 96.56 58.48 102.84C66.3 114.14 76.48 116.98 88.82 110.91C88.92 111.54 89.02 112.17 89.12 112.8C89.79 113.76 89.87 114.77 89.4 115.83Z" fill="#ED8778"/>
<path d="M107.91 200.22C107.93 200.4 107.91 200.59 107.84 200.77C107.52 201.06 107.19 201.29 106.86 201.48C104.98 202.55 102.82 202.28 100.75 202.29C87.99 202.33 75.24 202.3 62.48 202.31C60.66 202.31 58.83 202.21 57.03 202.53C52.59 203.31 51.25 206.08 53.36 210.05C53.97 211.2 55.12 212.1 54.89 213.59C39.76 213.65 24.63 213.72 9.49 213.76C3.45 213.78 0.480004 211.98 0.0600044 207.88C-0.479996 202.77 2.95 200.94 7.09 199.83C10.43 199.84 13.76 199.85 17.1 199.86H17.11C17.23 199.74 17.35 199.62 17.47 199.52C18.8 198.38 20.47 198.17 22.16 198.17C38.21 198.19 54.25 197.8 70.3 198.36H70.46C70.61 198.37 70.75 198.38 70.89 198.4C71.89 198.53 72.8 198.88 73.61 199.47C73.76 199.58 73.9 199.7 74.04 199.82C85.31 199.83 96.57 199.84 107.84 199.85C107.88 199.97 107.91 200.09 107.91 200.22Z" fill="#0B9D58"/>
<path d="M107.96 213.75C90.27 213.7 72.58 213.65 54.89 213.59C52.22 211.42 49.2 209.63 50.64 205.13C52.08 200.61 55.5 200.79 59.02 200.79C65.17 200.79 71.31 200.78 77.46 200.78C86.56 200.78 95.66 200.78 104.77 200.77H107.84C108.43 205.09 108.22 209.42 107.96 213.75Z" fill="#0B9D58"/>
<path d="M96.88 114.66C96.58 115.06 96.28 115.45 95.97 115.84C95.93 116.14 95.89 116.45 95.85 116.75C94.52 126.76 91.46 136.24 86.66 145.16C86.48 145.2 86.3 145.23 86.13 145.25C86 145.27 85.87 145.28 85.75 145.28C82.89 145.41 81.02 143.02 78.61 142C78.54 141.94 78.47 141.87 78.4 141.81C75.04 138.76 71.51 137.42 67.55 140.99C67.54 141 67.52 141.01 67.51 141.02C67.03 141.23 66.58 141.51 66.15 141.84C64.33 143.2 62.81 145.23 60.32 145.05C59.91 145.03 59.49 144.95 59.03 144.8C55.69 134.78 52.34 124.75 49 114.72C51.85 113.54 55.42 114.58 57.77 111.87C57.84 114.01 57.9 116.15 57.99 118.29C58.33 125.93 63.05 131.32 70.84 132.97C71.57 132.84 72.28 132.71 72.96 132.56C81.64 130.71 86.12 127.29 87.56 119C87.68 118.31 87.82 117.64 88.07 117C88.23 116.57 88.45 116.15 88.74 115.76C88.86 114.77 88.99 113.78 89.12 112.8C91.71 113.42 94.3 114.04 96.88 114.66Z" fill="#DDDCFE"/>
<path d="M208.84 165.65H208.29C191.1 165.64 173.92 165.66 156.72 165.6C155.1 165.59 153.48 165.14 151.86 164.89C151.64 164.38 151.44 163.9 151.27 163.45C149.52 158.86 150.43 156.52 155.41 153.12C155.57 153.01 155.75 152.89 155.93 152.77C156.42 152.45 156.96 152.11 157.53 151.76C165.73 150.61 173.96 151.27 182.19 151.32C183.52 151.32 184.78 151.76 185.78 152.74C192.41 153 194.9 155.05 195.79 161.7C196.11 164.06 196.97 164.7 199.18 164.81C202.4 164.98 205.76 163.91 208.84 165.65Z" fill="#0B9D58"/>
<path d="M168.86 146.85C168.89 147.5 168.74 147.92 168.48 148.21C168.45 148.24 168.42 148.28 168.38 148.3C168.2 148.47 167.97 148.58 167.73 148.66C167.72 148.66 167.72 148.66 167.72 148.66C167.22 148.83 166.63 148.88 166.11 149.01C160.64 148.59 155.95 146.69 152.84 141.88C146.39 135.29 142.38 127.34 139.76 118.6C136.36 113.58 135.29 108.05 136.17 102.11C136.8 97.83 136.13 93.53 136.55 89.25C138.19 80.3 142.53 73.69 151.84 71.14C157.08 69.7 161.12 65.37 166.73 64.7C167.71 64.83 168.69 64.95 170.24 65.15C165.41 67.93 161.13 70.63 156.07 72.06C147.99 74.35 142.23 84.58 143.05 95.6C143.81 105.68 144.93 115.78 148.91 125.25C152.94 134.86 158.42 143.16 168.86 146.85Z" fill="#312E4B"/>
<path d="M53.9 33.5C54.02 41.28 53.95 49.06 53.95 56.85C53.81 56.84 53.66 56.85 53.52 56.85C53.16 56.86 52.81 56.88 52.48 56.79C45.01 54.67 44.73 54.68 45.11 62.45C45.35 67.27 44.5 70.73 39.18 71.66C39.11 63.67 39.11 55.68 38.96 47.7C38.78 37.47 43.81 30.8 52.95 26.85C54.78 28.84 53.87 31.28 53.9 33.5Z" fill="#8B4F4F"/>
<path d="M132.67 45.6C130.28 45.75 128.5 45.87 126.73 45.98C122.75 45.04 121.77 42.11 121.77 38.51C121.78 29.43 121.77 20.34 121.77 11.26C121.77 1.37 123.7 -0.410002 133.88 0.0799976C130.65 3.12 129.68 6.83 129.84 11.25C130.12 19 129.97 26.76 129.9 34.52C129.86 38.32 129.7 42.1 132.67 45.6Z" fill="#CE2A55"/>
<path d="M187.62 143.5C187.01 146.58 186.4 149.66 185.78 152.74C176.15 152.77 166.51 152.8 156.88 152.84C156.7 152.98 156.51 153.09 156.34 153.15C156.02 153.27 155.71 153.27 155.41 153.12C155.23 153.03 155.06 152.89 154.89 152.69C153.73 149.17 152.86 145.61 152.84 141.88C156.86 144.49 160.7 147.5 165.76 147.91C166.62 148.2 167.49 148.3 168.38 148.3C168.52 148.31 168.66 148.31 168.8 148.31C170.47 148.29 172.17 148.08 173.81 148.57C178.89 148.19 183.35 146.12 187.61 143.51C187.61 143.5 187.62 143.5 187.62 143.5Z" fill="#FDAF94"/>
<path d="M111.1 82.19C109.78 85.63 108.05 88.38 104.15 89.1L103.86 88.77C102.81 83.6 102.1 78.44 103.37 73.32C103.59 72.39 103.88 71.46 104.25 70.53C104.26 70.52 104.26 70.5 104.27 70.49C104.4 70.43 104.53 70.39 104.65 70.35C105.26 70.18 105.84 70.22 106.41 70.46C106.61 70.53 106.8 70.63 106.99 70.76C107.23 70.83 107.47 70.89 107.72 70.95C109.48 74.5 112.93 77.44 111.1 82.19Z" fill="#FDAD92"/>
<path d="M156.88 152.84C156.69 152.94 156.51 153.04 156.34 153.15C152.34 155.56 151.55 159.32 151.77 163.49C151.78 163.95 151.82 164.42 151.86 164.89C148.87 164.86 145.87 164.84 142.88 164.81C143.07 155.49 145.57 152.97 154.89 152.69C155.23 152.72 155.58 152.74 155.93 152.77C156.25 152.79 156.56 152.82 156.88 152.84Z" fill="#0B9D58"/>
<path d="M139.76 118.6C133.7 113.78 132.32 109.27 135.25 102.26C137.03 97.99 134.72 93.44 136.55 89.25C136.6 99.15 137.05 109 139.76 118.6Z" fill="#F8AD93"/>
<path d="M202.23 117.94C203.51 111.95 204 105.88 204.12 99.77C209.76 106.52 209.09 112.91 202.23 117.94Z" fill="#FAAF96"/>
<path d="M173.8 148.57C171.07 148.91 168.34 149.32 165.75 147.9C166.79 147.57 168.1 148.03 168.85 146.84C170.51 147.43 172.15 148 173.8 148.57Z" fill="#614F64"/>
<path d="M86.2 144.96C89.46 135.25 92.72 125.55 95.97 115.84C100.75 123.09 103.04 131.41 106.47 139.18C103.34 141.03 98.84 137.99 97.61 141.17C96.71 143.5 100.03 146.33 101.61 148.85C102.36 150.06 102.97 150.99 101.84 152.37C92.89 163.26 84 174.2 75.07 185.11C74.78 185.46 74.22 185.59 73.79 185.83C71.99 182.93 74.03 180.42 74.7 177.81C75.31 175.41 76.2 173.07 76.92 170.7C78.96 163.6 81.42 156.64 83.73 149.62C84.27 147.93 84.43 146.01 86.2 144.96Z" fill="#DF2926"/>
<path d="M78.06 170.44C76.64 175.57 75.21 180.69 73.79 185.82C73.58 186.15 73.36 186.47 73.15 186.79C73.13 187.5 72.92 188.14 72.06 187.7C70.84 187.06 70.9 185.9 71.08 184.74C69.98 180.71 68.88 176.68 67.78 172.65C67.3 171.33 67.43 169.89 67.01 168.56C66.48 164.61 66.65 160.71 67.15 156.73C67.7 152.36 68.38 147.86 66.47 143.53C65.92 142.29 65.98 140.93 67.14 139.89C71.41 135.75 75.26 136.94 78.9 140.81C76.22 150.62 79.73 160.61 78.06 170.44Z" fill="#E73D62"/>
<path d="M124.8 167.59C120.39 169.27 117.23 172.64 113.85 175.71C110.7 175.71 107.55 175.57 104.41 175.74C100.87 175.93 99.88 174.3 99.84 170.97C99.8 167.69 100.93 166.48 104.16 166.75C111.03 167.33 117.98 165.75 124.8 167.59Z" fill="#DF2926"/>
<path d="M71.09 184.74C72.29 184.91 71.17 187.4 73.15 186.8C75.06 191.03 73.51 195.5 74.04 199.82C73.02 199.81 72 199.81 70.98 199.8C68.35 194.94 69.19 189.85 70.01 184.77C70.37 184.76 70.73 184.75 71.09 184.74Z" fill="#36304C"/>
<path d="M156.21 34.87C150.91 34.87 145.6 34.89 140.3 34.86C138.84 34.85 137.03 35.07 137.09 32.83C137.15 30.61 138.99 30.91 140.42 30.91C151.02 30.88 161.63 30.88 172.23 30.91C173.64 30.91 175.56 30.51 175.68 32.7C175.83 35.31 173.67 34.85 172.12 34.86C166.82 34.9 161.51 34.87 156.21 34.87Z" fill="#DF2926"/>
<path d="M156.09 24.89C150.78 24.89 145.47 24.93 140.16 24.86C138.8 24.84 136.75 25.38 136.73 23.18C136.71 21.76 138.23 20.98 139.63 20.97C150.75 20.92 161.87 20.92 172.99 20.96C174.43 20.97 175.74 21.67 175.62 23.31C175.48 25.26 173.76 24.85 172.53 24.86C167.04 24.91 161.56 24.89 156.09 24.89Z" fill="#DF2926"/>
<path d="M151.33 11.9C155.15 11.9 158.96 11.87 162.78 11.92C163.94 11.94 165.28 12.12 165.15 13.75C165.05 15.06 164.14 15.83 162.79 15.83C154.99 15.84 147.19 15.86 139.39 15.76C138.02 15.74 136.54 14.82 136.67 13.37C136.82 11.67 138.58 11.9 139.87 11.89C143.69 11.86 147.5 11.88 151.32 11.88C151.33 11.89 151.33 11.9 151.33 11.9Z" fill="#DF2926"/>
<path d="M173.06 15.88C171.42 15.84 169.48 15.96 169.2 13.84C168.88 11.51 170.91 11.91 172.25 11.92C173.93 11.93 176.31 11.4 176.41 13.97C176.48 15.86 174.52 15.8 173.06 15.88Z" fill="#CF2A56"/>
<path d="M73.88 94.83C75.21 94.83 76.54 94.74 77.86 94.86C79.09 94.97 80.87 94.16 81.37 95.78C81.83 97.28 80.67 98.55 79.46 99.51C75.76 102.46 71.31 102.47 67.52 99.59C66.27 98.63 65.13 97.36 65.47 95.89C65.86 94.18 67.68 94.95 68.9 94.87C70.56 94.75 72.22 94.83 73.88 94.83Z" fill="#ED8778"/>
<path d="M106.98 70.76C106.32 70.74 105.67 70.72 105.01 70.7C104.04 70.22 102.71 71 101.92 69.85C101.89 66.23 101.85 62.61 101.82 58.98C102.46 56.46 104.97 55.6 106.98 53.78C106.98 59.45 106.98 65.1 106.98 70.76Z" fill="#8F5555"/>
<path d="M75.93 84.9C75.99 87.06 75.37 89.27 73.08 89.35C70.51 89.44 71 86.93 70.95 85.21C70.9 83.4 70.8 81.21 73.28 81.07C75.79 80.93 75.89 83.03 75.93 84.9Z" fill="#EE8979"/>
<path d="M101.93 69.85C103.02 69.91 104.19 69.71 105.02 70.71C102.59 76.6 104.7 82.78 103.87 88.77C101.36 88.49 101.95 86.53 101.94 85.02C101.88 79.96 101.92 74.91 101.93 69.85Z" fill="#ED8778"/>
<path d="M92.23 73.15C89.14 73.15 86.67 73.19 84.21 73.13C83.47 73.11 82.46 73.37 82.2 72.26C81.98 71.32 82.68 70.75 83.27 70.19C86.14 67.44 90.14 68.61 92.23 73.15Z" fill="#37314D"/>
<path d="M65.11 71.86C61.59 73.8 58.07 73.76 54.55 71.84C58.79 67.53 60.88 67.53 65.11 71.86Z" fill="#36314D"/>
<path d="M70.01 184.77C71.92 189.68 70.49 194.8 70.98 199.8C53.02 199.82 35.06 199.84 17.1 199.86C17.08 183.24 16.93 166.61 17.07 149.99C17.21 132.8 30.01 119.28 47.5 118.09C45.27 123.44 43.15 128.56 41.01 133.67C38.43 139.83 38.42 139.83 44.84 139.88C45.83 139.89 46.81 139.88 48.08 139.88C48.14 143.16 46.09 145.28 44.51 147.38C42.62 149.9 42.99 151.84 44.79 154.02C53.22 164.26 61.61 174.52 70.01 184.77Z" fill="#DF2926"/>
<path d="M67.14 139.9C70.88 149.44 67.91 159.13 67.75 168.75C66.91 169.03 66.44 168.57 66.06 167.91C63.71 160.21 61.37 152.5 59.02 144.8C62.36 144.21 64.24 141.2 67.14 139.9Z" fill="#C5C4F4"/>
<path d="M66.07 167.91C66.63 168.19 67.2 168.47 67.76 168.74C67.77 170.04 67.78 171.35 67.79 172.65C66.75 171.24 66.27 169.63 66.07 167.91Z" fill="#AA6D95"/>
<path d="M88.73 115.76C89.26 127.11 80.74 135.29 70.83 132.97C73.54 132.07 71.31 131.61 70.62 131.19C68.32 129.79 65.92 128.44 65.97 125.28C66.05 120.51 69.41 118.93 73.31 118.98C78.76 119.03 83.81 117.85 88.73 115.76Z" fill="#FEAE93"/>
<path d="M78.06 170.44C77.41 164.16 76.96 157.86 76.04 151.62C75.42 147.47 77.18 144.21 78.9 140.81C81.33 142.19 83.76 143.57 86.2 144.95C84.08 153.64 81.27 162.11 78.06 170.44Z" fill="#C5C4F4"/>
</svg>
