<svg width="257" height="257" viewBox="0 0 257 257" fill="none" xmlns="http://www.w3.org/2000/svg">
<path d="M245.62 101.04C243.02 102.66 242.46 103.66 243.7 106.66C247.95 117 244.2 128.73 235.13 134.93C225.97 141.19 213.99 140.43 205.7 132.62C197.58 124.97 189.79 116.97 181.86 109.13C171.48 119.35 161.11 129.58 150.73 139.79C149.2 141.3 147.62 142.75 146.06 144.23C135.28 155.08 124.5 165.92 113.73 176.78C112.46 178.07 111.3 179.49 110.09 180.85C117.32 188.17 124.56 195.48 131.78 202.82C140.94 212.13 142.59 223.57 136.22 233.55C129.89 243.48 118.7 246.84 106.52 242.27C104.58 241.55 103.87 241.74 102.69 243.55C92.91 258.56 76.65 260.23 63.94 247.72C60.63 244.46 57.29 241.23 53.97 237.99C50.5 238.59 49 241.69 46.76 243.79C34.06 255.69 12.55 250.12 7.83 233.37C5.39 224.71 7.22999 216.68 13.57 209.89C15.55 207.77 18.51 206.36 19.02 203.04C15.31 199.24 11.55 195.5 7.91 191.63C-2.91 180.15 -0.790005 163.1 12.61 154.85C15.06 153.34 15.51 152.4 14.34 149.59C10.02 139.21 13.61 127.58 22.6 121.3C31.85 114.85 43.96 115.6 52.37 123.54C60.45 131.17 68.25 139.12 76.17 146.93C86.93 136.31 97.69 125.69 108.46 115.08C109.88 113.68 111.34 112.33 112.78 110.96C123.28 100.38 133.78 89.81 144.26 79.22C145.54 77.93 146.68 76.52 147.89 75.17C140.65 67.85 133.39 60.55 126.16 53.22C117.03 43.97 115.39 32.43 121.74 22.49C128.1 12.56 139.31 9.2 151.47 13.79C153.43 14.53 154.09 14.31 155.26 12.5C164.98 -2.47 181.34 -4.16 194.02 8.34C197.33 11.61 200.63 14.88 203.94 18.14C206.95 17.83 208.23 15.19 210.07 13.4C220.3 3.48 234.79 3.25 244.37 12.97C253.69 22.43 253.32 36.93 243.63 46.95C241.84 48.79 239.2 50.07 238.89 53.08C242.74 57 246.71 60.81 250.43 64.85C260.78 76.1 258.6 92.96 245.62 101.04Z" fill="#F7F9FA"/>
<path d="M136.22 233.55C129.89 243.48 118.7 246.84 106.52 242.27C104.58 241.55 103.87 241.74 102.69 243.55C92.91 258.56 76.65 260.23 63.94 247.72C60.63 244.46 57.29 241.23 53.97 237.99C51.91 236.9 50.18 235.41 48.54 233.75C40.14 225.3 31.71 216.87 23.25 208.47C21.6 206.83 20.11 205.1 19.02 203.04C15.31 199.24 11.55 195.5 7.91 191.63C-2.91 180.15 -0.790005 163.1 12.61 154.85C15.06 153.34 15.51 152.4 14.34 149.59C10.02 139.21 13.61 127.58 22.6 121.3C31.85 114.85 43.96 115.6 52.37 123.54C60.45 131.17 68.25 139.12 76.17 146.93C78.08 147.68 79.4 149.19 80.8 150.59C89.35 159.13 97.89 167.67 106.42 176.21C107.82 177.61 109.33 178.93 110.09 180.85C117.32 188.17 124.56 195.48 131.78 202.82C140.94 212.13 142.59 223.57 136.22 233.55Z" fill="#0B9D58"/>
<path d="M245.62 101.04C243.02 102.66 242.46 103.66 243.7 106.66C247.95 117 244.2 128.73 235.13 134.93C225.97 141.19 213.99 140.43 205.7 132.62C197.58 124.97 189.79 116.97 181.86 109.13C180.27 108.52 179.07 107.38 177.89 106.21C168.86 97.18 159.84 88.16 150.81 79.13C149.64 77.96 148.5 76.76 147.89 75.17C140.65 67.85 133.39 60.55 126.16 53.22C117.03 43.97 115.39 32.43 121.74 22.49C128.1 12.56 139.31 9.2 151.47 13.79C153.43 14.53 154.09 14.31 155.26 12.5C164.98 -2.47 181.34 -4.16 194.02 8.34C197.33 11.61 200.63 14.88 203.94 18.14C204.04 18.2 204.1 18.23 204.14 18.24C204.14 18.24 204.16 18.25 204.17 18.26C204.16 18.26 204.15 18.26 204.14 18.25C204.15 18.26 204.2 18.32 204.34 18.43C216.82 29.02 228.43 40.47 238.89 53.08C242.74 57 246.71 60.81 250.43 64.85C260.78 76.1 258.6 92.96 245.62 101.04Z" fill="#0B9D58"/>
<path d="M181.86 109.13C171.48 119.35 161.11 129.58 150.73 139.79C149.2 141.3 147.62 142.75 146.06 144.23C143.66 145.27 142.29 143.56 140.91 142.19C132.17 133.55 123.47 124.85 114.82 116.11C113.46 114.73 111.75 113.35 112.78 110.96C123.28 100.38 133.78 89.81 144.26 79.22C145.54 77.93 146.68 76.52 147.89 75.17C159.21 86.49 170.53 97.81 181.86 109.13Z" fill="#DF2926"/>
<path d="M146.06 144.23C135.28 155.08 124.5 165.92 113.73 176.78C112.46 178.07 111.3 179.49 110.09 180.85L76.17 146.93C86.93 136.31 97.69 125.69 108.46 115.08C109.88 113.68 111.34 112.33 112.78 110.96C113.24 111.83 113.51 112.88 114.17 113.55C123.9 123.35 133.66 133.12 143.47 142.84C144.13 143.5 145.18 143.78 146.06 144.23Z" fill="#DF2926"/>
<path d="M53.97 237.99C50.5 238.59 49 241.69 46.76 243.79C34.06 255.69 12.55 250.12 7.82999 233.37C5.38999 224.71 7.22999 216.68 13.57 209.89C15.55 207.77 18.51 206.36 19.02 203.04C30.67 214.69 42.32 226.34 53.97 237.99Z" fill="#DF2926"/>
<path d="M243.63 46.95C241.84 48.79 239.2 50.07 238.89 53.08C227.24 41.44 215.59 29.79 203.94 18.14C206.95 17.83 208.23 15.19 210.07 13.4C220.3 3.48 234.79 3.25 244.37 12.97C253.69 22.43 253.32 36.93 243.63 46.95Z" fill="#DF2926"/>
</svg>
