<svg width="238" height="257" viewBox="0 0 238 257" fill="none" xmlns="http://www.w3.org/2000/svg">
<path d="M46.0503 153.304C46.6203 156.774 44.8403 158.204 41.4303 157.914C40.1103 157.794 38.7703 157.894 37.4303 157.894C30.4703 157.884 30.4103 157.884 30.2703 151.054C30.2203 148.694 30.2203 147.014 26.9603 146.904C19.8403 146.674 19.8503 146.484 19.8503 138.884C19.8503 131.594 19.8503 131.414 26.8503 131.194C30.0003 131.104 30.2803 129.584 30.2903 127.124C30.2903 124.764 29.2803 121.364 32.4803 120.694C36.6303 119.834 41.1903 119.194 45.1503 121.324C47.0303 122.334 46.1403 125.044 46.0203 126.944C45.8003 130.214 46.9703 131.244 50.2703 131.204C56.9903 131.114 56.9903 131.304 57.0003 138.174C57.0003 139.664 56.9003 141.174 57.0103 142.664C57.2603 145.924 55.7503 147.414 52.5903 146.954C47.5403 146.224 45.1503 147.884 46.0503 153.304Z" fill="#F7F9FA"/>
<path d="M46.5903 90.2539C31.3703 75.0339 26.1103 56.8939 32.6503 36.3839C39.1303 16.0939 53.7003 4.27389 74.7603 0.653888C82.2403 -0.626112 89.6503 0.00388765 96.9103 2.27389C104.36 4.46389 111.21 7.86389 116.7 13.3739C119.46 16.1439 121.14 16.0039 123.97 13.4739C143.51 -3.93611 171.5 -4.45611 191.56 12.0239C214.41 30.7839 217.67 64.9139 197.39 86.6039C177.63 107.744 156.53 127.624 136.02 148.054C135.85 148.334 135.71 148.654 135.5 148.894C125.19 160.554 118.6 163.014 105.76 149.614C86.4303 129.454 66.3503 110.014 46.5903 90.2539Z" fill="#F7F9FA"/>
<path d="M184.59 144.894C183.76 140.764 183.05 136.264 185.19 132.294C186.26 130.324 188.85 131.034 190.76 131.174C193.91 131.414 195.32 130.464 195.09 127.054C194.94 124.744 193.99 121.344 197.27 120.694C201.41 119.864 205.94 119.194 209.89 121.324C211.84 122.384 210.95 125.024 210.83 126.904C210.62 130.104 211.66 131.234 215.01 131.204C221.78 131.134 221.78 131.324 221.8 138.324V140.314C221.78 146.854 221.78 146.914 215.22 146.954C212.73 146.974 210.84 146.844 210.8 150.444C210.72 157.894 210.5 157.894 202.61 157.894C195.3 157.894 195.11 157.894 195.1 150.734C195.1 147.494 193.82 146.884 190.97 146.904C188.71 146.924 185.27 148.294 184.59 144.894Z" fill="#F7F9FA"/>
<path d="M232.78 201.424C213.67 215.764 194.47 229.984 175.59 244.624C155.84 259.944 135.12 258.274 113.68 249.224C102.21 244.374 90.6803 239.684 79.2403 234.784C76.0903 233.434 72.9603 232.934 69.5703 232.974C60.0903 233.074 50.6103 232.994 41.1203 232.994C40.8103 241.974 38.7403 243.964 29.6903 243.964C23.8603 243.974 18.0403 244.114 12.2203 243.914C8.98033 243.794 7.51033 244.864 7.96033 248.164C8.01033 248.494 7.98033 248.834 7.97033 249.164C7.83033 252.204 7.86033 255.804 3.71033 255.684C-0.109674 255.574 0.000326193 252.194 0.000326193 249.274C0.0203262 222.334 0.000326194 195.394 0.0403262 168.464C0.0403262 165.754 -0.619674 162.154 3.58033 162.054C7.79033 161.954 7.81033 165.454 7.96033 168.504C8.03033 169.994 7.99033 171.494 8.00033 172.984C15.3003 172.984 22.6003 172.964 29.9003 172.984C37.8103 172.994 40.9103 176.074 41.0603 184.014H41.0703C42.2303 184.004 43.4103 183.864 44.5503 183.994C49.8803 184.604 54.2503 183.224 58.6503 179.754C76.0303 166.024 103.12 168.554 118 184.514C119.75 186.384 121.68 187.004 124.18 186.984C134.31 186.884 144.45 186.844 154.59 186.964C165.61 187.104 173.53 192.164 177.91 202.394C178.39 203.514 178.86 204.494 179.97 205.044C182.62 203.664 185.26 202.274 187.91 200.884C198.99 194.374 210.02 187.774 221.17 181.394C225.62 178.854 230.01 179.274 233.78 183.084C240.85 188.414 237.97 197.534 232.78 201.424Z" fill="#F7F9FA"/>
<path d="M197.39 86.6039C177.63 107.744 156.53 127.624 136.02 148.054C133.38 147.464 132.02 145.214 130.28 143.504C124.94 138.294 119.64 133.044 114.47 127.664C113.27 126.424 111.11 125.334 112.01 123.134C112.02 123.114 112.02 123.104 112.03 123.094C112.12 122.874 112.24 122.644 112.4 122.404C116.43 120.774 120.61 122.254 124.74 121.824C144.6 119.794 161.2 104.964 164.47 85.4439C167.57 66.9939 161.49 51.7239 146.41 40.9239C131.49 30.2339 114.96 28.9539 98.8803 38.0739C82.2603 47.5039 74.3103 62.3239 75.6603 81.6939C75.7603 83.1739 76.2203 84.6639 75.2203 86.0239C75.1003 86.0639 74.9803 86.0939 74.8703 86.1139C74.8503 86.1139 74.8303 86.1239 74.8203 86.1239C72.7503 86.5139 71.8503 84.7539 70.9203 83.4539C50.2503 54.7439 62.6103 16.5239 92.5803 3.30387C94.0003 2.68387 95.5303 2.86387 96.9103 2.27387C104.36 4.46387 111.21 7.86387 116.7 13.3739C119.46 16.1439 121.14 16.0039 123.97 13.4739C143.51 -3.93613 171.5 -4.45613 191.56 12.0239C214.41 30.7839 217.67 64.9139 197.39 86.6039Z" fill="#0B9D58"/>
<path d="M233.78 183.084C233.21 185.564 231.29 186.944 229.42 188.334C210.84 202.084 192.51 216.174 174.09 230.134C165.67 236.504 156.5 239.214 145.85 239.544C132.79 239.954 120.89 237.144 109.27 231.604C99.9703 227.164 90.2204 223.714 80.7904 219.544C77.2204 217.974 73.5704 217.234 69.6504 217.294C61.8404 217.404 54.0204 217.394 46.2004 217.284C44.4304 217.264 42.4904 217.474 41.0804 216.294C41.0204 216.254 40.9704 216.214 40.9204 216.164C40.6004 215.864 40.3104 215.474 40.0604 214.994C38.7004 205.684 39.4204 196.354 39.6204 187.034C39.6404 185.874 40.1004 184.794 41.0604 184.024V184.014H41.0704C42.2304 184.004 43.4104 183.864 44.5504 183.994C49.8804 184.604 54.2504 183.224 58.6504 179.754C76.0304 166.024 103.12 168.554 118 184.514C119.75 186.384 121.68 187.004 124.18 186.984C134.31 186.884 144.45 186.844 154.59 186.964C165.61 187.104 173.53 192.164 177.91 202.394C178.39 203.514 178.86 204.494 179.97 205.044C178.11 210.424 173.62 211.334 168.82 211.394C157.49 211.544 146.17 211.324 134.84 211.534C132.34 211.584 127.9 210.004 127.84 213.664C127.79 216.334 132.25 215.334 134.73 215.364C145.38 215.474 156.04 215.414 166.7 215.414C179.71 215.404 183.26 212.974 187.91 200.884C198.99 194.374 210.02 187.774 221.17 181.394C225.62 178.854 230.01 179.274 233.78 183.084Z" fill="#F5B989"/>
<path d="M136.02 148.054C135.85 148.334 135.71 148.654 135.5 148.894C125.19 160.554 118.6 163.014 105.76 149.614C86.4303 129.454 66.3503 110.014 46.5903 90.2539C31.3703 75.0339 26.1103 56.8939 32.6503 36.3839C39.1303 16.0939 53.7003 4.27389 74.7603 0.653888C82.2403 -0.626112 89.6503 0.00388765 96.9103 2.27389C92.1803 5.58389 86.7603 7.65389 82.1003 11.2439C58.6603 29.3139 55.2203 63.3339 74.8003 86.0739C74.8203 86.0839 74.8503 86.0939 74.8703 86.1139C75.3003 86.3139 75.6403 86.6139 75.9103 86.9939C76.0803 87.4039 76.2503 87.8139 76.4103 88.2239C76.6803 88.8839 76.9303 89.5539 77.1903 90.2239C78.7903 94.3839 80.3003 98.5839 82.8503 102.324C88.9603 111.314 97.1403 117.284 107.36 120.324C107.81 120.454 108.26 120.584 108.72 120.704C109.14 120.814 109.56 120.924 109.99 121.024C110.94 121.434 111.74 121.994 111.96 123.084C111.98 123.104 111.99 123.114 112.01 123.134C118.82 130.074 125.65 137.014 132.44 143.974C133.7 145.274 134.83 146.694 136.02 148.054Z" fill="#DF2926"/>
<path d="M232.78 201.424C213.67 215.764 194.47 229.984 175.59 244.624C155.84 259.944 135.12 258.274 113.68 249.224C102.21 244.374 90.6803 239.684 79.2403 234.784C76.0903 233.434 72.9603 232.934 69.5703 232.974C60.0903 233.074 50.6103 232.994 41.1203 232.994C38.5903 228.854 39.2103 224.484 39.7203 220.114C39.7903 219.554 39.8503 218.984 39.9203 218.424C39.9403 218.094 39.9703 217.774 40.0003 217.444C40.2003 216.924 40.5103 216.494 40.9203 216.164C40.9903 216.084 41.0703 216.034 41.1503 215.974C46.9703 215.964 52.8603 216.504 58.6103 215.824C72.1303 214.214 83.9903 218.894 95.8603 224.294C104.92 228.404 113.89 233.224 123.43 235.634C142.31 240.404 160.53 240.044 176.98 226.534C194.12 212.474 212.28 199.654 229.98 186.274C231.3 185.274 232.52 184.154 233.78 183.084C240.85 188.414 237.97 197.534 232.78 201.424Z" fill="#F5B989"/>
<path d="M40.8079 215.003C40.7879 215.113 40.7579 215.223 40.7379 215.323C40.6779 215.563 40.6279 215.803 40.5679 216.043C40.2979 217.233 39.8979 218.263 39.3779 219.143C37.6479 222.113 34.5979 223.383 30.7479 223.503C24.4379 223.703 18.1279 223.673 11.8079 223.503C8.21789 223.403 6.22789 221.593 6.16789 217.963C5.92789 204.013 5.96789 190.063 6.14789 176.103C6.16789 174.603 6.44789 173.123 7.65789 172.013C14.9579 172.013 22.2579 171.993 29.5579 172.013C37.4679 172.023 40.5679 175.103 40.7179 183.043V183.053C40.7479 193.703 40.7779 204.353 40.8079 215.003Z" fill="#DF2926"/>
<path d="M41.1203 232.994C40.8103 241.974 38.7403 243.964 29.6903 243.964C23.8603 243.974 18.0403 244.114 12.2203 243.914C8.98033 243.794 7.51033 244.864 7.96033 248.164C8.01033 248.494 7.98033 248.834 7.97033 249.164C7.83033 252.204 7.86033 255.804 3.71033 255.684C-0.109674 255.574 0.000326193 252.194 0.000326193 249.274C0.0203262 222.334 0.000326194 195.394 0.0403262 168.464C0.0403262 165.754 -0.619674 162.154 3.58033 162.054C7.79033 161.954 7.81033 165.454 7.96033 168.504C8.03033 169.994 7.99033 171.494 8.00033 172.984C8.00033 187.754 8.21033 202.534 7.89033 217.294C7.79033 222.084 9.42033 223.294 13.8403 222.984C18.8003 222.644 23.8203 222.594 28.7703 222.994C33.5703 223.374 37.1903 221.884 39.9203 218.424C40.2603 217.984 40.5903 217.514 40.9103 217.014C40.9803 222.344 41.0503 227.664 41.1203 232.994Z" fill="#DF2926"/>
<path d="M221.8 138.324V140.314C221.78 146.854 221.78 146.914 215.22 146.954C212.73 146.974 210.84 146.844 210.8 150.444C210.72 157.894 210.5 157.894 202.61 157.894C195.3 157.894 195.11 157.894 195.1 150.734C195.1 147.494 193.82 146.884 190.97 146.904C188.71 146.924 185.27 148.294 184.59 144.894C183.76 140.764 183.05 136.264 185.19 132.294C186.26 130.324 188.85 131.034 190.76 131.174C193.91 131.414 195.32 130.464 195.09 127.054C194.94 124.744 193.99 121.344 197.27 120.694C201.41 119.864 205.94 119.194 209.89 121.324C211.84 122.384 210.95 125.024 210.83 126.904C210.62 130.104 211.66 131.234 215.01 131.204C221.78 131.134 221.78 131.324 221.8 138.324Z" fill="#DF2926"/>
<path d="M52.5903 146.954C47.5403 146.224 45.1503 147.884 46.0503 153.304C46.6203 156.774 44.8403 158.204 41.4303 157.914C40.1103 157.794 38.7703 157.894 37.4303 157.894C30.4703 157.884 30.4103 157.884 30.2703 151.054C30.2203 148.694 30.2203 147.014 26.9603 146.904C19.8403 146.674 19.8503 146.484 19.8503 138.884C19.8503 131.594 19.8503 131.414 26.8503 131.194C30.0003 131.104 30.2803 129.584 30.2903 127.124C30.2903 124.764 29.2803 121.364 32.4803 120.694C36.6303 119.834 41.1903 119.194 45.1503 121.324C47.0303 122.334 46.1403 125.044 46.0203 126.944C45.8003 130.214 46.9703 131.244 50.2703 131.204C56.9903 131.114 56.9903 131.304 57.0003 138.174C57.0003 139.664 56.9003 141.174 57.0103 142.664C57.2603 145.924 55.7503 147.414 52.5903 146.954Z" fill="#0B9D58"/>
<path d="M180.18 214.794C177.9 216.194 175.48 217.014 172.67 216.994C158.56 216.884 144.44 216.944 130.33 216.944C127.82 216.944 125.05 217.274 125.01 213.494C124.97 209.734 127.66 209.924 130.22 209.924C142.01 209.934 153.81 209.694 165.59 210.024C171.2 210.184 176.09 209.344 179.97 205.044C182.62 203.664 185.26 202.274 187.91 200.884C189.17 205.694 186.23 211.074 180.18 214.794Z" fill="white"/>
<path d="M75.2103 87.0639C75.0703 86.7339 74.9403 86.4039 74.8003 86.0739C71.8303 64.9739 79.1103 48.4139 97.3103 37.2539C124.54 20.5439 161.44 38.6539 166.17 70.2039C170 95.7739 151.52 122.554 120.9 123.634C117.93 123.734 114.94 123.284 111.96 123.094C111.3 122.764 110.65 122.424 109.99 122.094C106.74 120.324 104.33 117.594 101.76 115.034C93.9303 107.204 86.0703 99.4139 78.2903 91.5339C77.0303 90.2339 76.0803 88.6639 75.2103 87.0639Z" fill="#F8F6F7"/>
<path d="M75.2103 87.0639C87.0303 98.5139 98.9003 109.914 110 122.084C93.5403 119.574 79.0103 104.944 75.2103 87.0639Z" fill="#EEECEE"/>
<path d="M145.09 79.7339C145.02 89.9439 146.2 89.1239 135.59 88.8339C131.02 88.7039 129.66 89.9939 129.78 94.6139C130.07 105.394 131.01 104.124 120.22 104.104C109.48 104.084 110.84 105.424 111.1 94.8439C111.22 89.9739 109.85 88.6339 105.03 88.8239C95.2503 89.2039 95.2403 88.9239 95.2403 79.2239C95.2403 78.2239 95.3303 77.2139 95.2203 76.2339C94.7003 71.5839 96.3703 69.7239 101.38 69.9139C110.91 70.2739 111.15 69.9839 110.86 60.3139C110.72 55.6939 112.21 53.7539 116.79 54.2739C116.95 54.2939 117.12 54.2739 117.29 54.2739C129.5 54.1639 129.59 54.1639 129.82 66.0639C129.88 69.0339 130.65 70.4739 133.77 70.0339C134.26 69.9639 134.77 70.0239 135.27 70.0239C145.09 70.0639 145.09 70.0639 145.09 79.7339Z" fill="#DF2926"/>
</svg>
