<svg width="219" height="256" viewBox="0 0 219 256" fill="none" xmlns="http://www.w3.org/2000/svg">
<path d="M216 94.4968C211.29 100.847 206.16 106.877 201.2 113.047C197.01 118.437 192.81 123.837 188.61 129.227C188.66 168.297 188.76 207.367 188.72 246.437C188.72 252.877 185.45 255.877 179.1 255.917C174.11 255.947 169.13 255.817 164.14 255.767C152.49 255.817 140.83 255.917 129.18 255.927C90.04 255.947 50.9 255.937 11.76 255.937C2.63 255.937 0.06 253.447 0.06 244.537C0.06 176.907 0.09 109.287 0 41.6568C0 36.6468 1.24 32.8268 6.19 30.9068C7.73 29.4468 9.66 30.0268 11.42 30.0168C24.7 29.9968 37.98 30.0368 51.27 30.0568C54.22 20.6868 57.5 18.3268 67.59 18.2968C75.68 18.2668 75.86 18.1268 77.73 10.0768C79.41 2.85676 84.17 -0.193238 93.15 0.206762C96.61 0.126762 100.1 -0.503238 103.46 0.926762C107.96 2.85676 110.46 6.25676 111.12 11.1068C111.91 16.8768 113.35 18.1268 119.14 18.2268C120.3 18.2468 121.46 18.2168 122.62 18.2268C131.27 18.3268 135.15 21.4568 137.27 30.0368C150.45 30.0068 163.64 29.9668 176.83 29.9968C178.59 29.9968 180.48 29.4168 182.06 30.7868C187.36 32.5168 188.82 36.4968 188.81 41.6668C188.79 57.7868 188.94 73.9068 189.02 90.0268C192.02 86.5168 194.86 82.8668 198.06 79.5468C202.51 74.9268 209.33 74.7368 214.18 78.7768C218.58 82.4268 219.65 89.5768 216 94.4968Z" fill="#F7F9FA"/>
<path d="M170 252.597C169.17 255.087 166.27 254.997 164.14 255.767C152.49 255.817 140.83 255.917 129.18 255.927C90.04 255.947 50.9 255.937 11.76 255.937C2.63 255.937 0.06 253.447 0.06 244.537C0.06 176.907 0.09 109.287 0 41.6568C0 36.6468 1.24 32.8268 6.19 30.9068C16.02 30.3468 18.78 29.9068 19.47 32.8368C19.89 34.5968 19.55 37.5868 19.56 42.4968C19.66 102.377 19.6 162.267 19.62 222.157C19.62 224.597 19.29 227.097 20.3 229.417C20.38 229.607 20.47 229.797 20.57 229.977C22.02 233.547 25.2 233.297 28.16 233.307C42.91 233.377 57.66 233.317 72.41 233.347C74.89 233.347 77.39 233.157 79.82 233.857C80.46 234.057 80.9 234.397 81.21 234.837C81.27 234.927 81.34 235.027 81.39 235.137C81.66 235.617 81.84 236.187 82.01 236.797C83.5 241.907 86.14 242.757 90.66 239.577C93.39 237.657 95.6 234.897 98.9 233.927C99.43 233.767 99.99 233.657 100.58 233.607C100.6 233.597 100.61 233.597 100.63 233.597C118.59 232.987 136.55 233.447 154.51 233.337C159.66 233.307 164.82 233.487 169.77 231.697C169.82 231.797 169.86 231.897 169.9 231.997C169.96 232.097 170 232.197 170.04 232.297C173.03 239.037 172.25 245.867 170 252.597Z" fill="#0B9D58"/>
<path d="M201.2 113.047C197.01 118.437 192.81 123.837 188.61 129.227C186.21 135.407 181.09 139.637 177.34 144.847C175.22 147.797 172.75 150.497 170.63 153.467C170.42 153.727 170.21 153.987 170 154.247C169.65 154.677 169.3 155.107 168.95 155.537C152.23 176.127 135.78 196.947 119.18 217.637C117.72 219.447 116.43 221.427 114.14 222.327C113.99 222.247 113.85 222.167 113.7 222.087C113.67 222.077 113.64 222.057 113.61 222.037C106.75 218.317 100.58 213.747 95.8 207.477C95.74 207.417 95.7 207.357 95.65 207.287C95.59 207.217 95.54 207.137 95.48 207.067C95.5 204.507 97.22 202.847 98.68 201.047C122.35 171.667 146.02 142.297 169.4 112.687C169.46 112.617 169.53 112.537 169.58 112.467C169.85 112.167 170.11 111.867 170.36 111.567C173.34 108.067 176.09 104.387 179.04 100.877C180.17 99.5268 181.1 97.8568 183.08 97.4668C183.21 97.5368 183.35 97.5968 183.48 97.6768C183.55 97.7068 183.61 97.7368 183.67 97.7768C190.24 101.167 195.46 106.337 200.93 111.187C201.44 111.627 201.4 112.377 201.2 113.047Z" fill="#F5B989"/>
<path d="M188.72 246.437C188.72 252.877 185.45 255.877 179.1 255.917C174.11 255.947 169.13 255.817 164.14 255.767C169.14 253.677 170.61 249.847 170.17 244.657C169.81 240.567 170.04 236.417 170.04 232.297V231.827C168.09 229.787 168.43 227.187 168.42 224.737C168.37 203.287 168.4 181.827 168.38 160.377C168.37 158.707 168.55 157.097 168.95 155.537C169.21 154.557 169.55 153.597 170 152.647C175.77 144.497 182.21 136.877 188.61 129.227C188.66 168.297 188.76 207.367 188.72 246.437Z" fill="#0B9D58"/>
<path d="M118.28 42.8568C118.27 42.8868 118.26 42.9168 118.24 42.9368C118.13 43.1668 118.01 43.3968 117.89 43.6268C116.23 44.6068 114.39 44.6468 112.56 44.6568C95.26 44.6968 77.96 44.7968 60.67 44.6168C52.22 44.5368 48.93 40.3468 50.13 31.8068C50.14 31.7568 50.14 31.7068 50.15 31.6568C50.26 31.4368 50.38 31.2368 50.51 31.0368C50.73 30.6868 50.98 30.3568 51.27 30.0568C54.22 20.6868 57.5 18.3268 67.59 18.2968C75.68 18.2668 75.86 18.1268 77.73 10.0768C79.41 2.85676 84.17 -0.193237 93.15 0.206763C94.95 2.11676 94.59 4.52676 94.65 6.81676C94.73 10.3068 94.65 13.7968 94.71 17.2868C94.77 21.1568 96.86 22.9968 100.54 23.3668C103.02 23.6168 105.53 23.3868 108 23.7568C117.41 25.1868 122.29 34.4668 118.28 42.8568Z" fill="#DF2926"/>
<path d="M189.02 90.0268C188.74 93.6968 186.57 96.0068 183.67 97.7768C183.51 97.8668 183.36 97.9668 183.2 98.0568C178.92 103.117 174.64 108.167 170.36 113.227C170.05 112.987 169.8 112.737 169.58 112.467C168.26 110.857 168.44 108.767 168.44 106.817C168.36 83.5568 168.37 60.3068 168.42 37.0468C168.42 35.2168 168.39 33.3668 169.35 31.7268C169.43 31.5768 169.52 31.4268 169.62 31.2868C169.78 31.2268 169.94 31.1768 170.1 31.1268C170.12 31.1168 170.15 31.1068 170.17 31.0968C170.21 31.0868 170.24 31.0768 170.28 31.0668C174.16 29.8868 178.12 30.6968 182.06 30.7868C187.36 32.5168 188.82 36.4968 188.81 41.6668C188.79 57.7868 188.94 73.9068 189.02 90.0268Z" fill="#0B9D58"/>
<path d="M127.06 44.5568C124.07 44.5468 120.8 45.4568 118.24 42.9368C118.21 42.9168 118.18 42.8868 118.15 42.8568C118.14 42.0268 118.13 41.1968 118.13 40.3668C118.11 28.6568 114.52 25.0668 102.79 25.0468C94.49 25.0268 93.13 23.7068 93.13 15.6568C93.13 10.5068 93.14 5.35676 93.15 0.206762C96.61 0.126762 100.1 -0.503238 103.46 0.926762C107.96 2.85676 110.46 6.25676 111.12 11.1068C111.91 16.8768 113.35 18.1268 119.14 18.2268C120.3 18.2468 121.46 18.2168 122.62 18.2268C131.27 18.3268 135.15 21.4568 137.27 30.0368C137.51 30.3568 137.73 30.6868 137.91 31.0468C138.01 31.2468 138.11 31.4568 138.19 31.6668C138.2 31.7368 138.21 31.8068 138.21 31.8668C139.37 41.2468 136.46 44.6168 127.06 44.5568Z" fill="#C81411"/>
<path d="M216 94.4968C211.29 100.847 206.16 106.877 201.2 113.047C195.7 107.447 189.09 103.187 183.2 98.0568C183.29 97.9268 183.38 97.8068 183.48 97.6768C185.32 95.1368 187.17 92.5768 189.02 90.0268C192.02 86.5168 194.86 82.8668 198.06 79.5468C202.51 74.9268 209.33 74.7368 214.18 78.7768C218.58 82.4268 219.65 89.5768 216 94.4968Z" fill="#DF2926"/>
<path d="M51.27 30.0568C51.25 30.3868 51.24 30.7168 51.23 31.0368C50.88 31.3468 50.51 31.6068 50.13 31.8068C48.45 32.7168 46.52 32.6968 44.62 32.7168C38.63 32.7768 32.64 32.6568 26.65 32.7768C21.53 32.8768 21.08 33.3968 20.89 38.6168C20.83 40.4468 20.87 42.2768 20.87 44.1068C20.87 103.347 20.89 162.587 20.82 221.827C20.82 224.347 21.39 227.047 20.3 229.417C20.01 230.067 19.58 230.697 18.99 231.287C17.62 229.317 18.26 227.087 18.26 224.977C18.22 162.677 18.23 100.377 18.23 38.0768C18.23 30.8668 18.23 30.8668 11.18 30.8968C9.52 30.8968 7.85 30.8968 6.19 30.9068C7.73 29.4468 9.66 30.0268 11.42 30.0168C24.7 29.9968 37.98 30.0368 51.27 30.0568Z" fill="#0B9D58"/>
<path d="M182.06 30.7868C178.13 30.8768 174.2 30.9668 170.28 31.0668H170.17C170.15 31.0868 170.12 31.1068 170.1 31.1268C169.86 31.3168 169.61 31.5368 169.35 31.7268C169.08 31.9068 168.79 32.0568 168.49 32.0868C158.63 33.1368 148.76 33.0668 138.9 32.1168C138.65 32.0968 138.42 31.9968 138.21 31.8668C137.87 31.6568 137.56 31.3368 137.27 31.0468V30.0368C150.45 30.0068 163.64 29.9668 176.83 29.9968C178.59 29.9968 180.48 29.4168 182.06 30.7868Z" fill="#0B9D58"/>
<path d="M137.27 31.0368C148.23 31.0468 159.2 31.0468 170.16 31.0568C170.22 58.4468 170.29 85.8268 170.35 113.217C158.92 127.637 147.5 142.077 136.05 156.487C122.63 173.367 109.18 190.227 95.74 207.087C96.04 209.007 95.21 210.617 94.4 212.247C91.25 218.597 88.14 224.957 84.85 231.227C84 232.847 83.66 235.177 81.02 235.147C62.72 235.107 44.43 235.057 26.13 235.027C23.07 235.017 19.99 235.127 18.97 231.277C19.04 228.947 19.16 226.617 19.16 224.297C19.17 162.007 19.17 99.7268 19.17 37.4368C19.17 31.0368 19.18 31.0368 25.73 31.0368C34.22 31.0368 42.72 31.0368 51.21 31.0368C51.29 32.8568 51.28 34.6768 51.46 36.4868C51.87 40.7468 54.06 43.0668 58.56 43.0468C78.42 42.9468 98.27 42.9168 118.13 42.8568C121.62 42.9168 125.1 43.0268 128.59 43.0268C135.41 43.0368 137 41.4068 137.1 34.5268C137.13 33.3568 137.22 32.1968 137.27 31.0368Z" fill="white"/>
<path d="M170 152.647C170.01 179.037 170.02 205.427 170.04 231.827C168.31 234.037 166.2 235.107 163.23 235.097C141.84 234.967 120.45 234.987 99.06 234.957C98.71 234.097 98.95 233.247 99.58 232.727C104.21 228.937 108.1 224.177 113.89 221.927C131.28 200.317 148.67 178.707 166.08 157.117C167.31 155.567 168.69 154.127 170 152.647Z" fill="#F6EFEF"/>
<path d="M113.88 221.917C108.94 226.257 104 230.607 99.06 234.947C95.54 236.267 93.46 239.497 90.4 241.477C87.93 243.077 85.52 243.697 83.05 242.107C80.52 240.477 80.06 237.957 81.04 235.157C85.94 225.797 90.85 216.447 95.75 207.087C101.79 212.037 107.84 216.977 113.88 221.917Z" fill="#DF2926"/>
<path d="M118.67 68.9868C127.16 68.9868 135.64 69.0068 144.13 68.9768C146.87 68.9668 149.36 69.3768 149.34 72.7968C149.32 76.0868 146.92 76.8168 144.17 76.8168C127.03 76.8268 109.89 76.8168 92.75 76.8168C89.98 76.8168 87.49 75.9568 87.46 72.8368C87.43 69.6368 89.92 68.9568 92.72 68.9768C101.36 69.0168 110.01 68.9868 118.67 68.9868Z" fill="#DF2926"/>
<path d="M118.56 124.057C126.55 124.057 134.54 124.027 142.53 124.067C145.47 124.087 149.17 123.457 149.28 127.877C149.39 132.307 145.75 131.917 142.76 131.917C126.62 131.937 110.47 131.917 94.33 131.927C91.29 131.927 87.63 132.267 87.52 128.097C87.41 123.897 91 124.027 94.1 124.037C102.25 124.077 110.41 124.057 118.56 124.057Z" fill="#DF2926"/>
<path d="M118.63 86.0568C126.95 86.0568 135.27 86.0668 143.59 86.0568C146.4 86.0568 149.28 86.2168 149.32 89.9268C149.37 93.6268 146.56 93.9268 143.71 93.9268C126.91 93.9168 110.1 93.9168 93.3 93.9368C90.42 93.9368 87.54 93.5068 87.5 90.0268C87.45 86.5468 90.24 86.0168 93.18 86.0368C101.66 86.0968 110.14 86.0568 118.63 86.0568Z" fill="#DF2926"/>
<path d="M53.23 94.0668C51.69 94.1668 50.19 93.5368 48.89 92.3968C46.26 90.0868 43.65 87.7668 41.03 85.4568C39.03 83.6868 38.16 81.6368 40.18 79.4168C42.26 77.1268 44.35 78.1568 46.3 79.8168C46.43 79.9268 46.55 80.0368 46.68 80.1468C53.59 85.8268 53.59 85.8268 58.68 78.5768C60.78 75.5768 62.87 72.5668 64.98 69.5768C66.45 67.4868 68.32 65.9868 70.84 67.6568C73.31 69.2968 72.91 71.5868 71.41 73.7568C67.43 79.5068 63.44 85.2468 59.41 90.9568C57.98 92.9968 55.99 94.0768 53.23 94.0668Z" fill="#DF2926"/>
<path d="M53.22 150.557C51.77 150.427 50.18 149.957 48.88 148.837C46.11 146.457 43.36 144.047 40.67 141.577C38.84 139.897 38.32 137.827 40.09 135.877C41.66 134.147 43.66 134.317 45.47 135.667C46.8 136.657 48.24 137.617 49.25 138.897C52.45 142.917 54.49 141.617 56.73 137.857C59.1 133.877 61.98 130.187 64.64 126.387C66.16 124.217 67.96 122.217 70.75 124.127C73.41 125.947 72.69 128.377 71.1 130.647C67.29 136.087 63.49 141.527 59.69 146.977C58.19 149.147 56.14 150.377 53.22 150.557Z" fill="#DF2926"/>
<path d="M53.65 206.067C52.11 206.137 50.63 205.877 49.44 204.847C46.42 202.237 43.39 199.627 40.47 196.917C38.79 195.357 38.5 193.417 40.05 191.587C41.6 189.747 43.48 189.757 45.37 191.127C46.17 191.717 46.91 192.397 47.65 193.067C53.42 198.177 53.42 198.177 57.96 191.657C60.24 188.387 62.52 185.097 64.83 181.847C66.38 179.657 68.24 177.807 70.99 179.897C73.34 181.687 72.72 183.987 71.26 186.097C67.38 191.707 63.46 197.287 59.53 202.857C58.1 204.877 56.19 206.067 53.65 206.067Z" fill="#DF2926"/>
<path d="M104.69 148.997C100.53 148.997 96.38 148.977 92.22 149.007C89.54 149.027 87.43 148.027 87.44 145.167C87.45 142.337 89.6 141.197 92.22 141.187C100.7 141.137 109.18 141.127 117.66 141.197C120.29 141.217 122.3 142.387 122.14 145.357C122 148.007 120.13 148.977 117.67 148.987C113.34 149.007 109.01 148.997 104.69 148.997Z" fill="#DF2926"/>
</svg>
