<svg width="256" height="237" viewBox="0 0 256 237" fill="none" xmlns="http://www.w3.org/2000/svg">
<path d="M80.94 127.37C85.48 132.81 85.98 139.18 83.79 145.7C81.15 153.52 70.62 157.95 63.07 154.69C60.99 153.79 60.72 152.08 60.71 150.18C60.7 146.36 60.71 142.54 60.71 138.72C60.71 135.06 60.72 131.4 60.7 127.75C60.69 125.29 61.51 123.35 64.24 123.27C70.17 123.09 76.48 122.01 80.94 127.37Z" fill="#F7F9FA"/>
<path d="M97.31 132.75C97.17 136.56 99.99 135.13 101.84 135.41C102.33 135.48 102.84 135.41 103.34 135.45C105.7 135.62 107.04 136.86 106.98 139.26C106.92 141.42 105.52 142.23 103.51 142.8C101.4 143.41 97.38 140.68 97.44 145.31C97.51 149.79 101.39 147.2 103.52 147.66C105.88 148.18 107.81 148.94 107.81 151.56C107.81 154.17 105.96 155.25 103.51 155.39C103.18 155.41 102.85 155.41 102.52 155.41C88.53 155.44 89.87 156.31 89.9 143.38C89.91 141.89 89.9 140.39 89.9 138.9C89.9 135.25 89.85 131.6 89.93 127.95C89.96 126.83 90.04 125.54 90.59 124.63C92.3 121.82 105.5 121.9 107.22 124.68C108.68 127.04 107.74 128.87 105.51 129.97C104.54 130.46 103.21 130.16 102.12 130.48C100.42 130.98 97.45 128.82 97.31 132.75Z" fill="#F7F9FA"/>
<path d="M127.13 135.45C127.28 140.26 127.13 145.08 127.19 149.9C127.23 152.61 126.85 155.27 123.59 155.34C120.36 155.41 119.71 152.89 119.8 150.1C119.88 147.28 119.82 144.45 119.82 141.63C119.82 139.8 119.83 137.97 119.81 136.14C119.79 133.16 120.74 129.7 115.59 129.93C113.89 130.01 112.83 128.26 112.92 126.31C113.01 124.36 114.23 122.97 115.94 122.89C120.91 122.65 125.9 122.62 130.87 122.84C132.83 122.92 134.12 124.38 134.09 126.59C134.06 128.57 132.9 130.08 131.17 130.04C126.97 129.95 127.05 132.45 127.13 135.45Z" fill="#F7F9FA"/>
<path d="M153.36 122.69C162.14 122.79 169.54 130.22 169.6 139.01C169.67 147.96 162.01 155.58 153.04 155.47C144.17 155.37 136.94 148.07 136.91 139.18C136.87 130.1 144.36 122.59 153.36 122.69Z" fill="#F7F9FA"/>
<path d="M172.98 61.43C173.1 94.96 138.65 118.8 107.65 106.63C90.23 99.8 84.55 84.78 83.4 70.25C83.11 66.57 85.26 65.19 88.76 65.57C102.64 67.1 114.52 72.06 121.77 84.91C122.09 85.49 122.4 86.08 122.78 86.62C122.95 86.86 123.29 86.99 123.57 87.19C131.2 66.96 147.05 58.48 167.43 56.45C171.14 56.08 172.96 57.37 172.98 61.43Z" fill="#F7F9FA"/>
<path d="M180.27 138.51C180.73 135.35 176.93 132.8 175.11 129.91C173.65 127.61 172.66 125.34 175.44 123.44C178.08 121.64 179.74 123.45 181.18 125.45C182.54 127.33 183.88 129.23 185.56 131.58C187.37 129.06 188.88 126.89 190.46 124.78C191.94 122.8 193.78 121.92 196 123.59C197.94 125.05 197.82 126.94 196.74 128.89C196.66 129.04 196.56 129.19 196.44 129.29C188.65 135.93 191.43 142.1 197.17 148.25C199.05 150.26 199.88 152.7 197.12 154.66C194.28 156.67 192.56 154.66 191.04 152.5C189.33 150.08 187.61 147.66 185.57 144.79C183.42 147.83 181.58 150.51 179.66 153.12C178.28 154.99 176.58 156.38 174.2 154.8C171.7 153.14 172.02 150.99 173.53 148.79C173.91 148.24 174.31 147.71 174.69 147.16C176.66 144.3 179.83 141.6 180.27 138.51Z" fill="#F7F9FA"/>
<path d="M229.65 177.22C224.42 185.98 218.32 194.02 211.2 201.32C209.2 203.38 207.19 204.21 204.65 202.38C202.77 203.84 200.9 205.3 199.02 206.76C201.07 210.31 198.91 212.14 196.28 214.06C153.87 245.04 93.4 243.11 53.14 209.29C27.87 188.06 13.46 161.03 10.83 128.01C10.49 123.7 9.2 122.03 4.92 122.75C3.02 123.06 1.23 122.54 0.339996 120.55C-0.580004 118.51 0.529996 117.05 1.87 115.69C8.63 108.79 15.42 101.93 22.13 94.98C24.62 92.41 26.86 92.39 29.35 94.96C36.07 101.89 42.84 108.77 49.62 115.65C51 117.05 51.88 118.52 51.11 120.54C50.29 122.68 48.46 122.96 46.59 122.75C43.11 122.36 42.13 123.37 42.55 127.13C44.39 143.59 50.28 158.33 60.42 171.36C62.16 173.59 63.61 175.66 61.82 178.48C63.49 180.18 65.16 181.88 66.83 183.58C69.96 181.46 72.02 183.58 74.26 185.37C105.56 210.35 149.28 210.49 180.83 185.69C189.16 179.15 196.12 171.36 201.38 162.16C203.49 158.45 205.78 157.85 209.47 159.98C215.35 163.39 221.4 166.52 227.46 169.61C231.07 171.44 231.74 173.71 229.65 177.22Z" fill="#F7F9FA"/>
<path d="M254.33 119.66C247.47 126.92 240.41 133.99 233.41 141.11C231.28 143.28 229.07 143.36 226.9 141.16C220.01 134.16 213.14 127.14 206.25 120.14C204.89 118.76 203.95 117.27 204.78 115.25C205.61 113.22 207.39 112.58 209.26 112.85C213.07 113.41 213.12 111.39 212.85 108.53C209.21 70.16 175.37 36.64 137.01 33.52C102.68 30.73 75.72 43.61 56.11 71.84C53.87 75.06 51.79 75.87 48.28 73.85C42.52 70.53 36.56 67.6 30.71 64.45C25.96 61.89 25.47 60.33 28.37 55.87C46.27 28.37 71.12 10.6 103.26 3.73C132.57 -2.54 160.42 2.05 186.56 16.8C189.25 18.31 191.96 19.78 190.66 23.66C192.35 25.47 194.38 26.79 196.62 27.83C199.06 25.8 201.1 26.65 203.24 28.49C225.59 47.64 239.2 71.7 243.89 100.77C244.13 102.25 244.57 103.75 244.5 105.22C244.26 110.52 245.26 113.84 251.99 113.07C255.89 112.62 257.21 116.62 254.33 119.66Z" fill="#F7F9FA"/>
<path d="M254.33 119.66C247.47 126.92 240.41 133.99 233.41 141.11C231.28 143.28 229.07 143.36 226.9 141.16C220.01 134.16 213.14 127.14 206.25 120.14C204.89 118.76 203.95 117.27 204.78 115.25C205.61 113.22 207.39 112.58 209.26 112.85C213.07 113.41 213.12 111.39 212.85 108.53C209.21 70.16 175.37 36.64 137.01 33.52C102.68 30.73 75.72 43.61 56.11 71.84C53.87 75.06 51.79 75.87 48.28 73.85C42.52 70.53 36.56 67.6 30.71 64.45C25.96 61.89 25.47 60.33 28.37 55.87C46.27 28.37 71.12 10.6 103.26 3.73C132.57 -2.54 160.42 2.05 186.56 16.8C189.25 18.31 191.96 19.78 190.66 23.66C188.71 28.25 185.66 26.38 182.91 24.82C172.12 18.69 160.72 14.12 148.49 12.04C104.49 4.57 68.75 18.83 40.89 53.41C37.75 57.3 38.02 58.19 42.25 60.66C43.83 61.58 45.51 62.32 47.12 63.18C49.27 64.34 50.93 63.81 52.25 61.86C52.89 61.05 53.53 60.26 54.18 59.48C58.64 54.11 63.43 49.29 68.57 45.08C82.41 33.69 98.72 26.64 117.71 24.69C146.23 21.76 171.32 30.25 192.45 49.83C192.53 49.9 192.6 49.97 192.68 50.05C195.6 52.77 198.42 55.61 200.96 58.69C200.98 58.7 200.98 58.72 200.99 58.73C201.86 59.79 202.7 60.89 203.5 62.01C213.9 76.33 220.14 92.25 221.85 109.92C222.15 113.08 222.68 116.24 221.14 119.22C220.3 120.84 220.71 122.07 221.93 123.22C222.53 123.79 223.1 124.41 223.7 124.99C231.36 132.36 229.03 132.84 237.2 124.93C239.02 123.16 240.1 121.96 238 119.25C235.37 115.85 236.23 111.22 235.78 107.16C232.59 78.5 219.92 54.95 198.34 36.01C195.85 33.83 192.9 31.46 196.61 27.84C196.62 27.84 196.62 27.83 196.62 27.83C199.06 25.8 201.1 26.65 203.24 28.49C225.59 47.64 239.2 71.7 243.89 100.77C244.13 102.25 244.57 103.75 244.5 105.22C244.26 110.52 245.26 113.84 251.99 113.07C255.89 112.62 257.21 116.62 254.33 119.66Z" fill="black"/>
<path d="M244.04 121.17C239.4 125.29 235.49 128.63 231.76 132.16C230.48 133.37 229.73 133.36 228.57 132.13C225.48 128.87 222.27 125.71 219.16 122.47C218.66 121.95 217.49 121.37 218.3 120.49C223.7 114.62 220.03 108.1 219.24 102.09C217.32 87.65 210.84 74.9 202.82 62.91C199.69 58.25 196.32 53.96 192.68 50.05C179.45 35.79 162.81 26.61 142.64 23.19C115.5 18.58 91.3 25.65 70.3 43.58C69.72 44.08 69.14 44.57 68.57 45.08C62.65 50.29 57.26 55.95 52.96 62.62C51.72 66.09 49.75 66.67 46.66 64.52C44.5 63.02 42.14 61.64 39.67 60.76C35.36 59.23 36.29 57.29 38.38 54.39C71.1 8.74999 133.18 -4.82001 182.28 23.03C185.01 24.57 187.61 26.8 190.66 23.66C192.35 25.47 194.38 26.79 196.62 27.83C196.62 27.83 196.62 27.84 196.61 27.84C195.1 30.55 196.17 32.44 198.34 34.29C223.24 55.56 236.18 82.69 237.7 115.31C237.85 118.59 239.29 120.18 244.04 121.17Z" fill="#0B9D58"/>
<path d="M220.47 174.41C220.47 174.49 220.46 174.57 220.45 174.65C220.43 175.14 220.36 175.6 220.25 176.04C220.22 176.21 220.17 176.38 220.12 176.54C220.11 176.58 220.1 176.62 220.08 176.66C219.18 179.46 216.87 181.47 215.01 183.62C214.68 184 214.34 184.38 214 184.76C195.13 206.06 171.74 219.53 143.28 223.29C109.75 227.71 79.8 219.04 53.45 197.63C53.09 197.34 52.74 197.04 52.39 196.74C46.67 191.87 42.02 186.09 37.01 180.62C36.08 179.59 35.12 178.58 34.15 177.58C27.73 169.3 23.71 159.83 20.95 149.84C18.52 141.01 16.41 132.08 16.6 122.81C16.65 120.56 16.24 118.46 14.3 117.02C11.98 115.3 12.88 113.59 14.33 111.96C16.88 109.1 19.64 106.45 22.42 103.81C24.75 101.59 27.07 101.53 29.46 103.74C31.55 105.65 33.47 107.74 35.53 109.68C38.08 112.09 39.14 114.44 37.14 117.99C35.48 120.94 36.16 124.55 36.52 127.82C38.4 144.55 44.11 159.8 54.23 173.37C56.24 176.06 58.51 177.93 61.82 178.48C63.49 180.18 65.16 181.88 66.83 183.58C67.62 187.57 70.18 190.12 73.38 192.46C114.43 222.57 171.67 213.73 201.91 172.54C206.82 165.86 206.84 165.81 214.28 169.76C216.57 170.97 219.39 171.56 220.47 174.41Z" fill="#F34545"/>
<path d="M196.28 214.06C153.87 245.04 93.4 243.11 53.14 209.29C27.87 188.06 13.46 161.03 10.83 128.01C10.49 123.7 9.2 122.03 4.92 122.75C3.02 123.06 1.23 122.54 0.339996 120.55C-0.580004 118.51 0.529996 117.05 1.87 115.69C8.63 108.79 15.42 101.93 22.13 94.98C24.62 92.41 26.86 92.39 29.35 94.96C36.07 101.89 42.84 108.77 49.62 115.65C51 117.05 51.88 118.52 51.11 120.54C50.29 122.68 48.46 122.96 46.59 122.75C43.11 122.36 42.13 123.37 42.55 127.13C44.39 143.59 50.28 158.33 60.42 171.36C62.16 173.59 63.61 175.66 61.82 178.48C58.95 180.25 56.91 179.17 55.01 176.74C42.27 160.34 35.26 141.88 34.81 121.04C34.78 119.73 34.64 117.67 35.34 117.24C39.66 114.57 36.5 112.9 34.69 111.18C31.7 108.33 29.16 102.92 25.77 103.18C22.59 103.43 19.76 108.33 16.81 111.21C15.64 112.36 14.57 113.61 13.19 115.1C17.71 115.8 17.85 118.82 17.95 122.13C18.58 141.8 23.73 160.11 34.66 176.63C39.96 183.92 45.87 190.62 52.39 196.74C55.18 199.36 58.07 201.88 61.08 204.29C96.22 232.48 148.77 234.88 186.42 209.9C188.64 208.43 190.74 206.74 193.16 205.62C195.29 204.63 197.61 203.61 199.02 206.76C201.07 210.31 198.91 212.14 196.28 214.06Z" fill="black"/>
<path d="M172.98 61.43C173.1 94.96 138.65 118.8 107.65 106.63C90.23 99.8 84.55 84.78 83.4 70.25C83.11 66.57 85.26 65.19 88.76 65.57C102.64 67.1 114.52 72.06 121.77 84.91C122.09 85.49 122.4 86.08 122.78 86.62C122.95 86.86 123.29 86.99 123.57 87.19C131.2 66.96 147.05 58.48 167.43 56.45C171.14 56.08 172.96 57.37 172.98 61.43Z" fill="black"/>
<path d="M229.65 177.22C224.42 185.98 218.32 194.02 211.2 201.32C209.2 203.38 207.19 204.21 204.65 202.38C201.18 199.52 203.4 197.08 205.4 194.9C208.41 191.63 211.27 188.24 214 184.76C215.54 182.81 217.04 180.84 218.51 178.84C219.02 178.14 219.73 177.47 220.08 176.66C220.1 176.62 220.11 176.58 220.12 176.54C220.19 176.38 220.23 176.21 220.25 176.04C220.33 175.58 220.25 175.07 219.95 174.49C219.85 174.36 219.78 174.17 219.65 174.1C215.71 171.98 211.68 168.1 207.83 168.26C204.09 168.42 202.51 174.34 199.83 177.62C167.66 217.02 108.71 223.11 69.25 191.04C66.73 189 64.64 187.04 66.83 183.58C69.96 181.46 72.02 183.58 74.26 185.37C105.56 210.35 149.28 210.49 180.83 185.69C189.16 179.15 196.12 171.36 201.38 162.16C203.49 158.45 205.78 157.85 209.47 159.98C215.35 163.39 221.4 166.52 227.46 169.61C231.07 171.44 231.74 173.71 229.65 177.22Z" fill="black"/>
<path d="M220.21 178.04C216.18 184.51 211.44 190.46 206.01 195.82C203.99 197.81 203.13 199.79 204.65 202.38C202.77 203.84 200.9 205.3 199.02 206.76C196.24 204.83 194.1 206.32 191.84 207.93C171.23 222.65 148.19 229.76 122.95 228.39C86.49 226.42 57.91 210.13 37.01 180.62C36.5 179.89 35.99 179.16 35.49 178.42C35.13 177.89 34.93 177.23 34.66 176.63C37.98 177.73 39.08 181.05 41.06 183.36C59.19 204.57 82.06 217.13 109.5 221.55C142.48 226.86 172.06 218.58 198.12 198.21C206.56 191.62 214.51 184.08 219.95 174.49C220.13 174.54 220.3 174.59 220.45 174.65C223.08 175.57 220.8 177.09 220.21 178.04Z" fill="#F34545"/>
<path d="M169.6 139.01C169.67 147.96 162.01 155.58 153.04 155.47C144.17 155.37 136.94 148.07 136.91 139.18C136.87 130.1 144.36 122.59 153.36 122.69C162.14 122.79 169.54 130.22 169.6 139.01Z" fill="#010101"/>
<path d="M83.79 145.7C81.15 153.52 70.62 157.95 63.07 154.69C60.99 153.79 60.72 152.08 60.71 150.18C60.7 146.36 60.71 142.54 60.71 138.72C60.71 135.06 60.72 131.4 60.7 127.75C60.69 125.29 61.51 123.35 64.24 123.27C70.17 123.09 76.48 122.01 80.94 127.37C85.48 132.81 85.98 139.18 83.79 145.7Z" fill="black"/>
<path d="M197.12 154.66C194.28 156.67 192.56 154.66 191.04 152.5C189.33 150.08 187.61 147.66 185.57 144.79C183.42 147.83 181.58 150.51 179.66 153.12C178.28 154.99 176.58 156.38 174.2 154.8C171.7 153.14 172.02 150.99 173.53 148.79C173.91 148.24 174.31 147.71 174.69 147.16C176.66 144.3 179.83 141.6 180.27 138.51C180.73 135.35 176.93 132.8 175.11 129.91C173.65 127.61 172.66 125.34 175.44 123.44C178.08 121.64 179.74 123.45 181.18 125.45C182.54 127.33 183.88 129.23 185.56 131.58C187.37 129.06 188.88 126.89 190.46 124.78C191.94 122.8 193.78 121.92 196 123.59C197.94 125.05 197.82 126.94 196.74 128.89C196.66 129.04 196.56 129.19 196.44 129.29C188.65 135.93 191.43 142.1 197.17 148.25C199.05 150.26 199.88 152.7 197.12 154.66Z" fill="#010101"/>
<path d="M107.81 151.56C107.81 154.17 105.96 155.25 103.51 155.39C103.18 155.41 102.85 155.41 102.52 155.41C88.53 155.44 89.87 156.31 89.9 143.38C89.91 141.89 89.9 140.39 89.9 138.9C89.9 135.25 89.85 131.6 89.93 127.95C89.96 126.83 90.04 125.54 90.59 124.63C92.3 121.82 105.5 121.9 107.22 124.68C108.68 127.04 107.74 128.87 105.51 129.97C104.54 130.46 103.21 130.16 102.12 130.48C100.42 130.98 97.45 128.82 97.31 132.75C97.17 136.56 99.99 135.13 101.84 135.41C102.33 135.48 102.84 135.41 103.34 135.45C105.7 135.62 107.04 136.86 106.98 139.26C106.92 141.42 105.52 142.23 103.51 142.8C101.4 143.41 97.38 140.68 97.44 145.31C97.51 149.79 101.39 147.2 103.52 147.66C105.88 148.18 107.81 148.94 107.81 151.56Z" fill="#010101"/>
<path d="M134.09 126.59C134.06 128.57 132.9 130.08 131.17 130.04C126.97 129.95 127.05 132.45 127.13 135.45C127.28 140.26 127.13 145.08 127.19 149.9C127.23 152.61 126.85 155.27 123.59 155.34C120.36 155.41 119.71 152.89 119.8 150.1C119.88 147.28 119.82 144.45 119.82 141.63C119.82 139.8 119.83 137.97 119.81 136.14C119.79 133.16 120.74 129.7 115.59 129.93C113.89 130.01 112.83 128.26 112.92 126.31C113.01 124.36 114.23 122.97 115.94 122.89C120.91 122.65 125.9 122.62 130.87 122.84C132.83 122.92 134.12 124.38 134.09 126.59Z" fill="#010101"/>
<path d="M52.96 62.63C55.02 55.62 60.53 50.93 65.3 46.13C74.11 37.26 84.66 30.59 96.54 26.28C123.8 16.38 149.84 19.01 174.72 33.83C185.72 40.38 194.64 49.06 201.65 59.74C202.3 60.74 202.97 61.65 202.81 62.91C192.65 50.58 180.88 40.29 166.14 33.68C127.53 16.35 82.6 26.91 55.6 59.7C54.77 60.71 53.84 61.65 52.96 62.63Z" fill="#0B9D58"/>
<path d="M129.02 96.58C131.86 79.34 145.02 66.68 162.09 64.66C164.16 64.41 165.4 64.59 164.76 67.11C163.58 71.75 162.88 76.56 160.15 80.67C154.05 89.89 145.04 94.58 134.62 97.04C132.73 97.48 130.76 98.24 129.02 96.58Z" fill="#BAF29A"/>
<path d="M94.8 84.64C92.69 81.39 91.99 77.76 91.49 73.94C105.23 75.01 115.41 83.82 117.98 96.58C116.33 98.12 114.55 97.31 112.86 96.77C105.68 94.47 99.01 91.39 94.8 84.64Z" fill="#BAF19A"/>
<path d="M129.02 96.58C138.97 95.35 148 92.08 155.27 84.82C156.78 83.32 157.98 81.41 160.15 80.67C154.61 93.81 143.48 99.34 130.45 101.47C125.58 102.26 129.16 98.37 129.02 96.58Z" fill="#98E29A"/>
<path d="M94.8 84.64C101.42 90.78 108.88 95.27 117.99 96.57C119.07 97.98 119.7 99.99 118.78 101.15C117.66 102.56 115.72 101.28 114.18 100.83C105.38 98.24 98.06 93.87 94.8 84.64Z" fill="#97E199"/>
<path d="M152.97 147.81C148.03 147.7 144.17 143.61 144.39 138.72C144.61 133.8 148.69 130.15 153.7 130.38C158.48 130.61 162.03 134.4 161.97 139.2C161.91 144.19 158 147.93 152.97 147.81Z" fill="#F6F8F9"/>
<path d="M68.07 138.68C68.06 137.36 68.05 136.04 68.07 134.72C68.11 130.58 69.71 129.41 73.36 131.04C77.03 132.67 77.33 136.06 77.29 139.43C77.25 142.68 76.57 145.9 73.08 147.15C70.13 148.21 67.45 148.19 68.04 143.65C68.25 142.01 68.07 140.33 68.07 138.68Z" fill="#F3F5F6"/>
</svg>
