<svg xmlns="http://www.w3.org/2000/svg" viewBox="0 0 258.51 184.65"><defs><style>.cls-1{isolation:isolate;}.cls-2{fill:#e9e9e9;}.cls-3{fill:#5ec559;}.cls-35,.cls-4{fill:#76ce72;}.cls-31,.cls-4,.cls-6{mix-blend-mode:screen;}.cls-12,.cls-30,.cls-4,.cls-6,.cls-7{opacity:0.55;}.cls-5{fill:#52c14d;opacity:0.75;}.cls-12,.cls-16,.cls-18,.cls-26,.cls-28,.cls-30,.cls-34,.cls-35,.cls-5,.cls-7,.cls-8{mix-blend-mode:multiply;}.cls-6{fill:#6fa13c;}.cls-7{fill:#c8dbb4;}.cls-8{fill:#8eb565;opacity:0.35;}.cls-9{fill:#4c812f;}.cls-10{fill:#00ab68;}.cls-11{fill:#d9d2c4;}.cls-12{fill:#d2cac8;}.cls-13{fill:#e2dddc;}.cls-14{fill:#299722;}.cls-15,.cls-16,.cls-18{fill:#36ad2f;}.cls-16,.cls-17{opacity:0.6;}.cls-18,.cls-28,.cls-34{opacity:0.65;}.cls-19{fill:#ffaf29;}.cls-20{fill:#ec9507;}.cls-21{fill:#c41f33;}.cls-22{fill:#ec4c5c;}.cls-23{fill:#d12135;}.cls-24{fill:#e03a4c;}.cls-25{fill:#ff7e70;}.cls-26{fill:#d16170;}.cls-27{fill:#644436;}.cls-28{fill:#e0bd57;}.cls-29{fill:#576d33;}.cls-30{fill:#a91123;}.cls-31{fill:#e0795b;opacity:0.32;}.cls-32{fill:#29b763;}.cls-33{fill:#3ec672;}.cls-34{fill:#bf5b36;}.cls-36{fill:#712109;}</style></defs><g class="cls-1"><g id="Layer_1" data-name="Layer 1"><path class="cls-2" d="M311.2,37.16c-18,2.44-27.67,2.89-43.41-9.34C252.61,16,252.14-1,250.58-9.14c-2.45-12.69-2.53-17.54-9-32.49-4.16-9.6-5.71-9.39-8.61-17.46a67.52,67.52,0,0,1-3.91-32.49c.59-4.3,2.55-17.52,11.74-28.84,14.14-17.43,39.3-22.8,58.67-18.68,21.42,4.55,23.08,7.31,43.42,10.15a69.74,69.74,0,0,0,31.29-2.43c22.9-7.08,21.83-6.44,34.81-9.35,8.53-1.91,28.41-6.37,48.11,4.07,4.36,2.3,17.79,9.66,25,25.58,8,17.6,5.25,38.64-2,53.21-8.13,16.41-21.55,23.88-21.9,39,0,1.33-.07,7.37,0,14.21.13,12.84.48,13.44,0,16.25-1.84,10.71-9.65,17.65-11.74,19.49-7.36,6.53-16,8.82-25,9.75C385.88,44.51,378.1,26.68,348,31.07c-16.29,2.38-20.25,3.86-36.77,6.1Z" transform="translate(-228.49 143.33)"/><path class="cls-3" d="M358.42-129.8c-15.14,7.35-26.66,22.48-30.19,39.64s1,35.95,11.91,49.24C354-24.06,376.7-17.08,397.68-19.87c15.3-2,30.15-9,41.05-20.46s17.55-27.62,16.95-43.85-8.82-32.18-22-40.6c-7.31-4.67-15.77-6.95-24.18-8.58C392.44-136.68,374.17-137.43,358.42-129.8Z" transform="translate(-228.49 143.33)"/><path class="cls-4" d="M384.34-23.15c-2.16,1.77-2.85,2.59-5.49,3.35A24.37,24.37,0,0,1,369.36-22,70.44,70.44,0,0,0,399.7-48.83c7.08-11.5,10.79-23.49,10.48-37.19.76.38,6.09,4.56,6.42,8.15s-1,4-2.39,7.25C406.74-53.12,398.73-34.9,384.34-23.15Z" transform="translate(-228.49 143.33)"/><path class="cls-4" d="M412-64.81a39.23,39.23,0,0,0,24.1-12.51l6.42,2.18c-7.79,11.16-21.12,17.78-34.25,17Z" transform="translate(-228.49 143.33)"/><path class="cls-4" d="M421.41-41.41a90.25,90.25,0,0,0-27,6.4c2.14-6.86,9.31-10.41,16-12,10.16-2.42,22.12-.77,32.13,2.26A50.23,50.23,0,0,1,434-35.83c-.56-2.42-3.3-4.3-5.54-5.08A17.38,17.38,0,0,0,421.41-41.41Z" transform="translate(-228.49 143.33)"/><path class="cls-4" d="M388.34-70.09c7.45,4.91,11.63,14.77,10.13,23.89,6.15-5,7-15.7,1.71-21.68-4.83-5.45-12.74-6.3-18.59-10.5-6.41-4.61-9.77-13.46-8.16-21.44l-5-.29c-1.84,9.29,2.32,19.57,10,24.61C381.53-73.41,385.17-72.18,388.34-70.09Z" transform="translate(-228.49 143.33)"/><path class="cls-4" d="M363.12-60.07c-4.24-3.67-6.78-9-9.2-14.2l-8.33-17.82a39,39,0,0,0,4,25,36,36,0,0,0,18.39,16.43c4.28,1.66,9,2.51,12.53,5.59a14.3,14.3,0,0,1,3.72,15.26c4.83-1.63,6.38-8.63,4.15-13.43s-7-7.7-11.64-9.79S367-56.68,363.12-60.07Z" transform="translate(-228.49 143.33)"/><path class="cls-4" d="M436.52-122.27c-2.13,6.15-7.86,10.09-13.61,12.59s-12,4.06-17.16,7.64-9.38,10-8.1,16.4l5.68-.68c-.19-6,4.62-11.08,9.84-13.61s11-3.36,16.34-5.71,10.35-7,10.74-13Q438.39-120.45,436.52-122.27Z" transform="translate(-228.49 143.33)"/><path class="cls-4" d="M394.82-118.34a17.58,17.58,0,0,0-6.39-.63,6.33,6.33,0,0,0-5.09,3.66Q399-111.23,414.81-108a16.09,16.09,0,0,0,6.2.44,5.92,5.92,0,0,0,4.69-3.86Z" transform="translate(-228.49 143.33)"/><path class="cls-4" d="M443-93.34c-.75-3.4-3.4-5.9-5.56-8.54s-4-6.26-2.78-9.51c-2.42.55-4,3.17-4.26,5.77a16.15,16.15,0,0,0,1.66,7.54,32.15,32.15,0,0,1,2.56,7.32,12.87,12.87,0,0,1-6.09,12.89l7-.67A32.63,32.63,0,0,0,441.23-85,11.6,11.6,0,0,0,443-93.34Z" transform="translate(-228.49 143.33)"/><path class="cls-4" d="M375.21-107.81a57.29,57.29,0,0,0-11-10.53c-3.51-2.56-7.47-4.75-11.73-5a11.34,11.34,0,0,0-4.91.57c-2.45,1-4.37,4.22-5.47,5.27a18.9,18.9,0,0,1,18.39,1.38,21.2,21.2,0,0,1,9.38,16.8C373.45-99.94,376-104.1,375.21-107.81Z" transform="translate(-228.49 143.33)"/><path class="cls-4" d="M373.4-129.78a66.51,66.51,0,0,1,10-5.45c-4.05,8.93-12.77,15.3-22.12,16.17a2.51,2.51,0,0,0-2.35-1.68Z" transform="translate(-228.49 143.33)"/><path class="cls-4" d="M349.89-119.94a16.46,16.46,0,0,1,0,15c-1.57,3-4,5.33-5.82,8.17s-2.92,6.59-1.44,9.62a4.81,4.81,0,0,1,6.26-2.35c-1.3-2.32-.48-5.36,1-7.57s3.5-4,4.95-6.16a15.15,15.15,0,0,0-.95-17.36Z" transform="translate(-228.49 143.33)"/><path class="cls-5" d="M446-50.32l3.12-7.35a18.37,18.37,0,0,0-3.68-14.47,16.44,16.44,0,0,0-13-6.12c-4.45.12-9.16,2.06-13.15,0-3.41-1.76-5.07-5.89-8-8.38-4.76-4-11.57-3-17.65-2.48s-13.43-.43-16.14-6.17c-2.21-4.69-.09-10.47,3.17-14.42s7.56-6.83,10.82-10.79,5.36-9.74,3.13-14.42l-3.11.25c1.26,3.62-.65,7.68-3.26,10.38s-5.92,4.57-8.54,7.26a21.57,21.57,0,0,0-4.12,22.65c3.14,7.48,10.94,12.49,18.7,12,5.57-.35,11.72-3.1,16.35.18,3.37,2.39,4.56,7.22,7.91,9.63s7.88,1.71,12,1.28,8.9-.12,11.25,3.42C445.13-62.76,441.21-54,446-50.32Z" transform="translate(-228.49 143.33)"/><path class="cls-5" d="M376.74-94.19c-1.67-2.43-6.9-2.85-9.57-1.85s-4.81,3.15-6.84,5.23-4.15,4.24-6.82,5.26c-4,1.52-8.38.28-12.56.81a16.23,16.23,0,0,0-13.1,11.81c-1.7-7.36,3.52-15.65,10.62-16.87,4.29-.73,8.94.76,12.9-1.11,3.36-1.58,5.39-5.2,8.24-7.65a14.27,14.27,0,0,1,14.82-2.26C374.59-98.6,376.58-96.42,376.74-94.19Z" transform="translate(-228.49 143.33)"/><path class="cls-6" d="M327.35-77c.1-.18.2-.34.29-.52.73-5.89,5.18-11.34,10.83-12.31,4.29-.73,8.94.76,12.9-1.11,3.36-1.58,5.39-5.2,8.24-7.65a14.28,14.28,0,0,1,14.45-2.39A21.45,21.45,0,0,1,379.69-117c2.62-2.69,5.92-4.56,8.54-7.26s4.52-6.76,3.26-10.38l2-.16c0-.23.07-.45.11-.67-12.1-.83-24.24.42-35.16,5.71-15.14,7.35-26.66,22.48-30.19,39.64a57.78,57.78,0,0,0-1.11,13.7C327.19-76.63,327.26-76.8,327.35-77Z" transform="translate(-228.49 143.33)"/><path class="cls-6" d="M357.91-107.6c8.88-5.34,13.71-16,15.3-26.93a58,58,0,0,0-14.79,4.73,56.44,56.44,0,0,0-26,27A34.19,34.19,0,0,0,357.91-107.6Z" transform="translate(-228.49 143.33)"/><path class="cls-7" d="M455.68-84.18c-.58-15.74-8.36-31.22-20.86-39.81.93,8.69,3.78,21.78-1.6,27.45-5,6.17-16.12,6.37-22.5,9.47a6.7,6.7,0,0,1,.55.42c3,2.49,4.63,6.62,8,8.38,4,2.07,8.7.13,13.15,0a16.44,16.44,0,0,1,13,6.12,18.37,18.37,0,0,1,3.68,14.47c-.13.31-.26.62-.4.93.14.52.3,1,.42,1.54A59.82,59.82,0,0,0,455.68-84.18Z" transform="translate(-228.49 143.33)"/><path class="cls-8" d="M446.39-51.25l-.39.93c-3-2.28-2.59-6.55-2.69-10.68q0-.73-.06-1.47a11,11,0,0,0-1.51-5.4,7.07,7.07,0,0,0-.65-.78c-1.22-.84-2.5-1.59-3.57-2.19a18.05,18.05,0,0,0-7-.45c-4.08.43-8.57,1.15-12-1.28-2.36-1.7-3.66-4.59-5.39-7-2.1-2-4.26-3.66-7.07-4l-1.95-.23c-3.21.18-6.63,1.18-9.85,1.38-7.76.48-15.56-4.53-18.7-12-.16-.36-.29-.74-.42-1.12a11.17,11.17,0,0,0-8-.53c-2.68,1-4.81,3.15-6.84,5.23s-4.15,4.24-6.82,5.26c-4,1.52-8.38.28-12.56.81a16.23,16.23,0,0,0-13.1,11.81,11.53,11.53,0,0,1-.2-1.15c-.12.25-.24.51-.37.77a59.35,59.35,0,0,0,12.86,32.39C354-24.06,376.7-17.08,397.68-19.87c15.3-2,30.15-9,41.05-20.46a62.55,62.55,0,0,0,8-10.48Z" transform="translate(-228.49 143.33)"/><path class="cls-8" d="M446-50.32c-3-2.28-2.59-6.55-2.69-10.68q0-.73-.06-1.47a11,11,0,0,0-1.51-5.4,7.07,7.07,0,0,0-.65-.78c-1.22-.84-2.5-1.59-3.57-2.19a18.05,18.05,0,0,0-7-.45c-4.08.43-8.57,1.15-12-1.28-2.36-1.7-3.66-4.59-5.39-7-2.1-2-4.26-3.66-7.07-4l-1.63-.19a56,56,0,0,0-9.94,6.28q-25.14,19.86-35.56,51.35a67.78,67.78,0,0,0,38.74,6.22c15.3-2,30.15-9,41.05-20.46a62.55,62.55,0,0,0,8-10.48l-.31-.44Z" transform="translate(-228.49 143.33)"/><path class="cls-8" d="M446.39-51.25l-.39.93c-3-2.28-2.59-6.55-2.69-10.68q0-.73-.06-1.47a11,11,0,0,0-1.51-5.4,7.07,7.07,0,0,0-.65-.78c-1.22-.84-2.5-1.59-3.57-2.19a18.05,18.05,0,0,0-7-.45l-2.26.24c-24.54,26.14-68.06,35.78-97.84,12.36a56.91,56.91,0,0,0,9.75,17.77C354-24.06,376.7-17.08,397.68-19.87c15.3-2,30.15-9,41.05-20.46a62.55,62.55,0,0,0,8-10.48Z" transform="translate(-228.49 143.33)"/><path class="cls-9" d="M374.43-100.82l-.37-.13a20.53,20.53,0,0,0,1.09,5.44,4.44,4.44,0,0,1,1.59,1.32C376.58-96.42,374.59-98.6,374.43-100.82Z" transform="translate(-228.49 143.33)"/><path class="cls-10" d="M384.58-64.73c0,7.7-28.07,13.94-62.69,13.94S259.21-57,259.21-64.73s28.06-13.94,62.68-13.94S384.58-72.43,384.58-64.73Z" transform="translate(-228.49 143.33)"/><path class="cls-11" d="M384.06-64.73c-4,6.87-30.29,12.17-62.13,12.17h-.07c-31.84,0-58.12-5.3-62.13-12.17h-.52s.26,24.12,25.56,44.6c7,5.66.48,13.64,11.07,17.64a198.09,198.09,0,0,0,26,2.21h.07a197.84,197.84,0,0,0,26-2.21c10.6-4,4.07-12,11.07-17.64,25.31-20.48,25.57-44.6,25.57-44.6Z" transform="translate(-228.49 143.33)"/><path class="cls-12" d="M293.29-54.1c-17.93-2.06-30.85-6-33.56-10.63h-.52s.26,24.12,25.56,44.6c7,5.66.48,13.64,11.07,17.64a198.09,198.09,0,0,0,26,2.21h.07a197.84,197.84,0,0,0,26-2.21,10.29,10.29,0,0,0,5.43-4C301.06-12.54,294.39-52,293.29-54.1Z" transform="translate(-228.49 143.33)"/><path class="cls-13" d="M321.89-78.67c-34.62,0-62.68,6.24-62.68,13.94s28.06,13.94,62.68,13.94S384.58-57,384.58-64.73,356.51-78.67,321.89-78.67Zm0,24.65c-32.24,0-58.38-5.3-58.38-11.85s26.14-11.84,58.38-11.84,58.38,5.3,58.38,11.84S354.14-54,321.89-54Z" transform="translate(-228.49 143.33)"/><path class="cls-14" d="M352.06-92.59c-1.81-2.33-5.1-2.15-7.84-1.76l-6.62,1-2.3.33a5.27,5.27,0,0,1-5.16,1.84A6.32,6.32,0,0,1,328-92l-2.94.42a6.35,6.35,0,0,1-1.78,1.36,3.56,3.56,0,0,1-3.75,2.16c-1.23-.17-1.73-1.29-2.12-2.42l-1.16.17-6.58,1a5.33,5.33,0,0,1-5.91,3A6,6,0,0,1,300.42-88l-2.65.39-.55.08a5.3,5.3,0,0,1-5.45,2.22,7.72,7.72,0,0,1-.89-.22,9.39,9.39,0,0,1-4.42,1.63c-2.39,0-4.47-1.83-6.81-2.43a9.69,9.69,0,0,0-6.4.94c-.33,3.21-.9,6.19-3,8.71a14.32,14.32,0,0,1-2.39,2.23,5.71,5.71,0,0,0,.76.56,11.64,11.64,0,0,0,5.73,1.29c11,.35,22.55,3.3,33.28,1s21.05-9.8,31.86-7.3c3.69.85,8,2,10.81-.5,1.7-1.54,2.33-4.05,2.7-6.44S353.48-90.76,352.06-92.59Z" transform="translate(-228.49 143.33)"/><path class="cls-3" d="M353.27-85.76c-.34-.93-1.75-.56-2.4-1.27s-.12-1.91.61-2.46,1.68-.87,2.13-1.7c.77-1.43-.58-3.37-2.11-3.67s-3,.45-4.39,1.19q-2.69,1.47-5.38,2.93a4.55,4.55,0,0,0-2-5.61,3.79,3.79,0,0,0-5.07,2.17c-.63,1.73-.17,4-1.31,5.34a2.55,2.55,0,0,1-4-.37c1.57.12,2.2-2.49,1.11-3.74s-2.94-1.24-4.41-.68a4.06,4.06,0,0,0-2.81,3.06c-.2,1.51,1.35,3.2,2.61,2.53a9.27,9.27,0,0,1-10.32,1.91l2.71-5A8.07,8.07,0,0,0,308-87.5c1.17-.93,3.11.45,3.06,2a2.75,2.75,0,0,1-3.12,2.5,3.54,3.54,0,0,1-2.57-2c-.35-.78-.44-1.66-.75-2.45a4.59,4.59,0,0,0-4.94-2.87A5.25,5.25,0,0,0,295.76-86c.8-.88,2.36.6,1.92,1.75a2.07,2.07,0,0,1-3,.73,7.07,7.07,0,0,1-2.26-2.88l-.54-1c-.9-1.67-2.46-3.63-4.07-2.92a1.7,1.7,0,0,1-.23,2.49,2.92,2.92,0,0,1-2.6.19,19.41,19.41,0,0,0-2.6-.88,7.83,7.83,0,0,0-4.16.88c-1,.4-.87,3.38-1.84,3.78-2,.83-4.83-.21-6.78.58a7.21,7.21,0,0,0-1.33,3.55c-.22,1.93-1.84,2.21-2.91,3.33-2.72,2.84,2.56,6.19,4.05,8,.54.66.89,1.21,1.24,1.62,4.27-1.32,5.44-8.29,9.79-9.76,2.57-.86,5.34.53,8.06.7,3.48.23,7.52,4.25,10.88,3.37,6.6-1.72,13.59,0,20.43.13s12.69-7.24,19.31-8.8l12.6-3C352.54-84.28,353.59-84.9,353.27-85.76Z" transform="translate(-228.49 143.33)"/><path class="cls-3" d="M353.27-85.76c-.34-.93-1.75-.56-2.4-1.27s-.12-1.91.61-2.46,1.68-.87,2.13-1.7c.77-1.43-.58-3.37-2.11-3.67s-3,.45-4.39,1.19q-2.69,1.47-5.38,2.93a4.55,4.55,0,0,0-2-5.61,3.79,3.79,0,0,0-5.07,2.17c-.63,1.73-.17,4-1.31,5.34a2.55,2.55,0,0,1-4-.37c1.57.12,2.2-2.49,1.11-3.74s-2.94-1.24-4.41-.68a4.06,4.06,0,0,0-2.81,3.06c-.2,1.51,1.35,3.2,2.61,2.53a9.27,9.27,0,0,1-10.32,1.91l2.71-5A8.07,8.07,0,0,0,308-87.5c1.17-.93,3.11.45,3.06,2a2.75,2.75,0,0,1-3.12,2.5,3.54,3.54,0,0,1-2.57-2c-.35-.78-.44-1.66-.75-2.45a4.59,4.59,0,0,0-4.94-2.87A5.25,5.25,0,0,0,295.76-86c.8-.88,2.36.6,1.92,1.75a2.07,2.07,0,0,1-3,.73,7.07,7.07,0,0,1-2.26-2.88l-.54-1c-.9-1.67-2.46-3.63-4.07-2.92a1.7,1.7,0,0,1-.23,2.49,2.92,2.92,0,0,1-2.6.19,19.41,19.41,0,0,0-2.6-.88,7.83,7.83,0,0,0-4.16.88c-1,.4-.87,3.38-1.84,3.78-2,.83-4.83-.21-6.78.58a7.21,7.21,0,0,0-1.33,3.55c-.22,1.93-1.84,2.21-2.91,3.33-2.72,2.84,2.56,6.19,4.05,8,.54.66.89,1.21,1.24,1.62,4.27-1.32,5.44-8.29,9.79-9.76,2.57-.86,5.34.53,8.06.7,3.48.23,7.52,4.25,10.88,3.37,6.6-1.72,13.59,0,20.43.13s12.69-7.24,19.31-8.8l12.6-3C352.54-84.28,353.59-84.9,353.27-85.76Z" transform="translate(-228.49 143.33)"/><path class="cls-15" d="M347-83.14A13.3,13.3,0,0,1,348.87-88a24.79,24.79,0,0,1,2-2.55q2.1-1.59-1.7-3.07c-1.83,1.53-3.54,3.75-6,4-2,.19-3.19-2.13-3.29-4-.11-2.35-2.18-1.3-3.44-.58-1,.56-1.11,3.56-1.53,4.68-1.64,4.44-8.84,2-6.11-1.53,2-2.57-4.53-1.58-3.6-.1s1.61,2.8,1,4.52c-1,3.08-8,4.08-10.43,3.27-1.48-.49-1.64-2.53-.93-3.68a24.14,24.14,0,0,1,1.91-2.37c.11-.12.21-.25.31-.38-.26,0-.52,0-.79-.05a16,16,0,0,0-4.7.74,1.9,1.9,0,0,1-1.32.43,9,9,0,0,1,.78.47,3.4,3.4,0,0,1,.61,4.54c-1,1.74-3.39,1.6-5,1.07-1.94-.64-3-3.15-3.88-5.18a6.93,6.93,0,0,0-3.16-.06,12.25,12.25,0,0,0-2,.36l.12.15c1.28,1.23,2.53,3.37,1.29,5.1-1.08,1.49-3.61,1.39-4.93.2s-2.32-4.79-3.87-6.21a1.75,1.75,0,0,1-.42,1A2.91,2.91,0,0,1,287-86c-1.35-.28-3.41-1.81-4.72-1.5s-2.35,3.36-3.46,4.37-2.91.84-4.22.68c-1.75-.22-3.48-.76-4,2a7.05,7.05,0,0,1-.72,2.32c-.91,1.8-3.6,1.69-1.64,4.28a69,69,0,0,0,4.93,5.45c2.46-2.57,3.93-7,7.29-8.11,2.57-.86,5.34.53,8.06.7,3.48.23,7.52,4.25,10.88,3.37,6.6-1.72,13.59,0,20.43.13s12.69-7.24,19.31-8.8L347-83S347-83.08,347-83.14Z" transform="translate(-228.49 143.33)"/><path class="cls-15" d="M296.51-76.64s-1.58,5.6,4.11,4,11.73-5.35,23.89-1.5,25,2.1,34.82,8.07S373.07-56.7,374.51-59s1-8.54,1.75-9.84-2.32-3.81-4.54-4.56-7.57-5.62-10.66-6a111.62,111.62,0,0,1-15-3.63c-4.89-1.56-11.67-1.24-14.15-2.32s-13.05-1.68-14.55-1-10.83,4.35-12,5-10.22,4-9.81,4.32A2.1,2.1,0,0,0,296.51-76.64Z" transform="translate(-228.49 143.33)"/><path class="cls-14" d="M312.73-83.37a13.67,13.67,0,0,1,2.18,1.13,2.1,2.1,0,0,0,2.31-.08c1-1,0-3.16,1.12-4.06a2,2,0,0,1,2.2.14,15.6,15.6,0,0,0,1.94,1.34,4.8,4.8,0,0,0,3.75-.34,11.34,11.34,0,0,1,3.65-1.23c1.29-.08,2.76.68,2.92,2s-1.07,2.54-.91,3.87a2.47,2.47,0,0,0,2.68,1.9,5.39,5.39,0,0,0,3.16-1.63,24.69,24.69,0,0,1,2.67-2.45c3.22-2.18,8.09-.72,10.05,2.63A29.18,29.18,0,0,0,352-77.27a2.94,2.94,0,0,0,2.84,1.34c1.1-.26,1.75-1.38,2.63-2.09a5.5,5.5,0,0,1,4.77-.76,16.13,16.13,0,0,1,4.48,2.21,6.53,6.53,0,0,0-1.13,2.93,2.25,2.25,0,0,0,1.63,2.4c.95.16,1.81-.5,2.66-.93a6,6,0,0,1,6.9,1.18,16.76,16.76,0,0,0-7-6.35l-.27,1.13c-11.32-4-23.05-6.81-34.74-9.57A47.45,47.45,0,0,0,328.06-87a27.48,27.48,0,0,0-5.13.05,37.69,37.69,0,0,0-3.81.59c-1.44.29-2.86.65-4.28,1s-2.55-.58-4-.15c-1.93.56-4.31,2.55-6.24,3.14l-4.22,1.31a9.08,9.08,0,0,0-3.57,1.7,3.15,3.15,0,0,0-.94,3.58c2-3.33,8.24-2.43,11.95-3.61,1.31-.42.42-3.17,1.73-3.59A5.62,5.62,0,0,1,312.73-83.37Z" transform="translate(-228.49 143.33)"/><path class="cls-3" d="M380.75-70.24a7.52,7.52,0,0,1-6.24,5.54c-1.45.18-3.19-.28-3.7-1.65a2.87,2.87,0,0,1,1.13-3.12,8.54,8.54,0,0,1,3.27-1.32l-4.11.4-.61.06-2.32.23a10.8,10.8,0,0,1-4.28-.17,3.65,3.65,0,0,1-2.69-3c-.08-1.43,1.46-2.84,2.79-2.29a4.76,4.76,0,0,0-6.37-2.62c1.14,1.16.71,3.25-.53,4.29a6.13,6.13,0,0,1-4.6,1.07c-2-.21-4.17-1-5.21-2.77s-.35-4.53,1.63-5a11.12,11.12,0,0,0-10-1.52c1.65-.36,2.85,2,2.09,3.48s-2.57,2.15-4.25,2.39a16.53,16.53,0,0,1-6.15-.25c-1.44-.34-3-1.06-3.37-2.49a3.12,3.12,0,0,1,1.61-3.21,9.2,9.2,0,0,1,3.67-1c-.76-2-3.32-2.81-5.46-2.48-2.61.4-4.83,5.12-6,2.75-2-4.11-2.71-.82-2.09,1.51.3,1.13-1.93,1.37-3.07,1.6A2.87,2.87,0,0,1,312.87-81a7.51,7.51,0,0,1-.52-2.28c-.16-.76-.69-1.59-1.47-1.6s-1.43,1.05-1.37,1.94.48,1.72.55,2.61a3.37,3.37,0,0,1-1.74,3.14,3.37,3.37,0,0,1-3.57-.32,3.66,3.66,0,0,0-3.55-3.22,3.65,3.65,0,0,0-3.46,3.31c-.06,1,.34,2.06.38,3.1s-.46,2.27-1.5,2.42a1.9,1.9,0,0,1-1.87-1.22,5.43,5.43,0,0,1-.3-2.37,7.44,7.44,0,0,1,.93-4.25c1.49-2.13,4.67-2.1,7.18-1.4,1.78.5,3.91,1.14,5.27-.11a6.9,6.9,0,0,0,1.37-3c.37-1,1.18-2.16,2.29-2.1s1.84,1.41,2.54,2.39,2.42,1.64,3,.56-.93-2.12-.9-3.3c0-1.41,2.05-1.87,3.3-1.23s2.16,1.85,3.45,2.4,2.57-2.53,4.05-2.93a9.55,9.55,0,0,1,5.32.37c2.6,1.13,2.63,3.34,2.48,4.86a1.93,1.93,0,0,0-1.93,1.82,1.93,1.93,0,0,0,1.84,1.9,2.94,2.94,0,0,0,2.33-1.59c.51-.83.83-1.79,1.41-2.58,1.52-2,4.55-2.48,7-1.69s4.41,2.55,6.3,4.27a2.83,2.83,0,0,0,.41,3,2.83,2.83,0,0,0,2.93.82c-.53-1.67,1-3.43,2.72-3.8a9.54,9.54,0,0,1,5.12.82,9.81,9.81,0,0,1,3,1.47,3.33,3.33,0,0,1,1.33,2.91,13.38,13.38,0,0,1-.92,2.34c-.27.8-.14,1.88.64,2.19s1.64-.4,2-1.17a9.78,9.78,0,0,1,1.06-2.32,2.15,2.15,0,0,1,2.73-.45C375.89-72.85,380.48-71.55,380.75-70.24Z" transform="translate(-228.49 143.33)"/><path class="cls-15" d="M356.35-71.63c8-5.88,15.87-12.49,21.32-16.41L357.21-65.85Z" transform="translate(-228.49 143.33)"/><path class="cls-16" d="M373.22-83.21a8,8,0,0,0-.85-.81c1.92-1.5,3.7-2.87,5.3-4Z" transform="translate(-228.49 143.33)"/><path class="cls-15" d="M366.3-75.37,374.07-69a29.26,29.26,0,0,0-12.14-4.94,5,5,0,0,1,.91-1.89,1.86,1.86,0,0,1,1.93-.56A4.79,4.79,0,0,1,366.3-75.37Z" transform="translate(-228.49 143.33)"/><path class="cls-15" d="M364.81-80.09c-.67-2.49-1.31-4.85-1.91-7.1.14,3.33.29,7,.46,10.91a2.09,2.09,0,0,0,1.74-1.89A5.9,5.9,0,0,0,364.81-80.09Z" transform="translate(-228.49 143.33)"/><path class="cls-15" d="M378.84-77.06c-1.31-.61-2.59-1.43-3.86-2.15a12.87,12.87,0,0,0-3.87-1.6,3,3,0,0,0-3.13,1A44.87,44.87,0,0,1,378.84-77.06Z" transform="translate(-228.49 143.33)"/><path class="cls-16" d="M368.22-73.79,374.07-69a32.31,32.31,0,0,0-6.27-3.35A4.59,4.59,0,0,0,368.22-73.79Z" transform="translate(-228.49 143.33)"/><path class="cls-16" d="M364.46-81.4a7.18,7.18,0,0,0-1.34-.53c-.07-1.83-.15-3.58-.22-5.26Z" transform="translate(-228.49 143.33)"/><path class="cls-16" d="M372.68-80.33a18,18,0,0,1,2.3,1.12c1.27.72,2.55,1.54,3.86,2.15a48.56,48.56,0,0,0-6.1-1.9A4,4,0,0,0,372.68-80.33Z" transform="translate(-228.49 143.33)"/><path class="cls-15" d="M370.43-80.94a17,17,0,0,0-2.89-7.57,49.07,49.07,0,0,1,2,8.3C369.42-80.87,370.43-80.94,370.43-80.94Z" transform="translate(-228.49 143.33)"/><path class="cls-15" d="M377.75-86.09a17.16,17.16,0,0,0,3.88.89c.58,0,1-.27.88-.8-.13-.78-1.08-1.19-1.95-1.33a11.7,11.7,0,0,0-1.64-.14,6.39,6.39,0,0,0,2.19-.67c.85-.52.71-1.31.09-2a2.26,2.26,0,0,0-2-.59c-1.16.22-1.19,1.22-1.65,1.81a3.85,3.85,0,0,0,.23-1.2,1.7,1.7,0,0,0-1.05-1.63c-.9-.43-1.39.24-1.45.92a10.22,10.22,0,0,0,.43,2.43,19.78,19.78,0,0,0-.89-2.43,3,3,0,0,0-1.8-1.49c-1-.21-1,.78-.5,1.68a22.18,22.18,0,0,0,1.8,2.5,15.49,15.49,0,0,0-2.18-2c-.91-.61-1.67-.73-2.1-.17s.44,2.06,2.56,3.34c.81.49,2.37,1.61,2.37,1.61s1.23,1.56,1.79,2.38A6.61,6.61,0,0,0,379-80.82c.93.48,2,.27,1.84-.57a3,3,0,0,0-.88-1.41A16.7,16.7,0,0,0,377.22-85a18.06,18.06,0,0,0,2.94,1.77,4.27,4.27,0,0,0,1.4.42c.43,0,.79-.17.8-.55s-.59-1.15-1.2-1.49S377.75-86.09,377.75-86.09Z" transform="translate(-228.49 143.33)"/><g class="cls-17"><path class="cls-18" d="M371.51-90.55l.19.07c.2.16.95.72,1.1.85,0,0,0,0,0,.07a1.38,1.38,0,0,1-.52.8,6.79,6.79,0,0,1-1.06.76c-.2-.11-.94-1-1.09-1.09s0-.1,0-.2a7.76,7.76,0,0,0-.23-.77h0a6,6,0,0,1,.79-.8A5.26,5.26,0,0,0,371.51-90.55Z" transform="translate(-228.49 143.33)"/><path class="cls-18" d="M371.55-87.78c-.13-.08.22-.29.09-.37a4.35,4.35,0,0,1,1-.08,2.66,2.66,0,0,1,1.45.4c.81.56.95,1.59.44,2,0,0,0,.14-.05.15Z" transform="translate(-228.49 143.33)"/></g><path class="cls-15" d="M368.45-89.33a6.48,6.48,0,0,0,1.33-2.5,1.47,1.47,0,0,0-.72-1.37,1,1,0,0,0-1.59.44,5.92,5.92,0,0,0-.34,1.24,7.43,7.43,0,0,0-.43-2.39,2.68,2.68,0,0,0-2.1-1.82c-.74-.09-1,.55-1,1.14.07,1.18,1.18,2.11,1.76,3a11.48,11.48,0,0,0-1.29-1.26c-.69-.57-1.44-.92-2-.58s0,1.43.81,2.11a22.24,22.24,0,0,0,2.81,1.79s-2.06-1.1-2.88-1.38-1.75-.28-2.07.26c-.45.75.74,1.65,1.9,2a20.87,20.87,0,0,0,3.15.58,9.53,9.53,0,0,0-2.68.19c-.88.3-1.16.9-.56,1.83.51.78,2.5,1.41,4.25.53a19.46,19.46,0,0,1,2.05-.79s1.76.21,2.65.39a3.08,3.08,0,0,0,2.36-.17c.52-.4.38-1.43-.42-2a2.6,2.6,0,0,0-1.46-.41,6.54,6.54,0,0,0-2.46.51,6.23,6.23,0,0,0,2.08-1,1.44,1.44,0,0,0,.53-.8,1.25,1.25,0,0,0-.47-1.09,1.53,1.53,0,0,0-1.59-.27A13,13,0,0,0,368.45-89.33Z" transform="translate(-228.49 143.33)"/><path class="cls-16" d="M362.78-89.75a6.6,6.6,0,0,1,.45-1.33,1.06,1.06,0,0,1,1.72-.49,1.49,1.49,0,0,1,.68,1.47,6.79,6.79,0,0,1-1.45,2.54A13.06,13.06,0,0,1,366-89.35a1.56,1.56,0,0,1,1.67.27,1.23,1.23,0,0,1,.43,1.16,1.58,1.58,0,0,1-.61.86,5.26,5.26,0,0,1-1.46.84c.51-.15,2.63-.5,2.83-.06.57,1.27,1,2.47,1,2.47a10.41,10.41,0,0,1-2.63.07c-.94-.18-2.81-.39-2.81-.39l-.09,0s-3.5-8.27-3.44-8.29c.6,0,1.69-.32,2,1.5A2.42,2.42,0,0,1,362.78-89.75Z" transform="translate(-228.49 143.33)"/><path class="cls-15" d="M363.34-87.31a7.62,7.62,0,0,0,1.6-2.7,1.44,1.44,0,0,0-.67-1.47,1.07,1.07,0,0,0-1.74.49,6.27,6.27,0,0,0-.46,1.34,7.79,7.79,0,0,0-.29-2.57,2.6,2.6,0,0,0-2.12-1.94c-.78-.08-1.1.6-1.11,1.24,0,1.26,1.12,2.25,1.68,3.23a11.44,11.44,0,0,0-1.3-1.35c-.71-.6-1.48-1-2.13-.6s-.06,1.54.72,2.27a22.16,22.16,0,0,0,2.89,1.9,30.81,30.81,0,0,0-3-1.46c-.87-.29-1.86-.29-2.25.3-.55.81.67,1.78,1.89,2.15a20.62,20.62,0,0,0,3.36.6,10.14,10.14,0,0,0-2.91.23,1.21,1.21,0,0,0-.74,2c.49.84,2.59,1.5,4.55.52a23.58,23.58,0,0,1,2.27-.87s1.88.21,2.84.39a3.34,3.34,0,0,0,2.54-.21,1.38,1.38,0,0,0-.31-2.14,2.67,2.67,0,0,0-1.54-.43,7.5,7.5,0,0,0-2.69.57,7.1,7.1,0,0,0,2.32-1.13,1.68,1.68,0,0,0,.62-.87,1.22,1.22,0,0,0-.42-1.17,1.61,1.61,0,0,0-1.69-.27A15.23,15.23,0,0,0,363.34-87.31Z" transform="translate(-228.49 143.33)"/><g class="cls-17"><path class="cls-18" d="M380.44-80.4a4.42,4.42,0,0,1-1.46-.46,4.1,4.1,0,0,1,.5-.58,2.4,2.4,0,0,1,1.17-.43S381.2-80.93,380.44-80.4Z" transform="translate(-228.49 143.33)"/><path class="cls-18" d="M377.11-83.62a2.13,2.13,0,0,1,1.54,1.86,3.08,3.08,0,0,1-.06.79c-.2-.06-.56-.48-.79-.53-.49-.79-1-1.32-1.43-2A1.13,1.13,0,0,1,377.11-83.62Z" transform="translate(-228.49 143.33)"/></g><path class="cls-15" d="M379.06-75.43a24.43,24.43,0,0,0,2.53,4.22,2.36,2.36,0,0,0,1.88,1c.86-.13.43-1.23-.27-2.23a21.42,21.42,0,0,0-1.41-1.8,21.76,21.76,0,0,0,3,2.45c1.57,1,2.49.86,2.7.14s-.62-1.67-1.38-2.34c-1.47-1.26-2.76-1.28-3.92-1.76a8.39,8.39,0,0,0,1.69.22c.79,0,1.33-.29,1-1.15a2.87,2.87,0,0,0-2.53-1.46,9.19,9.19,0,0,0-2.48.51,10.36,10.36,0,0,0,2.05-1,1.31,1.31,0,0,0,.1-1.83,1.59,1.59,0,0,0-2.38-.38,7.77,7.77,0,0,0-1.28,1.84,5.51,5.51,0,0,0,.44-2.17A2.15,2.15,0,0,0,377.25-83c-.8-.28-1.84.53-1.53,2.5.12.77.16,2.29.16,2.29s-.7,1.23-1.14,1.81a2.59,2.59,0,0,0-.59,2.28c.23,1,1.33,2.07,2.16,1.94.48-.08.71-.51.86-.94a7.59,7.59,0,0,0,.16-2.84,11.25,11.25,0,0,0,.51,3.09,5.51,5.51,0,0,0,.75,1.52,2.16,2.16,0,0,0,1.39.91c.62,0,.86-.64.7-1.32S379.06-75.43,379.06-75.43Z" transform="translate(-228.49 143.33)"/><g class="cls-17"><path class="cls-18" d="M374.83-76.52a2.06,2.06,0,0,1,1.31,2,5.7,5.7,0,0,1-.37,2.23c-.39-.21-.85-.42-1.24-.6s-.59-.35-.82-.68c0-.4.23-1.08.08-1.47C374.26-75.59,374.83-76.52,374.83-76.52Z" transform="translate(-228.49 143.33)"/><path class="cls-18" d="M379.69-73.73a1.67,1.67,0,0,1-.17,2.18,3.39,3.39,0,0,1-1,.65c-.41-.22-1.11-.5-1.52-.77s-.85-.38-1.2-.57a7.49,7.49,0,0,1,1.3-1.87A1.65,1.65,0,0,1,379.69-73.73Z" transform="translate(-228.49 143.33)"/><path class="cls-18" d="M380-71a2.45,2.45,0,0,1,.68.09c-.25.87-1.2.42-1.64,0A1.56,1.56,0,0,1,380-71Z" transform="translate(-228.49 143.33)"/></g><path class="cls-15" d="M375.64-66.48a27.74,27.74,0,0,0,2.71,5.14,2.39,2.39,0,0,0,2.09,1.22c1-.21.54-1.56-.21-2.77a25.56,25.56,0,0,0-1.54-2.19A22.2,22.2,0,0,0,382-62.16c1.74,1.19,2.79,1,3.06.06s-.65-2.06-1.5-2.85c-1.61-1.5-3.07-1.48-4.37-2a8.49,8.49,0,0,0,1.91.19c.89,0,1.51-.4,1.17-1.46a3,3,0,0,0-2.8-1.69,10.15,10.15,0,0,0-2.81.73A12.4,12.4,0,0,0,379-70.47a1.73,1.73,0,0,0,.19-2.24,1.67,1.67,0,0,0-2.67-.37,10.28,10.28,0,0,0-1.52,2.3,7.66,7.66,0,0,0,.59-2.67A2.36,2.36,0,0,0,374-75.69c-.89-.31-2.1.71-1.85,3.1.1,1,.06,2.81.06,2.81s-.86,1.55-1.39,2.28a3.64,3.64,0,0,0-.79,2.85c.21,1.2,1.41,2.54,2.38,2.34.54-.12.83-.66,1-1.21a10.52,10.52,0,0,0,.31-3.54,14.34,14.34,0,0,0,.44,3.81,5.93,5.93,0,0,0,.79,1.88,2.16,2.16,0,0,0,1.54,1.08c.71,0,1-.84.86-1.68S375.64-66.48,375.64-66.48Z" transform="translate(-228.49 143.33)"/><path class="cls-19" d="M272.73-69s3.58-19.53,4-22.52c0,0,11.84,8.16,23.65,6.37l11.74,13.44S287.24-60.48,272.73-69Z" transform="translate(-228.49 143.33)"/><path class="cls-20" d="M277.86-89.07c-.45,3.12-4,22.48-4,22.48,1,.61,1,.21,2.1.63-.34-6,4-19.1,4-19.1,14.44,4,22.08,4.12,19.95,1.57A50.82,50.82,0,0,1,277.86-89.07Z" transform="translate(-228.49 143.33)"/><path class="cls-19" d="M367-60.21a6.77,6.77,0,0,0,3.42.91c1.64-.15,2.93-1.47,3.83-2.85a14.88,14.88,0,0,0,2.18-5.62,9.55,9.55,0,0,0-.26-4.75A5.61,5.61,0,0,0,373-75.94a4,4,0,0,0-4.39,1,10.06,10.06,0,0,0-.85-9.85,8.28,8.28,0,0,0-5-3.43A6.21,6.21,0,0,0,357-86.46a5,5,0,0,0-.73,5.78A7.06,7.06,0,0,0,350.75-86a7,7,0,0,0-7,3.12,8.38,8.38,0,0,0-.43,7.45,13.73,13.73,0,0,0,4.88,5.88A41.31,41.31,0,0,0,355-65.87Z" transform="translate(-228.49 143.33)"/><path class="cls-20" d="M366.35-61a6.09,6.09,0,0,0,5.58-3.16,6.1,6.1,0,0,0-.5-6.39,6.11,6.11,0,0,0-6-2.25,8.41,8.41,0,0,0-.75-9.44A4.36,4.36,0,0,0,361-84.09a4,4,0,0,0-3,3.35,11.32,11.32,0,0,0,.48,4.75A11.4,11.4,0,0,0,352-81.35a4.1,4.1,0,0,0-3.83.28,3.29,3.29,0,0,0-1,3,8.4,8.4,0,0,0,1.19,3,44.62,44.62,0,0,0,7.41,9.67,18.66,18.66,0,0,0,5.47,4,8.63,8.63,0,0,0,6.63.32Z" transform="translate(-228.49 143.33)"/><path class="cls-19" d="M316.57-89.16A5.27,5.27,0,0,0,319-91.41c.65-1.49.18-3.48-.52-5.17a19.66,19.66,0,0,0-3.38-5.42,10.65,10.65,0,0,0-3.69-2.83,4.54,4.54,0,0,0-4.07.07,3.57,3.57,0,0,0-1.52,3.85,10.14,10.14,0,0,0-7.52-5.72,7,7,0,0,0-5.25,1.37,6.34,6.34,0,0,0-2.32,5.38,5.16,5.16,0,0,0,3.68,4.64,6.3,6.3,0,0,0-7.49.67,9.47,9.47,0,0,0-2.73,8.64,9.34,9.34,0,0,0,5.41,6.71,11.92,11.92,0,0,0,8.18.15,35.82,35.82,0,0,0,7.41-3.55Z" transform="translate(-228.49 143.33)"/><path class="cls-20" d="M315.56-89.24a7.32,7.32,0,0,0,.2-6.94,6.93,6.93,0,0,0-5.23-4,4.88,4.88,0,0,0-4.87,3.1c-1.23-3.31-4.29-5.7-7.35-5.81a3.74,3.74,0,0,0-3.46,1.57,4.46,4.46,0,0,0,.57,4.65,11.78,11.78,0,0,0,3.83,3,9.92,9.92,0,0,0-8.1,1.48,5,5,0,0,0-2.39,3.6,4.12,4.12,0,0,0,1.55,3.34,7.77,7.77,0,0,0,3.2,1.36,38,38,0,0,0,12.58.89,14.79,14.79,0,0,0,6.49-1.9,8.08,8.08,0,0,0,3.74-5.67Z" transform="translate(-228.49 143.33)"/><path class="cls-15" d="M326-78.82c-1.61-8-4.26-18.21-6-26.6l9.4,27.53Z" transform="translate(-228.49 143.33)"/><path class="cls-16" d="M322.79-97.51a3.91,3.91,0,0,0-.89.38c-.66-2.86-1.28-5.67-1.81-8.29C321-102.77,321.9-100.13,322.79-97.51Z" transform="translate(-228.49 143.33)"/><path class="cls-15" d="M326.36-87.55l6.15-3.7a22.32,22.32,0,0,0-6.41,7.68,4.49,4.49,0,0,1-1-1.37,1.92,1.92,0,0,1,.16-1.75A3.13,3.13,0,0,1,326.36-87.55Z" transform="translate(-228.49 143.33)"/><path class="cls-15" d="M322.75-88.22l-6-1.46L325-85.53a2.21,2.21,0,0,0-.8-2.15A3.88,3.88,0,0,0,322.75-88.22Z" transform="translate(-228.49 143.33)"/><path class="cls-15" d="M329-99.5A33.7,33.7,0,0,1,326.3-97,9.87,9.87,0,0,0,324-94.18a3.74,3.74,0,0,0-.19,3.31A40.4,40.4,0,0,1,329-99.5Z" transform="translate(-228.49 143.33)"/><path class="cls-16" d="M327.91-88.48l4.6-2.77a23.35,23.35,0,0,0-3.81,3.69A3.85,3.85,0,0,0,327.91-88.48Z" transform="translate(-228.49 143.33)"/><path class="cls-16" d="M321.71-88.48a5.18,5.18,0,0,0-.75.93l-4.21-2.13Z" transform="translate(-228.49 143.33)"/><path class="cls-16" d="M324.8-95.41A14,14,0,0,1,326.3-97,35.48,35.48,0,0,0,329-99.5a42.11,42.11,0,0,0-3.21,4.75A3.17,3.17,0,0,0,324.8-95.41Z" transform="translate(-228.49 143.33)"/><path class="cls-15" d="M323.7-93.62a12,12,0,0,0-6.9-1.21A38.29,38.29,0,0,1,324-92.41C323.46-92.65,323.7-93.62,323.7-93.62Z" transform="translate(-228.49 143.33)"/><path class="cls-15" d="M321.81-104.1a17.23,17.23,0,0,0,2-3.75,1.41,1.41,0,0,0-.39-1.65c-.71-.47-1.38.33-1.78,1.26a13,13,0,0,0-.64,1.81,11.91,11.91,0,0,0,.09-3.12c-.2-1.46-1-2-1.8-1.77s-1.13,1.22-1.2,2c-.14,1.59.8,2.42,1.21,3.4a6.68,6.68,0,0,0-1-1.18c-.59-.5-1.27-.7-1.88,0s-.17,1.84.47,2.43a10.77,10.77,0,0,0,2.37,1.26,14.75,14.75,0,0,0-2.5-.73,2,2,0,0,0-1.95,1c-.49,1,.48,1.7,1.48,1.75a13.8,13.8,0,0,0,2.81-.31,9.5,9.5,0,0,0-2.49,1,1.63,1.63,0,0,0-.72,2.17c.34.68,2,.8,3.68-.64.66-.55,2.06-1.48,2.06-1.48s1.63-.3,2.45-.37a3.66,3.66,0,0,0,2.38-.94c.65-.66.84-1.89.17-2.31a1.7,1.7,0,0,0-1.38,0,9.79,9.79,0,0,0-2.6,1.46,12.36,12.36,0,0,0,2.36-2,4.12,4.12,0,0,0,.78-1.24,1.27,1.27,0,0,0-.16-1.28c-.4-.39-1.13-.2-1.61.24A34.29,34.29,0,0,0,321.81-104.1Z" transform="translate(-228.49 143.33)"/><g class="cls-17"><path class="cls-18" d="M316-100.25l.12-.16c.21-.11.93-.56,1.09-.65l.07,0a2.59,2.59,0,0,1,.58,1.1,11,11,0,0,1,.38,1.6c-.15.14-1.13.38-1.27.48s-.09-.08-.18-.1a7,7,0,0,0-.77-.24v0a9.74,9.74,0,0,1-.53-1.35A4.63,4.63,0,0,0,316-100.25Z" transform="translate(-228.49 143.33)"/><path class="cls-18" d="M318.53-98.53c-.1.1-.19-.41-.29-.31a6.3,6.3,0,0,1,.21-1.15,2.37,2.37,0,0,1,.77-1.31,1.22,1.22,0,0,1,1.84.83,1.34,1.34,0,0,1,.11.14Z" transform="translate(-228.49 143.33)"/></g><path class="cls-15" d="M316.31-96.23a10.87,10.87,0,0,0-2-3,1.22,1.22,0,0,0-1.54-.11c-.76.53-.49,1.39,0,2A8.68,8.68,0,0,0,314-96.14a8,8,0,0,0-2.46-1A1.92,1.92,0,0,0,309.12-96a1.51,1.51,0,0,0,1,1.71c1.19.59,2.36,0,3.38-.12a7.55,7.55,0,0,0-1.52.63c-.72.39-1.25,1-1,1.74s1.39.71,2.21.29a14.61,14.61,0,0,0,2.33-1.83,22.45,22.45,0,0,0-2,2.12,2,2,0,0,0-.25,2.13c.57.77,1.65.08,2.24-.84a18.88,18.88,0,0,0,1.3-2.73,10.27,10.27,0,0,0-.52,2.66c0,1,.47,1.49,1.39,1.36.76-.1,1.78-1.62,1.53-3.68-.09-.79-.09-2.4-.09-2.4s.66-1.64,1.06-2.44a3.92,3.92,0,0,0,.54-2.53,1.21,1.21,0,0,0-1.83-.83,2.41,2.41,0,0,0-.78,1.3,9.27,9.27,0,0,0-.23,2.88,9.81,9.81,0,0,0-.34-2.8,2.59,2.59,0,0,0-.58-1.1,1,1,0,0,0-1.15-.21,1.55,1.55,0,0,0-.68,1.58A22.49,22.49,0,0,0,316.31-96.23Z" transform="translate(-228.49 143.33)"/><path class="cls-16" d="M314.5-90.8a9.33,9.33,0,0,1-1.1-1.11c-.52-.64-.79-1.49,0-2a1.22,1.22,0,0,1,1.53.12,10.16,10.16,0,0,1,1.87,2.73,19.81,19.81,0,0,1-1.12-2.64,1.5,1.5,0,0,1,.68-1.54,1,1,0,0,1,1.13.22,2.7,2.7,0,0,1,.59,1.08,8.43,8.43,0,0,1,.31,1.84c0-.56.28-2.82.71-2.77a23,23,0,0,1,2.27.39,12.25,12.25,0,0,1-.67,2.51c-.4.79-1.06,2.39-1.06,2.39v.09s-8-.65-8-.72c.18-.56.09-1.83,1.88-1.23A2.8,2.8,0,0,1,314.5-90.8Z" transform="translate(-228.49 143.33)"/><path class="cls-15" d="M316.76-90.14a10.76,10.76,0,0,0-2-2.91,1.22,1.22,0,0,0-1.53-.12c-.75.51-.48,1.35,0,2a9,9,0,0,0,1.11,1.11,8.1,8.1,0,0,0-2.44-1,1.88,1.88,0,0,0-2.35,1.1c-.26.74.35,1.38,1,1.69,1.18.59,2.34,0,3.35-.08a7.85,7.85,0,0,0-1.51.6c-.72.38-1.23.94-1,1.69s1.38.72,2.19.32a14.66,14.66,0,0,0,2.31-1.78A21.41,21.41,0,0,0,314-85.47a1.9,1.9,0,0,0-.26,2.09c.57.77,1.64.09,2.23-.8a17.42,17.42,0,0,0,1.29-2.67,9.84,9.84,0,0,0-.52,2.61c0,.93.47,1.46,1.38,1.35s1.77-1.57,1.52-3.6c-.09-.77-.08-2.35-.08-2.35s.65-1.6,1.05-2.39a3.79,3.79,0,0,0,.54-2.47,1.22,1.22,0,0,0-1.82-.84,2.29,2.29,0,0,0-.77,1.27,9,9,0,0,0-.23,2.83,9.53,9.53,0,0,0-.34-2.76,2.57,2.57,0,0,0-.58-1.08,1,1,0,0,0-1.13-.21,1.48,1.48,0,0,0-.68,1.53A22.34,22.34,0,0,0,316.76-90.14Z" transform="translate(-228.49 143.33)"/><g class="cls-17"><path class="cls-18" d="M327.17-103.15a4.2,4.2,0,0,1-.81,1.22,9,9,0,0,1-.28-.89,4.14,4.14,0,0,1,.06-1.53A1.2,1.2,0,0,1,327.17-103.15Z" transform="translate(-228.49 143.33)"/><path class="cls-18" d="M323.64-101.75a1.27,1.27,0,0,1,1.93-.41,3.29,3.29,0,0,1,.58.55c-.1.18-.54.29-.65.5-.76,0-1.32.2-2,.21A1.71,1.71,0,0,1,323.64-101.75Z" transform="translate(-228.49 143.33)"/></g><path class="cls-15" d="M330.17-98.78a11,11,0,0,0,3.45,0,1.68,1.68,0,0,0,1.24-1.16c.22-.87-.57-1.1-1.41-1a10.89,10.89,0,0,0-1.6.31,11.43,11.43,0,0,0,2.54-1.45c1.14-.91,1.39-1.89,1-2.55s-1.24-.45-1.92-.1c-1.33.67-1.79,2-2.49,2.82a10,10,0,0,0,.72-1.56c.27-.8.27-1.54-.42-1.77s-1.55.77-1.87,1.66a14.07,14.07,0,0,0-.46,2.82,19.6,19.6,0,0,0,0-2.68c-.12-.71-.57-1.36-1.28-1.32-1,.06-1.27,1.31-1.07,2.26a12.87,12.87,0,0,0,.93,2.44,6.65,6.65,0,0,0-1.44-1.78,1.28,1.28,0,0,0-1.94.41c-.46.66-.15,2.22,1.42,3.07a19.16,19.16,0,0,1,1.69,1.13s.63,1.32.88,2a2.52,2.52,0,0,0,1.29,1.64,1.5,1.5,0,0,0,1.87-1,1.63,1.63,0,0,0-.3-1.23,6,6,0,0,0-1.76-1.61,6.93,6.93,0,0,0,2.13,1.14,2.52,2.52,0,0,0,1.16.1,1.43,1.43,0,0,0,1-.77,1.05,1.05,0,0,0-.55-1.32A19.85,19.85,0,0,0,330.17-98.78Z" transform="translate(-228.49 143.33)"/><g class="cls-17"><path class="cls-18" d="M328.11-95.42c.56-.67,1.09-.59,1.74-.16a5.05,5.05,0,0,1,1.27,1.43c-.25.24-.52.53-.75.79-.26.08-.4.34-.67.39-.26-.15-.61-.7-.91-.76C328.54-94.44,328.11-95.42,328.11-95.42Z" transform="translate(-228.49 143.33)"/><path class="cls-18" d="M331.46-98.44c.71,0,1.15.61,1.27,1.32a4.68,4.68,0,0,1,0,1.24,12.11,12.11,0,0,1-.94,1c-.25.2-.49.55-.72.77a10.22,10.22,0,0,1-.75-2.08C330.18-97.17,330.49-98.39,331.46-98.44Z" transform="translate(-228.49 143.33)"/><path class="cls-18" d="M333.2-97.26a2.74,2.74,0,0,1,.28-.57,1.08,1.08,0,0,1-.52,1.49A2.18,2.18,0,0,1,333.2-97.26Z" transform="translate(-228.49 143.33)"/></g><path class="cls-15" d="M334.36-91.47a11.3,11.3,0,0,0,3.47,0,1.67,1.67,0,0,0,1.25-1.13c.22-.85-.57-1.08-1.41-1a10.87,10.87,0,0,0-1.6.29,11.72,11.72,0,0,0,2.55-1.4c1.15-.88,1.4-1.84,1.06-2.5s-1.24-.45-1.93-.12c-1.33.64-1.8,1.9-2.51,2.74a9.64,9.64,0,0,0,.73-1.52c.28-.79.28-1.51-.41-1.75s-1.55.74-1.88,1.61a13.63,13.63,0,0,0-.49,2.78,17.8,17.8,0,0,0,0-2.64c-.12-.71-.56-1.35-1.28-1.32-1,0-1.28,1.27-1.08,2.21a12.33,12.33,0,0,0,.91,2.41,6.56,6.56,0,0,0-1.43-1.76,1.29,1.29,0,0,0-1.95.38c-.47.64-.16,2.18,1.41,3A20.17,20.17,0,0,1,331.47-90s.62,1.3.86,2a2.55,2.55,0,0,0,1.29,1.64,1.51,1.51,0,0,0,1.89-.93,1.62,1.62,0,0,0-.3-1.21,6.14,6.14,0,0,0-1.76-1.61A7.09,7.09,0,0,0,335.58-89a2.52,2.52,0,0,0,1.16.11,1.38,1.38,0,0,0,1-.75,1,1,0,0,0-.54-1.3A20.23,20.23,0,0,0,334.36-91.47Z" transform="translate(-228.49 143.33)"/><path class="cls-21" d="M358.88-88.44l-1-4.18-37.4,13.11,1,2.91s10.39,9.51,19.57,7.89C351-70.46,357.66-78.07,358.88-88.44Z" transform="translate(-228.49 143.33)"/><path class="cls-22" d="M358.88-88.44,321.47-76.6s10.39,9.51,19.57,7.89C351-70.46,357.66-78.07,358.88-88.44Z" transform="translate(-228.49 143.33)"/><path class="cls-23" d="M348-80.48c-1.14-.17-5-2.31-5.33-2.26s3,4.33,3,4.33-2.51,3.18-8.81,2.28c0,0,1.16-3-.76-4s-1.67,3.69-1.53,4.28-4.23.17-6.9-2.75l-6.19,2s10.39,9.51,19.57,7.89c9.93-1.75,16.62-9.36,17.84-19.73l-8.57,2.71C349.76-83.65,348.77-80.36,348-80.48Z" transform="translate(-228.49 143.33)"/><path class="cls-24" d="M343.41-74c-5.3,1.63-11.38,2.15-17.88-3.9l-4.06,1.29s10.39,9.51,19.57,7.89c9.93-1.75,16.62-9.36,17.84-19.73l-4.16,1.32C353.31-78.27,348.26-75.49,343.41-74Z" transform="translate(-228.49 143.33)"/><path class="cls-25" d="M346.41-83.21a.67.67,0,0,1,.79-.73,1.06,1.06,0,0,1,.85,1,.66.66,0,0,1-.78.72A1.07,1.07,0,0,1,346.41-83.21Z" transform="translate(-228.49 143.33)"/><path class="cls-25" d="M341.8-79.34c-.05-.5.27-.86.73-.79a1.17,1.17,0,0,1,.91,1,.63.63,0,0,1-.72.77A1.2,1.2,0,0,1,341.8-79.34Z" transform="translate(-228.49 143.33)"/><path class="cls-25" d="M338.7-79.9c-.09-.57.23-1,.72-.9a1.37,1.37,0,0,1,1,1.16c.07.55-.26.94-.73.87A1.35,1.35,0,0,1,338.7-79.9Z" transform="translate(-228.49 143.33)"/><path class="cls-25" d="M331.7-77.79a.46.46,0,0,1,.52-.63,1.16,1.16,0,0,1,.88.83.46.46,0,0,1-.52.62A1.16,1.16,0,0,1,331.7-77.79Z" transform="translate(-228.49 143.33)"/><path class="cls-21" d="M286-88.8l-2.6,3.43,33.73,20.81,1.62-2.62s.86-14.07-6.19-20.18C305-94,294.85-94.38,286-88.8Z" transform="translate(-228.49 143.33)"/><path class="cls-22" d="M286-88.8l32.75,21.62s.86-14.07-6.19-20.18C305-94,294.85-94.38,286-88.8Z" transform="translate(-228.49 143.33)"/><path class="cls-23" d="M299.08-85.33c.59,1,1.33,5.31,1.6,5.57s1.46-5.08,1.46-5.08,4.05-.06,7.31,5.41c0,0-3.06,1-2.59,3.08s3.91-1,4.29-1.5,2.79,3.17,2.2,7.09l5.42,3.58s.86-14.07-6.19-20.18C305-94,294.85-94.38,286-88.8l7.51,5C295.49-84.73,298.66-86,299.08-85.33Z" transform="translate(-228.49 143.33)"/><path class="cls-24" d="M307-85.87c4.6,3.09,8.83,7.48,8.23,16.34l3.55,2.35s.86-14.07-6.19-20.18C305-94,294.85-94.38,286-88.8l3.64,2.4C297.43-90.87,302.78-88.7,307-85.87Z" transform="translate(-228.49 143.33)"/><path class="cls-25" d="M297.94-82.41a.67.67,0,0,1-1.07-.15,1.06,1.06,0,0,1,.23-1.28.67.67,0,0,1,1,.16A1.07,1.07,0,0,1,297.94-82.41Z" transform="translate(-228.49 143.33)"/><path class="cls-25" d="M303.84-81.26a.65.65,0,0,1-1.07-.06,1.2,1.2,0,0,1,.23-1.37.64.64,0,0,1,1.05.08A1.18,1.18,0,0,1,303.84-81.26Z" transform="translate(-228.49 143.33)"/><path class="cls-25" d="M305.36-78.49c-.38.42-.9.43-1.15,0a1.37,1.37,0,0,1,.25-1.52c.39-.41.89-.4,1.14,0A1.38,1.38,0,0,1,305.36-78.49Z" transform="translate(-228.49 143.33)"/><path class="cls-25" d="M311.41-74.38a.46.46,0,0,1-.82,0,1.17,1.17,0,0,1,.09-1.21.45.45,0,0,1,.81,0A1.18,1.18,0,0,1,311.41-74.38Z" transform="translate(-228.49 143.33)"/><path class="cls-26" d="M317.1-65.28c2.32-7.87-7.32-16.9-14.77-17.51-5.4-.45-11.47-1.32-15.67-5.08a5.18,5.18,0,0,1-.71-.84l-2.53,3.34L317-64.66A4.52,4.52,0,0,1,317.1-65.28Z" transform="translate(-228.49 143.33)"/><path class="cls-21" d="M336.16-71.95l.24-4.3-39.61,1.6.13,3.08s7.15,12.14,16.41,13.27C323.33-57.07,332-62.39,336.16-71.95Z" transform="translate(-228.49 143.33)"/><path class="cls-22" d="M336.16-71.95l-39.24.38s7.15,12.14,16.41,13.27C323.33-57.07,332-62.39,336.16-71.95Z" transform="translate(-228.49 143.33)"/><path class="cls-23" d="M323.39-67.53c-1.05-.5-4.07-3.66-4.44-3.72s1.63,5,1.63,5-3.33,2.31-9.09-.39c0,0,2-2.53.43-4s-2.67,3-2.72,3.64-4.09-1.07-5.79-4.64l-6.49.06s7.15,12.14,16.41,13.27c10,1.23,18.63-4.09,22.83-13.65l-9,.09C326-70,324.13-67.18,323.39-67.53Z" transform="translate(-228.49 143.33)"/><path class="cls-24" d="M317.14-62.66c-5.55,0-11.51-1.27-16-9l-4.26,0s7.15,12.14,16.41,13.27c10,1.23,18.63-4.09,22.83-13.65l-4.37,0C327.85-63.86,322.21-62.67,317.14-62.66Z" transform="translate(-228.49 143.33)"/><path class="cls-25" d="M322.7-70.59a.67.67,0,0,1,1-.47,1.06,1.06,0,0,1,.53,1.18.67.67,0,0,1-1,.46A1.07,1.07,0,0,1,322.7-70.59Z" transform="translate(-228.49 143.33)"/><path class="cls-25" d="M317.16-68.24a.65.65,0,0,1,.93-.55,1.18,1.18,0,0,1,.57,1.26.64.64,0,0,1-.92.52A1.2,1.2,0,0,1,317.16-68.24Z" transform="translate(-228.49 143.33)"/><path class="cls-25" d="M314.36-69.69c.08-.57.51-.86.95-.65a1.36,1.36,0,0,1,.64,1.41c-.09.55-.51.83-.95.62A1.37,1.37,0,0,1,314.36-69.69Z" transform="translate(-228.49 143.33)"/><path class="cls-25" d="M307.05-69.72c0-.41.32-.61.68-.44a1.14,1.14,0,0,1,.6,1,.45.45,0,0,1-.68.43A1.16,1.16,0,0,1,307.05-69.72Z" transform="translate(-228.49 143.33)"/><path class="cls-21" d="M268.75-63.56l-1.11,4.16,39.1,6.49.51-3.05s-4.54-13.33-13.37-16.33C284.33-75.52,274.8-72.06,268.75-63.56Z" transform="translate(-228.49 143.33)"/><path class="cls-22" d="M268.75-63.56l38.5,7.6s-4.54-13.33-13.37-16.33C284.33-75.52,274.8-72.06,268.75-63.56Z" transform="translate(-228.49 143.33)"/><path class="cls-23" d="M282.15-65.29c.92.7,3.24,4.41,3.59,4.55s-.58-5.25-.58-5.25,3.74-1.59,8.82,2.23c0,0-2.46,2.07-1.23,3.84s3.23-2.44,3.4-3,3.79,1.88,4.73,5.73L307.25-56s-4.54-13.33-13.37-16.33c-9.55-3.23-19.08.23-25.13,8.73l8.82,1.75C279.05-63.37,281.5-65.78,282.15-65.29Z" transform="translate(-228.49 143.33)"/><path class="cls-24" d="M289.26-68.79c5.43,1.12,11,3.58,13.81,12l4.18.82s-4.54-13.33-13.37-16.33c-9.55-3.23-19.08.23-25.13,8.73l4.28.85C278.52-69.79,284.29-69.81,289.26-68.79Z" transform="translate(-228.49 143.33)"/><path class="cls-25" d="M282.2-62.15a.66.66,0,0,1-1,.26,1.06,1.06,0,0,1-.28-1.27.67.67,0,0,1,1-.25A1.07,1.07,0,0,1,282.2-62.15Z" transform="translate(-228.49 143.33)"/><path class="cls-25" d="M288.1-63.33a.65.65,0,0,1-1,.35,1.18,1.18,0,0,1-.3-1.35.64.64,0,0,1,1-.32A1.19,1.19,0,0,1,288.1-63.33Z" transform="translate(-228.49 143.33)"/><path class="cls-25" d="M290.55-61.34c-.19.54-.67.74-1.07.44a1.39,1.39,0,0,1-.34-1.51c.2-.52.68-.7,1.06-.41A1.36,1.36,0,0,1,290.55-61.34Z" transform="translate(-228.49 143.33)"/><path class="cls-25" d="M297.71-59.83c-.11.4-.45.54-.76.3a1.16,1.16,0,0,1-.38-1.15.46.46,0,0,1,.76-.29A1.17,1.17,0,0,1,297.71-59.83Z" transform="translate(-228.49 143.33)"/><path class="cls-26" d="M285.06-64.66c-5.24-1-10.32,1.15-15.46,0-.28.36-.58.69-.85,1.07l-1.11,4.16,29.57,4.9C294-58.84,291.15-63.47,285.06-64.66Z" transform="translate(-228.49 143.33)"/><path class="cls-19" d="M323.21-52.71c7.25-.15,14.09-.07,21.13-.83L339.26-63C327.85-63.47,319.35-73,319.35-73c-1,2.34-8,16.7-9.48,19.76C314.28-53.4,318.84-52.62,323.21-52.71Z" transform="translate(-228.49 143.33)"/><path class="cls-20" d="M313.15-53.24a118.4,118.4,0,0,1,7.35-13.4c12.19,6.42,19.4,8,17.94,5.15-5.39-1-13.76-4.66-18.74-9.17-.89,2-5.73,12.12-8.26,17.38Z" transform="translate(-228.49 143.33)"/><path class="cls-21" d="M343.16-54.64c7.26-1.84,14.28-.72,21.67-2.71a5,5,0,0,1,1-.17l-.33-1.82s-8.77-11-18.09-10.86c-10.08.17-17.88,6.63-20.72,16.68l0,.37C332.39-53.19,338.29-53.4,343.16-54.64Z" transform="translate(-228.49 143.33)"/><path class="cls-22" d="M326.73-53.52l38.81-5.82s-8.76-11-18.09-10.86C337.37-70,329.57-63.57,326.73-53.52Z" transform="translate(-228.49 143.33)"/><path class="cls-23" d="M338.77-59.66c1.1.35,4.53,3,4.91,3.07s-2.31-4.75-2.31-4.75,3-2.76,9.06-.87c0,0-1.62,2.78.12,4s2.23-3.39,2.19-4,4.2.49,6.38,3.8l6.42-1s-8.76-11-18.09-10.86c-10.08.17-17.88,6.63-20.72,16.68l8.9-1.33C336.49-56.82,338-59.91,338.77-59.66Z" transform="translate(-228.49 143.33)"/><path class="cls-24" d="M344.28-65.35c5.49-.78,11.58-.34,17.05,6.65l4.21-.64s-8.76-11-18.09-10.86c-10.08.17-17.88,6.63-20.72,16.68l4.32-.64C333.83-62.68,339.26-64.64,344.28-65.35Z" transform="translate(-228.49 143.33)"/><path class="cls-25" d="M339.87-56.73a.67.67,0,0,1-.89.6,1.05,1.05,0,0,1-.69-1.1.66.66,0,0,1,.89-.58A1.06,1.06,0,0,1,339.87-56.73Z" transform="translate(-228.49 143.33)"/><path class="cls-25" d="M345-59.82a.65.65,0,0,1-.84.67,1.19,1.19,0,0,1-.74-1.17.63.63,0,0,1,.83-.64A1.17,1.17,0,0,1,345-59.82Z" transform="translate(-228.49 143.33)"/><path class="cls-25" d="M348-58.78c0,.57-.38.92-.86.78a1.39,1.39,0,0,1-.83-1.31c0-.56.4-.89.86-.75A1.38,1.38,0,0,1,348-58.78Z" transform="translate(-228.49 143.33)"/><path class="cls-25" d="M355.25-59.77c0,.42-.23.66-.61.54a1.16,1.16,0,0,1-.74-1,.45.45,0,0,1,.61-.52A1.17,1.17,0,0,1,355.25-59.77Z" transform="translate(-228.49 143.33)"/><path class="cls-26" d="M343.16-54.64A58.44,58.44,0,0,1,354.46-56a21.42,21.42,0,0,0-6.08-2.65c-8.8-2.08-13.81,3.69-21.62,5.46h0C332.39-53.19,338.29-53.4,343.16-54.64Z" transform="translate(-228.49 143.33)"/><path class="cls-13" d="M370.62-59.36C360.19-56.14,342.27-54,321.89-54c-27.57,0-50.66-3.88-56.78-9.09h-5.47c3.61,6.93,30.1,12.32,62.25,12.32,21.87,0,41.1-2.5,52.31-6.27A11.82,11.82,0,0,1,370.62-59.36Z" transform="translate(-228.49 143.33)"/><path class="cls-15" d="M284.37-56.79c-8.44-6.06-18-13.23-26.45-19.28,6.07,5.65,14,12.33,20.31,18.1Z" transform="translate(-228.49 143.33)"/><path class="cls-16" d="M265-71a4.85,4.85,0,0,0-.63.74c-2.28-2-4.49-4-6.49-5.85Z" transform="translate(-228.49 143.33)"/><path class="cls-15" d="M274.35-64.49l3.51-6.07A18.73,18.73,0,0,0,276.52-61a5.66,5.66,0,0,1-1.74-.67,1.9,1.9,0,0,1-.91-1.56A2.87,2.87,0,0,1,274.35-64.49Z" transform="translate(-228.49 143.33)"/><path class="cls-15" d="M270.51-63.23l-6.66,1.83,10.4-.68a2.53,2.53,0,0,0-2.06-1.41A5.08,5.08,0,0,0,270.51-63.23Z" transform="translate(-228.49 143.33)"/><path class="cls-15" d="M269.73-75.54a29.68,29.68,0,0,1-1.07,3.31,8.07,8.07,0,0,0-.52,3.42A3.59,3.59,0,0,0,269.92-66,33,33,0,0,1,269.73-75.54Z" transform="translate(-228.49 143.33)"/><path class="cls-16" d="M275.24-66q1.31-2.27,2.62-4.53a18.15,18.15,0,0,0-1.32,4.9A4.84,4.84,0,0,0,275.24-66Z" transform="translate(-228.49 143.33)"/><path class="cls-16" d="M269.36-62.91a4.16,4.16,0,0,0-.16,1.16l-5.35.35Z" transform="translate(-228.49 143.33)"/><path class="cls-16" d="M268.18-70.21a10.8,10.8,0,0,1,.48-2,29.68,29.68,0,0,0,1.07-3.31,33.31,33.31,0,0,0-.22,5.38A3.93,3.93,0,0,0,268.18-70.21Z" transform="translate(-228.49 143.33)"/><path class="cls-15" d="M268.19-68.2a14.57,14.57,0,0,0-7.33,2.42,47.91,47.91,0,0,1,8.31-1.55C268.54-67.29,268.19-68.2,268.19-68.2Z" transform="translate(-228.49 143.33)"/><path class="cls-15" d="M260.31-75.83a13.44,13.44,0,0,0-.26-3.91,1.48,1.48,0,0,0-1.3-1.12c-.93,0-1.12.9-1,1.82a11.39,11.39,0,0,0,.42,1.74,10.57,10.57,0,0,0-1.67-2.52c-1-1.06-2-1.1-2.7-.56s-.41,1.49,0,2.17c.76,1.33,2.12,1.56,3.07,2.15a8.2,8.2,0,0,0-1.67-.45c-.85-.12-1.62.05-1.83.88s.89,1.57,1.84,1.74a14.39,14.39,0,0,0,3-.12,19.81,19.81,0,0,0-2.83.61,1.87,1.87,0,0,0-1.32,1.76c.11,1.09,1.44,1.16,2.43.72A15.77,15.77,0,0,0,259-72.54a9.4,9.4,0,0,0-1.81,2.06,1.45,1.45,0,0,0,.55,2.15c.73.4,2.39-.32,3.19-2.33.31-.77,1.11-2.21,1.11-2.21s1.38-1,2.12-1.48a3.49,3.49,0,0,0,1.69-1.88,1.5,1.5,0,0,0-1.17-1.92,1.93,1.93,0,0,0-1.3.64,8.64,8.64,0,0,0-1.62,2.39,9.93,9.93,0,0,0,1.09-2.7,3.19,3.19,0,0,0,0-1.34,1.27,1.27,0,0,0-.89-.94,1.3,1.3,0,0,0-1.36.93A25.06,25.06,0,0,0,260.31-75.83Z" transform="translate(-228.49 143.33)"/><g class="cls-17"><path class="cls-18" d="M257-69.89a1.11,1.11,0,0,1,0-.19c.14-.2.58-.93.68-1.07h.09a3.06,3.06,0,0,1,1.2.62,14,14,0,0,1,1.29,1.14c-.07.19-.87.87-.94,1s-.14,0-.24,0-.52.09-.89.19h0a13.23,13.23,0,0,1-1.3-.86A3.4,3.4,0,0,0,257-69.89Z" transform="translate(-228.49 143.33)"/><path class="cls-18" d="M260.38-69.71c-.05.12-.43-.24-.47-.12a5.77,5.77,0,0,1-.46-1,1.94,1.94,0,0,1,0-1.44,1.5,1.5,0,0,1,2.24-.22l.19.06Z" transform="translate(-228.49 143.33)"/></g><path class="cls-15" d="M259.56-66.71a13.37,13.37,0,0,0-3.63-1.47,1.45,1.45,0,0,0-1.57.68c-.44.82.32,1.4,1.21,1.67a11.45,11.45,0,0,0,1.74.39,10.5,10.5,0,0,0-3,.4c-1.4.44-1.88,1.35-1.69,2.18s1.16,1,2,1c1.54-.1,2.33-1.23,3.28-1.82a8.06,8.06,0,0,0-1.14,1.3c-.48.71-.66,1.48,0,2s1.8-.11,2.36-.89a13.51,13.51,0,0,0,1.2-2.75,20.58,20.58,0,0,0-.68,2.81,1.87,1.87,0,0,0,1,2c1,.37,1.67-.79,1.71-1.88a15.67,15.67,0,0,0-.35-3A9.11,9.11,0,0,0,263-61.61a1.44,1.44,0,0,0,2.17.45c.68-.48.76-2.29-.7-3.89-.56-.62-1.5-2-1.5-2s-.32-1.69-.41-2.55a3.46,3.46,0,0,0-.95-2.34,1.5,1.5,0,0,0-2.24.22,1.89,1.89,0,0,0,0,1.44,8.61,8.61,0,0,0,1.45,2.5,9.92,9.92,0,0,0-2-2.16,3,3,0,0,0-1.2-.61,1.25,1.25,0,0,0-1.23.39,1.31,1.31,0,0,0,.25,1.63A26.08,26.08,0,0,0,259.56-66.71Z" transform="translate(-228.49 143.33)"/><path class="cls-16" d="M261-61.2a11.43,11.43,0,0,1-1.75-.39c-.89-.27-1.65-.85-1.21-1.67a1.47,1.47,0,0,1,1.57-.68A12.43,12.43,0,0,1,263-62.58a23.42,23.42,0,0,1-2.65-1.66,1.31,1.31,0,0,1-.24-1.64,1.24,1.24,0,0,1,1.23-.39,3.06,3.06,0,0,1,1.2.62A7.82,7.82,0,0,1,264-64.27c-.32-.47-1.38-2.5-.94-2.67a24.78,24.78,0,0,1,2.4-.8,10,10,0,0,1,.85,2.42c.08.86.4,2.55.4,2.55l.06.07s-8.21,3.57-8.26,3.52c-.15-.58-1-1.63,1.13-2A3.78,3.78,0,0,1,261-61.2Z" transform="translate(-228.49 143.33)"/><path class="cls-15" d="M263.58-61.8A13.37,13.37,0,0,0,260-63.27a1.48,1.48,0,0,0-1.57.68c-.44.82.32,1.4,1.21,1.68a12.15,12.15,0,0,0,1.74.38,10.54,10.54,0,0,0-3,.4c-1.4.44-1.88,1.35-1.69,2.19s1.17,1,2,1c1.53-.11,2.32-1.24,3.27-1.83a8.07,8.07,0,0,0-1.13,1.31c-.48.71-.67,1.47,0,2s1.8-.11,2.36-.89a13.73,13.73,0,0,0,1.21-2.75,19.15,19.15,0,0,0-.68,2.81,1.86,1.86,0,0,0,1,2c1,.37,1.67-.79,1.71-1.88a15.52,15.52,0,0,0-.35-3,9.38,9.38,0,0,0,1.07,2.52,1.44,1.44,0,0,0,2.17.44c.67-.48.75-2.28-.71-3.89-.55-.61-1.5-2-1.5-2s-.32-1.69-.41-2.55a3.46,3.46,0,0,0-.95-2.34,1.5,1.5,0,0,0-2.24.22,2,2,0,0,0,0,1.44,8.61,8.61,0,0,0,1.45,2.5,10,10,0,0,0-2-2.15,3.06,3.06,0,0,0-1.2-.62,1.25,1.25,0,0,0-1.23.39,1.32,1.32,0,0,0,.25,1.64A25.72,25.72,0,0,0,263.58-61.8Z" transform="translate(-228.49 143.33)"/><g class="cls-17"><path class="cls-18" d="M265.9-77.59a3.14,3.14,0,0,1-.06,1.35,7,7,0,0,1-.77-.58,3.86,3.86,0,0,1-.83-1.24A1.52,1.52,0,0,1,265.9-77.59Z" transform="translate(-228.49 143.33)"/><path class="cls-18" d="M263.39-74.8c.08-.91.67-1.29,1.58-1.25a4.21,4.21,0,0,1,.86.17c0,.19-.34.48-.32.7-.71.37-1.13.8-1.77,1.13A1.37,1.37,0,0,1,263.39-74.8Z" transform="translate(-228.49 143.33)"/></g><path class="cls-15" d="M271.22-75.51a12.37,12.37,0,0,0,3.16-1.66,1.35,1.35,0,0,0,.45-1.49c-.31-.79-1.16-.6-1.88-.15a11.13,11.13,0,0,0-1.29,1,9.54,9.54,0,0,0,1.48-2.31c.51-1.23.17-2.11-.53-2.46s-1.39.21-1.81.79c-.83,1.13-.51,2.34-.66,3.35A7,7,0,0,0,269.9-80c-.21-.75-.63-1.32-1.4-1.19s-1,1.31-.77,2.17a12.54,12.54,0,0,0,1.21,2.45,17.65,17.65,0,0,0-1.56-2.13,1.7,1.7,0,0,0-1.95-.45c-.86.5-.43,1.63.31,2.29A14,14,0,0,0,268-75.36a8.24,8.24,0,0,0-2.37-.74c-.91,0-1.51.34-1.59,1.25-.06.75,1.15,1.86,3.12,1.79.75,0,2.24.11,2.24.11s1.37.77,2,1.21a3.13,3.13,0,0,0,2.18.71,1.36,1.36,0,0,0,1.17-1.68,1.77,1.77,0,0,0-1-.84,7.75,7.75,0,0,0-2.58-.46,9,9,0,0,0,2.64-.09,3,3,0,0,0,1.13-.47,1.14,1.14,0,0,0,.45-1.09,1.19,1.19,0,0,0-1.28-.79A23.74,23.74,0,0,0,271.22-75.51Z" transform="translate(-228.49 143.33)"/><g class="cls-17"><path class="cls-18" d="M271.28-71.83c.12-.81.67-1,1.53-1a6.34,6.34,0,0,1,2,.54c-.09.31-.16.68-.22,1s-.17.47-.39.65c-.34,0-1-.28-1.3-.18C272.27-71.24,271.28-71.83,271.28-71.83Z" transform="translate(-228.49 143.33)"/><path class="cls-18" d="M272.61-75.85a1.69,1.69,0,0,1,1.95.45,4.74,4.74,0,0,1,.78,1,10.68,10.68,0,0,1-.3,1.21c-.11.29-.12.69-.21,1a11.71,11.71,0,0,1-1.92-1.31C272.18-74.23,271.75-75.36,272.61-75.85Z" transform="translate(-228.49 143.33)"/><path class="cls-18" d="M274.91-75.73a1.85,1.85,0,0,1-.08-.58.93.93,0,0,1,.4,1.42A1.77,1.77,0,0,1,274.91-75.73Z" transform="translate(-228.49 143.33)"/></g><path class="cls-15" d="M279.42-71.64a12.37,12.37,0,0,0,3.16-1.66,1.35,1.35,0,0,0,.45-1.49c-.31-.78-1.16-.6-1.88-.14a10.46,10.46,0,0,0-1.29,1,9.54,9.54,0,0,0,1.48-2.31c.51-1.23.17-2.1-.53-2.46s-1.39.22-1.81.8c-.83,1.12-.51,2.34-.66,3.35a7.31,7.31,0,0,0-.23-1.56c-.22-.75-.64-1.32-1.41-1.2s-1,1.32-.77,2.17a12.54,12.54,0,0,0,1.21,2.45,17.77,17.77,0,0,0-1.56-2.12,1.67,1.67,0,0,0-1.95-.45c-.86.49-.43,1.62.31,2.29a14,14,0,0,0,2.27,1.51,8.24,8.24,0,0,0-2.37-.74c-.91,0-1.51.33-1.59,1.24-.06.75,1.15,1.87,3.12,1.8.75,0,2.24.1,2.24.1s1.37.77,2,1.22a3.19,3.19,0,0,0,2.19.71c.77-.12,1.46-1,1.16-1.68a1.7,1.7,0,0,0-1-.84,7.6,7.6,0,0,0-2.58-.47,9,9,0,0,0,2.64-.09,2.7,2.7,0,0,0,1.13-.47,1.14,1.14,0,0,0,.45-1.08,1.18,1.18,0,0,0-1.28-.79A24,24,0,0,0,279.42-71.64Z" transform="translate(-228.49 143.33)"/><path class="cls-27" d="M355.13-37.26A9.65,9.65,0,0,1,351-38.34a2.36,2.36,0,0,0-3.3,2.08c0,2.76,4.05,10.69,6.93,12.85,1.91,1.44-.12-1.31,2.46-.41Z" transform="translate(-228.49 143.33)"/><path class="cls-20" d="M367.25-15.28c-5-1.87-10-4.32-13.58-8.34s-5.39-9.94-3.39-14.93a98.1,98.1,0,0,0,58.53-5.66,98.16,98.16,0,0,0,44.63-38.3l8.62,5.11c-11.15,10.54-12.24,27.78-19.85,41.11-7,12.26-19.63,20.84-33.35,24.2S380.49-10.36,367.25-15.28Z" transform="translate(-228.49 143.33)"/><path class="cls-19" d="M445.49-57.42c5-7,13.26-21.94,13.26-21.94l-5.31-3.15a98.16,98.16,0,0,1-44.63,38.3,98.1,98.1,0,0,1-58.53,5.66,11.94,11.94,0,0,0-.79,5.08C394.47-16.86,429.36-34.72,445.49-57.42Z" transform="translate(-228.49 143.33)"/><path class="cls-28" d="M412.63-25.3a72.74,72.74,0,0,1-18.45,4.65c-6.78.6-14.52,2.46-21.32,1.31-2.05-.35-14-1.67-17.57-2.65a36.41,36.41,0,0,0,12,6.71c13.24,4.92,27.9,6.54,41.61,3.19S435.21-24,442.21-36.29a65,65,0,0,0,4-8.62C438.4-36.93,421.54-28.55,412.63-25.3Z" transform="translate(-228.49 143.33)"/><path class="cls-27" d="M361.76-12.55a9.88,9.88,0,0,1-4.22-.26,2.36,2.36,0,0,0-2.83,2.68c.51,2.72,6.07,9.69,9.31,11.24,2.16,1-.37-1.26,2.33-.89Z" transform="translate(-228.49 143.33)"/><path class="cls-20" d="M378,6.62c-5.31-.85-10.69-2.27-15-5.52s-7.23-8.69-6.25-14A98.23,98.23,0,0,0,413-29.9a98.15,98.15,0,0,0,36.24-46.3l9.45,3.31c-8.86,12.53-6.55,29.65-11.39,44.21-4.46,13.39-15.17,24.28-28,30.26S391.9,8.85,378,6.62Z" transform="translate(-228.49 143.33)"/><path class="cls-19" d="M446.41-50c3.49-7.8,8.7-24.11,8.7-24.11l-5.83-2A98.15,98.15,0,0,1,413-29.9a98.23,98.23,0,0,1-56.29,17A11.83,11.83,0,0,0,357-7.74C404.34-.27,435-24.62,446.41-50Z" transform="translate(-228.49 143.33)"/><path class="cls-28" d="M420.49-12.1c-5.44,3.32-11.05,6.37-17.18,8.17C396.78-2,389.55,1.33,382.66,1.53c-2.08.06-14,1.11-17.75.85,3.91,2.36,8.51,3.51,13,4.24,13.94,2.23,28.63.94,41.42-5s23.5-16.87,28-30.26a64.82,64.82,0,0,0,2.23-9.24C443.48-28.57,428.58-17,420.49-12.1Z" transform="translate(-228.49 143.33)"/><path class="cls-27" d="M387.11,9.85a9.59,9.59,0,0,1-4,.8,2.26,2.26,0,0,0-2,3.18c1.14,2.39,8,7.49,11.39,8.13,2.26.43-.65-1.07,1.95-1.39Z" transform="translate(-228.49 143.33)"/><path class="cls-20" d="M406.83,23.64c-5.12.52-10.46.53-15.22-1.44s-8.83-6.28-9.22-11.41a94.11,94.11,0,0,0,48-29.6,94.14,94.14,0,0,0,22.23-51.82l9.57.75c-5.14,13.79,1.21,29.09.29,43.77C461.63-12.6,454.38.13,444,8.81S420.3,22.29,406.83,23.64Z" transform="translate(-228.49 143.33)"/><path class="cls-19" d="M456.37-45.68c1.32-8.09,2.14-24.49,2.14-24.49l-5.9-.46a94.14,94.14,0,0,1-22.23,51.82,94.11,94.11,0,0,1-48,29.6,11.45,11.45,0,0,0,1.47,4.7C429.59,10.78,452.07-19.32,456.37-45.68Z" transform="translate(-228.49 143.33)"/><path class="cls-29" d="M460.73-64.3c.41-2.22,4.57-17,5.27-18.87-2.31-2.72-3.94-4.49-10.89-4.43-.13,1.34-2.06,6.86-8.9,15.21C449.19-72.42,458.35-66.21,460.73-64.3Z" transform="translate(-228.49 143.33)"/><path class="cls-23" d="M354.65,25.17a19,19,0,0,0,9.74,6.16,32,32,0,0,0,11.62.82c6.15-.57,12.35-2.39,17.17-6.25s8.08-10,7.49-16.14c-.53-5.5-4.09-10.45-8.77-13.38A27.42,27.42,0,0,0,376-7.32,29.94,29.94,0,0,0,360.91-2.6,22.12,22.12,0,0,0,351.65,10,17.61,17.61,0,0,0,354.65,25.17Z" transform="translate(-228.49 143.33)"/><path class="cls-30" d="M361.86,5a11.62,11.62,0,0,0,5.34,1.74,30.16,30.16,0,0,0,6.57-.08,30,30,0,0,0,9.94-2.6c2.85-1.42,4.88-3.55,4.74-5.57-.14-1.81-2-3.34-4.57-4.17A23.68,23.68,0,0,0,375-6.41a28.74,28.74,0,0,0-8.71,2c-2.61,1.12-4.73,2.72-5.64,4.47A3.69,3.69,0,0,0,361.86,5Z" transform="translate(-228.49 143.33)"/><path class="cls-31" d="M356.48,8a1.72,1.72,0,0,0,1.45,1.1,5.13,5.13,0,0,0,1.9-.24,4.45,4.45,0,0,0,1.62-.67A1.48,1.48,0,0,0,362,6.62c-.29-.9-1.51-1-2.45-1a5.05,5.05,0,0,0-2.18.46A1.72,1.72,0,0,0,356.48,8Z" transform="translate(-228.49 143.33)"/><path class="cls-31" d="M364,8.6a4.43,4.43,0,0,0-2.33,1,1.52,1.52,0,0,0,0,2.24,2.18,2.18,0,0,0,1.63.09,4.3,4.3,0,0,0,1.46-.51,1.55,1.55,0,0,0,.78-1.27A1.6,1.6,0,0,0,364,8.75C363.19,8.7,364.72,8.44,364,8.6Z" transform="translate(-228.49 143.33)"/><path class="cls-30" d="M384.09,21.25a29.32,29.32,0,0,1-16.82-1.79,10.29,10.29,0,0,1-2.81-1.41l-.51-.42a17.35,17.35,0,0,1-2.57-2.17l-.13-.11a4.2,4.2,0,0,0-4-.67c-1.93.87-2.21,3.58-1.53,5.59,1.33,3.95,5.06,6.65,8.95,8.17A27.54,27.54,0,0,0,395,20.66a18.29,18.29,0,0,0,4.09-8.16A26.39,26.39,0,0,1,384.09,21.25Z" transform="translate(-228.49 143.33)"/><path class="cls-32" d="M361-17.29s1.41,2.69-2,2.73C359-14.56,357.8-17.2,361-17.29Z" transform="translate(-228.49 143.33)"/><path class="cls-10" d="M357.12,1.29c4.3,0,9-.74,12.61-3-3.86,1.29-9,1.72-11.29-3.93,3.68,2.16,6.73,3.55,12.88,2.15a31.93,31.93,0,0,0-4-5.88c-1.62-1.91-6-5.22-8.33-5.14,1.67-.44,1.92-1,2-2.73,4.37,1.17,12.13,5.91,13.93,12.79.48-.21.73-.11,1.18-.39a8.39,8.39,0,0,0,4.16-7.61,8.8,8.8,0,0,1-2.38,9.85c4.68-.45,6-.77,9.85-4-.14,3-1.06,5.17-3.85,6.38s-4.89.91-7.75-.43a10.64,10.64,0,0,0,6.1,6,7.18,7.18,0,0,1-8.67-5.71A6.64,6.64,0,0,1,371,4.94a6.72,6.72,0,0,1-5.8,1.37,12.21,12.21,0,0,0,5.67-6.55C366.41,3.94,362.31,3.79,357.12,1.29Z" transform="translate(-228.49 143.33)"/><path class="cls-33" d="M363.47-15.81c2.59,1,8.69,5.11,10.35,10.76.1.37.33,1.15,0,1.33a.73.73,0,0,1-.77-.12,1.15,1.15,0,0,1-.45-.64,12.26,12.26,0,0,0-2.07-4.44c-3.73-4.76-7.41-5.92-8.74-6.09-.22-.33.08-.81.48-.94A2,2,0,0,1,363.47-15.81Z" transform="translate(-228.49 143.33)"/><path class="cls-31" d="M387.94,5a15,15,0,0,0-5.58,1.53c-3.67,2-4.2,6-1.19,7.33,2.5,1.07,5.2,1.11,8.75-.4,2.79-1.18,5.19-3.85,4.41-6C394,6.51,392.67,4.49,387.94,5Z" transform="translate(-228.49 143.33)"/><path class="cls-23" d="M300.48,26.15c2.13-1.47,2.88-4.51,3.44-7.24l2.79-13.69c1.1-5.38,3.29-12.71,1.5-17.82-1.15-3.3-2.19-5.56-10.17-4.92-1.75.14-2.26-2-5.77-2.3-5.38-.48-8.33,2.66-10.56,2.48-3.77-.3-4.88-3.28-11-1.82-2.79.66-3.31,3.87-6.13,3.31-10.23-2-10.64,6.55-9.67,12.54a67.17,67.17,0,0,0,3.22,11.17q3,7.59,5.95,15.1c.91,2.32,2,4.84,4.12,5.78,2.44,1.09,5.15-.36,7.63-1.41A25.8,25.8,0,0,1,292.3,26C295,26.7,298.06,27.81,300.48,26.15Z" transform="translate(-228.49 143.33)"/><path class="cls-30" d="M307.35-14.69C306.3-9,304.42-4.37,300.7-2.6c-5,1.41-8.05-4.66-10.06-11.3a19.24,19.24,0,0,1-3.84,4.14,14.49,14.49,0,0,1-15.24-2.06c-.39,4.87-2,9.31-5.38,12.3-6.3,5.91-9.32-3-11.24-11.44a19.5,19.5,0,0,0-.08,7.65,67.17,67.17,0,0,0,3.22,11.17q3,7.59,5.95,15.1c.91,2.32,2,4.84,4.12,5.78,2.44,1.09,5.15-.36,7.63-1.41A25.8,25.8,0,0,1,292.3,26c2.73.7,5.76,1.81,8.18.15,2.13-1.47,2.88-4.51,3.44-7.24l2.79-13.69c1.1-5.38,3.29-12.71,1.5-17.82A13.8,13.8,0,0,0,307.35-14.69Z" transform="translate(-228.49 143.33)"/><path class="cls-34" d="M293.72-12.59c.15,2.51-5.05,5-11.66,5.56s-12.23-1-12.4-3.57,5.15-5.06,11.83-5.6S293.58-15.11,293.72-12.59Z" transform="translate(-228.49 143.33)"/><path class="cls-31" d="M299.78-15.84a2.16,2.16,0,0,0-2.37,2.24A4.79,4.79,0,0,0,299.05-11a11.14,11.14,0,0,1,1.47,1.61,2.4,2.4,0,0,0,3.16.59,3.43,3.43,0,0,0,1.68-2.29,4.22,4.22,0,0,0-2.81-4.33C300.9-16.09,301.29-15.76,299.78-15.84Z" transform="translate(-228.49 143.33)"/><path class="cls-31" d="M257.91-10.63a5.25,5.25,0,0,0-1.24,2.16,2.45,2.45,0,0,0,.6,2.36,1.91,1.91,0,0,0,2.21.06,6.33,6.33,0,0,0,1.72-1.74c1.34-1.75,3.42-2.92,4.75-4.67.22-.28.52-1.07-.09-1.42C263-14.69,260-13,257.91-10.63Z" transform="translate(-228.49 143.33)"/><path class="cls-30" d="M305.31,4.06c.62-2.63,1.12-5.83-.57-7.7-3.09-3.71-3.2,9.47-3.95,15.17-.48,3.58-4.33,12.12-2.22,11.83a2.16,2.16,0,0,0,2.12-1.14,8,8,0,0,0,.93-2.58Z" transform="translate(-228.49 143.33)"/><path class="cls-30" d="M268.09,25.09a1.68,1.68,0,0,0,1.26-.55,3,3,0,0,0,.3-3A10.4,10.4,0,0,0,267.86,19c-2.29-2.78-3.12-7.1-3.72-10.86A50,50,0,0,0,262.45,1c-.56-1.25-2.48-1.5-3.73-1.28-2.31.5,4.5,16.19,6.83,22.47C266,23.53,266.8,25.05,268.09,25.09Z" transform="translate(-228.49 143.33)"/><path class="cls-10" d="M275.77-31.55c-.61,2.18-1.07,3.77-1.69,5.95.31.05,2.64,0,3.83.78A5,5,0,0,1,280-21c.1,2.13-1,4-1.82,6s-1.18,4.45.13,6,3.36,1.16,4.76,0a12.51,12.51,0,0,0,3-4.72c-1,.21-1.84-1-1.88-2.19a12,12,0,0,1,.7-3.37,10.79,10.79,0,0,0-1.66-8.85A8.21,8.21,0,0,0,275.77-31.55Z" transform="translate(-228.49 143.33)"/><path class="cls-5" d="M284.19-15.93a12,12,0,0,1,.7-3.37,10.25,10.25,0,0,0,.3-2.82c-.26.92-2.15,7.21-2.7,7.92-1.21,1.93-4.14-1.22-4.32-.79-.79,1.92-1.18,4.45.13,6s3.36,1.16,4.76,0a12.51,12.51,0,0,0,3-4.72C285.07-13.53,284.23-14.77,284.19-15.93Z" transform="translate(-228.49 143.33)"/><path class="cls-32" d="M274.08-25.6l1.69-5.95c1.59.51,3.67,2.52,2.78,4.08A4.24,4.24,0,0,1,274.08-25.6Z" transform="translate(-228.49 143.33)"/><path class="cls-23" d="M290.11-15.14c-4.15.21-7.56,4.92-10.75,3.18-5.85-3.2-11-1.41-13.64,1.85-1.91,2.39-2.05,8-1.77,11.22a32.59,32.59,0,0,0,2.58,9.26,120,120,0,0,0,6.88,14.24c1.69,3,4.28,6.21,7.25,5.32,1.92-.58,3.37-2.83,5.34-3,1.8-.13,3.34,1.55,5.12,1.71a4.71,4.71,0,0,0,4-2.28,15.52,15.52,0,0,0,2-4.85c2.18-7.93,3.74-17.14,2.69-25.43-.39-3.1-1.6-7.1-3.82-8.79C294.24-14,292.21-15.25,290.11-15.14Z" transform="translate(-228.49 143.33)"/><path class="cls-30" d="M298.52-9C295.76,4,289.65,15.52,277,12.11c-6.38-1.73-9.65-8.67-13.09-15.65a32.19,32.19,0,0,0,0,4.65,32.59,32.59,0,0,0,2.58,9.26,120,120,0,0,0,6.88,14.24c1.69,3,4.28,6.21,7.25,5.32,1.92-.58,3.37-2.83,5.34-3,1.8-.13,3.34,1.55,5.12,1.71a4.71,4.71,0,0,0,4-2.28,15.52,15.52,0,0,0,2-4.85c2.18-7.93,3.74-17.14,2.69-25.43A20.8,20.8,0,0,0,298.52-9Z" transform="translate(-228.49 143.33)"/><path class="cls-31" d="M269.9-2.83a3.57,3.57,0,0,1-2.46-2.83,3.65,3.65,0,0,1,2.77-3.77,7.64,7.64,0,0,1,4.66.78,12.44,12.44,0,0,0,4.56,1.37,9.63,9.63,0,0,0,4.76-1.65,17.7,17.7,0,0,1,4.59-2.23,4.53,4.53,0,0,1,4.62,1.28c1.13,1.37,1.11,3.93-.3,4.92A29.45,29.45,0,0,1,269.9-2.83Z" transform="translate(-228.49 143.33)"/><path class="cls-30" d="M297.09,11.71c.46-3.26,1.05-9.08-1.16-10.92a5.74,5.74,0,0,0-4.18-1.53c-2.46.1-6.56,2.89-9.21,2.51-2.83-.41-5.4-1.65-8.05-1.54-1.8.07-3.8.24-5,1.85-.91,1.17-1.37,4.31-1.23,5.93.72,8.36,5.59,14.65,11.37,15.28a17.33,17.33,0,0,0,3.14,0l4.5-.26a10.54,10.54,0,0,0,4.86-1.09C295.1,20.16,296.51,15.8,297.09,11.71Z" transform="translate(-228.49 143.33)"/><path class="cls-3" d="M326.79-1.39S315-14.16,304.19-2.86s7.86,44,27.27,41,28.6-35.95,13-45.69C333.67-14.29,328.76-6.79,326.79-1.39Z" transform="translate(-228.49 143.33)"/><path class="cls-5" d="M320,18.26c-6.81-2.75-8.18-13.62-15.48-17.93-5.58,12,10,39.57,26.47,37.08,9.89-1.51,16.82-11.54,18.58-21.66C334.62,24.38,325.17,20.34,320,18.26Z" transform="translate(-228.49 143.33)"/><path class="cls-35" d="M319.48,4.62c2.88,2.35,7.31,5,11.59,3.7,4.71-1.46,5.9-5.6,5.25-9.92-.94-6.27-7.77.93-10.84.66-3.86-.34-7.49-4.63-11.18-.71C312.59.18,318.24,3.6,319.48,4.62Z" transform="translate(-228.49 143.33)"/><path class="cls-36" d="M327.11,4.63s-4.47-18.89,2-22.94,1.77,6.22-.21,7.94S328.68.75,327.11,4.63Z" transform="translate(-228.49 143.33)"/><path class="cls-4" d="M337.89,10.68a10.89,10.89,0,0,0,7.44-1.59,8.31,8.31,0,0,0,3.75-6.49,6.76,6.76,0,0,0-3.79-6.28,3.57,3.57,0,0,0-3.36,0c-1.33.88-1.48,2.72-1.84,4.27a11.38,11.38,0,0,1-2.41,4.82,10.07,10.07,0,0,0-1.63,2.12,2.19,2.19,0,0,0,.24,2.5A2.74,2.74,0,0,0,337.89,10.68Z" transform="translate(-228.49 143.33)"/><path class="cls-4" d="M333.92,11.83c.06-.77-.26-1.7-1-1.87a2.32,2.32,0,0,0-1.25.24,11.17,11.17,0,0,1-7.75,0c-2.14-.81-4-2.28-6.25-2.77a2.32,2.32,0,0,0-1.54.08,2.17,2.17,0,0,0-.94,2,5.84,5.84,0,0,0,1.91,4.15,10.46,10.46,0,0,0,4.07,2.26,17.26,17.26,0,0,0,5.66.83,9.47,9.47,0,0,0,4.54-1.07A4.92,4.92,0,0,0,333.92,11.83Z" transform="translate(-228.49 143.33)"/><path class="cls-4" d="M336.64,14.73a3.19,3.19,0,0,0,1.88.33,1.43,1.43,0,0,0,1.21-1.31,1.43,1.43,0,0,0-1.36-1.26,3.24,3.24,0,0,0-1.91.59c-.29.18-.6.42-.62.76S336.25,14.56,336.64,14.73Z" transform="translate(-228.49 143.33)"/></g></g></svg>