<svg width="85" height="85" viewBox="0 0 85 85" fill="none" xmlns="http://www.w3.org/2000/svg">
<g clip-path="url(#clip0_349_7058)">
<path d="M82.871 34.8585C84.0422 42.7691 86.1612 50.5801 83.8628 58.7299C80.0919 72.1058 68.2107 82.9733 54.3729 84.6512C39.0457 86.505 26.9648 80.9268 18.5971 68.2153C13.0932 59.8628 11.9423 50.6365 14.3592 40.985C14.8872 38.8686 14.3829 36.7091 14.6943 34.5562C16.055 25.1405 24.1722 17.7249 33.8735 17.303C35.2681 17.2432 35.5728 16.9209 35.197 15.5654C34.493 13.0105 34.0258 10.3924 33.4132 7.81426C33.095 6.48198 33.4165 5.80421 34.9262 5.52181C44.5294 3.7244 53.6282 5.09322 62.2836 9.49206C62.8827 9.79772 63.4785 10.1001 64.0776 10.4024C64.2096 10.2994 64.3416 10.1931 64.4737 10.0868C63.3498 9.04686 63.035 7.82755 63.8508 6.51188C64.6429 5.22944 65.919 5.01348 67.2527 5.51517C68.0008 5.79757 68.3901 5.64806 68.7658 5.02013C69.6459 3.5616 71.1556 2.6413 72.0492 1.11632C73.0241 -0.548195 75.1939 -0.295693 76.5445 1.48843C77.2553 2.42867 77.6344 3.29581 79.1644 2.37219C80.4778 1.57813 82.0857 2.56156 82.5291 4.13637C83.0233 5.87731 82.9184 7.64482 82.4275 9.3791C82.238 10.0502 82.001 10.4788 83.0402 10.8077C84.7327 11.3426 85.3386 12.748 84.8241 14.2132C84.357 15.5521 83.0131 16.2598 81.4019 15.8544C79.1407 15.2896 77.1775 15.6983 75.4545 17.2565C74.7707 17.8778 74.5169 18.323 75.529 18.9742C78.1388 20.6586 79.574 23.074 79.6823 26.1738C79.7026 26.7618 79.9768 27.2336 80.2205 27.7253C81.3477 30.0178 82.4986 32.3567 82.871 34.8585Z" fill="#F7F9FA"/>
<path d="M82.871 34.8585C84.0422 42.7691 86.1612 50.5801 83.8628 58.7299C80.0919 72.1058 68.2107 82.9733 54.3729 84.6512C39.0457 86.505 26.9648 80.9268 18.5971 68.2153C13.0932 59.8628 11.9423 50.6365 14.3592 40.985C14.8872 38.8686 14.3829 36.7091 14.6943 34.5562C16.055 25.1405 24.1722 17.7249 33.8735 17.303C35.2681 17.2432 35.5728 16.9209 35.197 15.5654C34.493 13.0105 34.0258 10.3924 33.4132 7.81426C33.095 6.48198 33.4165 5.80421 34.9262 5.52181C44.5294 3.7244 53.6282 5.09322 62.2836 9.49206C62.8827 9.79772 63.4785 10.1001 64.0776 10.4024C64.6057 10.5054 65.0999 10.6914 65.5501 10.9739C65.1506 10.7213 64.714 10.532 64.4737 10.0868C63.3498 9.04686 63.035 7.82755 63.8508 6.51188C64.6429 5.22944 65.919 5.01348 67.2527 5.51517C68.0008 5.79757 68.3901 5.64806 68.7658 5.02013C69.6459 3.5616 71.1556 2.6413 72.0492 1.11632C73.0241 -0.548195 75.1939 -0.295693 76.5445 1.48843C77.2553 2.42867 77.6344 3.29581 79.1644 2.37219C80.4778 1.57813 82.0857 2.56156 82.5291 4.13637C83.0233 5.87731 82.9184 7.64482 82.4275 9.3791C82.238 10.0502 82.001 10.4788 83.0402 10.8077C84.7327 11.3426 85.3386 12.748 84.8241 14.2132C84.357 15.5521 83.0131 16.2598 81.4019 15.8544C79.1407 15.2896 77.1775 15.6983 75.4545 17.2565C74.7707 17.8778 74.5169 18.323 75.529 18.9742C78.1388 20.6586 79.574 23.074 79.6823 26.1738C79.7026 26.7618 79.9768 27.2336 80.2205 27.7253C81.3477 30.0178 82.4986 32.3567 82.871 34.8585Z" fill="#33363A"/>
<path d="M66.7382 11.5353C66.7721 11.6284 66.6164 11.7945 66.5487 11.9241C65.7938 11.4988 65.0356 11.0768 64.2875 10.6449C64.1995 10.5951 64.1453 10.4855 64.0776 10.4024C64.2097 10.2994 64.3417 10.1931 64.4737 10.0868C65.2455 10.5486 66.3456 10.5154 66.7382 11.5353Z" fill="#D0D2D4"/>
<path d="M43.1889 76.4847C47.8636 76.4548 52.5416 76.4914 57.2162 76.3751C60.4861 76.2953 63.7357 75.9199 66.8465 74.8302C72.0458 73.0161 74.4457 69.83 74.7267 64.451C74.8621 61.8729 74.5405 59.3478 73.5047 56.9856C72.9259 55.6633 72.6991 54.4207 72.9733 53.012C73.498 50.3109 73.2441 47.6198 72.6957 44.9386C72.2523 42.7691 74.2325 39.7258 76.4158 39.1577C79.4352 38.3714 81.3184 39.4589 82.0653 42.4203C86.3033 59.1917 75.4172 77.3087 58.4281 81.7939C55.3139 82.6179 52.1828 83.2325 48.9332 83.0431C48.1716 82.1394 48.4322 81.053 48.4187 80.033C48.3781 77.3153 48.3984 77.3519 45.6701 77.2588C44.8036 77.2289 43.7204 77.6343 43.1855 76.4814L43.1889 76.4847Z" fill="#C7DADA"/>
<path d="M26.2231 58.8196C27.3063 54.5237 30.0583 51.3874 33.5618 48.8192C43.8622 41.2674 59.9747 42.7824 68.1832 52.0685C69.9265 54.042 71.3448 56.2181 71.9202 58.8262C68.9076 59.0688 66.0846 60.0156 63.275 61.0256C62.8993 61.1619 62.51 61.1552 62.1444 60.9526C61.7755 60.6336 61.7112 60.1851 61.6604 59.7498C60.8514 52.8227 54.0205 48.889 47.1592 49.7328C41.8211 50.3907 37.1058 54.1483 36.527 59.8728C36.4864 60.2582 36.4153 60.6402 36.114 60.9359C35.6943 61.1918 35.2306 61.1884 34.8074 61.0223C32.0385 59.9392 29.2019 59.1153 26.2231 58.8196Z" fill="#FEFEFE"/>
<path d="M43.1887 76.4847C44.5867 77.0628 46.0558 76.7472 47.4809 76.7372C48.6893 76.7306 49.038 77.1492 48.977 78.2722C48.8924 79.8603 48.9432 81.455 48.9364 83.0464C36.8047 82.8571 27.4046 77.6608 20.7091 67.8531C16.1868 61.2283 14.5993 53.8028 15.476 45.8789C15.5098 45.5699 15.415 45.2011 15.8754 44.9154C16.3696 45.8191 16.8333 46.7294 17.3512 47.6065C19.0234 50.4339 21.2541 52.7695 24.1178 54.4241C25.2213 55.0619 25.2484 55.567 24.7846 56.6202C23.4171 59.7332 23.0143 63.0025 23.5661 66.3614C24.3514 71.1423 27.5095 73.7437 31.9912 75.0827C35.6369 76.1724 39.4077 76.3651 43.1853 76.4847H43.1887Z" fill="#FEFEFE"/>
<path d="M72.5905 65.1288C72.4314 68.6406 70.5764 71.0028 67.3979 72.4281C64.6967 73.6408 61.7992 74.0693 58.8678 74.2122C51.0485 74.5976 43.2259 74.8468 35.437 73.767C33.3113 73.4713 31.2532 72.8866 29.4186 71.737C26.9746 70.2054 25.6308 68.0326 25.5732 65.1487C26.3349 63.8165 27.6008 63.9493 28.816 64.162C30.7929 64.5108 32.7121 65.079 34.5773 65.8298C35.762 66.3082 36.9874 66.6804 38.2398 66.9594C38.4463 67.0558 38.6494 67.1787 38.7408 67.3814C40.1557 70.4778 42.8434 71.6174 46.0489 71.8766C48.3981 72.0659 50.754 72.1025 53.1066 71.7902C55.7401 71.4413 57.7203 70.1755 59.0743 67.9429C59.3045 67.5641 59.5211 67.1721 59.9544 66.9694C63.0821 66.2551 65.9526 64.7235 69.1412 64.2052C70.4207 63.9959 71.751 63.7135 72.5905 65.1288Z" fill="#DFDDCD"/>
<path d="M73.5519 36.9084C73.4131 37.6759 73.034 37.9051 72.2521 37.5962C71.3686 37.244 70.4411 36.9915 69.5339 36.6991C68.972 36.5164 68.4914 36.6526 68.268 37.1875C68.0175 37.7822 68.2239 38.2905 68.8569 38.5364C69.5373 38.7989 70.2583 38.9617 70.9218 39.2574C71.4058 39.4766 72.6278 39.3836 71.8966 40.3903C71.3043 41.2109 71.724 43.1146 69.7472 42.6296C68.8772 42.4169 68.0242 42.1213 67.178 41.8222C66.4773 41.5731 65.9256 41.7026 65.6683 42.4037C65.4178 43.0814 65.8883 43.4203 66.4536 43.6429C66.765 43.7658 67.09 43.8589 67.4116 43.9652C69.9435 44.8057 70.0958 45.437 68.4237 47.57C68.0378 48.0617 67.6857 47.9321 67.2592 47.8158C66.3791 47.5733 65.6311 47.0915 64.8762 46.5998C62.6151 45.1147 60.1711 44.0084 57.5714 43.2276C56.0854 42.7791 55.686 41.49 56.8335 40.3737C57.4834 39.7424 57.5478 39.3039 57.2499 38.5198C56.8335 37.4201 57.4733 36.3768 57.7068 35.3203C57.8558 34.6426 58.306 35.101 58.6276 35.1708C59.3215 35.3203 59.9172 35.2173 60.0492 34.4366C60.1779 33.699 59.7412 33.2438 58.9999 33.2472C57.5985 33.2538 58.4109 32.4664 58.4719 31.9415C58.9728 31.6923 59.4603 31.8684 59.9342 32.0145C64.1958 33.3236 68.383 34.8585 72.6075 36.2772C72.9764 36.4001 73.3386 36.5563 73.5553 36.9117L73.5519 36.9084Z" fill="#FE6B06"/>
<path d="M73.5522 36.9084C68.8437 35.6991 64.3756 33.7821 59.7246 32.3999C59.2981 32.2737 58.8885 32.0943 58.4722 31.9381C59.1119 28.9114 59.7822 25.8914 60.8416 22.971C61.2682 22.8148 61.6168 22.9544 61.9282 23.2368C62.4089 24.2767 63.2348 24.1372 64.1048 23.8415C64.3417 23.8913 64.5279 24.0176 64.6937 24.187C65.2827 25.0774 65.98 25.3066 66.8534 24.5392C67.3983 24.486 67.6928 24.8814 68.0449 25.1771C68.7557 25.9246 69.3989 27.0542 70.5091 25.6057C71.3486 25.4894 71.6905 26.1539 72.1576 26.619C71.8665 27.423 72.2524 27.8815 72.9835 28.1406C73.5624 28.3466 74.1547 28.5094 74.7403 28.7021C76.988 29.4397 76.9406 29.4198 76.0232 31.6125C75.634 32.5494 75.1872 32.7455 74.2529 32.3468C73.3863 31.9747 72.4453 31.7654 71.5348 31.5062C70.9627 31.3434 70.5227 31.5527 70.3229 32.0943C70.1165 32.6524 70.367 33.0777 70.9119 33.2837C71.6397 33.5628 72.3709 33.885 73.1325 34.0312C74.4966 34.2937 74.737 34.9216 74.016 36.028C73.8365 36.3038 73.7113 36.6127 73.5624 36.9084H73.5522Z" fill="#FE8003"/>
<path d="M34.0088 19.2699C36.8962 18.9542 39.6888 19.4127 42.302 20.5855C47.9379 23.1172 51.6682 27.2868 53.1474 33.2671C53.3031 33.9016 53.2964 34.5728 53.364 35.2273C53.4724 36.018 53.9463 37.0214 52.9951 37.4599C51.807 38.0081 50.4834 38.0513 49.2987 37.2373C49.0042 29.4696 43.4562 24.0308 35.0683 23.2933C34.1543 22.0939 34.9295 20.4692 34.0088 19.2699Z" fill="#83692C"/>
<path d="M34.0089 19.2699C34.74 19.2798 35.1158 19.5755 35.0785 20.3596C35.0311 21.3331 35.0684 22.3132 35.0684 23.2899C26.5789 24.1372 21.2475 29.3599 20.8346 37.2307C20.3674 37.6859 19.7649 37.739 19.1556 37.7722C16.8505 37.8918 16.468 37.4832 16.7658 35.214C17.233 26.8947 25.2757 19.4559 34.0089 19.2699Z" fill="#9F7E3C"/>
<path d="M53.689 28.6157C50.3412 22.6587 45.4601 18.7183 38.5108 17.5123C37.5697 17.3495 37.3463 16.798 37.4106 15.9907C37.6239 14.964 38.4972 15.2298 39.1539 15.19C45.8358 14.7846 52.1014 16.1834 57.9337 19.426C58.4245 19.6984 58.9594 19.8812 59.4265 20.1935C59.5856 20.3496 59.5924 20.5158 59.457 20.6885C59.457 20.7982 59.4197 20.8912 59.3453 20.9709C57.8965 22.981 56.7456 25.1804 55.3239 27.207C54.9109 27.7951 54.7248 28.6955 53.6923 28.6157H53.689Z" fill="#F32535"/>
<path d="M36.1483 10.6782C35.3291 7.51193 35.3189 7.42222 38.6193 7.10992C49.0145 6.12981 58.4349 8.67476 66.8127 14.8345C67.2764 15.1767 67.8011 15.582 67.6556 16.1501C67.5371 16.6186 66.877 16.3927 66.4641 16.4857C65.5941 16.6884 64.7073 16.8179 63.8272 16.9774C63.0892 17.014 62.5679 16.5521 62.0027 16.2C54.7148 11.6483 46.7635 10.0436 38.2266 11.037C37.4989 11.1234 36.7575 11.2463 36.1449 10.6782H36.1483Z" fill="#0D824A"/>
<path d="M16.7655 35.2173C16.5354 36.8121 17.1379 37.543 18.8541 37.2639C19.4972 37.1609 20.1742 37.2373 20.8343 37.234C21.0746 42.5199 23.3493 46.6696 28.051 49.3773C29.0225 49.9388 28.833 50.3375 28.2914 51.0086C26.213 53.5802 26.1555 53.6699 23.6641 51.6665C18.6374 47.6231 16.295 42.3405 16.4914 35.9748C16.4981 35.719 16.6708 35.4698 16.7655 35.2173Z" fill="#83692C"/>
<path d="M38.1247 67.1289C36.6726 67.4379 35.4675 66.6604 34.232 66.182C32.4007 65.471 30.5051 65.0225 28.6163 64.5407C27.5297 64.2616 26.5109 64.5806 25.5732 65.1487C25.1433 62.9759 25.4243 60.8728 26.2232 58.8196C28.8533 58.0587 31.128 59.3345 33.4907 60.0721C34.3369 60.3379 35.1189 60.803 36.043 60.8197C36.9941 62.2317 37.2683 63.946 38.1281 65.3979C38.1924 65.976 38.5681 66.5541 38.1247 67.1289Z" fill="#F3F2E8"/>
<path d="M72.5907 65.1288C71.4296 64.4078 70.2483 64.4245 68.9078 64.7102C66.4402 65.2351 64.1519 66.2484 61.7587 66.9628C61.2375 67.1189 60.6959 67.697 60.0764 67.1322C59.5687 66.5574 59.9275 65.9727 60.0527 65.3913C60.9328 63.9494 61.1156 62.1951 62.1616 60.823C64.6089 60.3313 66.826 59.1153 69.3174 58.7033C70.2516 58.5505 71.0573 58.6136 71.917 58.8295C72.7633 60.8662 72.831 62.9825 72.5873 65.1321L72.5907 65.1288Z" fill="#F3F2E8"/>
<path d="M67.9463 25.3166C67.4386 25.3465 67.2355 24.9511 66.9681 24.6455C66.2301 24.0674 65.3738 24.2933 64.5478 24.3033C64.4057 24.1737 64.2601 24.0441 64.1179 23.9112C63.4308 23.2501 62.615 23.0574 61.6909 23.2899C61.4066 23.1836 61.1222 23.0806 60.8379 22.9743C61.349 21.2865 62.2765 19.941 64.0164 19.2698C65.9492 18.7017 67.5943 19.539 69.2597 20.2931C70.0213 20.9709 70.9014 21.3297 71.9406 21.2998C73.7752 21.4228 75.3594 22.1105 76.7202 23.3165C77.0011 23.6554 77.2821 23.9777 77.3938 24.4328C77.6104 25.3432 78.0742 26.4196 77.4344 27.114C76.8082 27.7951 75.9213 26.8781 75.136 26.7519C74.1476 26.5957 73.1964 25.702 72.1572 26.6223C71.3753 26.722 71.0368 26.2103 70.7457 25.6355C69.8318 25.3864 68.9212 25.1006 67.9531 25.3166H67.9463Z" fill="#FEB106"/>
<path d="M22.9536 37.234C22.9366 36.6526 22.7979 36.0579 23.1668 35.523C26.1117 32.7388 28.9585 29.8616 31.8527 27.031C32.4146 26.4828 32.99 25.9711 33.711 25.6389L35.0819 25.589C36.0534 27.8715 35.61 30.2171 35.4001 32.5494C35.3256 32.6923 35.2681 32.9049 35.1225 32.9448C32.7903 33.5827 31.3652 35.1608 30.4208 37.2539C30.3565 37.4001 30.1636 37.4566 30.0146 37.5397C27.6485 37.7623 25.2689 38.2374 22.957 37.234H22.9536Z" fill="#BDDC05"/>
<path d="M35.0244 32.8784C35.0447 30.4497 35.0616 28.0177 35.082 25.589C35.5254 25.609 35.9688 25.6256 36.4156 25.6455C37.0215 25.9346 37.5564 26.31 38.037 26.7884C40.5961 29.3201 43.172 31.8384 45.7412 34.3601C46.3776 34.9848 46.9734 35.6326 47.1528 36.5396C47.1629 36.7755 47.1697 37.0114 47.1798 37.2506C44.9356 38.2573 42.6034 37.6892 40.305 37.6128C39.6551 37.4201 39.3335 36.9117 39.1202 36.337C38.4737 34.6027 37.2517 33.5462 35.3934 33.2106C35.2411 33.1342 35.1192 33.0245 35.0312 32.8784H35.0244Z" fill="#84C506"/>
<path d="M22.9533 37.234C25.4142 37.2407 27.8751 37.244 30.3359 37.2506C30.3969 37.2972 30.4578 37.3437 30.5221 37.3902C31.2093 39.3105 32.2349 40.9418 34.337 41.6395C34.7195 41.8555 35.1528 42.005 35.3491 42.4435C35.6402 43.4834 35.7553 44.5101 35.0614 45.4603C34.0763 46.055 33.0913 46.6497 32.1063 47.2411C31.1923 47.4836 30.8166 46.7261 30.3258 46.261C27.9021 43.9685 25.597 41.5598 23.1496 39.2906C22.7502 38.6361 22.933 37.9284 22.9533 37.234Z" fill="#85C506"/>
<path d="M36.1479 10.6782C39.0488 10.429 41.9532 10.223 44.8676 10.3426C51.888 10.625 58.2146 12.8244 63.8302 16.9807C62.7978 17.9077 61.894 17.715 60.716 17.0106C53.9089 12.9474 46.533 11.243 38.5885 12.3327C37.116 12.5354 36.0735 12.5022 36.1445 10.6782H36.1479Z" fill="#0A9D57"/>
<path d="M35.0649 45.4569C35.0683 44.3805 35.0717 43.3007 35.0751 42.2242C35.1529 41.9352 35.3391 41.6993 35.62 41.6428C37.9929 41.1644 38.9982 39.46 39.6177 37.3968C39.6786 37.347 39.7396 37.2938 39.8005 37.244C42.258 37.244 44.7188 37.244 47.1763 37.244C47.1594 37.6925 47.1459 38.1377 47.1289 38.5862C46.1812 40.2508 44.8644 41.5598 43.1821 42.5133C40.359 43.1844 37.651 44.1612 35.0615 45.4569H35.0649Z" fill="#52C308"/>
<path d="M59.4267 20.2965C58.8986 20.6188 58.4755 20.343 58.0321 20.0772C51.9662 16.4458 45.3283 15.2697 38.3282 15.6584C37.9829 15.6784 37.6545 15.7149 37.4142 15.9907C36.92 15.1634 36.8997 14.5288 38.0811 14.356C45.8056 13.2364 52.9851 14.7414 59.6738 18.6419C59.9412 18.7981 60.0834 18.9974 60.0766 19.3031C59.8363 19.6187 59.7076 20.0074 59.4233 20.2965H59.4267Z" fill="#D50024"/>
<path d="M33.7107 25.6389C30.4239 28.9147 27.1337 32.1939 23.8469 35.4698C23.6404 35.6725 23.4204 35.8452 23.1665 35.523C23.7318 30.3766 28.4944 25.908 33.7107 25.6389Z" fill="#DCF01D"/>
<path d="M47.1526 36.5363C44.5902 33.5428 41.5742 30.978 38.8324 28.1572C38.0234 27.3233 37.2211 26.4828 36.4121 25.6455C41.1646 25.8748 45.6158 29.6789 46.8514 34.5927C47.0105 35.2273 47.0545 35.8884 47.1492 36.5363H47.1526Z" fill="#52C308"/>
<path d="M23.1499 39.2906C23.9284 38.8055 24.0875 39.6328 24.4159 39.9318C27.0325 42.3139 29.3444 45.0051 32.1099 47.241C31.2671 48.5235 30.2787 48.5401 29.0127 47.7593C25.7834 45.7659 23.6915 43.0582 23.1533 39.2939L23.1499 39.2906Z" fill="#BDDB05"/>
<path d="M53.6889 28.6157C55.2765 26.8648 56.3021 24.7418 57.6493 22.8348C58.1334 22.1537 58.3026 21.1736 59.3418 20.9709C57.6358 25.3864 56.881 30.0577 55.5304 35.0346C55.1682 32.5262 54.4133 30.5759 53.6855 28.6157H53.6889Z" fill="#F94258"/>
<path d="M49.2985 37.2373C49.9586 37.2373 50.6322 37.1643 51.2754 37.2639C52.9611 37.5231 53.6245 36.8553 53.3639 35.2306C54.112 37.3603 53.479 39.4268 53.0626 41.5066C52.9577 42.0282 52.6361 42.2442 52.1115 42.2176C51.888 42.2043 51.6613 42.2176 51.4412 42.2043C48.52 41.9917 48.5335 41.9917 49.1124 39.2009C49.2444 38.563 49.241 37.8952 49.3019 37.2407L49.2985 37.2373Z" fill="#6F5522"/>
<path d="M76.981 34.5296C77.5734 33.0545 78.1658 31.5793 78.8292 29.9281C79.8853 31.7919 80.3559 33.6425 80.9245 35.4632C81.1141 36.0712 80.8636 36.2506 80.3355 36.3469C79.4588 36.5064 78.5855 36.6925 77.7122 36.8686C77.0047 36.2307 76.8727 35.4167 76.9776 34.5329L76.981 34.5296Z" fill="#0D824A"/>
<path d="M70.9828 13.9108C70.0757 11.3991 68.5626 9.63161 66.1559 8.69137C65.7124 8.51861 65.3096 8.23288 65.5669 7.69466C65.8275 7.15643 66.3082 7.32255 66.7381 7.49531C69.0974 8.43887 70.7493 10.0801 71.7952 12.3526C72.1608 13.15 71.6429 13.449 70.9828 13.9108Z" fill="#89EF62"/>
<path d="M75.3123 10.3426C75.9283 7.63484 75.3123 5.43874 73.7281 3.47521C73.4268 3.09978 73.3117 2.67119 73.7755 2.31902C74.2121 1.9901 74.4965 2.30241 74.7605 2.5981C76.2364 4.24601 76.8863 6.20954 76.8727 8.36245C76.8694 9.14985 76.3345 9.77114 75.3156 10.3459L75.3123 10.3426Z" fill="#8BF264"/>
<path d="M80.4135 13.6052C76.6968 13.562 73.8738 14.9574 72.3404 18.4326C72.161 18.8413 71.9342 19.323 71.379 19.1403C70.7359 18.931 70.7968 18.3562 71.0134 17.8877C71.5686 16.6817 72.144 15.479 73.3017 14.685C74.0836 14.4923 74.6591 13.9009 75.4071 13.6351C76.4971 13.2165 77.6074 12.861 78.7853 12.8875C79.4014 12.9008 80.163 12.7414 80.4169 13.6052H80.4135Z" fill="#6ED03A"/>
<path d="M80.4135 13.6052C78.5349 12.8012 76.8018 13.8112 75.0043 14.0172C74.6591 14.1401 74.588 13.9839 74.6625 13.6882C76.7747 12.2264 79.1272 12.037 81.5712 12.4855C82.1162 12.5852 83.064 12.6251 82.8981 13.4258C82.695 14.4125 81.8488 13.871 81.2361 13.758C80.9619 13.7082 80.6843 13.655 80.4101 13.6052H80.4135Z" fill="#8DF366"/>
<path d="M80.7757 6.61156C80.7927 7.67473 80.5253 8.67476 80.136 9.65819C79.9058 10.2463 79.4387 10.3758 78.9174 10.2396C78.0982 10.0237 78.7109 9.53526 78.8294 9.24289C79.3371 7.98371 79.4522 6.6913 79.3439 5.3557C79.3067 4.89056 79.1273 4.2128 79.811 4.13638C80.5456 4.05332 80.6166 4.76763 80.7047 5.29589C80.7757 5.7278 80.7554 6.17301 80.7757 6.61156Z" fill="#8BF065"/>
<path d="M43.1855 42.5166C44.5023 41.2076 45.8157 39.8986 47.1324 38.5896C47.1392 38.6992 47.1663 38.8122 47.146 38.9151C46.742 41.0614 45.4219 42.2608 43.1855 42.5133V42.5166Z" fill="#25BD0B"/>
<path d="M69.2633 20.2931C67.4355 20.3563 65.8547 19.1901 64.02 19.2699C65.1032 18.4758 66.3929 18.509 67.6487 18.4027C69.1042 18.2765 68.7082 19.6785 69.2633 20.2931Z" fill="#F1D50B"/>
<path d="M76.7205 23.3132C75.1262 22.6421 73.5352 21.9676 71.9409 21.2965C72.7533 21.2035 73.2475 19.9543 74.1107 20.4726C75.2277 21.1404 76.3481 21.9278 76.7171 23.3132H76.7205Z" fill="#FADB09"/>
<path d="M71.1926 49.8691C71.2468 50.5767 71.2671 51.2844 71.0471 51.9887C69.6728 50.9721 69.508 49.5889 70.5529 47.8391C71.7139 48.2278 70.7458 49.2644 71.196 49.8691H71.1926Z" fill="#E6E7E7"/>
<path d="M72.6854 5.63809C72.0964 6.25606 71.7917 7.19962 70.8812 7.52521C70.6374 7.61159 70.0315 7.16307 70.1805 6.79761C70.5257 5.94707 71.0403 5.10651 71.9711 4.78756C72.3672 4.65134 72.5229 5.20286 72.6854 5.63477V5.63809Z" fill="#89EB64"/>
<path d="M76.9809 34.5296C77.3397 35.2738 77.6579 36.0313 77.7154 36.8652C77.1603 36.9284 76.5544 37.5762 76.0771 36.9782C75.7115 36.5164 76.2193 35.9715 76.4224 35.4931C76.5645 35.1542 76.7913 34.8485 76.9843 34.5296H76.9809Z" fill="#0A9D57"/>
<path d="M71.193 49.8691C70.5498 49.3242 71.2268 48.374 70.5498 47.8391C70.6514 47.5334 70.8748 47.0749 71.0576 47.6763C71.2674 48.3574 71.1591 49.1348 71.1896 49.8691H71.193Z" fill="#B1C2C2"/>
<path d="M74.6625 13.6882C74.7776 13.7979 74.8893 13.9075 75.0044 14.0172C74.4899 14.376 74.0464 14.8976 73.2983 14.6816C73.6673 14.2398 74.1074 13.8876 74.6625 13.6849V13.6882Z" fill="#82E15C"/>
<path d="M59.4268 20.2965C59.4335 19.8313 59.6603 19.5058 60.0801 19.3031C60.2121 19.9144 59.8465 20.3064 59.4572 20.6885C59.4471 20.5556 59.4369 20.4261 59.4268 20.2932V20.2965Z" fill="#E72234"/>
<path d="M62.1648 60.8197C61.9244 62.4775 61.3321 64.0058 60.408 65.4112C59.5583 67.3947 57.7034 68.1588 55.8653 68.8034C50.9639 70.5244 46.0658 70.3616 41.2422 68.4512C39.7495 67.8598 38.514 66.9295 37.7727 65.4743C36.8316 64.0523 36.219 62.5141 36.0396 60.8197C36.0666 53.0021 43.2935 49.1149 49.092 49.1215C54.684 49.1315 62.0666 52.7861 62.1614 60.8197H62.1648Z" fill="#33363A"/>
<path d="M37.7729 65.4743C42.4002 70.8466 55.7404 70.84 60.4083 65.4112C60.2999 65.9826 60.1882 66.5541 60.0799 67.1289C58.3434 70.8798 55.2259 72.4547 51.1842 72.4248C49.1701 72.4115 47.1662 72.4779 45.1353 72.2154C41.7435 71.7802 39.4079 70.222 38.125 67.1289C38.0099 66.5774 37.8914 66.0258 37.7729 65.4743Z" fill="#D2D0C0"/>
<path d="M63.1397 42.51C62.4424 42.2309 61.4743 42.2076 61.5082 41.1511C61.5285 40.4966 62.0396 40.1577 62.6862 40.274C63.4004 40.4036 64.1925 40.5664 64.2195 41.5166C64.2365 42.1877 63.8337 42.5133 63.1397 42.51Z" fill="#3C3837"/>
<path d="M66.8297 36.4798C66.6909 37.0978 66.3219 37.5364 65.6856 37.4134C64.951 37.2706 64.0608 37.1177 64.1352 36.0645C64.1826 35.3901 64.687 35.1409 65.3166 35.2406C66.0545 35.3536 66.7112 35.616 66.8263 36.4798H66.8297Z" fill="#3E3937"/>
<path d="M63.0077 35.2207C62.9129 35.8087 62.6015 36.2307 61.9381 36.2207C61.2509 36.2107 60.7432 35.9051 60.7432 35.1509C60.7432 34.5695 61.0952 34.2572 61.6842 34.2239C62.3916 34.1874 62.8452 34.503 63.0111 35.2173L63.0077 35.2207Z" fill="#3C3837"/>
<path d="M60.4623 40.3172C60.3844 41.0049 59.985 41.2907 59.3249 41.2508C58.692 41.2109 58.2181 40.892 58.1808 40.2707C58.1436 39.6295 58.6006 39.2607 59.2437 39.264C59.9309 39.264 60.4081 39.5896 60.4623 40.3172Z" fill="#3E3937"/>
<path d="M68.9042 31.1408C68.8738 31.8285 68.5488 32.2936 67.882 32.2139C67.117 32.1242 66.2673 31.9547 66.203 30.9447C66.1658 30.3567 66.5754 29.9779 67.1305 29.9945C67.9294 30.0178 68.6808 30.2504 68.9009 31.1408H68.9042Z" fill="#3E3A37"/>
<path d="M67.9463 25.3166C69.0261 24.1538 69.913 24.6255 70.7389 25.6322C70.6678 26.2568 70.5493 26.9512 69.7437 26.8815C68.8298 26.8017 67.9937 26.4462 67.9463 25.3166Z" fill="#393938"/>
<path d="M65.1303 30.0012C65.022 30.649 64.6564 30.9846 63.993 30.9447C63.3126 30.9049 62.7981 30.6291 62.8083 29.8683C62.8184 29.1938 63.2551 28.9147 63.9016 28.9314C64.6124 28.9513 65.0153 29.3267 65.127 30.0012H65.1303Z" fill="#3F3A36"/>
<path d="M61.6909 23.2899C62.9975 22.2667 63.4172 22.3763 64.1179 23.9112C63.7963 24.4993 63.3394 24.7883 62.6251 24.6322C61.8635 24.4661 61.7146 23.9278 61.6875 23.2866L61.6909 23.2899Z" fill="#3F3C37"/>
<path d="M64.5479 24.3033C65.5058 23.3763 66.3487 23.2501 66.9681 24.6422C66.8429 25.3266 66.4942 25.7385 65.7224 25.6455C64.9168 25.5492 64.5885 25.0442 64.5479 24.3033Z" fill="#3B3A38"/>
<path d="M61.278 29.9912C60.4283 29.9779 59.8867 29.6789 59.8732 28.9513C59.863 28.3068 60.3437 27.9513 60.9936 27.9845C61.5995 28.0144 62.0904 28.2901 62.1445 28.9679C62.1987 29.6556 61.8263 29.9846 61.2813 29.9912H61.278Z" fill="#3E3A37"/>
<path d="M30.3363 37.2473C30.773 34.5429 32.3707 33.0544 35.0245 32.8784L35.0786 32.9348C35.4645 33.38 35.5153 33.8684 35.2919 34.3967C34.3069 35.2705 32.8513 35.7323 32.6279 37.2872C32.5433 37.4367 32.4248 37.553 32.2759 37.6427C31.565 37.7889 30.8948 37.7357 30.3228 37.234L30.3329 37.244L30.3363 37.2473Z" fill="#85C506"/>
<path d="M35.0752 34.5894C35.0752 34.0379 35.0786 33.4863 35.082 32.9348C37.7155 32.9614 38.9205 34.0611 39.804 37.2473L39.8142 37.2373C39.2861 37.7025 38.6903 37.7191 38.054 37.5064C37.0893 36.6194 36.6763 35.1774 35.2207 34.7788C35.1734 34.7156 35.126 34.6525 35.0752 34.5894Z" fill="#52C308"/>
<path d="M37.7999 37.2174C38.4701 37.2241 39.1403 37.2307 39.8106 37.2373C39.7463 40.2873 37.8168 41.6295 35.0716 42.2242C34.7026 42.2143 34.3066 42.2741 34.0527 41.9086C34.4488 41.4003 34.679 40.8089 34.943 40.2308C36.0296 39.4467 37.2414 38.7723 37.6137 37.3503C37.6747 37.3038 37.739 37.2606 37.8033 37.2174H37.7999Z" fill="#85C606"/>
<path d="M35.0647 40.2275C34.9868 40.9352 35.4404 41.9551 34.056 41.9086C31.788 41.1411 30.5491 39.5796 30.3291 37.2373C31.0163 37.2739 31.7305 37.1775 32.3499 37.5928C32.4142 37.636 32.4786 37.6792 32.5429 37.7191C33.0574 38.7756 33.9612 39.4467 34.9496 40.0315C34.9902 40.0979 35.0274 40.1644 35.0647 40.2308V40.2275Z" fill="#BDDC05"/>
<path d="M59.5011 57.8096C60.8449 61.4941 59.606 64.6404 55.9976 66.1222C51.4279 67.9993 46.7533 68.0159 42.187 66.1222C38.2367 64.4876 37.0181 60.524 39.1134 56.7364C39.7329 57.2082 40.0781 57.9026 40.5689 58.4807C40.6197 58.9192 40.2711 59.1485 40.0443 59.4442C39.6618 59.9425 39.5128 60.4774 40.2 60.7897C40.8262 61.0755 41.2324 60.6735 41.493 60.1286C41.7334 59.6236 41.3509 58.8761 42.1294 58.5804C42.7726 58.4309 43.3615 58.6435 43.9438 58.8428C47.85 60.1618 51.6716 59.9359 55.4865 58.4209C56.7457 57.9192 58.0286 57.1218 59.5045 57.8129L59.5011 57.8096Z" fill="#FE9000"/>
<path d="M59.501 57.8096C57.575 57.9923 55.8554 58.8428 54.0546 59.4309C50.761 60.504 47.4539 60.4874 44.1502 59.4375C43.3547 59.185 42.6033 58.7631 41.7232 58.8495C41.0496 59.0787 40.9785 58.6667 40.9751 58.1783C41.9534 55.4274 43.9843 53.8592 46.8277 53.2845C47.8161 53.0851 48.5642 52.5668 49.2987 51.9655C51.042 51.3907 52.5855 52.1117 54.1562 52.6831C55.043 53.0087 55.7573 53.6964 56.7186 53.8626C58.1132 54.8593 59.0915 56.1417 59.501 57.8096Z" fill="#FEBB00"/>
<path d="M49.2783 52.1848C48.9703 52.9257 48.5675 53.4008 47.6231 53.5669C45.0133 54.0287 42.6675 54.9689 41.7095 57.7498C41.6486 57.9259 41.3913 58.0388 41.2255 58.1817C40.9648 58.3378 40.8227 58.7664 40.3928 58.5339C39.401 58.3245 39.2825 57.5139 39.1099 56.7398C40.5959 53.3343 43.4596 51.7196 46.9562 50.9355C47.6332 50.7827 48.2933 50.8724 48.906 51.2213C49.214 51.4738 49.5356 51.723 49.2783 52.1848Z" fill="#FDED59"/>
<path d="M49.2786 52.1848C49.1534 51.8625 49.0315 51.5402 48.9062 51.2213C51.8715 51.0718 54.4881 51.9223 56.7222 53.8659C56.035 54.4373 55.578 53.743 55.094 53.517C53.2458 52.6532 51.3705 51.9987 49.282 52.1881L49.2786 52.1848Z" fill="#FBCA01"/>
<path d="M32.3603 37.2473C32.4653 35.5761 33.369 34.6891 35.0717 34.5894L35.0615 34.5794C35.725 35.4665 35.7148 36.3669 35.1191 37.2805C34.1916 37.8453 33.2675 37.8752 32.3569 37.244L32.3603 37.2473Z" fill="#53C308"/>
<path d="M32.3602 37.2473C33.2572 37.2407 34.1543 37.234 35.0547 37.2274C35.0851 37.3138 35.119 37.4001 35.1494 37.4832C35.0614 37.6526 34.9294 37.7756 34.7534 37.8553C33.9139 38.0879 33.0914 38.1543 32.3467 37.5862V37.5895C32.3501 37.4765 32.3568 37.3603 32.3602 37.2473Z" fill="#84C506"/>
<path d="M35.0547 37.2274C35.0581 36.3469 35.0615 35.4632 35.0648 34.5794C36.7506 34.6857 37.6476 35.5761 37.7999 37.2141L37.739 37.2772C36.8656 37.8686 35.9923 37.8852 35.1156 37.2872L35.0547 37.224V37.2274Z" fill="#84C506"/>
<path d="M35.1156 37.2905C35.9923 37.2872 36.8657 37.2838 37.7424 37.2805C37.8642 39.151 36.6355 39.8388 35.0649 40.2275L35.075 40.2374C34.4116 39.3504 34.4014 38.4633 35.0682 37.5729C35.0818 37.4765 35.0953 37.3835 35.1156 37.2872V37.2905Z" fill="#BADB05"/>
<path d="M35.0682 37.5762C35.0682 38.4633 35.0716 39.3504 35.075 40.2408C33.633 39.8853 32.4787 39.2441 32.3467 37.5895C33.2539 37.5862 34.161 37.5829 35.0682 37.5762Z" fill="#85C606"/>
<path d="M40.3931 58.5338C40.6707 58.4176 40.9482 58.3013 41.2258 58.1817C41.1581 58.5737 41.3206 58.7963 41.7234 58.8495C42.1567 59.6203 42.353 60.3479 41.5068 61.0157C40.8704 61.5207 40.2408 61.7267 39.5875 61.122C38.8868 60.4708 38.9782 59.7764 39.6281 59.1385C39.8583 58.9126 40.1358 58.7332 40.3897 58.5338H40.3931Z" fill="#FEEB57"/>
<path d="M40.5483 63.0889C40.2166 63.0224 39.912 62.8496 39.9289 62.4609C39.9458 61.9958 40.2775 61.7832 40.7311 61.8297C41.117 61.8662 41.354 62.0955 41.2693 62.4975C41.1949 62.843 40.9918 63.0988 40.5517 63.0922L40.5483 63.0889Z" fill="#FEDA47"/>
</g>
<defs>
<clipPath id="clip0_349_7058">
<rect width="85" height="85" fill="white"/>
</clipPath>
</defs>
</svg>
