<svg width="123" height="44" viewBox="0 0 123 44" fill="none" xmlns="http://www.w3.org/2000/svg">
<g clip-path="url(#clip0_349_2637)">
<path d="M6.34506 43.9628C2.91257 44.1052 0.840706 42.5696 0.420151 39.8575C-0.0437012 36.8854 1.34785 35.0711 4.92259 33.9937C4.94733 26.0061 4.97206 18.0185 4.9968 10.0247C1.35403 8.84822 -0.105545 6.86061 0.45108 3.84513C0.921112 1.29404 3.0239 -0.0681883 6.61719 0.0370749C17.5022 0.359056 26.3772 4.95348 33.6133 12.9473C45.2961 -2.09915 69.6513 -4.43351 84.8408 8.06804C86.653 9.5603 88.2857 11.2817 89.9989 12.8978C97.0432 4.74915 105.937 0.420976 116.698 0.0370749C120.298 -0.0867642 122.4 1.28166 122.877 3.83274C123.446 6.84822 121.98 8.84822 118.337 10.0247C118.362 18.0185 118.386 26.0061 118.411 33.9937C121.986 35.0773 123.378 36.8854 122.914 39.8575C122.493 42.5634 120.421 44.0804 116.995 43.9628C106.042 43.5975 97.0432 39.0464 89.6958 31.0278C75.2608 48.0557 48.5987 48.3653 34.0276 31.6779C33.8297 31.455 33.5638 31.2879 33.3288 31.0959C26.2164 39.3498 17.1435 43.5046 6.34506 43.9628Z" fill="#F7F9FA"/>
<path d="M34.0271 31.678C33.8292 31.4551 33.5633 31.2879 33.3283 31.096C30.8606 30.0743 30.2297 27.5356 28.8382 25.6347C28.2012 24.7616 27.8177 23.709 27.224 22.7926C27.2178 22.7802 27.2116 22.7616 27.1993 22.7492C27.1065 22.6068 27.0137 22.4706 26.9148 22.3344C24.8491 19.3313 22.4 16.7368 19.2087 14.9164C19.0788 14.8359 18.9489 14.7616 18.819 14.6935C18.7757 14.6625 18.7386 14.6378 18.6954 14.6068C17.6316 13.87 16.5369 13.2198 15.3309 12.7678C15.1453 12.6935 14.9598 12.6316 14.7681 12.5697C14.6073 12.5201 14.4403 12.4706 14.2733 12.4272C12.956 11.9505 11.6201 11.5604 10.2347 11.3313C10.0244 11.3003 9.81416 11.2693 9.60389 11.2446C9.57296 11.2384 9.53585 11.2384 9.50493 11.2322C8.02679 10.7244 6.30745 11.1455 4.9963 10.0248C1.35353 8.84829 -0.106033 6.86067 0.450584 3.84519C0.920624 1.29411 3.02341 -0.0681238 6.6167 0.0371394C17.5017 0.359121 26.3767 4.95355 33.6128 12.9474C35.9877 13.9505 36.7484 16.2848 37.942 18.2539C38.5358 19.2322 39.1604 20.2043 39.7232 21.2074C39.7603 21.2693 39.7912 21.3313 39.8284 21.3932C39.8778 21.4613 39.9273 21.5294 39.9768 21.5975C42.5991 25.2198 45.6914 28.3096 49.7238 30.3282C49.8104 30.3777 49.9032 30.421 49.9959 30.4644C50.0392 30.4892 50.0763 30.5077 50.1196 30.5263C51.3628 31.2074 52.6925 31.6532 54.0345 32.0557C54.084 32.0681 54.1397 32.0867 54.1891 32.0991C54.2757 32.13 54.3685 32.1548 54.4551 32.1796C55.8652 32.6563 57.3371 32.7678 58.7905 32.9597C58.9884 32.9907 59.1802 33.0155 59.3719 33.0464C59.3843 33.0464 59.3966 33.0526 59.409 33.0526C60.9181 33.3251 62.4271 33.3065 63.9362 33.034H63.9547C64.1465 33.0031 64.3444 32.9783 64.5423 32.9536C66.0019 32.774 67.48 32.6502 68.8901 32.1796C68.9767 32.1548 69.0571 32.13 69.1437 32.1053C69.1931 32.0929 69.2488 32.0743 69.2983 32.0557C70.6589 31.6532 71.9948 31.1889 73.2503 30.5139C73.275 30.5015 73.3059 30.483 73.3307 30.4706C73.4235 30.4272 73.51 30.3777 73.6028 30.3282C76.689 28.6997 79.5092 26.7616 81.6676 23.9319C82.249 23.1641 82.9169 22.4149 83.9188 22.1424C83.9436 22.1362 83.9683 22.13 83.993 22.1238C84.0178 22.1176 84.0425 22.1114 84.0673 22.1053C87.073 24.3653 88.6996 27.4923 89.6953 31.0279C75.2603 48.0557 48.5982 48.3653 34.0271 31.678Z" fill="#DF2925"/>
<path d="M116.995 43.9628C106.042 43.5974 97.0432 39.0464 89.6958 31.0278C87.8095 28.0804 85.9232 25.1392 84.0368 22.1981C83.9936 22.1795 83.9564 22.1609 83.9193 22.1423C82.0949 21.3002 81.4888 19.2878 80.0663 18.0495C78.0748 16.3157 75.9844 14.7306 73.56 13.6717C73.4734 13.6346 73.3807 13.5974 73.2941 13.5603C73.2632 13.5479 73.2384 13.5355 73.2075 13.5231C71.9644 12.8358 70.6903 12.2414 69.305 11.9256C69.2555 11.9132 69.206 11.907 69.1504 11.8947C69.0205 11.8637 68.8906 11.8451 68.7607 11.8204C67.4063 11.517 66.0828 11.0897 64.7098 10.9163C64.4933 10.8854 64.283 10.8606 64.0604 10.8544C63.98 10.842 63.8934 10.8358 63.813 10.8358C62.3843 10.8606 60.9557 10.8606 59.527 10.842C59.4404 10.8482 59.3538 10.8544 59.2734 10.8606C59.0508 10.873 58.8343 10.8978 58.6179 10.9287C57.2449 11.0897 55.9028 11.4426 54.5545 11.7213C54.4309 11.7461 54.3072 11.777 54.1835 11.8142C54.1402 11.8142 54.0969 11.8265 54.0536 11.8451C52.662 12.2043 51.388 12.8544 50.1201 13.5231C50.0954 13.5355 50.0645 13.5479 50.0397 13.5603C49.947 13.6036 49.8542 13.647 49.7676 13.6903C46.5207 15.2321 43.6448 17.2383 41.4863 20.1981C41.072 20.7615 40.6267 21.3312 39.9773 21.5974C39.7794 21.6841 39.5629 21.7399 39.3217 21.7584C37.423 18.8235 35.5181 15.8823 33.6133 12.9473C45.2961 -2.09915 69.6513 -4.43351 84.8409 8.06803C86.653 9.56029 88.2857 11.2817 89.9989 12.8978C93.2149 14.8049 94.1735 18.3529 96.0784 21.2197C96.0969 21.2445 96.1093 21.2693 96.1279 21.294C96.2206 21.4303 96.3134 21.5665 96.4124 21.7027C98.478 24.7244 100.946 27.3312 104.162 29.164C104.279 29.2321 104.397 29.3002 104.514 29.3622C104.551 29.3869 104.582 29.4117 104.619 29.4365C105.807 30.26 107.044 30.9968 108.423 31.4365C108.479 31.455 108.528 31.4674 108.584 31.4798C108.745 31.5355 108.905 31.5789 109.066 31.616C110.377 31.9937 111.695 32.3405 113.037 32.5758C113.259 32.6191 113.482 32.6501 113.705 32.6872C113.767 32.6934 113.822 32.7058 113.884 32.712C115.381 33.1764 117.075 32.9535 118.411 33.9937C121.986 35.0773 123.378 36.8854 122.914 39.8575C122.493 42.5634 120.421 44.0804 116.995 43.9628Z" fill="#0A9D57"/>
<path d="M95.6575 21.7028C93.7711 18.7678 91.8848 15.8328 89.9985 12.8978C97.0428 4.74922 105.936 0.42105 116.698 0.037149C120.297 -0.08669 122.4 1.28173 122.876 3.83281C123.445 6.84829 121.979 8.84829 118.337 10.0248C117.025 11.1393 115.306 10.7183 113.834 11.226C113.797 11.2322 113.766 11.2322 113.729 11.2384C113.513 11.2693 113.302 11.3003 113.092 11.3375C111.713 11.5666 110.377 11.9628 109.06 12.4272C108.893 12.4706 108.726 12.5139 108.565 12.5697C108.509 12.582 108.454 12.6006 108.398 12.6192C107.05 13.0712 105.831 13.7957 104.656 14.5944C104.6 14.6316 104.545 14.6687 104.489 14.7059C104.365 14.7616 104.242 14.8173 104.124 14.8854C101.657 16.1238 99.9682 18.291 98.0014 20.1424C97.4757 20.6378 97.1541 21.4923 96.412 21.7028C96.2017 21.7647 95.9543 21.7709 95.6575 21.7028Z" fill="#DF2925"/>
<path d="M0.419525 39.8576C-0.0443268 36.8855 1.34722 35.0712 4.92196 33.9938C6.26403 32.9598 7.94626 33.1765 9.44295 32.7183C9.5048 32.7121 9.56664 32.6997 9.62849 32.6873C9.85114 32.6626 10.0738 32.6254 10.2964 32.5821C11.6447 32.3468 12.9558 31.9752 14.267 31.6099C14.4278 31.5728 14.5886 31.5294 14.7494 31.4737C14.9411 31.4242 15.1328 31.3622 15.3184 31.2879C16.5368 30.8483 17.6376 30.161 18.7199 29.4304C18.7632 29.3994 18.8003 29.3746 18.8436 29.3437C18.955 29.2941 19.0601 29.2446 19.1652 29.1889C21.6577 27.9567 23.3585 25.7771 25.3252 23.9071C25.8571 23.3994 26.1972 22.5944 26.9146 22.3344C27.1311 22.2539 27.3785 22.2229 27.6753 22.2663C29.5555 25.2074 31.4418 28.1486 33.3281 31.096C26.2158 39.3499 17.1429 43.5047 6.34443 43.9629C2.91195 44.1053 0.84008 42.5697 0.419525 39.8576Z" fill="#0A9D57"/>
<path d="M113.705 33.4613C113.414 33.1888 113.197 32.8916 113.037 32.5758C112.641 31.808 112.579 30.9288 112.573 30.0433C112.523 24.6811 112.523 19.3127 112.573 13.9505C112.585 13.034 112.653 12.1238 113.092 11.3375C113.247 11.0526 113.457 10.7864 113.729 10.5449C115.189 9.69658 116.778 9.9938 118.337 10.0248C118.362 18.0186 118.386 26.0062 118.411 33.9938C116.797 34.2105 115.232 33.9938 113.705 33.4613Z" fill="#0A9D57"/>
<path d="M4.92836 33.9938C4.94692 26.0062 4.97166 18.0186 4.9964 10.0248C6.55493 9.99999 8.14439 9.69658 9.60397 10.5449C9.86991 10.7864 10.074 11.0526 10.2348 11.3313C10.6739 12.1176 10.7481 13.0278 10.7543 13.9505C10.81 19.3189 10.81 24.6811 10.7605 30.0433C10.7543 30.9288 10.6863 31.8142 10.2967 32.582C10.1359 32.8978 9.91939 33.195 9.62871 33.4613C8.1011 34 6.54256 34.2105 4.92836 33.9938Z" fill="#0A9D57"/>
<path d="M73.5661 13.0155C78.2294 14.7306 81.6309 17.9009 84.043 22.1981C81.2784 25.9752 78.1428 29.3127 73.6094 30.9907C71.8406 28.2601 71.8097 15.87 73.5661 13.0155Z" fill="#F6F8F9"/>
<path d="M59.2673 10.0743C60.8691 10.0743 62.4648 10.0743 64.0666 10.0743C65.0871 11.0093 65.1428 12.2663 65.1551 13.5047C65.2108 19.0712 65.217 24.6378 65.1551 30.2043C65.1428 31.4427 65.0809 32.7059 63.9615 33.5728C62.4339 34.3096 60.9063 34.3096 59.3786 33.5728C58.2592 32.7121 58.2036 31.4427 58.185 30.2043C58.117 24.6378 58.1232 19.0712 58.185 13.5047C58.1974 12.2663 58.253 11.0093 59.2735 10.0743H59.2673Z" fill="#0A9D57"/>
<path d="M39.321 21.7585C42.0608 17.9566 45.1346 14.5573 49.7669 13.0155C51.5234 15.87 51.4924 28.2601 49.7236 30.9907C45.1717 29.1331 41.8444 25.9071 39.321 21.7585Z" fill="#F6F8F9"/>
<path d="M59.2669 10.0743C59.304 17.9071 59.3411 25.7338 59.3721 33.5666C57.5785 33.7585 55.8406 33.5666 54.1831 32.805C52.5937 25.6037 52.5999 18.4025 54.177 11.2012C55.7664 10.3406 57.5229 10.2477 59.2607 10.0743H59.2669Z" fill="#F7F9FA"/>
<path d="M63.9549 33.5666C63.9921 25.7338 64.0292 17.9071 64.0663 10.0743C65.8103 10.2043 67.5421 10.4149 69.1501 11.1889C70.7333 18.3963 70.7395 25.5975 69.1501 32.805C67.4988 33.5666 65.7609 33.7585 63.9673 33.5666H63.9549Z" fill="#F7F9FA"/>
<path d="M9.62843 33.4613C9.62225 25.8204 9.60987 18.1796 9.60369 10.5449C11.4529 10.4582 13.1413 11.0217 14.7679 11.839C15.2998 12.4954 15.6028 13.2508 15.6276 14.0805C15.776 19.3684 15.7822 24.6563 15.6276 29.9443C15.6028 30.774 15.3121 31.5356 14.7493 32.1734C13.1166 32.8978 11.4405 33.4551 9.62843 33.4613Z" fill="#F7F9FA"/>
<path d="M69.1444 32.8049C69.1444 25.5975 69.1444 18.3963 69.1444 11.1888C70.839 11.2631 72.2614 11.9752 73.5602 13.0155C73.5726 19.0031 73.5911 24.9969 73.6035 30.9907C72.3109 32.0743 70.7524 32.5077 69.1382 32.8049H69.1444Z" fill="#DF2925"/>
<path d="M54.1833 11.2012C54.1833 18.4025 54.1833 25.6037 54.1895 32.8049C52.5753 32.5077 51.0229 32.0743 49.7241 30.9907C49.7365 25.0031 49.755 19.0093 49.7674 13.0217C51.06 11.9876 52.4825 11.257 54.1833 11.2074V11.2012Z" fill="#DF2925"/>
<path d="M27.6758 22.2663C25.1648 25.1517 22.9878 28.4149 19.1719 29.8204C18.3988 29.3189 18.1514 28.5201 18.1019 27.6966C17.8669 23.8947 17.8607 20.0867 18.1081 16.2848C18.1638 15.4613 18.4173 14.6563 19.2152 14.1858C22.9878 15.8824 25.5977 18.7988 27.6758 22.2663Z" fill="#F5F7F8"/>
<path d="M19.209 14.1858C19.1966 19.3994 19.1781 24.6068 19.1657 29.8204C17.9782 31.1455 16.4259 31.7833 14.7498 32.1796C14.756 25.3994 14.7622 18.6192 14.7684 11.839C16.4692 12.2105 17.9968 12.8917 19.209 14.1858Z" fill="#DF2925"/>
<path d="M113.729 10.5449C113.723 18.1858 113.711 25.8266 113.705 33.4613C111.893 33.4613 110.223 32.8917 108.584 32.1734C107.007 25.3932 107.038 18.613 108.565 11.8328C110.192 11.0217 111.88 10.452 113.729 10.5387V10.5449Z" fill="#F7F9FA"/>
<path d="M95.6573 21.7028C98.1745 18.8359 100.351 15.6037 104.124 14.1486C104.699 14.483 105.039 15.0341 105.107 15.6533C105.547 19.8638 105.528 24.0805 105.114 28.291C105.052 28.9102 104.724 29.4613 104.161 29.8143C100.321 28.1672 97.7045 25.2322 95.6573 21.7028Z" fill="#F5F7F8"/>
<path d="M104.161 29.8143C104.149 24.5944 104.137 19.3746 104.124 14.1486C105.343 12.8731 106.876 12.2105 108.559 11.8328C108.565 18.613 108.571 25.3932 108.577 32.1734C106.895 31.7771 105.343 31.1393 104.155 29.8143H104.161Z" fill="#DF2925"/>
</g>
<defs>
<clipPath id="clip0_349_2637">
<rect width="44" height="122.667" fill="white" transform="translate(123) rotate(90)"/>
</clipPath>
</defs>
</svg>
