<svg width="136" height="98" viewBox="0 0 136 98" fill="none" xmlns="http://www.w3.org/2000/svg">
<path d="M72.9616 38.8882C72.9616 50.8249 72.8861 62.7545 73.0233 74.6912C73.0508 77.3345 72.2482 77.9953 69.7236 77.9814C52.5803 77.877 35.4369 77.8562 18.3004 78.0023C15.7005 78.0231 15.0007 76.9032 14.5617 74.7398C7.53695 39.9038 30.038 6.46599 64.7158 0.219434C70.2084 -0.768328 72.9547 1.57819 72.9547 7.25898C72.9547 17.8044 72.9547 28.3428 72.9547 38.8882H72.9616Z" fill="#0A9D57"/>
<g clip-path="url(#clip0_349_2897)">
<path d="M0.0524297 29.5194C0.102211 28.4498 0.792924 27.8559 1.89122 27.8497C4.06292 27.8372 6.23773 27.831 8.40943 27.8497C9.76908 27.8621 10.606 28.5679 10.5594 29.936C10.5251 30.9558 10.9638 31.2823 11.8474 31.4409C12.9302 31.6368 13.7298 32.3177 13.5991 33.4401C13.4591 34.6341 12.5693 35.1098 11.3372 35.0103C10.3602 34.9357 9.37394 34.9947 8.39077 34.9947C7.56315 34.9947 6.73554 34.9979 5.90793 34.9947C3.76734 34.9947 3.08597 34.4848 2.85884 32.4141C2.7655 31.5621 2.51971 31.273 1.66098 31.2357C0.66536 31.189 0.00264861 30.5361 0.0524297 29.5194Z" fill="#F7F9FA"/>
<path d="M12.2024 14.4488C12.2428 13.1398 13.1824 12.6143 14.4363 12.6206C15.4164 12.6237 16.3995 12.6206 17.3827 12.6206C18.1574 12.6206 18.9321 12.6143 19.7069 12.6206C21.8195 12.6361 22.5257 13.2486 22.7031 15.4002C22.7684 16.162 23.092 16.3423 23.7702 16.361C24.9712 16.3952 25.8113 17.0264 25.7739 18.2483C25.7366 19.5604 24.7939 20.0797 23.54 20.0766C21.6794 20.0766 19.8189 20.0952 17.9583 20.0703C16.1817 20.0455 15.351 19.2588 15.2732 17.4524C15.239 16.6844 15.0306 16.3361 14.2061 16.3299C13.0082 16.3206 12.165 15.6707 12.2024 14.4488Z" fill="#F7F9FA"/>
<path d="M78.0974 86.3008C52.1801 86.2603 26.2597 86.2666 0.339322 86.2603C-0.0184801 86.0147 -0.037148 85.6292 0.0344124 85.284C0.591339 82.6256 0.258427 79.9361 0.308209 77.2622C0.323765 76.3294 0.606895 75.9843 1.55896 75.9998C4.24714 76.0465 6.93843 76.0154 9.62661 76.0122C9.63284 75.7044 9.64217 75.3935 9.6515 75.0857C7.69137 73.5497 6.25705 71.6406 5.49167 69.2496C5.19609 68.3231 5.04986 67.2877 5.72813 66.5912C6.75798 65.5341 6.09215 64.9806 5.31743 64.4241C3.29508 62.9752 1.82653 61.0847 0.762461 58.8585C-0.488289 56.2405 0.435773 54.3252 3.28574 53.6194C5.33299 53.1157 5.23654 53.1468 4.56761 51.1569C3.74933 48.7348 3.00883 46.2878 3.41331 43.6387C3.90801 40.4082 6.24772 39.2578 9.1568 40.8652C11.5556 42.1898 13.4784 44.0274 15.0994 46.2007C15.6844 46.9843 15.9706 47.2174 16.7204 46.2194C18.833 43.4024 20.1429 43.3309 23.0333 45.5664C23.0924 43.8128 22.7999 42.0903 22.4857 40.3771C21.9848 37.6347 23.1795 35.0354 25.6997 33.8259C27.4576 32.9833 29.3057 32.3272 31.1134 31.5841C32.2366 31.1519 33.3598 30.7166 34.4829 30.2813C34.7039 30.185 34.9216 30.0886 35.1425 29.9922C35.1457 29.8927 35.1612 29.7963 35.1892 29.6999C35.2048 29.1185 35.0834 28.6614 34.5607 28.2386C33.0331 27.0011 32.0717 25.3687 31.7574 23.4192C31.6734 22.8969 31.4494 22.5797 31.0729 22.2968C28.7955 21.6158 28.2634 19.6757 29.8657 17.8941C29.8191 15.0242 30.2204 12.2943 32.3548 10.1209C35.6372 5.49437 43.9849 5.4042 46.9873 10.2826C47.174 10.5842 47.4354 10.8423 47.6625 11.119C49.3395 8.64404 51.5205 6.93084 54.6132 6.73807C58.5397 6.49244 61.9528 8.81816 63.2284 12.5337C64.4325 16.0347 63.1195 20.027 60.0673 22.1475C56.788 24.4235 52.8864 24.237 49.7346 21.6563C49.3364 21.8615 48.9381 22.0667 48.5399 22.275C48.039 22.5922 47.5847 22.8316 47.5412 23.6089C47.4603 24.9521 46.5206 26.0092 46.0228 27.2187C46.7851 28.4438 46.1006 29.3859 45.4192 30.3311C46.5518 30.8503 47.6843 31.3727 48.8199 31.8919C50.584 32.3117 52.2579 33.0175 53.854 33.8197C56.3151 35.0634 57.4787 37.2399 57.5378 39.9822C57.5721 41.5306 57.5534 43.079 57.5596 44.6274C57.765 44.6088 57.9827 44.6305 58.1725 44.5715C60.6523 43.7724 61.6728 43.99 63.0324 46.0577C63.8165 47.2517 64.2583 46.9563 64.9085 46.0608C66.2558 44.2077 67.9265 42.6655 69.7902 41.3596C70.4934 40.8684 71.3614 40.5326 72.2015 40.3429C74.6563 39.7894 76.3831 41.2601 76.5262 43.8439C76.6693 46.4712 76.0937 48.9555 75.1666 51.3838C74.9488 51.956 74.7497 52.5374 74.5474 53.097C74.9239 53.4857 75.3626 53.2836 75.7484 53.352C79.5846 54.0329 80.6207 56.4613 78.6046 59.8441C77.4969 61.7004 75.8884 63.0778 74.4136 64.5889C73.8598 65.1547 73.3962 65.5216 74.0247 66.4886C75.4653 68.7086 73.8567 70.5275 72.8362 72.306C72.0739 73.6368 70.9507 74.7499 69.7249 75.7169V75.7075C69.7249 75.7075 69.7218 75.7138 69.7218 75.7169H69.6409C69.6222 75.8164 69.6346 75.919 69.6782 76.0154C72.5593 76.0154 75.4373 76.0496 78.3152 75.9998C79.3202 75.9812 79.6686 76.3138 79.6438 77.3244C79.5878 79.79 79.6251 82.2556 79.622 84.7213C79.8118 85.9214 79.3482 86.3008 78.0974 86.3008Z" fill="#F7F9FA"/>
<path d="M28.7518 62.9252C28.7518 62.9252 28.7455 62.9501 28.7455 62.9625C28.7269 63.0465 28.7113 63.1273 28.6989 63.2113C28.5371 64.0445 28.4033 64.8809 28.2477 65.7142C28.2353 65.8013 28.2197 65.8883 28.2011 65.9723C28.1886 66.05 28.1731 66.1246 28.1575 66.2024C28.1295 66.9828 28.2664 67.7912 27.8059 68.5032C27.8059 68.5063 27.8028 68.5125 27.7997 68.5157C27.7997 68.5188 27.7966 68.5188 27.7966 68.5219C27.1526 68.8297 26.7979 68.4659 26.4961 67.9715C26.493 67.9404 26.4898 67.9125 26.4867 67.8814C26.4805 67.8223 26.4743 67.7663 26.4712 67.7073C26.3032 65.7329 26.7107 63.7834 26.7543 61.8121C26.7668 61.3022 26.9534 60.7985 26.8041 60.0212C26.2689 62.1697 26.3498 64.1534 26.0107 66.0811C25.9236 66.5786 25.964 67.1072 25.6902 67.558C25.6716 67.5922 25.6467 67.6233 25.6218 67.6575C25.6124 67.6731 25.6 67.6886 25.5876 67.7041C24.455 68.2731 23.2167 68.1425 22.0189 68.2545C21.9069 68.1861 21.8011 68.1177 21.6984 68.0462C21.6704 68.0244 21.6393 68.0057 21.6113 67.9809C20.2081 66.9517 19.6169 65.4468 19.5236 63.7367C19.3867 61.2524 19.8192 58.7868 19.981 56.3149C20.1459 53.8431 20.1988 51.365 20.3232 48.8807C20.0463 50.2332 19.8472 51.592 19.7258 52.9601C19.4987 55.4848 19.2436 58.0064 18.9293 60.5187C18.8609 61.0566 18.8671 61.8401 18.2604 61.9738C17.6164 62.1168 17.3799 61.3519 17.1123 60.8855C14.4957 56.3585 11.8729 51.8376 9.20647 47.3385C8.99801 46.9841 8.81133 46.6141 8.28863 46.1166C8.39753 46.897 8.70555 47.323 8.96068 47.7676C11.4528 52.1237 13.9543 56.4797 16.4278 60.8482C16.6083 61.1623 16.8199 61.4639 16.9132 61.8183C17.1092 62.5645 16.8199 62.919 16.0451 62.8226C15.5256 62.7573 15.0557 62.5241 14.5828 62.3158C11.6426 61.0192 8.65888 59.8377 5.71246 58.5567C5.21154 58.3391 4.71995 57.9971 3.85189 58.137C6.88854 59.6045 9.74473 60.9135 12.6134 62.1883C14.2717 62.9252 15.8989 63.7243 17.551 64.4643C19.1907 65.1981 19.9685 66.6408 20.3481 68.3229C20.3605 68.3695 20.3699 68.4131 20.3792 68.4597C20.3823 68.469 20.3823 68.4752 20.3854 68.4846C20.2392 68.9789 20.0681 69.4578 19.7663 69.8589C19.7227 69.9179 19.6761 69.9739 19.6263 70.0268C19.5236 70.1418 19.4085 70.2475 19.2747 70.3439C18.0644 70.8445 16.8168 71.1492 15.4944 71.0528C15.3233 71.0062 15.1553 70.9533 14.9904 70.8942C14.8255 70.8414 14.6637 70.7823 14.505 70.717H14.4988C13.1641 70.2009 11.8698 69.4826 10.2737 69.122C11.2724 70.176 12.7129 70.0423 13.4596 71.0342C13.4628 71.0528 13.4628 71.0715 13.4628 71.0901V71.1057C13.4628 71.429 13.2201 71.5938 12.9681 71.7182C11.7422 72.3214 10.8275 73.22 10.2861 74.4854C10.1648 74.7653 9.97808 75.0078 9.65139 75.0855C7.69126 73.5495 6.25694 71.6405 5.49156 69.2494C5.19598 68.3229 5.04975 67.2875 5.72802 66.591C6.75786 65.5339 6.09204 64.9804 5.31732 64.4239C3.29497 62.975 1.82642 61.0845 0.762353 58.8583C-0.488397 56.2403 0.435664 54.325 3.28563 53.6192C5.33288 53.1155 5.23643 53.1466 4.56749 51.1567C3.74922 48.7346 3.00872 46.2876 3.4132 43.6385C3.9079 40.408 6.24761 39.2576 9.15669 40.8651C11.5555 42.1896 13.4783 44.0272 15.0993 46.2005C15.6842 46.9841 15.9705 47.2173 16.7203 46.2192C18.8329 43.4022 20.1428 43.3307 23.0332 45.5662C23.6554 46.2378 23.419 47.0214 23.3132 47.78C22.7531 51.763 23.9821 53.8866 27.753 55.3977C28.1077 55.5376 28.4531 55.6838 28.702 55.9636C28.7455 56.004 28.7798 56.0507 28.8109 56.0973C28.8327 56.1253 28.8513 56.1533 28.87 56.1844C29.8501 58.451 29.2434 60.6866 28.7518 62.9252Z" fill="#E9E9E9"/>
<path d="M79.622 84.7211C78.7757 85.4331 77.7552 85.2372 76.7875 85.2372C58.5521 85.2497 40.3135 85.2466 22.075 85.2466C15.7559 85.2466 9.43371 85.2497 3.11462 85.2403C2.05055 85.2403 1.02692 85.2745 0.339322 86.2602C-0.0184801 86.0145 -0.037148 85.629 0.0344124 85.2839C0.591338 82.6255 0.258427 79.936 0.308208 77.262C0.323765 76.3292 0.606895 75.9841 1.55896 75.9996C4.24714 76.0463 6.93843 76.0152 9.62661 76.0121C10.2427 76.4007 10.3578 77.1127 10.6845 77.688C11.425 78.997 12.4952 79.8707 14.0229 79.8458C20.2611 79.7463 26.5149 80.3308 32.7282 79.4105C32.7562 79.4043 32.781 79.4012 32.809 79.3949C32.8962 79.3825 32.9833 79.367 33.0673 79.3514C34.1034 79.1711 35.1394 78.9876 36.1475 78.6954C36.2004 78.6798 36.2564 78.6643 36.3093 78.6487C36.4213 78.6176 36.5302 78.5865 36.6391 78.5523C38.1356 78.1015 39.5886 77.5076 41.082 77.0506C41.2065 77.0101 41.3341 76.9728 41.4585 76.9386C41.5114 76.92 41.5612 76.9075 41.6141 76.892C41.8536 76.8578 42.0963 76.8609 42.3359 76.8858H42.3515C42.4044 76.8982 42.4541 76.9075 42.5039 76.92C43.4498 77.1438 44.3147 77.5791 45.2357 77.8776C45.2574 77.887 45.2823 77.8963 45.3072 77.9025C45.3321 77.9118 45.357 77.918 45.3819 77.9274C51.7228 80.2313 58.3188 80.0012 64.8992 79.88C66.6789 79.8489 67.8892 78.8633 68.7168 77.3522C68.9844 76.864 69.0435 76.2359 69.6782 76.0152C72.5593 76.0152 75.4372 76.0494 78.3152 75.9996C79.3202 75.981 79.6686 76.3137 79.6437 77.3242C79.5877 79.7898 79.6251 82.2555 79.622 84.7211Z" fill="#FEF4E0"/>
<path d="M28.6249 63.342C28.9858 63.5489 29.3709 63.6185 29.7508 63.6385C29.9818 63.6507 30.2252 63.6445 30.4602 63.6384C30.6012 63.6348 30.7391 63.6312 30.8696 63.6318H30.8698C36.763 63.6473 42.6591 63.6442 48.5521 63.6349C48.6527 63.6349 48.7548 63.6361 48.8579 63.6374C49.5254 63.6455 50.2369 63.6541 50.9041 63.3307L50.9124 63.3267L50.9201 63.3217C50.981 63.2823 51.0361 63.2385 51.0847 63.1899L51.0941 63.1808C51.0958 63.1792 51.0977 63.1773 51.0998 63.1753C51.1026 63.1726 51.1057 63.1696 51.1088 63.1666C51.1159 63.1595 51.1275 63.1475 51.139 63.132C51.5684 62.6754 51.4451 62.0687 51.3426 61.6259C50.8057 59.302 51.114 57.0123 51.5769 54.6964L51.5784 54.6888L51.5791 54.681C51.5837 54.6328 51.589 54.5851 51.5944 54.5359C51.5999 54.4871 51.6054 54.4369 51.6102 54.3857C51.6193 54.2889 51.6315 54.1917 51.644 54.0918L51.6443 54.0893C51.7126 53.4594 51.79 52.8316 51.895 52.2109L51.8952 52.2102C51.9386 51.9469 51.9848 51.6853 52.0401 51.4275L52.0405 51.4255C52.0838 51.2091 52.13 50.9938 52.1821 50.7822L52.1843 50.7735L52.1854 50.7647C52.2535 50.2155 52.2627 49.6674 52.2612 49.1259C52.2608 48.9982 52.2598 48.8711 52.2589 48.7444C52.2558 48.3311 52.2527 47.9223 52.2704 47.5129L52.2704 47.5128C52.3582 45.4653 52.1075 43.5371 51.1085 41.6319C49.8963 39.3137 49.4023 36.7464 49.4578 34.09L49.4578 34.0899C49.4594 34.0117 49.4622 33.9317 49.4649 33.8504C49.4879 33.1722 49.5139 32.4039 48.9281 31.7883L48.9081 31.7673L48.8818 31.7553C48.2078 31.4471 47.5352 31.138 46.8629 30.829C46.4023 30.6173 45.9419 30.4057 45.4812 30.1945L45.4684 30.1887L45.4547 30.1853C45.1045 30.0986 44.8323 30.1689 44.6134 30.3334C44.4054 30.4896 44.2546 30.7248 44.1233 30.9441L44.1165 30.9554L44.1118 30.9677C44.085 31.0381 44.0619 31.1108 44.0424 31.1789L44.0424 31.1789L44.0418 31.1812C43.9826 31.4012 43.9531 31.6177 43.9465 31.8334C43.9221 32.4165 44.0689 32.9883 44.2071 33.5266C44.2151 33.5579 44.2232 33.5892 44.2311 33.6203L44.2311 33.6204C44.7191 35.5225 44.2854 37.146 42.9569 38.5707L42.9567 38.5706L42.9516 38.5767C42.8467 38.7018 42.7299 38.8128 42.6068 38.9095L42.6058 38.9103C42.4286 39.0519 42.2356 39.1708 42.0319 39.2726L42.0306 39.2733C41.7764 39.4033 41.5082 39.5112 41.2324 39.6216L41.2139 39.629C40.9464 39.736 40.6718 39.8458 40.4085 39.978M28.6249 63.342C28.4946 63.2699 28.3735 63.1786 28.2582 63.0732L28.1986 63.0188L28.2112 62.939C28.2683 62.5796 28.331 62.2221 28.3935 61.8661C28.7299 59.9484 29.059 58.073 28.4589 56.1608L28.4402 56.1011L28.4695 56.0457C28.5028 55.9829 28.5422 55.9261 28.5816 55.8735L28.5827 55.8721L28.5828 55.8721C28.7205 55.6932 28.9118 55.5357 29.1574 55.4926C31.6677 55.0304 32.8911 53.1163 34.1427 51.1582C34.2013 51.0665 34.26 50.9746 34.3189 50.8829L34.319 50.8827C36.1881 47.9785 37.8313 44.9507 39.0336 41.7085C39.2165 41.2138 39.4463 40.7235 39.839 40.3245L39.8476 40.3158L39.8575 40.3086C39.9418 40.247 40.0267 40.1915 40.1181 40.1392C40.2106 40.0818 40.3075 40.0269 40.4085 39.978M28.6249 63.342C28.6253 63.3422 28.6256 63.3424 28.626 63.3426L28.6985 63.2113L28.6238 63.3413C28.6242 63.3415 28.6245 63.3418 28.6249 63.342ZM40.4085 39.978C40.4082 39.9782 40.4078 39.9784 40.4075 39.9786L40.4748 40.1126L40.4095 39.9776C40.4092 39.9777 40.4089 39.9779 40.4085 39.978ZM34.261 51.2517C34.3223 51.1557 34.3837 51.0597 34.4451 50.9639L28.7016 55.9636C28.8261 55.8019 28.9879 55.6744 29.1839 55.6402C31.7605 55.1661 33.0175 53.1983 34.261 51.2517Z" fill="#DF2925" stroke="black" stroke-width="0.3"/>
<path d="M34.2503 36.2288C33.6525 37.3377 33.048 38.4435 32.4358 39.5634L32.4109 39.6089C31.789 40.7466 31.1592 41.899 30.52 43.0847L30.2711 43.5466L30.2383 43.0229C30.2275 42.851 30.2155 42.6801 30.2034 42.5103C30.1261 41.4174 30.0517 40.3662 30.3561 39.3426C30.7753 37.9091 31.1362 36.4709 31.281 35.0019C31.281 35.0019 31.281 35.0018 31.281 35.0018L31.4303 35.0165C31.4481 34.8341 31.4711 34.6502 31.4942 34.4656C31.6163 33.4896 31.7409 32.4939 31.1129 31.5839L34.2503 36.2288ZM34.2503 36.2288C34.3173 36.1281 34.3853 36.0231 34.4478 35.9171C34.5409 35.7775 34.6319 35.6364 34.7171 35.4914M34.2503 36.2288L45.3125 30.2218M41.6329 36.4435C41.5114 36.8133 41.4135 37.1898 41.3169 37.5612C41.3044 37.6091 41.292 37.6569 41.2795 37.7046C41.1699 38.1243 41.0579 38.5369 40.9098 38.9382L40.9057 38.9492L40.9037 38.959C40.9035 38.9598 40.903 38.9615 40.902 38.9644L40.9016 38.9656C40.8998 38.971 40.8962 38.9815 40.8931 38.9944C40.8756 39.0498 40.8582 39.1016 40.8382 39.1559L40.8377 39.1571C40.7255 39.4699 40.5596 39.7579 40.3562 40.0208L40.3546 40.023C40.2508 40.1623 40.1342 40.294 40.0067 40.4244L39.9847 40.4469L39.9736 40.4763C38.335 44.8214 36.2218 48.9054 33.5843 52.735C32.3567 54.5152 30.9227 55.7269 28.7962 55.948C28.7958 55.948 28.7954 55.948 28.7951 55.9481L28.6931 55.9572L28.6175 55.9639C28.5625 55.9475 28.5077 55.9312 28.4529 55.9149C27.0469 55.4959 25.701 55.0948 24.6671 53.9895C23.0678 52.2756 22.5446 50.2694 22.9655 48.0256C23.1235 47.1952 23.1579 46.3856 23.1828 45.571C23.2425 43.7993 22.9469 42.0622 22.6328 40.3498C22.143 37.6684 23.31 35.1387 25.7641 33.9609C26.9602 33.3876 28.1946 32.9025 29.4354 32.4148C29.9751 32.2027 30.516 31.9901 31.0554 31.7696L41.7754 36.4903M41.6329 36.4435L41.7754 36.4903M41.6329 36.4435C41.6329 36.4436 41.6329 36.4437 41.6328 36.4438L41.7754 36.4903M41.6329 36.4435C41.732 36.1396 41.813 35.8264 41.8954 35.5077L41.8981 35.4974C41.981 35.1766 42.0656 34.8504 42.1705 34.5323C42.3806 33.8949 42.6756 33.2784 43.2194 32.7708M41.7754 36.4903C41.876 36.1819 41.958 35.8647 42.0401 35.5474C42.2905 34.5788 42.5414 33.6088 43.3218 32.8805M43.2194 32.7708L43.3218 32.8805M43.2194 32.7708C43.5371 32.4741 43.7703 32.1375 43.9637 31.7691L43.9644 31.7677C44.113 31.4919 44.2382 31.2024 44.3623 30.9017L44.3794 30.8603L44.4163 30.8351C44.5687 30.731 44.7219 30.6261 44.8751 30.5211C45.0211 30.4212 45.1671 30.3212 45.3125 30.2218M43.2194 32.7708C43.2194 32.7708 43.2194 32.7708 43.2194 32.7708L43.3218 32.8805M43.3218 32.8805L45.3125 30.2218M45.3125 30.2218C45.6511 29.7521 45.9689 29.3066 46.119 28.8342C46.2672 28.3677 46.2521 27.8716 45.895 27.2978L45.8826 27.2778L45.8769 27.255C45.5723 26.0389 45.0571 25.3022 44.371 24.9917C43.6842 24.6809 42.7764 24.7747 41.6333 25.3383L41.6326 25.3386C41.5906 25.359 41.547 25.3818 41.5015 25.4055C41.3215 25.4995 41.1137 25.6079 40.8768 25.6385L40.8478 25.6423L40.8194 25.6348C40.7548 25.6178 40.694 25.5976 40.6339 25.5743C40.4602 25.5117 40.2904 25.4287 40.1302 25.3503C40.0985 25.3348 40.0672 25.3195 40.0362 25.3046L40.0345 25.3037L40.0222 25.2973L40.0193 25.2966L40.0083 25.2918C39.987 25.2828 39.9698 25.2749 39.9545 25.268C39.9297 25.2567 39.9099 25.2477 39.8862 25.2393L39.876 25.2356L39.8762 25.2353C39.7011 25.1582 39.5277 25.1023 39.3473 25.0857L39.3466 25.0856C39.2706 25.0783 39.1931 25.0797 39.1086 25.0886C38.898 25.1964 38.7901 25.3458 38.746 25.5037C38.6991 25.6717 38.7206 25.8645 38.7965 26.048L38.6579 26.1054M38.6579 26.1054L38.7964 26.0478C39.0562 26.6722 39.0482 27.2193 38.8751 27.7196C38.7078 28.2031 38.3889 28.6344 38.034 29.0451C38.0291 29.0608 38.0239 29.0762 38.0187 29.0905C38.0136 29.1142 38.0064 29.1355 38 29.1522C37.8089 29.7742 37.5686 30.3897 37.1361 30.9032L37.136 30.9032C37.083 30.9662 37.0243 31.0281 36.967 31.0854C36.915 31.1401 36.859 31.1915 36.8041 31.239C36.2028 32.7013 35.5407 34.1339 34.7171 35.4914M38.6579 26.1054C39.1495 27.2869 38.6206 28.142 37.8987 28.9721L39.3611 24.9363C39.2646 24.927 39.1681 24.9301 39.0655 24.9425C38.5428 25.1944 38.4868 25.6919 38.6579 26.1054ZM34.7171 35.4914C34.7169 35.4917 34.7167 35.492 34.7165 35.4923L34.5883 35.4145L34.7176 35.4905C34.7174 35.4908 34.7173 35.4911 34.7171 35.4914Z" fill="#FBD1C4" stroke="black" stroke-width="0.3"/>
<path d="M78.6045 59.8439C77.4969 61.7001 75.8883 63.0775 74.4136 64.5886C73.8598 65.1545 73.3962 65.5214 74.0247 66.4884C75.4652 68.7084 73.8567 70.5273 72.8361 72.3058C72.0739 73.6366 70.9507 74.7497 69.7248 75.7167V75.7073C69.5879 73.7081 68.2749 71.7213 69.6502 69.7065C69.6315 69.5386 69.6159 69.4049 69.591 69.3054C69.535 69.0504 69.4292 69.0193 69.0808 69.1872C68.9159 69.265 68.695 69.3893 68.3994 69.5541C67.4007 70.0454 66.7255 69.7345 66.3148 68.7302C65.6739 67.1693 64.8089 65.6924 64.5631 63.9854C64.6005 63.9201 64.6378 63.8611 64.6783 63.802C64.7 63.7647 64.7249 63.7305 64.756 63.6963C65.4281 62.7977 66.5388 62.5614 67.4878 62.1106C70.2786 60.7922 73.1286 59.5858 75.8386 58.0779C74.5443 58.1587 73.4615 58.8614 72.3103 59.3309C70.1106 60.2232 67.9545 61.2182 65.7548 62.1074C65.2819 62.2971 64.8121 62.5334 64.2925 62.5303C64.2302 62.5303 64.1711 62.5272 64.1058 62.5179C64.0622 62.5179 64.0187 62.5085 63.972 62.4992C63.5551 62.3189 63.4555 61.9551 63.4213 61.554C63.4555 61.4203 63.4897 61.2866 63.5271 61.156C63.5551 61.069 63.5831 60.9819 63.6111 60.8979C64.252 58.9453 65.537 57.3161 66.5139 55.5376C67.9825 52.873 69.451 50.2052 71.0067 47.5872C71.24 47.1955 71.5014 46.7944 71.4641 45.986C69.9768 48.2371 68.8381 50.4011 67.5936 52.4936C66.405 54.4867 65.2694 56.5139 64.0684 58.5007C63.7884 58.9609 63.5644 59.5548 62.967 59.648C62.9297 59.6574 62.8924 59.6605 62.8519 59.6605C62.7741 59.6636 62.6901 59.6605 62.5999 59.648C61.651 58.8614 60.9571 57.8136 60.9322 56.6445C60.8793 54.1509 60.2477 51.7878 59.669 49.4061C59.6162 49.0983 59.6659 48.7532 59.6068 48.4454C59.585 48.3272 59.5477 48.2153 59.4824 48.1158C59.4015 47.9914 59.2832 47.8826 59.1028 47.7955C58.3841 46.8379 57.5969 45.9145 57.5596 44.6272C57.7649 44.6086 57.9827 44.6303 58.1725 44.5713C60.6522 43.7722 61.6727 43.9898 63.0324 46.0575C63.8164 47.2514 64.2582 46.9561 64.9085 46.0606C66.2557 44.2075 67.9265 42.6653 69.7902 41.3594C70.4933 40.8681 71.3614 40.5323 72.2014 40.3427C74.6563 39.7892 76.383 41.2599 76.5262 43.8437C76.6693 46.471 76.0937 48.9553 75.1665 51.3836C74.9487 51.9557 74.7496 52.5372 74.5474 53.0968C74.9238 53.4855 75.3625 53.2834 75.7483 53.3518C79.5846 54.0327 80.6207 56.461 78.6045 59.8439Z" fill="#E9E9E9"/>
<path d="M63.6111 60.8979C63.496 60.4316 63.3777 59.9683 62.967 59.648C62.9235 59.6138 62.8768 59.5827 62.827 59.5516C62.7205 59.4043 62.6073 59.2554 62.4929 59.1049C61.9288 58.3628 61.3336 57.5799 61.3492 56.7347C61.3936 54.6039 60.9017 52.5944 60.4091 50.582C60.2806 50.0573 60.1521 49.5324 60.0331 49.0051C59.9236 48.8485 59.8758 48.6621 59.8281 48.4759C59.7564 48.1962 59.6847 47.9169 59.4046 47.7396C59.1668 47.3388 58.9295 46.9379 58.6923 46.5373C58.3149 45.8999 57.9378 45.263 57.5596 44.6272C57.5576 44.1318 57.5581 43.6363 57.5587 43.1408C57.5599 42.0879 57.5611 41.0349 57.5378 39.982C57.4787 37.2397 56.315 35.0632 53.854 33.8195M63.6111 60.8979L59.3984 65.966C59.3806 65.9439 59.3645 65.9202 59.3488 65.8971C59.3425 65.8878 59.3362 65.8786 59.3299 65.8696C58.534 64.6011 57.6659 63.3825 56.7977 62.1638C56.0743 61.1483 55.3508 60.1328 54.6692 59.0884C53.7228 57.6416 53.0593 56.062 52.3955 54.4816C52.3631 54.4045 52.3307 54.3274 52.2983 54.2504C52.2952 54.2442 52.2929 54.2379 52.2906 54.2317C52.2882 54.2255 52.2859 54.2193 52.2828 54.2131M63.6111 60.8979C63.6194 60.9291 63.6277 60.9604 63.636 60.9918C63.6739 61.1353 63.7119 61.2794 63.7604 61.4172L63.6111 60.8979ZM53.854 33.8195C52.3026 33.0398 50.6778 32.3511 48.9681 31.9277C48.9652 31.9785 48.9624 32.0294 48.9596 32.0802M53.854 33.8195L53.7866 33.9535C53.7866 33.9535 53.7865 33.9535 53.7865 33.9534M53.854 33.8195L53.7863 33.9534C53.7864 33.9534 53.7864 33.9534 53.7865 33.9534M48.9596 32.0802C48.9103 32.0679 48.8609 32.0558 48.8114 32.0439C48.6522 34.9521 48.6719 37.9132 49.9991 40.5168M48.9596 32.0802C50.6443 32.5005 52.2489 33.1807 53.7865 33.9534M48.9596 32.0802C48.8022 34.9778 48.8295 37.892 50.1327 40.4487M49.9991 40.5168C51.4956 43.4519 51.7725 46.4524 51.5921 49.6083M49.9991 40.5168L50.1327 40.4487C50.1327 40.4487 50.1327 40.4487 50.1327 40.4487M49.9991 40.5168L50.1327 40.4487M51.5921 49.6083C51.5771 49.8883 51.5945 50.1714 51.6119 50.4543C51.6198 50.5828 51.6277 50.7113 51.6325 50.8395C51.645 51.2935 51.6823 51.7443 51.7476 52.1858M51.5921 49.6083L51.7419 49.6163C51.7419 49.6164 51.7418 49.6165 51.7418 49.6166M51.5921 49.6083L51.7418 49.6168C51.7418 49.6167 51.7418 49.6167 51.7418 49.6166M51.7476 52.1858C51.8441 52.8232 51.9997 53.4482 52.2268 54.0576C52.2366 54.091 52.249 54.1232 52.2614 54.1558C52.2687 54.1747 52.2759 54.1936 52.2828 54.2131M51.7476 52.1858L51.8959 52.1634C51.896 52.1635 51.896 52.1636 51.896 52.1637M51.7476 52.1858L51.896 52.1639C51.896 52.1638 51.896 52.1638 51.896 52.1637M52.2828 54.2131L52.4169 54.1459C52.4187 54.1494 52.4203 54.1528 52.4217 54.1561M52.2828 54.2131L52.4242 54.1631C52.4234 54.1607 52.4225 54.1584 52.4217 54.1561M53.7865 33.9534C56.1908 35.1685 57.3297 37.2898 57.3878 39.9852L57.3878 39.9853C57.4111 41.0365 57.4099 42.0865 57.4087 43.1384C57.4081 43.6343 57.4076 44.1307 57.4096 44.6278L57.4097 44.6688L57.4307 44.7039C57.8089 45.3397 58.1859 45.9763 58.5632 46.6136C58.8004 47.0142 59.0377 47.4151 59.2756 47.8161L59.2939 47.8471L59.3244 47.8663C59.5091 47.9833 59.5848 48.1555 59.6467 48.3766C59.6576 48.4156 59.669 48.4597 59.6808 48.5057C59.6998 48.5795 59.72 48.658 59.7417 48.728C59.7765 48.8403 59.822 48.9569 59.893 49.0656C60.0116 49.5895 60.1388 50.1092 60.2655 50.6273C60.7574 52.6373 61.2432 54.6224 61.1992 56.7315L61.1992 56.7319C61.1891 57.2834 61.4185 57.7993 61.7171 58.2764C61.9146 58.5919 62.1521 58.9044 62.3795 59.2036C62.4927 59.3527 62.6034 59.4984 62.7055 59.6395L62.7227 59.6633L62.7476 59.6789C62.7952 59.7086 62.8368 59.7365 62.8744 59.766L62.8748 59.7663C63.2388 60.0502 63.3487 60.4609 63.4655 60.9339L63.4654 60.9339L63.4662 60.9368C63.4742 60.9667 63.4823 60.9972 63.4904 61.028C63.5263 61.1641 63.564 61.307 63.611 61.4442C63.6115 61.47 63.6118 61.4969 63.6121 61.5246C63.6135 61.6601 63.615 61.8153 63.6462 61.9567C63.6881 62.1466 63.7844 62.3274 63.9955 62.4622C64.064 62.5196 64.1267 62.5767 64.1864 62.6364L64.1875 62.6374C64.4908 62.9348 64.6637 63.2568 64.6076 63.6745C64.5991 63.728 64.5877 63.7825 64.5728 63.845L64.5614 63.8929L64.5806 63.9384C64.7824 64.4134 64.9899 64.8845 65.1969 65.3544C65.6737 66.4368 66.1481 67.5136 66.5438 68.622L66.5438 68.6221C66.7406 69.1719 67.0021 69.4953 67.3659 69.5862C67.7136 69.673 68.0988 69.5299 68.5001 69.3081C68.8004 69.1937 69.0577 69.0963 69.2834 69.1062C69.3908 69.1109 69.4874 69.1404 69.5764 69.2059C69.6584 69.2662 69.7414 69.3626 69.8196 69.5148C69.3605 71.0783 69.0979 72.6551 69.8081 74.2962L69.8082 74.2966C69.8699 74.4382 69.8509 74.6365 69.7855 74.8943C69.7618 74.9878 69.734 75.0823 69.7054 75.1799C69.6955 75.2133 69.6856 75.2472 69.6756 75.2815C69.6485 75.3752 69.6218 75.4713 69.6003 75.5666H69.5856L69.5436 75.6024C68.7056 76.3158 67.9855 76.5967 67.3454 76.4943C66.7048 76.3918 66.0911 75.8968 65.4869 74.9283L65.4869 74.9283C65.1877 74.4493 64.9012 73.9565 64.6133 73.4611C63.9735 72.3602 63.3265 71.2471 62.5166 70.2469C62.4596 70.157 62.402 70.0662 62.3443 69.9781C62.288 69.8844 62.2282 69.79 62.1649 69.6982C61.576 68.7735 60.9624 67.8615 60.3367 66.9624L60.3356 66.9608C60.3208 66.9402 60.306 66.9187 60.2903 66.896L60.29 66.8956C60.275 66.8739 60.2592 66.851 60.2433 66.8287C60.2371 66.8196 60.2312 66.8123 60.2284 66.8088L60.228 66.8082C60.2273 66.8073 60.2267 66.8067 60.2264 66.8062L60.2266 66.806L60.2204 66.798C60.1464 66.7018 60.0726 66.6071 59.9993 66.513C59.8859 66.3674 59.7735 66.2229 59.6623 66.0761C59.6434 66.0498 59.6254 66.0252 59.6079 66.0013C59.5787 65.9614 59.5508 65.9232 59.5223 65.8815L59.5226 65.8812L59.5155 65.8723C59.5015 65.8548 59.4903 65.8383 59.4763 65.8179C59.47 65.8085 59.463 65.7983 59.455 65.7867C58.7233 64.6209 57.9315 63.4978 57.1369 62.3815C57.0646 62.28 56.9923 62.1785 56.9201 62.0771C56.1963 61.0611 55.4747 60.0481 54.7948 59.0064L54.7947 59.0063C53.856 57.5713 53.1974 56.0032 52.5322 54.4196C52.5003 54.3439 52.4685 54.2681 52.4366 54.1922L52.4369 54.1921L52.433 54.1844M50.1327 40.4487C51.6458 43.4164 51.9231 46.4465 51.7418 49.6166M51.7418 49.6166C51.7274 49.8879 51.7439 50.1564 51.761 50.4346C51.7691 50.5651 51.7773 50.6978 51.7824 50.8338L51.7825 50.8354C51.7948 51.2838 51.8316 51.7286 51.896 52.1637M51.896 52.1637C51.991 52.7917 52.1442 53.4064 52.3673 54.0052L52.371 54.0151L52.3707 54.0152C52.3792 54.0443 52.3879 54.0666 52.3984 54.0939C52.4052 54.1115 52.4128 54.1312 52.4217 54.1561M52.4217 54.1561C52.4259 54.1655 52.429 54.1736 52.4306 54.178L52.431 54.179C52.4322 54.1822 52.4328 54.1838 52.433 54.1844M52.433 54.1844L52.4325 54.1832C52.4329 54.184 52.4331 54.1847 52.4332 54.1847C52.4332 54.1847 52.4331 54.1846 52.433 54.1844Z" fill="#FBD1C4" stroke="black" stroke-width="0.3"/>
<path d="M60.0675 22.1473C56.7881 24.4233 52.8865 24.2367 49.7348 21.6561C49.7503 20.5181 49.9619 19.3521 49.4641 18.2856C49.4268 18.2048 49.3832 18.1208 49.3365 18.04C49.2899 17.9592 49.237 17.8783 49.181 17.8006C49.0036 15.8355 48.6427 13.9233 47.7155 12.1511C47.5506 11.837 47.448 11.4733 47.6626 11.1188C49.3396 8.64383 51.5207 6.93063 54.6133 6.73786C58.5398 6.49223 61.9529 8.81795 63.2286 12.5335C64.4326 16.0345 63.1197 20.0268 60.0675 22.1473Z" fill="#FF4D00"/>
<path d="M63.5963 80.3176L63.5963 80.3176C57.5244 80.4016 51.4985 80.3752 45.6997 78.3209C45.5818 78.2784 45.4774 78.2226 45.3625 78.1612C45.3398 78.149 45.3167 78.1367 45.2931 78.1242C45.3191 78.0619 45.3453 78 45.3726 77.9382L45.3726 77.9382L45.3736 77.9357C46.3585 75.5918 47.5337 73.341 48.7122 71.0839C49.1014 70.3384 49.4909 69.5923 49.8741 68.8419L49.8743 68.8415C49.9682 68.6563 50.1408 68.52 50.3581 68.423C50.4091 68.4176 50.457 68.413 50.5045 68.4105L50.5045 68.4107L50.5134 68.4097C50.703 68.3883 50.8958 68.373 51.0856 68.3639L51.0856 68.3639L51.087 68.3638C53.6537 68.2161 56.1502 68.7132 58.6693 69.2147C58.9914 69.2788 59.3139 69.343 59.637 69.406L59.638 69.4062L59.7854 69.4341L59.9295 69.4614C59.9456 69.4652 59.9613 69.468 59.9724 69.4699L59.9741 69.4702C59.9883 69.4727 59.9962 69.4742 60.0026 69.4758L60.0153 69.4789L60.0283 69.4799C60.7252 69.5296 61.3872 69.6065 61.9696 69.9138L61.9696 69.9138L61.9716 69.9148C62.1321 69.9964 62.2876 70.0989 62.4383 70.2228C63.4746 71.0956 64.0997 72.2529 64.738 73.4348C64.8494 73.6411 64.9613 73.8481 65.0757 74.0545L65.0758 74.0546C65.4313 74.6943 65.7289 75.1944 66.0165 75.5654C66.3047 75.9373 66.5916 76.1912 66.93 76.3246C67.2696 76.4583 67.6412 76.4629 68.0836 76.3749C68.4774 76.2966 68.9375 76.1426 69.4943 75.9306C69.5002 75.961 69.5084 75.9911 69.5187 76.0207C68.9688 77.7468 68.3923 78.7932 67.5253 79.4236C66.6489 80.0607 65.4484 80.2928 63.5963 80.3176Z" fill="#616161" stroke="black" stroke-width="0.3"/>
<path d="M32.9167 79.3477L32.9168 79.3445C32.9276 79.1107 32.8542 78.8911 32.7421 78.6647C32.6859 78.5514 32.6219 78.4398 32.5555 78.3242L32.5541 78.3219C32.4891 78.2087 32.4217 78.0914 32.3629 77.9723M32.9167 79.3477L32.4973 77.9056M32.9167 79.3477C32.9145 79.4376 32.8998 79.5319 32.8673 79.6327C30.8617 80.2039 28.7927 80.2743 26.7089 80.2927L26.7088 80.2927C23.4947 80.3241 20.2829 80.3203 17.0704 80.3164C16.4682 80.3157 15.866 80.315 15.2638 80.3145H15.2637C13.5439 80.3145 12.3745 80.0402 11.5368 79.3775C10.7023 78.7173 10.1699 77.65 9.77634 75.996M32.9167 79.3477L9.77634 75.996M32.3629 77.9723C32.3629 77.9722 32.3628 77.9721 32.3628 77.972L32.4973 77.9056M32.3629 77.9723C32.3629 77.9723 32.363 77.9724 32.363 77.9724L32.4973 77.9056M32.3629 77.9723C32.2628 77.7711 32.1621 77.5699 32.0614 77.3686C31.2597 75.7669 30.4537 74.1562 29.8724 72.4442L29.8707 72.4391L29.8708 72.4391C29.8677 72.4288 29.8642 72.4186 29.8595 72.405L29.8569 72.3974C29.8517 72.3821 29.8454 72.3633 29.8397 72.3428M32.4973 77.9056C32.397 77.7041 32.2962 77.5028 32.1955 77.3015C31.3934 75.6987 30.5922 74.0976 30.0144 72.396C30.0105 72.3827 30.0059 72.3694 30.0013 72.3559C29.995 72.3378 29.9887 72.3192 29.9833 72.2996M29.8397 72.3428C29.84 72.3439 29.8404 72.345 29.8407 72.3461L29.9833 72.2996M29.8397 72.3428C29.8024 72.2284 29.7652 72.1118 29.728 71.9953C27.6986 70.8971 25.5252 70.1672 23.2557 69.8676L23.2556 69.8676C22.1034 69.7147 20.9235 69.5821 19.8187 69.9992L19.8149 70.0006L19.8149 70.0005C19.6715 70.0503 19.5291 70.1153 19.3839 70.1909L19.3652 70.2006L19.3445 70.2048C19.0272 70.2694 18.7089 70.3407 18.389 70.4124C17.3719 70.6402 16.3396 70.8715 15.2772 70.901C15.0792 70.9225 14.8671 70.9017 14.6746 70.8829C14.6137 70.8769 14.5548 70.8712 14.499 70.867H14.4983H14.4856L14.4856 70.8664C14.3079 70.8514 14.1492 70.8525 14.005 70.8957C13.8652 70.9375 13.73 71.0215 13.604 71.1895L13.5827 71.2178L13.5511 71.2336C13.5367 71.2408 13.5241 71.2445 13.517 71.2463L13.5085 71.2483L13.5053 71.2493C11.5426 71.8377 10.353 73.1574 9.80024 75.1085C9.79128 75.4039 9.78241 75.7014 9.77634 75.996M29.8397 72.3428C29.8393 72.3416 29.839 72.3403 29.8386 72.3391L29.9833 72.2996M29.9833 72.2996C29.9398 72.1659 29.8962 72.0291 29.8527 71.8923C27.793 70.7698 25.5839 70.0236 23.2753 69.7189C22.1273 69.5666 20.9107 69.4266 19.7658 69.8588L9.77634 75.996M13.4622 71.1056C11.4399 71.7119 10.214 73.08 9.65087 75.0855C9.64153 75.3933 9.6322 75.7042 9.62598 76.012C10.4194 79.3638 11.8008 80.4645 15.2637 80.4645L13.4622 71.1056ZM13.4622 71.1056C13.4653 71.1041 13.4692 71.1033 13.4731 71.1025C13.477 71.1017 13.4809 71.101 13.484 71.0994L13.4622 71.1056Z" fill="#565656" stroke="black" stroke-width="0.3"/>
<path d="M48.5464 20.8579L48.5463 20.858C48.5378 20.8731 48.5293 20.8882 48.5209 20.9032C48.4286 21.0679 48.3405 21.225 48.2292 21.3449C48.1138 21.4691 47.9855 21.5398 47.8128 21.5282L47.8127 21.5281C47.7723 21.5255 47.7343 21.5204 47.6957 21.509L47.6957 21.509L47.692 21.508C47.6638 21.5005 47.635 21.4922 47.6064 21.4825C47.3702 21.0285 47.3158 20.5251 47.2604 19.9885L47.2586 19.9702C47.2031 19.4318 47.1441 18.8595 46.8605 18.3398C46.8498 18.3167 46.838 18.2957 46.8272 18.2777L46.827 18.2769C46.6586 17.3703 46.6189 16.4902 46.9279 15.6184C46.941 15.5837 46.9539 15.5489 46.9667 15.5138L46.6859 15.4084C46.6721 15.4441 46.6588 15.4798 46.6461 15.5155C46.1229 16.9051 45.3737 18.0182 44.3886 18.8265C43.3795 19.6545 42.1147 20.1694 40.5722 20.3284C39.0523 20.4849 37.6797 20.3153 36.4708 19.7737C35.2627 19.2324 34.2081 18.3152 33.3303 16.9604L33.19 16.7439L33.0713 16.9729C32.9631 17.1815 32.8991 17.425 32.8441 17.6547C32.8356 17.6903 32.8273 17.7255 32.8191 17.7603C32.7727 17.957 32.7293 18.1408 32.6671 18.3042C32.5947 18.4946 32.5041 18.6354 32.3751 18.7217C32.2488 18.8061 32.063 18.8533 31.7675 18.8089L31.7664 18.8087C31.7634 18.8083 31.7606 18.8079 31.7578 18.8075C31.7373 18.8046 31.7237 18.8027 31.71 18.7993L31.7101 18.7989L31.6993 18.797C31.6543 18.7892 31.6081 18.7803 31.5603 18.7688C30.6807 15.7748 30.6959 12.8961 32.4787 10.2056C34.0856 7.94231 36.9408 6.77837 39.7758 6.78719C42.6114 6.79602 45.3928 7.97745 46.8598 10.361L46.86 10.3614C46.9957 10.5805 47.1742 10.7841 47.3422 10.9757C47.4109 11.054 47.4778 11.1304 47.5394 11.205C48.7499 13.2686 49.4236 15.4585 49.2523 17.8614L49.2508 17.8833L49.2555 17.9047C49.2848 18.0362 49.3027 18.1692 49.3147 18.2987C49.3882 19.2136 49.0115 20.0336 48.5464 20.8579Z" fill="#5A2C42" stroke="black" stroke-width="0.3"/>
<path d="M78.097 86.3006C52.1797 86.2601 26.2593 86.2664 0.33896 86.2601C0.139836 85.0475 0.628313 84.6869 1.86662 84.6869C27.787 84.7242 53.7043 84.718 79.6215 84.7211C79.8113 85.9212 79.3477 86.3006 78.097 86.3006Z" fill="#F6E4C4"/>
<path d="M25.7739 18.2483C25.7366 19.5604 24.7939 20.0797 23.54 20.0766C21.6794 20.0766 19.8189 20.0952 17.9583 20.0703C16.1817 20.0455 15.351 19.2588 15.2732 17.4524C15.239 16.6844 15.0306 16.3361 14.2061 16.3299C13.0082 16.3206 12.165 15.6707 12.2024 14.4488C12.2428 13.1398 13.1824 12.6143 14.4363 12.6206C15.4164 12.6237 16.3995 12.6206 17.3827 12.6206C18.1574 12.6206 18.9321 12.6143 19.7069 12.6206C21.8195 12.6361 22.5257 13.2486 22.7031 15.4002C22.7684 16.162 23.092 16.3423 23.7702 16.361C24.9712 16.3952 25.8113 17.0264 25.7739 18.2483Z" fill="#E9E9E9"/>
<path d="M48.5399 22.2748C48.039 22.5919 47.5847 22.8314 47.5412 23.6087C47.4603 24.9519 46.5207 26.009 46.0229 27.2185C44.4392 24.871 43.3036 24.4637 41.6017 25.611C41.3528 25.7789 41.2408 26.3479 40.7523 25.9717C40.6029 25.5893 40.3883 25.3219 40.102 25.1695C40.0896 25.1633 40.0802 25.1571 40.0678 25.154C40.0242 25.1291 39.9838 25.1135 39.9371 25.098C39.7193 25.0203 39.4673 25.0016 39.1779 25.0451C38.761 25.4307 38.8419 25.8815 39.0628 26.3013C39.7971 27.6787 39.0473 28.4467 37.9552 29.0903C37.921 29.0965 37.8899 29.0996 37.8587 29.1027C36.6547 29.2489 35.9266 28.4094 35.239 27.66C33.4096 25.6794 32.9055 23.2698 33.2167 20.6487C33.2727 20.1885 33.366 19.6755 33.9572 19.6319C34.6634 19.5791 35.0928 20.0019 35.351 20.6238C35.4133 20.7886 35.491 20.9129 35.5813 21.0031C35.9982 21.4322 36.6578 21.1213 37.1867 21.2114C37.1929 21.2114 37.196 21.2145 37.2023 21.2145C38.9726 21.4633 40.7398 21.2985 42.5039 21.1524C42.6128 21.1493 42.7249 21.1586 42.8369 21.1741C43.2724 21.2301 43.7174 21.3545 44.0938 20.9814C44.1125 20.9658 44.1281 20.9471 44.1467 20.9285C44.5419 19.5915 45.413 18.7427 46.6793 18.3043C46.7602 18.2763 46.8442 18.2483 46.9282 18.2234C48.0919 19.122 47.5785 20.3937 47.6687 21.5286C47.7061 21.5877 47.7527 21.6343 47.8025 21.6778C48.0483 21.8768 48.4123 21.9359 48.5399 22.2748Z" fill="#FDD8C8"/>
<path d="M13.5991 33.4401C13.4591 34.6341 12.5693 35.1098 11.3372 35.0103C10.3602 34.9357 9.37394 34.9947 8.39077 34.9947C7.56315 34.9947 6.73554 34.9979 5.90793 34.9947C3.76734 34.9947 3.08597 34.4848 2.85884 32.4141C2.7655 31.5621 2.51971 31.273 1.66098 31.2357C0.66536 31.189 0.00264861 30.5361 0.0524297 29.5194C0.102211 28.4498 0.792924 27.8559 1.89122 27.8497C4.06292 27.8372 6.23773 27.831 8.40943 27.8497C9.76908 27.8621 10.606 28.5679 10.5594 29.936C10.5251 30.9558 10.9638 31.2823 11.8474 31.4409C12.9302 31.6368 13.7298 32.3177 13.5991 33.4401Z" fill="#E9E9E9"/>
<path d="M46.9275 15.1422V18.2234C46.8591 18.2856 46.7938 18.3447 46.7253 18.4069C46.0159 19.0505 45.3034 19.6941 44.5909 20.3346C44.1678 20.7108 44.8087 20.7606 44.7901 21.0093C44.202 21.6281 43.2717 21.0156 42.6744 21.597C40.7889 21.6592 38.9035 21.995 37.0149 21.6188C36.4175 21.0062 35.509 21.5721 34.8836 21.0591C35.2072 20.26 34.6409 19.9864 34.0716 19.9273C33.4058 19.862 33.6329 20.4808 33.6049 20.8352C33.3186 24.4699 34.4294 27.374 37.8736 29.0499C37.8985 29.0654 37.9265 29.0779 37.9545 29.0903C38.2532 30.0759 37.7118 30.7009 37.0242 31.2637C36.9651 31.1735 36.9122 31.0771 36.8593 30.9807C36.5046 30.3184 36.2339 29.5567 35.1885 29.6997C35.2041 29.1183 35.0828 28.6612 34.5601 28.2384C33.0324 27.0009 32.071 25.3685 31.7568 23.419C31.6727 22.8967 31.4487 22.5795 31.0723 22.2966C31.1874 21.967 31.2403 21.6281 31.2683 21.2861C31.2714 21.2612 31.2714 21.2363 31.2714 21.2114C31.3212 20.5492 31.2901 19.8745 31.4612 19.2277C31.5172 19.122 31.5887 19.0256 31.6728 18.9448C31.7039 18.9137 31.7381 18.8857 31.7723 18.8577C32.2805 18.4784 32.6341 17.5176 32.8333 15.9755C36.8344 22.6137 44.6563 20.8197 46.9275 15.1422Z" fill="#FDC2AD"/>
<path d="M30.2898 43.7513C30.0388 41.9461 29.9096 40.5045 30.3058 39.1089L30.3058 39.1088C30.9966 36.6741 31.3537 34.2123 31.2674 31.6854C32.3505 31.2685 33.4337 30.8487 34.5166 30.429C34.7226 30.4154 34.8232 30.4701 34.8849 30.5369C34.9337 30.5928 34.9719 30.6699 35.0025 30.767C35.0223 30.832 35.0382 30.9024 35.0554 30.9796L35.0567 30.9853C35.0721 31.054 35.0886 31.128 35.1093 31.2C35.1564 31.9034 35.0462 32.5881 34.8947 33.2794C34.8481 33.4919 34.7972 33.7063 34.746 33.9222C34.6311 34.4067 34.5144 34.8984 34.4406 35.392C34.3982 35.6675 34.3671 35.9509 34.359 36.236C33.1297 38.5031 31.9022 40.7715 30.5279 43.3113C30.449 43.457 30.3696 43.6037 30.2898 43.7513Z" fill="#DF2925" stroke="black" stroke-width="0.3"/>
<path d="M31.3199 21.1429C30.7628 20.8331 30.4015 20.4542 30.1949 19.9526C29.9835 19.4395 29.9273 18.7822 30.0149 17.9088L30.0157 17.9001L30.0156 17.8914C29.9742 15.3442 30.2884 12.9387 31.8393 10.9376C31.4828 11.9255 31.3357 12.9352 31.2805 13.949C31.2365 14.7555 31.2509 15.5771 31.2651 16.3922C31.274 16.8994 31.2828 17.4041 31.2775 17.9011C31.2775 17.9013 31.2775 17.9014 31.2775 17.9016L31.4275 17.9032C31.4213 18.2639 31.4368 18.6214 31.7729 18.8577L31.3199 21.1429ZM31.6007 18.9128C31.5997 18.9179 31.5986 18.9231 31.5977 18.9283C31.5975 18.929 31.5974 18.9297 31.5973 18.9304L31.6279 18.936C31.6465 18.9512 31.666 18.966 31.6866 18.9804L31.7077 18.9505L31.6007 18.9128Z" fill="#6D3F55" stroke="black" stroke-width="0.3"/>
<path d="M37.0244 31.2636C36.3959 33.039 35.5528 34.7087 34.5074 36.2758C34.4265 36.1296 34.3643 35.9835 34.3207 35.8374C34.0282 34.8673 34.4918 33.9252 34.6194 32.9675C34.6941 32.4079 34.7905 31.8513 34.8776 31.2947C35.0705 31.0398 34.9865 30.7289 34.9959 30.4366C34.9959 30.278 35.027 30.1288 35.1421 29.992C35.1452 29.8925 35.1608 29.7961 35.1888 29.6997C35.503 29.4136 35.7115 29.0374 36.2995 29.3297C37.012 29.6873 37.0275 30.2376 37.0213 30.8066C37.0213 30.9589 37.0151 31.1113 37.0244 31.2636Z" fill="#FEBAAE"/>
<path d="M31.5861 21.5489C31.5005 21.7544 31.3419 21.9531 31.0525 22.1335C29.9847 21.7982 29.3544 21.1824 29.1586 20.4683C28.9731 19.7919 29.1659 18.9854 29.8178 18.1803C29.8884 18.3733 29.9477 18.5736 30.0038 18.7792C30.0305 18.8772 30.0568 18.9774 30.0833 19.0785C30.1335 19.2699 30.1846 19.4649 30.2416 19.6551C30.4174 20.2422 30.6607 20.829 31.1664 21.3184L31.1842 21.3362L31.3124 21.4642L31.4143 21.3145C31.5776 21.0745 31.6316 20.8218 31.646 20.5805C31.6562 20.6577 31.665 20.735 31.6712 20.8137C31.6926 21.0824 31.6785 21.3273 31.5861 21.5489Z" fill="#ECA2A2" stroke="black" stroke-width="0.3"/>
<path d="M47.8024 21.663L47.8027 21.663V21.6529C47.8027 21.6405 47.8043 21.629 47.8071 21.6117C48.3949 21.1577 48.6976 20.5709 48.9087 19.9604C49.0051 19.6818 49.0834 19.3949 49.1603 19.1135C49.1696 19.0795 49.1788 19.0455 49.1881 19.0117C49.2708 18.7099 49.3544 18.4153 49.4608 18.1335C49.9702 18.6414 50.175 19.1649 50.1855 19.6994C50.197 20.2828 49.9774 20.8986 49.6248 21.5437C49.2532 21.7352 48.8811 21.927 48.5089 22.1215C48.4807 22.1191 48.4534 22.117 48.4266 22.1149C48.3585 22.1096 48.294 22.1045 48.2284 22.0965C48.1264 22.084 48.0425 22.0663 47.9764 22.0374C47.9131 22.0098 47.8707 21.9741 47.8432 21.9253C47.8148 21.8747 47.7936 21.7945 47.8024 21.663Z" fill="#EB9F9C" stroke="black" stroke-width="0.3"/>
<path d="M35.1451 30.7226C35.1171 30.9247 35.0456 31.1206 34.8776 31.2947C34.8153 30.931 34.8838 30.5143 34.4824 30.2811C34.7033 30.1847 34.9211 30.0884 35.142 29.992C35.1451 30.2376 35.1731 30.4863 35.1451 30.7226Z" fill="#F04DC3"/>
<path d="M29.9245 72.2361L29.9439 72.1435C26.6522 70.7037 23.2723 69.5641 19.5778 69.8845C19.6032 69.825 19.6252 69.765 19.6452 69.7059C19.6675 69.6403 19.688 69.5737 19.7077 69.5095C19.7103 69.501 19.7129 69.4926 19.7155 69.4842C19.738 69.4113 19.7599 69.3415 19.7841 69.274C19.8798 69.0072 20.0038 68.7986 20.2903 68.6864L20.3542 68.6613L20.377 68.5966C20.4402 68.4174 20.5233 68.317 20.6105 68.2566C20.6996 68.1949 20.8076 68.1649 20.9381 68.1518C21.0376 68.1419 21.1389 68.1424 21.249 68.143C21.2877 68.1432 21.3275 68.1434 21.3688 68.1431C21.5185 68.1423 21.6824 68.1351 21.8374 68.0881C23.0385 67.7916 24.2602 67.7146 25.4983 67.7793L25.5388 67.7814L25.5748 67.7628C25.7971 67.6484 25.9787 67.647 26.1417 67.7032C26.3103 67.7615 26.472 67.8859 26.6403 68.0516C26.9272 68.4333 27.3545 68.5539 27.7316 68.6572L27.7722 68.6683L27.8127 68.6566C28.7257 68.3938 29.6497 68.1732 30.5777 67.9515C30.6229 67.9407 30.668 67.93 30.7132 67.9192C31.6855 67.6868 32.6616 67.4512 33.626 67.1638C34.3424 66.9504 35.0731 67.3056 35.5775 67.8722L35.5775 67.8723C36.8193 69.2655 38.3807 69.3795 39.9847 69.0923L39.9848 69.0923C40.718 68.9605 41.4571 68.9141 42.2047 68.8768C42.2941 68.8724 42.3837 68.8681 42.4734 68.8637C43.131 68.8319 43.7956 68.7998 44.4578 68.7141L44.4579 68.7141C44.7605 68.6748 45.0029 68.6747 45.1891 68.7083C45.375 68.7419 45.4942 68.8069 45.5668 68.889C45.708 69.0487 45.7347 69.3555 45.5161 69.8924C45.396 70.187 45.2769 70.4819 45.1577 70.7765C44.2825 72.9415 43.411 75.0971 42.2198 77.1043C42.1431 77.1029 42.066 77.1012 41.9885 77.0995L41.9879 77.0995C41.889 77.0974 41.7896 77.0952 41.6907 77.0936C40.3979 76.6834 39.1403 76.179 37.8836 75.6585C37.6615 75.5665 37.4395 75.474 37.2172 75.3815C36.1795 74.9493 35.1382 74.5155 34.0793 74.1271C33.5794 73.868 33.0392 73.6809 32.5112 73.4979C32.3135 73.4294 32.1175 73.3615 31.9259 73.2907C31.2109 73.0261 30.5397 72.7155 29.9855 72.1737L29.9245 72.2361Z" fill="#FDD8C8" stroke="black" stroke-width="0.3"/>
<path d="M42.4604 77.1532C42.8896 77.2981 43.3194 77.4429 43.7492 77.5877C44.1798 77.7329 44.6106 77.8781 45.0407 78.0232C46.7015 75.6804 47.8771 73.0868 49.0597 70.4779C49.3716 69.7897 49.684 69.1005 50.0059 68.4146L50.0345 68.3536L50.0991 68.3345C50.2224 68.298 50.352 68.2659 50.4776 68.2347C50.5394 68.2194 50.6003 68.2043 50.659 68.189C50.8418 68.1415 51.0126 68.0903 51.1663 68.0195C51.4628 67.8828 51.6972 67.6732 51.8049 67.259C51.8422 66.9719 51.851 66.713 51.7889 66.4897C51.7288 66.2739 51.6001 66.0831 51.3405 65.9324C50.888 65.7373 50.3985 65.7118 49.8866 65.7118H49.8862C43.11 65.6963 36.3369 65.6994 29.5606 65.7118L29.5603 65.7118C28.9582 65.7118 28.4037 65.719 27.9335 66.0511L27.9291 67.246L27.9249 68.3926C29.4129 68.6683 30.7627 68.1758 32.1541 67.6681C32.3278 67.6048 32.502 67.5412 32.6773 67.4789L42.4604 77.1532ZM42.4604 77.1532C42.4907 76.473 42.7162 75.8592 43.0045 75.2524C43.1153 75.0191 43.2339 74.7898 43.3537 74.558C43.3983 74.4719 43.443 74.3855 43.4875 74.2983C43.651 73.9786 43.8108 73.6527 43.9435 73.3152L43.9435 73.3152C44.3204 72.3555 44.7398 71.4154 45.1959 70.3932C45.3971 69.942 45.6056 69.4749 45.8206 68.983L45.9208 68.7538L45.6714 68.7734C44.9799 68.8277 44.3024 68.8796 43.6352 68.9306C41.9353 69.0607 40.302 69.1858 38.6723 69.3332M42.4604 77.1532L38.6723 69.3332M38.6723 69.3332C38.6723 69.3332 38.6723 69.3332 38.6723 69.3332L38.6858 69.4826L38.6723 69.3332ZM38.6723 69.3332C38.0876 69.386 37.5764 69.4045 37.121 69.271C36.6743 69.1401 36.2689 68.8588 35.9068 68.2834L35.9067 68.2833M38.6723 69.3332L35.9067 68.2833M35.9067 68.2833C35.5485 67.7148 35.051 67.3979 34.4828 67.2838M35.9067 68.2833L34.4828 67.2838M34.4828 67.2838C33.9194 67.1707 33.2958 67.2585 32.6774 67.4788L34.4828 67.2838Z" fill="#4C4C4C" stroke="black" stroke-width="0.3"/>
<path d="M21.801 67.9435C21.3872 68.4254 20.6996 68.186 20.2392 68.5467C19.2 64.7379 15.6313 64.1347 12.7502 62.7138C9.92514 61.3208 7.01294 60.1113 4.14742 58.7992C3.7025 58.5971 2.98067 58.3919 3.2358 57.7607C3.55005 56.9772 4.19098 57.4747 4.68257 57.683C8.1548 59.1505 11.6208 60.6305 15.0961 62.095C15.5628 62.2909 16.0544 62.4277 16.7451 62.664C16.406 61.2213 15.5846 60.2295 14.9841 59.1568C12.6911 55.0588 10.3265 50.9981 8.02101 46.9032C7.77833 46.4741 7.12806 45.8523 7.90589 45.4543C8.58727 45.106 8.83618 45.8771 9.10997 46.3435C12.1124 51.4645 15.1024 56.5885 18.195 61.8805C18.7955 60.1082 18.7239 58.3794 18.9542 56.7129C19.2902 54.269 19.3991 51.7972 19.6293 49.3408C19.6667 48.9366 19.8254 48.5418 19.9311 48.1438C20.0027 47.8795 20.1427 47.6152 20.4352 47.6556C20.7121 47.6929 20.8365 47.9759 20.8365 48.2495C20.8365 49.1792 20.9765 50.143 20.7836 51.0354C20.3014 53.2772 20.7463 55.5656 20.2703 57.8105C20.0494 58.8489 20.1458 59.9496 19.9809 61.0316C19.5951 63.5626 20.0058 65.9567 21.8042 67.9466L21.801 67.9435Z" fill="#FEFEFE"/>
<path d="M51.5109 65.9909C43.6019 65.9847 35.693 65.9785 27.7871 65.9722C27.9769 64.968 28.1698 63.9668 28.3596 62.9625C35.8921 62.9625 43.4246 62.9625 50.954 62.9625C51.7474 63.8611 52.1798 64.8249 51.5109 65.9909Z" fill="#DF2925"/>
<path d="M26.7603 67.9529C26.3434 67.844 25.9265 67.7383 25.5127 67.6295C25.7243 65.0768 25.9389 62.521 26.1474 59.9683C26.1879 59.4677 26.3092 58.9733 26.9066 59.0107C27.4946 59.0449 27.3982 59.5983 27.3733 59.9807C27.2488 61.9769 27.1524 63.9792 26.9221 65.9629C26.8443 66.6283 26.7946 67.2875 26.7603 67.9529Z" fill="#FDFDFD"/>
<path d="M15.2644 70.7512C14.7199 71.1119 14.0883 71.0435 13.4847 71.0994C12.3896 70.6517 11.2788 70.2257 10.2023 69.7376C9.86628 69.5852 9.3498 69.3489 9.63604 68.8297C9.84139 68.4628 10.2552 68.5778 10.613 68.7146C12.1967 69.3209 13.799 69.8775 15.2644 70.7481V70.7512Z" fill="#FCFCFC"/>
<path d="M30.0061 73.1709L30.0061 73.1709C30.5516 74.6415 31.2608 76.023 31.9746 77.4135C32.347 78.139 32.7207 78.867 33.0731 79.6113C33.616 79.6196 34.1411 79.5132 34.6731 79.3774C34.82 79.34 34.9681 79.3 35.1174 79.2597C35.5123 79.1532 35.915 79.0446 36.3224 78.9743C36.5297 78.6663 36.5428 78.3319 36.3834 78.0132C36.3833 78.0132 36.3833 78.0132 36.3833 78.0131L36.5175 77.946C36.3393 77.5915 36.1787 77.226 36.0181 76.8604C35.5419 75.7765 35.0647 74.6905 34.1248 73.8791L30.0061 73.1709ZM30.0061 73.1709L30.0059 73.1703C29.9788 73.0982 29.9433 73.0256 29.9119 72.9614C29.9045 72.9463 29.8973 72.9317 29.8906 72.9176C29.8525 72.8386 29.8243 72.7733 29.8107 72.7131C29.7978 72.6561 29.7998 72.6108 29.8168 72.5688C29.8308 72.5342 29.8593 72.4913 29.9176 72.442C30.6269 72.6019 31.3031 72.8573 31.9767 73.1402C32.2043 73.2358 32.4325 73.3349 32.6617 73.4344C33.119 73.6331 33.58 73.8333 34.0468 74.01L30.0061 73.1709Z" fill="#4C4C4C" stroke="black" stroke-width="0.3"/>
<path d="M41.4547 77.1605C41.3161 76.9627 41.0938 76.87 40.7961 76.7515C40.7961 76.7515 40.796 76.7515 40.796 76.7515L40.8515 76.6121L41.4547 77.1605ZM41.4547 77.1605C40.6338 77.4519 39.8122 77.7433 38.9906 78.0347L38.9851 78.0367C38.1649 78.3276 37.3447 78.6185 36.5251 78.9094C36.3319 77.9921 35.9244 77.1735 35.4975 76.3823C35.4305 76.2583 35.3632 76.135 35.296 76.0121C34.9587 75.3948 34.6271 74.7879 34.3816 74.1447C34.8819 74.3491 35.382 74.5541 35.8822 74.7591L41.4547 77.1605Z" fill="#FEC4B6" stroke="black" stroke-width="0.3"/>
<path d="M51.5112 65.9909C51.3245 64.9804 51.141 63.973 50.9543 62.9625C50.3009 60.158 50.1018 57.3565 51.0321 54.5675C51.4303 53.8742 51.9592 53.8213 52.5846 54.2566C54.3301 58.4821 57.2703 61.9644 59.722 65.7546C59.3735 66.5226 59.081 67.331 58.3063 67.8067C56.9249 68.0026 55.5155 68.441 54.2834 67.3403C53.3376 65.0955 53.6394 62.6391 53.098 60.3196C53.1664 62.6982 53.1789 65.0768 53.8167 67.3963C53.098 67.8223 52.3575 67.9746 51.5703 67.6015C51.5517 67.0636 51.533 66.5257 51.5112 65.9909Z" fill="#E9E9E9"/>
<path d="M40.752 39.0337C41.3462 36.0395 41.8969 33.0235 44.5011 30.9621C44.2709 32.0192 44.6784 33.0111 44.8713 34.0153C45.2571 36.0177 44.722 37.6687 43.2255 39.0306C42.4041 39.3384 41.5796 39.7799 40.7551 39.0368L40.752 39.0337Z" fill="#FEC3B6"/>
<path d="M52.5877 54.2566C52.0463 54.2348 51.5143 54.269 51.0352 54.5675C51.0756 53.2989 51.2965 52.0614 51.6325 50.8395C52.2081 51.906 52.3637 53.0906 52.5877 54.2566Z" fill="#F7F1F6"/>
<path d="M40.7523 39.0337C41.5768 39.0337 42.3981 39.0306 43.2226 39.0275C42.4261 40.0224 41.2563 40.2525 40.1113 40.5323C40.2918 40.0193 40.3385 39.4503 40.7523 39.0337Z" fill="#FDB7AF"/>
<path d="M39.1777 25.0483C40.3071 24.33 40.6961 24.8679 40.7521 25.9748C40.2262 25.667 39.7035 25.3592 39.1777 25.0483Z" fill="#F1AEAA"/>
<path d="M63.7605 61.4172C63.2441 60.898 62.9609 60.2637 62.8271 59.5548C65.2726 56.0973 67.1394 52.2884 69.3485 48.6879C69.8867 47.808 70.3628 46.8908 70.8699 45.9922C71.0721 45.6377 71.2526 45.162 71.7846 45.4512C72.2358 45.6968 72.2016 46.1321 71.9806 46.5332C71.2402 47.8951 70.5028 49.2569 69.7374 50.6032C67.827 53.9674 65.898 57.3223 63.9846 60.6897C63.8601 60.9073 63.829 61.1778 63.7543 61.4203L63.7605 61.4172Z" fill="#FEFEFE"/>
<path d="M64.7158 63.8797C64.47 63.3822 64.1153 62.9283 64.0811 62.3438C67.5471 60.8731 71.0162 59.3993 74.4822 57.9317C74.7186 57.8322 74.9582 57.7203 75.2071 57.6643C75.7143 57.5524 76.3925 56.9741 76.6912 57.7203C77.0024 58.4945 76.1374 58.5225 75.6583 58.7463C72.0087 60.4564 68.3622 62.1696 64.7158 63.8797Z" fill="#FEFEFE"/>
<path d="M69.9766 69.5012C69.5068 69.181 68.9779 69.1468 68.4365 69.1717C68.8721 68.7146 69.3979 68.3881 70.0109 68.668C70.4278 68.8576 70.2971 69.2307 69.9766 69.5012Z" fill="#FCF9F8"/>
<path d="M60.0297 49.005C59.6439 48.6724 59.4696 48.2308 59.4043 47.7427C60.5119 47.7209 59.8337 48.5791 60.0297 49.005Z" fill="#FBF8F7"/>
<path d="M62.534 70.1107C61.7064 69.9801 60.8819 69.8464 60.0543 69.7158C59.5907 69.3396 59.4258 68.839 59.4507 68.2638C59.5813 67.645 59.7774 67.0605 60.3561 66.6967C61.1806 67.7725 62.0268 68.8359 62.534 70.1138V70.1107Z" fill="#E9E8E7"/>
<path d="M60.356 66.6936L59.7151 68.2855C59.096 68.4286 58.6884 68.1923 58.4893 67.5953C58.6199 66.7962 58.9933 66.1557 59.7213 65.7577C59.9329 66.0686 60.1445 66.3827 60.3529 66.6936H60.356Z" fill="#FDFDFC"/>
<path d="M53.8155 67.4246L53.8599 67.4213L53.8952 67.3944C53.9784 67.3311 54.0493 67.3102 54.1112 67.3119C54.1745 67.3135 54.2476 67.3393 54.333 67.4039L54.3426 67.4112L54.3532 67.4168C55.0456 67.785 55.7599 67.8045 56.4511 67.7664C56.6103 67.7577 56.7673 67.746 56.9226 67.7345C57.4432 67.696 57.944 67.6589 58.4398 67.736C58.6358 67.8466 58.8324 67.9572 59.029 68.0678L59.0295 68.068C59.2149 68.1723 59.4003 68.2766 59.585 68.3808C59.6304 68.573 59.676 68.7644 59.7216 68.9559C59.767 69.1461 59.8123 69.3364 59.8575 69.5275C56.8058 69.0169 53.7422 68.5204 50.6384 68.3494C50.7372 68.2889 50.836 68.2284 50.9348 68.1678C51.1703 68.0235 51.4057 67.8793 51.6403 67.7358C51.9691 67.5713 52.3168 67.506 52.6818 67.4762C52.8656 67.4612 53.0514 67.4554 53.2414 67.4498C53.2488 67.4496 53.2563 67.4494 53.2637 67.4491C53.4454 67.4438 53.6309 67.4383 53.8155 67.4246Z" fill="#FDC4B6" stroke="black" stroke-width="0.3"/>
<path d="M36.6918 23.8014C36.7043 24.2274 36.5394 24.5663 36.1287 24.6005C35.69 24.6378 35.5064 24.2927 35.4909 23.8947C35.4784 23.5558 35.6464 23.2573 35.9794 23.1951C36.4181 23.1143 36.6203 23.419 36.695 23.7983L36.6918 23.8014Z" fill="#6D4051"/>
<path d="M44.215 23.817C44.2368 24.2181 44.0875 24.5477 43.683 24.613C43.1727 24.6938 43.1105 24.2305 43.095 23.9103C43.0794 23.562 43.2101 23.1827 43.6923 23.1982C44.0812 23.2107 44.1808 23.4936 44.215 23.8201V23.817Z" fill="#63364A"/>
<path d="M42.6748 21.597C43.0326 20.1543 44.106 21.2798 44.7905 21.0124C44.3456 22.1473 43.3717 21.37 42.6748 21.597Z" fill="#5A2C42"/>
<path d="M34.8809 21.0591C35.5405 21.0218 36.2001 20.9223 36.8534 20.9627C37.3326 20.9907 37.2019 21.3389 37.0121 21.6187C36.3152 21.3856 35.3569 22.1318 34.8809 21.0591Z" fill="#613347"/>
<path d="M54.4227 67.2875C54.2174 67.2844 54.012 67.2813 53.8036 67.2782C53.536 66.933 52.9044 67.0045 52.8795 66.3578C52.7986 64.1969 52.6679 62.0391 52.5715 59.8781C52.5559 59.5268 52.5155 59.0604 53.0009 59.02C53.5049 58.9764 53.4956 59.4615 53.5391 59.8035C53.8409 62.2971 54.1303 64.7939 54.4227 67.2906V67.2875Z" fill="#FDFDFD"/>
</g>
<path d="M68.9026 65.804C68.9026 56.168 68.9837 46.5245 68.851 36.8885C68.8141 34.3253 69.5145 33.5155 72.1246 33.5304C91.3829 33.6344 110.641 33.6344 129.892 33.5304C132.547 33.5155 133.203 34.3328 133.026 36.9108C130.939 67.7431 105.782 94.192 75.1328 97.6616C70.9744 98.1321 68.8952 96.2871 68.8952 92.1266C68.8952 83.3524 68.8952 74.5782 68.8952 65.804H68.9026Z" fill="#F4F4F4"/>
<g clip-path="url(#clip1_349_2897)">
<path d="M135.18 80.5633C135.16 81.8624 134.539 82.4837 133.236 82.7032C132.512 82.7032 131.791 82.7053 131.067 82.7075C131.067 83.4983 131.089 84.2912 131.061 85.082C131.024 86.1139 130.555 86.5897 129.512 86.6071C127.928 86.631 126.345 86.6092 124.761 86.6092C122.736 86.6266 121.724 85.6142 121.724 83.5721C121.724 82.3469 121.726 81.1216 121.728 79.8963C121.654 79.8855 121.58 79.8768 121.506 79.8659C114.487 80.7762 107.47 80.6915 100.453 79.8724C100.451 81.5691 100.464 83.2636 100.444 84.9603C100.431 86.1269 99.9622 86.5962 98.7956 86.6092C97.2445 86.6266 95.6933 86.6092 94.1422 86.6071C93.497 86.5984 92.8387 86.6592 92.2065 86.5571C91.6743 86.4702 91.1833 86.1813 91.1073 85.5295C90.6815 84.943 90.9834 84.2717 90.8965 83.646C90.8466 83.2832 91.0508 82.8053 90.4534 82.701C89.7408 82.6619 88.9935 82.8726 88.3178 82.5858C87.4814 82.2317 86.9644 81.6539 86.9557 80.6154C86.9448 79.0817 87.2099 77.5327 86.7819 76.0142C85.813 76.44 85.083 75.9903 84.5464 75.269C83.0083 73.1921 81.4876 71.0979 80.0343 68.9624C79.0653 67.5394 79.5346 66.5184 81.5528 65.3127C81.7223 65.1084 81.8939 64.9042 82.0655 64.7C81.7005 64.209 81.329 63.7246 80.9771 63.2249C80.1081 61.9975 80.2059 61.4348 81.4333 60.5485C81.6636 60.3812 81.9178 60.2465 82.1589 60.0966C83.5471 59.0821 84.9266 58.0545 86.3257 57.0595C87.1556 56.4686 87.866 56.6728 88.459 57.4679C89.4888 58.8431 90.3708 60.3269 91.5244 61.6086C96.6905 56.8922 102.291 52.7798 108.47 49.4776C108.639 49.0518 108.304 48.8107 108.107 48.5304C107.466 47.6202 106.816 46.7164 106.167 45.8127C104.835 43.9552 104.926 43.5381 106.949 42.3107C108.365 41.281 109.782 40.2512 111.2 39.2258C111.985 38.6588 112.658 38.8065 113.26 39.5408C113.777 40.1708 114.122 40.9377 114.781 41.4548C115.295 41.0941 115.808 40.7357 116.323 40.375C117.446 39.6777 118.406 39.7276 119.162 40.7292C120.783 42.8821 122.349 45.0762 123.874 47.2965C124.474 48.1742 124.252 49.0866 123.451 49.8904C122.877 50.3336 122.302 50.7789 121.726 51.2221C122.149 51.8478 122.577 52.4669 122.99 53.0991C123.627 54.0724 123.553 54.6502 122.638 55.3215C121.333 56.2796 119.999 57.1964 118.676 58.1327C118.422 58.3347 118.176 58.5498 117.913 58.7388C116.623 59.6621 116.043 59.573 115.128 58.3108C114.363 57.255 113.568 56.2209 112.864 55.1282C112.454 54.4895 112.195 54.5438 111.67 55.0152C106.834 59.3536 101.585 63.125 95.9236 66.3142C95.7064 66.438 95.4717 66.5357 95.2458 66.6444C95.2262 66.7074 95.2067 66.7704 95.1893 66.8355C96.2755 66.8421 97.3596 66.8507 98.4437 66.8551C100.04 66.8638 100.444 67.2527 100.449 68.8146C100.453 70.4071 100.449 71.9973 100.451 73.5875C104.522 73.09 108.611 72.8402 112.712 72.9532C115.654 73.0314 118.595 73.1574 121.515 73.5832C121.982 72.4752 121.604 71.3151 121.722 70.1876C121.732 70.079 121.724 69.9704 121.724 69.8618C121.724 67.8443 122.737 66.8442 124.763 66.8616C126.31 66.8594 127.859 66.8442 129.406 66.8616C130.574 66.8746 131.035 67.3374 131.063 68.4953C131.08 69.2491 131.067 70.0052 131.067 70.7612C131.791 70.7633 132.514 70.7633 133.238 70.7655C134.543 70.9893 135.16 71.6084 135.18 72.9097C135.219 75.4602 135.219 78.0128 135.18 80.5633Z" fill="#F7F9FA"/>
<path d="M118.676 58.1327C118.421 58.3347 118.176 58.5498 117.913 58.7388C116.623 59.6621 116.043 59.573 115.128 58.3108C114.363 57.255 113.568 56.2209 112.864 55.1282C112.454 54.4895 112.195 54.5438 111.669 55.0152C106.833 59.3536 101.585 63.125 95.9234 66.3141C95.7061 66.438 95.4715 66.5357 95.2456 66.6443C95.0631 66.7443 94.8741 66.7008 94.7611 66.5683C93.916 65.5864 93.0058 64.6479 92.5713 63.3835L92.6321 63.3227C95.1304 60.7831 97.9785 58.6627 100.846 56.5794C103.275 54.8153 105.778 53.1599 108.408 51.7087C109.584 51.0591 109.582 51.0526 108.739 49.9425C108.63 49.7969 108.515 49.6579 108.469 49.4776C108.639 49.0518 108.304 48.8107 108.107 48.5304C107.466 47.6201 106.816 46.7164 106.167 45.8127C104.835 43.9552 104.926 43.5381 106.949 42.3107C107.107 42.2325 107.244 42.2868 107.298 42.4345C108.176 44.9002 110.047 46.7273 111.469 48.8367C113.223 51.4393 115.152 53.9224 116.922 56.5098C117.411 57.2246 118.232 57.4483 118.676 58.1327Z" fill="#DF2925"/>
<path d="M122.639 55.3215C121.333 56.2796 119.999 57.1963 118.676 58.1327C117.275 57.9371 116.782 56.7249 116.089 55.7712C113.369 52.0259 110.69 48.2523 107.964 44.5114C107.468 43.8314 107.24 43.0645 106.949 42.3107C108.366 41.2809 109.782 40.2512 111.201 39.2258C111.985 38.6588 112.658 38.8065 113.26 39.5408C113.777 40.1708 114.123 40.9377 114.781 41.4547C115.187 41.6589 115.404 42.0435 115.65 42.391C117.503 44.9936 119.354 47.5962 121.231 50.1793C121.461 50.4943 121.759 50.7811 121.726 51.2221C122.15 51.8477 122.578 52.4669 122.991 53.0991C123.627 54.0723 123.553 54.6502 122.639 55.3215Z" fill="#DF2925"/>
<path d="M100.772 77.6674V77.7478C100.77 77.8064 100.772 77.8651 100.775 77.9237C100.796 78.5929 100.918 79.275 100.453 79.8724C100.451 81.5691 100.464 83.2636 100.444 84.9603C100.431 86.1269 99.9621 86.5962 98.7955 86.6092C97.2444 86.6266 95.6932 86.6092 94.1421 86.607C93.1297 86.355 92.9451 85.5773 92.9364 84.6953C92.9147 82.638 92.9277 80.5828 92.9277 78.5277C92.9277 75.282 92.9255 72.0342 92.9299 68.7886C92.9299 68.1238 93.0189 67.5112 93.4578 67.0767C93.536 66.9985 93.6251 66.9268 93.7272 66.8616C93.8054 66.8116 93.8944 66.7638 93.99 66.7204C94.4115 66.5379 94.8091 66.6009 95.1892 66.8355C96.2755 66.8421 97.3595 66.8507 98.4436 66.8551C100.04 66.8638 100.444 67.2526 100.449 68.8146C100.453 70.4071 100.449 71.9973 100.451 73.5875C101.061 74.4587 100.718 75.4515 100.799 76.39C100.833 76.8136 100.818 77.2416 100.772 77.6674Z" fill="#0EB767"/>
<path d="M131.43 81.2758C131.428 81.7798 131.443 82.2947 131.067 82.7075C131.067 83.4982 131.089 84.2912 131.061 85.082C131.024 86.1139 130.555 86.5897 129.512 86.607C127.928 86.6309 126.344 86.6092 124.761 86.6092C123.746 86.355 123.564 85.5773 123.553 84.6931C123.533 82.5641 123.546 80.4329 123.546 78.3039C123.546 75.1625 123.535 72.0233 123.551 68.882C123.555 67.9717 123.69 67.1331 124.763 66.8616C126.31 66.8594 127.859 66.8442 129.405 66.8616C130.574 66.8746 131.035 67.3374 131.063 68.4953C131.08 69.2491 131.067 70.0051 131.067 70.7611C131.441 71.1739 131.428 71.6888 131.43 72.1906C131.439 75.219 131.439 78.2474 131.43 81.2758Z" fill="#0EB767"/>
<path d="M121.728 79.8963C121.654 79.8855 121.58 79.8768 121.507 79.8659C121.459 79.8094 121.415 79.7529 121.372 79.6965C121.02 79.2468 121.407 78.4364 120.714 78.1975C120.201 78.0193 119.638 78.2235 119.104 78.2757C114.702 78.6971 110.29 78.4712 105.884 78.4647C104.414 78.4625 102.928 78.3039 101.461 78.0801C101.225 78.0454 100.988 78.015 100.775 77.9237C100.664 77.8738 100.558 77.8086 100.462 77.7173C100.458 76.3422 100.453 74.9648 100.451 73.5875C104.522 73.09 108.611 72.8402 112.713 72.9531C115.654 73.0314 118.596 73.1574 121.515 73.5832C122.006 74.5629 122.158 79.0447 121.728 79.8963Z" fill="#0EB767"/>
<path d="M95.2454 66.6443C95.2258 66.7073 95.2063 66.7703 95.1889 66.8355C94.8435 66.8486 94.4959 66.8638 94.1483 66.879C93.9202 66.9507 93.6899 67.0202 93.4574 67.0767C93.2771 67.1223 93.0903 67.1592 92.9013 67.1809C91.6717 67.32 91.4892 67.5524 91.4305 68.8255C91.3979 69.525 91.5891 70.2832 90.9721 70.8524C90.9243 70.885 90.8744 70.911 90.8244 70.9328C90.6506 71.0153 90.466 71.0501 90.2748 71.0653C90.2226 71.0631 90.1727 71.0609 90.1205 71.0609C90.0554 71.0609 89.988 71.0609 89.9228 71.0653C89.5122 71.0718 89.0995 71.1 88.6997 70.9501C88.6737 70.8763 88.6454 70.8024 88.6128 70.7307C88.6063 70.7112 88.5976 70.6916 88.589 70.6721C88.0849 69.4881 87.1855 68.5604 86.4686 67.5133C85.1934 65.6428 83.8291 63.8332 82.5017 61.9975C82.0759 61.4087 81.8348 60.8091 82.1585 60.0966C83.5467 59.082 84.9262 58.0544 86.3253 57.0595C87.1551 56.4686 87.8655 56.6728 88.4586 57.4679C89.4883 58.843 90.3704 60.3268 91.5239 61.6086C92.1322 62.0279 92.595 62.5427 92.6319 63.3227C92.6341 63.34 92.6362 63.3596 92.6362 63.3791C93.5552 64.4263 94.1179 65.7623 95.2454 66.6443Z" fill="#DF2925"/>
<path d="M121.511 79.3228C121.511 79.5053 121.509 79.6856 121.506 79.8659C114.487 80.7762 107.47 80.6914 100.453 79.8724C100.455 79.1555 100.457 78.4364 100.462 77.7173C100.566 77.7282 100.668 77.7391 100.772 77.7478C105.919 78.2757 111.083 78.1584 116.243 78.1345C117.427 78.1279 118.621 78.0454 119.792 77.8716C121.524 77.6152 121.515 77.5674 121.511 79.3228Z" fill="#0A9D57"/>
<path d="M108.448 52.0085C104.257 54.3526 100.388 57.1638 96.6188 60.127C95.2697 61.1871 94.1401 62.5123 92.6367 63.3792C92.628 63.3661 92.6215 63.3553 92.6128 63.3422C92.25 62.7643 91.885 62.1865 91.5244 61.6086C96.6905 56.8922 102.291 52.7797 108.47 49.4776C108.572 49.508 108.704 49.5102 108.772 49.5775C110.086 50.8419 110.025 51.1265 108.448 52.0085Z" fill="#D02222"/>
<path d="M124.761 86.6092C122.736 86.6266 121.724 85.6142 121.724 83.5721C121.724 82.3468 121.726 81.1216 121.728 79.8963C121.756 77.789 121.37 75.6948 121.515 73.5832C121.982 72.4752 121.604 71.3151 121.722 70.1876C121.733 70.079 121.724 69.9704 121.724 69.8617C121.724 67.8442 122.737 66.8442 124.763 66.8616C124.111 67.3069 123.885 67.913 123.888 68.7082C123.914 74.0589 123.914 79.4097 123.888 84.7583C123.885 85.5534 124.109 86.1617 124.761 86.6092Z" fill="#0A9D57"/>
<path d="M94.1426 86.607C93.4974 86.5984 92.8391 86.6592 92.2069 86.5571C91.6747 86.4702 91.1837 86.1812 91.1077 85.5295C90.973 83.1659 90.6688 80.8109 90.7362 78.4321C90.7948 76.3031 90.7514 74.1697 90.7449 72.0386C90.7449 71.6671 90.734 71.2956 90.8252 70.9328C90.8404 70.8719 90.8578 70.8133 90.8796 70.7525C91.1859 70.0986 91.0164 69.4055 91.0338 68.7299C91.0707 67.1875 91.4009 66.8464 92.9651 66.842C93.2193 66.842 93.4735 66.8529 93.7276 66.8616C93.8689 66.8681 94.0079 66.8746 94.1491 66.879C93.4452 67.2765 93.2584 67.8674 93.2649 68.6734C93.3018 74.0025 93.2953 79.3315 93.2714 84.6583C93.2693 85.473 93.4278 86.1487 94.1426 86.607Z" fill="#0A9D57"/>
<path d="M88.5894 70.6721C88.5655 70.6916 88.5372 70.709 88.5068 70.7286C88.1723 71.2065 87.6769 71.4694 87.1729 71.717C87.1642 71.717 87.1534 71.717 87.1447 71.7149C87.1143 71.7149 87.0839 71.7105 87.0556 71.704C86.7146 71.6475 86.5169 71.3846 86.3279 71.1196C85.0461 69.3382 83.7513 67.5676 82.4761 65.7819C82.2458 65.4582 82.0177 65.1301 82.0655 64.7C81.7005 64.209 81.329 63.7246 80.9771 63.2249C80.1081 61.9975 80.2059 61.4348 81.4333 60.5484C81.6636 60.3811 81.9178 60.2465 82.1589 60.0966C82.2045 61.8541 83.5688 62.886 84.4422 64.1764C85.7261 66.0752 87.1121 67.9022 88.4264 69.7792C88.5959 70.0203 89.0478 70.331 88.5894 70.6721Z" fill="#D02222"/>
<path d="M123.451 49.8904C122.877 50.3336 122.301 50.7789 121.726 51.2221C119.434 48.072 117.14 44.922 114.852 41.7676C114.793 41.6872 114.804 41.5612 114.78 41.4547C115.295 41.0941 115.808 40.7356 116.323 40.375C116.764 40.1056 117.001 40.4358 117.203 40.7183C119.249 43.5663 121.311 46.4036 123.309 49.2864C123.433 49.4646 123.546 49.6557 123.451 49.8904Z" fill="#D02222"/>
<path d="M90.4538 82.701C89.7412 82.6619 88.9939 82.8726 88.3183 82.5858C87.4819 82.2317 86.9648 81.6538 86.9561 80.6154C86.9453 79.0817 87.2103 77.5327 86.7824 76.0141C86.7737 75.975 86.765 75.9359 86.7585 75.8968C86.7585 75.8925 86.7585 75.886 86.7541 75.8816C86.7498 75.8621 86.7476 75.8447 86.7432 75.8273C86.6976 75.408 86.6781 74.9887 86.6694 74.5695C86.6672 74.4044 86.665 74.2414 86.665 74.0763C86.665 73.6614 86.6716 73.2486 86.6716 72.8358C86.6737 72.4187 86.6781 71.9777 87.0561 71.704C87.093 71.6758 87.1365 71.6497 87.1821 71.6258C87.5384 71.2022 87.9577 70.8698 88.5073 70.7286C88.542 70.7286 88.579 70.7307 88.6137 70.7307C89.1568 70.7481 89.7 70.7611 90.2431 70.7785C90.1996 70.8719 90.1605 70.9654 90.1214 71.0609C88.8375 74.2001 89.7499 77.5001 89.5175 80.7153C89.4566 81.5561 90.4038 81.9167 90.4538 82.701Z" fill="#0A9D57"/>
<path d="M133.6 81.2737C133.6 81.7777 133.616 82.2925 133.235 82.7031C132.512 82.7031 131.791 82.7053 131.067 82.7075V70.7611C131.791 70.7633 132.514 70.7633 133.238 70.7655C133.616 71.1761 133.6 71.691 133.6 72.195C133.611 75.2212 133.611 78.2474 133.6 81.2737Z" fill="#0A9D57"/>
<path d="M86.7471 75.9099C86.7406 75.9511 86.7515 75.9859 86.7819 76.0141C85.813 76.4399 85.083 75.9902 84.5464 75.269C83.0083 73.1921 81.4876 71.0979 80.0343 68.9623C79.0653 67.5394 79.5346 66.5183 81.5528 65.3126C81.9352 68.6756 84.6116 70.7003 86.267 73.3159C86.43 73.5745 86.5647 73.8265 86.6646 74.0763C86.8949 74.6542 86.9427 75.2299 86.7537 75.8816C86.7515 75.8903 86.7493 75.9012 86.7471 75.9099Z" fill="#D02222"/>
<path d="M91.1051 71.8735C91.1116 76.4248 91.1094 80.9782 91.1073 85.5295C90.6814 84.943 90.9834 84.2717 90.8965 83.646C90.8466 83.2832 91.0508 82.8053 90.4533 82.701C89.4627 82.0579 89.0825 81.1824 89.1303 79.9724C89.2194 77.8195 89.2172 75.6579 89.1303 73.505C89.0934 72.523 89.2867 71.717 89.9233 71.0653C90.0188 70.9654 90.1253 70.8698 90.2426 70.7785C90.4555 70.7699 90.6662 70.7612 90.8791 70.7525C90.9161 70.7851 90.9465 70.8177 90.9726 70.8524C91.2159 71.1544 91.1051 71.5324 91.1051 71.8735Z" fill="#0EB767"/>
<path d="M135.18 80.5633C135.16 81.8624 134.539 82.4837 133.235 82.7031C133.235 78.7232 133.235 74.7454 133.238 70.7655C134.543 70.9893 135.16 71.6084 135.18 72.9097C135.219 75.4602 135.219 78.0128 135.18 80.5633Z" fill="#0EB767"/>
<path d="M123.451 49.8904C121.379 46.9945 119.31 44.0964 117.225 41.2114C116.988 40.8834 116.884 40.3707 116.323 40.375C117.446 39.6776 118.407 39.7276 119.163 40.7291C120.783 42.882 122.35 45.0762 123.875 47.2964C124.474 48.1741 124.253 49.0865 123.451 49.8904Z" fill="#DF2925"/>
<path d="M87.1451 71.7149C86.7715 72.6447 86.9713 73.6244 86.9083 74.5825C86.8801 75.0213 87.0908 75.4949 86.7584 75.8968C86.7541 75.9012 86.7519 75.9055 86.7476 75.9099C86.7497 75.9012 86.7519 75.8903 86.7541 75.8816C86.8736 75.3885 86.8193 74.9627 86.6694 74.5695C86.4695 74.0459 86.098 73.5832 85.7395 73.1031C84.4643 71.4042 83.2629 69.651 81.9855 67.9565C81.3577 67.1245 81.3229 66.2533 81.5532 65.3126C81.7227 65.1084 81.8943 64.9042 82.0659 64.7C83.6084 66.8681 85.1465 69.0406 86.6976 71.2022C86.8193 71.3716 87.0191 71.4867 87.1821 71.6258C87.169 71.6562 87.156 71.6844 87.1451 71.7149Z" fill="#DF2925"/>
</g>
<defs>
<clipPath id="clip0_349_2897">
<rect width="79.6622" height="79.6622" fill="white" transform="translate(0 6.63836)"/>
</clipPath>
<clipPath id="clip1_349_2897">
<rect width="55.6605" height="47.7375" fill="white" transform="translate(79.5498 38.8804)"/>
</clipPath>
</defs>
</svg>
