<svg id="Capa_1" data-name="Capa 1" xmlns="http://www.w3.org/2000/svg" viewBox="0 0 53 53"><defs><style>.cls-1{fill:#fff;}</style></defs><path class="cls-1" d="M389.41-8H399a1,1,0,0,0,1-1,1,1,0,0,0-1-1H387a1,1,0,0,0-.38.08,1,1,0,0,0-.54.54A1,1,0,0,0,386-9V3a1,1,0,0,0,2,0V-6.59l16.29,16.3a1,1,0,0,0,1.42,0,1,1,0,0,0,0-1.42Z" transform="translate(-353 43)"/><path class="cls-1" d="M369.58-25H360a1,1,0,0,0-1,1,1,1,0,0,0,1,1h12a1,1,0,0,0,.38-.08,1,1,0,0,0,.54-.54A1,1,0,0,0,373-24V-36a1,1,0,0,0-1-1,1,1,0,0,0-1,1v9.58L354.71-42.71a1,1,0,0,0-1.42,0,1,1,0,0,0,0,1.42Z" transform="translate(-353 43)"/><path class="cls-1" d="M372.38-9.92A1,1,0,0,0,372-10H360a1,1,0,0,0-1,1,1,1,0,0,0,1,1h9.59L353.29,8.29a1,1,0,0,0,0,1.42,1,1,0,0,0,1.42,0L371-6.59V3a1,1,0,0,0,2,0V-9a1,1,0,0,0-.08-.38A1,1,0,0,0,372.38-9.92Z" transform="translate(-353 43)"/><path class="cls-1" d="M386.62-23.08A1,1,0,0,0,387-23h12a1,1,0,0,0,1-1,1,1,0,0,0-1-1h-9.59l16.3-16.29a1,1,0,0,0,0-1.42,1,1,0,0,0-1.42,0L388-26.41V-36a1,1,0,0,0-1-1,1,1,0,0,0-1,1v12a1,1,0,0,0,.08.38A1,1,0,0,0,386.62-23.08Z" transform="translate(-353 43)"/><path class="cls-1" d="M374-11h11V-22H374Zm2-9h7v7h-7Z" transform="translate(-353 43)"/></svg>