<svg width="264" height="265" viewBox="0 0 264 265" fill="none" xmlns="http://www.w3.org/2000/svg">
<g filter="url(#filter0_d_1_32)">
<path d="M258.53 231.86C256.13 235.89 252.32 238.25 248.24 240.21C235.35 246.42 221.44 248.95 207.48 250.92C165.63 256.84 123.62 257.52 81.55 253.86C62.52 252.2 43.52 249.98 25.2 244.1C19.8 242.37 14.6 240.24 9.96001 236.92C8.04001 235.54 6.42001 233.9 5.22001 231.86C3.38001 228.73 3.45001 226.62 7.93001 226.95C7.96001 224.33 8.00001 221.71 8.03001 219.09C1.83001 211.37 2.74001 205.59 11.11 200.08C18.16 195.43 26.16 193.11 34.26 191.25C37.62 190.47 37.44 189.53 35.81 187.12C30.72 179.6 28.62 171.29 28.71 162.15C28.93 139.16 28.84 116.18 28.76 93.19C28.7 77.13 35.82 65.77 50.75 59.77C55.34 57.93 53.22 54.55 53.38 51.84C53.57 48.48 50.56 49.8 48.9 49.78C44.46 49.71 39.62 49.9 37.93 44.87C36.13 39.5 35.69 33.68 38.59 28.46C40.79 24.48 45.04 24.69 48.86 25.08C52.63 25.46 53.85 24.22 53.56 20.43C52.36 4.75001 56.39 -0.749995 74.01 0.0800049C84.65 0.580005 95.33 0.120005 105.99 0.190005C114.37 0.240005 119.23 5.05 119.56 13.46C119.58 13.96 119.56 14.46 119.57 14.96C119.67 18.11 118.7 21.98 120.18 24.21C121.64 26.4 125.77 24.64 128.69 25.08C129.34 25.18 130.02 25.23 130.64 25.46C135.39 27.18 137.06 32.42 135.89 42.18C135.34 46.82 132.46 49.17 127.93 49.65C127.11 49.74 126.23 49.53 125.44 49.74C123.48 50.27 120.2 48.11 119.73 51.51C119.26 54.95 118.28 58.78 123.79 60.45C129.76 62.26 134.66 66.44 137.89 71.86C140.05 75.49 141.78 75.25 145.2 73.47C164.69 63.33 185.45 58.04 207.5 58.03C224.13 58.03 238.61 67.14 244.41 82.14C250.58 98.06 247.58 112.49 235.76 124.96C235.3 125.44 234.87 125.96 234.34 126.37C231.02 128.94 229.7 131.28 232.67 135.57C236.05 140.43 235.91 146.42 233.58 151.87C232.47 154.47 232.89 155.94 234.58 157.99C242.68 167.75 245.1 178.91 241.92 191.18C241.27 193.67 241.53 194.99 244.18 195.94C247.11 197.01 249.99 198.43 252.62 200.13C261.07 205.58 261.94 211.34 255.73 219.09C255.76 221.71 255.8 224.33 255.83 226.95C260.32 226.62 260.4 228.75 258.53 231.86Z" fill="#F7F9FA"/>
<path d="M255.73 219.09C253.96 223.15 250.18 224.65 246.51 226.21C232.75 232.07 218.14 234.4 203.48 236.57C170.44 241.46 137.16 241.3 103.95 240.36C79.39 239.66 54.85 237.26 30.91 230.92C25.43 229.47 20.11 227.58 14.97 225.19C12.08 223.85 9.34001 222.27 8.03001 219.09C1.83001 211.37 2.74001 205.59 11.11 200.08C18.16 195.43 26.16 193.11 34.26 191.25C37.62 190.47 37.44 189.53 35.81 187.12C30.72 179.6 28.62 171.29 28.71 162.15C28.93 139.16 28.84 116.18 28.76 93.19C28.7 77.13 35.82 65.77 50.75 59.77C55.34 57.93 53.22 54.55 53.38 51.84C53.57 48.48 50.56 49.8 48.9 49.78C44.46 49.71 39.62 49.9 37.93 44.87C36.13 39.5 35.69 33.68 38.59 28.46C40.79 24.48 45.04 24.69 48.86 25.08C52.63 25.46 53.85 24.22 53.56 20.43C52.36 4.75001 56.39 -0.749995 74.01 0.0800049C84.65 0.580005 95.33 0.120005 105.99 0.190005C114.37 0.240005 119.23 5.05 119.56 13.46C119.58 13.96 119.56 14.46 119.57 14.96C119.67 18.11 118.7 21.98 120.18 24.21C121.64 26.4 125.77 24.64 128.69 25.08C129.34 25.18 130.02 25.23 130.64 25.46C135.39 27.18 137.06 32.42 135.89 42.18C135.34 46.82 132.46 49.17 127.93 49.65C127.11 49.74 126.23 49.53 125.44 49.74C123.48 50.27 120.2 48.11 119.73 51.51C119.26 54.95 118.28 58.78 123.79 60.45C129.76 62.26 134.66 66.44 137.89 71.86C140.05 75.49 141.78 75.25 145.2 73.47C164.69 63.33 185.45 58.04 207.5 58.03C224.13 58.03 238.61 67.14 244.41 82.14C250.58 98.06 247.58 112.49 235.76 124.96C235.3 125.44 234.87 125.96 234.34 126.37C231.02 128.94 229.7 131.28 232.67 135.57C236.05 140.43 235.91 146.42 233.58 151.87C232.47 154.47 232.89 155.94 234.58 157.99C242.68 167.75 245.1 178.91 241.92 191.18C241.27 193.67 241.53 194.99 244.18 195.94C247.11 197.01 249.99 198.43 252.62 200.13C261.07 205.58 261.94 211.34 255.73 219.09Z" fill="black"/>
<path d="M258.53 231.86C256.13 235.89 252.32 238.25 248.24 240.21C235.35 246.42 221.44 248.95 207.48 250.92C165.63 256.84 123.62 257.52 81.55 253.86C62.52 252.2 43.52 249.98 25.2 244.1C19.8 242.37 14.6 240.24 9.96001 236.92C8.04001 235.54 6.42001 233.9 5.22001 231.86C3.38001 228.73 3.45001 226.62 7.93001 226.95C9.87001 225.53 11.8 226.01 13.46 227.31C23.33 234.98 35.29 236.99 47 239.24C67.61 243.2 88.45 245.13 109.46 245.72C119.76 246.01 130.08 246.88 140.37 246.45C171.11 245.17 201.89 243.97 231.83 235.74C238.27 233.97 244.57 231.9 249.89 227.59C251.65 226.16 253.66 225.39 255.83 226.95C260.32 226.62 260.4 228.75 258.53 231.86Z" fill="black"/>
<path d="M255.83 226.95C253.4 226.87 251.77 228 249.84 229.57C242.78 235.27 233.97 237.08 225.4 238.99C189.07 247.07 152.18 248.51 115.15 247.54C89.32 246.87 63.62 244.85 38.36 239.01C30.59 237.21 22.86 235.18 15.83 231.19C13.23 229.71 11.89 225.89 7.93001 226.95C7.96001 224.33 8.00001 221.71 8.03001 219.09C19.81 227.76 33.69 230.73 47.63 232.94C103.77 241.85 159.99 241.88 216.13 232.95C230.07 230.73 243.95 227.76 255.73 219.09C255.76 221.71 255.8 224.33 255.83 226.95Z" fill="#CE9D75"/>
<path d="M222.85 125.04C222.74 119.23 220.37 114.43 216.48 110.26C207.04 100.15 192.59 101.19 184.85 112.73C183.4 114.89 182 115.82 179.35 116C169.44 116.69 161.66 124.47 160.98 134.46C160.8 137.17 159.79 138.47 157.68 139.9C146.99 147.16 145.28 161.32 153.78 170.82C159.15 176.82 158.89 178.91 152.39 183.6C143.38 155.23 121.08 142.51 94.34 134.42C99.59 124.16 106.33 114.92 114.35 106.67C139.7 80.61 170.61 67.03 206.98 66.23C220.45 65.93 231.66 73.25 236.73 85.07C241.74 96.74 238.99 109.78 229.55 119.58C227.61 121.6 225.95 123.88 224.16 126.04C223.73 125.71 223.29 125.38 222.85 125.04Z" fill="#F34545"/>
<path d="M37.05 145.17C37.05 125.81 36.62 107.23 37.21 88.67C37.57 77.33 46.38 68.41 57.98 66.32C61.29 65.72 61.92 64.43 61.87 61.47C61.81 57.7 60.15 52.56 62.6 50.5C64.89 48.58 69.85 49.76 73.64 49.74C84.79 49.69 95.94 49.84 107.09 49.65C110.36 49.59 111.67 50.55 111.17 53.81C110.02 61.35 110.91 67.4 120.54 68.08C122.47 68.21 124.41 69.92 126.11 71.21C134.11 77.29 134.09 79.39 126.25 85.2C110.24 97.06 97.37 111.7 87.74 129.12C86.09 132.1 84.43 133.29 80.78 132.71C72.81 131.44 64.8 132.35 57.06 134.46C53.84 135.34 53.44 134.49 53.46 131.64C53.56 118.16 53.37 104.68 53.59 91.2C53.65 87.58 52.43 86.87 49.07 86.79C45.51 86.71 45.02 88.12 45.06 91.16C45.2 103.64 45.12 116.12 45.12 128.6C45.12 138.44 45.12 138.44 37.05 145.17Z" fill="#FEE9A6"/>
<path d="M160.97 214.86C155.74 214.97 151.66 213.41 149.49 208.8C147.03 203.58 150.29 199.44 152.97 195.63C155.24 192.41 158.57 189.96 161.31 187.05C167.41 180.61 167.34 173.11 161.22 166.66C153.28 158.3 156.04 147.82 167.09 144.9C169.89 144.16 170.67 143.38 169.88 140.32C167.12 129.65 174.56 122.17 185.27 124.78C188.31 125.52 189.25 124.85 189.95 121.84C191.65 114.5 197.75 110.5 204.27 111.98C210.77 113.45 215.56 121.02 213.67 127.73C212.73 131.07 213.43 131.83 216.66 132.52C222.97 133.87 226.72 138.66 226.8 144.45C226.89 150.42 223.07 155.46 216.51 156.75C212.91 157.46 212.95 158.64 213.71 161.66C215.8 169.99 211.55 176.24 203.11 177.45C200.76 177.79 199.19 178.7 197.68 180.42C189 190.3 180.17 200.05 171.51 209.95C168.56 213.32 165.11 215.14 160.97 214.86Z" fill="#0B9D58"/>
<path d="M114.62 198.28C91.35 197.04 70.92 189.3 54.94 171.68C50.19 166.44 46.94 160.38 45.63 153.27C45.01 149.89 46 148 48.88 146.44C59.55 140.67 70.95 139.5 82.73 141.05C103.33 143.77 121.31 151.84 135.2 167.74C139.74 172.94 142.89 178.9 143.97 185.87C144.42 188.76 143.46 190.49 140.98 191.93C132.82 196.65 123.97 198.3 114.62 198.28Z" fill="#E5E8EC"/>
<path d="M139.3 231.28C99.83 231.13 67.98 229.43 36.68 222.09C29.4 220.38 22.14 218.47 15.67 214.54C11.18 211.81 11.13 209.77 15.64 206.97C23.82 201.89 33.1 199.87 42.36 197.82C44.7 197.3 45.64 199.02 46.96 200.15C64.56 215.31 85.02 222.93 108.2 222.97C119.54 222.99 130.33 220.49 139.71 213.68C141.3 212.53 142.06 212.35 143.05 214.21C149.14 225.64 170.15 226.57 178.17 214.78C180.71 211.05 182.73 210.49 187.05 213.29C202.55 223.31 222.98 219.74 234.64 205.34C236.84 202.62 238.48 201.9 241.51 203.52C245.14 205.46 250.94 206.51 251.02 210.59C251.11 215.26 245.16 216.33 241.26 217.77C223.01 224.47 203.87 226.98 184.67 228.89C167.12 230.65 149.5 231.47 139.3 231.28Z" fill="#EBC09B"/>
<path d="M38.15 159.49C49.03 185.07 69.81 197.3 94.73 203.93C107.78 207.4 121.05 207.64 134.21 203.95C135.22 203.67 136.47 202.47 137.25 204.05C138 205.56 136.29 205.91 135.52 206.51C127.97 212.37 119.06 214.65 109.82 214.71C85.41 214.87 64.17 206.8 47.13 188.89C42.24 183.75 38.77 177.71 37.37 170.65C36.66 167.02 36.58 163.39 38.15 159.49Z" fill="#CBD0D8"/>
<path d="M86.4 25.01C79.41 25.01 72.42 24.89 65.43 25.07C62.64 25.14 61.78 24.33 61.71 21.46C61.37 8.34 61.27 8.35 74.53 8.35C84.68 8.35 94.83 8.44 104.98 8.31C109.43 8.25 111.2 10.06 111.22 14.56C111.26 25.02 111.4 25.02 100.88 25.02C96.06 25.01 91.23 25.01 86.4 25.01Z" fill="#A9B1BC"/>
<path d="M86.82 33.17C99.12 33.17 111.43 33.28 123.73 33.1C126.96 33.05 127.97 33.9 127.92 37.21C127.87 40.34 127.21 41.46 123.81 41.44C98.87 41.29 73.93 41.28 48.99 41.45C45.37 41.47 45.1 39.96 45.02 37.04C44.94 34 45.79 33.06 48.91 33.1C61.55 33.28 74.19 33.17 86.82 33.17Z" fill="#FBD66F"/>
<path d="M234.97 184.2C234.72 192.92 229.82 201.59 220.01 206.99C210.39 212.3 200.56 211.94 191.08 206.27C189.97 205.6 186.96 204.98 188.92 202.99C190.57 201.32 190.99 196.84 195.51 199.3C204.63 204.27 214.1 202.99 220.73 196.33C227.51 189.53 228.68 180.43 223.62 171.15C222.45 169.01 222.78 167.03 222.71 164.92C222.64 162.88 224.43 162.7 225.6 161.97C227.05 161.06 227.64 162.55 228.35 163.3C232.31 167.44 234.93 174.85 234.97 184.2Z" fill="#E5E8EC"/>
<path d="M199.2 191.9C202.68 183.35 213.15 185.77 217.73 178.09C219.37 184.3 217.62 188.38 213.76 191.42C209.27 194.97 204.35 195.11 199.2 191.9Z" fill="#F7D36E"/>
<path d="M118.17 121.02C119.02 121.57 119.85 122.08 120.65 122.64C128.34 128.12 135.93 133.74 143.75 139.03C146.42 140.84 146.37 142.09 144.51 144.4C142.83 146.49 141.89 148.26 138.79 145.89C131.29 140.16 123.48 134.85 115.82 129.33C114.73 128.54 112.73 127.9 114.03 125.97C115.2 124.25 116.04 122.17 118.17 121.02Z" fill="#010101"/>
<path d="M158.47 120.62C158.11 125.11 153.91 127.16 150.63 124.98C144.57 120.94 138.62 116.7 132.41 112.92C129.33 111.04 130.4 109.55 131.87 107.53C133.2 105.71 133.82 103.46 136.98 105.8C143.24 110.41 149.87 114.52 156.33 118.86C157.19 119.45 157.96 120.19 158.47 120.62Z" fill="#010101"/>
<path d="M151.16 88C151.9 88.44 152.62 88.82 153.3 89.27C159.81 93.6 166.22 98.09 172.85 102.22C175.71 104.01 174.68 105.43 173.33 107.36C171.97 109.31 171.16 111.38 168.07 109.15C161.73 104.59 155.1 100.42 148.61 96.07C147.55 95.36 145.97 94.66 147.13 93.02C148.33 91.31 148.99 89.12 151.16 88Z" fill="#010101"/>
<path d="M195.8 92.63C194.58 94.15 193.45 96.1 191.82 97.4C190.29 98.62 189.26 96.64 188.22 95.83C183.12 91.87 178.23 87.63 173.02 83.82C170.28 81.82 171.53 80.48 173.01 78.77C174.48 77.05 175.47 74.76 178.39 77.29C183.39 81.63 188.69 85.61 193.84 89.78C194.67 90.47 195.92 90.93 195.8 92.63Z" fill="#020101"/>
<path d="M202.29 152.94C200.09 152.95 198.17 153.32 197.12 150.79C196.32 148.86 194.31 148.53 192.39 149.14C190.61 149.71 189.6 151.14 189.8 152.96C190.17 156.25 188.92 157.48 185.64 157.11C183.83 156.91 182.41 157.93 181.83 159.71C181.21 161.63 181.51 163.59 183.42 164.48C187.14 166.2 185.63 169.38 185.42 171.84C185.2 174.47 182.76 173.21 181.45 172.74C176.66 171 173.8 167.41 173.23 162.37C172.68 157.51 174.65 153.48 178.77 150.87C180.81 149.58 182.27 148.1 183.55 146.06C186.04 142.09 189.94 140.18 194.59 140.54C199.42 140.91 203.03 143.38 205.05 147.91C206.46 151.05 206.89 153.61 202.29 152.94Z" fill="#010101"/>
<path d="M90.73 152.97C99.94 153.02 107.07 160.27 107.02 169.52C106.97 178.64 99.52 186.04 90.48 185.95C81.54 185.86 73.96 178.17 74.05 169.25C74.13 160.17 81.55 152.92 90.73 152.97Z" fill="#010101"/>
<path d="M98.85 169.21C98.95 173.69 95.28 177.49 90.77 177.59C86.26 177.69 82.46 174.05 82.37 169.53C82.28 165.07 85.99 161.21 90.45 161.13C94.89 161.04 98.75 164.76 98.85 169.21Z" fill="#F9D56F"/>
</g>
<defs>
<filter id="filter0_d_1_32" x="0.00370789" y="-0.000564575" width="263.77" height="264.112" filterUnits="userSpaceOnUse" color-interpolation-filters="sRGB">
<feFlood flood-opacity="0" result="BackgroundImageFix"/>
<feColorMatrix in="SourceAlpha" type="matrix" values="0 0 0 0 0 0 0 0 0 0 0 0 0 0 0 0 0 0 127 0" result="hardAlpha"/>
<feOffset dy="4"/>
<feGaussianBlur stdDeviation="2"/>
<feComposite in2="hardAlpha" operator="out"/>
<feColorMatrix type="matrix" values="0 0 0 0 0 0 0 0 0 0 0 0 0 0 0 0 0 0 0.25 0"/>
<feBlend mode="normal" in2="BackgroundImageFix" result="effect1_dropShadow_1_32"/>
<feBlend mode="normal" in="SourceGraphic" in2="effect1_dropShadow_1_32" result="shape"/>
</filter>
</defs>
</svg>
