<svg width="232" height="239" viewBox="0 0 232 239" fill="none" xmlns="http://www.w3.org/2000/svg">
<path d="M17.22 150.23C14.67 148.62 10.7 147.48 14.7 143.34C15.72 142.28 14.87 141.09 13.97 140.31C12.96 139.43 11.65 139.49 10.79 140.42C7.97999 143.46 6.74999 141.11 5.40999 138.98C3.54999 136.01 1.93999 132.92 1.15999 129.48C0.459993 126.44 -2.16001 122.64 3.97999 122.09C5.35999 121.96 5.62999 120.61 5.51999 119.35C5.38999 117.92 4.25999 117.19 3.14999 117.22C-0.770007 117.33 -7.24196e-06 114.82 0.459993 112.6C1.29999 108.51 2.84999 104.68 5.07999 101.12C6.56999 98.74 7.76999 95.84 11.09 99.33C11.95 100.22 13.24 100.01 14.22 99.03C15.38 97.87 15.39 96.43 14.32 95.49C11.46 93 13.31 91.83 15.38 90.45C19.45 87.73 23.91 86.02 28.66 85.02C30.72 84.58 32.73 84.22 32.4 87.57C32.22 89.31 33.39 90.44 35.14 90.4C36.67 90.37 37.61 89.27 37.51 87.75C37.27 84.15 39.48 84.6 41.7 85.09C45.94 86.02 49.99 87.48 53.67 89.83C55.98 91.3 59 92.51 55.48 95.87C54.65 96.67 54.86 98.09 55.83 99.04C57 100.18 58.41 100.14 59.36 99.03C61.86 96.11 62.98 98.1 64.31 100.14C67.09 104.36 68.86 108.94 69.81 113.91C70.19 115.9 70.25 117.05 67.71 117.07C66.02 117.09 64.31 117.71 64.39 119.95C64.46 121.88 66.01 122.52 67.5 122.51C70.35 122.49 70.16 123.82 69.74 125.98C68.53 132.14 66.11 137.65 61.87 142.49C61.16 141.9 60.55 141.38 59.92 140.88C58.69 139.9 57.38 139.11 55.94 140.44C54.56 141.72 54.77 143.37 55.94 144.42C58.43 146.63 56.82 147.58 55.03 148.83C50.87 151.73 46.25 153.47 41.35 154.54C39.21 155.01 37.3 155.19 37.52 151.95C37.63 150.24 36.62 149.02 34.8 149.16C33.34 149.28 32.25 150.31 32.4 151.85C32.76 155.55 30.48 154.95 28.32 154.47C24.42 153.59 20.63 152.37 17.22 150.23Z" fill="#F7F9FA"/>
<path d="M89.64 50.81C89.75 58.3 89.71 65.8 89.69 73.29C89.68 75.89 89.61 78.7 93.22 78.62C96.52 78.55 96.37 75.91 96.36 73.5C96.32 66.34 96.37 59.18 96.33 52.02C96.31 49.3 96.66 46.8 100.04 46.66C103.68 46.51 104.32 48.99 104.3 52C104.25 59.33 104.32 66.65 104.27 73.98C104.26 76.3 104.34 78.57 107.36 78.63C110.62 78.7 110.9 76.34 110.88 73.8C110.85 66.48 110.87 59.15 110.88 51.82C110.88 49.12 111.32 46.65 114.77 46.63C118.21 46.61 118.7 49.02 118.69 51.76C118.68 58.59 118.64 65.41 118.72 72.24C118.75 74.92 117.81 78.67 122.16 78.57C126.55 78.47 125.26 74.64 125.31 72.05C125.45 64.72 125.38 57.4 125.47 50.07C125.48 49 124.82 47.56 126.1 46.91C127.41 46.24 128.65 47.03 129.77 47.82C132.16 49.51 133.06 51.93 133.06 54.73C133.07 67.22 133.37 79.72 132.94 92.2C132.55 103.38 126.76 111.41 116.28 115.43C112.92 116.72 112.14 118.36 112.19 121.63C112.38 132.11 112.26 142.6 112.26 153.08C113.04 153.08 113.83 153.09 114.61 153.09C114.61 163.4 114.56 173.72 114.63 184.03C114.67 190.01 112.58 192.79 107.71 192.87C102.65 192.96 100.16 190.06 100.39 183.9C101.15 163.43 101.91 142.97 102.93 122.51C103.12 118.56 102.11 116.69 98.27 115.15C88.07 111.06 82.47 103.19 82.26 92.08C82.02 79.6 82.21 67.11 82.17 54.62C82.17 52.36 82.55 50.29 84.26 48.7C85.48 47.56 86.92 46.34 88.66 46.91C90.63 47.56 89.62 49.49 89.64 50.81Z" fill="#F7F9FA"/>
<path d="M185.39 124.15C185.73 133.61 185.5 143.1 185.5 152.57H188.01C188.01 162.87 187.93 173.18 188.04 183.48C188.11 189.62 185.84 192.91 181.09 192.97C176.05 193.04 173.38 189.59 173.64 183.47C174.51 163.03 175.29 142.58 176.27 122.15C176.44 118.57 175.87 116.19 172.03 114.95C167.99 113.66 164.94 110.71 162.25 107.47C151 93.94 150.75 70.14 161.72 56.37C171.98 43.49 189.73 43.5 199.94 56.38C210.92 70.24 210.65 93.85 199.39 107.49C197.03 110.35 194.43 113.3 190.97 114.31C185.48 115.92 185.23 119.43 185.39 124.15Z" fill="#F7F9FA"/>
<path d="M231.52 20.88C231.53 86.84 231.53 152.79 231.52 218.75C231.51 232.02 224.88 238.58 211.48 238.59C159.02 238.6 106.56 238.6 54.1 238.58C40.77 238.58 34.22 231.97 34.16 218.64C34.13 211.82 35.9 204.24 33.47 198.4C31.05 192.56 24.42 188.46 19.64 183.6C18.58 182.53 17.52 181.48 16.46 180.41C14.96 178.9 12.72 177.3 14.79 175.03C16.99 172.63 18.63 174.94 20.13 176.41C24.63 180.86 29.33 185.14 33.49 189.9C36.23 193.03 37.82 192.4 40.28 189.71C44.55 185.05 49.15 180.69 53.65 176.24C55.02 174.88 56.51 172.79 58.62 174.87C60.86 177.07 58.91 178.68 57.34 180.24C52.15 185.4 47.03 190.65 41.76 195.74C40.08 197.36 39.35 199.03 39.41 201.4C39.56 207.72 39.37 214.05 39.48 220.38C39.61 228.16 44.22 232.92 51.9 232.93C105.86 232.98 159.82 232.98 213.78 232.93C221.48 232.92 226.18 228.17 226.18 220.39C226.23 153.27 226.23 86.15 226.18 19.03C226.17 11.31 221.4 6.66 213.62 6.65C159.82 6.6 106.03 6.6 52.24 6.64C44.2 6.65 39.55 11.32 39.48 19.35C39.38 29.97 39.46 40.59 39.46 51.21C39.83 51.44 40.2 51.66 40.58 51.88C45.08 47.22 49.57 42.55 54.07 37.9C55.42 36.51 56.95 35.21 58.74 37.02C60.42 38.74 59.4 40.33 57.98 41.75C51.84 47.85 45.67 53.94 39.61 60.12C37.42 62.35 35.76 61.9 33.76 59.85C27.95 53.89 22.03 48.03 16.12 42.16C14.65 40.7 12.92 39.09 14.77 37.13C16.98 34.79 18.63 37.01 20.12 38.52C24.46 42.88 28.75 47.29 33.02 51.64C34.92 50.49 34.11 49.02 34.12 47.87C34.2 38.38 34.11 28.88 34.19 19.39C34.28 8.08 41.28 1.09 52.65 1.04C70.47 0.959998 88.29 1.02 106.11 1.02C141.25 1.02 176.39 1.01 211.53 1.02C224.93 1.03 231.51 7.55 231.52 20.88Z" fill="#F7F9FA"/>
<path d="M231.52 20.88C231.53 86.84 231.53 152.79 231.52 218.75C231.51 232.02 224.88 238.58 211.48 238.59C159.02 238.6 106.56 238.6 54.1 238.58C40.77 238.58 34.22 231.97 34.16 218.64C34.13 211.82 35.9 204.24 33.47 198.4C31.05 192.56 24.42 188.46 19.64 183.6C18.58 182.53 17.52 181.48 16.46 180.41C14.96 178.9 12.72 177.3 14.79 175.03C16.99 172.63 18.63 174.94 20.13 176.41C24.63 180.86 29.33 185.14 33.49 189.9C36.23 193.03 37.82 192.4 40.28 189.71C44.55 185.05 49.15 180.69 53.65 176.24C55.02 174.88 56.51 172.79 58.62 174.87C60.86 177.07 58.91 178.68 57.34 180.24C52.15 185.4 47.03 190.65 41.76 195.74C40.08 197.36 39.35 199.03 39.41 201.4C39.56 207.72 39.37 214.05 39.48 220.38C39.61 228.16 44.22 232.92 51.9 232.93C105.86 232.98 159.82 232.98 213.78 232.93C221.48 232.92 226.18 228.17 226.18 220.39C226.23 153.27 226.23 86.15 226.18 19.03C226.17 11.31 221.4 6.66 213.62 6.65C159.82 6.6 106.03 6.6 52.24 6.64C44.2 6.65 39.55 11.32 39.48 19.35C39.38 29.97 39.46 40.59 39.46 51.21C39.83 51.44 40.2 51.66 40.58 51.88C45.08 47.22 49.57 42.55 54.07 37.9C55.42 36.51 56.95 35.21 58.74 37.02C60.42 38.74 59.4 40.33 57.98 41.75C51.84 47.85 45.67 53.94 39.61 60.12C37.42 62.35 35.76 61.9 33.76 59.85C27.95 53.89 22.03 48.03 16.12 42.16C14.65 40.7 12.92 39.09 14.77 37.13C16.98 34.79 18.63 37.01 20.12 38.52C24.46 42.88 28.75 47.29 33.02 51.64C34.92 50.49 34.11 49.02 34.12 47.87C34.2 38.38 34.11 28.88 34.19 19.39C34.28 8.08 41.28 1.09 52.65 1.04C70.47 0.959998 88.29 1.02 106.11 1.02C141.25 1.02 176.39 1.01 211.53 1.02C224.93 1.03 231.51 7.55 231.52 20.88Z" fill="#F34545"/>
<path d="M199.39 107.49C197.03 110.35 194.43 113.3 190.97 114.31C185.48 115.92 185.23 119.43 185.39 124.15C185.73 133.61 185.5 143.1 185.5 152.57H188.01C188.01 162.87 187.93 173.18 188.04 183.48C188.11 189.62 185.84 192.91 181.09 192.97C176.05 193.04 173.38 189.59 173.64 183.47C174.51 163.03 175.29 142.58 176.27 122.15C176.44 118.57 175.87 116.19 172.03 114.95C167.99 113.66 164.94 110.71 162.25 107.47C151 93.94 150.75 70.14 161.72 56.37C171.98 43.49 189.73 43.5 199.94 56.38C210.92 70.24 210.65 93.85 199.39 107.49Z" fill="#F34545"/>
<path d="M69.74 125.98C68.53 132.14 66.11 137.65 61.87 142.49C61.16 141.9 60.55 141.38 59.92 140.88C58.69 139.9 57.38 139.11 55.94 140.44C54.56 141.72 54.77 143.37 55.94 144.42C58.43 146.63 56.82 147.58 55.03 148.83C50.87 151.73 46.25 153.47 41.35 154.54C39.21 155.01 37.3 155.19 37.52 151.95C37.63 150.24 36.62 149.02 34.8 149.16C33.34 149.28 32.25 150.31 32.4 151.85C32.76 155.55 30.48 154.95 28.32 154.47C24.42 153.59 20.63 152.37 17.22 150.23C14.67 148.62 10.7 147.48 14.7 143.34C15.72 142.28 14.87 141.09 13.97 140.31C12.96 139.43 11.65 139.49 10.79 140.42C7.97999 143.46 6.74999 141.11 5.40999 138.98C3.54999 136.01 1.93999 132.92 1.15999 129.48C0.459993 126.44 -2.16001 122.64 3.97999 122.09C5.35999 121.96 5.62999 120.61 5.51999 119.35C5.38999 117.92 4.25999 117.19 3.14999 117.22C-0.770007 117.33 -7.24196e-06 114.82 0.459993 112.6C1.29999 108.51 2.84999 104.68 5.07999 101.12C6.56999 98.74 7.76999 95.84 11.09 99.33C11.95 100.22 13.24 100.01 14.22 99.03C15.38 97.87 15.39 96.43 14.32 95.49C11.46 93 13.31 91.83 15.38 90.45C19.45 87.73 23.91 86.02 28.66 85.02C30.72 84.58 32.73 84.22 32.4 87.57C32.22 89.31 33.39 90.44 35.14 90.4C36.67 90.37 37.61 89.27 37.51 87.75C37.27 84.15 39.48 84.6 41.7 85.09C45.94 86.02 49.99 87.48 53.67 89.83C55.98 91.3 59 92.51 55.48 95.87C54.65 96.67 54.86 98.09 55.83 99.04C57 100.18 58.41 100.14 59.36 99.03C61.86 96.11 62.98 98.1 64.31 100.14C67.09 104.36 68.86 108.94 69.81 113.91C70.19 115.9 70.25 117.05 67.71 117.07C66.02 117.09 64.31 117.71 64.39 119.95C64.46 121.88 66.01 122.52 67.5 122.51C70.35 122.49 70.16 123.82 69.74 125.98Z" fill="#0B9D58"/>
<path d="M132.94 92.2C132.55 103.38 126.76 111.41 116.28 115.43C112.92 116.72 112.14 118.36 112.19 121.63C112.38 132.11 112.26 142.6 112.26 153.08C113.04 153.08 113.83 153.09 114.61 153.09C114.61 163.4 114.56 173.72 114.63 184.03C114.67 190.01 112.58 192.79 107.71 192.87C102.65 192.96 100.16 190.06 100.39 183.9C101.15 163.43 101.91 142.97 102.93 122.51C103.12 118.56 102.11 116.69 98.27 115.15C88.07 111.06 82.47 103.19 82.26 92.08C82.02 79.6 82.21 67.11 82.17 54.62C82.17 52.36 82.55 50.29 84.26 48.7C85.48 47.56 86.92 46.34 88.66 46.91C90.63 47.56 89.62 49.49 89.64 50.81C89.75 58.3 89.71 65.8 89.69 73.29C89.68 75.89 89.61 78.7 93.22 78.62C96.52 78.55 96.37 75.91 96.36 73.5C96.32 66.34 96.37 59.18 96.33 52.02C96.31 49.3 96.66 46.8 100.04 46.66C103.68 46.51 104.32 48.99 104.3 52C104.25 59.33 104.32 66.65 104.27 73.98C104.26 76.3 104.34 78.57 107.36 78.63C110.62 78.7 110.9 76.34 110.88 73.8C110.85 66.48 110.87 59.15 110.88 51.82C110.88 49.12 111.32 46.65 114.77 46.63C118.21 46.61 118.7 49.02 118.69 51.76C118.68 58.59 118.64 65.41 118.72 72.24C118.75 74.92 117.81 78.67 122.16 78.57C126.55 78.47 125.26 74.64 125.31 72.05C125.45 64.72 125.38 57.4 125.47 50.07C125.48 49 124.82 47.56 126.1 46.91C127.41 46.24 128.65 47.03 129.77 47.82C132.16 49.51 133.06 51.93 133.06 54.73C133.07 67.22 133.37 79.72 132.94 92.2Z" fill="#0B9D58"/>
<path d="M185.95 111.74C184.62 111.9 183.67 111.3 183.23 110.09C182.8 108.93 182.93 107.65 184.03 106.98C190.43 103.08 194.35 97.39 196.57 90.34C196.94 89.16 198.09 88.62 199.41 88.87C200.7 89.12 201.38 89.97 201.57 91.25C202.36 96.44 191 111.35 185.95 111.74Z" fill="#F4F6F7"/>
<path d="M37.65 111.91C40.28 119.38 34.84 124.56 29.17 129.69C27.76 130.97 26.27 131.67 24.82 130.28C23.37 128.9 23.68 127.01 25.26 125.96C32.99 120.85 32.74 113.2 32.43 105.28C32.33 102.77 30.46 98.17 35.13 98.24C39.26 98.3 37.23 102.62 37.6 105.11C37.86 106.91 37.65 108.76 37.65 111.91Z" fill="#F5F7F8"/>
<path d="M121.92 98.69C124.23 99.31 124.9 100.94 123.91 102.84C121.44 107.61 117.07 110.34 112.43 112.62C111.28 113.18 110.16 112.61 109.49 111.48C108.84 110.38 108.72 108.83 109.7 108.29C113.97 105.94 117.43 102.74 120.5 99.02C120.75 98.73 121.43 98.8 121.92 98.69Z" fill="#F3F5F6"/>
</svg>
