<svg xmlns="http://www.w3.org/2000/svg" viewBox="0 0 245.39 204.52"><defs><style>.cls-1{fill:#606060;opacity:0.13;}.cls-2{fill:#df2926;}.cls-3{fill:#a11;}.cls-4{fill:#bc0f0f;}.cls-5{fill:#0b9755;}.cls-6{fill:#05723b;}</style></defs><g id="OBJECTS"><path class="cls-1" d="M818,384.78l11.15-42.15a22,22,0,0,1-4.68-2.73A22.08,22.08,0,0,1,816,321.22a22.75,22.75,0,0,1,.71-4.41c.07-.28.16-.55.24-.83l0,0a22,22,0,0,1,23.37-15.45l11.58-43.78a4.79,4.79,0,0,1,5.86-3.4,4.25,4.25,0,0,1,.8.3l0-.08.1.13a4.8,4.8,0,0,1,2.55,3.45,147.55,147.55,0,0,0,57.68,47l14.69,6.64,1.09.34,23.43,7.4a24.37,24.37,0,0,1,13.8,11.36v0c.08.15.15.31.23.46.33.6.64,1.2.92,1.82.11.25.21.51.32.76.24.59.47,1.17.68,1.78.1.29.19.59.28.89.18.58.34,1.16.48,1.75.07.33.15.66.21,1,.12.58.22,1.16.3,1.76,0,.35.09.7.13,1.05.06.59.09,1.18.12,1.77,0,.37,0,.73,0,1.09s0,.85,0,1.27l.22.06A14.43,14.43,0,0,1,986.09,363,14.12,14.12,0,0,1,968.81,373l-1-.28a27.83,27.83,0,0,1-15.38,12.38,24.1,24.1,0,0,1-9.57,1,114.37,114.37,0,0,0-8.48,43.9c.19,18.89-7.91,24.81-15.12,24.54h-.15a13,13,0,0,1-2.73-.44l-.19-.05a12.67,12.67,0,0,1-2.44-1l-.23-.12c-.37-.2-.73-.42-1.08-.65l0,0c-.33-.23-.63-.47-.93-.72l-.22-.2a9.31,9.31,0,0,1-.84-.82c-6.93-7.78-7.67-23.9-4.57-41.12a141,141,0,0,1,4.31-17.33q.9-2.86,1.91-5.66c.83-2.29,1.71-4.52,2.64-6.71l-15.88-1.78a143.87,143.87,0,0,0-41.87,1.48q-4.62.84-9.21,2c-3.05.76-6.1,1.62-9.12,2.57q-5.88,1.88-11.66,4.24a4.79,4.79,0,0,1-5.49,2.45l-.21-.08,0,0v0A4.78,4.78,0,0,1,818,384.78Z" transform="translate(-757.66 -250)"/><path class="cls-2" d="M961.49,378a111.16,111.16,0,0,0-10.69,48.73c.3,28.07-17.73,27.53-23.94,20.55-12.32-13.83-5.11-54,8.58-79.92" transform="translate(-757.66 -250)"/><path class="cls-3" d="M935.44,367.39l26,10.64s-.79,1.5-1.94,4.21a4,4,0,0,0-4.09-.85c-15.5,4.76-22.26,21.49-25.22,36.13-2.52,12.44-1.16,24.72,6.85,33.76a12.69,12.69,0,0,1-10.23-4C914.54,433.48,921.75,393.3,935.44,367.39Z" transform="translate(-757.66 -250)"/><path class="cls-2" d="M833.15,313.61a22.05,22.05,0,1,0,27-15.68A22.05,22.05,0,0,0,833.15,313.61Z" transform="translate(-757.66 -250)"/><path class="cls-2" d="M875.44,312.44a22,22,0,1,1-42.29,1.17c.08-.28.16-.56.25-.83C842.39,325.62,864.47,324.94,875.44,312.44Z" transform="translate(-757.66 -250)"/><path class="cls-2" d="M982.89,369.17l2.39.63a14.14,14.14,0,0,0,17.29-10.05h0a14.44,14.44,0,0,0-10.26-17.65l-2.11-.56Z" transform="translate(-757.66 -250)"/><path class="cls-2" d="M856,314l19-63.57,2.54,3.43a147.57,147.57,0,0,0,57.8,47.12l14.69,6.64,1.09.35-18.25,69-1.64-.38-16-1.79a147,147,0,0,0-73.67,11l-3.92,1.66,15.9-64.43,1.19-4.83Z" transform="translate(-757.66 -250)"/><path class="cls-4" d="M874.49,349.52c14.08,1.83,28.12,4.3,42.13,6.65Q927,357.92,937.39,360l-4.47,16.88-1.64-.38-16-1.79a147,147,0,0,0-73.67,11l-3.92,1.66,9.52-38.58C856.22,347.77,865.42,348.35,874.49,349.52Z" transform="translate(-757.66 -250)"/><path class="cls-5" d="M837.92,387.43h0a4.79,4.79,0,0,0,5.86-3.4l33.85-128a4.79,4.79,0,0,0-3.41-5.86h0a4.79,4.79,0,0,0-5.86,3.41l-33.85,128A4.78,4.78,0,0,0,837.92,387.43Z" transform="translate(-757.66 -250)"/><path class="cls-5" d="M974.59,315.32c13.34,4.21,20.6,19.43,16.3,34.2l-1.56,5.4-1.63,6.36c-3.81,14.9-17.78,24.29-31.39,21.1l-23.39-5.49,18.25-69Z" transform="translate(-757.66 -250)"/><path class="cls-6" d="M970,355.08c9.34-6.06,16.29-17.5,18.36-28.42a29.47,29.47,0,0,1,2.49,22.86l-1.56,5.4-1.63,6.36c-3.81,14.9-17.78,24.29-31.39,21.1l-23.39-5.49,4.6-17.38C948.08,360.61,961,361,970,355.08Z" transform="translate(-757.66 -250)"/><path class="cls-2" d="M815.45,291.34a1.51,1.51,0,0,0,.82-.61,1.55,1.55,0,0,0-.42-2.14l-38.72-25.81a1.54,1.54,0,0,0-1.71,2.56l38.72,25.81A1.5,1.5,0,0,0,815.45,291.34Z" transform="translate(-757.66 -250)"/><path class="cls-2" d="M770.53,347.26l.2-.07,42.12-19.78a1.54,1.54,0,1,0-1.31-2.78L769.42,344.4a1.54,1.54,0,0,0,1.11,2.86Z" transform="translate(-757.66 -250)"/><path class="cls-2" d="M805.72,308.84a1.54,1.54,0,0,0-.24-3l-46.06-6.59a1.54,1.54,0,0,0-.44,3l46.07,6.6A1.37,1.37,0,0,0,805.72,308.84Z" transform="translate(-757.66 -250)"/></g></svg>