<svg id="Layer_1" data-name="Layer 1" xmlns="http://www.w3.org/2000/svg" viewBox="0 0 505.68 512"><defs><style>.cls-1{fill:#fff;}</style></defs><path class="cls-1" d="M1312,485.35c43.13-18.29,66.89-43.62,66.89-71.33s-23.75-53-66.89-71.32c-18-7.62-38.55-13.72-60.84-18.15a231.62,231.62,0,0,0,24.75-7.76c33.8-12.85,52.41-31.07,52.41-51.31s-18.61-38.46-52.41-51.31a238.3,238.3,0,0,0-28.72-8.72,141,141,0,0,0,18.1-7.21c24.34-11.82,37.75-28.34,37.75-46.54s-13.41-34.71-37.75-46.53a159.66,159.66,0,0,0-37.45-12.28c20-10,31-23.85,31-39.16,0-15.64-11.44-29.78-32.22-39.81C1207.93,4.94,1183.46,0,1157.61,0s-50.33,4.94-68.92,13.92c-20.78,10-32.22,24.17-32.22,39.81s11.44,29.78,32.22,39.81a124.57,124.57,0,0,0,20.81,7.7c-3.09,1.23-6.09,2.54-9,3.93-24.34,11.82-37.75,28.34-37.75,46.53s13.41,34.72,37.75,46.54c1.14.55,2.31,1.08,3.49,1.61-21.6,3.08-41.47,7.91-58.36,14.32-33.79,12.85-52.41,31.07-52.41,51.31s18.62,38.46,52.41,51.31a231.1,231.1,0,0,0,24.76,7.76c-22.3,4.43-42.87,10.53-60.85,18.15C966.45,361,942.69,386.32,942.69,414s23.76,53,66.89,71.33c6.53,2.76,13.4,5.33,20.56,7.69H914.25v19h455.11V493h-78C1298.55,490.68,1305.43,488.11,1312,485.35Zm-215-408.89c-13.67-6.6-21.51-14.88-21.51-22.73s7.84-16.14,21.51-22.74c16.07-7.75,37.61-12,60.67-12s44.6,4.28,60.66,12c13.67,6.6,21.51,14.89,21.51,22.74s-7.84,16.13-21.51,22.73c-16.06,7.76-37.61,12-60.66,12S1113,84.22,1096.94,76.46Zm-15.19,75.24c0-10.38,9.87-21.12,27.07-29.47,19.63-9.53,45.93-14.77,74.07-14.77s54.44,5.24,74.07,14.77c17.2,8.35,27.07,19.09,27.07,29.47s-9.87,21.13-27.07,29.48C1237.33,190.71,1211,196,1182.89,196s-54.44-5.24-74.07-14.77C1091.62,172.83,1081.75,162.09,1081.75,151.7Zm-29.34,147.36c-25.16-9.56-40.19-22.12-40.19-33.58s15-24,40.19-33.58c28.82-11,67.3-17,108.36-17s79.53,6,108.35,17c25.16,9.56,40.19,22.12,40.19,33.58s-15,24-40.19,33.58c-28.82,11-67.3,17-108.35,17S1081.23,310,1052.41,299.06ZM1017,467.89C981.82,453,961.65,433.35,961.65,414s20.17-38.95,55.33-53.86c38.25-16.22,89.31-25.15,143.79-25.15s105.53,8.93,143.78,25.15c35.16,14.91,55.33,34.54,55.33,53.86s-20.17,39-55.33,53.87C1266.3,484.11,1215.24,493,1160.77,493S1055.23,484.11,1017,467.89Z" transform="translate(-914.25)"/><path class="cls-1" d="M999.58,420.35h19c0-11.88,27.66-28.45,72.69-28.45v-19C1039,372.94,999.58,393.32,999.58,420.35Z" transform="translate(-914.25)"/><path class="cls-1" d="M1050.15,278.88h19c0-7.85,21.43-19.72,53.73-19.72v-19C1081.4,240.2,1050.15,256.83,1050.15,278.88Z" transform="translate(-914.25)"/><path class="cls-1" d="M1113.36,162.2h19c0-2.41,3.45-6.44,11.14-10,9.37-4.33,22.59-6.82,36.27-6.82v-19C1141.89,126.42,1113.36,141.8,1113.36,162.2Z" transform="translate(-914.25)"/><path class="cls-1" d="M1102.31,61.11l15.78,10.52a37.54,37.54,0,0,1,30-14.74v-19A56.9,56.9,0,0,0,1102.31,61.11Z" transform="translate(-914.25)"/><rect class="cls-1" x="474.07" y="493.04" width="31.61" height="18.96"/><rect class="cls-1" x="284.44" y="423.51" width="25.28" height="18.96"/><rect class="cls-1" x="309.73" y="398.22" width="25.28" height="18.96"/><rect class="cls-1" x="309.73" y="246.52" width="25.28" height="18.96"/><rect class="cls-1" x="284.44" y="271.8" width="25.28" height="18.96"/><rect class="cls-1" x="309.73" y="145.38" width="25.28" height="18.96"/><rect class="cls-1" x="271.8" y="44.25" width="25.28" height="18.96"/><rect class="cls-1" x="335.01" y="423.51" width="25.28" height="18.96"/></svg>