<svg width="258" height="200" viewBox="0 0 258 200" fill="none" xmlns="http://www.w3.org/2000/svg">
<path d="M13.14 103.5C13.06 101.09 13.5 99.92 16.34 99.98C24.66 100.17 32.99 99.83 41.3 100.11C52.47 100.49 60.31 108.61 60.78 120.07C61.01 125.39 60.9 130.72 60.82 136.04C60.76 139.73 60.55 143.24 64.14 145.83C66.79 147.75 63.86 148.84 62.89 150C61.8 151.29 60.45 153.39 58.67 150.82C56.42 147.56 53.24 147.63 49.85 147.7C44.36 147.83 38.87 147.82 33.38 147.71C21.68 147.48 13.39 139.12 13.2 127.45C13.13 123.63 13.19 119.8 13.18 115.98C13.18 111.82 13.29 107.65 13.14 103.5Z" fill="#F7F9FA"/>
<path d="M149.72 46.36C148.37 38.85 151.69 30.84 158.25 27.09C168.91 21 180.85 18.66 192.64 15.93C193.93 15.64 195.24 15.42 197.53 14.97C194.46 28.96 192.13 42.52 185.1 54.58C181.26 61.17 172.86 64.29 165.14 62.69C157.17 61.04 151.22 54.74 149.72 46.36Z" fill="#F7F9FA"/>
<path d="M230.03 73.41C227.47 85.06 224.95 96.74 219.71 107.56C216.24 114.72 209.73 118.69 202.24 118.69C193.49 118.7 185.26 112.37 183.13 104C180.84 95.03 184.42 86.21 192.49 81.97C203.61 76.13 215.85 73.77 227.95 70.99C230.32 70.45 230.42 71.66 230.03 73.41Z" fill="#F7F9FA"/>
<path d="M198.91 46.87C197.46 38.83 200.56 30.97 207.3 27.11C217.94 21 229.89 18.68 241.66 15.94C242.95 15.64 244.26 15.43 246.58 14.99C243.57 28.99 241.18 42.52 234.17 54.57C230.34 61.18 221.96 64.29 214.23 62.7C206.44 61.1 200.34 54.8 198.91 46.87Z" fill="#F7F9FA"/>
<path d="M257.08 198.03C256.98 199.27 256.52 199.82 255.27 199.77C254.1 199.73 252.94 199.77 251.77 199.77C169.97 199.77 88.18 199.72 6.37999 199.89C1.84999 199.9 0.579995 198.68 1.10999 194.43C1.47999 191.47 0.989994 188.41 1.34999 185.45C2.60999 175.2 11.03 168.24 22.4 168.14C36.56 168.02 50.72 168 64.88 168.2C68.29 168.25 69.35 167.48 69.31 163.9C69.12 144.74 69.11 125.59 69.33 106.43C69.37 103.09 68.19 101.98 65.29 101.03C39.92 92.72 25.51 68.34 30.18 41.87C34.5 17.35 57.33 -0.849997 82.97 0.0300035C95.94 0.470003 107.08 5.51 116.8 14.13C119.7 16.7 119.49 18.42 116.88 20.63V20.64C118.88 22.44 120.87 24.23 122.86 26.03C125.86 24.22 126.38 26.7 127.32 28.56C141.43 56.38 127.56 90.73 97.91 100.66C93.82 102.03 92.71 103.76 92.8 107.83C93.07 120.15 92.9 132.48 92.9 144.81V150.2C98.59 145.95 102.42 141.87 101.38 134.68C100.72 130.11 101.19 125.37 101.27 120.71C101.48 108.66 109.71 100.28 121.68 100.07C129.51 99.94 137.35 100.2 145.17 99.97C148.33 99.88 149.13 100.9 149.04 103.93C148.84 111.59 149.06 119.25 148.96 126.91C148.8 139.26 140.49 147.54 128.21 147.73C126.21 147.76 124.21 147.73 122.22 147.73C106.01 147.73 106.11 147.83 94.91 159.31C92.49 161.8 92.39 164.54 93.18 167.05C93.87 169.24 96.68 168.06 98.5 168.06C143.31 168.13 188.13 168.29 232.94 168.04C254.77 167.92 258.35 182.08 257.08 198.03Z" fill="#F7F9FA"/>
<path d="M257.08 198.03C256.98 199.27 256.52 199.82 255.27 199.77C254.1 199.73 252.94 199.77 251.77 199.77C169.97 199.77 88.18 199.72 6.37999 199.89C1.84999 199.9 0.579995 198.68 1.10999 194.43C1.47999 191.47 0.989994 188.41 1.34999 185.45C2.60999 175.2 11.03 168.24 22.4 168.14C36.56 168.02 50.72 168 64.88 168.2C68.29 168.25 69.35 167.48 69.31 163.9C69.12 144.74 69.11 125.59 69.33 106.43C69.37 103.09 68.19 101.98 65.29 101.03C39.92 92.72 25.51 68.34 30.18 41.87C34.5 17.35 57.33 -0.849997 82.97 0.0300035C95.94 0.470003 107.08 5.51 116.8 14.13C119.7 16.7 119.49 18.42 116.88 20.63V20.64C114.61 24.09 112.5 22.04 110.28 20.51C108.24 19.1 106.78 15.65 103.67 17.35C100.32 19.19 98.42 22.29 98.53 26.41C98.61 29.56 98.65 32.73 98.43 35.88C98.19 39.23 96.39 41.07 93.03 41.2C88.04 41.39 83.05 41.4 78.07 41.18C75.99 41.09 74.2 40.23 72.7 38.81C67.76 34.12 62.97 29.26 58.22 24.37C56.65 22.76 56.29 20.57 55.12 18.26C49.08 22.33 45.1 27.8 42.12 34.14C39.76 39.18 38.43 44.43 38.56 50.05C38.63 52.84 39.64 54.69 42.64 54.4C48.56 53.84 53.31 55.74 57.23 60.25C59.4 62.76 62.63 62.45 65.63 62.48C74.13 62.58 74.68 63 74.49 71.64C74.38 76.72 75.65 81.96 73.26 86.87C73.21 86.97 73.15 87.06 73.09 87.16C72.99 87.3 72.88 87.43 72.76 87.56C71.38 89.16 68.71 90.3 69.44 92.12C70.43 94.59 73.95 94.31 76.5 94.46C79.89 94.67 83.33 94.91 87.06 94.16C86.43 91.69 83.76 90.42 83.57 88.07C83.56 88 83.55 87.93 83.55 87.85C83.54 87.62 83.56 87.38 83.61 87.12C86.16 82.1 90.68 78.82 94.57 75.06C98.15 71.59 99.98 67.93 99.8 62.82C99.52 55.09 100.37 54.52 108.35 54.46C112 54.44 115.64 54.4 119.29 54.46C122.47 54.5 123.71 53.03 123.7 49.92C123.68 43.8 121.62 38.23 119.45 32.65C117.74 28.23 118.11 27.59 122.86 26.03C125.86 24.22 126.38 26.7 127.32 28.56C141.43 56.38 127.56 90.73 97.91 100.66C93.82 102.03 92.71 103.76 92.8 107.83C93.07 120.15 92.9 132.48 92.9 144.81V150.2C98.59 145.95 102.42 141.87 101.38 134.68C100.72 130.11 101.19 125.37 101.27 120.71C101.48 108.66 109.71 100.28 121.68 100.07C129.51 99.94 137.35 100.2 145.17 99.97C148.33 99.88 149.13 100.9 149.04 103.93C148.84 111.59 149.06 119.25 148.96 126.91C148.8 139.26 140.49 147.54 128.21 147.73C126.21 147.76 124.21 147.73 122.22 147.73C106.01 147.73 106.11 147.83 94.91 159.31C92.49 161.8 92.39 164.54 93.18 167.05C93.87 169.24 96.68 168.06 98.5 168.06C143.31 168.13 188.13 168.29 232.94 168.04C254.77 167.92 258.35 182.08 257.08 198.03Z" fill="black"/>
<path d="M125.32 52.42C125.32 55.13 124.62 56.17 121.73 56.05C116.1 55.83 110.45 56.13 104.82 55.93C101.99 55.83 100.71 56.76 101.27 59.56C102.95 67.86 99.18 73.64 93.04 78.67C89.73 81.37 86.98 84.76 83.98 87.84C83.84 87.92 83.71 88 83.57 88.07C79.78 90.15 76.15 90.15 72.76 87.56C72.45 87.32 72.13 87.06 71.82 86.77C74.1 79.79 72.37 72.62 72.78 65.54C72.86 64.25 71.8 63.99 70.71 63.99C69.05 64 67.35 63.79 65.72 64.02C60.7 64.72 56.55 63.44 53.65 59.1C50.47 54.33 45.57 55.96 41.35 56.13C37.37 56.28 36.68 54.81 36.76 51.31C37.07 36.45 44.33 22.95 57.06 14.84C55.71 23.65 63.56 26.28 67.46 31.58C72.32 38.2 78.52 40.43 86.77 39.8C96.86 39.02 97.05 39.61 96.85 29.51C96.75 24.39 96.89 19.76 101.67 16.29C103.75 14.78 105.01 13.99 107.03 15.91C108.6 17.4 110.55 18.53 111.91 20.16C113.58 22.16 115.06 22.13 116.87 20.63H116.88V20.64C118.88 22.44 120.87 24.23 122.86 26.03C119.42 27.74 119.17 29.79 121.1 33.23C124.37 39.1 125.33 45.68 125.32 52.42Z" fill="#A3FDF0"/>
<path d="M62.89 150C61.8 151.29 60.45 153.39 58.67 150.82C56.42 147.56 53.24 147.63 49.85 147.7C44.36 147.83 38.87 147.82 33.38 147.71C21.68 147.48 13.39 139.12 13.2 127.45C13.13 123.63 13.19 119.8 13.18 115.98C13.18 111.82 13.29 107.65 13.14 103.5C13.06 101.09 13.5 99.92 16.34 99.98C24.66 100.17 32.99 99.83 41.3 100.11C52.47 100.49 60.31 108.61 60.78 120.07C61.01 125.39 60.9 130.72 60.82 136.04C60.76 139.73 60.55 143.24 64.14 145.83C66.79 147.75 63.86 148.84 62.89 150Z" fill="#010101"/>
<path d="M230.03 73.41C227.47 85.06 224.95 96.74 219.71 107.56C216.24 114.72 209.73 118.69 202.24 118.69C193.49 118.7 185.26 112.37 183.13 104C180.84 95.03 184.42 86.21 192.49 81.97C203.61 76.13 215.85 73.77 227.95 70.99C230.32 70.45 230.42 71.66 230.03 73.41Z" fill="#010101"/>
<path d="M197.53 14.97C194.46 28.96 192.13 42.52 185.1 54.58C181.26 61.17 172.86 64.29 165.14 62.69C157.17 61.04 151.22 54.74 149.72 46.36C148.37 38.85 151.69 30.84 158.25 27.09C168.91 21 180.85 18.66 192.64 15.93C193.93 15.64 195.24 15.42 197.53 14.97Z" fill="black"/>
<path d="M246.58 14.99C243.57 28.99 241.18 42.52 234.17 54.57C230.34 61.18 221.96 64.29 214.23 62.7C206.44 61.1 200.34 54.8 198.91 46.87C197.46 38.83 200.56 30.97 207.3 27.11C217.94 21 229.89 18.68 241.66 15.94C242.95 15.64 244.26 15.43 246.58 14.99Z" fill="black"/>
<path d="M248.1 182.77C249.36 183.91 249.1 185.51 249.36 186.96C250 190.57 249.13 192.24 244.8 192.24C167.68 192.11 90.57 192.15 13.45 192.14C8.10999 192.14 7.35999 189.96 10.14 182.78C12.58 182.19 15.06 182.12 17.57 182.12C91.94 182.14 166.31 182.14 240.68 182.12C243.18 182.1 245.66 182.17 248.1 182.77Z" fill="#0B9D58"/>
<path d="M248.1 182.77C246.65 184.45 244.69 183.8 242.94 183.8C167.06 183.83 91.18 183.83 15.3 183.8C13.55 183.8 11.59 184.45 10.14 182.77C12.53 177.22 17.11 175.75 22.69 175.75C71.16 175.79 119.63 175.77 168.1 175.77C190.75 175.77 213.41 175.79 236.06 175.76C241.48 175.75 245.83 177.43 248.1 182.77Z" fill="#0B9D58"/>
<path d="M118.97 135.77C122.54 132.08 125.95 128.22 129.72 124.75C132.38 122.31 130.29 121.23 128.92 119.67C127.39 117.92 126.18 117.22 124.2 119.36C119.6 124.34 114.76 129.09 109.16 134.81C108.82 127.93 108.4 122.21 109.36 116.59C110.18 111.84 114.74 108.08 119.66 107.86C125.96 107.58 132.29 107.74 138.6 107.71C139.97 107.7 141.39 107.63 141.26 109.64C140.81 117.04 142.31 124.53 140.35 131.87C135.08 137.68 125.9 139.35 118.97 135.77Z" fill="#D7FB7D"/>
<path d="M96.48 10.36C95.99 11.27 95.9 11.66 95.66 11.82C90.02 15.7 88.17 21.11 89.25 27.68C89.81 31.13 88.52 32.05 85 32.14C80.53 32.25 77.08 31.32 74.19 27.71C71.93 24.88 69.01 22.59 66.54 19.91C62.82 15.87 64.32 10.31 69.46 9.04C78.48 6.81 87.4 6.94 96.48 10.36Z" fill="#D7FB7D"/>
<path d="M77.13 159.83C77.05 142.19 77.07 124.55 76.82 106.92C76.77 103.05 79.04 103.77 81.32 103.67C83.71 103.56 85.34 103.58 85.3 106.9C85.09 124.54 85.1 142.18 85.04 159.82C82.41 161.83 79.77 161.73 77.13 159.83Z" fill="#F34545"/>
<path d="M40.05 63.85C44.8 62.88 48.95 63.64 51.82 67.97C54.29 71.68 57.93 72.13 61.89 71.65C64.45 71.34 65.72 72.25 65.21 74.92C64.62 77.97 66.9 81.67 63.2 84.03C62.44 84.42 61.62 84.65 60.82 84.34C51.53 80.74 44.71 74.35 39.89 65.73C39.54 65.1 39.67 64.45 40.05 63.85Z" fill="#D7FB7D"/>
<path d="M122.2 63.87C124.4 65.2 122.72 66.68 122.23 67.95C118.5 77.53 112.07 84.79 103.3 90.14C100.37 91.93 97.91 92.62 95.84 89.24C93.69 85.74 97.76 85.54 98.86 83.77C108.33 79.12 115.45 71.71 122.2 63.87Z" fill="#89E695"/>
<path d="M71.82 86.77C75.78 88.17 79.9 87.87 83.99 87.84C85.99 90 87.99 92.16 90.55 94.92C82.28 96.77 74.79 96.24 67.32 93.9C65.55 93.35 65.7 92.53 66.78 91.49C68.44 89.9 70.14 88.35 71.82 86.77Z" fill="#93B6F5"/>
<path d="M122.2 63.87C116.92 73.43 109.58 80.59 98.86 83.77C100.54 81.96 102.05 79.92 103.95 78.39C107.71 75.38 109.85 71.85 108.94 66.88C108.45 64.21 109.73 63.41 112.28 63.59C115.58 63.84 118.89 63.79 122.2 63.87Z" fill="#D7FB7E"/>
<path d="M40.05 63.85C45.18 73.54 52.91 80.26 63.2 84.02C57.67 90.36 57.68 90.34 51.45 84.72C46.04 79.84 42.04 73.98 39.56 67.16C39.26 66.35 37.19 64.5 40.05 63.85Z" fill="#89E595"/>
<path d="M118.97 135.77C126.36 135.9 133.91 136.9 140.37 131.88C139.19 136.66 135.79 139.33 131.25 139.78C126.06 140.3 120.79 139.9 115.03 139.9C116.23 137.89 117.45 136.69 118.97 135.77Z" fill="#89E695"/>
<path d="M77.13 159.83C79.77 159.82 82.41 159.82 85.05 159.81C85.11 160.8 85.16 161.79 85.24 162.77C85.49 165.96 85.55 168.32 80.85 168.25C76.15 168.18 76.9 165.52 76.92 162.78C76.93 161.8 77.06 160.82 77.13 159.83Z" fill="#F34545"/>
<path d="M69.23 52.23C68.69 49 69.84 47.86 72.93 47.83C76.12 47.8 77.26 48.76 77.23 52.05C77.21 55.21 75.94 55.96 73.08 55.9C70.28 55.83 68.41 55.32 69.23 52.23Z" fill="#FAFEFD"/>
<path d="M89.27 55.73C85.9 56.32 85.14 54.81 85.03 51.89C84.91 48.4 86.5 47.88 89.48 47.83C92.8 47.77 93.14 49.41 93.2 52.1C93.26 55.25 92.01 56.36 89.27 55.73Z" fill="#FAFEFD"/>
<path d="M21.31 130.93C20.14 123.98 21.06 116.98 20.75 110.01C20.65 107.78 21.98 107.69 23.62 107.71C29.78 107.76 35.95 107.57 42.1 107.84C47.85 108.09 52.41 112.61 53.1 118.27C53.28 119.75 53.2 121.26 53.21 122.76C53.22 126.36 53.21 129.95 53.21 134.88C47.58 129.22 42.67 124.6 38.16 119.62C35.74 116.94 34.59 118.35 32.67 120.05C30.43 122.03 30.79 123.23 32.78 125.1C36.39 128.51 39.72 132.22 43.17 135.81C35.63 139.55 25.91 137.38 21.31 130.93Z" fill="#D7FB7D"/>
<path d="M21.31 130.93C27.54 137.29 35.54 135.76 43.18 135.8C44.42 136.88 45.65 137.96 48.15 140.14C40.81 139.9 34.77 140.98 28.9 139.35C24.9 138.23 22.11 135.29 21.31 130.93Z" fill="#89E494"/>
<path d="M194.14 90.03C201.28 84.74 209.94 83.48 218.12 80.96C219.83 80.43 220.68 81.03 220.12 82.93C217.68 91.13 216.36 99.75 211.1 106.89C205.73 109.51 201.65 106.56 198.34 103.16C194.96 99.7 191.72 95.61 194.14 90.03Z" fill="#A3FDF0"/>
<path d="M194.14 90.03C194.87 100.6 200.83 106.52 211.1 106.89C205.88 112.18 198.57 112.45 193.6 107.53C188.63 102.62 188.86 95.4 194.14 90.03Z" fill="#92B5F4"/>
<path d="M160.97 34.61C168.6 28.79 177.98 27.76 187.61 24.59C185.2 34.23 183.55 43.24 178.26 51.05C173.01 53.57 169 50.95 165.46 47.59C161.81 44.13 158.8 40.19 160.97 34.61Z" fill="#A3FDF0"/>
<path d="M160.97 34.61C160.92 43.77 168.97 51.97 178.26 51.06C174.48 57.01 165.17 56.56 160.75 52.19C155.72 47.21 155.73 40.01 160.97 34.61Z" fill="#92B5F4"/>
<path d="M209.98 34.67C217.7 28.77 227.15 27.69 236.84 24.56C234.16 34.22 232.65 43.31 227.31 51.09C221.84 53.56 217.73 50.86 214.12 47.29C210.66 43.89 207.76 40.05 209.98 34.67Z" fill="#A3FCF0"/>
<path d="M209.98 34.67C209.87 43.25 217.34 51.83 227.31 51.09C223.46 57 214.29 56.56 209.83 52.19C204.78 47.26 204.78 40.07 209.98 34.67Z" fill="#92B5F4"/>
</svg>
