<svg xmlns="http://www.w3.org/2000/svg" xmlns:xlink="http://www.w3.org/1999/xlink" viewBox="0 0 120 144.83"><defs><style>.cls-1{fill:none;}.cls-2{isolation:isolate;}.cls-3{fill:#0b9d58;}.cls-4{fill:#df2926;}.cls-5{fill:#e8c8c8;}.cls-10,.cls-12,.cls-5,.cls-7{mix-blend-mode:multiply;}.cls-6{fill:#a3a3a3;}.cls-11,.cls-16,.cls-6,.cls-8{mix-blend-mode:soft-light;}.cls-7{fill:#99c817;}.cls-8{fill:#e0e0e0;}.cls-10,.cls-9{fill:#cfe1ec;}.cls-11,.cls-13{fill:#fff;}.cls-12{fill:#d8dfe6;}.cls-14{clip-path:url(#clip-path);}.cls-15{clip-path:url(#clip-path-2);}.cls-16{fill:#d4d4d4;}</style><clipPath id="clip-path" transform="translate(-1343.85 -226.57)"><path class="cls-1" d="M1411.57,338.89c15.47,15.47,20.88,5.48,23,3.3s-2-9.82-9.25-17.1h0Z"/></clipPath><clipPath id="clip-path-2" transform="translate(-1343.85 -226.57)"><path class="cls-1" d="M1396.12,338.89c-15.46,15.47-20.87,5.48-23,3.3s2-9.82,9.24-17.1h0Z"/></clipPath></defs><g class="cls-2"><g id="Ñëîé_1" data-name="Ñëîé 1"><path class="cls-3" d="M1429.28,292.55l-22.15,22.15h0c-2.61,2.61,1.68,11.14,9.59,19.05h0c7.91,7.9,16.43,12.2,19,9.59h0l22.16-22.15a20.27,20.27,0,0,0,0-28.64h0A20.25,20.25,0,0,0,1429.28,292.55Z" transform="translate(-1343.85 -226.57)"/><path class="cls-4" d="M1419.11,285.12a6.51,6.51,0,0,0-9.2,0l-5.64,5.65-4.92-4.92a6.49,6.49,0,0,0-9.19,0h0a6.49,6.49,0,0,0,0,9.19l14.11,14.12,14.84-14.85A6.49,6.49,0,0,0,1419.11,285.12Z" transform="translate(-1343.85 -226.57)"/><path class="cls-5" d="M1457,320.26l-22.16,22.15h0c-2.56,2.56-10.8-1.52-18.57-9.13l.46.47h0c7.91,7.9,16.43,12.2,19,9.59h0l22.16-22.15a20.27,20.27,0,0,0,0-28.64h0l-.48-.45A20.24,20.24,0,0,1,1457,320.26Z" transform="translate(-1343.85 -226.57)"/><path class="cls-6" d="M1407.13,314.7h0c-2.61,2.61,1.68,11.14,9.59,19.05h0c7.91,7.9,16.43,12.2,19,9.59h0c2.61-2.61-1.68-11.14-9.59-19h0C1418.26,316.39,1409.73,312.09,1407.13,314.7Z" transform="translate(-1343.85 -226.57)"/><path class="cls-7" d="M1408.27,315.85h0c-2.17,2.17,2,9.83,9.24,17.1h0c7.28,7.28,14.94,11.42,17.11,9.24h0c2.17-2.17-2-9.82-9.25-17.1h0C1418.1,317.82,1410.44,313.68,1408.27,315.85Z" transform="translate(-1343.85 -226.57)"/><path class="cls-8" d="M1431.12,293.71l-19.37,19.37c3.9.79,9.82,4.58,15.44,10.2h0c.53.52,1,1.05,1.53,1.58l16.78-16.77a10.17,10.17,0,0,0,0-14.38h0A10.17,10.17,0,0,0,1431.12,293.71Z" transform="translate(-1343.85 -226.57)"/><path class="cls-9" d="M1378.42,292.55l22.15,22.15h0c2.61,2.61-1.69,11.14-9.59,19.05h0c-7.91,7.9-16.44,12.2-19,9.59h0l-22.15-22.15a20.25,20.25,0,0,1,0-28.64h0A20.25,20.25,0,0,1,1378.42,292.55Z" transform="translate(-1343.85 -226.57)"/><path class="cls-10" d="M1372.61,342.66h0l-22.15-22.15a20.25,20.25,0,0,1-.33-28.29c-.12.11-.24.21-.35.33h0a20.25,20.25,0,0,0,0,28.64l22.15,22.15h0c2.61,2.61,11.14-1.69,19-9.59h0l.33-.35C1383.5,341.09,1375.19,345.23,1372.61,342.66Z" transform="translate(-1343.85 -226.57)"/><path class="cls-11" d="M1400.57,314.7h0c2.61,2.61-1.69,11.14-9.59,19.05h0c-7.91,7.9-16.44,12.2-19,9.59h0c-2.61-2.61,1.69-11.14,9.6-19h0C1389.43,316.39,1398,312.09,1400.57,314.7Z" transform="translate(-1343.85 -226.57)"/><path class="cls-12" d="M1399.42,315.85h0c2.17,2.17-2,9.83-9.24,17.1h0c-7.27,7.28-14.93,11.42-17.1,9.24h0c-2.17-2.17,2-9.82,9.24-17.1h0C1389.6,317.82,1397.25,313.68,1399.42,315.85Z" transform="translate(-1343.85 -226.57)"/><path class="cls-11" d="M1376.58,293.71,1396,313.08c-3.9.79-9.83,4.58-15.44,10.2h0c-.53.52-1,1.05-1.53,1.58l-16.78-16.77a10.17,10.17,0,0,1,0-14.38h0A10.17,10.17,0,0,1,1376.58,293.71Z" transform="translate(-1343.85 -226.57)"/><ellipse class="cls-13" cx="1369.29" cy="294.18" rx="4.17" ry="2.31" transform="translate(-1360.39 -134.8) rotate(-3.82)"/><path class="cls-3" d="M1434.27,226.57h-31.33v40.5h31.33a20.25,20.25,0,0,0,20.25-20.25h0A20.25,20.25,0,0,0,1434.27,226.57Z" transform="translate(-1343.85 -226.57)"/><path class="cls-10" d="M1454.49,245.69a20.26,20.26,0,0,1-20.22,19.13h-31.33v2.25h31.33a20.25,20.25,0,0,0,20.25-20.25h0C1454.52,246.44,1454.51,246.07,1454.49,245.69Z" transform="translate(-1343.85 -226.57)"/><path class="cls-8" d="M1434.75,228.69h-30.37V249h30.37a10.17,10.17,0,0,0,10.17-10.17h0A10.17,10.17,0,0,0,1434.75,228.69Z" transform="translate(-1343.85 -226.57)"/><path class="cls-9" d="M1351.36,246.82h0a20.25,20.25,0,0,0,20.25,20.25h31.33v-40.5h-31.33A20.24,20.24,0,0,0,1351.36,246.82Z" transform="translate(-1343.85 -226.57)"/><path class="cls-10" d="M1371.61,264.82h31.33v2.25h-31.33a20.25,20.25,0,0,1-20.25-20.25h0c0-.38,0-.75,0-1.13A20.25,20.25,0,0,0,1371.61,264.82Z" transform="translate(-1343.85 -226.57)"/><path class="cls-11" d="M1371.13,228.69A10.16,10.16,0,0,0,1361,238.85h0A10.17,10.17,0,0,0,1371.13,249h30.36V228.69Z" transform="translate(-1343.85 -226.57)"/><path class="cls-13" d="M1371.31,230.82c.47,1-.39,2.37-1.92,3.1s-3.15.53-3.62-.45.39-2.37,1.92-3.1S1370.84,229.84,1371.31,230.82Z" transform="translate(-1343.85 -226.57)"/><path class="cls-13" d="M1435.06,230.82c-.47,1,.39,2.37,1.92,3.1s3.15.53,3.62-.45-.39-2.37-1.92-3.1S1435.53,229.84,1435.06,230.82Z" transform="translate(-1343.85 -226.57)"/><g class="cls-14"><circle class="cls-9" cx="1425.55" cy="336.31" r="4.65" transform="translate(-678.37 1361.77) rotate(-72.01)"/><circle class="cls-9" cx="1425.55" cy="336.31" r="4.65" transform="translate(-678.37 1361.77) rotate(-72.01)"/><ellipse class="cls-11" cx="81.7" cy="109.06" rx="4.03" ry="3.7"/><ellipse class="cls-11" cx="81.6" cy="108.08" rx="2.35" ry="2.15"/></g><g class="cls-15"><circle class="cls-9" cx="1376.53" cy="338.8" r="4.65" transform="translate(-1042.52 1036.11) rotate(-54.5)"/><circle class="cls-3" cx="1376.53" cy="338.8" r="4.65" transform="translate(-1042.52 1036.11) rotate(-54.5)"/><ellipse class="cls-16" cx="32.68" cy="111.09" rx="3.38" ry="3.1"/><path class="cls-13" d="M1379.22,337.26c-.4.37-1.15.21-1.7-.35s-.65-1.33-.26-1.7a1.29,1.29,0,0,1,1.7.35C1379.5,336.13,1379.62,336.89,1379.22,337.26Z" transform="translate(-1343.85 -226.57)"/></g><ellipse class="cls-13" cx="1437.7" cy="294.18" rx="4.17" ry="2.31" transform="translate(-1360.24 -130.25) rotate(-3.82)"/><circle class="cls-9" cx="1394.66" cy="353.55" r="4.65" transform="translate(-1104.64 984.31) rotate(-50.8)"/><circle class="cls-3" cx="1394.66" cy="353.55" r="4.65" transform="translate(-1104.64 984.31) rotate(-50.8)"/><ellipse class="cls-16" cx="50.82" cy="125.84" rx="3.38" ry="3.1"/><path class="cls-13" d="M1396.42,351.15c-.16.52-.9.76-1.66.53s-1.25-.82-1.09-1.34.89-.76,1.65-.53S1396.57,350.63,1396.42,351.15Z" transform="translate(-1343.85 -226.57)"/><circle class="cls-9" cx="1422.34" cy="348.49" r="4.65" transform="translate(-862.16 1244.27) rotate(-63.8)"/><circle class="cls-3" cx="1422.34" cy="348.49" r="4.65" transform="translate(-862.16 1244.27) rotate(-63.8)"/><ellipse class="cls-16" cx="78.49" cy="120.78" rx="3.38" ry="3.1"/><path class="cls-13" d="M1425,347c-.39.37-1.15.21-1.69-.35s-.66-1.33-.27-1.7a1.29,1.29,0,0,1,1.7.35C1425.31,345.82,1425.43,346.57,1425,347Z" transform="translate(-1343.85 -226.57)"/><circle class="cls-9" cx="1408.84" cy="343.96" r="4.65" transform="translate(-1174.42 870.37) rotate(-45)"/><circle class="cls-9" cx="1408.84" cy="343.96" r="4.65" transform="translate(-1174.42 870.37) rotate(-45)"/><path class="cls-16" d="M1412.22,342.81a3.39,3.39,0,1,1-3.38-3.09A3.25,3.25,0,0,1,1412.22,342.81Z" transform="translate(-1343.85 -226.57)"/><path class="cls-13" d="M1410.16,341c0,.54-.68.95-1.46.92s-1.39-.5-1.36-1,.68-1,1.46-.92S1410.19,340.43,1410.16,341Z" transform="translate(-1343.85 -226.57)"/><circle class="cls-9" cx="1405.94" cy="367.05" r="4.35" transform="translate(-1005.41 1126.29) rotate(-57.35)"/><circle class="cls-9" cx="1405.94" cy="367.05" r="4.35" transform="translate(-1005.41 1126.29) rotate(-57.35)"/><ellipse class="cls-16" cx="62.1" cy="139.41" rx="3.16" ry="2.9"/><path class="cls-13" d="M1407.85,364.83c-.15.49-.84.71-1.55.51s-1.17-.77-1-1.26.84-.71,1.55-.5S1408,364.35,1407.85,364.83Z" transform="translate(-1343.85 -226.57)"/><circle class="cls-9" cx="1394.96" cy="339.17" r="4.01" transform="translate(-854.3 1226.68) rotate(-64.57)"/><circle class="cls-3" cx="1394.96" cy="339.17" r="4.01" transform="translate(-854.3 1226.68) rotate(-64.57)"/><path class="cls-16" d="M1397.87,338.18a2.93,2.93,0,1,1-2.91-2.67A2.79,2.79,0,0,1,1397.87,338.18Z" transform="translate(-1343.85 -226.57)"/><path class="cls-13" d="M1396,336.55c0,.47-.62.8-1.29.75s-1.16-.47-1.11-.94.62-.81,1.29-.75S1396.09,336.08,1396,336.55Z" transform="translate(-1343.85 -226.57)"/><polygon class="cls-4" points="62.78 105.33 62.78 103.11 61.4 103.11 61.4 101.73 59.18 101.73 59.18 103.11 57.8 103.11 57.8 105.33 59.18 105.33 59.18 106.71 61.4 106.71 61.4 105.33 62.78 105.33"/><polygon class="cls-4" points="40.35 129.41 40.35 127.19 38.97 127.19 38.97 125.81 36.75 125.81 36.75 127.19 35.37 127.19 35.37 129.41 36.75 129.41 36.75 130.79 38.97 130.79 38.97 129.41 40.35 129.41"/><polygon class="cls-4" points="72.64 131.3 72.64 129.08 71.26 129.08 71.26 127.7 69.04 127.7 69.04 129.08 67.66 129.08 67.66 131.3 69.04 131.3 69.04 132.68 71.26 132.68 71.26 131.3 72.64 131.3"/></g></g></svg>