<svg width="224" height="241" viewBox="0 0 224 241" fill="none" xmlns="http://www.w3.org/2000/svg">
<path d="M204.69 161.52C197.88 172.69 189.68 182.69 179.83 191.29C177.74 193.12 176.98 194.99 177.02 197.7C177.15 207.53 177.12 217.35 177.06 227.18C177 235.84 172.45 240.34 163.71 240.34C113.58 240.37 63.46 240.37 13.34 240.34C4.22 240.34 0.030002 236.08 0.020002 226.79C-0.00999801 191.31 0.010002 155.84 0.010002 120.37V15.95C0.020002 4.29 4.29 0.0100024 15.97 0.0100024C64.26 2.44146e-06 112.55 2.44146e-06 160.84 0.0100024C172.71 0.0100024 177.07 4.41 177.08 16.3C177.08 30.12 177.2 43.95 177 57.77C176.95 61.12 177.82 62.65 181.16 63.7C193.67 67.65 206.05 72 218.5 76.14C221 76.97 223.05 77.93 223.19 81.09C224.47 109.62 219.79 136.75 204.69 161.52Z" fill="#F7F9FA"/>
<path d="M204.69 161.52C197.88 172.69 189.68 182.69 179.83 191.29C177.74 193.12 176.98 194.99 177.02 197.7C177.15 207.53 177.12 217.35 177.06 227.18C177 235.84 172.45 240.34 163.71 240.34C113.58 240.37 63.46 240.37 13.34 240.34C4.22 240.34 0.030002 236.08 0.020002 226.79C-0.00999801 191.31 0.010002 155.84 0.010002 120.37V15.95C0.020002 4.29 4.29 0.0100024 15.97 0.0100024C64.26 2.44146e-06 112.55 2.44146e-06 160.84 0.0100024C172.71 0.0100024 177.07 4.41 177.08 16.3C177.08 30.12 177.2 43.95 177 57.77C176.95 61.12 177.82 62.65 181.16 63.7C193.67 67.65 206.05 72 218.5 76.14C221 76.97 223.05 77.93 223.19 81.09C224.47 109.62 219.79 136.75 204.69 161.52Z" fill="#182228"/>
<path d="M169.06 60.01C162.41 55.42 156.74 58.49 150.94 60.44C135.66 65.57 120.34 70.63 105.06 75.77C102.75 76.55 100.19 77.03 99.34 79.99C98.58 82.62 96.26 81.4 94.68 81.4C73.7 81.49 52.72 81.45 31.74 81.46C24.96 81.46 24.39 82.04 24.39 88.92C24.38 108.4 24.37 127.88 24.39 147.37C24.4 153.33 25.42 154.37 31.34 154.37C57.15 154.39 82.96 154.47 108.76 154.28C112.39 154.25 114.41 155.24 116.18 158.44C125.33 175.03 137.92 188.58 153.18 199.78C158.12 203.41 162.74 207.27 169 199.15C169 210.24 169.11 219.59 168.93 228.94C168.88 231.55 166.7 232.38 164.26 232.36C160.43 232.33 156.59 232.22 152.77 232.4C150.03 232.53 149.39 231.33 149.42 228.85C149.53 221.36 149.27 213.86 149.52 206.37C149.68 201.66 147.9 199.72 143.17 199.73C106.71 199.8 70.24 199.8 33.78 199.73C29.14 199.72 27.13 201.54 27.28 206.3C27.5 213.62 27.17 220.96 27.41 228.28C27.52 231.64 26.37 232.48 23.16 232.42C5.41 232.07 8.11 234.64 8.09 217.36C8 150.43 8.06 83.49 8.06 16.55C8.06 8.77 8.87 7.94 16.56 7.92C27.21 7.9 37.87 8.01 48.52 7.86C51.57 7.82 52.63 8.77 52.49 11.84C52.27 16.66 52.48 21.5 52.42 26.32C52.38 30.02 53.99 31.82 57.81 31.81C78.29 31.76 98.77 31.77 119.25 31.81C122.83 31.82 124.4 30.18 124.35 26.64C124.28 21.48 124.42 16.31 124.3 11.16C124.24 8.78 125.16 7.89 127.49 7.9C139.48 7.97 151.46 7.92 163.45 8.01C166.71 8.03 169 9.66 169.02 13.12C169.11 28.39 169.06 43.67 169.06 60.01Z" fill="#F34545"/>
<path d="M157.17 192.55C128.69 171.62 112.59 143.48 108.16 108.51C107.28 101.55 107.43 94.57 107.27 87.59C107.21 84.74 107.85 83.2 110.89 82.22C126.85 77.08 142.73 71.67 158.62 66.29C160.26 65.74 161.71 65.49 163.43 66.08C178.67 71.3 193.94 76.44 209.2 81.6C210.86 82.45 211.56 83.93 211.57 85.67C211.59 90.95 211.4 96.21 209.54 101.24C207 102.41 206.92 99.92 206.15 98.78C200.31 90.14 191.29 89.07 183.71 96.41C175.7 104.17 167.95 112.19 160 120.02C155.86 124.1 154.72 124.05 150.52 120.05C147.99 117.64 145.69 114.98 143 112.75C136.77 107.59 128.93 107.56 124.01 112.6C118.93 117.81 119.26 125.88 125.02 131.86C131.49 138.57 138.15 145.1 144.77 151.66C151.46 158.29 158.45 158.38 165.41 151.94C168.1 149.45 170.62 146.79 173.21 144.2C182.63 134.79 192.03 125.35 201.48 115.97C202.98 114.48 204.23 112.56 206.6 112.21C208.08 112.73 208.27 114 208.43 115.29C205.04 136.47 195.68 154.89 182.47 171.56C176.97 178.5 170.68 184.6 163.68 189.97C161.82 191.41 160.15 193.78 157.17 192.55Z" fill="#0B9D58"/>
<path d="M71.3 146.38C59.82 146.38 48.34 146.26 36.87 146.45C33.53 146.5 32.26 145.8 32.31 142.13C32.51 126 32.51 109.85 32.31 93.72C32.27 90.11 33.43 89.35 36.81 89.38C56.27 89.53 75.74 89.52 95.2 89.39C98.35 89.37 99.48 90.08 99.41 93.46C99.1 110.44 102.18 126.87 108.53 142.62C109.94 146.11 108.79 146.45 105.73 146.42C94.25 146.31 82.77 146.38 71.3 146.38Z" fill="#0B9D58"/>
<path d="M88.37 23.83C80.21 23.83 72.05 23.76 63.89 23.87C61.37 23.9 60.49 23.16 60.37 20.5C59.82 8.01 59.73 8.01 72.26 8.01C85.58 8.01 98.91 8.1 112.23 7.94C115.47 7.9 116.44 8.81 116.44 12.13C116.44 23.83 116.58 23.83 104.86 23.83C99.36 23.83 93.86 23.83 88.37 23.83Z" fill="#0B9D58"/>
<path d="M208.44 101.45C209.4 94.86 211.34 88.31 209.2 81.6C214.3 81.94 215.25 84.81 215.31 89.58C215.82 126.27 203.54 157.61 176.98 183.11C173.28 186.67 168.97 189.59 165.11 192.99C162.19 195.56 159.66 195.55 157.18 192.55C165.08 188.4 171.42 182.29 177.24 175.75C190.07 161.3 199.59 144.88 204.84 126.17C205.82 122.67 206.47 119.08 207.27 115.54C208.71 113.41 206.6 111.72 206.56 109.77C207.02 106.95 205.93 103.79 208.44 101.45Z" fill="#0B9D58"/>
<path d="M56 220.17C56 232.28 56 232.28 43.87 232.28C35.32 232.28 35.32 232.28 35.32 223.68C35.32 219.53 35.44 215.38 35.28 211.24C35.18 208.7 35.95 207.67 38.62 207.77C43.09 207.94 47.58 207.96 52.05 207.76C55.06 207.63 56.29 208.61 56.05 211.71C55.83 214.52 56 217.35 56 220.17Z" fill="#0B9D58"/>
<path d="M113.11 220.13C113.11 232.28 113.11 232.28 101.07 232.28C92.38 232.28 92.38 232.28 92.38 223.76C92.38 219.61 92.49 215.46 92.34 211.31C92.24 208.78 93.04 207.7 95.69 207.78C100.33 207.92 104.99 207.91 109.63 207.78C112.12 207.71 113.31 208.45 113.14 211.16C112.97 214.14 113.11 217.14 113.11 220.13Z" fill="#0B9D58"/>
<path d="M84.39 220.3C84.39 232.28 84.39 232.28 72.24 232.28C63.99 232.28 63.99 232.28 63.99 223.8C63.99 219.66 64.09 215.51 63.96 211.37C63.88 208.93 64.5 207.68 67.26 207.78C71.9 207.95 76.55 207.96 81.18 207.78C83.96 207.67 84.55 208.93 84.43 211.35C84.28 214.32 84.39 217.31 84.39 220.3Z" fill="#0B9D58"/>
<path d="M121.11 219.87C121.11 207.82 121.11 207.82 133.21 207.82C141.48 207.82 141.48 207.82 141.48 216.27C141.48 220.41 141.33 224.56 141.53 228.7C141.67 231.59 140.58 232.45 137.8 232.33C133.5 232.14 129.17 232.09 124.88 232.34C121.69 232.53 120.85 231.25 121.06 228.32C121.26 225.52 121.11 222.69 121.11 219.87Z" fill="#0B9D58"/>
<path d="M24.45 27.82C20.54 27.39 18.34 25.39 18.46 21.7C18.58 18.26 20.89 16.13 24.22 16.09C27.79 16.06 30.21 18.19 30.21 21.93C30.21 25.66 27.84 27.47 24.45 27.82Z" fill="#1A2328"/>
<path d="M160.37 22.08C159.9 25.74 157.94 27.81 154.17 27.71C150.57 27.62 148.59 25.31 148.55 22.03C148.51 18.45 150.83 16.05 154.47 16.07C158.11 16.09 160.12 18.37 160.37 22.08Z" fill="#1B2328"/>
<path d="M208.44 101.45C208.23 104.51 208.75 107.66 207.34 110.57C207.7 111.57 206.99 112.06 206.38 112.61C192.77 126.29 179.24 140.06 165.51 153.62C159.21 159.85 150.99 159.67 144.61 153.43C137.47 146.45 130.4 139.4 123.43 132.25C117.52 126.18 117.45 117.3 123.03 111.64C128.63 105.96 137.38 105.97 143.65 111.77C146.58 114.48 149.52 117.23 152.09 120.26C154.48 123.08 156.03 122.51 158.35 120.12C166.57 111.64 174.93 103.29 183.38 95.02C192.38 86.24 204.52 89.41 208.44 101.45Z" fill="#182228"/>
<path d="M206.39 112.61C206.71 111.93 207.03 111.25 207.35 110.57C208.74 112.25 208.61 113.9 207.27 115.53C207.13 114.51 207.44 113.36 206.39 112.61Z" fill="#0B98C4"/>
<path d="M133.49 115.47C135.7 115.39 137.21 116.67 138.65 118.1C142.77 122.21 146.97 126.24 150.98 130.46C153.94 133.58 156.48 133.36 159.41 130.38C168.27 121.37 177.25 112.49 186.18 103.55C187.12 102.61 188.07 101.67 189 100.73C192.01 97.72 195.34 97.02 198.73 99.87C201.72 102.39 201.42 106.44 197.97 109.92C186.03 121.96 174.02 133.92 162.03 145.92C161.33 146.63 160.65 147.37 159.89 148.01C156.76 150.63 153.4 150.83 150.47 147.99C143.19 140.94 136.09 133.7 128.93 126.51C126.82 124.39 126.4 121.78 127.53 119.15C128.59 116.69 130.68 115.37 133.49 115.47Z" fill="#D1F6FE"/>
</svg>
