<svg width="96" height="96" viewBox="0 0 96 96" fill="none" xmlns="http://www.w3.org/2000/svg">
<circle cx="48" cy="48" r="48" fill="#DF2925"/>
<mask id="mask0_349_2682" style="mask-type:alpha" maskUnits="userSpaceOnUse" x="0" y="0" width="96" height="95">
<ellipse cx="48" cy="47.2131" rx="48" ry="47.2131" fill="#DF2925"/>
</mask>
<g mask="url(#mask0_349_2682)">
<path d="M103.503 23.149C103.037 27.6508 102.598 32.157 102.049 36.6501C101.768 38.9691 100.556 40.8006 98.3555 41.7141C97.2618 42.1665 96.8841 42.7287 96.7568 43.9101C95.4128 56.3967 93.9766 68.8745 92.5931 81.3522C92.435 82.7928 92.1232 84.106 90.34 83.8952C88.4119 83.6712 88.5129 82.1867 88.6754 80.7154C88.9741 77.9616 89.22 75.199 89.4923 72.4408C87.7926 73.7584 87.0284 75.7919 85.702 77.4082C78.8328 85.7706 70.3123 91.4847 59.8241 94.2121C58.2825 94.6162 56.7145 94.9061 55.1554 95.2486C54.2814 95.2574 53.4073 95.2618 52.5289 95.2706C49.7136 96.1358 46.85 95.6966 44.0084 95.5429C42.1549 95.4419 40.3191 95.073 38.4744 94.8182C37.842 94.2824 36.8494 94.6381 36.274 93.9442C31.2232 93.1405 26.7169 90.9884 22.4742 88.2433C17.744 85.1909 13.4749 81.6158 10.1853 76.9734C9.93495 76.622 9.41669 75.4142 8.99945 76.9514C9.09168 78.1109 9.14439 79.2792 9.28054 80.4343C9.45183 81.8793 9.00384 82.9861 7.47102 83.1442C5.9382 83.3067 5.29257 82.2746 5.12567 80.8559C4.09354 72.2344 3.05702 63.6128 2.01611 54.9912C1.44075 50.2127 0.808298 45.4386 0.31639 40.6469C0.197805 39.4874 -0.509314 39.0482 -1.28231 38.5079C-4.57634 36.2153 -6.79871 33.3736 -6.47809 29.0387C-6.23214 25.7227 -5.48549 22.7669 -2.03774 21.4273C1.41879 20.0877 4.3922 20.8959 6.77708 23.7639C9.4694 19.587 12.5131 15.6957 16.2375 12.3797C22.0438 7.20589 28.6011 3.42435 36.274 1.75977C40.1697 0.231339 44.2807 0.156674 48.3741 0.0161288C49.6082 -0.0233995 50.8424 0.0117368 52.0766 0.0117368C59.5957 0.876968 66.6889 2.95879 73.1671 7.01264C79.9396 11.2466 85.4165 16.719 89.5406 23.5531C89.7602 23.9176 90.0413 24.247 90.2961 24.594C90.7045 23.777 90.6474 22.8855 90.7221 22.0202C90.8187 20.9793 90.8363 19.7539 92.2901 19.8945C93.634 20.0262 93.4144 21.2033 93.3222 22.1388C93.0411 24.9717 92.7073 27.8001 92.435 30.633C92.3471 31.5378 91.9914 32.7061 93.4056 32.8905C94.8418 33.0794 94.7847 31.8364 94.8901 30.9492C95.2942 27.6157 95.6368 24.2733 95.9925 20.9354C96.1111 19.8374 96.0584 18.5637 97.723 18.7789C99.2427 18.9765 98.9308 20.0965 98.8122 21.1418C98.4169 24.6203 98.0524 28.1076 97.701 31.5949C97.622 32.3854 97.4771 33.3385 98.6585 33.4307C99.7565 33.5142 99.8927 32.6797 99.9805 31.8189C100.288 28.8411 100.609 25.8633 100.969 22.8899C101.079 21.9587 101.166 20.8388 102.572 21.0672C103.846 21.2692 103.591 22.3013 103.503 23.149Z" fill="#F7F9FA"/>
<path d="M93.4937 43.8545C92.5714 51.8304 91.7105 59.8108 90.8189 67.7911C90.7706 68.2259 90.6257 68.6432 90.4544 69.0472C90.2524 69.4118 90.0503 69.7719 89.8395 70.132C89.6902 70.4 89.5321 70.6635 89.374 70.927C81.6352 83.9187 70.3608 92.0615 55.1556 94.7933C55.0941 94.8065 55.0282 94.8197 54.9623 94.8285C54.9536 94.8285 54.9492 94.8329 54.9404 94.8329C54.0883 94.9646 53.2319 95.0657 52.3754 95.1447C52.1471 95.1667 51.9187 95.1886 51.6903 95.2062C51.4443 95.2282 51.1984 95.2457 50.9524 95.2633C46.8942 95.3116 42.8403 95.3028 38.826 94.5913C38.7118 94.5166 38.5932 94.4595 38.4746 94.4156C38.4615 94.4112 38.4527 94.4068 38.4395 94.4025C37.7456 94.1477 36.955 94.2575 36.2742 93.9457C31.2234 93.1419 26.7172 90.9898 22.4744 88.2448C17.7442 85.1924 13.4752 81.6172 10.1855 76.9748C9.93518 76.6235 9.41692 75.4157 8.99968 76.9529C7.98512 76.6542 8.06417 75.7495 7.97194 74.9897C6.59284 63.566 5.13468 52.1511 3.82586 40.7186C3.69849 39.5723 3.78633 38.5006 4.59886 37.6486C7.827 34.2711 8.66149 30.3666 7.24725 25.9482C7.18577 25.5134 7.20773 25.1049 7.29117 24.7184C7.30874 24.6174 7.33509 24.5208 7.36584 24.4241C7.62497 23.5238 8.18715 22.7376 8.71419 21.947C15.4823 11.8102 24.71 5.10795 36.4367 1.92811C36.5378 1.89737 36.6388 1.87102 36.7398 1.84466C36.8364 1.81831 36.9374 1.79196 37.034 1.76561C41.1274 0.685165 45.2911 0.228393 49.5206 0.224001C50.3683 0.224001 51.2599 0.465563 52.0768 0.0131836C59.5959 0.878415 66.6891 2.96024 73.1673 7.01409C79.9399 11.248 85.4167 16.7205 89.5409 23.5545C89.7605 23.919 90.0415 24.2484 90.2963 24.5954C91.671 27.0901 90.3929 29.5848 90.2085 32.0575C90.0811 33.7352 89.9801 35.4042 90.0899 37.0732C90.1821 38.5313 91.1088 39.625 92.1805 40.5473C93.2082 41.4301 93.6474 42.5193 93.4937 43.8545Z" fill="#DF2925"/>
<path d="M7.47103 83.1456C5.93821 83.3081 5.29258 82.276 5.12568 80.8574C4.09355 72.2358 3.05703 63.6143 2.01611 54.9927C1.44076 50.2142 0.808302 45.44 0.316394 40.6483C0.197809 39.4888 -0.50931 39.0496 -1.28231 38.5094C-4.57634 36.2167 -6.79871 33.3751 -6.47809 29.0402C-6.23214 25.7242 -5.48549 22.7683 -2.03774 21.4288C1.4188 20.0892 4.39221 20.8973 6.77709 23.7653C7.11966 23.9059 7.26899 24.1474 7.36562 24.4241C7.46664 24.7228 7.49738 25.061 7.62475 25.3464C7.6511 25.4035 7.68185 25.4606 7.71698 25.5133C9.57042 30.3138 8.62174 34.5126 4.99392 38.1273C4.50201 38.6192 4.23409 39.1155 4.32633 39.8577C5.8284 52.0939 7.31291 64.3302 8.80621 76.562C8.82378 76.6981 8.93358 76.8211 8.99946 76.9529C9.09169 78.1124 9.1444 79.2806 9.28055 80.4357C9.45184 81.8807 9.00385 82.9875 7.47103 83.1456Z" fill="#DF2925"/>
<path d="M103.503 23.1504C103.037 27.6523 102.598 32.1585 102.049 36.6515C101.768 38.9705 100.556 40.802 98.3555 41.7156C97.2618 42.1679 96.8841 42.7301 96.7568 43.9116C95.4128 56.3982 93.9766 68.8759 92.5931 81.3537C92.435 82.7943 92.1232 84.1075 90.34 83.8967C88.4119 83.6727 88.5129 82.1882 88.6754 80.7169C88.9741 77.9631 89.22 75.2005 89.4923 72.4423C89.3035 71.9196 89.2903 71.4189 89.3737 70.927C89.4572 70.4 89.6417 69.8861 89.8173 69.3678C90.5508 63.219 91.2843 57.0701 92.0134 50.9213C92.1847 49.4719 92.2593 48.0138 92.4921 46.5776C92.9137 43.9819 93.3705 41.5794 90.5772 39.7084C89.1805 38.7685 89.1673 36.7657 89.3298 35.0353C89.6592 31.5568 89.9755 28.0739 90.2961 24.5954C90.7045 23.7785 90.6474 22.8869 90.7221 22.0217C90.8187 20.9808 90.8363 19.7554 92.2901 19.8959C93.634 20.0277 93.4144 21.2048 93.3222 22.1403C93.0411 24.9731 92.7073 27.8016 92.435 30.6345C92.3472 31.5392 91.9914 32.7075 93.4056 32.892C94.8418 33.0808 94.7847 31.8379 94.8901 30.9507C95.2942 27.6171 95.6368 24.2748 95.9926 20.9368C96.1111 19.8388 96.0584 18.5651 97.723 18.7803C99.2427 18.978 98.9308 20.098 98.8122 21.1433C98.417 24.6218 98.0524 28.109 97.7011 31.5963C97.622 32.3869 97.4771 33.34 98.6585 33.4322C99.7565 33.5156 99.8927 32.6811 99.9805 31.8203C100.288 28.8425 100.609 25.8647 100.969 22.8913C101.079 21.9602 101.166 20.8402 102.572 21.0686C103.846 21.2706 103.591 22.3028 103.503 23.1504Z" fill="#DF2925"/>
<path d="M89.4923 72.4422C87.7926 73.7598 87.0284 75.7934 85.702 77.4096C78.8329 85.7721 70.3123 91.4861 59.8241 94.2136C58.2825 94.6176 56.7145 94.9075 55.1554 95.2501C55.028 95.1051 54.9621 94.969 54.9621 94.8284C54.9577 94.6835 55.0236 94.5386 55.1554 94.3936C70.2728 91.653 81.4329 83.3477 89.1893 70.2374C89.3694 69.93 89.6065 69.6577 89.8173 69.3678C89.8217 69.6225 89.8349 69.8773 89.8393 70.132C89.8613 70.9138 89.8437 71.6956 89.4923 72.4422Z" fill="#DF2925"/>
<path d="M36.7135 2.20481C24.5212 5.50762 15.2057 12.671 8.45071 23.2734C8.01151 23.9586 7.69089 24.6745 7.71724 25.5133C7.6865 25.4563 7.65575 25.4035 7.62501 25.3465C7.51521 25.1356 7.40101 24.9292 7.29121 24.7184C7.11992 24.4022 6.94863 24.0859 6.77734 23.7653C9.46966 19.5885 12.5133 15.6971 16.2378 12.3812C22.0441 7.20734 28.6014 3.4258 36.2743 1.76121C36.5642 1.65581 36.7003 1.69973 36.7398 1.84466C36.7662 1.9325 36.753 2.05548 36.7135 2.20481Z" fill="#DF2925"/>
<path d="M52.5295 95.272C49.7142 96.1373 46.8506 95.6981 44.0089 95.5443C42.1555 95.4433 40.3196 95.0744 38.475 94.8197C38.3476 94.7274 38.3037 94.6308 38.3476 94.5342C38.3739 94.4639 38.4047 94.42 38.4398 94.4024C38.4486 94.3936 38.4618 94.3892 38.475 94.3892C42.7045 95.0261 46.9604 94.7933 51.2075 94.8284C51.5061 95.1974 52.0156 94.9426 52.3758 95.1447C52.4329 95.171 52.4812 95.2149 52.5295 95.272Z" fill="#E4F2F6"/>
<path d="M52.077 0.0131711C51.506 0.676369 50.7286 0.443591 50.0259 0.439199C45.5065 0.426023 41.0749 1.02334 36.7136 2.2048C36.6214 2.11257 36.5335 2.02033 36.4369 1.9281C36.3842 1.871 36.3315 1.8183 36.2744 1.7612C40.1702 0.232773 44.2811 0.158108 48.3745 0.0175632C49.6086 -0.0219652 50.8428 0.0131711 52.077 0.0131711Z" fill="#DF2925"/>
<path d="M55.1555 94.3936V95.2501C54.2815 95.2589 53.4074 95.2633 52.529 95.272C52.2479 95.2545 51.9493 95.2808 51.6902 95.2062C51.5057 95.1491 51.3388 95.0393 51.207 94.8284C52.5466 94.8943 53.873 94.8153 55.1555 94.3936Z" fill="#D9EEF4"/>
<path d="M38.4748 94.3892V94.824C37.8424 94.2838 36.8498 94.6396 36.2744 93.9456C37.0167 94.051 37.8555 93.6645 38.4748 94.3892Z" fill="#E6F2F6"/>
<path d="M47.1458 31.6605C47.1458 38.8813 47.0965 46.098 47.1862 53.3189C47.2041 54.9179 46.6795 55.3177 45.0294 55.3093C33.8244 55.2461 22.6194 55.2335 11.4189 55.3219C9.71951 55.3345 9.26216 54.657 8.97519 53.3483C4.38378 32.2748 19.0907 12.0471 41.7563 8.26835C45.3463 7.67082 47.1413 9.09031 47.1413 12.5268C47.1413 18.9061 47.1413 25.2812 47.1413 31.6605H47.1458Z" fill="white"/>
<path d="M48.8457 69.2617C48.8457 63.1565 48.895 57.0466 48.8143 50.9413C48.7919 49.3174 49.2179 48.8043 50.8055 48.8137C62.5191 48.8796 74.2328 48.8796 85.942 48.8137C87.5565 48.8043 87.9556 49.3221 87.8479 50.9555C86.5788 70.4903 71.2775 87.2478 52.6352 89.4461C50.1059 89.7442 48.8412 88.5753 48.8412 85.9393C48.8412 80.3801 48.8412 74.8209 48.8412 69.2617H48.8457Z" fill="white"/>
<path d="M68.3827 47.1448C62.6366 47.1448 56.895 47.0954 51.149 47.1762C49.4996 47.1986 48.7959 46.8802 48.8138 44.9927C48.9035 33.3535 48.8766 21.7143 48.8362 10.0751C48.8317 8.69421 49.0962 7.9903 50.6784 8.16068C60.4987 9.20533 69.0908 12.9356 76.1053 19.9523C83.0033 26.8524 86.701 35.3083 87.8216 44.9523C88.0053 46.5305 87.6423 47.221 85.836 47.1851C80.0182 47.073 74.2005 47.1448 68.3827 47.1448Z" fill="#F4EFF1"/>
<path d="M28.2878 56.9815C33.8723 56.9815 39.4569 57.0288 45.0415 56.95C46.58 56.929 47.2 57.3752 47.1862 59.2861C47.1127 68.6407 47.1173 77.9953 47.1816 87.3499C47.1954 89.1609 46.5892 89.6387 45.1379 89.4549C35.3328 88.216 26.7217 83.8537 19.6537 76.0372C15.3597 71.2864 12.0209 65.6222 9.99557 59.0761C9.51335 57.517 9.70165 56.9238 11.309 56.95C16.9671 57.0393 22.6297 56.9868 28.2924 56.9868L28.2878 56.9815Z" fill="#F4EFF1"/>
<path d="M0.500502 37.1522C-0.123168 37.3411 -0.6019 37.4158 -0.729269 37.0776C-0.948871 36.5066 -0.496491 36.5725 -0.153912 36.7043C0.0305538 36.7745 0.184275 36.9283 0.500502 37.1522Z" fill="white"/>
<path d="M92.4617 39.5547C89.8353 37.5871 90.2438 34.8113 90.4721 32.0794C90.8279 34.4951 91.2188 36.8975 92.4881 39.0452C92.6198 39.1638 92.6594 39.2824 92.6067 39.3922C92.5584 39.502 92.51 39.5547 92.4617 39.5547Z" fill="#DF2925"/>
<path d="M92.4619 39.5547C92.4707 39.3834 92.4795 39.2165 92.4883 39.0452C92.8572 39.3614 93.2217 39.6821 93.7093 40.0993C92.945 40.3672 92.7079 39.9544 92.4619 39.5547Z" fill="#DF2925"/>
<g clip-path="url(#clip0_349_2682)">
<path d="M73.1932 67.5243C73.0072 67.6978 72.8702 67.9075 72.7358 68.1245C72.1288 69.1016 71.2985 69.8293 70.2999 70.3716C68.981 71.0884 67.6087 71.6895 66.2461 72.3114C66.4472 73.6628 66.7712 74.9816 67.2669 76.2552C67.4787 76.8003 67.4191 76.9196 66.8602 77.0958C66.5087 77.207 66.158 77.3218 65.8038 77.4249C65.4371 77.5306 65.2137 77.4267 65.1497 77.0036C64.9646 75.777 64.5561 74.6263 63.9313 73.5579C63.3012 73.7911 62.9158 74.3217 62.5252 74.8198C61.936 75.5709 61.4216 76.3835 60.8378 77.1401C59.9994 78.2266 59.1344 78.3749 57.9632 77.6734C57.0234 77.1103 56.3096 76.3158 55.7471 75.3775C55.0254 74.1744 54.5083 72.8863 54.2164 71.5078C53.7322 69.7985 53.6166 68.054 53.7403 66.2895C53.8115 65.2663 54.0153 64.2675 54.3632 63.3021C55.2132 60.9447 56.9263 59.6602 59.3052 59.21C60.5877 58.9678 61.8862 58.8855 63.1891 58.8412C65.0224 58.778 66.8549 58.6948 68.6748 58.4309C69.2613 58.345 69.822 58.496 70.3578 58.7319C70.5233 58.8042 70.6817 58.8792 70.8677 58.8503C71.8583 58.4562 72.7821 57.9428 73.6275 57.2829C73.8571 57.1039 74.1197 56.953 74.4321 56.9593C75.1262 56.8933 75.5917 57.1401 75.8462 57.78C77.2826 61.3876 76.1951 65.231 73.1932 67.5243Z" fill="#F7F9FA"/>
<path d="M74.6825 58.2165C74.0284 58.6793 73.3859 59.1602 72.6792 59.538C72.4176 59.6781 72.1444 59.8001 71.8338 59.7423C71.7919 59.7369 71.7581 59.7097 71.7207 59.6917C71.7198 59.6908 71.7181 59.6908 71.7172 59.6899C71.7172 59.6908 71.7181 59.6926 71.7189 59.6935C71.7332 59.7314 71.7679 59.7477 71.799 59.7721C72.9996 61.1967 73.6991 62.8454 73.8193 64.7093C73.8825 65.6873 73.6395 66.6401 73.1936 67.5241C73.0076 67.6977 72.8706 67.9074 72.7362 68.1243C72.1292 69.1014 71.2989 69.8291 70.3003 70.3714C68.9814 71.0882 67.6091 71.6894 66.2465 72.3112C66.0792 72.1739 66.0578 71.9759 66.0445 71.7816C65.9582 70.517 66.1851 69.3274 66.8651 68.2445C67.1178 67.8414 67.084 67.7013 66.6915 67.4346C66.5562 67.3424 66.4138 67.2611 66.2768 67.1716C65.5844 66.716 65.4811 66.735 64.9926 67.4274C64.6989 67.8432 64.4381 68.2789 64.2085 68.7372C63.9744 69.2054 63.6718 69.2876 63.2269 69.011C62.8726 68.7923 62.5336 68.5482 62.1696 68.3458C61.7495 68.1117 61.6009 68.1541 61.4051 68.5871C61.244 68.9424 61.1016 69.3066 60.9485 69.6655C60.7901 70.0352 60.8898 70.2883 61.2146 70.5052C62.2043 71.166 63.0346 71.9949 63.6914 72.9973C63.8027 73.1673 63.9726 73.3182 63.9317 73.5577C63.3016 73.791 62.9163 74.3216 62.5256 74.8196C61.9364 75.5708 61.422 76.3834 60.8382 77.14C59.9998 78.2265 59.1348 78.3747 57.9636 77.6733C57.0238 77.1101 56.31 76.3156 55.7475 75.3773C55.0258 74.1742 54.5087 72.8861 54.2168 71.5077C54.2444 71.2546 54.4126 71.3911 54.5114 71.4128C55.3275 71.5917 55.695 71.2745 55.5998 70.4103C55.4165 68.7435 55.5482 67.102 55.9834 65.4912C56.3972 63.9591 57.1199 62.6149 58.4593 61.7011C59.5691 60.9445 60.8239 60.5992 62.1304 60.4401C63.6896 60.2494 65.2569 60.1979 66.8259 60.1463C67.9045 60.1111 68.985 60.0334 70.0538 59.8634C70.5771 59.7803 70.6919 59.6528 70.6697 59.1358C70.6626 58.9577 70.7275 58.8926 70.8681 58.8501C71.8587 58.456 72.7825 57.9426 73.6279 57.2827C73.8575 57.1038 74.1201 56.9528 74.4325 56.9591C74.7377 57.0097 74.9478 57.1716 75.0163 57.4879C75.0875 57.8142 74.9193 58.0483 74.6825 58.2165Z" fill="#E95442"/>
<path d="M70.7912 59.1077C70.9532 59.5552 70.7947 59.8182 70.3524 59.9384C69.7366 60.1066 69.0985 60.1391 68.4728 60.178C67.7083 60.225 66.9412 60.2693 66.1749 60.3045C64.3104 60.3877 62.4379 60.3976 60.6055 60.8785C58.1874 61.5131 56.7653 63.1139 56.1094 65.493C55.7204 66.904 55.6074 68.3494 55.6599 69.8101C55.6715 70.1238 55.764 70.4266 55.7516 70.7466C55.7249 71.4462 55.158 71.8285 54.5297 71.5538C54.4335 71.5113 54.341 71.3793 54.2164 71.5077C53.7322 69.7984 53.6166 68.0538 53.7403 66.2894C53.8115 65.2661 54.0153 64.2673 54.3632 63.3019C55.2132 60.9445 56.9263 59.66 59.3052 59.2099C60.5877 58.9676 61.8862 58.8854 63.1891 58.8411C65.0224 58.7778 66.8549 58.6946 68.6748 58.4307C69.2613 58.3448 69.822 58.4958 70.3578 58.7317C70.5233 58.804 70.6817 58.879 70.8677 58.8501C70.8188 58.9279 70.7378 58.9586 70.7912 59.1077Z" fill="#B64436"/>
<path d="M66.8608 77.0957C66.5093 77.2069 66.1586 77.3217 65.8044 77.4247C65.4378 77.5305 65.2144 77.4265 65.1503 77.0035C64.9652 75.7769 64.5567 74.6262 63.9319 73.5577C63.1541 72.3167 62.1991 71.2519 60.9559 70.4736C60.6907 70.3082 60.6711 70.056 60.769 69.8029C60.9576 69.3148 61.1784 68.8402 61.3777 68.3557C61.513 68.0285 61.7444 67.9743 62.0212 68.1333C62.4448 68.3756 62.8568 68.6404 63.2707 68.9008C63.6943 69.1674 63.8954 69.1213 64.109 68.6811C64.417 68.0448 64.7907 67.4554 65.2446 66.9176C65.4111 66.7205 65.5997 66.6319 65.8267 66.7675C66.22 67.0025 66.6072 67.2493 66.9863 67.506C67.2453 67.6805 67.2551 67.9001 67.0726 68.1568C66.3126 69.2289 66.083 70.4447 66.1568 71.7364C66.1684 71.9289 66.2165 72.1196 66.2467 72.3112C66.4479 73.6626 66.7718 74.9814 67.2675 76.255C67.4793 76.8001 67.4197 76.9194 66.8608 77.0957Z" fill="#B64436"/>
<path d="M73.1934 67.5241C73.0626 67.4409 73.1346 67.3451 73.1783 67.252C73.9312 65.6096 73.7941 63.9735 73.1694 62.3302C72.808 61.382 72.266 60.5486 71.6662 59.7468C71.6439 59.6618 71.6662 59.6221 71.7579 59.6528C72.3177 59.7061 72.7404 59.3771 73.1756 59.1086C73.6651 58.8067 74.1421 58.4813 74.6093 58.1451C75.105 57.788 75.0356 57.3668 74.4322 56.9591C75.1264 56.8931 75.5919 57.1399 75.8464 57.7799C77.2828 61.3874 76.1953 65.2309 73.1934 67.5241Z" fill="#B64436"/>
<path d="M56.1143 67.9245C56.2513 67.3478 56.4071 66.7865 56.6233 66.2414C57.0799 65.088 57.7082 64.044 58.5243 63.1175C58.7147 62.9015 58.9319 62.7153 59.1989 62.9684C59.4401 63.198 59.3021 63.4339 59.1224 63.6373C58.0135 64.8928 57.2863 66.349 56.9063 67.9869C56.8467 68.2454 56.6963 68.3846 56.4302 68.3394C56.2059 68.3006 56.1169 68.137 56.116 67.9236L56.1143 67.9245Z" fill="#FEFEFE"/>
<path d="M60.653 62.059C60.6139 62.3311 60.4492 62.4721 60.176 62.4685C59.9455 62.4658 59.8263 62.3275 59.8272 62.0979C59.828 61.8023 60.014 61.6631 60.2739 61.6514C60.5204 61.6405 60.6379 61.8059 60.653 62.059Z" fill="#FEFBFB"/>
<path d="M71.7581 59.6537C71.7279 59.6853 71.6967 59.7161 71.6665 59.7477C71.5935 59.6862 71.5205 59.6248 71.4102 59.5317C71.5962 59.4847 71.6763 59.5715 71.7581 59.6537Z" fill="#FD5C6B"/>
</g>
</g>
<g clip-path="url(#clip1_349_2682)">
<path d="M38.9773 41.8119C38.713 43.8787 37.6567 45.3222 35.6864 46.0449C34.6069 46.4412 33.4938 46.6377 32.3386 46.5321C30.3061 46.3619 28.5253 45.5377 26.9025 44.3532C24.1108 42.3159 22.0077 39.7323 20.9599 36.3942C20.2533 34.1403 20.328 31.8949 21.3801 29.7329C21.5022 29.2236 21.8645 28.8443 22.1057 28.4005C21.9751 28.3909 21.8455 28.3814 21.716 28.373C20.5007 28.4258 19.5867 27.628 19.5277 26.4636C19.475 25.4206 20.3333 24.5404 21.4696 24.459C22.4995 24.3851 23.5305 24.3629 24.5625 24.4115C24.7942 24.1494 25.0164 23.8768 25.2618 23.6274C25.4187 23.4689 25.3692 23.3252 25.3155 23.1498C25.1491 22.613 24.9827 22.0762 24.8479 21.531C24.6647 20.7892 25.0712 20.0696 25.761 19.8604C26.4686 19.6448 27.1995 19.9967 27.4743 20.7068C27.6165 21.0755 27.7176 21.4612 27.8724 21.8363C27.9524 21.1537 27.7587 20.4119 28.3768 19.8804C28.6538 19.6427 28.9729 19.5159 29.3404 19.5254C30.264 19.5507 30.5904 20.0981 30.7094 21.8543C30.9253 21.5278 30.9548 21.1728 31.0696 20.8505C31.3592 20.0347 32.0774 19.6268 32.8399 19.8604C33.5644 20.0823 33.9382 20.8336 33.7276 21.6398C33.7139 21.6905 33.7129 21.7465 33.6908 21.793C33.279 22.6341 33.2169 23.4013 34.1352 23.9687C34.6428 23.9814 35.1314 23.843 35.6274 23.7732C36.9227 23.5926 37.9389 24.3354 38.0306 25.54C38.1559 26.4192 37.7452 27.0183 37.0354 27.4653C36.8932 27.5541 36.6794 27.5445 36.6247 27.7569C37.7999 28.9594 38.277 30.4599 38.2033 32.0819C38.1222 33.8434 38.4434 35.5405 38.7077 37.2554C38.9415 38.7644 39.1732 40.2744 38.9773 41.8119Z" fill="#F7F9FA"/>
<path d="M36.8466 42.9434C36.1684 45.0282 34.6635 46.087 32.5858 46.4526C32.4984 46.4685 32.4141 46.4833 32.3383 46.5319C30.3058 46.3618 28.525 45.5376 26.9022 44.353C24.1105 42.3157 22.0074 39.7322 20.9596 36.3941C20.253 34.1402 20.3278 31.8947 21.3798 29.7328C21.444 29.7666 21.4935 29.8173 21.5146 29.8828C21.7357 30.5665 22.2265 30.8032 22.8794 30.7757C22.8952 30.7757 22.911 30.7747 22.9278 30.7726C22.9384 30.7726 22.9489 30.7726 22.9594 30.7715C23.4154 31.0462 23.7787 31.4995 24.3674 31.5217C24.3758 31.5217 24.3853 31.5217 24.3948 31.5217C24.4211 31.5217 24.4475 31.5217 24.4727 31.5217C25.6417 31.4964 26.1661 31.0367 26.4452 29.8659C26.5558 29.4031 26.5547 28.8895 26.9022 28.506C26.9064 28.5007 26.9117 28.4954 26.9159 28.4912C26.9264 28.4796 26.937 28.469 26.9475 28.4584C27.1202 28.3855 27.2729 28.4468 27.4214 28.5303C27.4446 28.5514 27.4677 28.5736 27.4898 28.5968C27.5246 28.6307 27.5583 28.6655 27.5899 28.7015C28.0511 29.2097 28.2565 29.8416 28.3797 30.5137C28.5419 31.4023 28.8789 31.7045 29.7382 31.7024C29.7582 31.7024 29.7793 31.7024 29.8003 31.7014C29.8109 31.7024 29.8224 31.7014 29.833 31.7014C29.9572 31.7267 30.0499 31.8039 30.1331 31.8926C30.6133 32.4051 31.2189 32.5266 31.8844 32.4622C31.8949 32.459 31.9055 32.4558 31.916 32.4516C31.9718 32.4347 32.0255 32.4157 32.0782 32.3956C32.9754 32.0543 33.4082 31.3622 33.3356 30.3763C33.3219 30.2051 33.2524 30.0297 33.3714 29.867C33.3809 29.8638 33.3903 29.8606 33.3988 29.8585C33.4009 29.8585 33.403 29.8585 33.404 29.8585C33.5999 29.812 33.7073 29.961 33.801 30.0889C34.7615 31.3949 34.832 31.5386 33.7726 32.8024C33.6705 32.9229 33.5451 33.0233 33.4483 33.1469C33.363 33.2568 33.2503 33.3804 33.3977 33.5125C33.5304 33.6309 33.6694 33.5537 33.7779 33.4629C34.0475 33.2378 34.2634 32.9578 34.5108 32.7094C34.8636 32.3586 35.0047 32.3766 35.1669 32.8384C35.3786 33.4407 35.446 34.0694 35.4302 34.7066C35.427 34.8122 35.4218 34.9179 35.4323 35.0225C35.4523 35.2074 35.4017 35.4727 35.6524 35.4949C35.9062 35.516 35.8893 35.2391 35.943 35.0658C35.9946 34.8978 35.9683 34.7097 36.0441 34.5502C36.1368 34.3558 36.2526 34.2807 36.3738 34.49C36.3822 34.5037 36.3906 34.5206 36.399 34.5375C36.4001 34.5491 36.4022 34.5608 36.4043 34.5724C36.6086 36.076 36.9498 37.5617 37.0667 39.0749C37.1667 40.3683 37.2615 41.6712 36.8466 42.9445V42.9434Z" fill="#EE3A47"/>
<path d="M34.0057 24.1704C33.1601 24.4018 32.365 24.8012 31.492 24.946C31.4783 24.9365 31.4646 24.927 31.4499 24.9185C31.4372 24.909 31.4246 24.9006 31.4109 24.8932C30.1483 24.0816 28.2695 24.0415 27.088 25.0918C26.3929 25.71 25.9317 26.4961 25.5726 27.3415C25.0629 28.544 24.7322 29.7972 24.5911 31.0969C24.5742 31.2512 24.5521 31.3981 24.4731 31.5217C24.4415 31.5714 24.4005 31.6168 24.3478 31.657C23.756 31.6041 23.321 31.2829 22.963 30.8328C22.9335 30.8148 22.9051 30.7958 22.8798 30.7757C22.5923 30.5538 22.5523 30.2114 22.5186 29.8754C22.4712 29.402 22.5744 28.9434 22.6976 28.4901C22.7029 28.47 22.7092 28.4489 22.7145 28.4278C22.7176 28.4161 22.7197 28.4035 22.7229 28.3918C23.0041 27.1798 23.4622 26.0365 24.0793 24.9566C24.1509 24.8308 24.2257 24.703 24.3257 24.5962C24.3573 24.5614 24.392 24.5297 24.43 24.5001C24.4363 24.4958 24.4415 24.4916 24.4479 24.4885C24.4858 24.462 24.5247 24.4367 24.5626 24.4113C24.7943 24.1493 25.0165 23.8766 25.2619 23.6273C25.4188 23.4688 25.3693 23.325 25.3156 23.1496C25.1492 22.6128 24.9828 22.076 24.848 21.5308C24.6648 20.789 25.0713 20.0694 25.7611 19.8602C26.4687 19.6446 27.1996 19.9965 27.4745 20.7066C27.6166 21.0754 27.7177 21.4611 27.8725 21.8362C27.9526 21.1536 27.7588 20.4118 28.377 19.8803C28.6539 19.6425 28.973 19.5157 29.3405 19.5252C30.2641 19.5506 30.5906 20.0979 30.7096 21.8541C30.9254 21.5276 30.9549 21.1726 31.0697 20.8503C31.3593 20.0345 32.0775 19.6267 32.84 19.8602C33.5645 20.0821 33.9383 20.8334 33.7277 21.6396C33.714 21.6904 33.713 21.7464 33.6909 21.7929C33.2791 22.634 33.217 23.4011 34.1353 23.9686C34.1448 24.07 34.0879 24.1471 34.0057 24.1704Z" fill="#9A3E2C"/>
<path d="M38.9776 41.8117C38.7132 43.8786 37.657 45.322 35.6867 46.0448C34.6072 46.441 33.4941 46.6376 32.3389 46.5319C32.3726 46.3417 32.5274 46.3734 32.6611 46.3385C34.1123 45.9602 35.4213 45.3674 36.2248 43.9895C36.6471 43.2668 36.9072 42.4859 36.962 41.6627C37.0862 39.8209 36.8251 38.0066 36.5028 36.1975C36.4049 35.6449 36.229 35.0944 36.3238 34.5185C36.3396 34.5037 36.3564 34.4942 36.3743 34.4889C36.4038 34.4783 36.4354 34.4783 36.467 34.4847C36.6186 34.5153 36.7882 34.5851 36.8672 34.3801C36.9335 34.2078 36.8124 34.0852 36.7071 33.969C36.5913 33.8401 36.4638 33.7228 36.328 33.614C36.1942 33.5072 36.0731 33.3921 36.0215 33.2251C36.0152 33.204 36.01 33.1807 36.0057 33.1575C35.9963 33.0476 35.9899 32.9366 35.9868 32.8257C35.9678 32.2498 36.0173 31.6728 35.9562 31.1001C35.8625 30.2146 35.5803 29.3872 35.0938 28.6338C34.9674 28.4383 34.7989 28.2534 34.8358 27.9935C34.8358 27.9882 34.8368 27.9819 34.8379 27.9766C34.8389 27.9723 34.8389 27.9681 34.84 27.9639C35.3686 27.5729 36.249 27.4715 36.625 27.7568C37.8002 28.9593 38.2773 30.4598 38.2036 32.0818C38.1225 33.8433 38.4437 35.5403 38.708 37.2553C38.9418 38.7642 39.1735 40.2742 38.9776 41.8117Z" fill="#CD3043"/>
<path d="M38.0305 25.5399C37.7862 25.7438 37.4829 25.7554 37.1902 25.7871C35.5621 25.9657 34.0003 26.3915 32.4902 27.0182C32.2796 27.1059 32.0732 27.202 31.8794 27.3214C31.3581 27.6416 31.1728 28.0569 31.3044 28.6571C31.5371 29.718 31.7909 30.7747 32.0047 31.8409C32.0405 32.0205 32.13 32.216 32.0784 32.3956C32.0563 32.4727 32.0079 32.5457 31.9184 32.6143C31.0685 32.7126 30.3587 32.4611 29.8238 31.7701C29.7932 31.7479 29.7648 31.7257 29.7385 31.7024C29.5331 31.5186 29.451 31.2597 29.4152 31.004C29.2856 30.0603 28.9444 29.2552 28.0893 28.7448C28.0872 28.7416 28.0861 28.7384 28.0851 28.7353C28.0777 28.7205 28.0714 28.7067 28.0661 28.6919C28.0008 28.5186 28.0598 28.3538 28.1378 28.1942C28.6559 27.1291 29.3267 26.1823 30.2597 25.4458C30.285 25.4247 30.3113 25.4046 30.3377 25.3856C30.3524 25.3729 30.3672 25.3623 30.3819 25.3507C30.722 25.1901 31.0106 24.9048 31.4108 24.8932C31.4392 24.8921 31.4676 24.8921 31.4971 24.8942C32.347 24.5001 33.2642 24.3025 34.1351 23.9686C34.6427 23.9813 35.1314 23.8428 35.6274 23.7731C36.9227 23.5924 37.9389 24.3352 38.0305 25.5399Z" fill="#F67474"/>
<path d="M37.0348 27.4651C36.8926 27.5539 36.6789 27.5444 36.6241 27.7568C36.0165 27.6543 35.4425 27.8265 34.8644 27.9702C34.8549 27.9787 34.8454 27.9861 34.8349 27.9935C34.4221 28.3242 33.8629 28.3031 33.4237 28.5672C33.4101 28.5746 33.3964 28.5831 33.3827 28.5916C33.3806 28.5926 33.3785 28.5947 33.3774 28.5958C33.1584 28.7659 33.31 28.9698 33.3311 29.1611C33.3563 29.3904 33.5501 29.6049 33.3974 29.8522C33.3985 29.8543 33.3985 29.8564 33.3985 29.8585C33.5291 30.371 33.5333 30.8919 33.3553 31.3844C33.1141 32.0511 32.5918 32.4326 31.9178 32.6143C31.9178 32.5604 31.9178 32.5055 31.9157 32.4516C31.8883 31.6137 31.605 30.8212 31.4524 30.0064C31.3597 29.5088 31.2144 29.0227 31.1059 28.5282C30.989 27.9977 31.2607 27.4641 31.8051 27.1862C33.231 26.4571 34.7506 26.0143 36.325 25.7565C36.8895 25.6635 37.4613 25.6107 38.03 25.5399C38.1553 26.419 37.7446 27.0182 37.0348 27.4651Z" fill="#E45555"/>
<path d="M24.5625 24.4113C24.5657 24.4388 24.5594 24.4652 24.5425 24.4874C24.473 24.5371 24.4004 24.573 24.3256 24.5962C24.135 24.6586 23.9307 24.6491 23.7337 24.629C23.2262 24.5751 22.9555 24.8361 22.7712 25.262C22.4216 26.0671 22.0983 26.8797 21.9677 27.7557C21.934 27.9819 21.9056 28.2101 21.716 28.3728C20.5007 28.4257 19.5867 27.6279 19.5277 26.4634C19.475 25.4205 20.3333 24.5402 21.4696 24.4589C22.4995 24.3849 23.5305 24.3627 24.5625 24.4113Z" fill="#F67474"/>
<path d="M24.5423 24.4874C23.7304 25.6793 23.2123 26.9981 22.8626 28.3897C22.8079 28.432 22.7521 28.4658 22.6973 28.4901C22.5014 28.5789 22.3045 28.5525 22.1055 28.4003C21.9749 28.3908 21.8454 28.3813 21.7158 28.3728C21.8759 27.1492 22.2171 25.9879 22.7995 24.8932C22.9785 24.5582 23.1944 24.4546 23.5461 24.4821C23.8452 24.5054 24.1474 24.4906 24.4475 24.4885C24.4791 24.4874 24.5107 24.4874 24.5423 24.4874Z" fill="#E45555"/>
<path d="M22.9627 30.8328C22.1307 31.079 21.5568 30.6796 21.3799 29.7328C21.502 29.2234 21.8643 28.8441 22.1055 28.4003C22.3108 28.3971 22.5162 28.394 22.7226 28.3918C22.7689 28.3908 22.8163 28.3908 22.8626 28.3897C22.6678 29.1928 22.4941 29.9959 22.9279 30.7725C22.9395 30.7926 22.9511 30.8127 22.9627 30.8328Z" fill="#CD3043"/>
<path d="M31.4981 24.8953C31.1474 25.0781 30.7978 25.262 30.4471 25.4448C30.3049 25.4743 30.1744 25.4321 30.0427 25.3824C29.0138 24.9904 28.1419 25.226 27.4511 26.0893C27.1235 26.4993 26.8413 26.9389 26.6423 27.4292C26.3664 28.1065 26.3632 28.1055 26.9466 28.5134C26.8202 28.9878 26.6707 29.457 26.5717 29.9367C26.3137 31.1804 25.6018 31.7415 24.3486 31.658C24.5129 30.4999 24.6993 29.3481 25.0753 28.2333C25.4312 27.1788 25.8956 26.1855 26.6202 25.3349C27.8902 23.8449 30.0964 23.8714 31.4444 24.7526C31.4781 24.7748 31.4802 24.8467 31.497 24.8963L31.4981 24.8953Z" fill="#7A232E"/>
<path d="M26.8803 38.219C27.569 39.2101 28.3556 39.9498 29.2318 40.5986C29.4614 40.7687 29.7499 40.941 29.513 41.2686C29.2676 41.6067 28.998 41.4154 28.7484 41.2189C28.5052 41.0276 28.2514 40.8522 27.9913 40.662C27.8512 40.8829 27.9165 41.0773 27.9228 41.2601C27.9323 41.5422 27.9186 41.8349 27.5795 41.8698C27.2309 41.9057 27.153 41.593 27.1298 41.333C27.093 40.9146 27.0982 40.4908 27.1046 40.0703C27.1067 39.9276 27.1288 39.7998 27.0172 39.6804C26.3937 39.0104 25.8935 38.2507 25.4375 37.3969C25.2111 37.7424 25.2985 38.1091 25.1953 38.4282C25.1163 38.6712 25.0247 38.8657 24.7435 38.8424C24.4287 38.816 24.4129 38.5698 24.436 38.332C24.4676 38.0002 24.4592 37.6484 24.5729 37.344C24.9162 36.4216 24.7783 35.5318 24.5108 34.6294C24.4371 34.3822 24.4455 34.1085 24.4297 33.8464C24.416 33.5981 24.4676 33.3656 24.7772 33.3678C25.0563 33.3699 25.1584 33.5654 25.1848 33.8232C25.2543 34.5069 25.3996 35.1747 25.625 35.8235C25.6597 35.9228 25.6913 36.0232 25.7282 36.1225C26.0595 36.9996 26.6868 37.4455 27.6101 37.4603C27.8839 37.4645 28.2377 37.4064 28.223 37.8312C28.2103 38.2137 27.8923 38.2243 27.5985 38.219C27.39 38.2158 27.1814 38.219 26.8792 38.219H26.8803Z" fill="#F1C95A"/>
<path d="M33.3985 29.8522C33.3027 29.5267 33.2037 29.2013 33.1121 28.8747C33.0647 28.7067 33.0099 28.525 33.2848 28.5028C33.7439 28.6835 34.0272 29.0713 34.3105 29.4369C35.1625 30.5369 35.8164 31.7384 36.046 33.1363C36.0544 33.186 36.0923 33.2293 36.1218 33.2727C36.3577 33.4766 36.5978 33.6763 36.8285 33.8876C37.0285 34.0715 37.2118 34.2818 36.9991 34.5629C36.7663 34.8704 36.542 34.659 36.324 34.5195C36.1555 34.3515 36.1303 34.4783 36.1166 34.622C36.0913 34.8661 36.0713 35.1102 36.0428 35.3533C36.0144 35.59 35.8986 35.7706 35.6406 35.7358C35.4068 35.7051 35.2846 35.5392 35.2878 35.2877C35.2941 34.6738 35.313 34.0599 35.1877 33.4512C35.1235 33.1427 35.0508 32.8405 34.9023 32.5002C34.6264 32.7993 34.3726 33.0772 34.1146 33.3508C34.0072 33.465 33.8956 33.578 33.7745 33.6774C33.586 33.8316 33.389 33.838 33.2132 33.6541C33.0205 33.4523 33.1005 33.2684 33.2722 33.1057C33.6292 32.7665 33.9525 32.3988 34.2315 31.9909C34.4632 31.6528 34.5148 31.34 34.2505 30.9807C33.9714 30.6014 33.7671 30.166 33.4006 29.8522H33.3985Z" fill="#F1C95A"/>
<path d="M26.9462 28.5123C26.2511 28.4214 26.1595 28.264 26.407 27.6289C26.6639 26.9695 27.003 26.3577 27.4801 25.8378C28.3268 24.9154 29.2851 24.797 30.4456 25.4447C29.4831 26.2256 28.7564 27.1893 28.2236 28.3062C28.1625 28.4352 28.1172 28.5641 28.132 28.7078C27.8571 28.88 27.6286 28.7183 27.3927 28.6042C27.2431 28.5736 27.0936 28.5429 26.9451 28.5134L26.9462 28.5123Z" fill="#E45555"/>
<path d="M27.3945 28.6042C27.6504 28.5704 27.8895 28.6539 28.1338 28.7078C28.9805 29.0121 29.3091 29.7275 29.4649 30.5189C29.5502 30.9522 29.6819 31.3601 29.824 31.77C29.0753 32.0215 28.3834 31.5946 28.2675 30.707C28.1633 29.9113 27.8495 29.2361 27.3945 28.6042Z" fill="#CD3043"/>
<path d="M36.1211 33.2727C36.0137 33.2399 35.9442 33.1765 35.9179 33.0592C35.5188 31.2629 34.5699 29.7846 33.2852 28.5028C33.7696 28.1995 34.3182 28.0854 34.8659 27.9702C35.4366 28.8483 35.9411 29.7539 36.079 30.8201C36.1843 31.6369 36.1138 32.4548 36.1211 33.2727Z" fill="#EE3A47"/>
</g>
<g clip-path="url(#clip2_349_2682)">
<path d="M65.4221 22.0271C65.4851 21.5153 65.8298 21.1873 66.3379 21.155C66.8593 21.1219 67.2511 21.449 67.4048 22.0462C67.5247 22.1779 67.4732 22.3361 67.4741 22.4827C67.4785 23.4857 67.4741 24.4895 67.4785 25.4934C67.4785 25.5149 67.4776 25.5364 67.4758 25.5588C67.4794 25.6457 67.4821 25.7335 67.4847 25.8213C67.4963 25.8586 67.5167 25.8942 67.5478 25.929C67.6331 25.5505 67.7779 25.1944 68.0213 24.8796C68.8358 23.8261 69.98 23.5685 71.2875 23.7118C72.8927 23.9437 74.1665 24.7082 75.0842 25.9265C76.636 27.9864 76.8421 30.2508 75.9351 32.5748C75.1605 34.5601 73.6442 35.8406 71.3755 36.268C70.9793 36.3227 70.5822 36.3243 70.1843 36.2887C68.429 36.1338 66.854 34.4525 67.8605 32.5517C68.063 32.1698 68.2718 31.7913 68.4778 31.412C68.5089 31.2414 68.6759 31.1072 68.6262 30.9159C67.793 31.0724 67.3852 31.5569 67.3843 32.4266C67.3799 35.1996 67.3826 37.9725 67.3817 40.7455C67.3817 40.9666 67.3941 41.1886 67.3755 41.4081C67.3328 41.9174 66.9073 42.2993 66.3948 42.3042C65.8929 42.31 65.4825 41.968 65.407 41.4694C65.3821 41.307 65.3803 41.1397 65.3803 40.9749C65.3785 37.7746 65.3777 34.5742 65.3768 31.3739C65.3768 28.4212 65.3759 25.4693 65.3785 22.5166C65.3785 22.3535 65.3404 22.1853 65.4221 22.0271ZM68.5605 28.991C68.5018 28.9099 68.4805 28.8154 68.4867 28.7119C68.4876 28.6995 68.4876 28.6879 68.4885 28.6755C68.127 28.311 67.928 27.8538 67.7183 27.4091C67.6348 27.2327 67.5647 27.0529 67.5185 26.8699C67.5362 27.5391 67.5451 28.2083 67.5345 28.8784C67.5327 28.9794 67.5114 29.0747 67.4776 29.1674C67.8258 29.0391 68.174 28.9099 68.5605 28.991Z" fill="#F7F9FA"/>
<path d="M55.3393 25.6026C56.5731 24.2468 58.1303 23.5038 60.1006 23.7151C61.4428 23.9536 62.2902 24.68 62.6091 25.9281C62.7326 25.7981 62.6793 25.6391 62.6802 25.4933C62.6846 24.4895 62.6802 23.4856 62.6846 22.4818C62.6855 22.3352 62.634 22.177 62.7539 22.0453C62.9085 21.4481 63.2993 21.1218 63.8208 21.1549C64.3298 21.1872 64.6735 21.5152 64.7366 22.0279C64.8183 22.1853 64.7801 22.3534 64.7801 22.5166C64.781 28.668 64.7801 34.8193 64.7793 40.9715C64.7793 41.0817 64.7828 41.1927 64.7757 41.302C64.734 41.9083 64.3307 42.3075 63.7675 42.305C63.1919 42.3017 62.7841 41.8718 62.7779 41.2465C62.7717 40.6121 62.7761 39.9776 62.7761 39.3432C62.7761 37.0258 62.7797 34.7083 62.7744 32.3909C62.7726 31.6563 62.4546 31.2098 61.7972 30.9721C61.4348 30.9506 61.6009 31.1742 61.6089 31.3241C61.9855 32.0041 62.4661 32.6493 62.5834 33.4237C62.7903 34.7887 61.7546 35.9557 60.1023 36.2688C58.4226 36.4775 57.0226 35.9101 55.8234 34.8699C53.1984 32.5922 52.9604 28.2166 55.3393 25.6026ZM62.6198 28.6315C62.6011 28.0161 62.6233 27.4007 62.6544 26.7862C62.4439 27.4943 62.0806 28.1412 61.6453 28.7533C61.632 28.7533 61.6187 28.7533 61.6071 28.7516C61.6711 28.8228 61.6737 28.8974 61.6515 28.9728C62.0184 28.9322 62.3489 29.0456 62.6784 29.1666C62.6207 28.9943 62.6242 28.8129 62.6198 28.6315Z" fill="#F7F9FA"/>
<path d="M69.5394 35.0852C69.956 35.713 70.5538 36.1578 71.3755 36.2679C73.6442 35.8406 75.1605 34.5601 75.9351 32.5748C76.8421 30.2507 76.636 27.9863 75.0842 25.9265C74.1665 24.7081 72.8927 23.9437 71.2875 23.7117C70.1994 24.0033 69.487 24.6518 69.1849 25.6714C69.0499 26.1277 69.0357 26.5866 69.2977 27.0189C69.2977 27.0198 69.2986 27.0198 69.2986 27.0206C69.304 27.0256 69.3102 27.0297 69.3155 27.033C69.3448 27.0562 69.3786 27.0736 69.4141 27.0852C69.4221 27.086 69.4292 27.0877 69.4372 27.0885C69.4496 27.0902 69.4612 27.0918 69.4736 27.0943C70.3291 27.2218 70.4463 27.3494 70.5547 28.1694C70.6062 28.5619 70.7013 28.6299 71.1392 28.5802C71.2858 28.5636 71.4297 28.5305 71.5789 28.533C71.8383 28.5371 72.0373 28.6307 72.1448 28.8609C72.246 29.0796 72.1652 29.2651 72.0142 29.4333C71.8516 29.6138 71.6233 29.7273 71.451 29.8987C71.1747 30.1737 71.165 30.3228 71.419 30.6185C71.5762 30.8015 71.7708 30.9531 71.9378 31.1287C72.135 31.3366 72.1883 31.5643 72.0399 31.8136C71.8889 32.0663 71.61 32.2683 71.3515 32.1532C70.7439 31.8824 70.306 32.0108 69.9231 32.4804C69.8902 32.521 69.8201 32.5309 69.7659 32.5533C69.765 32.5541 69.7641 32.5541 69.7632 32.5549C69.7117 32.5798 69.6557 32.5955 69.5998 32.6121C69.5278 32.6336 69.4568 32.656 69.3963 32.7007C69.3937 32.7048 69.391 32.7098 69.3884 32.7139C69.3804 32.7264 69.3733 32.7396 69.3661 32.752C68.8971 33.5571 69.0508 34.3472 69.5394 35.0852Z" fill="#F67474"/>
<path d="M55.355 29.666C55.3488 31.1693 55.6117 32.5756 56.4947 33.8486C57.2054 34.8723 58.1674 35.6227 59.3755 36.1006C59.6118 36.1934 59.8747 36.1586 60.1021 36.2688C61.7544 35.9557 62.7901 34.7887 62.5831 33.4237C62.4659 32.6493 61.9853 32.0041 61.6087 31.3241C61.3671 31.3548 61.423 31.5428 61.4159 31.6737C61.3919 32.0762 61.2711 32.4257 60.8172 32.5458C60.4086 32.6543 60.0986 32.4646 59.8729 32.1557C59.7201 31.9462 59.5371 31.9105 59.3017 32.0207C59.1836 32.077 59.0584 32.1209 58.9278 32.1482C58.5813 32.222 58.3148 32.1077 58.1345 31.831C57.9657 31.571 58.0261 31.3308 58.2384 31.1129C58.4072 30.939 58.5955 30.7833 58.7563 30.6019C58.9704 30.3617 58.974 30.1364 58.7243 29.9103C58.5645 29.7654 58.3779 29.6511 58.2198 29.5061C58.0315 29.3339 57.9009 29.1368 58.0102 28.8783C58.1256 28.6075 58.3619 28.5288 58.6533 28.5354C59.2011 28.5487 59.5371 28.3088 59.6615 27.8157C59.7725 27.3709 60.0079 27.1622 60.4263 27.1332C60.8056 27.1076 61.0677 27.2881 61.2409 27.708C61.3369 27.9408 61.3822 28.1843 61.415 28.4319C61.4319 28.5553 61.3973 28.7293 61.5936 28.7508C61.598 28.7508 61.6025 28.7508 61.6069 28.7508C61.6184 28.7524 61.6318 28.7524 61.6451 28.7524C62.0804 28.1404 62.4437 27.4935 62.6542 26.7854C62.6604 26.7647 62.6666 26.7431 62.6729 26.7216C62.7306 26.5145 62.7706 26.2901 62.6897 26.0789C62.6702 26.0267 62.6435 25.9762 62.6089 25.9273C62.29 24.6791 61.4426 23.9528 60.1003 23.7142C57.2142 24.2857 55.3657 27.1233 55.355 29.6652V29.666Z" fill="#F67474"/>
<path d="M61.1523 30.3683C61.2163 30.8363 61.3051 30.9125 61.7972 30.9721C62.4546 31.2098 62.7726 31.6563 62.7744 32.3909C62.7797 34.7084 62.7761 37.0258 62.7761 39.3432C62.7761 39.9776 62.7717 40.6121 62.7779 41.2465C62.7841 41.8718 63.1919 42.3017 63.7675 42.305C64.3307 42.3075 64.734 41.9083 64.7757 41.302C64.7828 41.1927 64.7793 41.0817 64.7793 40.9715C64.7801 34.8193 64.781 28.668 64.7801 22.5166C64.7801 22.3534 64.8183 22.1853 64.7366 22.0279C64.5652 22.1621 64.5892 22.3509 64.5892 22.5265C64.5838 25.2573 64.5865 27.988 64.5847 30.7187C64.5847 30.8711 64.6211 31.0193 64.6238 31.0707C64.3849 30.2516 63.7533 29.6428 62.8659 29.2345C62.8259 29.2204 62.7868 29.2055 62.7468 29.1914C62.7237 29.1831 62.7015 29.1748 62.6784 29.1666C62.3489 29.0456 62.0184 28.9322 61.6515 28.9728C61.6293 28.9752 61.6062 28.9777 61.5831 28.9819C61.5751 28.9835 61.5672 28.9852 61.56 28.9877C61.3246 29.049 61.2411 29.2287 61.1887 29.4299C61.1079 29.7397 61.1088 30.0553 61.1523 30.3683Z" fill="#EE3A47"/>
<path d="M65.3785 22.5166C65.3759 25.4693 65.3768 28.4211 65.3768 31.3738C65.3768 34.5742 65.3785 37.7745 65.3803 40.9749C65.3803 41.1397 65.3821 41.307 65.407 41.4693C65.4825 41.9679 65.8929 42.31 66.3948 42.3042C66.9073 42.2992 67.3328 41.9174 67.3754 41.408C67.3941 41.1885 67.3817 40.9666 67.3817 40.7454C67.3825 37.9725 67.3799 35.1995 67.3843 32.4265C67.3852 31.5569 67.7929 31.0724 68.6262 30.9158C68.7061 30.9233 68.7656 30.8885 68.8136 30.833C69.1663 30.4172 69.0836 29.4092 68.667 29.0175C68.6555 29.0142 68.6439 29.0109 68.6333 29.0084C68.6084 29.0009 68.5844 28.9951 68.5604 28.991C68.174 28.9098 67.8258 29.039 67.4776 29.1674C67.4563 29.1757 67.435 29.1831 67.4136 29.1906C67.3763 29.2047 67.3381 29.2179 67.3008 29.2312C66.4303 29.6262 65.8103 30.2251 65.5278 31.1005C65.566 30.934 65.5731 30.7585 65.5731 30.5812C65.5722 27.9515 65.5749 25.321 65.5695 22.6905C65.5686 22.4644 65.6335 22.2168 65.4221 22.0271C65.3403 22.1853 65.3785 22.3534 65.3785 22.5166Z" fill="#EE3A47"/>
<path d="M55.8236 34.8699C57.0228 35.9101 58.4228 36.4775 60.1025 36.2688C60.0492 36.224 60.0039 36.1553 59.9418 36.1371C57.586 35.4637 56.2215 33.9116 55.6903 31.7474C55.1511 29.5509 55.4647 27.4504 57.0388 25.6399C57.7254 24.8506 58.5871 24.2542 59.646 23.9354C59.8058 23.8873 60.0066 23.8898 60.1008 23.7151C58.1305 23.5039 56.5733 24.2468 55.3395 25.6026C52.9606 28.2166 53.1986 32.5922 55.8236 34.8699Z" fill="#E45555"/>
<path d="M65.4221 22.0271C65.4265 25.0287 65.431 28.031 65.4354 31.0326C65.4363 31.1775 65.4354 31.3225 65.4709 31.4823C65.7809 30.4868 66.4001 29.7447 67.4136 29.3132C67.4376 29.2651 67.4598 29.2163 67.4776 29.1674C67.5114 29.0746 67.5327 28.9794 67.5345 28.8783C67.5451 28.2083 67.5362 27.5391 67.5185 26.8698C67.5114 26.6181 67.5034 26.3654 67.4954 26.1137C67.4918 26.0159 67.4892 25.919 67.4847 25.8213C67.482 25.7335 67.4794 25.6457 67.4758 25.5587C67.4465 24.7247 67.4154 23.8898 67.4057 23.0558C67.4012 22.7195 67.4003 22.3824 67.4048 22.0461C67.2511 21.449 66.8593 21.1218 66.3379 21.155C65.8298 21.1873 65.4851 21.5152 65.4221 22.0271Z" fill="#CD3143"/>
<path d="M62.6195 28.6315C62.6239 28.8129 62.6204 28.9943 62.6781 29.1666C62.695 29.2163 62.7163 29.2651 62.7456 29.3132C63.7574 29.7455 64.3775 30.4868 64.7363 31.4674V22.0279C64.6733 21.5152 64.3295 21.1872 63.8205 21.1549C63.2991 21.1218 62.9082 21.4481 62.7536 22.0453C62.695 22.717 62.7145 23.3912 62.7332 24.0621C62.7527 24.7355 62.7234 25.4072 62.6897 26.0789C62.6781 26.3157 62.6648 26.551 62.6541 26.7862C62.6231 27.4007 62.6008 28.0161 62.6195 28.6315Z" fill="#CD3043"/>
<path d="M58.1761 30.9953C57.8404 31.3415 57.7915 31.6008 58.0633 31.9553C58.2996 32.2634 58.6247 32.3884 59.0298 32.241C59.1115 32.2112 59.2066 32.1988 59.2759 32.1532C59.5193 31.9934 59.6765 32.029 59.8302 32.2783C60.0425 32.622 60.3996 32.7529 60.8109 32.6775C61.2301 32.6013 61.4842 32.2766 61.5339 31.8426C61.5544 31.6695 61.4735 31.4832 61.6086 31.3241C61.6006 31.1742 61.4344 30.9506 61.7969 30.9721C61.4433 30.9175 61.3039 30.6955 61.2754 30.3882C61.2417 30.0346 61.2319 29.6842 61.3438 29.3372C61.39 29.1964 61.4362 29.0804 61.6148 29.0647C61.6299 29.034 61.6423 29.0034 61.6512 28.9728C61.6734 28.8974 61.6707 28.8228 61.6068 28.7516C61.6041 28.7475 61.6006 28.7442 61.597 28.7409C61.4673 28.4062 61.5135 28.0418 61.3776 27.7031C61.1191 27.0603 60.5835 26.8193 59.9918 27.12C59.5868 27.3254 59.5015 27.7089 59.5024 28.0774C59.5042 28.5147 59.3105 28.5578 58.9312 28.4568C58.6425 28.3797 58.3387 28.3623 58.0847 28.552C57.724 28.8212 57.7515 29.2494 58.1237 29.5915C58.3671 29.8159 58.8291 29.9186 58.8122 30.2814C58.7971 30.5969 58.4018 30.7626 58.1761 30.9953Z" fill="#FEC79E"/>
<path d="M68.4783 31.4119C68.4854 31.8526 68.4961 32.2932 68.9207 32.5972C69.053 32.6916 69.1845 32.8158 69.3666 32.752C69.3861 32.7454 69.4066 32.7371 69.427 32.7255C69.5514 32.7123 69.6899 32.7545 69.7885 32.6435C69.7761 32.6137 69.7681 32.5839 69.7637 32.5549C69.7397 32.4207 69.7885 32.2965 69.8569 32.1706C70.0462 31.8285 70.2354 31.4857 70.4077 31.1353C70.6991 30.5415 70.8172 29.9252 70.5818 29.2908C70.2975 28.523 69.8658 27.8174 69.4741 27.0943C69.4608 27.0703 69.4483 27.0463 69.435 27.0222C69.4057 27.0198 69.3755 27.0173 69.3453 27.0148C69.3293 27.0156 69.3133 27.0164 69.2982 27.0189C68.9606 27.0529 68.8318 27.3038 68.7155 27.5565C68.5609 27.8952 68.5147 28.2547 68.4925 28.6174C68.4925 28.6373 68.4898 28.6564 68.489 28.6754C68.4881 28.6878 68.4881 28.6994 68.4872 28.7119C68.481 28.8154 68.5023 28.9098 68.5609 28.991C68.5778 29.0158 68.5991 29.0398 68.624 29.0622C69.0148 29.5939 69.0157 30.3849 68.6266 30.9158C68.6764 31.1071 68.5094 31.2413 68.4783 31.4119Z" fill="#F6AF81"/>
<path d="M70.1848 36.2886C70.5827 36.3243 70.9798 36.3226 71.376 36.2679C70.9905 36.0451 70.5436 35.9308 70.1963 35.636C69.2343 34.8227 69.006 33.8511 69.427 32.7255C69.4146 32.7222 69.4013 32.7181 69.3888 32.7139C68.9296 32.5789 68.6516 32.304 68.6187 31.8302C68.608 31.6836 68.5885 31.532 68.4783 31.4119C68.2722 31.7913 68.0635 32.1698 67.861 32.5516C66.8545 34.4524 68.4295 36.1338 70.1848 36.2886Z" fill="#E45555"/>
<path d="M67.519 26.8698C67.5652 27.0529 67.6354 27.2326 67.7189 27.409C67.9285 27.8538 68.1275 28.311 68.489 28.6754C68.513 28.6986 68.5361 28.7218 68.561 28.7442C68.704 28.4949 68.625 28.2133 68.7005 27.9482C68.8071 27.5705 68.9652 27.25 69.3161 27.033C69.3258 27.0264 69.3356 27.0206 69.3454 27.0148C68.8906 25.6606 69.7362 24.3884 70.9345 23.937C71.0696 23.8865 71.2179 23.8509 71.2881 23.7117C69.9805 23.5685 68.8364 23.826 68.0218 24.8796C67.7784 25.1943 67.6336 25.5505 67.5483 25.929C67.5261 25.9911 67.5084 26.0524 67.4959 26.1137C67.4382 26.3721 67.4559 26.6239 67.519 26.8698Z" fill="#E45555"/>
<path d="M61.5937 28.7508C61.5937 28.7508 61.5964 28.7442 61.5973 28.7408C61.6932 28.5553 61.7829 28.3665 61.8851 28.1843C62.283 27.4753 62.6943 26.7713 62.6091 25.9281C62.7325 25.7981 62.6792 25.6391 62.6801 25.4933C62.6846 24.4895 62.6801 23.4856 62.6846 22.4818C62.6854 22.3352 62.6339 22.177 62.7538 22.0453C62.7583 22.5688 62.7672 23.0914 62.7654 23.6148C62.761 25.4734 62.7521 27.3328 62.7467 29.1914C62.7459 29.232 62.7459 29.2726 62.7459 29.3132C62.387 29.1591 62.0103 29.0755 61.615 29.0647C61.5866 29.039 61.5688 29.0133 61.56 28.9877C61.5307 28.9106 61.5671 28.8303 61.5937 28.7508ZM62.6783 29.1666C62.6206 28.9943 62.6242 28.8129 62.6197 28.6315C62.6011 28.0161 62.6233 27.4007 62.6544 26.7862C62.4438 27.4943 62.0805 28.1412 61.6452 28.7533C61.6319 28.7533 61.6186 28.7533 61.607 28.7516C61.671 28.8228 61.6737 28.8974 61.6515 28.9728C62.0183 28.9322 62.3488 29.0456 62.6783 29.1666Z" fill="#F7F8F9"/>
<path d="M67.4741 22.4826C67.4785 23.4856 67.4741 24.4895 67.4785 25.4933C67.4785 25.5148 67.4776 25.5364 67.4758 25.5587C67.4705 25.6465 67.4572 25.7368 67.4847 25.8213C67.4963 25.8586 67.5167 25.8942 67.5478 25.929C67.4927 26.5394 67.6686 27.1009 67.9635 27.6376C68.1421 27.9631 68.3171 28.2911 68.4921 28.6174C68.5152 28.6597 68.5374 28.7019 68.5605 28.7442C68.5836 28.8328 68.6395 28.9156 68.6333 29.0084C68.6333 29.0258 68.6298 29.044 68.6235 29.0622C68.2016 29.0688 67.7965 29.1459 67.4137 29.3132V29.1906C67.4101 27.1465 67.4083 25.1007 67.4057 23.0558C67.4057 22.7195 67.4048 22.3824 67.4048 22.0461C67.5247 22.1778 67.4732 22.336 67.4741 22.4826ZM68.5605 28.991C68.5018 28.9098 68.4805 28.8154 68.4867 28.7119C68.4876 28.6994 68.4876 28.6878 68.4885 28.6754C68.127 28.311 67.928 27.8538 67.7184 27.409C67.6349 27.2326 67.5647 27.0529 67.5185 26.8698C67.5363 27.5391 67.5451 28.2083 67.5345 28.8783C67.5327 28.9794 67.5114 29.0746 67.4776 29.1674C67.8258 29.039 68.1741 28.9098 68.5605 28.991Z" fill="#F7F8F9"/>
<path d="M69.4345 27.0222C69.4327 27.2649 69.5473 27.4736 69.6575 27.6824C69.8662 28.0766 70.0821 28.4675 70.2891 28.8634C70.6817 29.6146 70.6817 30.3692 70.2882 31.1212C70.0679 31.5411 69.8458 31.9594 69.614 32.3744C69.5038 32.5707 69.5544 32.6535 69.7889 32.6452C69.9702 32.6162 70.1611 32.5508 70.2349 32.4042C70.4374 32 70.6977 32.0547 71.061 32.2137C71.4874 32.4 71.8898 32.2675 72.1056 31.9495C72.3615 31.5718 72.3215 31.3266 71.9449 30.9614C71.4717 30.502 71.4921 30.0533 72.0062 29.6155C72.2567 29.401 72.4299 29.1674 72.2709 28.8204C72.1074 28.4634 71.8072 28.393 71.4412 28.4203C70.9959 28.4529 70.7288 28.271 70.6399 27.8745C70.4863 27.1879 70.2082 26.9908 69.4363 27.0239L69.4345 27.0222Z" fill="#FEC79E"/>
</g>
<g clip-path="url(#clip3_349_2682)">
<path d="M45.5154 63.9224C45.1647 65.6304 44.1283 66.8027 42.7018 67.654C41.7899 68.1993 40.8126 68.5851 39.7772 68.8125C39.8809 68.871 39.9847 68.9294 40.0874 68.9879C40.3 69.0261 40.5283 68.9624 40.7244 69.0974C41.1259 69.142 41.3054 69.4481 41.4433 69.7733C41.8946 70.834 41.8158 71.8969 41.4018 72.947C41.3188 73.1595 41.1767 73.3445 40.9194 73.3689C40.1849 73.5591 39.4483 73.506 38.7272 73.3306C38.4233 73.2573 38.3091 73.2945 38.2064 73.5995C38.0166 74.165 37.7749 74.7123 37.5549 75.2671C37.8143 75.5477 38.0716 75.8315 38.3351 76.1089C38.7106 76.5043 38.6142 77.057 38.0778 77.5618C37.7904 77.8318 37.4584 77.7627 37.1047 77.3567C36.9905 77.2259 36.8826 77.0899 36.7716 76.957C36.5423 77.6426 36.7125 78.259 37.0549 78.8606C37.2686 79.2379 37.0362 79.4515 36.7197 79.5939C36.4044 79.7364 36.1076 79.764 35.9624 79.3548C35.8047 78.9159 35.6657 78.4705 35.481 77.9115C35.4177 78.2441 35.3845 78.444 35.342 78.6427C35.2714 78.969 35.0878 79.1996 34.7455 79.1816C34.4 79.1646 34.2475 78.9042 34.1987 78.5811C34.178 78.4429 34.1842 78.3005 34.179 78.1591C33.542 78.3887 32.8884 78.5428 32.214 78.5566C31.9806 78.5609 31.8364 78.682 31.6714 78.8074C29.9109 80.1456 26.1459 80.1647 24.5897 77.9487C24.0326 77.1569 23.7244 76.2747 23.6829 75.2969C23.5948 75.1513 23.5885 74.9855 23.6093 74.8335C23.7255 73.9875 23.4682 73.2329 23.1912 72.4464C22.3539 70.0698 22.8198 67.8963 24.3459 65.9439C24.4891 65.759 24.5762 65.557 24.6633 65.3445C25.2122 64.0064 25.9706 62.8904 27.4884 62.5885C28.2177 62.4429 28.8962 62.5949 29.5353 62.9446C29.8828 63.1338 30.2055 63.3729 30.5396 63.5897H30.5406C30.8477 63.6174 31.0417 63.8331 31.245 64.034C31.0676 63.154 30.8902 62.2739 30.7128 61.3939C30.689 61.2738 30.6589 61.1537 30.6412 61.0315C30.58 60.6255 30.7159 60.3204 31.1226 60.2237C31.5117 60.1323 31.7358 60.3661 31.8706 60.7137C32.2566 61.7159 32.5969 62.7341 32.8199 63.7895C33.3293 63.8246 33.8387 63.8597 34.3481 63.8948C34.3896 63.3516 34.5048 62.8224 34.6376 62.2962C34.76 61.8116 35.12 61.8573 35.4551 61.9455C35.7819 62.0316 36.1367 62.1283 36.0215 62.6385C35.9251 63.0636 35.8763 63.5004 35.8068 63.932C36.6772 64.0818 37.5487 64.0032 38.4212 63.9596C39.2968 63.9149 40.159 63.7704 41.018 63.6014C41.4983 63.4601 41.9787 63.3187 42.458 63.1773C43.0078 62.9754 43.5535 62.7618 44.1086 62.5758C45.1056 62.241 45.7343 62.85 45.5154 63.9224Z" fill="#F7F9FA"/>
<path d="M45.5152 63.9223C45.1645 65.6303 44.1281 66.8026 42.7016 67.654C41.7897 68.1992 40.8124 68.585 39.777 68.8125C39.7376 68.8656 39.6909 68.9071 39.64 68.9411C39.6089 68.9623 39.5757 68.9804 39.5404 68.9974C39.4803 69.0261 39.4149 69.0495 39.3506 69.0718C38.588 69.261 37.8058 69.3205 37.0329 69.4406C36.9831 69.4438 36.9322 69.4502 36.8835 69.4576C36.815 69.4682 36.7476 69.4831 36.6812 69.4991C36.4602 69.5522 36.2434 69.6234 36.0182 69.6436C35.6219 69.6797 35.512 69.5299 35.6354 69.1451C35.7008 68.9443 35.7973 68.754 35.8315 68.5414C35.8336 68.5266 35.8232 68.5096 35.8045 68.4447C35.2868 69.2567 34.5388 69.6139 33.6559 69.7743C32.8685 69.9178 32.2834 70.395 31.8352 71.1273C32.0593 71.2347 32.357 71.0901 32.4774 71.3803C32.5728 71.612 32.6278 71.8501 32.6423 72.0998C32.6963 73.0139 32.2408 73.6601 31.3891 73.9332C30.6815 74.1607 29.9605 74.1617 29.2342 74.133C29.1129 74.1277 28.9604 74.1277 28.895 74.0289C28.4831 73.4082 27.8243 72.9607 27.6511 72.1732C27.5276 71.6131 27.6365 71.3665 28.1356 71.0912C28.5059 70.8882 28.9147 70.7362 29.1834 70.2175C28.7746 70.3632 28.5018 70.5619 28.1854 70.6395C28.0671 70.6682 27.9384 70.7001 27.8461 70.5917C27.8399 70.5842 27.8347 70.5778 27.8295 70.5704C27.8295 70.5704 27.8285 70.5704 27.8285 70.5683C27.7559 70.462 27.8067 70.3451 27.87 70.2484C28.0432 69.9805 28.1532 69.6829 28.2601 69.3832C28.3597 69.1016 28.5827 68.9793 28.8462 68.9177C29.9781 68.6499 30.7676 67.7029 31.0757 66.623C31.1349 66.4179 31.1764 66.2085 31.1992 65.997C31.221 65.8036 31.2262 65.608 31.2158 65.4156C31.2324 65.0309 31.1567 64.6376 31.2957 64.2625C31.2957 64.2614 31.2957 64.2614 31.2957 64.2603C31.3081 64.2486 31.3206 64.238 31.333 64.2263C31.7594 63.8501 32.2377 63.6449 32.8187 63.7895C33.3281 63.8246 33.8375 63.8596 34.3469 63.8947C34.8397 63.6333 35.3231 63.7778 35.8056 63.9319C36.676 64.0818 37.5475 64.0031 38.42 63.9595C39.2956 63.9149 40.1577 63.7704 41.0167 63.6014C41.2938 64.1392 41.106 64.6578 40.9452 65.1722C40.8611 65.439 40.6931 65.6686 40.5406 65.9959C41.1226 65.5496 41.4494 65.0245 41.6351 64.3889C41.7782 63.8968 41.9536 63.4175 42.4568 63.1773C43.0066 62.9754 43.5523 62.7617 44.1074 62.5757C45.1044 62.2409 45.7331 62.8499 45.5142 63.9223H45.5152Z" fill="#FBC25E"/>
<path d="M34.3574 76.8316C34.3273 76.8677 34.2962 76.9017 34.2641 76.9347C34.2485 76.9496 34.2329 76.9655 34.2163 76.9815H34.2153C33.7412 77.4204 33.1125 77.4576 32.519 77.5193C32.0086 77.5724 31.5573 77.6904 31.1039 77.9433C28.0797 79.6258 25.3097 78.1761 23.988 75.6646C23.8635 75.4287 23.7971 75.1789 23.7608 74.808C23.7608 74.8473 23.6746 74.9504 23.7379 74.9238C23.7576 74.9153 23.7628 74.9302 23.7691 74.9631C23.796 75.0907 23.8012 75.2097 23.6829 75.2969C23.5948 75.1512 23.5885 74.9854 23.6093 74.8335C23.7255 73.9874 23.4682 73.2328 23.1912 72.4463C22.3539 70.0698 22.8198 67.8963 24.3459 65.9439C24.4891 65.7589 24.5762 65.557 24.6633 65.3444C25.2122 64.0063 25.9706 62.8903 27.4884 62.5885C28.2177 62.4429 28.8962 62.5949 29.5353 62.9445C29.8828 63.1337 30.2055 63.3729 30.5396 63.5897C30.5157 63.679 30.4566 63.7395 30.386 63.7937C29.1514 64.7354 28.7022 66.0002 28.9253 67.5381C28.945 67.6699 28.9834 67.8028 28.9201 67.925C28.9159 67.9324 28.9118 67.9409 28.9066 67.9484C28.8983 67.9622 28.8879 67.976 28.8755 67.9898C28.4522 68.1928 28.0631 68.0717 27.6834 67.8602C27.673 67.8538 27.6637 67.8464 27.6533 67.8389C27.6378 67.8283 27.6232 67.8177 27.6087 67.806C27.256 67.5392 27.008 67.1619 26.6968 66.7017C26.758 67.3256 26.9095 67.7751 27.2487 68.1525C27.3224 68.2343 27.4085 68.3098 27.4759 68.398C27.5008 68.4309 27.5247 68.466 27.5423 68.5043C27.5672 68.5531 27.5838 68.6073 27.59 68.669C27.5838 68.9049 27.507 69.1249 27.3815 69.3109C26.7663 70.2154 26.6719 71.2241 26.7933 72.2795C26.8047 72.3847 26.8057 72.4888 26.7611 72.5877C26.7393 72.6111 26.7175 72.6313 26.6947 72.6472C26.6864 72.6546 26.6791 72.66 26.6708 72.6653C26.4229 72.8353 26.1168 72.7195 25.8035 72.7832C26.1366 72.8438 26.4177 72.9607 26.6947 73.0798C26.7279 73.0936 26.7601 73.1085 26.7922 73.1223C26.8005 73.1255 26.8088 73.1297 26.8171 73.1329C27.562 73.6229 28.0227 74.3552 28.4283 75.1332C28.4314 75.1438 28.4335 75.1534 28.4366 75.164C28.4418 75.1842 28.447 75.2044 28.4522 75.2256C28.5352 75.5424 28.6192 75.8644 28.6752 76.2481C28.8101 75.8857 28.6638 75.5286 28.8215 75.2373C28.8277 75.2246 28.835 75.2129 28.8433 75.2001C28.8568 75.1778 28.8723 75.1566 28.891 75.1353C29.5415 75.0726 30.193 75.1672 30.8466 75.0577C31.7461 74.9068 32.5305 74.5752 33.1291 73.844C33.239 73.7079 33.3438 73.5442 33.5441 73.5315C33.5461 73.5315 33.5492 73.5304 33.5524 73.5315C33.5617 73.5304 33.571 73.5304 33.5814 73.5304C33.6291 73.5496 33.6872 73.5655 33.708 73.6133C34.1416 74.64 34.5929 75.6635 34.3574 76.8316Z" fill="#FB6391"/>
<path d="M40.919 73.3689C40.1845 73.5591 39.4479 73.506 38.7268 73.3306C38.4229 73.2573 38.3087 73.2945 38.206 73.5995C38.0162 74.1649 37.7744 74.7123 37.5545 75.2671C37.182 75.1481 37.0731 74.7878 36.9092 74.4944C36.3012 73.3997 35.9361 72.2136 35.7286 70.9764C35.685 70.7171 35.631 70.4599 35.5781 70.2027C35.5781 70.1931 35.5792 70.1846 35.5792 70.1761C35.5802 70.1676 35.5812 70.1602 35.5833 70.1527C35.603 70.0379 35.6933 69.9816 35.796 69.9487C36.1145 69.8445 36.3977 69.6723 36.681 69.4991C36.7774 69.4396 36.8739 69.3811 36.9714 69.3248C37.6313 69.2185 38.2911 69.1143 38.9509 69.0059C39.0858 68.9836 39.2196 68.9464 39.3535 68.9166C39.4479 68.94 39.5433 68.9411 39.6398 68.9411C39.7913 68.939 39.9417 68.9305 40.087 68.9878C40.2996 69.0261 40.5279 68.9623 40.724 69.0973C39.95 69.8679 39.7052 70.817 39.8743 71.882C39.978 72.543 40.2125 73.1382 40.919 73.3689Z" fill="#FB6391"/>
<path d="M36.7193 79.5939C36.4039 79.7363 36.1072 79.764 35.962 79.3548C35.8043 78.9158 35.6652 78.4705 35.4806 77.9114C35.4173 78.2441 35.3841 78.4439 35.3416 78.6427C35.271 78.969 35.0874 79.1996 34.745 79.1815C34.3995 79.1645 34.247 78.9041 34.1983 78.581C34.1775 78.4429 34.1837 78.3004 34.1786 78.1591C34.0624 77.7584 34.0644 77.3641 34.2149 76.9815H34.2159C34.2294 76.9432 34.245 76.906 34.2626 76.8688C34.4151 75.6784 33.9721 74.622 33.5581 73.5581C33.553 73.5496 33.5478 73.54 33.5436 73.5315C33.0747 72.7418 32.9409 71.8586 32.9077 70.9584C32.8942 70.5917 33.2002 70.4248 33.5 70.3153C33.8051 70.2048 34.1142 70.0847 34.4473 70.1995C34.4867 70.2207 34.5209 70.2452 34.5489 70.2718C34.5572 70.2792 34.5645 70.2866 34.5707 70.2941C34.6921 70.4227 34.7087 70.6034 34.7253 70.7862C34.9131 72.8077 35.5532 74.6687 36.6 76.3895C36.7037 76.5595 36.8926 76.7126 36.7712 76.957C36.5419 77.6425 36.712 78.259 37.0544 78.8606C37.2681 79.2379 37.0357 79.4515 36.7193 79.5939Z" fill="#81AEFE"/>
<path d="M34.1787 78.1591C33.5417 78.3887 32.8881 78.5428 32.2137 78.5566C31.9803 78.5608 31.8361 78.682 31.6711 78.8074C29.9105 80.1455 26.1456 80.1647 24.5894 77.9486C24.0322 77.1568 23.7241 76.2747 23.6826 75.2969C23.692 75.0854 23.7023 74.8749 23.72 74.5008C24.0447 75.7571 24.6578 76.6509 25.5169 77.3715C27.1229 78.7181 28.898 78.8903 30.7094 77.9635C31.4574 77.5809 32.1981 77.3885 32.997 77.2993C33.4483 77.2493 33.8612 77.0761 34.2627 76.8688C34.2627 76.8911 34.2627 76.9124 34.2637 76.9347C34.2658 77.346 34.2938 77.7573 34.1787 78.1591Z" fill="#E74688"/>
<path d="M38.0781 77.5618C37.7907 77.8317 37.4587 77.7627 37.105 77.3566C36.9908 77.2259 36.8829 77.0899 36.7719 76.957C35.8901 75.5764 35.224 74.099 34.8433 72.4888C34.6721 71.7672 34.6213 71.0296 34.502 70.3026C34.5175 70.292 34.5341 70.2813 34.5497 70.2718C34.8754 70.0634 35.2168 69.9933 35.584 70.1527C35.5975 70.158 35.611 70.1644 35.6245 70.1708C35.9316 70.4333 35.8434 70.8298 35.9046 71.1571C36.1806 72.6472 36.692 74.0289 37.5552 75.2671C37.8146 75.5477 38.0719 75.8315 38.3354 76.1089C38.711 76.5043 38.6145 77.0569 38.0781 77.5618Z" fill="#E74688"/>
<path d="M32.8196 63.7895C32.3092 63.882 31.8154 64.0191 31.3682 64.2997C31.3402 64.289 31.3153 64.2773 31.2956 64.2625C31.224 64.2125 31.2043 64.1381 31.2447 64.0339C31.0673 63.1539 30.8899 62.2739 30.7125 61.3938C30.6887 61.2737 30.6586 61.1536 30.6409 61.0314C30.5797 60.6254 30.7156 60.3204 31.1223 60.2237C31.5114 60.1323 31.7355 60.3661 31.8703 60.7136C32.2563 61.7159 32.5966 62.7341 32.8196 63.7895Z" fill="#81AEFE"/>
<path d="M31.3684 64.2997C31.3684 64.6982 31.3684 65.0957 31.3684 65.4943C31.3124 65.9003 31.2232 66.2829 31.0769 66.623C30.8144 67.2395 30.3662 67.7178 29.6037 67.9548C29.3796 68.0249 29.1316 68.1599 28.9075 67.9484C28.8992 67.942 28.892 67.9346 28.8837 67.9261C28.421 66.3977 28.8992 65.1255 29.89 63.9829C30.0716 63.7736 30.3071 63.6928 30.5405 63.5897H30.5415C30.8486 63.6173 31.0426 63.8331 31.246 64.034C31.275 64.0977 31.3051 64.1626 31.3352 64.2263C31.3466 64.2508 31.358 64.2752 31.3694 64.2997H31.3684Z" fill="#E74687"/>
<path d="M41.4022 72.9469C41.3192 73.1595 41.1771 73.3444 40.9198 73.3689C40.427 73.4369 40.1666 73.1563 39.9778 72.7354C39.5369 71.748 39.597 70.767 40.011 69.7956C40.149 69.4704 40.3554 69.1887 40.7248 69.0973C41.1263 69.142 41.3057 69.4481 41.4437 69.7733C41.895 70.834 41.8162 71.8968 41.4022 72.9469Z" fill="#E74688"/>
<path d="M36.0211 62.6384C35.9246 63.0636 35.8758 63.5004 35.8063 63.9319C35.3166 64.0573 34.8353 63.8596 34.3477 63.8947C34.3892 63.3516 34.5043 62.8223 34.6371 62.2962C34.7595 61.8115 35.1195 61.8573 35.4546 61.9455C35.7814 62.0316 36.1362 62.1283 36.0211 62.6384Z" fill="#E74788"/>
<path d="M42.458 63.1773C42.0399 63.5971 41.823 64.1275 41.6716 64.6929C41.5097 65.3009 41.0895 65.7164 40.659 66.1256C40.5812 66.199 40.4795 66.2765 40.3851 66.2096C40.2388 66.1075 40.3519 65.9747 40.4141 65.8907C40.9184 65.2094 41.0688 64.4346 41.0179 63.6014C41.4983 63.46 41.9786 63.3187 42.458 63.1773Z" fill="#E99335"/>
<path d="M40.087 68.9878C39.9044 68.9942 39.7187 69.0378 39.5403 68.9974C39.477 68.9836 39.4147 68.9581 39.3535 68.9166C39.4946 68.8816 39.6357 68.8465 39.7768 68.8125C39.8805 68.8709 39.9843 68.9294 40.087 68.9878Z" fill="#F9B7B9"/>
<path d="M28.8826 67.9261C29.9626 67.8974 30.751 67.3011 31.1193 66.233C31.2044 65.9875 31.2843 65.7398 31.3673 65.4943C31.3652 67.113 30.5166 68.6754 28.8099 69.0782C28.5568 69.1377 28.4084 69.2397 28.3597 69.5001C28.2881 69.8796 28.0744 70.1942 27.8275 70.5704C28.3441 70.5109 28.6989 70.2548 29.0828 70.0783C29.1689 70.039 29.2675 69.9359 29.3588 70.0496C29.4366 70.1463 29.3681 70.2494 29.3204 70.3419C29.1222 70.7203 28.7861 70.9243 28.423 71.1061C27.6023 71.5153 27.5152 72.3156 28.2134 72.9692C28.2891 73.0405 28.4032 73.0968 28.4364 73.1861C28.8525 74.2872 29.7686 74.0034 30.5705 73.98C30.8901 73.9704 31.2127 73.8556 31.5208 73.7494C32.385 73.4507 32.8395 72.1796 32.3767 71.4079C32.2388 71.1773 32.0863 71.3059 31.9337 71.3739C31.8404 71.4154 31.7397 71.4898 31.6484 71.4005C31.5291 71.2857 31.6256 71.1784 31.6879 71.0731C32.2004 70.2005 32.9608 69.701 33.9319 69.5501C34.7204 69.4268 35.3003 69.0187 35.7008 68.3225C35.7589 68.2215 35.7973 68.0483 35.9446 68.1078C36.1085 68.1737 36.0473 68.3586 36.0131 68.4809C35.9176 68.8146 35.8346 69.1536 35.6147 69.4714C36.1324 69.6266 36.5328 69.2791 36.9748 69.3237C36.6729 69.8519 36.1044 69.9359 35.6271 70.1708C35.2526 70.2144 34.8781 70.2579 34.5046 70.3015C34.4019 70.3015 34.2981 70.2909 34.1965 70.3015C33.0874 70.4121 32.9027 70.6597 33.1362 71.7693C33.2627 72.3687 33.4194 72.9618 33.5615 73.557C32.385 75.2458 30.696 75.4106 28.8836 75.2023C28.702 75.316 28.5309 75.316 28.3732 75.1555C27.8804 74.5008 27.4913 73.7568 26.8221 73.252C26.6562 73.067 26.5732 72.8651 26.6925 72.6196C26.5576 71.7821 26.5742 70.9552 26.7931 70.1283C26.8958 69.7403 27.1904 69.4778 27.3212 69.1164C27.3865 68.9368 27.4509 68.7561 27.5162 68.5755C27.4332 68.2757 27.4353 67.992 27.6583 67.7475C28.0578 67.8804 28.453 68.0324 28.8857 67.9239L28.8826 67.9261Z" fill="#E99234"/>
<path d="M35.1659 65.0479C35.1732 65.1818 35.0933 65.2594 35.0082 65.3136C34.4231 65.6856 34.1336 66.2904 33.8131 66.8728C33.561 67.3309 33.2062 67.6795 32.7268 67.8846C32.5961 67.9409 32.4447 67.9994 32.3502 67.8612C32.2486 67.7135 32.3731 67.5913 32.4789 67.5041C32.9706 67.1034 33.1979 66.5284 33.4728 65.9789C33.7425 65.4411 34.1482 65.05 34.7406 64.898C34.9169 64.8534 35.084 64.8353 35.1659 65.0468V65.0479Z" fill="#E99334"/>
<path d="M27.655 67.7486C27.6529 68.0323 27.628 68.3129 27.5129 68.5765C26.9028 68.1461 26.6445 67.5179 26.5511 66.7931C26.5366 66.6794 26.5179 66.5784 26.6279 66.5199C26.7638 66.4487 26.8115 66.572 26.852 66.6613C27.0429 67.0843 27.3873 67.3861 27.655 67.7486Z" fill="#E74687"/>
<path d="M28.3703 75.1566C28.5404 75.1714 28.7106 75.1874 28.8807 75.2023C28.8465 75.671 28.999 76.1694 28.6338 76.6945C28.557 76.1131 28.3526 75.6582 28.3713 75.1566H28.3703Z" fill="#E84787"/>
<path d="M26.6891 72.6206C26.7327 72.8311 26.7752 73.0426 26.8188 73.253C26.3893 73.1053 25.9608 72.9576 25.4805 72.7928C25.9027 72.5112 26.3073 72.6557 26.6891 72.6206Z" fill="#E84887"/>
<path d="M29.2821 66.1904C29.3278 65.6091 29.5373 65.0947 29.9461 64.6865C30.2999 64.3347 30.7118 64.475 30.8342 64.9618C30.9701 65.5039 30.6288 66.4445 30.1847 66.7729C29.9803 66.9249 29.7614 66.9302 29.5498 66.8292C29.2884 66.7049 29.2686 66.4519 29.2811 66.1904H29.2821Z" fill="#991758"/>
<path d="M41.3302 71.2443C41.3468 71.6226 41.3302 71.9765 41.1538 72.2912C40.9111 72.7259 40.5096 72.7227 40.2886 72.2773C39.9545 71.6014 40.0168 70.9158 40.3145 70.2473C40.3903 70.0773 40.5179 69.8849 40.7274 69.8976C40.9484 69.9104 41.0822 70.0858 41.1704 70.2909C41.3053 70.6034 41.3551 70.9297 41.3292 71.2453L41.3302 71.2443Z" fill="#991758"/>
</g>
<defs>
<clipPath id="clip0_349_2682">
<rect width="22.7797" height="21.1525" fill="white" transform="translate(53.6943 56.9492)"/>
</clipPath>
<clipPath id="clip1_349_2682">
<rect width="19.5254" height="27.0352" fill="white" transform="translate(19.5254 19.5252)"/>
</clipPath>
<clipPath id="clip2_349_2682">
<rect width="22.7797" height="21.1525" fill="white" transform="matrix(-1 0 0 1 76.4746 21.1525)"/>
</clipPath>
<clipPath id="clip3_349_2682">
<rect width="22.7797" height="19.5254" fill="white" transform="translate(22.7793 60.2035)"/>
</clipPath>
</defs>
</svg>
