<svg id="Layer_1" data-name="Layer 1" xmlns="http://www.w3.org/2000/svg" viewBox="0 0 600 598.92"><defs><style>.cls-1{fill:#df2926;}</style></defs><path class="cls-1" d="M1334.51,66.92c-43.17-43.17-118.42-43.17-161.6,0a28.72,28.72,0,0,0-4.31,5.51L1154.49,96A282.71,282.71,0,0,1,1134.11,125C1051.17,72.69,972.89,65,930.49,107.35,909,128.8,900.14,159.72,904,196.6c-82.06,36.32-136,116.83-136,208.29,0,126,102.54,228.57,228.57,228.57,91.6,0,172.23-54.11,208.46-136.43,5.37.55,10.88,1.49,16,1.49,29.8,0,54.86-9.26,73.11-27.54,42.4-42.4,34.66-120.69-17.68-203.66A278.81,278.81,0,0,1,1305.49,247L1329,232.83a27.78,27.78,0,0,0,5.48-4.28,114.25,114.25,0,0,0,0-161.63ZM996.57,576.32c-94.54,0-171.43-76.92-171.43-171.43a170.69,170.69,0,0,1,92.8-152.37c.17.43.43.88.6,1.31a318.59,318.59,0,0,0,14.89,32.4c.48.92,1,1.8,1.45,2.75,5.92,10.94,12.49,21.85,19.8,32.71.55.83,1.15,1.66,1.72,2.48,7.46,10.92,15.51,21.72,24.28,32.32.58.69,1.18,1.34,1.75,2,9,10.8,18.6,21.4,28.85,31.66s20.83,19.8,31.63,28.82c.69.58,1.35,1.2,2,1.75,10.6,8.77,21.43,16.82,32.34,24.31l2.49,1.71a380.52,380.52,0,0,0,32.71,19.78c.92.48,1.83,1,2.75,1.48a317.81,317.81,0,0,0,32.37,14.86c.46.17.91.46,1.34.63A170.78,170.78,0,0,1,996.57,576.32Zm257.14-145.74c-12.68,12.68-39.45,13.85-71.85,3.77-1.46-.46-2.86-.77-4.32-1.26a241.35,241.35,0,0,1-28-11.74c-1.57-.78-3.14-1.49-4.71-2.29A313.3,313.3,0,0,1,1117.11,403c-1.82-1.17-3.65-2.4-5.48-3.65-9.26-6.23-18.49-13-27.57-20.38-1.4-1.14-2.78-2.4-4.18-3.57-9.57-8-19.05-16.45-28.2-25.6s-17.62-18.62-25.62-28.2c-1.18-1.4-2.4-2.8-3.55-4.2-7.4-9.08-14.14-18.28-20.4-27.54q-1.85-2.74-3.65-5.48a316.22,316.22,0,0,1-16.09-27.72c-.8-1.57-1.51-3.14-2.26-4.71a237.49,237.49,0,0,1-11.74-28c-.49-1.43-.8-2.86-1.26-4.29-10.11-32.4-8.91-59.17,3.77-71.86,6.8-6.82,18.2-10.6,33.09-10.6,22.88,0,54,9,89.34,29.43-.66.57-1.34,1.06-2,1.6a280.78,280.78,0,0,1-22.71,17.26A282.22,282.22,0,0,1,1038.88,203a28.53,28.53,0,0,0-7.4,45.74L1152.68,370a29,29,0,0,0,10.66,6.49,33.06,33.06,0,0,0,3.46.68c2,.43,4,1.2,6.08,1.2a31,31,0,0,0,4.6-.37,28.56,28.56,0,0,0,21-15.43,281.72,281.72,0,0,1,17.6-29.74,277.59,277.59,0,0,1,17.2-22.66c.55-.66,1.06-1.34,1.6-2C1268.69,366.43,1271,413.26,1253.71,430.58Z" transform="translate(-768 -34.54)"/></svg>