<svg width="310" height="629" viewBox="0 0 310 629" fill="none" xmlns="http://www.w3.org/2000/svg">
<g clip-path="url(#clip0_29_211)">
<path d="M273.628 0.0434377C272.987 0.0434377 272.328 0 271.669 0H38.3581C37.6902 0 37.04 2.65042e-06 36.3897 0.0434377C26.5828 0.563168 17.3498 4.77659 10.5883 11.8178C3.82685 18.8589 0.0505266 28.1929 0.0354004 37.9014V591.099C0.0382849 600.624 3.66438 609.8 10.1939 616.806C16.7234 623.811 25.679 628.133 35.2824 628.913L36.3281 628.983C36.9872 628.983 37.6463 629.026 38.3229 629.026H271.669C272.328 629.026 272.987 629.026 273.637 628.983L274.692 628.913C284.302 628.148 293.27 623.836 299.813 616.835C306.357 609.834 309.996 600.656 310.009 591.125V37.9014C309.996 28.188 306.216 18.8492 299.449 11.8069C292.681 4.76462 283.441 0.55466 273.628 0.0434377ZM306.758 591.099C306.723 599.814 303.387 608.2 297.408 614.604C291.429 621.009 283.239 624.967 274.454 625.699C274.129 625.699 273.804 625.742 273.47 625.751C272.873 625.751 272.266 625.803 271.66 625.803H38.3493C37.7342 625.803 37.1191 625.803 36.5127 625.751C36.1876 625.751 35.8537 625.751 35.5549 625.699C26.7667 624.971 18.5733 621.015 12.5903 614.61C6.6074 608.205 3.26925 599.816 3.2341 591.099V37.9014C3.23019 29.021 6.6718 20.4773 12.8499 14.0305C19.0281 7.58373 27.472 3.72488 36.4423 3.24894H36.5478C37.1366 3.24894 37.7429 3.24894 38.3053 3.24894H271.669C272.275 3.24894 272.881 3.24894 273.426 3.24894H273.479C282.457 3.71213 290.912 7.56595 297.099 14.0146C303.285 20.4632 306.73 29.0141 306.722 37.9014L306.758 591.099Z" fill="black"/>
<path d="M306.749 38.1273V591.324C306.747 594.675 306.252 598.008 305.281 601.219C304.515 603.715 303.468 606.119 302.161 608.386C301.898 608.846 301.608 609.307 301.283 609.75C300.843 610.418 300.404 611.079 299.921 611.722C298.576 613.525 297.064 615.2 295.404 616.725C298.572 611.266 300.236 605.081 300.228 598.787V592.428C300.228 592.051 300.228 591.669 300.228 591.281V38.0665C300.228 37.6756 300.228 37.2846 300.228 36.9024V30.6565C300.244 24.3231 298.581 18.0961 295.404 12.5962C298.981 15.8429 301.836 19.7888 303.789 24.1838C305.742 28.5788 306.75 33.327 306.749 38.1273Z" fill="url(#paint0_linear_29_211)"/>
<path d="M273.347 6.44574H273.198C272.688 6.44574 272.169 6.44574 271.651 6.44574H38.3491C37.8218 6.44574 37.2857 6.44574 36.7673 6.44574H36.5389C28.4125 6.90274 20.7708 10.4159 15.181 16.2648C9.5912 22.1137 6.47677 29.855 6.47644 37.9014V591.099C6.50987 599.013 9.54088 606.627 14.972 612.442C20.4032 618.256 27.8406 621.848 35.8182 622.511H36.5915H36.6794C37.233 622.511 37.7867 622.554 38.3491 622.554H271.669C272.222 622.554 272.767 622.554 273.312 622.511H273.408C273.681 622.511 273.962 622.511 274.217 622.459C282.191 621.796 289.626 618.204 295.054 612.391C300.482 606.578 303.51 598.966 303.541 591.055V37.9014C303.545 29.8318 300.415 22.0688 294.796 16.2151C289.177 10.3615 281.499 6.86436 273.347 6.44574ZM295.026 591.081C295.016 596.887 292.803 602.477 288.825 606.748C284.846 611.018 279.392 613.658 273.54 614.145H273.198H272.837H271.651H38.3491H37.1364H36.8024H36.4861C30.6362 613.663 25.1817 611.03 21.1992 606.767C17.2167 602.503 14.9955 596.919 14.9741 591.116V37.9014C14.9764 32.0398 17.2312 26.3981 21.2821 22.1177C25.333 17.8374 30.8775 15.2382 36.7936 14.8461H37.0045H37.3209H38.3491H271.669H272.723H272.916C278.892 15.1597 284.518 17.7276 288.634 22.0203C292.751 26.3131 295.045 32.0035 295.043 37.9188L295.026 591.081Z" fill="black"/>
<path d="M234.321 14.8027V17.817C234.321 22.6945 232.361 27.3722 228.872 30.821C225.384 34.2699 220.652 36.2074 215.718 36.2074H94.2733C89.3455 36.1982 84.6227 34.2566 81.1415 30.8087C77.6603 27.3609 75.7051 22.6885 75.7051 17.817V14.8027H234.321Z" fill="black"/>
<path d="M234.321 14.8027V17.817C234.321 22.6945 232.361 27.3722 228.872 30.821C225.384 34.2699 220.652 36.2074 215.718 36.2074H94.2733C89.3455 36.1982 84.6227 34.2566 81.1415 30.8087C77.6603 27.3609 75.7051 22.6885 75.7051 17.817V14.8027H234.321Z" fill="black"/>
<path d="M300.272 592.428V598.804C300.28 605.098 298.616 611.283 295.448 616.743C289.697 622.039 282.306 625.259 274.472 625.881C274.147 625.881 273.813 625.933 273.487 625.942C272.89 625.942 272.275 625.986 271.669 625.986H38.3666C37.7515 625.986 37.1364 625.986 36.5301 625.942C36.2049 625.942 35.8709 625.942 35.5721 625.881C35.124 625.881 34.6935 625.803 34.2365 625.742C26.8899 624.884 20.0107 621.734 14.5962 616.751C11.4052 611.277 9.72638 605.07 9.72791 598.752V591.281C9.73803 595.372 10.6442 599.412 12.3841 603.123C14.1241 606.835 16.6565 610.129 19.8073 612.781C24.3703 616.676 30.0721 619.028 36.0819 619.496C36.284 619.496 36.4861 619.54 36.6882 619.54H36.864C37.3649 619.54 37.8658 619.54 38.3666 619.54H271.669C272.161 619.54 272.653 619.54 273.136 619.54H273.321C273.549 619.54 273.769 619.54 273.988 619.496C280.949 618.914 287.457 615.844 292.294 610.862C297.132 605.88 299.968 599.327 300.272 592.428Z" fill="url(#paint1_linear_29_211)"/>
<path d="M306.749 38.1273V38.0665C306.746 29.19 303.299 20.6526 297.12 14.2126C290.94 7.77254 282.498 3.92012 273.531 3.44873H273.479C272.89 3.44873 272.275 3.44873 271.669 3.44873H38.3666C37.7603 3.44873 37.1539 3.44873 36.5563 3.44873H36.4597C35.704 3.44873 34.9571 3.55298 34.2101 3.63985C26.8705 4.4957 19.9928 7.62457 14.5611 12.5788C11.3812 18.0779 9.71476 24.3049 9.72789 30.639V38.1012C9.72838 30.887 12.5156 23.9454 17.52 18.6947C22.5245 13.444 29.3684 10.2806 36.6531 9.85105H36.8024H37.0133H38.3666H271.669H272.89H273.189C280.305 10.2219 287.025 13.2051 292.033 18.2167C297.04 23.2282 299.976 29.9072 300.263 36.9458V30.6999C300.279 24.3665 298.616 18.1396 295.439 12.6396C299.004 15.8844 301.849 19.8247 303.796 24.2116C305.743 28.5986 306.748 33.3368 306.749 38.1273Z" fill="url(#paint2_linear_29_211)"/>
<path d="M14.5786 616.569C11.0141 613.325 8.16646 609.389 6.21418 605.006C4.2619 600.622 3.24724 595.888 3.23388 591.099V37.9014C3.22803 33.1049 4.23031 28.3595 6.17717 23.966C8.12403 19.5725 10.973 15.6268 14.5435 12.379C11.3617 17.8773 9.69515 24.1048 9.71034 30.4393V598.569C9.71045 604.887 11.3892 611.094 14.5786 616.569Z" fill="url(#paint3_linear_29_211)"/>
<path d="M306.749 38.1273V591.324C306.747 594.675 306.252 598.008 305.281 601.219C304.515 603.715 303.468 606.119 302.161 608.386C301.898 608.846 301.608 609.307 301.283 609.75C300.861 610.418 300.404 611.079 299.921 611.722C298.575 613.556 297.05 615.255 295.369 616.795V616.725C298.537 611.266 300.201 605.081 300.193 598.787V30.6565C300.209 24.3231 298.545 18.0961 295.369 12.5962C298.952 15.8398 301.814 19.7844 303.773 24.1795C305.732 28.5747 306.745 33.3244 306.749 38.1273Z" fill="url(#paint4_linear_29_211)"/>
<path d="M171.077 17.2871H136.955C136.096 17.2871 135.399 17.9755 135.399 18.8247V19.6153C135.399 20.4645 136.096 21.1529 136.955 21.1529H171.077C171.936 21.1529 172.632 20.4645 172.632 19.6153V18.8247C172.632 17.9755 171.936 17.2871 171.077 17.2871Z" fill="url(#paint5_linear_29_211)"/>
</g>
<defs>
<linearGradient id="paint0_linear_29_211" x1="295.448" y1="314.661" x2="306.749" y2="314.661" gradientUnits="userSpaceOnUse">
<stop stop-color="#F0F0F0"/>
<stop offset="0.14" stop-color="#B7B7B7"/>
<stop offset="0.27" stop-color="#888888"/>
<stop offset="0.4" stop-color="#636363"/>
<stop offset="0.51" stop-color="#494949"/>
<stop offset="0.62" stop-color="#393939"/>
<stop offset="0.7" stop-color="#333333"/>
</linearGradient>
<linearGradient id="paint1_linear_29_211" x1="9.72791" y1="608.62" x2="300.272" y2="608.62" gradientUnits="userSpaceOnUse">
<stop stop-color="#1A1A1A"/>
<stop offset="0.12" stop-color="#454545"/>
<stop offset="0.23" stop-color="#666666"/>
<stop offset="0.34" stop-color="#7E7E7E"/>
<stop offset="0.44" stop-color="#8D8D8D"/>
<stop offset="0.52" stop-color="#929292"/>
<stop offset="0.59" stop-color="#8B8B8B"/>
<stop offset="0.7" stop-color="#767676"/>
<stop offset="0.82" stop-color="#545454"/>
<stop offset="0.97" stop-color="#252525"/>
<stop offset="1" stop-color="#1A1A1A"/>
</linearGradient>
<linearGradient id="paint2_linear_29_211" x1="9.72789" y1="20.7446" x2="306.775" y2="20.7446" gradientUnits="userSpaceOnUse">
<stop stop-color="#1A1A1A"/>
<stop offset="0.12" stop-color="#454545"/>
<stop offset="0.23" stop-color="#666666"/>
<stop offset="0.34" stop-color="#7E7E7E"/>
<stop offset="0.44" stop-color="#8D8D8D"/>
<stop offset="0.52" stop-color="#929292"/>
<stop offset="0.59" stop-color="#8B8B8B"/>
<stop offset="0.7" stop-color="#767676"/>
<stop offset="0.82" stop-color="#545454"/>
<stop offset="0.97" stop-color="#252525"/>
<stop offset="1" stop-color="#1A1A1A"/>
</linearGradient>
<linearGradient id="paint3_linear_29_211" x1="3.23388" y1="314.47" x2="9.94756" y2="314.47" gradientUnits="userSpaceOnUse">
<stop stop-color="#C8C8C8"/>
<stop offset="0.21" stop-color="#A0A0A0"/>
<stop offset="0.59" stop-color="#5D5D5D"/>
<stop offset="0.86" stop-color="#343434"/>
<stop offset="1" stop-color="#242424"/>
</linearGradient>
<linearGradient id="paint4_linear_29_211" x1="295.413" y1="314.695" x2="306.749" y2="314.695" gradientUnits="userSpaceOnUse">
<stop stop-color="#242424"/>
<stop offset="0.14" stop-color="#343434"/>
<stop offset="0.41" stop-color="#5D5D5D"/>
<stop offset="0.79" stop-color="#A0A0A0"/>
<stop offset="1" stop-color="#C8C8C8"/>
</linearGradient>
<linearGradient id="paint5_linear_29_211" x1="135.399" y1="19.2243" x2="172.632" y2="19.2243" gradientUnits="userSpaceOnUse">
<stop stop-color="#333333"/>
<stop offset="0.09" stop-color="#2B2B2B"/>
<stop offset="0.29" stop-color="#1E1E1E"/>
<stop offset="0.48" stop-color="#1A1A1A"/>
<stop offset="0.79" stop-color="#1C1C1C"/>
<stop offset="0.9" stop-color="#232323"/>
<stop offset="0.98" stop-color="#2E2E2E"/>
<stop offset="1" stop-color="#333333"/>
</linearGradient>
<clipPath id="clip0_29_211">
<rect width="310" height="629" fill="white"/>
</clipPath>
</defs>
</svg>
