<svg width="240" height="240" viewBox="0 0 240 240" fill="none" xmlns="http://www.w3.org/2000/svg">
<path d="M191.66 109.96C191.74 116.13 188.72 119.88 183.69 119.87C178.84 119.86 175.92 116.42 175.68 110.44C174.66 84.94 154.7 64.91 129.32 63.94C123.08 63.7 119.52 60.58 119.75 55.57C119.97 50.58 123.67 47.84 130.01 47.96C162.89 48.58 191.26 77.11 191.66 109.96Z" fill="#F7F9FA"/>
<path d="M120.27 18.67C119.02 15.57 119.84 12.77 122.03 10.39C124.74 7.43999 128.35 7.89999 131.84 8.01999C181.83 9.30999 225.3 49.42 230.79 99.35C231.19 102.98 231.53 106.63 231.61 110.28C231.75 116.14 228.69 119.77 223.85 119.87C218.98 119.97 215.82 116.44 215.67 110.62C215.17 90.13 208.67 71.78 195.53 56.05C178.38 35.51 156.23 24.87 129.48 24.01C125.28 23.88 121.93 22.81 120.27 18.67Z" fill="#F7F9FA"/>
<path d="M235 196.19C220.7 213.18 203.8 226.99 184.59 238.04C182.57 239.2 180.42 240.12 177.95 239.79C162.76 238.14 148.29 233.77 134.75 226.88C75.32 196.65 31.36 151.83 6.37 89.41C3.46 82.16 1.92 74.5 0.440001 66.81C-0.599999 61.38 0.200001 56.69 3.06 52.08C13.31 35.59 25.39 20.63 39.79 7.58C41.27 6.24 42.94 5.13 44.49 3.87C53.54 -3.5 61.87 0.879998 66.25 6.9C77.98 23.03 89.19 39.55 96.97 58.06C101.28 68.32 100.2 72.68 92.1 80.16C88.43 83.55 84.65 86.82 80.77 89.95C78.9 91.46 78.64 92.76 79.51 95.04C91.58 126.26 113.19 147.88 144.37 160.04C146.82 160.99 148.25 160.71 149.85 158.65C152.5 155.23 155.4 152 158.28 148.77C166.89 139.12 171.28 138.13 183.22 143.29C193.31 147.66 202.71 153.32 211.95 159.22C218.54 163.42 225.08 167.72 231.41 172.29C238.5 177.41 243.56 186 235 196.19Z" fill="#F7F9FA"/>
<path d="M235 196.19C220.7 213.18 203.8 226.99 184.59 238.04C182.57 239.2 180.42 240.12 177.95 239.79C162.76 238.14 148.29 233.77 134.75 226.88C75.32 196.65 31.36 151.83 6.37 89.41C3.46 82.16 1.92 74.5 0.440001 66.81C-0.599999 61.38 0.200001 56.69 3.06 52.08C13.31 35.59 25.39 20.63 39.79 7.58C41.27 6.24 42.94 5.13 44.49 3.87C53.54 -3.5 61.87 0.879998 66.25 6.9C77.98 23.03 89.19 39.55 96.97 58.06C101.28 68.32 100.2 72.68 92.1 80.16C88.43 83.55 84.65 86.82 80.77 89.95C78.9 91.46 78.64 92.76 79.51 95.04C91.58 126.26 113.19 147.88 144.37 160.04C146.82 160.99 148.25 160.71 149.85 158.65C152.5 155.23 155.4 152 158.28 148.77C166.89 139.12 171.28 138.13 183.22 143.29C193.31 147.66 202.71 153.32 211.95 159.22C218.54 163.42 225.08 167.72 231.41 172.29C238.5 177.41 243.56 186 235 196.19Z" fill="#0B9D58"/>
<path d="M231.61 110.28C231.75 116.14 228.69 119.77 223.85 119.87C218.98 119.97 215.82 116.44 215.67 110.62C215.17 90.13 208.67 71.78 195.53 56.05C178.38 35.51 156.23 24.87 129.48 24.01C125.28 23.88 121.93 22.81 120.27 18.67C119.02 15.57 119.84 12.77 122.03 10.39C124.74 7.43999 128.35 7.89999 131.84 8.01999C181.83 9.30999 225.3 49.42 230.79 99.35C231.19 102.98 231.53 106.63 231.61 110.28Z" fill="#0B9D58"/>
<path d="M191.66 109.96C191.74 116.13 188.72 119.88 183.69 119.87C178.84 119.86 175.92 116.42 175.68 110.44C174.66 84.94 154.7 64.91 129.32 63.94C123.08 63.7 119.52 60.58 119.75 55.57C119.97 50.58 123.67 47.84 130.01 47.96C162.89 48.58 191.26 77.11 191.66 109.96Z" fill="#0B9D58"/>
<path d="M148.91 177.86C152.58 178 154.37 176.62 156.16 175.02C161.55 170.23 165.85 164.49 170.44 159C172.23 156.86 173.62 156.43 176.29 157.72C191.77 165.16 206.42 173.94 220.41 183.88C222.87 185.63 222.72 186.65 220.78 188.72C208.76 201.54 195.4 212.72 180.78 222.44C178.73 223.8 176.85 223.65 174.65 223.26C150.91 219 129.99 208.29 110.62 194.51C73.05 167.77 43.06 134.51 24.38 91.85C20.57 83.16 17.87 74.09 16.27 64.7C15.89 62.44 16.02 60.63 17.35 58.62C26.95 44.11 38.1 30.94 50.73 18.98C53.04 16.79 54.07 16.86 55.92 19.46C65.76 33.32 74.41 47.86 81.84 63.15C83.1 65.74 82.81 67.21 80.68 69.07C75.29 73.77 69.53 78.04 64.65 83.35C62 86.23 61.02 89.25 62.18 92.91C75.7 135.68 103.83 163.86 146.61 177.4C147.24 177.6 147.9 177.73 148.55 177.83C149.03 177.91 149.54 177.89 148.91 177.86Z" fill="#F7F9FA"/>
</svg>
