<svg width="155" height="101" viewBox="0 0 155 101" fill="none" xmlns="http://www.w3.org/2000/svg">
<path d="M110.684 31.3238C110.079 30.5506 109.278 29.2243 108.892 28.8384C108.507 28.4235 107.846 28.7554 107.487 28.783C107.129 28.8384 106.467 28.9213 106.165 28.6171C105.863 28.3128 105.725 28.2865 104.978 28.5064C104.236 28.7277 103.518 28.8937 103.49 28.4788C103.435 28.0639 103.352 27.9809 102.885 28.0639C102.415 28.1469 102.167 27.9532 102.167 27.4567C102.141 26.9601 102.277 26.158 102.415 25.855C102.553 25.5508 102.443 25.7997 101.811 25.3295C101.148 24.8606 100.791 24.8053 100.075 24.281C99.3585 23.7292 98.6409 23.5619 98.7789 23.1206C98.9156 22.6794 99.0825 22.1525 99.6896 22.1275C100.267 22.0998 100.625 22.1275 101.038 22.0722C101.452 22.0169 101.837 21.6849 102.306 21.1054C102.774 20.5535 103.519 19.3378 103.988 18.9519C104.484 18.5646 105.035 18.3434 105.752 18.3434C106.47 18.3434 106.496 18.371 107.185 18.6753C107.873 18.9782 107.764 18.7306 108.37 19.1718C108.976 19.6144 108.867 19.8633 109.335 20.4429C109.803 21.0224 110.188 21.1884 110.381 21.602C110.6 22.0169 110.655 22.4318 110.959 23.122C111.264 23.8108 111.014 24.0071 111.677 24.559C112.338 25.1108 112.89 25.3321 112.971 25.8563C113.054 26.3819 112.833 27.375 112.695 28.1205C112.557 28.8397 112.392 29.6682 112.06 30.2754C111.703 30.8562 111.013 31.74 110.683 31.3251L110.684 31.3238Z" fill="#F9EBE0"/>
<path d="M79.3478 70.5193C80.1469 70.6563 81.4979 70.796 82.4349 70.6853C83.3733 70.5747 86.1568 70.4654 87.0386 70.4654C87.9205 70.4654 90.3991 70.4377 91.5306 70.6577C92.6608 70.8789 93.4599 71.1832 94.2576 71.4585C95.0567 71.7351 95.4719 72.0117 96.2158 72.4806C96.9885 72.9508 98.0347 73.4737 99.0282 74.0006C99.9915 74.5248 100.13 74.8014 100.349 75.132C100.597 75.4652 100.349 75.7682 100.018 75.8512C99.6893 75.9341 99.4948 76.0724 99.0808 76.2107C98.6681 76.3214 98.6681 76.5413 97.7311 76.4873C96.794 76.432 96.6284 76.432 96.0765 76.349C95.7094 76.2937 95.4706 76.3859 95.3602 76.6256C95.196 76.9852 94.6703 77.2065 94.2852 77.2618C93.9001 77.3435 92.4663 77.2052 91.9157 77.0945C91.3361 76.9839 89.7932 76.6243 88.9666 76.735C88.1399 76.8733 86.3211 76.7903 84.861 76.8733C83.4272 76.9562 82.1878 76.9009 81.1115 76.735C80.0089 76.569 78.5212 75.9895 78.5212 75.9895C78.5212 75.9895 78.4384 75.3809 78.4936 74.2495C78.5751 73.0891 78.5488 70.3824 79.3465 70.5207L79.3478 70.5193Z" fill="#F9EBE0"/>
<path d="M102.361 25.855C101.92 25.6891 101.506 25.2755 100.706 24.7513C99.9071 24.2257 99.4392 24.0058 99.0542 23.5909C98.6678 23.2036 98.6678 22.79 99.0804 22.5148C99.522 22.2382 99.7152 21.9339 100.514 21.9892C101.312 22.0445 101.644 22.0445 101.893 21.548C102.168 21.0238 102.72 20.1676 103.463 20.6089C103.876 20.8578 104.318 21.7679 104.565 21.382C104.813 20.9948 105.862 20.3599 106.164 20.3046C106.466 20.2493 106.466 20.5535 105.695 21.299C104.923 22.0432 103.986 23.2326 103.876 23.5355C103.766 23.8398 103.988 23.7568 104.482 23.7015C105.006 23.6462 105.695 23.9504 105.724 24.4483C105.751 24.9449 105.531 25.1938 106.108 25.1109C106.713 25.0279 107.322 25.1109 107.459 25.6351C107.624 26.1593 107.707 26.4636 108.064 26.3819C108.396 26.2989 109.138 25.9117 109.359 26.4096C109.58 26.9338 109.497 27.1551 110.104 27.321C110.71 27.487 110.82 26.8508 111.316 27.1551C111.814 27.4857 112.639 28.2312 112.639 28.2312C112.639 28.2312 112.09 30.2754 111.593 30.8009C111.096 31.3251 111.125 31.6834 110.794 31.3528C110.464 31.0209 110.023 30.386 109.444 29.5575C108.865 28.729 108.865 28.2588 108.314 28.4801C107.79 28.7014 107.46 29.0596 106.826 28.949C106.193 28.8397 106.026 28.2035 105.725 28.3141C105.422 28.4248 103.767 28.729 103.767 28.729C103.767 28.729 103.327 28.3971 103.327 28.0929C103.327 27.7886 102.858 28.0929 102.609 28.0375C102.361 27.9822 102.085 27.7333 102.141 27.1551C102.278 26.5742 102.773 26.0223 102.361 25.8564V25.855Z" fill="#FBC8BA"/>
<path d="M62.9774 21.7389C62.8118 21.7389 62.6738 21.6006 62.6738 21.4347C62.6738 20.6615 63.5005 19.5854 64.1904 19.2522C64.3284 19.1692 64.5216 19.2245 64.6044 19.3905C64.6859 19.5564 64.632 19.7224 64.4664 19.8041C63.9696 20.0543 63.3086 20.9368 63.3086 21.4623C63.281 21.5993 63.1443 21.7389 62.9787 21.7389H62.9774Z" fill="#6E5A5C"/>
<path d="M73.9476 60.6026C73.8096 60.326 73.2576 58.0618 72.9829 57.3163C72.7635 56.7091 73.2313 56.6525 73.4521 56.2665C73.8648 55.5487 74.3616 54.6372 74.6375 53.5875C74.8018 52.9789 74.6375 51.9845 74.4181 51.156C74.1973 50.3275 73.8924 49.636 74.1408 49.6927C75.2434 49.9403 77.5853 50.4382 78.8273 49.9956C79.3227 49.802 80.8669 49.0841 82.0234 47.6485C82.8777 46.571 83.4297 44.8864 83.5124 43.8643C83.5952 42.8699 84.2287 46.1575 84.5612 47.5655C84.8096 48.5612 84.9739 49.9416 85.6625 52.4271C86.3525 54.8572 87.5655 58.3094 88.6116 61.0715C90.2925 65.5195 92.7448 70.0215 92.9656 70.8776C93.0484 71.2095 91.0377 70.8499 89.9613 70.6287C87.7022 70.2138 84.9463 70.7393 81.942 70.7393C81.2809 70.7393 81.2257 69.7172 80.5923 69.4683C80.0679 69.276 79.4896 69.2483 78.6906 69.2483C77.3948 69.2193 75.9058 69.2746 75.9058 68.9151C75.9058 68.6674 75.4379 66.265 74.9135 64.3854C74.5009 62.7271 74.4181 61.4574 73.9489 60.5999L73.9476 60.6026Z" fill="#0A9D57"/>
<path d="M75.7093 50.1616C76.0392 50.6029 76.1772 50.7701 76.2889 52.2058C76.3993 53.6152 75.3795 57.6206 74.6908 58.6427C74.0008 59.6635 73.809 59.6371 73.5054 58.8073C73.2018 57.9789 72.7615 57.4823 73.0651 56.9581C73.3963 56.4602 74.0008 55.5487 74.2229 54.8572C74.4424 54.1947 74.7723 53.5322 74.746 52.9237C74.7184 52.3441 74.7184 52.0399 74.5541 51.3497C74.3885 50.6582 73.9207 49.4714 74.3609 49.665C74.8577 49.8587 75.3808 49.748 75.7106 50.1616H75.7093Z" fill="#167C4B"/>
<path d="M77.832 64.8293C77.832 64.3867 78.1908 64.0008 78.6587 64.0008C79.1003 64.0008 79.4853 64.3591 79.4853 64.8293C79.4853 65.2705 79.1265 65.6578 78.6587 65.6578C78.2184 65.6578 77.832 65.2705 77.832 64.8293Z" fill="#167C4B"/>
<path d="M80.0908 64.4421C80.0908 64.0008 80.4496 63.6136 80.9188 63.6136C81.388 63.6136 81.7441 63.9718 81.7441 64.4421C81.7441 64.8833 81.3853 65.2706 80.9188 65.2706C80.4522 65.2706 80.0908 64.8833 80.0908 64.4421Z" fill="#167C4B"/>
<path d="M52.2295 63.8072C52.5055 61.0175 52.5055 58.5861 52.725 55.7964C52.9182 53.2832 52.9734 51.322 54.1864 49.3608C55.18 47.7855 60.7194 46.1562 61.8483 45.9072C65.8172 45.1064 71.3277 51.1007 73.0099 57.2044C73.6158 59.3882 74.9116 63.7782 75.0759 64.3591C75.6003 66.2097 75.7093 69.193 76.1509 69.2497C77.2246 69.359 79.4312 69.3866 80.2289 69.2207C80.9189 69.0824 81.7994 70.7117 80.9741 70.767C80.6981 70.7947 79.4312 70.1045 79.0185 71.0159C78.2195 72.6729 78.6873 76.3741 78.4666 76.2911C78.163 76.1805 76.9789 76.1528 75.4347 76.1528C73.2557 76.1805 70.3631 76.4017 67.8832 76.5124C65.4834 76.6217 63.4727 76.6217 62.9207 76.6217C61.7905 76.6217 60.1372 76.3741 58.5667 76.2358C56.6913 76.0698 54.9 75.9039 53.8539 74.7988C51.3464 72.0367 51.9522 66.6233 52.2282 63.8059L52.2295 63.8072Z" fill="#F3F3F3"/>
<path d="M86.6513 55.8517C85.8247 53.0896 84.5841 48.4216 83.8665 45.1354C83.5367 43.6431 83.2883 42.4826 83.3987 41.6265C83.4539 41.2129 83.6181 40.9916 83.8941 40.5781C84.1162 40.2461 84.2529 39.9142 84.638 39.9142C86.5409 39.9142 92.6599 39.1951 94.8639 39.4717C95.4973 39.5546 99.9341 40.2448 104.178 40.5491C108.312 40.8533 112.831 39.1687 113.465 39.0028C114.099 38.8368 112.777 36.6003 111.564 35.054C110.323 33.48 109.193 32.6238 110.984 31.4898C111.507 31.1592 112.28 29.6115 112.637 28.0652C112.886 26.9878 112.913 25.801 112.72 25.5521C112.252 24.9436 112.088 24.3087 112.61 24.5023C113.381 24.7789 113.795 25.1109 114.869 26.7402C116.083 28.6184 119.14 31.794 120.63 34.4454C121.897 36.7386 123.413 38.9764 123.938 40.6597C124.461 42.4286 123.938 43.5877 123.744 43.892C122.917 45.2184 121.704 45.9362 117.681 47.3179C113.962 48.5889 108.753 49.8863 104.923 50.8808C101.173 51.8752 98.8039 52.5667 98.8039 52.676C98.8039 53.9194 99.4111 54.8875 99.7146 57.2346C100.127 60.5762 100.514 64.3051 100.928 67.785C101.34 71.3202 101.836 74.5788 101.836 74.7171C101.892 75.0477 100.678 74.9107 100.348 74.9107C100.265 74.9107 98.3912 73.8069 96.9325 73.0048C95.086 72.0117 93.5142 71.2925 93.2106 70.9329C92.9911 70.5747 88.553 62.0672 86.6527 55.8517H86.6513Z" fill="#F3F3F3"/>
<path d="M73.6699 59.5542C73.3953 60.3537 73.2573 62.5375 73.7527 63.0064C74.2219 63.449 73.8355 64.0008 73.2559 63.8349C72.6777 63.6689 72.1546 64.5251 71.5751 62.5638C70.9955 60.6303 71.1059 58.8916 71.6027 57.8129C72.0981 56.7355 72.5949 55.907 72.8696 56.7908C73.0904 57.6759 73.8066 59.1669 73.6686 59.5542H73.6699Z" fill="#E0E0E0"/>
<path d="M62.9513 57.5929C63.2273 58.3384 69.2083 68.7518 69.2083 68.7518C69.2083 68.7518 66.9478 68.6135 65.8189 68.3935C64.6887 68.1722 62.2902 67.7033 62.2902 67.7033C62.2902 67.7033 62.0142 66.24 62.1535 64.6923C62.2902 63.146 62.3178 61.1584 62.4834 59.9967C62.5938 58.8363 62.6753 56.8487 62.9513 57.5942V57.5929Z" fill="#E0E0E0"/>
<path d="M61.3239 46.3511C61.6551 46.9306 62.6197 47.7038 63.75 48.3387C64.3558 48.6693 63.3912 49.3884 64.1626 50.4659C64.9065 51.5156 67.2221 55.2734 67.2221 55.2734C67.2221 55.2734 67.9384 54.7479 67.5257 54.1407C67.113 53.5335 66.2588 52.3994 65.762 51.4616C65.2653 50.4948 64.3295 49.831 64.6055 49.2791C64.8802 48.7272 65.0182 48.4783 64.4938 47.9527C63.9983 47.4285 63.336 46.932 62.7853 46.3788C62.261 45.7716 60.9927 45.7716 61.3239 46.3524V46.3511Z" fill="#E0E0E0"/>
<path d="M79.4317 70.1598C79.6788 69.7989 80.0915 69.3866 80.562 69.5789C81.0298 69.7725 81.4977 70.7393 81.4977 70.7393C81.4977 70.7393 79.0729 70.684 79.4317 70.1598Z" fill="#E0E0E0"/>
<path d="M84.5018 46.2128C85.356 45.7426 86.6794 45.3567 87.0658 44.4452C87.4509 43.5337 88.2788 39.8312 88.2788 39.8312L84.4203 39.9695L83.1797 41.6818C83.1797 41.6542 84.118 46.4328 84.5018 46.2128Z" fill="#E0E0E0"/>
<path d="M82.5433 46.82L83.5907 43.7814L84.2242 46.2945L82.542 46.82H82.5433Z" fill="#167C4B"/>
<path d="M87.9472 41.1299C88.0852 41.5159 88.3888 42.0414 88.306 42.7592C88.1943 43.5047 88.4978 44.0026 89.105 44.1133C89.7096 44.2226 90.5375 45.0524 90.5375 45.9902C90.5375 46.4327 90.1524 51.4313 90.4284 56.4048C90.732 61.9843 91.6953 67.6177 91.6953 67.6177L90.5651 65.6565C90.5651 65.6565 89.9303 61.7617 89.8213 60.7396C89.6833 59.6911 89.3258 55.1061 89.3258 53.8061C89.3258 52.5061 89.2969 48.8062 89.3258 47.8131C89.3521 46.82 89.5729 45.7689 89.2969 45.383C89.0209 44.9957 88.4978 44.9391 88.0576 44.7481C87.616 44.5822 86.9826 44.8311 87.1481 44.2226C87.3137 43.6154 87.5897 43.0912 87.5069 42.6209C87.4241 42.1797 87.0391 42.0967 87.0391 41.7095C87.0391 41.2959 87.7829 40.744 87.9485 41.1299H87.9472Z" fill="#E0E0E0"/>
<path d="M111.62 39.6929C111.62 39.6929 113.66 42.8422 115.561 43.0635C116.443 43.1728 115.092 42.7869 114.569 41.6542C114.074 40.5214 113.523 39.0581 113.523 39.0581C113.523 39.0581 113.109 39.3347 112.724 39.3887C112.365 39.444 111.623 39.6929 111.623 39.6929H111.62Z" fill="#E0E0E0"/>
<path d="M91.9981 40.744C92.1071 40.3028 92.5224 40.0249 92.9627 40.1355C93.4043 40.2461 93.6802 40.6597 93.5685 41.1023C93.4595 41.5448 93.0455 41.8214 92.6039 41.7095C92.1623 41.6265 91.8877 41.1853 91.9981 40.744Z" fill="white"/>
<path d="M94.2568 40.8533C94.3685 40.4108 94.7812 40.1342 95.2228 40.2448C95.663 40.3555 95.939 40.7704 95.8286 41.2129C95.7182 41.6542 95.3043 41.9308 94.864 41.8201C94.4513 41.7095 94.174 41.2959 94.2568 40.8533Z" fill="white"/>
<path d="M94.5332 65.7395C94.5608 65.2982 94.9196 64.9387 95.3874 64.9387C95.829 64.9676 96.1865 65.3259 96.1865 65.7961C96.1589 66.2374 95.8014 66.5969 95.3322 66.5969C94.8644 66.5693 94.5332 66.1834 94.5332 65.7408V65.7395Z" fill="#E0E0E0"/>
<path d="M96.7935 65.4088C96.8211 64.9676 97.1785 64.6067 97.6477 64.6067C98.1169 64.6067 98.4468 64.9939 98.4468 65.4642C98.4192 65.9067 98.0617 66.265 97.5938 66.265C97.1247 66.2373 96.7659 65.8501 96.7935 65.4088Z" fill="#E0E0E0"/>
<path d="M56.7217 49.8587C56.6389 49.4174 56.9149 48.9749 57.3551 48.8919C57.7967 48.8089 58.2383 49.0842 58.3198 49.5268C58.4026 49.9693 58.1266 50.4106 57.6863 50.4935C57.246 50.5752 56.8045 50.2986 56.7217 49.8574V49.8587Z" fill="white"/>
<path d="M58.8442 49.0025C58.7601 48.5613 59.036 48.12 59.4776 48.0344C59.9179 47.9514 60.3595 48.228 60.4422 48.6693C60.525 49.1118 60.2491 49.5544 59.8075 49.6374C59.3672 49.7204 58.927 49.4438 58.8442 49.0025Z" fill="white"/>
<path d="M60.3882 26.158C60.3882 23.176 62.2071 19.3642 65.3481 17.0434C67.4705 15.4694 69.7849 15.0558 72.3489 15.1928C74.7999 15.3311 77.6399 16.1609 79.5679 16.9604C84.1164 18.8386 87.423 21.9602 87.423 25.4678C87.423 26.3226 86.7895 28.0902 86.185 29.086C83.207 33.9739 74.1665 38.4772 68.9595 39.1674C68.242 39.2767 66.8647 38.8355 67.1407 39.664C67.4167 40.4925 67.6085 41.6252 68.5469 43.0332C68.6297 43.1702 69.5378 44.3043 70.3657 45.1604C71.9638 46.8187 73.9746 48.8892 74.4175 50.4922C74.8577 52.2045 74.8012 53.2819 74.3886 54.6899C74.1967 55.3538 72.0453 57.9499 71.6051 59.7728C70.9716 62.4532 72.872 63.1987 72.4869 63.4187C72.2937 63.5293 70.0057 63.8612 68.8767 62.0936C68.1881 61.0175 67.5822 59.6082 67.2773 58.5584C67.1946 58.3095 67.1945 56.9014 67.4153 55.5487C67.6348 54.167 68.0488 52.7854 67.2497 51.0744C66.3403 49.1685 64.687 48.2017 63.1165 46.8477C61.7379 45.6596 60.4158 43.975 60.3606 43.892C60.1674 43.6154 59.0096 41.3789 59.5603 38.0636C60.1674 34.3914 62.1243 33.617 61.96 33.2587C60.8298 30.8839 60.3895 28.3971 60.3895 26.1593L60.3882 26.158Z" fill="#4A3E3E"/>
<path d="M61.5192 33.9199C61.5192 33.6986 61.3247 34.7761 61.3247 34.9973C61.3247 35.7428 61.2419 36.516 61.4351 37.2352C62.0409 39.61 63.392 41.9031 65.7063 42.9529C66.4239 43.2835 67.3044 43.892 68.1323 43.892C68.2703 43.892 68.7382 44.0026 68.8486 43.8643C69.0142 43.5877 68.3531 43.0359 68.2979 42.7882C68.1047 41.9598 67.6356 41.1576 67.4161 40.3028C67.3596 40.0815 67.1125 39.6113 67.2229 39.39C67.3609 39.1134 68.7395 39.39 69.1246 39.0028C69.9249 38.2019 69.1246 36.7663 69.7593 35.9365C70.0905 35.4952 70.8896 36.3777 71.3574 36.0748C71.4402 36.0194 71.109 35.5229 71.0538 35.4122C70.9172 35.054 70.9172 34.7221 70.9172 34.3348C70.9172 34.0042 71.6058 32.7885 71.4665 32.5949C71.247 32.2629 62.5114 31.1302 60.7188 28.5341C60.0578 27.595 60.9659 31.4068 61.4627 32.1536C62.2078 33.2574 61.5192 34.0872 61.5192 33.9199Z" fill="#3F3033"/>
<path d="M82.434 22.873C82.7665 21.2148 85.7419 21.299 86.7052 22.5964C87.6988 23.9215 87.5318 26.5189 86.8432 27.9269C86.6513 28.3418 86.0428 29.8881 85.437 29.8881C85.4094 29.8881 85.3542 28.3682 85.3266 28.2588C85.0782 27.292 84.6931 26.4912 84.2805 25.5798C83.8113 24.5577 82.2132 23.9215 82.4327 22.873H82.434Z" fill="#3F3033"/>
<path d="M67.4986 59.5541C67.0583 57.5653 66.8376 55.687 68.2162 53.9747C69.6198 52.2071 72.101 52.3994 72.624 54.7479C73.1208 57.0397 71.687 58.4767 71.411 60.6303C71.3295 61.3481 71.6042 62.2042 72.2377 62.5915C72.4322 62.7021 72.9552 63.0327 72.7634 63.3093C72.4598 63.6966 71.2192 63.6412 70.8052 63.5583C69.2899 63.3093 67.8285 61.0175 67.4986 59.5528V59.5541Z" fill="#3F3033"/>
<path d="M70.6392 33.7553C70.8876 32.9821 71.7405 32.1246 72.734 31.5451C73.5055 31.0762 74.1954 30.6903 74.4162 30.6336C75.3796 30.357 76.4822 30.3294 77.6124 29.6115C78.9621 28.7567 80.3118 27.7609 81.2226 26.3239C81.8836 25.2478 82.2976 23.6449 82.4908 23.0653C82.7392 22.2922 84.5856 24.7776 85.0811 26.3529C85.6607 28.2865 85.0259 29.3349 85.3571 32.0153C85.5227 33.4233 85.6607 34.5284 85.6607 35.4122C85.6607 36.6819 85.3295 38.2559 84.696 39.5546C84.3386 40.2725 83.621 40.3831 83.4554 41.6265C83.3739 42.1784 83.759 43.6154 83.5934 44.1673C83.2346 45.3 82.6564 47.0123 81.7193 48.0897C80.4524 49.5531 78.715 50.2446 77.916 50.2709C76.8962 50.3262 74.6081 50.022 73.9208 49.3595C73.562 49.0275 72.763 47.9238 71.9074 46.9846C70.7785 45.7689 69.5379 44.6652 69.2356 43.9183C68.8492 42.9792 69.484 42.6473 69.5379 41.9848C69.6745 40.5201 69.7297 39.1687 69.1791 38.6142C68.7664 38.2006 67.3326 38.007 66.644 37.2615C65.7621 36.3224 65.6806 34.8037 65.653 34.3058C65.6254 33.588 66.4245 33.0084 67.2787 33.1731C67.9398 33.2837 68.6021 33.7803 68.8492 34.1399C70.1174 35.9628 71.7707 36.5423 71.1635 35.9904C70.5301 35.4109 70.3093 34.7471 70.6405 33.7526L70.6392 33.7553Z" fill="#F9EBE0"/>
<path d="M82.3789 24.0598L85.1361 29.0333V26.2712L83.8679 23.8688L82.601 22.8743L82.3802 24.0611L82.3789 24.0598Z" fill="#FBC8BA"/>
<path d="M74.8848 41.1853C74.8848 41.1576 76.2069 41.9584 77.1163 42.2614C78.0257 42.5656 80.0654 42.8686 80.6437 42.8962C81.2232 42.9252 81.8856 42.6196 82.3797 42.289C82.8765 41.9584 83.3181 41.2129 83.3733 41.7648C83.4285 42.3167 83.6493 43.6154 83.4824 44.0026C83.3444 44.3899 83.234 45.7702 82.7661 46.3774C82.2969 46.986 81.3047 45.9639 81.1115 45.549C80.9196 45.1354 80.6161 45.4107 79.1836 44.6665C76.0952 43.0635 74.8848 41.6002 74.8848 41.1853Z" fill="#FBC8BA"/>
<path d="M77.3086 35.1909C77.3086 34.722 77.9407 34.3625 78.7135 34.3625C79.4863 34.3625 80.1197 34.722 80.1197 35.1909C80.1197 35.6598 79.4863 36.0194 78.7135 36.0194C77.9407 36.0194 77.3086 35.6612 77.3086 35.1909Z" fill="#FEACA9"/>
<path d="M82.5996 33.7276C82.5996 33.2587 83.2331 32.8991 84.0045 32.8991C84.776 32.8991 85.4107 33.2574 85.4107 33.7276C85.4107 34.1978 84.7773 34.5561 84.0045 34.5561C83.2331 34.5824 82.5996 34.1965 82.5996 33.7276Z" fill="#FEACA9"/>
<path d="M82.2427 34.1965C82.2427 34.0306 82.2151 33.5617 82.2979 33.1468C82.4346 32.4289 82.6291 31.7664 82.6554 32.0417C82.7934 33.4234 83.62 33.6986 83.62 34.1675C83.62 34.6364 83.344 35.1067 82.9037 35.1067C82.4635 35.1067 82.2427 34.6378 82.2427 34.1952V34.1965Z" fill="#FEACA9"/>
<path d="M70.8312 29.9698C70.6946 29.9698 70.5566 29.8605 70.5277 29.7209C70.5001 29.5549 70.6105 29.3902 70.776 29.3626C71.3004 29.2519 72.043 28.6711 72.2913 28.1758C72.3741 28.0362 72.5397 27.9532 72.704 28.0362C72.842 28.1192 72.9248 28.2865 72.842 28.4511C72.5095 29.1136 71.6014 29.8038 70.8851 29.9434C70.8659 29.961 70.847 29.9698 70.8286 29.9698H70.8312Z" fill="#3F3033"/>
<path d="M71.6314 30.7996C71.5197 30.7996 71.4107 30.743 71.3555 30.6336C71.2727 30.4953 71.3279 30.3017 71.4921 30.2201C72.2649 29.8328 72.7617 29.3349 73.0639 28.6724C73.1191 28.5078 73.311 28.4524 73.4766 28.5078C73.6409 28.5631 73.6974 28.7567 73.6409 28.9227C73.2821 29.7512 72.7038 30.3307 71.7944 30.7733C71.7129 30.8009 71.684 30.8009 71.6301 30.8009L71.6314 30.7996Z" fill="#3F3033"/>
<path d="M71.632 50.1616C71.494 50.1616 71.356 50.0509 71.3297 49.9126C71.1917 49.2501 70.8053 48.8076 70.2547 48.2557C70.143 48.145 70.143 47.9514 70.2547 47.8131C70.3651 47.7025 70.5583 47.7025 70.6949 47.8131C71.218 48.3373 71.7411 48.8629 71.9356 49.7743C71.9632 49.9403 71.8528 50.1049 71.6872 50.1339C71.6688 50.1524 71.6504 50.1616 71.632 50.1616Z" fill="#3F3033"/>
<path d="M63.6938 22.2922C63.6662 22.2922 63.6124 22.2922 63.5861 22.2645C63.4192 22.2092 63.3364 22.0432 63.4192 21.8773C63.7517 21.0224 64.2458 20.2479 64.9069 19.5854C65.0186 19.4748 65.2105 19.4748 65.3484 19.5854C65.4588 19.6961 65.4588 19.8897 65.3484 20.0267C64.7426 20.6352 64.3023 21.324 63.9987 22.0985C63.9422 22.2092 63.8332 22.2922 63.6938 22.2922Z" fill="#6E5A5C"/>
<path d="M72.8984 49.748C72.7893 49.748 72.7052 49.6927 72.6513 49.6097C72.512 49.3884 72.4029 49.1948 72.3477 49.0842C72.2006 48.8269 72.0253 48.5968 71.8221 48.394C71.6841 48.257 71.4909 48.0634 71.2162 47.7328C71.1071 47.6221 71.1071 47.4285 71.2451 47.2902C71.3555 47.1796 71.5474 47.1796 71.6854 47.3179C71.9614 47.6221 72.1546 47.8144 72.2912 47.9527C72.6224 48.286 72.65 48.311 72.8971 48.7549C72.9799 48.8932 73.0627 49.0591 73.2007 49.2804C73.2822 49.4187 73.2283 49.6123 73.0903 49.6953C73.0075 49.7216 72.9523 49.7506 72.8971 49.7506L72.8984 49.748Z" fill="#6E5A5C"/>
<path d="M68.9305 43.4771C68.6269 43.0635 68.1577 42.4273 67.937 41.7925C67.7451 41.1576 67.2207 41.0193 67.7451 40.2462C68.2694 39.5007 69.012 38.8921 69.2065 39.4453C69.3984 39.9972 69.6743 40.4938 69.6191 41.2406C69.5377 41.9584 69.2341 43.8644 68.9318 43.4784L68.9305 43.4771Z" fill="#E0E0E0"/>
<path d="M62.7852 77.9494H100.458L125.952 85.6283H88.2783L62.7865 77.9494H62.7852Z" fill="white"/>
<path opacity="0.2" d="M100.706 23.093L98.5576 17.7349C98.5576 17.7349 98.668 17.4306 99.2187 17.1C99.7706 16.7681 100.459 16.6311 100.956 16.4915C101.452 16.3545 101.59 16.3255 101.893 16.9064C102.168 17.4859 103.105 19.9727 103.105 19.9727C103.105 19.9727 102.416 20.8301 102.168 21.2147C101.921 21.602 101.066 23.3696 101.038 23.6449C101.01 23.9215 100.792 24.5577 101.149 24.7513C101.479 24.9436 101.729 25.1109 102.031 24.9172C102.362 24.7236 103.355 23.8398 103.244 24.1717C103.134 24.5023 102.831 25.3045 102.665 25.7181C102.5 26.133 102.279 26.9061 102.279 27.3487C102.307 27.7899 102.197 28.1218 102.583 28.0665C102.968 28.0125 103.437 27.5686 103.437 27.9835C103.465 28.3971 103.161 28.7027 103.658 28.7304C104.154 28.7304 104.621 28.7304 105.146 28.5367C105.67 28.3168 106.055 28.0678 106.139 28.3984C106.221 28.7304 106.276 29.007 106.689 28.9793C107.103 28.9516 107.653 28.8423 108.04 28.675C108.425 28.5104 108.728 28.2615 109.032 28.7593C109.336 29.2559 112.449 34.3098 112.449 34.3098C112.449 34.3098 111.788 35.1672 111.457 35.4425C111.127 35.7191 109.251 36.7136 108.701 36.9348C108.121 37.1548 106.468 37.9003 105.725 38.0663C104.979 38.2335 103.822 38.4812 103.105 38.4812C102.387 38.4812 101.563 38.4812 101.424 38.2335C101.312 38.0123 101.232 37.1285 101.176 36.2433C101.148 35.3042 100.706 23.0956 100.706 23.0956V23.093Z" fill="#ABDAF5"/>
<path opacity="0.8" d="M101.285 38.1743L101.064 30.274C101.064 30.274 101.919 29.9434 102.469 29.8604C103.023 29.7775 104.428 29.6392 105.446 29.5562C106.466 29.5009 107.321 29.4455 108.119 29.5562C108.891 29.6668 109.663 29.9158 109.663 29.9158L112.473 34.1688C112.473 34.1688 112.309 34.8327 111.757 35.1909C111.205 35.5505 109.085 36.6543 108.368 36.9862C107.65 37.3181 105.888 37.9253 105.17 38.0623C104.454 38.2006 102.966 38.4219 102.635 38.3942C102.276 38.3942 101.285 38.1729 101.285 38.1729V38.1743Z" fill="#0A9D57"/>
<path opacity="0.2" d="M17.5039 81.5939L17.5315 59.2209C17.5315 59.2209 18.0007 58.9179 18.6328 58.8903C19.2676 58.8613 20.3965 58.9456 20.6738 59.1102C20.9498 59.2762 20.8946 59.6081 20.8946 60.16C20.9222 60.7132 20.867 81.6769 20.867 81.6769C20.867 81.6769 20.6751 82.3117 20.2611 82.5053C19.8485 82.6713 19.3793 82.9202 18.8838 82.8096C17.8364 82.616 17.5052 81.5939 17.5052 81.5939H17.5039Z" fill="#ABDAF5"/>
<path opacity="0.2" d="M22.9336 81.5939L22.9612 59.2209C22.9612 59.2209 23.4304 58.9179 24.0638 58.8903C24.6973 58.8613 25.8275 58.9456 26.1035 59.1102C26.3808 59.2762 26.3243 59.6081 26.3243 60.16C26.3519 60.7132 26.2967 81.6769 26.2967 81.6769C26.2967 81.6769 26.1035 82.3117 25.6908 82.5053C25.2768 82.6713 24.809 82.9202 24.3135 82.8096C23.2661 82.5883 22.9349 81.5939 22.9349 81.5939H22.9336Z" fill="#ABDAF5"/>
<path opacity="0.2" d="M28.4736 81.5939L28.4999 59.2209C28.4999 59.2209 28.9691 58.9179 29.6025 58.8903C30.236 58.8613 31.3662 58.9456 31.6422 59.1102C31.9169 59.2762 31.863 59.6081 31.863 60.16C31.8906 60.7132 31.8354 81.6769 31.8354 81.6769C31.8354 81.6769 31.6435 82.3117 31.2295 82.5053C30.8156 82.6713 30.3464 82.9202 29.8522 82.8096C28.8035 82.616 28.4749 81.5939 28.4749 81.5939H28.4736Z" fill="#ABDAF5"/>
<path opacity="0.2" d="M33.9014 81.5939L33.929 59.2209C33.929 59.2209 34.3981 58.9179 35.0316 58.8903C35.6664 58.8613 36.7953 58.9456 37.0713 59.1102C37.3486 59.2762 37.2934 59.6081 37.2934 60.16C37.3196 60.7132 37.2658 81.6769 37.2658 81.6769C37.2658 81.6769 37.0726 82.3117 36.6586 82.5053C36.2459 82.6713 35.7768 82.9202 35.2813 82.8096C34.2339 82.5883 33.9027 81.5939 33.9027 81.5939H33.9014Z" fill="#ABDAF5"/>
<path opacity="0.2" d="M39.332 81.5939L39.3596 59.2209C39.3596 59.2209 39.8288 58.9179 40.4609 58.8903C41.0957 58.8613 42.2259 58.9456 42.5019 59.1102C42.7779 59.2762 42.7214 59.6081 42.7214 60.16C42.749 60.7132 42.6938 81.6769 42.6938 81.6769C42.6938 81.6769 42.5019 82.3117 42.0879 82.5053C41.6753 82.6713 41.2061 82.9202 40.7106 82.8096C39.6632 82.616 39.3333 81.5939 39.3333 81.5939H39.332Z" fill="#ABDAF5"/>
<path opacity="0.8" d="M18.1387 81.4556V68.2262C18.1387 68.2262 18.4147 68.0326 18.7997 68.0326C19.1848 68.0326 19.8734 68.0602 20.0403 68.1419C20.2059 68.2525 20.1783 68.4462 20.1783 68.7504V81.4833C20.1783 81.4833 20.0666 81.8705 19.8196 81.9522C19.5712 82.0628 19.2952 82.2024 18.9929 82.1458C18.3581 82.0351 18.1387 81.4543 18.1387 81.4543V81.4556Z" fill="#DF2925"/>
<path opacity="0.8" d="M23.7051 81.6782V71.9827C23.7051 71.9827 23.9797 71.8444 24.3661 71.8444C24.7525 71.8444 25.4412 71.8721 25.6067 71.9274C25.7723 72.0104 25.7447 72.1487 25.7447 72.3686V81.7059C25.7447 81.7059 25.6343 81.9825 25.386 82.0641C25.1376 82.1471 24.8629 82.2301 24.5593 82.2037C23.8983 82.1208 23.7051 81.6795 23.7051 81.6795V81.6782Z" fill="#0A9D57"/>
<path opacity="0.8" d="M29.1064 81.4016V69.1377C29.1064 69.1377 29.3824 68.9717 29.7688 68.9428C30.1539 68.9151 30.8438 68.9717 31.0094 69.0534C31.1737 69.1364 31.1474 69.33 31.1474 69.6329V81.4293C31.1474 81.4293 31.0357 81.7875 30.7886 81.8705C30.5416 81.9522 30.2643 82.0918 29.962 82.0365C29.3009 81.9522 29.1078 81.4016 29.1078 81.4016H29.1064Z" fill="#0A9D57"/>
<path opacity="0.8" d="M34.6465 81.8429V74.3852C34.6465 74.3852 34.9225 74.2759 35.3062 74.2759C35.69 74.2759 36.3813 74.3022 36.5482 74.3589C36.7137 74.4142 36.6861 74.5248 36.6861 74.7171V81.8982C36.6861 81.8982 36.5771 82.1195 36.3274 82.1748C36.079 82.2301 35.8043 82.3131 35.5007 82.2854C34.8397 82.1748 34.6465 81.8429 34.6465 81.8429Z" fill="#DF2925"/>
<path opacity="0.8" d="M40.0762 81.6492V70.464C40.0762 70.464 40.3508 70.2981 40.7359 70.2981C41.121 70.2981 41.8109 70.3257 41.9765 70.4087C42.1408 70.4917 42.1145 70.6563 42.1145 70.9329V81.6782C42.1145 81.6782 42.0041 82.0101 41.7557 82.0931C41.5074 82.1761 41.2314 82.2867 40.9291 82.259C40.268 82.1484 40.0762 81.6505 40.0762 81.6505V81.6492Z" fill="#0A9D57"/>
<path d="M15.3818 67.6467L16.5949 65.8224L17.2835 65.7961C17.2835 65.7961 17.5043 66.1833 17.5043 66.4586C17.5043 66.7339 17.6699 66.9828 18.1653 66.9828C18.6608 66.9828 19.8462 67.0671 20.205 66.9552C20.5625 66.8445 21.0041 66.7075 20.9765 66.4033C20.9765 66.099 20.8109 65.8514 21.1131 65.8514C21.4154 65.8514 22.7664 65.7684 22.7664 65.7684C22.7664 65.7684 22.9885 66.2097 22.9885 66.4586C22.9885 66.7352 23.1541 66.8722 23.5944 66.8722C24.0346 66.8722 25.0006 66.9552 25.3581 66.9012C25.7168 66.8445 26.3503 66.8445 26.3227 66.5416C26.2951 66.2097 26.4055 65.7684 26.6815 65.7684C26.9575 65.7684 28.1692 65.8238 28.1692 65.8238C28.1692 65.8238 28.3348 66.5429 28.5542 66.6522C28.7487 66.7642 29.988 66.9025 30.2364 66.8735C30.5124 66.8735 31.6426 66.8459 31.753 66.5969C31.8634 66.3493 31.891 65.7961 31.891 65.7961H33.5995L33.8755 66.3756C33.8755 66.3756 34.5917 66.9302 34.9505 66.9012C35.308 66.8722 36.6866 66.8445 37.0454 66.6799C37.4042 66.5429 37.4304 65.7408 37.4304 65.7408L39.1665 65.6855L39.4425 66.6509C39.4425 66.6509 40.0773 66.8169 40.6003 66.8445C41.1247 66.8722 41.8961 66.8169 42.3088 66.7062C42.6939 66.5956 42.9423 65.6301 42.9423 65.6301L44.7887 65.7131L45.919 67.7573L15.3832 67.6467H15.3818Z" fill="white"/>
<path d="M15.1348 68.0602L16.1257 67.7296L16.0442 82.5067L16.5949 83.1152L40.5438 83.0875L40.4058 84.8828L15.3818 84.9658L15.1348 84.2756V68.0616V68.0602Z" fill="#E0E0E0"/>
<path d="M45.0645 67.8666H45.9739L46.1395 76.5677L45.0645 76.457V67.8666Z" fill="#E0E0E0"/>
<path d="M99.1094 28.3141C99.1094 28.3141 99.1094 28.783 99.3013 29.0873C99.4944 29.3915 99.8532 29.5009 99.8532 29.5009C99.8532 29.5009 99.5496 29.5285 99.384 29.8328C99.2198 30.137 99.1922 30.7166 99.1922 30.7166C99.1922 30.7166 99.137 30.1634 98.9714 29.8881C98.7782 29.5852 98.4746 29.5285 98.4746 29.5285C98.4746 29.5285 98.7519 29.4732 98.9149 29.1703C99.0542 28.8397 99.1094 28.3141 99.1094 28.3141Z" fill="white"/>
<path d="M94.9196 18.1221C94.9196 18.1221 94.9459 19.0322 95.3047 19.6131C95.6634 20.1939 96.3521 20.4139 96.3521 20.4139C96.3521 20.4139 95.7738 20.4692 95.444 21.0488C95.1128 21.6283 95.0865 22.7334 95.0865 22.7334C95.0865 22.7334 95.0024 21.6836 94.6436 21.1041C94.2861 20.5245 93.6514 20.4416 93.6514 20.4416C93.6514 20.4416 94.1757 20.3309 94.5056 19.7501C94.8092 19.1429 94.9196 18.1221 94.9196 18.1221Z" fill="white"/>
<path d="M102.361 11.9618C102.361 11.9618 102.389 12.5967 102.637 13.0102C102.885 13.4251 103.381 13.5898 103.381 13.5898C103.381 13.5898 102.968 13.6188 102.746 14.0324C102.525 14.4459 102.499 15.2191 102.499 15.2191C102.499 15.2191 102.443 14.4736 102.195 14.0864C101.948 13.6728 101.507 13.6161 101.507 13.6161C101.507 13.6161 101.893 13.5332 102.113 13.1183C102.278 12.677 102.361 11.9592 102.361 11.9592V11.9618Z" fill="white"/>
<path d="M109.472 32.6225C109.472 32.6225 109.472 33.0914 109.665 33.3957C109.857 33.6986 110.216 33.8092 110.216 33.8092C110.216 33.8092 109.912 33.8369 109.748 34.1412C109.581 34.4441 109.554 35.025 109.554 35.025C109.554 35.025 109.499 34.4718 109.335 34.1965C109.14 33.8922 108.837 33.8382 108.837 33.8382C108.837 33.8382 109.113 33.7829 109.278 33.4786C109.416 33.1467 109.472 32.6225 109.472 32.6225Z" fill="white"/>
<path d="M98.0622 34.1135C98.0622 34.1135 98.0899 34.7484 98.3382 35.1633C98.5866 35.5769 99.0821 35.7428 99.0821 35.7428C99.0821 35.7428 98.6694 35.7705 98.4486 36.1854C98.2292 36.6003 98.2002 37.3735 98.2002 37.3735C98.2002 37.3735 98.1451 36.628 97.8967 36.2407C97.6496 35.8258 97.208 35.7705 97.208 35.7705C97.208 35.7705 97.5944 35.6875 97.8139 35.2739C97.9795 34.8603 98.0622 34.1135 98.0622 34.1135Z" fill="white"/>
<path d="M90.2345 76.3464C89.9861 76.1264 89.7942 75.7945 89.7666 75.4639C89.7666 75.0767 90.8692 74.9937 90.8127 74.8554C90.6208 74.4141 90.1517 74.3035 90.4829 73.6963C90.7299 73.2537 92.8248 73.2537 92.6605 73.1154C92.3556 72.8388 91.8339 72.7848 92.0533 72.233C92.1085 72.0393 92.9352 71.9564 92.8537 71.901C92.7696 71.8457 91.1163 71.2938 91.5316 70.9619C91.9719 70.5747 93.0745 71.0726 93.5424 71.2372C95.4453 71.901 97.0973 73.1154 98.8334 74.0835C99.3026 74.3601 100.514 74.829 100.514 75.4652C100.514 75.6852 99.0542 76.2384 98.7782 76.3214C98.0895 76.5413 95.6911 76.2107 95.5268 76.3214C95.4164 76.4044 95.444 76.735 95.3888 76.8456C95.0866 77.2882 93.5989 77.2605 93.1836 77.2328C92.4397 77.2052 91.8628 76.8733 91.1465 76.9286C91.0085 76.9009 90.3738 76.4597 90.2358 76.349L90.2345 76.3464Z" fill="#FBC8BA"/>
<path d="M80.5618 43.2571C78.7429 43.2571 76.0146 42.4827 74.7464 41.5159C74.6084 41.4052 74.5808 41.2129 74.6912 41.101C74.8002 40.9627 74.9947 40.9363 75.1038 41.047C76.3996 42.0124 79.375 42.8146 81.0296 42.6486C81.7183 42.5643 82.6553 41.8755 83.482 40.7704C84.9434 38.8091 85.5768 36.3224 85.1918 34.1399C85.1076 33.642 84.971 32.4552 84.9434 31.4885C84.9434 31.1025 84.9434 30.6876 84.9145 30.2727C84.9145 28.92 84.8882 27.649 84.6674 26.5729C84.6385 26.4069 84.7226 26.2423 84.8882 26.2146C85.0524 26.1856 85.2194 26.2699 85.2456 26.4359C85.494 27.5673 85.5216 28.949 85.5216 30.249C85.5216 30.6349 85.5216 31.0498 85.5492 31.4358C85.5768 32.3736 85.7135 33.534 85.7963 33.9765C86.2379 36.3527 85.5492 39.0041 83.9787 41.1023C83.0417 42.3457 81.9943 43.1188 81.1124 43.2018C80.9206 43.2571 80.755 43.2571 80.5618 43.2571Z" fill="#2E2020"/>
<path d="M83.014 35.3016C82.9313 35.3016 82.8471 35.2463 82.7933 35.1633C82.7381 35.0527 82.7933 34.9144 82.9313 34.859C83.2072 34.7471 83.3439 34.4718 83.3728 34.2782C83.4004 34.1122 83.3439 34.0016 83.3176 33.9476C82.3793 33.2297 82.3793 32.0417 82.5436 31.5715C82.5725 31.4608 82.7092 31.3778 82.8209 31.4345C82.9313 31.4621 83.014 31.6004 82.9589 31.7111C82.8747 31.931 82.7657 32.9821 83.591 33.5893C83.7842 33.7276 83.867 34.0029 83.8394 34.3348C83.7842 34.7774 83.5082 35.137 83.1231 35.2739C83.0679 35.3016 83.0403 35.3016 83.0127 35.3016H83.014Z" fill="#2E2020"/>
<path d="M81.636 38.8908C81.0854 38.8908 80.5347 38.7249 80.009 38.3679C79.8986 38.2836 79.8723 38.1466 79.9538 38.0623C80.0366 37.953 80.1746 37.9254 80.2587 38.007C81.2786 38.7249 82.5179 38.5589 83.3721 37.6474C83.4536 37.5645 83.5916 37.5368 83.702 37.6198C83.7848 37.7028 83.8124 37.8411 83.7296 37.9517C83.1237 38.5589 82.3785 38.8895 81.6347 38.8895L81.636 38.8908Z" fill="#2E2020"/>
<path d="M82.5728 28.8937C82.49 28.8937 82.4348 28.866 82.3796 28.8107C82.2981 28.7001 82.3244 28.5618 82.4348 28.4788C83.18 27.9256 84.3641 27.8426 85.2196 28.2865C85.3287 28.3418 85.3839 28.4788 85.3287 28.5894C85.2735 28.7001 85.1368 28.7554 85.0251 28.7001C84.3365 28.3405 83.3166 28.4235 82.7095 28.866C82.6832 28.8937 82.628 28.8937 82.5728 28.8937Z" fill="#2E2020"/>
<path d="M76.4276 30.274C76.371 30.274 76.3185 30.2477 76.2633 30.22C76.1792 30.1371 76.1792 29.9988 76.2633 29.8881C77.2542 28.8397 78.6604 28.4248 79.8997 28.812C80.0101 28.8397 80.0916 28.978 80.0377 29.0886C80.0101 29.1993 79.8734 29.2822 79.7617 29.2256C78.6893 28.895 77.4474 29.2533 76.5656 30.1924C76.538 30.249 76.4841 30.2754 76.4289 30.2754L76.4276 30.274Z" fill="#2E2020"/>
<path d="M85.5495 29.2809C85.4943 29.2809 85.4667 29.2809 85.4115 29.2533C85.2748 29.1703 85.192 29.0056 85.2748 28.8397C85.4956 28.3958 85.33 27.7623 85.192 27.2367C85.1644 27.1537 85.1368 27.0708 85.1368 26.9878C84.807 25.6627 84.0618 24.5577 82.6004 23.259C82.4637 23.1496 82.4637 22.956 82.5728 22.8177C82.6832 22.6794 82.8764 22.6794 83.0144 22.79C84.0329 23.7015 85.2735 24.9989 85.7138 26.8218C85.7414 26.9048 85.7414 26.9601 85.769 27.0431C85.9346 27.6503 86.1277 28.4248 85.8255 29.0873C85.769 29.2243 85.6599 29.2809 85.5495 29.2809Z" fill="#2E2020"/>
<path d="M68.6549 39.6389C64.3561 39.6389 62.344 35.0816 61.1586 32.3459C60.5791 31.0209 59.5592 27.1261 60.3044 24.1717C61.4622 19.5301 65.6795 14.6962 71.1624 14.8898C74.7726 15.0281 78.798 16.1055 81.3871 17.6242L81.5802 17.7348C84.281 19.3101 87.6151 21.2714 87.6716 25.2755C87.6716 26.2146 87.3681 28.3141 86.0998 29.6115C85.9894 29.7222 85.7962 29.7222 85.6596 29.6115C85.5492 29.5009 85.5492 29.3086 85.6596 29.1703C86.7898 28.0375 87.0658 26.1316 87.0658 25.2755C87.0106 21.6296 83.9511 19.8331 81.278 18.2591L81.0848 18.1484C78.5497 16.6561 74.6635 15.6077 71.1348 15.497C65.9818 15.3034 62.0129 19.8897 60.8826 24.3087C60.1664 27.1261 61.131 30.8272 61.7093 32.097C62.9499 34.9433 64.8227 39.224 68.9572 39.0028C69.1215 39.0028 69.2608 39.1134 69.2871 39.2794C69.2871 39.4453 69.1767 39.5836 69.0111 39.6113C68.8731 39.6389 68.7627 39.6389 68.6523 39.6389H68.6549Z" fill="#2E2020"/>
<path d="M79.3747 32.9821C79.3195 32.5685 79.0186 32.2629 78.7137 32.2919C78.4101 32.3459 78.1906 32.7055 78.2445 33.1204C78.301 33.534 78.6033 33.8382 78.9068 33.8093C79.238 33.7816 79.4312 33.3957 79.3747 32.9808V32.9821Z" fill="#2E2020"/>
<path d="M84.9147 31.931C84.8609 31.5175 84.5586 31.2132 84.255 31.2409C83.9514 31.2962 83.7306 31.6544 83.7858 32.0693C83.841 32.4842 84.1433 32.7872 84.4469 32.7608C84.7781 32.7055 84.9712 32.3459 84.9147 31.931Z" fill="#2E2020"/>
<path d="M81.0293 45.7702C80.9202 45.7702 80.8085 45.7149 80.7533 45.6043C80.2579 44.6085 80.5339 43.7524 80.9189 42.9805C81.0004 42.8422 81.166 42.7592 81.3316 42.8422C81.4696 42.9252 81.5524 43.0912 81.4696 43.2571C81.1108 43.975 80.9465 44.6098 81.3053 45.3566C81.3868 45.4949 81.3329 45.6886 81.1673 45.7715H81.0306L81.0293 45.7702Z" fill="#2E2020"/>
<path d="M75.9585 69.5249C75.7929 69.5249 75.6549 69.3866 75.6549 69.2206C75.6549 68.0602 74.6364 63.9455 72.7899 57.6469C72.7347 57.4809 72.8451 57.3163 72.9818 57.2597C73.1474 57.2043 73.3117 57.315 73.3682 57.4533C74.6903 61.9553 76.2621 67.6453 76.2621 69.2193C76.2621 69.4129 76.1241 69.5236 75.9585 69.5236V69.5249Z" fill="#2E2020"/>
<path d="M68.5733 43.0082C68.4353 43.0082 68.2973 42.8976 68.2697 42.7593C68.0213 41.4065 68.0765 40.4674 68.434 39.9972C68.5996 39.7759 68.7928 39.6653 69.0398 39.6376C69.2054 39.61 69.3697 39.7206 69.3697 39.8866C69.3973 40.0525 69.2882 40.2172 69.1226 40.2172C69.0398 40.2172 68.9859 40.2725 68.9308 40.3555C68.819 40.5214 68.5996 41.047 68.8756 42.6486C68.9032 42.8146 68.7941 42.9805 68.6272 43.0069H68.572L68.5733 43.0082Z" fill="#2E2020"/>
<path d="M74.1388 69.2497C73.9732 69.2497 73.8628 69.139 73.8352 68.9731C73.6973 67.5361 73.2294 65.8791 72.4855 64.0009C72.4303 63.8349 72.4855 63.6702 72.6511 63.6136C72.8154 63.5583 72.981 63.6136 73.0362 63.7796C73.8352 65.7131 74.3031 67.4531 74.4411 68.9441C74.47 69.11 74.3307 69.2497 74.1651 69.276C74.1651 69.2497 74.1375 69.2497 74.1375 69.2497H74.1388Z" fill="#2E2020"/>
<path d="M72.1841 62.8668C72.0724 62.8668 71.9633 62.8114 71.9068 62.7008C71.7426 62.3412 71.5783 62.0106 71.4114 61.6524C71.3299 61.5141 71.4114 61.3218 71.5494 61.2375C71.6874 61.1558 71.8805 61.2375 71.9633 61.3771C72.1289 61.7353 72.2932 62.0949 72.4601 62.4268C72.5429 62.5928 72.4601 62.7574 72.3221 62.8404C72.2656 62.8404 72.238 62.8681 72.1841 62.8681V62.8668Z" fill="#2E2020"/>
<path d="M67.3312 54.333C67.2208 54.333 67.1393 54.2777 67.0841 54.1947C66.6425 53.5322 66.2299 52.9236 65.8698 52.3718C64.8237 50.7978 64.3545 50.1063 64.3006 49.7757C64.1902 49.2501 64.4649 48.8642 64.6857 48.5889C64.7961 48.4493 64.9893 48.4493 65.1259 48.5613C65.2626 48.6706 65.2626 48.8655 65.1535 49.0025C64.9341 49.2514 64.85 49.4437 64.9052 49.665C64.9617 49.8863 65.6503 50.9361 66.3928 52.0398C66.7516 52.5917 67.1656 53.2002 67.6059 53.8641C67.6887 54.0024 67.6611 54.1947 67.5244 54.2777C67.4416 54.3053 67.3864 54.333 67.3312 54.333Z" fill="#2E2020"/>
<path d="M67.6628 40.6057C67.6076 40.6057 67.5537 40.5781 67.4985 40.5504C67.3605 40.4674 67.3329 40.2738 67.4157 40.1355C67.9388 39.39 68.1596 39.1964 68.408 39.224C68.5735 39.2517 68.6839 39.39 68.6839 39.5546C68.6563 39.6929 68.5749 39.8036 68.4355 39.8312C68.379 39.8866 68.2424 40.0249 67.9112 40.4938C67.8573 40.5491 67.7469 40.6057 67.6628 40.6057Z" fill="#2E2020"/>
<path d="M69.3441 38.8104C68.3795 38.8104 67.3596 38.3126 66.5343 37.4011C65.4593 36.2407 65.1005 34.7774 65.5684 33.6723C65.7905 33.1204 66.2583 32.8148 66.8642 32.8148C67.8853 32.7871 69.0405 33.5603 69.398 34.2782C69.4821 34.4165 69.4269 34.6088 69.2613 34.6931C69.1233 34.776 68.9314 34.7194 68.8473 34.5548C68.6003 34.0292 67.6343 33.422 66.8918 33.4497C66.533 33.4497 66.2859 33.6156 66.1479 33.9462C65.7616 34.83 66.0927 36.0458 67.0009 37.0402C67.9103 38.0057 69.0681 38.4469 70.0038 38.144C70.1694 38.0886 70.3363 38.1703 70.3902 38.3363C70.4454 38.5036 70.3626 38.6682 70.1983 38.7235C69.8948 38.7802 69.6188 38.8078 69.3428 38.8078L69.3441 38.8104Z" fill="#2E2020"/>
<path d="M69.3438 36.8203C69.2623 36.8203 69.1519 36.7663 69.123 36.6543C68.9587 36.1854 68.2149 35.9918 67.6353 35.8258C67.471 35.7705 67.3317 35.7428 67.2226 35.7165C67.1135 35.6888 67.0307 35.5505 67.0859 35.4399C67.1135 35.3293 67.2502 35.2463 67.3606 35.3016C67.4723 35.3293 67.609 35.3846 67.747 35.4122C68.408 35.6059 69.3175 35.8258 69.5383 36.516C69.5659 36.628 69.5107 36.7663 69.4003 36.7926C69.3819 36.8111 69.3635 36.8203 69.3451 36.8203H69.3438Z" fill="#2E2020"/>
<path d="M62.2617 67.8403C62.1237 67.8403 62.0133 67.7573 61.9594 67.619C61.5468 65.9621 62.0685 59.0286 62.5929 57.51C62.6481 57.344 62.8123 57.261 62.9779 57.3164C63.1435 57.3717 63.2263 57.5363 63.1711 57.7036C62.702 59.0853 62.1776 65.9621 62.5653 67.4821C62.5929 67.648 62.5101 67.8127 62.3445 67.8403H62.2617Z" fill="#2E2020"/>
<path d="M64.2179 76.9259C61.186 76.9259 58.1817 76.7323 55.8397 76.0434C51.8997 74.9107 51.7617 71.1542 51.6513 68.4198C51.6237 67.482 51.8997 63.8625 52.1481 60.355C52.3124 58.2567 52.4504 56.2679 52.5069 55.1628V55.0798C52.5897 53.2555 52.7264 50.9914 53.829 49.3344C54.9303 47.6498 58.4879 46.5434 61.4633 45.7715C61.6275 45.7162 61.7945 45.8269 61.8221 45.9915C61.8759 46.1575 61.7655 46.3247 61.5999 46.3524C59.9191 46.7936 55.4271 47.9804 54.2982 49.6663C53.3046 51.1863 53.1955 53.2569 53.0838 55.1075V55.1904C53.0286 56.2942 52.8644 58.2831 52.725 60.3826C52.478 63.6979 52.202 67.4544 52.2296 68.3645C52.3663 71.6798 52.725 74.4958 55.9764 75.4349C60.3041 76.6783 67.0014 76.2911 71.906 75.9881C75.1876 75.7945 77.5296 75.6575 78.4666 75.9881C78.6309 76.0435 78.7137 76.2094 78.6585 76.3754C78.6033 76.5413 78.4377 76.623 78.2721 76.569C77.4731 76.2647 74.9116 76.4307 71.9625 76.5967C69.6745 76.7626 66.9186 76.9273 64.2179 76.9273V76.9259Z" fill="#2E2020"/>
<path d="M74.5536 30.9102C74.388 30.9102 74.25 30.7732 74.25 30.606C74.25 30.4387 74.3867 30.303 74.5536 30.303C77.2819 30.249 81.8002 26.9061 82.2418 22.8454C82.2694 22.6794 82.406 22.5688 82.5729 22.5688C82.7385 22.5964 82.8476 22.7347 82.8476 22.8994C82.3535 27.4014 77.4738 30.8549 74.5536 30.9089V30.9102Z" fill="#2E2020"/>
<path d="M69.7028 32.7332C69.4544 32.7332 69.3177 32.7055 69.3177 32.7055C69.1534 32.6765 69.043 32.5119 69.0693 32.3459C69.0969 32.18 69.2625 32.0693 69.4281 32.097C69.4833 32.097 74.2237 32.7332 77.2266 25.4125C77.2832 25.2465 77.475 25.1925 77.613 25.2465C77.7773 25.3018 77.8325 25.4954 77.7773 25.6324C75.1042 32.2063 70.971 32.7318 69.7014 32.7318L69.7028 32.7332Z" fill="#2E2020"/>
<path d="M71.3835 36.1301H71.3007C70.612 35.9365 70.336 35.5229 70.2256 35.191C69.8669 34.0872 70.9143 32.6225 71.1062 32.3196C71.2152 32.1813 71.4097 32.1536 71.5188 32.263C71.6568 32.3723 71.6844 32.5672 71.5753 32.6765C71.0234 33.3957 70.5831 34.3901 70.7763 34.9973C70.8591 35.2463 71.0799 35.4399 71.4373 35.5229C71.6029 35.5782 71.6857 35.7442 71.6305 35.9101C71.6581 36.0484 71.5188 36.1301 71.3822 36.1301H71.3835Z" fill="#2E2020"/>
<path d="M68.9864 43.726C68.876 43.726 68.7946 43.6707 68.738 43.5877C68.6553 43.4508 68.6829 43.2571 68.8195 43.1728C69.4267 42.7593 69.2887 40.2738 68.876 39.0304C68.8195 38.8658 68.9036 38.6998 69.0679 38.6445C69.2335 38.5892 69.3978 38.6722 69.453 38.8381C69.8394 39.9709 70.2257 42.9819 69.1783 43.672C69.1231 43.7274 69.0679 43.7274 68.9864 43.7274V43.726Z" fill="#2E2020"/>
<path d="M104.896 40.9087C102.692 40.9087 100.459 40.6044 98.3366 40.3015C96.4625 40.0512 94.5057 39.7759 92.604 39.7206C91.667 39.693 89.7929 39.8866 88.1396 40.0512C86.0447 40.2725 84.833 40.3818 84.4467 40.2725C84.2824 40.2172 84.1983 40.0512 84.2259 39.8866C84.2824 39.7206 84.4467 39.6376 84.6109 39.6653C84.9145 39.7483 86.5954 39.5823 88.0844 39.4164C89.8205 39.2227 91.6394 39.0581 92.6316 39.0858C94.5596 39.1411 96.5191 39.4164 98.4194 39.693C100.542 39.9972 102.746 40.3015 104.896 40.3015C105.724 40.3015 110.904 39.8589 113.027 39.0028C113.191 38.9474 113.358 39.0028 113.411 39.1687C113.467 39.3347 113.411 39.4993 113.246 39.5547C111.014 40.4661 105.779 40.9087 104.896 40.9087Z" fill="#2E2020"/>
<path d="M112.805 25.9657C112.722 25.9657 112.64 25.9393 112.585 25.8564C111.814 25.0002 111.565 24.7789 111.482 24.7236C111.344 24.613 111.317 24.4193 111.429 24.3087C111.539 24.1717 111.731 24.1427 111.841 24.2534C111.896 24.3087 112.116 24.4483 113.025 25.4691C113.137 25.5798 113.137 25.7721 112.998 25.9104C112.943 25.9393 112.86 25.9657 112.805 25.9657Z" fill="#2E2020"/>
<path d="M98.0893 53.6705C98.0341 53.6705 97.9789 53.6428 97.9237 53.6151C97.7857 53.5322 97.7594 53.3385 97.8409 53.2002C98.4205 52.3441 99.3023 52.0952 100.157 51.8462C100.266 51.8199 100.377 51.7909 100.514 51.7369C100.872 51.6263 102.029 51.322 103.656 50.9084C108.286 49.7204 116.884 47.5378 119.805 46.2945C120.715 45.9072 123.664 44.5558 123.856 42.9529C123.883 42.7869 124.021 42.6763 124.186 42.6763C124.351 42.7026 124.462 42.8422 124.462 43.0069C124.242 44.8021 121.597 46.1562 120.025 46.82C117.074 48.0621 108.422 50.2722 103.792 51.4603C102.192 51.8739 101.034 52.1781 100.677 52.2611C100.568 52.2888 100.43 52.3441 100.32 52.3718C99.4929 52.6194 98.7766 52.813 98.3351 53.5045C98.2799 53.6428 98.1971 53.6705 98.0867 53.6705H98.0893Z" fill="#2E2020"/>
<path d="M110.794 31.4898C110.685 31.4898 110.601 31.4345 110.546 31.3528C109.996 30.44 109.389 29.6115 108.727 28.7844C108.618 28.6474 108.644 28.4538 108.782 28.3695C108.92 28.2601 109.112 28.2878 109.196 28.4261C109.885 29.2822 110.49 30.1384 111.07 31.0775C111.153 31.2145 111.126 31.4081 110.958 31.4911C110.903 31.4634 110.849 31.4911 110.794 31.4911V31.4898Z" fill="#2E2020"/>
<path d="M93.0182 70.933C92.9078 70.933 92.7974 70.8776 92.7409 70.767C89.6275 64.5527 85.8518 56.2666 84.1709 47.3456C84.0605 46.737 83.8949 46.1298 83.7306 45.4673C83.3995 44.1423 83.042 42.7882 83.042 41.5172C83.042 41.3512 83.1787 41.2143 83.3443 41.2143C83.5099 41.2143 83.6478 41.3526 83.6478 41.5172C83.6478 42.7316 83.979 44.058 84.3076 45.3303C84.4732 45.9652 84.6388 46.629 84.7492 47.2362C86.43 56.0743 90.1782 64.3064 93.2653 70.493C93.3481 70.6313 93.2929 70.825 93.1273 70.9079C93.0997 70.9343 93.0721 70.9343 93.0169 70.9343L93.0182 70.933Z" fill="#2E2020"/>
<path d="M90.7304 66.0714C90.5937 66.0714 90.4833 65.9884 90.4268 65.8501C89.1862 60.9056 89.0206 56.3482 89.0206 52.1492C89.0206 51.625 89.0206 51.0731 88.993 50.5199C88.9654 49.4425 88.9654 48.3374 89.0206 47.2336C89.0206 47.123 89.0482 46.9847 89.0482 46.82C89.1047 46.3511 89.1323 45.7703 88.993 45.4107C88.8826 45.1617 88.2491 45.0234 87.8352 44.9391C87.5053 44.8851 87.2306 44.8022 87.0374 44.7192C86.7049 44.5532 86.8442 44.1396 87.065 43.4481C87.1465 43.1439 87.3134 42.675 87.3134 42.509C87.0098 42.0388 86.4592 41.7622 85.852 41.4592C85.191 41.1286 84.5299 40.7954 84.1159 40.1882C84.0318 40.0499 84.0594 39.8563 84.1974 39.7733C84.3354 39.6903 84.5286 39.718 84.6101 39.8563C84.9137 40.3252 85.4932 40.6031 86.0978 40.906C86.7601 41.2366 87.4488 41.5962 87.8338 42.2311C87.9994 42.5077 87.8614 42.9502 87.642 43.6404C87.5868 43.8327 87.504 44.0817 87.4764 44.249C87.6131 44.303 87.8063 44.3306 87.9732 44.3583C88.6329 44.4966 89.3505 44.6625 89.5712 45.2144C89.7644 45.711 89.7079 46.3735 89.6527 46.899C89.6527 47.036 89.6251 47.1756 89.6251 47.285C89.5699 48.3624 89.5975 49.4398 89.5975 50.5159C89.5975 51.0691 89.6251 51.5933 89.6251 52.1452C89.6251 56.289 89.7907 60.8186 91.0037 65.7079C91.0313 65.8738 90.9485 66.0385 90.783 66.0661H90.7277L90.7304 66.0714Z" fill="#2E2020"/>
<path d="M101.81 74.8554C101.644 74.8554 101.505 74.7171 101.505 74.5525C101.477 73.807 101.341 73.0048 101.23 72.2593C101.121 71.6244 101.036 70.9896 100.98 70.3534C100.79 68.1999 100.513 66.0174 100.264 63.8902C100.045 62.2332 99.824 60.4933 99.6584 58.781C99.5204 57.3993 99.3009 56.0729 99.0262 54.7755C98.9986 54.6649 98.9697 54.5543 98.9408 54.4436C98.8317 54.0287 98.7227 53.5322 98.7227 53.0619C98.7227 52.896 98.8593 52.759 99.0262 52.759C99.1905 52.759 99.3285 52.896 99.3285 53.0619C99.3285 53.4492 99.4389 53.9194 99.5493 54.2777C99.5769 54.3883 99.6045 54.5266 99.6321 54.6096C99.9357 55.9346 100.156 57.3163 100.293 58.6967C100.459 60.409 100.678 62.1226 100.899 63.7795C101.175 65.9067 101.45 68.1156 101.617 70.2704C101.672 70.8776 101.755 71.5125 101.865 72.1487C101.975 72.9218 102.112 73.724 102.141 74.4958C102.112 74.7171 101.975 74.8554 101.81 74.8554Z" fill="#2E2020"/>
<path d="M111.179 31.7387C111.096 31.7387 111.013 31.711 110.958 31.6281C110.849 31.4898 110.875 31.2961 110.987 31.1855C111.924 30.3847 112.365 28.4248 112.613 27.2631L112.64 27.0708C112.805 26.3806 112.89 25.5508 112.365 25.1925C112.228 25.1095 112.2 24.9159 112.283 24.7776C112.365 24.6393 112.559 24.6116 112.696 24.6946C113.634 25.3295 113.33 26.6835 113.219 27.2077L113.191 27.4014C112.915 28.6447 112.446 30.7429 111.343 31.6544C111.316 31.7097 111.262 31.7374 111.179 31.7374V31.7387Z" fill="#2E2020"/>
<path d="M115.615 43.2018C115.562 43.2018 115.534 43.2018 115.477 43.1728C115.174 43.0082 114.816 42.6499 114.625 42.3733C114.019 41.4619 113.743 40.5491 113.438 39.6113C113.356 39.3347 113.274 39.0594 113.162 38.7551C112.778 37.5961 112.254 36.4897 111.645 35.6072C111.564 35.4689 111.591 35.2753 111.729 35.1923C111.867 35.1093 112.059 35.137 112.142 35.2753C112.777 36.2144 113.329 37.3748 113.741 38.5892C113.85 38.8921 113.935 39.17 114.017 39.4466C114.293 40.3581 114.54 41.2143 115.12 42.0427C115.258 42.2627 115.533 42.5393 115.726 42.6513C115.864 42.7329 115.947 42.8989 115.864 43.0662C115.836 43.1491 115.726 43.2045 115.614 43.2045L115.615 43.2018Z" fill="#2E2020"/>
<path d="M124.216 43.1465C124.023 43.1465 123.912 43.0082 123.912 42.8422C124.023 40.6321 122.839 37.0429 113.661 25.7167C113.439 25.4401 112.833 24.8883 112.586 24.8606C112.505 24.9712 112.338 25.0266 112.201 24.9436C112.063 24.8606 111.981 24.6959 112.063 24.5576C112.146 24.3904 112.284 24.281 112.477 24.2534C113.111 24.1717 114.104 25.3308 114.132 25.3585C123.446 36.8203 124.632 40.5781 124.522 42.8976C124.522 43.0082 124.384 43.1478 124.22 43.1478L124.216 43.1465Z" fill="#2E2020"/>
<path d="M78.5761 76.5401C78.4118 76.5401 78.3014 76.4294 78.2725 76.2635C77.915 73.1972 78.4946 70.3521 79.6235 69.525H79.4317C75.8478 69.7186 67.8008 69.1101 65.7612 68.7228L65.3761 68.6398C63.364 68.2526 59.6435 67.5624 57.4396 68.8335C57.3016 68.9151 57.1084 68.8611 57.0256 68.7228C56.9441 68.5858 56.998 68.3922 57.1373 68.3092C59.5344 66.9289 63.393 67.6744 65.4865 68.0603L65.8716 68.1433C67.8849 68.5029 75.8491 69.139 79.4027 68.9441C80.4226 68.8888 81.1388 69.0824 81.332 69.4683C81.4148 69.6343 81.3872 69.7989 81.2505 69.9109C81.1125 70.0492 80.8917 70.0768 80.6434 69.9662C80.3963 69.8556 80.2031 69.8832 79.9836 70.0492C79.157 70.6564 78.5222 73.1431 78.881 76.2371C78.9086 76.4031 78.7719 76.5401 78.605 76.5677L78.5761 76.5401Z" fill="#2E2020"/>
<path d="M93.5973 77.5345C92.9349 77.5345 92.3015 77.4238 91.7771 77.3408C90.041 77.0366 88.2221 77.0919 86.4584 77.1472C83.9785 77.2302 81.4421 77.3132 78.9898 76.4017C78.8255 76.3464 78.7427 76.1804 78.8255 76.0145C78.8807 75.8485 79.0463 75.7655 79.2105 75.8485C81.5249 76.7323 84.0324 76.6493 86.4308 76.5664C88.2221 76.511 90.0975 76.4557 91.8888 76.7876C92.6615 76.9246 93.7905 77.0906 94.6171 76.843C95.0022 76.7323 95.1415 76.6493 95.1967 76.594C95.0587 76.3451 94.3411 76.2358 94.0388 76.1791C93.9009 76.1515 93.7905 76.1515 93.709 76.1238C93.157 75.9855 92.6339 75.8195 92.1096 75.6536C91.6141 75.4876 91.0897 75.3217 90.5667 75.2123C90.2907 75.1557 90.0147 75.1017 89.7124 75.0451C89.217 74.9621 88.7215 74.9068 88.2799 74.7145C88.1144 74.6591 88.0316 74.4932 88.1144 74.3272C88.1696 74.1613 88.3351 74.0796 88.4994 74.1613C88.9121 74.3272 89.3537 74.3812 89.8228 74.4379C90.1251 74.4932 90.4287 74.5208 90.7323 74.6038C91.2843 74.7421 91.8073 74.9081 92.3304 75.074C92.8271 75.24 93.3502 75.4046 93.8733 75.5166C93.956 75.5443 94.0388 75.5443 94.1492 75.5719C94.7564 75.6812 95.6921 75.8209 95.8314 76.4834C95.9418 77.0629 95.1428 77.2842 94.8379 77.3948C94.4252 77.4765 94.0126 77.5331 93.5986 77.5331L93.5973 77.5345Z" fill="#2E2020"/>
<path d="M97.7036 76.7337C96.9046 76.7337 96.049 76.623 95.087 76.3754C94.9214 76.3477 94.8097 76.1818 94.8662 76.0171C94.8938 75.8512 95.0581 75.7405 95.225 75.7959C96.4919 76.1001 97.5118 76.1831 98.5592 76.0725C98.8904 76.0448 99.1112 75.8788 99.1112 75.8248C99.1112 75.8248 99.0822 75.7419 98.9442 75.6589C98.6131 75.4376 98.1452 75.327 97.6773 75.2176C97.3738 75.161 97.0715 75.0793 96.8231 74.9674C96.4367 74.8304 96.0503 74.6631 95.6653 74.4708C94.9214 74.1389 94.1776 73.8083 93.4613 73.67C92.2759 73.45 90.9262 73.1998 89.7684 72.7585C89.6028 72.7032 89.52 72.5372 89.6028 72.3713C89.658 72.2053 89.8236 72.1237 89.9879 72.2053C91.0905 72.6189 92.4126 72.8678 93.5704 73.0878C94.3708 73.2261 95.1422 73.5857 95.9137 73.9453C96.2987 74.1112 96.6588 74.2772 97.015 74.4142C97.2358 74.4972 97.5118 74.5525 97.7864 74.6355C98.3108 74.7461 98.8615 74.8844 99.2754 75.1887C99.717 75.5193 99.717 75.8512 99.6605 76.0171C99.5501 76.4584 99.0008 76.652 98.5855 76.7073C98.3095 76.7073 98.0072 76.735 97.7036 76.735V76.7337Z" fill="#2E2020"/>
<path d="M99.7424 76.1805C99.6044 76.1805 99.4664 76.0698 99.4388 75.9315C99.4112 75.7656 99.5216 75.5996 99.6872 75.5719C100.155 75.4903 100.237 75.3783 100.237 75.3783C100.209 75.3243 100.045 74.9911 98.3086 74.1086L98.2258 74.0533C96.6264 73.2511 95.3595 72.6993 94.2017 72.3397C93.7614 72.2027 93.2646 72.092 92.7403 72.0091C91.9136 71.8431 91.0594 71.7048 90.3694 71.3189C90.2314 71.2346 90.1775 71.0423 90.259 70.9053C90.3418 70.7657 90.535 70.7117 90.6717 70.7947C91.2789 71.1253 92.0779 71.2636 92.8507 71.4295C93.375 71.5402 93.9244 71.6231 94.3935 71.7891C95.579 72.1763 96.8735 72.7282 98.4992 73.5567L98.582 73.612C100.014 74.3299 100.925 74.9107 100.841 75.5179C100.758 75.9882 100.208 76.1265 99.795 76.2094C99.7674 76.1818 99.7398 76.1818 99.7398 76.1818L99.7424 76.1805Z" fill="#2E2020"/>
<path d="M96.7645 73.1971C96.683 73.1971 96.6002 73.1695 96.545 73.0865C96.2414 72.7559 95.8288 72.5899 95.3872 72.4239C95.056 72.2856 94.6986 72.1473 94.3674 71.9274C93.8706 71.5678 93.0729 71.4018 92.4092 71.2359C92.2725 71.2095 92.1608 71.1819 92.0241 71.1529C89.9845 70.655 87.8068 70.7657 85.7119 70.8763C85.1061 70.904 84.4713 70.9316 83.8379 70.9593C83.5067 70.9593 83.1768 70.9869 82.8443 71.0146C81.5774 71.0976 80.2553 71.1529 79.0975 70.738C78.9319 70.6827 78.8491 70.5167 78.9319 70.3508C78.9871 70.1848 79.1527 70.1018 79.317 70.1848C80.3631 70.5707 81.605 70.5154 82.818 70.4337C83.1768 70.4061 83.5067 70.4061 83.8379 70.3784C84.4437 70.3508 85.0785 70.3231 85.6843 70.2954C87.8331 70.1861 90.0383 70.0755 92.1608 70.5997C92.2725 70.6274 92.4092 70.655 92.5196 70.6827C93.2358 70.8486 94.1177 71.0423 94.6972 71.4559C94.9443 71.6495 95.2466 71.7601 95.5791 71.8984C96.0469 72.092 96.5437 72.2856 96.9577 72.7269C97.0668 72.8375 97.0668 73.0312 96.9301 73.1681C96.9301 73.1681 96.8473 73.1958 96.7632 73.1958L96.7645 73.1971Z" fill="#2E2020"/>
<path d="M81.4419 70.9053C81.3039 70.9053 81.1948 70.8223 81.1383 70.684V70.6563C81.0555 70.3797 81.0003 70.1598 80.8347 69.9938C80.7244 69.8832 80.7244 69.6896 80.8347 69.5513C80.9451 69.4419 81.1383 69.4419 81.2763 69.5513C81.5523 69.8279 81.6338 70.1598 81.7166 70.4627V70.4891C81.7718 70.655 81.6614 70.821 81.5234 70.8763C81.4958 70.904 81.4682 70.904 81.4419 70.904V70.9053Z" fill="#2E2020"/>
<path d="M110.463 27.678C110.27 27.678 110.105 27.6503 110.078 27.6503C109.912 27.6226 109.802 27.4567 109.829 27.292C109.857 27.1261 110.023 27.0154 110.187 27.0444C110.518 27.0997 110.876 27.0444 110.931 26.9891C110.987 26.8231 111.153 26.7691 111.316 26.8231C111.481 26.8785 111.566 27.0721 111.481 27.2104C111.316 27.6253 110.82 27.6793 110.462 27.6793L110.463 27.678Z" fill="#2E2020"/>
<path d="M106.908 29.2519C106.771 29.2519 106.632 29.2243 106.523 29.1966C106.109 29.086 105.806 28.7817 105.668 28.3405C105.613 28.1745 105.696 28.0099 105.862 27.9532C106.026 27.8979 106.191 27.9809 106.247 28.1469C106.329 28.3945 106.466 28.5328 106.687 28.5881C107.432 28.7817 108.892 27.9243 109.415 27.4C109.498 27.3171 109.581 27.2617 109.717 27.1788C109.855 27.0694 110.187 26.8482 110.214 26.7375C110.242 26.5716 110.407 26.4609 110.572 26.4886C110.736 26.5162 110.848 26.6822 110.82 26.8468C110.765 27.1774 110.407 27.454 110.076 27.6753C109.995 27.7583 109.883 27.8136 109.828 27.8703C109.388 28.2852 108.009 29.2506 106.906 29.2506L106.908 29.2519Z" fill="#2E2020"/>
<path d="M104.125 29.0873C103.849 29.0873 103.6 29.032 103.436 28.866C103.272 28.7277 103.104 28.4524 103.272 27.9269C103.327 27.7609 103.491 27.678 103.657 27.7333C103.821 27.7886 103.904 27.9546 103.849 28.1205C103.794 28.2878 103.794 28.3971 103.849 28.4248C103.987 28.5631 104.649 28.4524 105.227 28.2312C106.465 27.7069 107.956 26.4096 108.644 25.4138C108.727 25.3045 108.809 25.1938 108.948 25.0832C109.06 24.9449 109.279 24.7236 109.305 24.642C109.334 24.476 109.499 24.3653 109.664 24.3917C109.829 24.4207 109.939 24.5853 109.911 24.7526C109.884 24.9726 109.692 25.1938 109.388 25.5258C109.304 25.6364 109.195 25.7194 109.139 25.8024C108.395 26.8521 106.853 28.2601 105.446 28.841C105.226 28.8673 104.648 29.0886 104.124 29.0886L104.125 29.0873Z" fill="#2E2020"/>
<path d="M102.774 28.4788C102.755 28.4788 102.755 28.4788 102.774 28.4788C102.554 28.4788 102.389 28.3958 102.278 28.2298C101.672 27.512 101.948 26.7942 102.195 26.158C102.224 26.0473 102.278 25.9644 102.306 25.855C102.801 24.3904 103.657 23.3972 104.537 22.3185C104.787 22.0156 105.063 21.6836 105.309 21.353C105.421 21.2147 105.531 21.0764 105.668 20.9118C105.916 20.6075 106.192 20.2769 106.413 19.916C106.496 19.7791 106.687 19.725 106.825 19.8331C106.962 19.916 107.019 20.1097 106.908 20.248C106.687 20.6075 106.384 20.9658 106.137 21.2977C106.025 21.4347 105.916 21.5743 105.806 21.7113C105.53 22.0419 105.28 22.3751 105.005 22.6781C104.151 23.7002 103.352 24.667 102.883 26.0197C102.855 26.1303 102.8 26.2133 102.772 26.3226C102.524 26.9588 102.414 27.3724 102.745 27.7873C102.763 27.8057 102.782 27.8149 102.8 27.8149C103.048 27.8149 103.518 27.3184 103.683 27.1524C103.738 27.0971 103.766 27.0694 103.794 27.0418C104.372 26.4609 104.924 25.8261 105.447 25.2175C105.861 24.7486 106.275 24.2508 106.715 23.7819C106.798 23.6989 106.936 23.5882 107.101 23.4499C107.295 23.284 107.707 22.9534 107.763 22.8427C107.79 22.6768 107.956 22.5661 108.092 22.5938C108.258 22.6214 108.368 22.7874 108.341 22.9521C108.286 23.2287 107.983 23.5039 107.487 23.9175C107.349 24.0295 107.211 24.1401 107.157 24.1941C106.715 24.6643 106.302 25.1332 105.89 25.6021C105.365 26.2383 104.788 26.8745 104.208 27.4527C104.18 27.4804 104.152 27.5081 104.126 27.5634C103.686 28.0336 103.217 28.4748 102.775 28.4748L102.774 28.4788Z" fill="#2E2020"/>
<path d="M101.589 25.2755C101.505 25.2755 101.451 25.2755 101.368 25.2478C101.092 25.1925 100.899 25.0819 100.762 24.8606C100.459 24.3364 100.678 23.5342 100.791 23.2036C101.287 21.7113 102.664 20.028 103.437 19.1442C104.098 18.3987 105.559 17.7625 106.633 18.0668C106.881 18.1221 107.046 18.2604 107.239 18.371C107.349 18.454 107.46 18.537 107.598 18.5647C107.708 18.62 107.845 18.6476 107.956 18.6753C108.286 18.7859 108.645 18.8966 108.921 19.1165C109.251 19.3931 109.417 19.7251 109.555 20.0003C109.637 20.1663 109.719 20.3309 109.831 20.4969C109.913 20.6075 110.024 20.6905 110.134 20.8012C110.272 20.9118 110.438 21.0501 110.547 21.2147C110.712 21.4637 110.795 21.7126 110.85 21.9339C110.878 22.0432 110.906 22.1539 110.932 22.2645C111.015 22.4858 111.126 22.7334 111.264 22.9824C111.484 23.3973 111.705 23.8385 111.787 24.3087C111.816 24.4747 111.706 24.6406 111.54 24.6683C111.375 24.696 111.208 24.5853 111.182 24.4194C111.128 24.0321 110.906 23.6449 110.714 23.259C110.576 23.0113 110.465 22.7624 110.355 22.4871C110.298 22.3488 110.272 22.2395 110.245 22.0999C110.189 21.9049 110.162 21.7126 110.053 21.5743C109.969 21.4637 109.859 21.353 109.749 21.2701C109.611 21.1594 109.473 21.0211 109.336 20.8552C109.198 20.6615 109.088 20.4679 109.005 20.2756C108.867 19.999 108.757 19.7777 108.536 19.6118C108.344 19.4458 108.068 19.3628 107.765 19.2799C107.628 19.2245 107.489 19.1969 107.378 19.1416C107.214 19.0862 107.047 18.9756 106.91 18.8926C106.774 18.8096 106.634 18.699 106.498 18.6713C105.671 18.4501 104.43 18.9743 103.906 19.5828C103.162 20.4113 101.839 22.0393 101.371 23.4486C101.233 23.8359 101.15 24.3614 101.288 24.609C101.314 24.6643 101.371 24.692 101.48 24.7197C102.06 24.8026 102.555 24.2784 102.694 24.1111C103.052 23.6699 103.355 23.172 103.659 22.6478C103.99 22.0959 104.32 21.5151 104.76 21.0185C105.065 20.6589 105.478 20.4389 105.891 20.2177C106.11 20.107 106.331 19.9687 106.496 19.8581C106.633 19.7474 106.826 19.8015 106.909 19.9121C107.019 20.0517 106.964 20.244 106.855 20.327C106.633 20.493 106.414 20.6036 106.193 20.7419C105.834 20.9342 105.477 21.1278 105.228 21.4044C104.814 21.8733 104.511 22.4265 104.179 22.9521C103.876 23.4763 103.546 24.0031 103.16 24.4984C102.692 24.9686 102.112 25.2715 101.589 25.2715V25.2755Z" fill="#2E2020"/>
<path d="M102.306 26.021C102.251 26.021 102.168 25.9933 102.113 25.9657C101.866 25.7721 101.452 25.5244 100.983 25.2478C99.2741 24.2257 98.475 23.6739 98.5026 23.1496C98.5026 22.7624 98.6682 22.4318 98.9429 22.1815C99.5225 21.6837 100.624 21.6573 101.369 21.7666C101.535 21.7956 101.645 21.9616 101.617 22.1275C101.59 22.2935 101.424 22.4041 101.26 22.3752C100.598 22.2645 99.717 22.3185 99.3306 22.6518C99.1663 22.7901 99.1098 22.956 99.0822 23.1496C99.165 23.4262 100.544 24.2824 101.287 24.7236C101.783 25.0279 102.196 25.2755 102.472 25.4691C102.61 25.5798 102.637 25.7721 102.527 25.8827C102.5 25.9934 102.39 26.021 102.307 26.021H102.306Z" fill="#2E2020"/>
<path d="M77.1707 50.5475C76.3177 50.5475 75.407 50.3816 74.4989 50.0233C74.3333 49.968 74.2505 49.7744 74.3333 49.6361C74.3885 49.4701 74.5803 49.3871 74.7183 49.4701C76.7856 50.2433 78.6321 50.105 80.2026 48.9999C82.2698 47.5629 83.2069 44.9944 83.2069 43.6957C83.2069 43.5298 83.3435 43.3915 83.5104 43.3915C83.6773 43.3915 83.814 43.5298 83.814 43.6957C83.814 45.1327 82.7679 47.9488 80.5351 49.4964C79.5415 50.1866 78.4113 50.5449 77.172 50.5449L77.1707 50.5475Z" fill="#2E2020"/>
<path d="M98.9145 18.0668C98.6109 18.0668 98.3915 17.9838 98.31 17.7625C98.1168 17.2106 99.1918 16.7404 99.8529 16.5204C100.266 16.3821 100.678 16.2728 101.009 16.2438C101.204 16.2162 101.727 16.1622 101.836 16.5204C102.029 17.0723 100.956 17.5425 100.293 17.7625C99.9081 17.9008 99.3574 18.0668 98.9145 18.0668ZM100.818 16.8787C100.624 16.934 100.348 16.9893 100.074 17.1C99.7701 17.2093 99.5493 17.32 99.3574 17.4029C99.5493 17.3476 99.8253 17.2936 100.101 17.183C100.377 17.0723 100.624 16.9894 100.818 16.8787Z" fill="#2E2020"/>
<path d="M102.498 38.7262C101.699 38.7262 101.232 38.5602 101.121 38.2019C100.956 37.7054 100.568 26.6848 100.459 23.2313L98.2824 17.9285C98.2272 17.7612 98.2824 17.5965 98.4467 17.5412C98.611 17.4859 98.7766 17.5412 98.8318 17.7072L101.036 23.039C101.065 23.0666 101.065 23.122 101.065 23.1496C101.258 28.8397 101.561 37.4854 101.698 38.0096C101.946 38.2862 104.235 38.1756 107.238 37.1258C110.187 36.1037 112.09 34.6957 112.116 34.2808C112.005 34.0885 111.372 33.1217 108.395 28.9227C108.285 28.7844 108.34 28.5907 108.478 28.5078C108.616 28.3971 108.809 28.4524 108.891 28.5907C112.585 33.8382 112.667 34.0319 112.695 34.1148C113.081 35.1923 109.774 36.9045 107.432 37.733C106.026 38.2309 104.538 38.5892 103.38 38.6998C103.049 38.6998 102.746 38.7262 102.498 38.7262Z" fill="#2E2020"/>
<path d="M102.939 20.082C102.83 20.082 102.692 20.0003 102.663 19.891L101.423 16.7417C101.367 16.5758 101.45 16.4111 101.588 16.3558C101.752 16.3005 101.918 16.3835 101.973 16.5218L103.214 19.6697C103.27 19.8357 103.186 20.0017 103.048 20.057C102.994 20.057 102.967 20.0833 102.938 20.0833L102.939 20.082Z" fill="#2E2020"/>
<path d="M103.904 31.1855C102.774 31.1855 101.341 31.1025 100.983 30.7719C100.872 30.6613 100.846 30.5506 100.846 30.4677C100.818 29.6668 103.602 29.3916 105.283 29.3086C105.669 29.2809 109.032 29.115 109.667 29.6945C109.776 29.8051 109.805 29.9158 109.805 29.9988C109.833 30.8009 107.048 31.0775 105.367 31.1592C105.203 31.1592 104.622 31.1855 103.905 31.1855H103.904ZM101.7 30.4387C102.252 30.5506 103.464 30.6613 105.309 30.5506C107.157 30.4387 108.37 30.22 108.892 30.0528C108.341 29.9434 107.129 29.8328 105.281 29.9434C103.436 30.0251 102.251 30.2477 101.699 30.4387H101.7Z" fill="#2E2020"/>
<path d="M100.845 75.215C100.679 75.215 100.541 75.0767 100.541 74.9108C100.541 74.7448 100.678 74.6065 100.845 74.6065L154.697 74.3299C154.863 74.3299 155.001 74.4682 155.001 74.6342C155.001 74.8001 154.864 74.9371 154.697 74.9371L100.845 75.215Z" fill="#2E2020"/>
<path d="M46.5526 75.4916C46.387 75.4916 46.249 75.3533 46.249 75.1873C46.249 75.0214 46.387 74.8831 46.5526 74.8831L53.9109 74.8554C54.0765 74.8554 54.2132 74.9937 54.2132 75.1597C54.2132 75.3256 54.0765 75.4639 53.9109 75.4639L46.5526 75.4916Z" fill="#2E2020"/>
<path d="M7.52819 75.6009C7.3626 75.6009 7.22461 75.4626 7.22461 75.2966C7.22461 75.1307 7.3626 74.9924 7.52819 74.9924L14.7485 74.9647C14.9141 74.9647 15.0521 75.103 15.0521 75.269C15.0521 75.4349 14.9154 75.5732 14.7485 75.5732L7.52819 75.6009Z" fill="#2E2020"/>
<path d="M67.828 60.4643C67.7189 60.4643 67.6348 60.409 67.5809 60.326C66.615 58.8903 66.8633 57.2044 67.0841 55.5487C67.276 54.1947 67.4416 52.7854 66.9724 51.571C66.2562 49.7757 64.8237 48.6153 63.3347 47.3732C62.4528 46.6277 61.5171 45.8809 60.772 44.9694C58.2092 41.9308 58.5391 36.2974 61.4606 33.3957C61.571 33.2851 61.7642 33.2851 61.9009 33.3957C62.0113 33.505 62.0113 33.6986 61.9009 33.8369C59.2002 36.5437 58.8966 41.7635 61.2661 44.6085C61.9837 45.4647 62.8931 46.2115 63.7473 46.9293C65.2337 48.1438 66.7792 49.4148 67.5494 51.3773C68.1013 52.7577 67.9081 54.2211 67.715 55.6581C67.4942 57.2597 67.301 58.752 68.1276 59.9941C68.2104 60.1324 68.1841 60.3247 68.0448 60.4077C67.9344 60.463 67.8806 60.463 67.824 60.463L67.828 60.4643Z" fill="#2E2020"/>
<path d="M72.9259 63.3647C72.5119 63.3647 72.1268 63.171 71.8232 62.8115C71.2726 62.1489 71.0794 60.9622 71.2174 60.1877C71.4658 58.8337 72.1833 57.7023 72.8444 56.6248C73.7538 55.1891 74.608 53.8628 74.4162 51.9845C74.1665 49.5267 72.4041 47.7038 70.6667 45.9349C69.7849 45.0524 68.903 44.1133 68.2144 43.1175C67.4416 42.0124 67.167 40.6861 66.891 39.444C66.8634 39.2781 66.9462 39.1121 67.1118 39.0857C67.276 39.0581 67.4416 39.1411 67.4705 39.3057C67.7465 40.5201 68.0212 41.7635 68.7098 42.7869C69.3709 43.726 70.1989 44.6085 71.107 45.52C72.8983 47.3442 74.7447 49.2488 75.0207 51.9292C75.2139 54.0011 74.2756 55.4921 73.3674 56.9568C72.6788 58.0329 72.044 59.055 71.8232 60.2983C71.7141 60.9055 71.8521 61.9 72.2924 62.4255C72.4856 62.6455 72.6788 62.7561 72.9259 62.7561C73.0914 62.7561 73.2294 62.8944 73.2294 63.0604C73.2294 63.2264 73.0928 63.3647 72.9259 63.3647Z" fill="#2E2020"/>
<path d="M71.4662 63.8889C70.5292 63.8889 69.6487 63.4476 68.9048 62.6192C67.609 61.1558 66.948 58.3924 68.1886 56.5419C68.2714 56.4036 68.4633 56.3759 68.6013 56.4589C68.7392 56.5419 68.7655 56.7355 68.6841 56.8738C67.609 58.4754 68.1886 60.8779 69.3451 62.2043C69.8971 62.8391 71.0812 63.7782 72.7069 62.9498C72.8449 62.8668 73.0394 62.9234 73.1208 63.0881C73.2036 63.2264 73.1484 63.4187 72.9829 63.5016C72.4874 63.7506 71.963 63.8889 71.4662 63.8889Z" fill="#2E2020"/>
<path d="M78.2725 36.9046C76.564 36.9046 75.1039 35.6348 74.8568 33.9212C74.8292 33.7829 74.9396 33.6736 75.0487 33.6736C75.1867 33.6459 75.2971 33.7553 75.2971 33.8672C75.5179 35.4965 77.0056 36.6556 78.6589 36.437C80.2859 36.2144 81.4424 34.7234 81.2229 33.0941C81.1953 32.9558 81.3057 32.8464 81.4148 32.8464C81.5252 32.8175 81.6632 32.9294 81.6632 33.04C81.9115 34.917 80.5881 36.6569 78.6878 36.9072H78.2725V36.9046Z" fill="#2E2020"/>
<path d="M84.9707 35.6335C84.4739 35.6335 84.0048 35.4122 83.6197 35.025C83.5382 34.942 83.5382 34.805 83.6197 34.6944C83.7025 34.6101 83.8405 34.6101 83.9509 34.6944C84.3373 35.0816 84.7775 35.2186 85.2467 35.1356C86.3217 34.9143 87.0656 33.4233 86.9276 31.7651C86.9276 31.6268 87.0104 31.5161 87.1208 31.5161C87.2312 31.5161 87.3692 31.5991 87.3692 31.7097C87.5334 33.588 86.6253 35.3003 85.3295 35.5769C85.1928 35.6335 85.0811 35.6335 84.972 35.6335H84.9707Z" fill="#2E2020"/>
<path d="M81.3874 33.5893H81.306C81.1956 33.5616 81.1128 33.4233 81.168 33.3127C81.306 32.9268 81.5543 32.6502 81.9407 32.4842C82.4086 32.2906 82.9868 32.3183 83.4284 32.5382C83.5388 32.5935 83.5927 32.7318 83.5388 32.8425C83.4836 32.9518 83.3456 33.0084 83.2352 32.9518C82.9054 32.7858 82.4638 32.7858 82.1326 32.9255C81.9407 33.0084 81.7199 33.1454 81.6095 33.4773C81.5819 33.5037 81.4991 33.588 81.3887 33.588L81.3874 33.5893Z" fill="#2E2020"/>
<path d="M70.6944 34.1688C70.584 34.1688 70.4736 34.0872 70.4736 33.9489C70.4736 33.8106 70.5577 33.7276 70.6944 33.6999L74.9656 33.534C75.1036 33.534 75.1864 33.6169 75.214 33.7552C75.214 33.8935 75.1312 33.9752 74.9932 34.0042L70.6944 34.1701V34.1688Z" fill="#2E2020"/>
<path d="M125.952 85.9299H88.1944L62.6749 78.2247C62.5382 78.1693 62.4278 78.031 62.4554 77.8941C62.483 77.7544 62.5934 77.6438 62.759 77.6438H100.515L126.008 85.3227C126.146 85.3781 126.257 85.5164 126.229 85.6533C126.229 85.8206 126.117 85.9299 125.953 85.9299H125.952ZM88.3323 85.3227H123.912L100.431 78.2523H64.8236L88.3323 85.3227Z" fill="#2E2020"/>
<path d="M40.104 85.2411H15.6858C15.1903 85.2411 14.7764 84.8262 14.7764 84.3296V68.3645C14.7764 67.868 15.1903 67.4531 15.6858 67.4531H45.5619C46.0574 67.4531 46.4713 67.8666 46.4713 68.3645V76.2371C46.4713 76.4031 46.3333 76.54 46.1677 76.54C46.0022 76.54 45.8642 76.4031 45.8642 76.2371V68.3645C45.8642 68.1986 45.7262 68.0603 45.5606 68.0603H15.6858C15.5202 68.0603 15.3822 68.1986 15.3822 68.3645V84.3296C15.3822 84.4956 15.5189 84.6326 15.6858 84.6326H40.0764C40.2406 84.6326 40.3786 84.7709 40.3786 84.9368C40.4062 85.1028 40.2695 85.2411 40.104 85.2411Z" fill="#2E2020"/>
<path d="M40.131 83.3905H16.6788C16.2096 83.3905 15.8232 82.9756 15.8232 82.479V67.9773C15.8232 67.8113 15.9612 67.6743 16.1255 67.6743C16.2898 67.6743 16.4291 67.8126 16.4291 67.9773V82.479C16.4291 82.645 16.5395 82.782 16.6788 82.782H40.131C40.2953 82.782 40.4333 82.9203 40.4333 83.0862C40.4333 83.2522 40.2953 83.3905 40.131 83.3905Z" fill="#2E2020"/>
<path d="M45.0376 76.6783C44.872 76.6783 44.7354 76.54 44.7354 76.3741V67.9773C44.7354 67.8113 44.872 67.6743 45.0376 67.6743C45.2032 67.6743 45.3399 67.8126 45.3399 67.9773V76.3741C45.3399 76.5677 45.2032 76.6783 45.0376 76.6783Z" fill="#2E2020"/>
<path d="M15.5471 67.8403C15.4919 67.8403 15.4367 67.8403 15.4091 67.8126C15.2712 67.7296 15.216 67.536 15.2712 67.3977C16.2358 65.5761 16.4842 65.5761 16.6774 65.5761H44.4836C44.6478 65.5761 44.8962 65.5761 46.0002 67.2331C46.083 67.3714 46.0554 67.5637 45.9174 67.648C45.7807 67.731 45.5875 67.7033 45.5034 67.565C44.8975 66.6259 44.5664 66.2676 44.4573 66.1846H16.7602C16.6498 66.2953 16.3475 66.6812 15.8231 67.677C15.7679 67.7876 15.6575 67.8429 15.5485 67.8429L15.5471 67.8403Z" fill="#2E2020"/>
<path d="M15.4094 85.0198C15.3542 85.0198 15.299 85.0198 15.2714 84.9922C15.1334 84.9092 15.0782 84.7156 15.161 84.5786L16.0717 82.9769C16.1532 82.8386 16.3477 82.7833 16.4844 82.8663C16.6224 82.9493 16.6776 83.1429 16.5948 83.2812L15.6853 84.8828C15.6301 84.9658 15.5198 85.0211 15.4094 85.0211V85.0198Z" fill="#2E2020"/>
<path d="M19.1864 67.1778C17.2295 67.1778 17.2295 66.8459 17.2295 66.6523C17.2295 66.4586 17.2295 66.1004 19.1864 66.1004C21.1432 66.1004 21.1419 66.4323 21.1419 66.6523C21.1419 66.8182 21.1419 67.1778 19.1864 67.1778Z" fill="#2E2020"/>
<path d="M24.6434 67.1778C22.6865 67.1778 22.6865 66.8459 22.6865 66.6523C22.6865 66.4586 22.6865 66.1004 24.6434 66.1004C26.6003 66.1004 26.6003 66.4323 26.6003 66.6523C26.6003 66.8182 26.6003 67.1778 24.6434 67.1778Z" fill="#2E2020"/>
<path d="M30.0985 67.1778C28.1416 67.1778 28.1416 66.8459 28.1416 66.6523C28.1416 66.4586 28.1416 66.1004 30.0985 66.1004C32.0553 66.1004 32.0553 66.4323 32.0553 66.6523C32.0553 66.8182 32.0553 67.1778 30.0985 67.1778Z" fill="#2E2020"/>
<path d="M35.5565 67.1778C33.5996 67.1778 33.5996 66.8459 33.5996 66.6523C33.5996 66.4586 33.5996 66.1004 35.5565 66.1004C37.5133 66.1004 37.5133 66.4323 37.5133 66.6523C37.5133 66.8182 37.5133 67.1778 35.5565 67.1778Z" fill="#2E2020"/>
<path d="M41.0135 67.1778C39.0566 67.1778 39.0566 66.8459 39.0566 66.6523C39.0566 66.4586 39.0566 66.1004 41.0135 66.1004C42.9704 66.1004 42.9691 66.4323 42.9691 66.6523C42.9967 66.8182 42.9967 67.1778 41.0135 67.1778Z" fill="#2E2020"/>
<path d="M17.4764 66.7076C17.3108 66.7076 17.1729 66.5693 17.1729 66.4033V59.4422C17.1729 59.2762 17.3108 59.1379 17.4764 59.1379C17.642 59.1379 17.78 59.2762 17.78 59.4422V66.4033C17.78 66.5693 17.642 66.7076 17.4764 66.7076Z" fill="#2E2020"/>
<path d="M19.3787 83.1415H18.9937C18.0014 83.1415 17.1748 82.3131 17.1748 81.3186V67.9233C17.1748 67.7573 17.3128 67.619 17.4784 67.619C17.644 67.619 17.782 67.7573 17.782 67.9233V81.3186C17.782 81.9825 18.3326 82.5343 18.995 82.5343H19.3801C20.0424 82.5343 20.5931 81.9825 20.5931 81.3186V67.785C20.5931 67.619 20.7311 67.482 20.8967 67.482C21.0623 67.482 21.1989 67.619 21.1989 67.785V81.3186C21.1989 82.3407 20.3723 83.1415 19.3801 83.1415H19.3787Z" fill="#2E2020"/>
<path d="M20.8954 66.8169C20.7298 66.8169 20.5918 66.6786 20.5918 66.5126V59.5792C20.5918 59.4132 20.7298 59.2749 20.8954 59.2749C21.061 59.2749 21.1977 59.4132 21.1977 59.5792V66.5126C21.1977 66.6786 21.061 66.8169 20.8954 66.8169Z" fill="#2E2020"/>
<path d="M19.1593 60.16C18.8281 60.16 17.1748 60.1324 17.1748 59.3882C17.1748 58.644 18.8281 58.615 19.1593 58.615C19.4905 58.615 21.1424 58.6427 21.1424 59.3882C21.17 60.1324 19.4891 60.16 19.1593 60.16ZM17.8911 59.3882C18.1132 59.4712 18.5534 59.5541 19.1593 59.5541C19.7651 59.5541 20.2067 59.4712 20.4262 59.3882C20.2067 59.3039 19.7651 59.2222 19.1593 59.2222C18.5534 59.2222 18.1394 59.3039 17.8911 59.3882Z" fill="#2E2020"/>
<path d="M19.2956 82.4237H19.0748C18.4414 82.4237 17.917 81.8718 17.917 81.208V68.2815C17.917 68.1156 18.055 67.9773 18.2206 67.9773C18.3862 67.9773 18.5255 68.1156 18.5255 68.2815V74.7447V81.208C18.5255 81.5412 18.7725 81.8152 19.0761 81.8152H19.2969C19.6005 81.8152 19.8476 81.5412 19.8476 81.208V68.3368C19.8476 68.1709 19.9856 68.0339 20.1512 68.0339C20.3168 68.0339 20.4547 68.1709 20.4547 68.3368V81.208C20.4547 81.8718 19.9304 82.4237 19.2969 82.4237H19.2956Z" fill="#2E2020"/>
<path d="M19.2126 68.8611C18.909 68.8611 17.9443 68.8058 17.9443 68.2539C17.9443 67.702 18.9103 67.6467 19.2126 67.6467C19.5148 67.6467 20.4795 67.702 20.4795 68.2539C20.4519 68.8058 19.4885 68.8611 19.2126 68.8611Z" fill="#2E2020"/>
<path d="M22.9335 66.8169C22.7679 66.8169 22.6299 66.6786 22.6299 66.5126V59.4409C22.6299 59.2749 22.7679 59.1366 22.9335 59.1366C23.0991 59.1366 23.2371 59.2749 23.2371 59.4409V66.5126C23.2371 66.6786 23.0991 66.8169 22.9335 66.8169Z" fill="#2E2020"/>
<path d="M24.8351 83.1415H24.4501C23.4578 83.1415 22.6299 82.3131 22.6299 81.3186V68.0339C22.6299 67.8679 22.7679 67.7296 22.9335 67.7296C23.0991 67.7296 23.2371 67.8679 23.2371 68.0339V81.3186C23.2371 81.9825 23.7877 82.5343 24.4501 82.5343H24.8351C25.4975 82.5343 26.0482 81.9825 26.0482 81.3186V68.0602C26.0482 67.8943 26.1862 67.7573 26.3517 67.7573C26.5173 67.7573 26.6553 67.8956 26.6553 68.0602V81.3186C26.6553 82.3407 25.8274 83.1415 24.8351 83.1415Z" fill="#2E2020"/>
<path d="M26.3505 66.6786C26.1849 66.6786 26.0469 66.5416 26.0469 66.3743V59.5792C26.0469 59.4132 26.1849 59.2749 26.3505 59.2749C26.516 59.2749 26.654 59.4132 26.654 59.5792V66.3743C26.654 66.5403 26.516 66.6786 26.3505 66.6786Z" fill="#2E2020"/>
<path d="M24.6157 60.16C24.2845 60.16 22.6299 60.1324 22.6299 59.3882C22.6299 58.644 24.2832 58.615 24.6157 58.615C24.9482 58.615 26.5988 58.6427 26.5988 59.3882C26.6264 60.1324 24.9455 60.16 24.6157 60.16ZM23.375 59.3882C23.5945 59.4712 24.0361 59.5541 24.6433 59.5541C25.2504 59.5541 25.6907 59.4712 25.9115 59.3882C25.6907 59.3039 25.2504 59.2222 24.6433 59.2222C24.0361 59.2222 23.5958 59.3039 23.375 59.3882Z" fill="#2E2020"/>
<path d="M24.7536 82.4237H24.5315C23.8981 82.4237 23.375 81.9825 23.375 81.4569V72.0394C23.375 71.8734 23.513 71.7351 23.6786 71.7351C23.8442 71.7351 23.9809 71.8734 23.9809 72.0394V81.4569C23.9809 81.6229 24.2016 81.8152 24.5328 81.8152H24.7549C25.0848 81.8152 25.3056 81.6229 25.3056 81.4569V72.0934C25.3056 71.9274 25.4436 71.7891 25.6079 71.7891C25.7721 71.7891 25.9114 71.9274 25.9114 72.0934V81.4569C25.9114 81.9825 25.3871 82.4237 24.7549 82.4237H24.7536Z" fill="#2E2020"/>
<path d="M24.6692 72.5346C23.8439 72.5346 23.4023 72.3686 23.4023 72.0104C23.4023 71.6798 23.815 71.4861 24.6692 71.4861C25.5235 71.4861 25.9388 71.6521 25.9388 72.0104C25.9112 72.3686 25.4972 72.5346 24.6692 72.5346Z" fill="#2E2020"/>
<path d="M28.3915 66.6786C28.2259 66.6786 28.0879 66.5416 28.0879 66.3743V59.4409C28.0879 59.2749 28.2259 59.1366 28.3915 59.1366C28.5571 59.1366 28.6951 59.2749 28.6951 59.4409V66.3743C28.6951 66.5403 28.5571 66.6786 28.3915 66.6786Z" fill="#2E2020"/>
<path d="M30.2918 83.1416H29.9068C28.9145 83.1416 28.0879 82.3131 28.0879 81.3187V67.951C28.0879 67.785 28.2259 67.6467 28.3915 67.6467C28.5571 67.6467 28.6951 67.785 28.6951 67.951V81.3187C28.6951 81.9825 29.247 82.5344 29.9081 82.5344H30.2931C30.9555 82.5344 31.5062 81.9825 31.5062 81.3187V68.0603C31.5062 67.8943 31.6442 67.7573 31.8084 67.7573C31.9727 67.7573 32.112 67.8956 32.112 68.0603V81.3187C32.112 82.3408 31.2867 83.1416 30.2931 83.1416H30.2918Z" fill="#2E2020"/>
<path d="M31.8072 66.6246C31.6429 66.6246 31.5049 66.4863 31.5049 66.3203V59.5805C31.5049 59.4145 31.6429 59.2762 31.8072 59.2762C31.9714 59.2762 32.1107 59.4145 32.1107 59.5805V66.3203C32.1107 66.4863 31.9741 66.6246 31.8072 66.6246Z" fill="#2E2020"/>
<path d="M30.0724 60.16C29.7412 60.16 28.0879 60.1324 28.0879 59.3882C28.0879 58.644 29.7412 58.615 30.0724 58.615C30.4035 58.615 32.0568 58.6427 32.0568 59.3882C32.0844 60.1324 30.4035 60.16 30.0724 60.16ZM28.8317 59.3882C29.0525 59.4712 29.4941 59.5541 30.0986 59.5541C30.7032 59.5541 31.1461 59.4712 31.3669 59.3882C31.1461 59.3039 30.7045 59.2222 30.0986 59.2222C29.4928 59.2222 29.0525 59.3039 28.8317 59.3882Z" fill="#2E2020"/>
<path d="M30.2087 82.4237H29.9879C29.3544 82.4237 28.8301 81.8982 28.8301 81.2909V69.276C28.8301 69.11 28.9681 68.973 29.1337 68.973C29.2993 68.973 29.4372 69.1113 29.4372 69.276V81.2909C29.4372 81.5952 29.6843 81.8152 29.9866 81.8152H30.2074C30.511 81.8152 30.758 81.5675 30.758 81.2909V69.3036C30.758 69.1377 30.896 68.9994 31.0616 68.9994C31.2272 68.9994 31.3652 69.1377 31.3652 69.3036V81.2646C31.3652 81.8981 30.8421 82.4237 30.2074 82.4237H30.2087Z" fill="#2E2020"/>
<path d="M30.1263 69.8002C29.7399 69.8002 28.8594 69.7462 28.8594 69.2207C28.8594 68.6951 29.7399 68.6411 30.1263 68.6411C30.5127 68.6411 31.3945 68.6951 31.3945 69.2207C31.3669 69.7462 30.4837 69.8002 30.1263 69.8002Z" fill="#2E2020"/>
<path d="M33.8475 66.8445C33.6819 66.8445 33.5439 66.7062 33.5439 66.5416V59.4422C33.5439 59.2762 33.6819 59.1379 33.8475 59.1379C34.0131 59.1379 34.1511 59.2762 34.1511 59.4422V66.5416C34.1511 66.7076 34.0131 66.8445 33.8475 66.8445Z" fill="#2E2020"/>
<path d="M35.7479 83.1415H35.3628C34.3693 83.1415 33.5439 82.3131 33.5439 81.3186V67.868C33.5439 67.702 33.6819 67.5637 33.8475 67.5637C34.0131 67.5637 34.1511 67.702 34.1511 67.868V81.3186C34.1511 81.9825 34.7018 82.5343 35.3641 82.5343H35.7492C36.4116 82.5343 36.9622 81.9825 36.9622 81.3186V67.868C36.9622 67.702 37.1002 67.5637 37.2658 67.5637C37.4314 67.5637 37.5681 67.702 37.5681 67.868V81.3186C37.5681 82.3407 36.7414 83.1415 35.7492 83.1415H35.7479Z" fill="#2E2020"/>
<path d="M37.2645 66.7076C37.0989 66.7076 36.9609 66.5693 36.9609 66.4033V59.5805C36.9609 59.4145 37.0989 59.2762 37.2645 59.2762C37.4301 59.2762 37.5668 59.4145 37.5668 59.5805V66.4033C37.5668 66.5693 37.4288 66.7076 37.2645 66.7076Z" fill="#2E2020"/>
<path d="M35.5284 60.16C35.1985 60.16 33.5439 60.1324 33.5439 59.3882C33.5439 58.644 35.1985 58.615 35.5284 58.615C35.8583 58.615 37.5116 58.6427 37.5116 59.3882C37.5392 60.1324 35.8583 60.16 35.5284 60.16ZM34.2865 59.3882C34.5086 59.4712 34.9488 59.5541 35.5547 59.5541C36.1606 59.5541 36.6008 59.4712 36.8216 59.3882C36.6008 59.3039 36.1606 59.2222 35.5547 59.2222C34.9488 59.2222 34.5086 59.3039 34.2865 59.3882Z" fill="#2E2020"/>
<path d="M35.6667 82.4237H35.4472C34.7849 82.4237 34.2881 82.0931 34.2881 81.6229V74.5248C34.2881 74.3589 34.4261 74.2206 34.5917 74.2206C34.7573 74.2206 34.8953 74.3589 34.8953 74.5248V81.6229C34.8953 81.6782 35.0884 81.8152 35.4485 81.8152H35.668C36.0255 81.8152 36.2187 81.6782 36.2187 81.6229V74.5525C36.2187 74.3865 36.3567 74.2482 36.5209 74.2482C36.6852 74.2482 36.8245 74.3865 36.8245 74.5525V81.6229C36.8245 82.0641 36.3291 82.4237 35.668 82.4237H35.6667Z" fill="#2E2020"/>
<path d="M35.5837 74.9647C34.481 74.9647 34.3154 74.7448 34.3154 74.4958C34.3154 74.2469 34.481 74.0269 35.5837 74.0269C36.6863 74.0269 36.8506 74.2482 36.8506 74.4958C36.823 74.7171 36.685 74.9647 35.5837 74.9647Z" fill="#2E2020"/>
<path d="M39.3032 66.6509C39.1377 66.6509 39.001 66.5139 39.001 66.348V59.4712C39.001 59.3039 39.1377 59.1669 39.3032 59.1669C39.4688 59.1669 39.6068 59.3039 39.6068 59.4712V66.348C39.6068 66.5139 39.4688 66.6509 39.3032 66.6509Z" fill="#2E2020"/>
<path d="M40.1861 83.0033C40.1309 83.0033 40.1033 83.0032 40.0481 82.9756C39.4146 82.6713 39.002 82.0365 39.002 81.3186V67.9233C39.002 67.7573 39.1386 67.619 39.3042 67.619C39.4698 67.619 39.6078 67.7573 39.6078 67.9233V81.3186C39.6078 81.7875 39.8838 82.2301 40.2965 82.4237C40.462 82.5067 40.5172 82.6726 40.4345 82.8386C40.4069 82.9479 40.2965 83.0046 40.1874 83.0046L40.1861 83.0033Z" fill="#2E2020"/>
<path d="M42.7216 75.5179C42.5573 75.5179 42.418 75.3796 42.418 75.215V68.0049C42.418 67.839 42.556 67.7007 42.7216 67.7007C42.8871 67.7007 43.0238 67.839 43.0238 68.0049V75.215C43.0238 75.3796 42.8871 75.5179 42.7216 75.5179Z" fill="#2E2020"/>
<path d="M42.7216 66.6509C42.5573 66.6509 42.418 66.514 42.418 66.348V59.5805C42.418 59.4145 42.556 59.2762 42.7216 59.2762C42.8871 59.2762 43.0238 59.4145 43.0238 59.5805V66.348C43.0238 66.514 42.8871 66.6509 42.7216 66.6509Z" fill="#2E2020"/>
<path d="M40.9854 60.16C40.6543 60.16 39.001 60.1324 39.001 59.3882C39.001 58.644 40.6543 58.615 40.9854 58.615C41.3166 58.615 42.9686 58.6427 42.9686 59.3882C42.9962 60.1324 41.3429 60.16 40.9854 60.16ZM39.7448 59.3882C39.9656 59.4712 40.4059 59.5541 41.013 59.5541C41.6202 59.5541 42.0592 59.4712 42.2799 59.3882C42.0592 59.3039 41.6189 59.2222 41.013 59.2222C40.4072 59.2222 39.9656 59.3039 39.7448 59.3882Z" fill="#2E2020"/>
<path d="M40.4611 82.2854C40.4059 82.2854 40.352 82.2854 40.2955 82.2301C39.9656 82.0365 39.7725 81.7059 39.7725 81.3463V70.3798C39.7725 70.2138 39.9105 70.0768 40.076 70.0768C40.2416 70.0768 40.3783 70.2151 40.3783 70.3798V81.3463C40.3783 81.4846 40.4611 81.6229 40.5991 81.7335C40.7358 81.8152 40.7923 82.0101 40.7095 82.1471C40.653 82.2301 40.5439 82.2854 40.4611 82.2854Z" fill="#2E2020"/>
<path d="M41.9781 77.6174C41.8125 77.6174 41.6758 77.4791 41.6758 77.3132V70.4364C41.6758 70.2704 41.8125 70.1321 41.9781 70.1321C42.1436 70.1321 42.2816 70.2704 42.2816 70.4364V77.3132C42.2816 77.4791 42.1712 77.6174 41.9781 77.6174Z" fill="#2E2020"/>
<path d="M41.0407 70.9053C40.5715 70.9053 39.7725 70.8223 39.7725 70.3521C39.7725 69.8819 40.5715 69.7989 41.0407 69.7989C41.5099 69.7989 42.3076 69.8832 42.3076 70.3521C42.28 70.8487 41.5085 70.9053 41.0407 70.9053Z" fill="#2E2020"/>
<path opacity="0.2" d="M110.629 66.2926C110.629 66.2926 110.189 71.4295 111.345 72.121C113.578 73.4737 115.122 75.215 115.122 77.9204C115.122 81.3463 112.311 84.1083 108.81 84.1083C105.309 84.1083 102.499 81.3463 102.499 77.9204C102.499 75.4916 104.097 73.695 105.999 72.3976C107.101 71.6521 106.467 66.1557 106.467 66.1557C106.467 66.1557 106.881 66.0174 107.598 65.8514C108.342 65.6854 109.167 65.8791 109.637 65.8791C110.133 65.8514 110.629 66.2926 110.629 66.2926Z" fill="#ABDAF5"/>
<path opacity="0.8" d="M115.066 76.8983C115.122 77.2302 115.148 77.5621 115.148 77.9204C115.148 81.3463 112.337 84.1083 108.838 84.1083C105.338 84.1083 102.525 81.3463 102.525 77.9204C102.525 77.5898 102.554 77.2592 102.61 76.9536C102.61 76.9536 103.023 76.8706 103.74 76.6217C104.456 76.3741 107.349 76.1805 108.673 76.2081C109.997 76.2634 114.985 76.4281 115.067 76.8983H115.066Z" fill="#0A9D57"/>
<path d="M108.561 66.8445C106.992 66.8445 106.191 66.6233 106.191 66.182C106.191 65.7408 106.99 65.5195 108.561 65.5195C110.131 65.5195 110.932 65.7395 110.932 66.182C110.932 66.6246 110.133 66.8445 108.561 66.8445ZM107.404 66.182C107.708 66.2084 108.093 66.2373 108.561 66.2373C109.029 66.2373 109.415 66.2097 109.719 66.182C109.416 66.1544 109.03 66.1267 108.561 66.1267C108.092 66.1267 107.708 66.1544 107.404 66.182Z" fill="#2E2020"/>
<path d="M108.837 84.4126C105.2 84.4126 102.224 81.5122 102.224 77.9204C102.224 75.7392 103.437 73.8056 105.834 72.1487C106.495 71.7061 106.44 68.3922 106.193 66.1833C106.165 66.0174 106.303 65.8791 106.467 65.8514C106.633 65.8238 106.772 65.9621 106.798 66.128C106.91 67.0671 107.378 71.8457 106.194 72.6466C103.962 74.1942 102.832 75.9618 102.832 77.9217C102.832 81.154 105.533 83.8054 108.839 83.8054C112.146 83.8054 114.848 81.1803 114.848 77.9217C114.848 75.6299 113.718 73.9176 111.21 72.37C109.943 71.5955 110.273 67.1211 110.328 66.2387C110.357 66.0727 110.494 65.9344 110.66 65.9621C110.825 65.9897 110.963 66.128 110.936 66.2927C110.771 68.3369 110.825 71.4295 111.515 71.8457C114.188 73.475 115.43 75.4073 115.43 77.8941C115.456 81.4846 112.48 84.4126 108.842 84.4126H108.837Z" fill="#2E2020"/>
<path d="M108.864 77.9204C107.266 77.9204 105.723 77.8387 104.592 77.7281C102.911 77.5345 102.581 77.2855 102.581 76.9536C102.581 76.5953 102.911 76.3741 104.592 76.1804C105.723 76.0421 107.237 75.9868 108.864 75.9868C110.491 75.9868 112.005 76.0698 113.136 76.1804C114.816 76.3741 115.146 76.6217 115.146 76.9536C115.146 77.3132 114.816 77.5345 113.136 77.7281C112.005 77.8374 110.49 77.9204 108.864 77.9204ZM103.517 76.9259C104.316 77.1196 106.217 77.3132 108.864 77.3132C111.511 77.3132 113.41 77.1209 114.211 76.9259C113.412 76.7323 111.51 76.5387 108.864 76.5387C106.219 76.5387 104.317 76.7323 103.517 76.9259Z" fill="#2E2020"/>
<path opacity="0.2" d="M122.48 62.7561C122.48 62.7561 122.589 71.3189 123.224 72.258C124.739 74.4958 126.613 76.3464 126.613 78.5566C126.613 81.3463 124.299 83.6105 121.46 83.6105C118.621 83.6105 116.306 81.3463 116.306 78.5566C116.306 76.5677 118.454 73.7767 119.365 72.0934C119.89 71.1253 119.365 62.7021 119.365 62.7021C119.448 62.3979 119.118 62.1226 119.75 62.0949C120.357 62.0686 121.266 61.9843 121.762 62.0949C122.259 62.2332 122.48 62.7575 122.48 62.7575V62.7561Z" fill="#ABDAF5"/>
<path opacity="0.8" d="M126.503 77.7004C126.667 77.9494 126.586 78.28 126.586 78.5829C126.586 81.3726 124.27 83.6381 121.431 83.6381C118.593 83.6381 116.278 81.3726 116.278 78.5829C116.278 78.28 116.334 77.9481 116.416 77.6161C116.416 77.6161 117.52 77.3962 118.456 77.3119C119.394 77.2289 121.186 77.1459 122.315 77.1736C123.471 77.1736 126.228 77.2842 126.504 77.6991L126.503 77.7004Z" fill="#DF2925"/>
<path d="M120.936 63.0051C119.09 63.0051 119.09 62.5625 119.09 62.3979C119.09 62.2332 119.09 61.7907 120.936 61.7907C122.783 61.7907 122.783 62.2319 122.783 62.3979C122.783 62.5638 122.783 63.0051 120.936 63.0051Z" fill="#2E2020"/>
<path d="M121.432 83.9147C118.428 83.9147 115.976 81.5109 115.976 78.5566C115.976 77.0089 117.19 75.0201 118.181 73.4474C118.512 72.8942 118.842 72.3976 119.063 71.9551C119.395 71.3189 119.228 65.9607 119.035 62.7285C119.035 62.5625 119.145 62.4255 119.311 62.3965C119.475 62.3965 119.615 62.5072 119.641 62.6731C119.725 64.0825 120.138 71.2359 119.613 72.2317C119.365 72.6729 119.061 73.1971 118.704 73.7503C117.767 75.269 116.581 77.1749 116.581 78.5566C116.581 81.179 118.759 83.3075 121.432 83.3075C124.105 83.3075 126.283 81.1803 126.283 78.5566C126.283 76.9536 125.18 75.4916 124.05 73.9439C123.694 73.4474 123.306 72.9495 122.949 72.424C122.315 71.4572 122.177 64.2208 122.177 62.7561C122.177 62.5902 122.315 62.4532 122.481 62.4532C122.647 62.4532 122.783 62.5902 122.783 62.7561C122.812 66.0437 123.032 71.4572 123.472 72.0934C123.831 72.6176 124.189 73.1155 124.547 73.5844C125.761 75.215 126.918 76.76 126.918 78.5566C126.89 81.5109 124.438 83.9147 121.434 83.9147H121.432Z" fill="#2E2020"/>
<path d="M121.461 78.6119C120.137 78.6119 118.896 78.5566 117.959 78.4459C116.526 78.28 116.251 78.0877 116.251 77.7544C116.251 77.4212 116.527 77.2302 117.959 77.0642C118.896 76.9536 120.137 76.8983 121.461 76.8983C122.784 76.8983 124.023 76.9536 124.96 77.0642C126.394 77.2302 126.669 77.4238 126.669 77.7544C126.669 78.085 126.394 78.28 124.96 78.4459C124.05 78.5566 122.781 78.6119 121.461 78.6119ZM117.354 77.7557C118.097 77.8954 119.559 78.006 121.461 78.006C123.362 78.006 124.821 77.8954 125.565 77.7557C124.821 77.6188 123.361 77.5081 121.461 77.5081C119.558 77.4805 118.125 77.6188 117.354 77.7557Z" fill="#2E2020"/>
<path opacity="0.2" d="M131.409 64.5804L131.491 68.9994C131.491 68.9994 131.573 69.4143 131.629 69.5789C132.235 71.2096 135.541 78.6936 136.314 82.0918C136.479 82.8373 135.266 83.9424 135.266 83.9687C135.266 84.1624 133.035 84.5496 130.032 84.5496C127.029 84.5496 124.382 84.1913 124.382 83.9687C124.382 83.9424 122.976 82.6713 123.086 82.1195C123.637 79.1085 126.56 71.7628 127.221 69.8002C127.302 69.5526 127.33 69.2207 127.33 69.2207L127.193 64.608C127.662 64.4144 128.241 64.2774 128.736 64.2498C129.233 64.2498 130.004 64.2221 130.472 64.2774C130.94 64.3604 131.409 64.5817 131.409 64.5817V64.5804Z" fill="#ABDAF5"/>
<path opacity="0.8" d="M134.081 75.5456C134.936 77.6175 135.984 80.4902 136.342 82.0931C136.507 82.8386 135.295 83.9437 135.295 83.9701C135.295 84.1637 133.062 84.5509 130.059 84.5509C127.056 84.5509 124.409 84.1927 124.409 83.9701C124.409 83.9437 123.003 82.6727 123.114 82.1208C123.391 80.6298 124.271 78.0337 125.126 75.5746C125.126 75.5746 125.374 75.2427 126.421 75.132C127.468 75.0227 129.205 74.9661 130.196 74.9951C131.216 75.0227 133.777 74.7738 134.081 75.5469V75.5456Z" fill="#0A9D57"/>
<path d="M129.314 65.3259C127.742 65.3259 126.943 65.1059 126.943 64.6634C126.943 64.2208 127.742 64.0009 129.314 64.0009C130.886 64.0009 131.685 64.2221 131.685 64.6634C131.685 65.1046 130.886 65.3259 129.314 65.3259ZM128.158 64.6634C128.46 64.691 128.846 64.7187 129.314 64.7187C129.782 64.7187 130.168 64.691 130.472 64.6634C130.168 64.6357 129.782 64.6081 129.314 64.6081C128.846 64.6081 128.46 64.6081 128.158 64.6634Z" fill="#2E2020"/>
<path d="M130.059 84.8538C128.708 84.8538 127.247 84.7708 126.063 84.6325C124.463 84.4389 124.16 84.3019 124.106 84.1083L124.078 84.0807C123.085 83.1139 122.7 82.5067 122.782 82.0641C123.224 79.7446 124.988 75.0213 126.145 71.8721C126.503 70.9066 126.779 70.1598 126.943 69.6909C126.998 69.5249 127.026 69.3036 127.026 69.2207L126.888 64.6357C126.888 64.4697 127.026 64.3314 127.192 64.3314C127.357 64.3314 127.495 64.4697 127.495 64.6357L127.632 69.2496V69.276C127.632 69.3036 127.604 69.6342 127.495 69.9122C127.33 70.3811 127.054 71.1266 126.695 72.0933C125.593 75.0213 123.775 79.9106 123.361 82.1748C123.361 82.2024 123.333 82.533 124.491 83.6658C124.546 83.7211 124.574 83.7487 124.601 83.7777C124.96 83.9147 127.164 84.2466 130.03 84.2466C132.897 84.2466 134.688 83.9147 135.019 83.7777C135.047 83.7487 135.074 83.7211 135.102 83.6658C136.011 82.7266 136.039 82.2854 136.011 82.1471C135.432 79.634 133.421 74.7447 132.209 71.8444C131.797 70.8486 131.464 70.0768 131.326 69.6606C131.243 69.467 131.189 69.081 131.162 69.0534V68.9981L131.079 64.579C131.079 64.4131 131.217 64.2748 131.383 64.2748C131.548 64.2748 131.686 64.4131 131.686 64.579L131.769 68.9717C131.798 69.11 131.852 69.3576 131.906 69.4683C132.044 69.8832 132.375 70.6563 132.789 71.6231C134.002 74.5511 136.04 79.4391 136.618 82.0088C136.812 82.8096 135.846 83.7764 135.543 84.0793C135.461 84.273 135.131 84.4376 133.809 84.6049C132.763 84.7708 131.41 84.8525 130.061 84.8525L130.059 84.8538Z" fill="#2E2020"/>
<path d="M129.673 76.2635C124.906 76.2635 124.906 75.6826 124.906 75.4626C124.906 75.2427 124.906 74.6605 129.673 74.6605C134.44 74.6605 134.441 75.2414 134.441 75.4626C134.441 75.6839 134.441 76.2635 129.673 76.2635ZM126.201 75.4626C126.945 75.572 128.13 75.6563 129.673 75.6563C131.216 75.6563 132.401 75.5733 133.146 75.4626C132.401 75.352 131.217 75.269 129.673 75.269C128.129 75.269 126.945 75.3797 126.201 75.4626Z" fill="#2E2020"/>
<path opacity="0.2" d="M60.389 65.3812C60.389 65.3812 60.4994 73.944 61.1329 74.8831C62.6482 77.1209 64.5236 78.9702 64.5236 81.1803C64.5236 83.97 62.2079 86.2355 59.3692 86.2355C56.5305 86.2355 54.2148 83.97 54.2148 81.1803C54.2148 79.1928 56.3649 76.4031 57.2743 74.7171C57.7987 73.7503 57.2743 65.3259 57.2743 65.3259C57.2743 65.3259 57.3019 64.857 57.8276 64.774C58.3507 64.6897 58.9 64.608 59.3692 64.6634C59.8095 64.6634 60.389 65.3812 60.389 65.3812Z" fill="#ABDAF5"/>
<path opacity="0.8" d="M64.3836 80.1582C64.3836 80.1582 64.5216 80.822 64.5216 81.1539C64.5216 83.9437 62.206 86.2078 59.3672 86.2078C56.5285 86.2078 54.2129 83.945 54.2129 81.1539C54.2129 80.8497 54.3509 80.1872 54.3509 80.1872C54.3509 80.1872 57.0792 79.7169 59.5315 79.7459C61.8472 79.7736 64.3823 80.1582 64.3823 80.1582H64.3836Z" fill="#0A9D57"/>
<path d="M58.8449 65.6301C56.9971 65.6301 56.9971 65.1876 56.9971 65.0216C56.9971 64.8556 56.9971 64.4144 58.8449 64.4144C60.6926 64.4144 60.6913 64.8583 60.6913 65.0216C60.6913 65.1849 60.6913 65.6301 58.8449 65.6301Z" fill="#2E2020"/>
<path d="M59.3678 86.5398C56.3635 86.5398 53.9111 84.136 53.9111 81.1803C53.9111 79.634 55.1242 77.6451 56.1164 76.0711C56.4463 75.5192 56.7774 75.0213 56.9969 74.5788C57.3268 73.9439 57.1625 68.5858 56.9693 65.3535C56.9693 65.1876 57.0797 65.0506 57.2466 65.0229C57.4109 65.0229 57.5502 65.1349 57.5765 65.2995C57.6593 66.7075 58.0733 73.8623 57.5502 74.8554C57.3005 75.298 56.9969 75.8222 56.6394 76.3754C55.7024 77.8954 54.517 79.7999 54.517 81.1803C54.517 83.8054 56.6933 85.9312 59.3678 85.9312C62.0422 85.9312 64.2185 83.8054 64.2185 81.1803C64.2185 79.5787 63.1172 78.1153 61.987 76.5677C61.6282 76.0711 61.2418 75.5732 60.8844 75.0477C60.2509 74.0822 60.1116 66.8445 60.1116 65.3812C60.1116 65.2152 60.2496 65.0769 60.4152 65.0769C60.5808 65.0769 60.7188 65.2152 60.7188 65.3812C60.7464 68.6675 60.9658 74.0822 61.4074 74.7171C61.7662 75.2413 62.1237 75.7392 62.4825 76.2094C63.6942 77.8387 64.852 79.385 64.852 81.1803C64.8244 84.136 62.3721 86.5398 59.3678 86.5398Z" fill="#2E2020"/>
<path d="M59.3948 81.208C58.0727 81.208 56.832 81.1527 55.8963 81.042C54.4625 80.8761 54.1865 80.6824 54.1865 80.3518C54.1865 80.0212 54.4625 79.8263 55.8963 79.6617C56.8334 79.551 58.0727 79.4957 59.3948 79.4957C60.7169 79.4957 61.9588 79.5497 62.8958 79.6617C64.3296 79.8263 64.6056 80.0199 64.6056 80.3518C64.6056 80.6838 64.3296 80.8774 62.8958 81.042C61.9588 81.1527 60.7195 81.208 59.3948 81.208ZM55.2878 80.3518C56.0317 80.4901 57.4931 80.6008 59.3948 80.6008C61.2964 80.6008 62.7578 80.4901 63.5017 80.3518C62.7578 80.2135 61.2964 80.1042 59.3948 80.1042C57.4931 80.1042 56.033 80.2149 55.2878 80.3518Z" fill="#2E2020"/>
<path opacity="0.2" d="M48.1226 65.4642L48.2054 70.2151C48.2054 70.2151 48.2882 70.6564 48.3434 70.8223C48.9229 72.5899 52.0087 80.6008 52.7249 84.2743C52.8905 85.0751 51.7327 86.2632 51.7327 86.2908C51.7327 86.5108 49.6655 86.898 46.8543 86.898C44.0432 86.898 41.5633 86.5108 41.5633 86.2908C41.5633 86.2632 40.2399 84.9092 40.3503 84.302C40.8747 81.0697 43.603 73.1695 44.2351 71.0712C44.3192 70.7946 44.3468 70.464 44.3468 70.464L44.2088 65.5195C44.2088 65.5195 44.54 65.3259 45.2563 65.2429C46.0001 65.1599 46.4969 65.1322 46.9109 65.1599C47.3235 65.1599 48.1226 65.4628 48.1226 65.4628V65.4642Z" fill="#ABDAF5"/>
<path opacity="0.8" d="M50.521 76.9536C50.521 76.9536 52.3675 82.45 52.7249 84.2466C52.8905 85.0474 51.7327 86.2342 51.7327 86.2632C51.7327 86.4844 49.6655 86.8704 46.8543 86.8704C44.0432 86.8704 41.5633 86.4844 41.5633 86.2632C41.5633 86.2355 40.2399 84.8815 40.3503 84.2743C40.625 82.6173 42.2796 77.1209 42.2796 77.1209C42.2796 77.1209 44.5387 76.5966 46.3576 76.5137C48.2054 76.4307 50.5197 76.9549 50.5197 76.9549L50.521 76.9536Z" fill="#DF2925"/>
<path d="M46.1401 66.2097C45.1202 66.2097 43.9072 66.099 43.9072 65.5208C43.9072 64.9426 45.1202 64.8306 46.1401 64.8306C47.1599 64.8306 48.3716 64.9399 48.3716 65.5208C48.3716 66.1017 47.1586 66.2097 46.1401 66.2097ZM44.9257 65.5208C45.2017 65.5761 45.6157 65.6038 46.1401 65.6038C46.6645 65.6038 47.0771 65.5761 47.3531 65.5208C47.0771 65.4655 46.6631 65.4378 46.1401 65.4378C45.617 65.4378 45.2017 65.4655 44.9257 65.5208Z" fill="#2E2020"/>
<path d="M46.8563 87.201C45.1203 87.201 43.7692 87.0627 43.1069 86.9797C41.6744 86.7861 41.3432 86.6201 41.2617 86.4278L41.2328 86.4002C40.3234 85.3504 39.9659 84.7155 40.0474 84.2743C40.4614 81.7875 42.0871 76.706 43.1897 73.3631C43.5209 72.341 43.7955 71.5125 43.9348 71.0159C44.0163 70.7946 44.0163 70.464 44.0163 70.464L43.8783 65.5471C43.8783 65.3812 44.0163 65.2442 44.1819 65.2442C44.3475 65.2442 44.4855 65.3812 44.4855 65.5471L44.6235 70.4904C44.6235 70.5457 44.5946 70.9053 44.5118 71.2096C44.3751 71.7048 44.0991 72.5346 43.7679 73.5567C42.7481 76.7047 41.0396 81.9522 40.6532 84.3849C40.6256 84.4679 40.6808 84.8538 41.7007 86.0156C41.7559 86.0696 41.7835 86.0985 41.8098 86.1539C42.1685 86.3198 44.2082 86.6504 46.8537 86.6504C49.4992 86.6504 51.1814 86.3185 51.485 86.1539C51.5126 86.1262 51.5389 86.0985 51.5665 86.0419C52.3931 85.0488 52.4772 84.5509 52.4207 84.3573C51.8701 81.6492 49.9947 76.403 48.8658 73.2814C48.4807 72.2317 48.1771 71.3755 48.0405 70.9329C47.9853 70.7406 47.9025 70.3257 47.9025 70.2704V70.2151L47.821 65.4642C47.821 65.2982 47.959 65.1612 48.1246 65.1612C48.2902 65.1612 48.4268 65.2995 48.4268 65.4642L48.5096 70.1874C48.5385 70.3257 48.5924 70.601 48.62 70.7393C48.7567 71.1819 49.0603 72.0104 49.4467 73.0588C50.5756 76.2081 52.4786 81.4556 53.0292 84.219C53.1948 85.0475 52.313 86.0682 52.037 86.4002C51.9555 86.5938 51.6519 86.7874 50.4113 86.952C49.3639 87.118 48.1232 87.201 46.8563 87.201Z" fill="#2E2020"/>
<path d="M46.2761 77.977C43.4361 77.977 42.0049 77.7004 42.0049 77.1485C42.0049 76.5967 43.4374 76.3201 46.2761 76.3201C49.1148 76.3201 50.5473 76.5967 50.5473 77.1485C50.5749 77.7017 49.1148 77.977 46.2761 77.977ZM43.0799 77.1485C43.6858 77.2605 44.7608 77.3685 46.2761 77.3685C47.7914 77.3685 48.8664 77.2592 49.4723 77.1485C48.8664 77.0379 47.7914 76.9273 46.2761 76.9273C44.7608 76.9273 43.6858 77.0379 43.0799 77.1485Z" fill="#2E2020"/>
</svg>
