<svg xmlns="http://www.w3.org/2000/svg" viewBox="0 0 147.4 147.4"><defs><style>.cls-1{fill:#fff;}.cls-2{isolation:isolate;opacity:0.03;}.cls-3{fill:#0b9d58;}</style></defs><g id="Objects"><g id="Objects-2" data-name="Objects"><rect class="cls-1" width="147.4" height="147.4" rx="58.62"/><path class="cls-2" d="M1470.69,323.38v-16.3l-51.93-37.54-9.2,5.91-17,.84-4.33-.84-6.62.8,13.87,2.78-13,13.72s-22.48,35.69,7.67,37.43c6.18.36-18.59,9.54-16.9,13.82L1404,380h8.09C1444.45,380,1468.84,355.42,1470.69,323.38Z" transform="translate(-1323.29 -232.59)"/><path class="cls-3" d="M1385.13,314.76c6.4-4,8.76-14.21,6.74-25.79h-33.26c-2,11.58.35,21.75,6.75,25.79,6.78,4.29,9.89,6.56,9.89,6.56S1378.35,319.05,1385.13,314.76Z" transform="translate(-1323.29 -232.59)"/><path class="cls-3" d="M1358.61,286.89h33.29a8.37,8.37,0,0,0,4.62-4.11c1.94-8.92-13.32-10.93-19.1-11.36v-4.09a2.14,2.14,0,0,0-2.14-2.14h0a2.14,2.14,0,0,0-2.14,2.14h0v4.09c-5.78.43-21,2.44-19.1,11.36A8.43,8.43,0,0,0,1358.61,286.89Z" transform="translate(-1323.29 -232.59)"/><path class="cls-3" d="M1440,285.73a17.09,17.09,0,0,0-6.06-12.58l-.16-.14a17.18,17.18,0,0,0-22.23,0l-.16.14a17.16,17.16,0,0,0-6.06,12.58c-.23,8.69,2.31,15.87,7.44,19.11,6.78,4.29,9.9,6.56,9.9,6.56s3.11-2.27,9.9-6.56C1437.7,301.6,1440.25,294.42,1440,285.73Zm-8.73,17.19c-5.9,3.73-8.6,5.7-8.6,5.7s-2.71-2-8.61-5.7c-4.45-2.82-6.67-9.05-6.46-16.61a14.84,14.84,0,0,1,5.27-10.93l.14-.12a14.93,14.93,0,0,1,19.32,0l.14.12a14.86,14.86,0,0,1,5.27,10.93C1438,293.87,1435.74,300.1,1431.28,302.92Z" transform="translate(-1323.29 -232.59)"/><path class="cls-3" d="M1431.44,276.94l-.13-.11a13.36,13.36,0,0,0-17.27,0l-.13.11a13.34,13.34,0,0,0-4.71,9.78c-.18,6.75,1.8,12.33,5.78,14.85,5.28,3.33,7.7,5.1,7.7,5.1s2.42-1.77,7.69-5.1c4-2.52,6-8.1,5.78-14.85A13.31,13.31,0,0,0,1431.44,276.94Zm-1.9,23.4c-4.71,3-6.86,4.54-6.86,4.54s-2.16-1.57-6.86-4.54c-3.56-2.25-5.32-7.22-5.16-13.24a11.91,11.91,0,0,1,4.2-8.73l.11-.09a11.91,11.91,0,0,1,15.41,0l.11.09a11.84,11.84,0,0,1,4.2,8.73c.16,6-1.6,11-5.15,13.24Z" transform="translate(-1323.29 -232.59)"/><path class="cls-3" d="M1425,322.19a2.13,2.13,0,0,0-2.79-1.14h0l-3.76,1.6c-2.67-5.15-10.49-18.42-17.93-13.13a8.42,8.42,0,0,0-2,5.85h0l6.52,15.31L1411.5,346h0a8.41,8.41,0,0,0,5.59,2.64c9-1.7,4.84-16.53,3-22l3.76-1.6a2.13,2.13,0,0,0,1.14-2.79h0Z" transform="translate(-1323.29 -232.59)"/><path class="cls-3" d="M1396.53,316.06c-11.45,2.68-19.88,8.84-21.1,16.3-1.29,7.93-2.16,11.68-2.16,11.68s3.31,2,9.91,6.54c6.23,4.3,16.51,2.5,26.38-3.89L1403,331.37Z" transform="translate(-1323.29 -232.59)"/></g></g></svg>