<svg id="Capa_1" data-name="Capa 1" xmlns="http://www.w3.org/2000/svg" viewBox="0 0 54.34 32"><defs><style>.cls-1{fill:#fff;}</style></defs><path class="cls-1" d="M324.39,55.22l-10.11-.06a4.14,4.14,0,0,0,.68-2.34,3.14,3.14,0,0,0-2.37-3.11,3.79,3.79,0,0,0,.64-2.21c0-2.14-1.63-3.53-4.14-3.53l-.44,0a2.38,2.38,0,0,0,.93-1.87,3.57,3.57,0,0,0-3.82-3.73H292.1a.85.85,0,0,0-.23,0,22,22,0,0,0-6.57,2.7h-3.95A5.92,5.92,0,0,0,275.44,47v6.48a5.91,5.91,0,0,0,5.9,5.91h3.29c1.23,1.38,5.85,6.33,10.23,7.92a46.1,46.1,0,0,0,6.75,1.82,22.54,22.54,0,0,1,3.65,1,3.48,3.48,0,0,0,1.3.27,2.85,2.85,0,0,0,2.13-1,3.77,3.77,0,0,0,.78-3.83A9.15,9.15,0,0,0,306,62.68l18.24-.51a1.26,1.26,0,0,0,.27,0c1.08-.34,2.92-1.43,2.92-3.39A3.55,3.55,0,0,0,324.39,55.22Zm-.36,5-24.32.67a1,1,0,0,0-.87.58,1,1,0,0,0,.12,1c.52.66,1.38.77,2.48.92a15.69,15.69,0,0,1,1.9.34,9.45,9.45,0,0,1,4.34,2.73,2,2,0,0,1-.51,1.61,1,1,0,0,1-1.16.15,22.73,22.73,0,0,0-4-1.07,43.21,43.21,0,0,1-6.47-1.74c-4.5-1.63-9.64-7.63-9.7-7.69a1,1,0,0,0-.76-.35h-3.74a3.91,3.91,0,0,1-3.9-3.91V47a3.91,3.91,0,0,1,3.91-3.91h4.29a1,1,0,0,0,.63-.23c1.68-1.37,5.28-2.33,6-2.5h13.54a1.6,1.6,0,0,1,1.82,1.73c0,.53-1.69,1.13-3.09,1.27a1,1,0,0,0-.9,1,1,1,0,0,0,.81,1,39.51,39.51,0,0,0,4.69.65c1.42,0,2.14.51,2.14,1.53a1.49,1.49,0,0,1-.82,1.53l-2.6-.06a1,1,0,0,0-1,.91,1,1,0,0,0,.84,1.07l4.14.64A1.21,1.21,0,0,1,313,52.82a2.14,2.14,0,0,1-1,1.87l-3.79.44a1,1,0,0,0,.11,2l16,.09a1.64,1.64,0,0,1,1.12,1.52C325.44,59.55,324.37,60,324,60.18Z" transform="translate(-275.44 -38.34)"/><path class="cls-1" d="M321,47l3.53-3.54L328.07,47a1,1,0,0,0,.71.29,1,1,0,0,0,.7-.29,1,1,0,0,0,0-1.42l-4.24-4.24a1,1,0,0,0-1.41,0l-4.24,4.24A1,1,0,1,0,321,47Z" transform="translate(-275.44 -38.34)"/><path class="cls-1" d="M325.24,47.37a1,1,0,0,0-1.41,0l-4.25,4.24A1,1,0,1,0,321,53l3.53-3.54L328.07,53a1,1,0,0,0,.71.29,1,1,0,0,0,.7-.29,1,1,0,0,0,0-1.42Z" transform="translate(-275.44 -38.34)"/></svg>