<svg width="101" height="72" viewBox="0 0 101 72" fill="none" xmlns="http://www.w3.org/2000/svg">
<g clip-path="url(#clip0_349_7292)">
<path d="M32.3171 70.3779C25.2874 71.328 21.5046 71.5036 15.3539 66.7355C9.42624 62.1403 9.24107 55.4915 8.62976 52.3242C7.67466 47.3758 7.6452 45.4852 5.1149 39.655C3.48957 35.9098 2.88392 35.9911 1.75282 32.8454C1.04123 30.8665 -0.594255 26.1496 0.224656 20.1762C0.454115 18.5021 1.2221 13.3443 4.80935 8.93217C10.3355 2.13533 20.1669 0.0423889 27.7326 1.64742C36.1032 3.42294 36.749 4.49807 44.6958 5.60664C47.1966 5.95557 51.4721 6.33695 56.9215 4.65649C65.8704 1.89702 65.4499 2.14913 70.5226 1.01411C73.8531 0.268845 81.6233 -1.46992 89.3197 2.59777C91.0235 3.49815 96.2704 6.36746 99.1004 12.5747C102.229 19.4367 101.154 27.639 98.3363 33.3206C95.1612 39.7219 89.9162 42.6338 89.7782 48.5238C89.7661 49.0444 89.7513 51.3986 89.7782 54.0667C89.8286 59.0719 89.966 59.3073 89.7782 60.4013C89.0618 64.5788 86.0078 67.2821 85.1936 68.0029C82.3175 70.5487 78.933 71.4404 75.4129 71.8037C61.4916 73.2404 58.4553 66.289 46.6823 68.0029C40.3191 68.9291 38.7683 69.5065 32.3171 70.3785V70.3779Z" fill="#E9E9E9"/>
</g>
<g clip-path="url(#clip1_349_7292)">
<path d="M84.7287 37.7291C84.3912 38.6326 83.8465 39.4458 82.967 39.7859C82.053 40.1393 81.9972 40.7239 82.0132 41.5211C82.0769 44.9995 81.5668 48.3849 80.2462 51.6268C79.9539 52.3416 79.6351 52.9182 78.7317 52.7614C78.3039 53.5347 77.8787 54.308 77.4509 55.0812C78.1232 55.8492 77.6529 56.4577 77.1826 57.0742C73.8905 61.395 69.6471 64.3499 64.4259 65.8406C63.5916 66.0798 63.3498 66.4172 63.294 67.2543C63.1027 70.0843 61.078 71.963 58.2429 71.9789C53.423 72.0055 48.603 72.0055 43.7831 71.9789C40.8816 71.9656 38.8861 70.0843 38.6895 67.1533C38.6416 66.4225 38.4636 66.101 37.7276 65.8831C26.9372 62.697 20.0128 53.4736 19.9916 42.2572C19.9889 41.0773 19.9464 40.1898 18.6684 39.5095C17.1751 38.715 16.6942 36.8177 17.1857 35.21C17.7357 33.4004 19.1148 32.3242 21.1474 32.3003C24.7717 32.2525 28.3986 32.2844 32.0255 32.2844H33.3089C33.3408 32.1249 33.3966 32.016 33.3673 31.9814C30.2559 28.4765 27.1312 24.9874 24.033 21.4719C23.6105 20.9909 23.3873 21.0307 22.8905 21.4001C21.1952 22.657 19.1706 22.4444 17.8952 20.967C16.6198 19.4948 16.7101 17.4434 18.1768 15.9474C20.3158 13.771 22.4972 11.6372 24.6388 9.46357C25.133 8.964 25.6299 8.75142 26.2836 9.09155C27.0143 8.54415 27.6599 7.90906 28.1993 7.17033C27.636 6.12602 28.4703 5.6291 29.0575 5.07639C30.5136 3.70523 32.5463 3.64411 33.9811 4.88772C35.4186 6.13399 35.6763 8.19339 34.4806 9.77713C34.0396 10.3617 34.0289 10.6275 34.5843 11.1217C42.3137 18.0014 50.0246 24.9051 57.7354 31.8087C58.2084 32.2312 58.6521 32.5129 59.2207 31.9575C61.1391 30.0841 62.6138 27.9238 63.674 25.1735C61.3039 25.6252 59.1357 25.5083 56.9888 24.9742C49.2354 23.0423 44.2029 15.1289 45.7573 7.30054C46.1904 5.11891 46.7192 4.61668 48.9591 4.25263C55.6841 3.16314 61.3942 5.90812 65.1726 12.0491C65.5153 11.9641 65.5738 11.6319 65.7226 11.3928C69.214 5.80714 75.3067 3.10468 81.766 4.28186C83.7828 4.64857 84.3514 5.22785 84.7101 7.27662C86.5993 18.0466 77.5705 27.1 66.8253 25.1602C66.0175 25.014 65.797 25.1867 65.5233 25.8909C65.0796 27.0362 64.5296 28.1523 63.9131 29.2179C63.3259 30.2276 62.5952 31.155 61.814 32.2844H64.8431C70.1094 32.2844 75.3731 32.2551 80.6368 32.295C83.7854 32.3189 85.749 34.9789 84.7287 37.7291Z" fill="#F7F9FA"/>
<path d="M84.7287 37.7291C84.3912 38.6326 83.8465 39.4458 82.967 39.7859C82.053 40.1393 81.9972 40.7239 82.0132 41.5211C82.0769 44.9995 81.5668 48.3849 80.2462 51.6268C79.9539 52.3416 79.6351 52.9182 78.7317 52.7614H78.729C77.4908 52.4665 77.7326 51.571 78.0063 50.7764C78.5643 49.1395 79.0532 47.4947 79.3136 45.7807C79.4969 44.5929 79.4783 43.4025 79.5102 42.2093C79.5394 41.1756 79.0638 40.7744 78.0754 40.8196C77.5918 40.8435 77.1029 40.8196 76.6166 40.8196C61.5855 40.8196 46.5571 40.8196 31.526 40.8169C30.774 40.8169 30.0221 40.8435 29.2754 40.7903C29.1665 40.7903 29.0549 40.7824 28.9459 40.7797C28.8715 40.7771 28.7972 40.7771 28.7228 40.7744C27.1418 40.7345 25.5635 40.7585 23.9825 40.7638C22.5504 40.7717 22.4627 40.8701 22.4308 42.2439C22.1837 52.4372 29.3233 61.6022 39.2793 63.8583C40.754 64.1904 42.2393 64.4296 43.7432 64.4641C43.9771 64.4668 44.2109 64.4668 44.4447 64.4588C44.6918 64.4561 44.9389 64.4455 45.1887 64.4269C49.4719 64.4375 53.7578 64.5252 58.0357 64.4057C64.689 64.2223 70.2582 61.6341 74.576 56.4976C74.9453 56.0565 75.2509 55.5595 75.6973 55.1928C76.2446 54.7464 76.8265 54.4621 77.4509 55.0812C78.1232 55.8492 77.6529 56.4577 77.1826 57.0742C73.8905 61.395 69.6471 64.3499 64.4259 65.8406C63.5916 66.0798 63.3498 66.4172 63.294 67.2543C63.1027 70.0843 61.078 71.963 58.2429 71.9789C53.423 72.0055 48.603 72.0055 43.7831 71.9789C40.8816 71.9656 38.8861 70.0843 38.6895 67.1533C38.6416 66.4225 38.4636 66.101 37.7276 65.8831C26.9372 62.697 20.0128 53.4736 19.9916 42.2572C19.9889 41.0773 19.9464 40.1898 18.6684 39.5095C17.1751 38.715 16.6942 36.8177 17.1857 35.21C17.7357 33.4004 19.1148 32.3242 21.1474 32.3003C24.7717 32.2525 28.3986 32.2844 32.0255 32.2844H33.3089C33.3408 32.1249 33.3966 32.016 33.3673 31.9814C30.2559 28.4765 27.1312 24.9874 24.033 21.4719C23.6105 20.9909 23.3873 21.0307 22.8905 21.4001C21.1952 22.657 19.1706 22.4444 17.8952 20.967C16.6198 19.4948 16.7101 17.4434 18.1768 15.9474C20.3158 13.771 22.4972 11.6372 24.6388 9.46357C25.133 8.964 25.6299 8.75142 26.2836 9.09155C27.3676 9.86482 26.6715 10.5477 26.1135 11.135C24.5352 12.7958 22.8878 14.3849 21.2723 16.0085C20.9295 16.3513 20.5761 16.6834 20.252 17.0448C19.6276 17.741 19.0988 18.5488 19.864 19.3753C20.7037 20.2867 21.4477 19.5799 22.1199 18.9767C22.1465 18.9501 22.1757 18.9235 22.2023 18.8943C22.2474 18.8518 22.2926 18.8066 22.3378 18.7614C25.5608 15.5992 28.736 12.3919 31.9166 9.18456C32.4799 8.6159 33.1202 8.00472 32.6712 7.18628C32.626 7.1039 32.5702 7.02152 32.5064 6.93649C32.4746 6.89929 32.4453 6.86209 32.4108 6.82488C31.4941 6.19511 30.7846 6.68405 30.0486 7.21551C29.4455 7.64864 28.7892 8.15619 28.1993 7.17033C27.636 6.12602 28.4703 5.6291 29.0575 5.07639C30.5136 3.70523 32.5463 3.64411 33.9811 4.88772C35.4186 6.13399 35.6763 8.19339 34.4806 9.77713C34.0396 10.3617 34.0289 10.6275 34.5843 11.1217C42.3137 18.0014 50.0246 24.9051 57.7354 31.8087C58.2084 32.2312 58.6521 32.5129 59.2207 31.9575C61.1391 30.0841 62.6138 27.9238 63.674 25.1735C61.3039 25.6252 59.1357 25.5083 56.9888 24.9742C49.2354 23.0423 44.2029 15.1289 45.7573 7.30054C46.1904 5.11891 46.7192 4.61668 48.9591 4.25263C55.6841 3.16314 61.3942 5.90812 65.1726 12.0491C65.5153 11.9641 65.5738 11.6319 65.7226 11.3928C69.214 5.80714 75.3067 3.10468 81.766 4.28186C83.7828 4.64857 84.3514 5.22785 84.7101 7.27662C86.5993 18.0466 77.5705 27.1 66.8253 25.1602C66.0175 25.014 65.797 25.1867 65.5233 25.8909C65.0796 27.0362 64.5296 28.1523 63.9131 29.2179C63.3259 30.2276 62.5952 31.155 61.814 32.2844H64.8431C70.1094 32.2844 75.3731 32.2551 80.6368 32.295C83.7854 32.3189 85.749 34.9789 84.7287 37.7291Z" fill="black"/>
<path d="M78.7294 52.7612H78.7321C78.3043 53.5345 77.8792 54.3078 77.4514 55.081C76.7313 54.7834 76.2211 55.0066 75.7508 55.6284C70.9309 62.0006 64.4768 64.9635 56.5242 64.8253C52.7325 64.7589 48.9382 64.7881 45.1439 64.7722C44.6657 64.6898 44.198 64.5888 43.7436 64.4639C39.9121 63.4249 36.9362 60.9537 34.3668 58.0147C30.3785 53.4521 28.4548 48.0286 28.5983 41.9275C28.6063 41.5369 28.5691 41.1303 28.7232 40.7742C28.7763 40.652 28.8534 40.5351 28.9597 40.4261C30.9471 40.4128 32.9346 40.3862 34.9221 40.3836C49.4617 40.3809 64.0012 40.4022 78.5381 40.349C79.7976 40.3464 80.0154 40.7237 80.0181 41.877C80.0234 45.0551 79.5531 48.1243 78.3202 51.0553C78.012 51.7834 78.0838 52.3148 78.7294 52.7612Z" fill="#F3EA59"/>
<path d="M32.6713 7.18609C32.5118 7.54748 32.1292 7.78398 31.8555 8.06034C29.1692 10.7787 26.4776 13.4945 23.7461 16.1651C22.9729 16.9171 22.4123 17.7143 22.3379 18.7612C22.3272 18.8861 22.3246 19.0137 22.3299 19.1439C21.2564 20.3264 20.3477 20.5283 19.5533 19.7604C18.7721 19.003 18.9156 17.9826 19.9943 16.8958C21.9765 14.8975 23.9614 12.9019 25.9701 10.9276C26.544 10.3642 26.8151 9.81149 26.2836 9.09136C27.0143 8.54396 27.66 7.90887 28.1994 7.17015C28.9779 7.74943 29.5359 7.37476 30.1098 6.79281C30.8884 6.00094 31.7572 5.66878 32.7085 6.55897C32.7722 6.80875 32.7483 7.01337 32.6713 7.18609Z" fill="#5B566D"/>
<path d="M26.5735 34.3223C27.5912 34.3064 28.6062 34.2771 29.6238 34.2771C46.3953 34.2745 63.1695 34.2771 79.941 34.2771C80.382 34.2771 80.8444 34.2213 81.2642 34.325C82.3217 34.5827 82.978 35.2391 82.9302 36.3977C82.8824 37.535 82.2686 38.1887 81.1313 38.3189C80.8683 38.3481 80.5999 38.3428 80.3369 38.3428C62.7231 38.3428 45.112 38.3428 27.4982 38.3428C27.19 38.3428 26.8817 38.3082 26.5735 38.2923C25.3327 37.1337 25.3353 35.6217 26.5788 34.325L26.5735 34.3223Z" fill="#69637E"/>
<path d="M28.9594 40.4288C28.7469 44.7176 29.3607 48.8603 31.2924 52.7293C34.1354 58.4159 38.5382 62.378 44.5565 64.5038C44.7584 64.5755 44.9471 64.6845 45.1437 64.7748C32.6793 65.394 22.1839 55.3999 22.0112 42.7539C21.9899 41.1737 22.7578 40.3845 24.3149 40.3862C25.8639 40.3916 27.4104 40.4128 28.9594 40.4288Z" fill="#F4BC69"/>
<path d="M36.9095 15.9312C42.8799 21.2485 48.8504 26.5657 54.8156 31.8882C54.8634 31.9308 54.8634 32.0317 54.9059 32.1832H41.4504C39.5055 30.4453 37.7066 28.5427 36.216 26.4249C34.0664 23.3769 33.721 20.0739 35.6288 16.7151C35.8971 16.2448 36.1283 15.6097 36.9095 15.9286V15.9312Z" fill="#F3EA59"/>
<path d="M36.9093 15.9312C35.2858 16.9755 34.9749 18.6868 34.8235 20.3769C34.5684 23.2335 35.7003 25.625 37.632 27.6818C38.7799 28.9041 39.9065 30.1451 41.049 31.3727C41.2669 31.6066 41.4369 31.8537 41.4476 32.1832C39.949 32.2124 38.4477 32.2284 36.9491 32.2815C36.3832 32.3028 36.0696 31.9786 35.7375 31.6066C32.3258 27.7774 28.9141 23.9456 25.4812 20.1351C25.056 19.6647 24.9338 19.3804 25.4599 18.8675C27.6175 16.7736 29.7378 14.6398 31.8422 12.4927C32.3019 12.025 32.5915 11.9373 33.107 12.4422C34.3372 13.6406 35.6339 14.7726 36.904 15.9312H36.9093Z" fill="#F4BC69"/>
<path d="M54.983 12.6867C54.3931 12.2881 53.7687 11.9958 53.2692 12.7584C52.8255 13.4334 53.2825 13.9064 53.7634 14.3448C56.4763 16.8108 59.1838 19.2821 61.8914 21.7533C62.3405 22.1626 62.7789 22.5824 63.4299 23.1909C61.0119 23.5895 58.9075 23.4939 56.8164 22.8535C50.357 20.8685 46.4166 14.1907 47.7425 7.56874C47.9125 6.71841 48.2765 6.35967 49.0763 6.24541C50.9682 5.97702 52.8494 5.85213 54.7146 6.41813C55.1371 7.64048 54.6934 8.90535 54.8953 10.1463C55.0308 10.9807 55.4002 11.8257 54.983 12.6867Z" fill="#42D089"/>
<path d="M72.485 18.3042C73.8879 16.9862 75.2882 15.6655 76.6991 14.3555C77.2598 13.8373 77.7247 13.2686 77.0525 12.5804C76.4148 11.924 75.8887 12.4555 75.3546 12.878C74.786 13.3244 74.422 14.0711 73.5877 14.1455C73.2077 13.7177 73.4681 13.3058 73.6488 12.9179C74.8604 10.3217 76.7257 8.30481 79.1596 6.81673C79.8796 6.37562 80.6768 6.09926 81.5536 6.3517C82.1541 6.3331 82.4703 6.54834 82.6563 7.20203C84.503 13.6114 79.877 21.4052 73.3087 22.8907C72.7613 22.9119 72.5408 22.5346 72.4265 22.1014C72.0917 20.8339 71.8367 19.5611 72.485 18.3068V18.3042Z" fill="#77DBA4"/>
<path d="M81.5536 6.3517C78.8275 6.67323 77.1907 8.62368 75.546 10.4864C74.6266 11.5281 73.8773 12.7318 73.5877 14.1455C73.5425 14.3076 73.5479 14.5229 73.4416 14.6212C70.9466 16.9144 68.4383 19.1944 65.7174 21.6736C65.481 19.6966 65.4889 17.9853 65.8689 16.266C67.4127 9.28269 74.996 4.48363 81.551 6.3517H81.5536Z" fill="#42D089"/>
<path d="M54.9831 12.6867C54.4889 10.614 54.1514 8.53599 54.7174 6.41813C59.1361 7.41196 62.1041 10.1277 63.9587 14.1774C64.2005 14.7062 64.0995 15.2031 63.972 15.716C63.677 16.9197 63.515 18.1421 63.5229 19.383C63.5681 19.7311 63.8258 20.1616 63.1908 20.2493C60.454 17.7276 57.7199 15.2084 54.9831 12.6867Z" fill="#77DBA4"/>
<path d="M60.0208 66.72C61.4158 66.6137 61.6974 66.983 61.0836 68.2107C60.608 69.1594 59.9012 69.8529 58.7454 69.8848C55.5224 70.1293 52.2967 69.9592 49.0736 69.9698C48.0693 69.9725 47.025 68.1815 47.3678 67.2541C47.583 66.6721 48.0719 66.8156 48.4864 66.8156C51.9831 66.805 55.4772 66.813 58.9739 66.8077C59.3246 66.8077 59.6834 66.8661 60.0235 66.7173L60.0208 66.72Z" fill="#68637D"/>
<path d="M60.0209 66.72C59.6037 67.0893 59.0936 66.9405 58.6259 66.9432C55.3604 66.9565 52.0948 66.9884 48.8293 66.9326C47.7239 66.914 47.4131 67.1744 47.8222 68.2718C48.2447 69.3985 48.816 69.9379 50.1392 69.8875C53.0035 69.7785 55.8732 69.8715 58.7402 69.8848C58.703 69.9087 58.6658 69.9486 58.6259 69.9512C53.4659 70.1452 48.3058 70.2037 43.1484 69.8901C41.8172 69.8077 41.0387 68.8644 40.6933 67.6128C40.5259 67.007 40.6561 66.6429 41.4612 66.6482C47.6469 66.6961 53.8326 66.7014 60.0182 66.7226L60.0209 66.72Z" fill="#5A556C"/>
<path d="M26.5736 34.3223C25.9705 35.643 25.7207 36.9663 26.5683 38.2896C24.7562 38.3029 22.9441 38.3455 21.1319 38.3136C19.8087 38.2923 19.1072 37.5881 19.0727 36.387C19.0408 35.1886 19.8353 34.317 21.1373 34.2904C22.9494 34.2532 24.7615 34.3064 26.5736 34.3223Z" fill="#5C576E"/>
<path d="M22.3303 19.1439C21.6899 18.0464 22.2213 17.2386 22.9812 16.4813C25.9173 13.545 28.8561 10.6113 31.7868 7.66971C32.1269 7.32958 32.5361 7.03994 32.7088 6.55897C33.5936 7.41727 33.2987 8.24635 32.5706 8.97444C29.1696 12.3784 25.7446 15.7558 22.3303 19.1439Z" fill="#69637E"/>
<path d="M72.4851 18.3042C72.5488 19.5133 72.4266 20.7303 72.7481 21.9287C72.8544 22.3247 72.9235 22.6807 73.3087 22.888C71.3531 23.6134 69.363 23.4912 66.9424 23.2308C68.9724 21.4265 70.7287 19.8667 72.4851 18.3068V18.3042Z" fill="#42CF89"/>
<path d="M63.1909 20.2493C63.5868 20.0713 63.3663 19.6541 63.5231 19.383C63.7383 19.6939 63.7941 20.0447 63.5948 20.3583C63.4965 20.5097 63.2866 20.4406 63.1909 20.2493Z" fill="#36634A"/>
</g>
<defs>
<clipPath id="clip0_349_7292">
<rect width="101" height="72" fill="white" transform="matrix(1 0 0 -1 0 72)"/>
</clipPath>
<clipPath id="clip1_349_7292">
<rect width="68" height="68" fill="white" transform="translate(17 4)"/>
</clipPath>
</defs>
</svg>
