<svg id="Layer_1" data-name="Layer 1" xmlns="http://www.w3.org/2000/svg" viewBox="0 0 194.24 252.9"><defs><style>.cls-1{fill:#fff;}</style></defs><path class="cls-1" d="M516,255a20.36,20.36,0,0,1-6.43-1c-55.09-18.3-90.69-61.86-90.69-111V51.55a13.2,13.2,0,0,1,10.82-13h0C459.88,33.05,486.21,21.7,508,4.81a13.08,13.08,0,0,1,16.07,0c21.75,16.89,48.08,28.24,78.26,33.73a13.2,13.2,0,0,1,10.82,13V143c0,49.11-35.59,92.67-90.68,111A20.47,20.47,0,0,1,516,255ZM516,7.67a7.47,7.47,0,0,0-4.59,1.58c-22.47,17.45-49.63,29.16-80.7,34.82h0a7.58,7.58,0,0,0-6.21,7.48V143c0,46.65,34.09,88.12,86.84,105.64a15,15,0,0,0,9.32,0c52.75-17.52,86.84-59,86.84-105.64V51.55a7.58,7.58,0,0,0-6.21-7.48c-31.07-5.66-58.22-17.37-80.7-34.82A7.47,7.47,0,0,0,516,7.67ZM430.2,41.31h0Z" transform="translate(-418.88 -2.05)"/><path class="cls-1" d="M510.75,156.6a8.34,8.34,0,0,1-5.91-2.45l-21.43-21.42a8.38,8.38,0,0,1,0-11.83l6.32-6.32a8.38,8.38,0,0,1,11.83,0l9.19,9.19,19.69-19.69a8.56,8.56,0,0,1,11.83,0l6.32,6.32a8.37,8.37,0,0,1,0,11.82l-31.93,31.93A8.34,8.34,0,0,1,510.75,156.6Zm-15.11-38.85a2.73,2.73,0,0,0-1.93.8l-6.33,6.33a2.75,2.75,0,0,0,0,3.87l21.43,21.43a2.75,2.75,0,0,0,3.88,0l31.93-31.93a2.72,2.72,0,0,0,.8-1.94,2.76,2.76,0,0,0-.8-1.94h0l-6.32-6.32a2.8,2.8,0,0,0-3.88,0l-21.69,21.68a2.9,2.9,0,0,1-4,0l-11.18-11.18A2.73,2.73,0,0,0,495.64,117.75Z" transform="translate(-418.88 -2.05)"/><path class="cls-1" d="M516,186.11a60.42,60.42,0,1,1,60.41-60.41A60.48,60.48,0,0,1,516,186.11ZM516,70.9a54.8,54.8,0,1,0,54.79,54.8A54.86,54.86,0,0,0,516,70.9Z" transform="translate(-418.88 -2.05)"/></svg>