<svg width="231" height="256" viewBox="0 0 231 256" fill="none" xmlns="http://www.w3.org/2000/svg">
<path d="M227.25 70.77C223.64 74.21 218.13 74.41 214.03 71.22C213.63 70.92 213.27 70.57 212.9 70.24C206.65 64.55 206.65 64.55 200.48 70.71C194.14 77.05 194.14 77.05 199.34 84.43C245.69 150.14 205.8 243.23 126.36 254.74C65.78 263.52 10.59 222.04 2.03 161.29C-6.31 102.15 36.89 46.01 96.22 39.03C99.18 38.68 100.25 37.78 100.08 34.78C99.84 30.79 99.91 26.78 100.06 22.79C100.14 20.6 99.43 19.79 97.24 19.99C95.59 20.14 93.91 20.04 92.25 20.02C85.61 19.9 80.96 15.67 81.06 9.86999C81.17 4.21999 85.69 0.119985 92.06 0.0499854C98.22 -0.0200146 104.38 0.0299854 110.55 0.0299854C116.54 0.0299854 122.54 -0.0500146 128.54 0.0599854C134.75 0.169985 138.85 4.08999 138.96 9.78999C139.07 15.74 134.93 19.8 128.51 20.02C120.01 20.31 120.01 20.31 120.01 28.64C120.01 38.04 119.99 38.14 129.16 39.73C146.88 42.79 162.82 49.9 176.9 61.01C179.39 62.97 180.61 62.69 182.49 60.55C184.9 57.8 187.47 55.13 190.28 52.8C192.82 50.69 192.41 49.28 190.14 47.42C188.48 46.05 186.97 44.45 185.66 42.74C182.49 38.64 182.93 33.11 186.53 29.59C189.93 26.27 195.78 25.42 199.27 28.73C209.17 38.13 218.84 47.78 228.25 57.66C231.77 61.36 230.87 67.32 227.25 70.77Z" fill="#F7F9FA"/>
<path d="M227.25 70.77C223.64 74.21 218.13 74.41 214.03 71.22C213.63 70.92 213.27 70.57 212.9 70.24C206.65 64.55 206.65 64.55 200.48 70.71C194.14 77.05 194.14 77.05 199.34 84.43C245.69 150.14 205.8 243.23 126.36 254.74C65.78 263.52 10.59 222.04 2.03 161.29C-6.31 102.15 36.89 46.01 96.22 39.03C99.18 38.68 100.25 37.78 100.08 34.78C99.84 30.79 99.91 26.78 100.06 22.79C100.14 20.6 99.43 19.79 97.24 19.99C95.59 20.14 93.91 20.04 92.25 20.02C85.61 19.9 80.96 15.67 81.06 9.86999C81.17 4.21999 85.69 0.119985 92.06 0.0499854C98.22 -0.0200146 104.38 0.0299854 110.55 0.0299854C116.54 0.0299854 122.54 -0.0500146 128.54 0.0599854C134.75 0.169985 138.85 4.08999 138.96 9.78999C139.07 15.74 134.93 19.8 128.51 20.02C120.01 20.31 120.01 20.31 120.01 28.64C120.01 38.04 119.99 38.14 129.16 39.73C146.88 42.79 162.82 49.9 176.9 61.01C179.39 62.97 180.61 62.69 182.49 60.55C184.9 57.8 187.47 55.13 190.28 52.8C192.82 50.69 192.41 49.28 190.14 47.42C188.48 46.05 186.97 44.45 185.66 42.74C182.49 38.64 182.93 33.11 186.53 29.59C189.93 26.27 195.78 25.42 199.27 28.73C209.17 38.13 218.84 47.78 228.25 57.66C231.77 61.36 230.87 67.32 227.25 70.77Z" fill="#0B9D58"/>
<path d="M198.96 147.1C198.87 196.39 158.9 236.08 109.56 235.9C60.95 235.72 21.13 195.74 21.07 147.05C21.01 97.97 61.19 57.9 110.36 58C159.35 58.11 199.05 98.03 198.96 147.1Z" fill="#F7F9FA"/>
<path d="M120.01 111.2C120.01 118.68 120.12 126.17 119.95 133.64C119.89 136.27 120.7 137.04 123.31 137C132.45 136.86 141.6 136.9 150.75 136.96C157.68 137 161.91 140.84 161.91 146.94C161.91 153.03 157.68 156.9 150.75 156.93C137.61 156.98 124.48 156.99 111.34 156.93C104.12 156.9 100.09 153.12 100.05 145.94C99.93 126.99 99.94 108.03 100.05 89.08C100.09 82.44 104.62 77.9 110.42 78.12C116.15 78.34 119.91 82.63 119.98 89.26C120.07 96.57 120.01 103.89 120.01 111.2Z" fill="#0B9D58"/>
</svg>
