<svg width="257" height="193" viewBox="0 0 257 193" fill="none" xmlns="http://www.w3.org/2000/svg">
<path d="M1.02001 82.93C1.11001 79.69 3.73001 79.24 6.45001 79.25C17.94 79.28 29.42 79.29 40.9 79.24C43.83 79.23 46.62 79.7 46.55 83.22C46.48 86.38 43.84 86.96 41.1 86.94C35.28 86.9 29.45 86.93 23.63 86.93H6.65001C3.80001 86.94 0.930007 86.57 1.02001 82.93Z" fill="#F7F9FA"/>
<path d="M23.86 113.06C17.87 113.06 11.88 113.05 5.88998 113.07C3.25998 113.08 1.08998 112.25 0.999979 109.32C0.919979 106.35 3.11998 105.42 5.71998 105.41C17.7 105.38 29.68 105.4 41.67 105.39C44.28 105.39 46.55 106.31 46.56 109.16C46.57 112.33 44.16 113.11 41.34 113.08C35.51 113.02 29.69 113.06 23.86 113.06Z" fill="#F7F9FA"/>
<path d="M62.08 127.96C62.01 129.87 60.97 131.16 59.04 131.26C56.22 131.4 53.4 131.3 50.57 131.3C50.57 131.3 50.57 131.31 50.57 131.32C47.92 131.32 45.26 131.4 42.6 131.3C40.41 131.21 39.21 129.69 39.21 127.73C39.21 125.77 40.39 124.17 42.58 124.14C48.06 124.05 53.54 124.01 59.02 124.17C61.18 124.24 62.16 125.85 62.08 127.96Z" fill="#F7F9FA"/>
<path d="M62.08 64.78C61.99 66.92 60.75 68.16 58.59 68.22C55.94 68.3 53.28 68.24 50.62 68.23C47.96 68.23 45.3 68.29 42.65 68.21C40.45 68.13 39.25 66.6 39.2 64.66C39.16 62.71 40.34 61.08 42.53 61.04C48.01 60.95 53.49 60.93 58.97 61.06C61.16 61.11 62.18 62.68 62.08 64.78Z" fill="#F7F9FA"/>
<path d="M16.8 39.17C16.7 35.44 19.56 35.23 22.4 35.24C34.21 35.26 46.03 35.27 57.84 35.22C60.75 35.21 63.6 35.63 63.51 39.14C63.42 42.66 60.43 42.91 57.6 42.89C51.78 42.85 45.96 42.88 40.13 42.88C34.31 42.88 28.49 42.89 22.67 42.87C19.94 42.86 16.9 42.94 16.8 39.17Z" fill="#F7F9FA"/>
<path d="M58.09 157.11C46.11 157.05 34.13 157.07 22.16 157.09C19.46 157.1 16.86 156.76 16.79 153.4C16.7 149.63 19.62 149.46 22.41 149.45C28.4 149.44 34.39 149.45 40.38 149.45C46.2 149.45 52.03 149.47 57.85 149.44C60.74 149.42 63.59 149.9 63.53 153.42C63.46 156.56 60.86 157.12 58.09 157.11Z" fill="#F7F9FA"/>
<path d="M112.5 92.49C114.28 92.91 115.46 94.18 115.52 96C115.59 98.07 114.33 99.42 112.34 99.86C111.23 100.11 110.03 100.01 108.87 100.03C105.98 100.08 102.59 100.22 102.5 96.33C102.4 92.02 106 92.3 110.13 92.32C110.2 92.33 111.39 92.23 112.5 92.49Z" fill="#F7F9FA"/>
<path d="M126.15 127.06C128.52 127.17 129.79 128.54 129.79 130.86C129.79 133.24 124.36 138.35 121.68 138.32C119.59 138.21 118.42 136.81 118.41 134.52C118.4 132.15 123.86 126.95 126.15 127.06Z" fill="#F7F9FA"/>
<path d="M129.81 62.1C129.39 64.05 128.18 65.4 125.78 65.26C123.37 65.12 118.15 59.67 118.4 57.43C118.64 55.15 119.99 53.86 122.39 54.01C124.83 54.16 129.95 59.59 129.81 62.1Z" fill="#F7F9FA"/>
<path d="M164.41 147.6C164.3 149.55 164.82 151.7 163.22 153.23C161.55 154.82 159.64 154.8 157.95 153.15C156.28 151.52 156.35 144.02 158.02 142.41C159.75 140.74 161.63 140.79 163.26 142.43C164.66 143.83 164.37 145.8 164.41 147.6Z" fill="#F7F9FA"/>
<path d="M164.43 44.46C164.3 46.72 164.85 49.22 162.3 50.62C160.34 51.7 158.42 51.14 157.64 49.33C156.25 46.1 156.09 42.56 157.83 39.39C158.87 37.49 161.01 37.54 162.66 38.59C164.8 39.93 164.35 42.34 164.43 44.46Z" fill="#F7F9FA"/>
<path d="M161.06 99.95C158.33 99.88 156.85 98.3 156.86 95.44C156.88 85.46 156.87 75.48 156.86 65.49C156.85 63.02 157.71 61.15 160.42 61.02C163.52 60.87 164.34 63.02 164.37 65.62C164.41 69.61 164.38 73.61 164.39 77.6C164.39 81.43 164.56 85.26 164.34 89.08C164.18 91.77 165.17 92.56 167.74 92.38C170.55 92.19 173.39 92.32 176.22 92.35C178.67 92.38 180.59 93.39 180.7 96.01C180.82 98.64 178.99 99.91 176.54 99.96C171.38 100.07 166.22 100.09 161.06 99.95Z" fill="#F7F9FA"/>
<path d="M195.24 65.26C192.81 65.28 191.6 63.93 191.54 61.6C191.48 59.19 196.69 54.04 199.44 54C201.43 54.12 202.81 55.27 202.85 57.66C202.89 60.01 197.62 65.25 195.24 65.26Z" fill="#F7F9FA"/>
<path d="M191.54 130.66C191.63 128.33 192.88 127 195.31 127.06C197.72 127.12 202.88 132.39 202.86 135.04C202.64 137.05 201.43 138.34 199.04 138.31C196.58 138.27 191.43 133.07 191.54 130.66Z" fill="#F7F9FA"/>
<path d="M218.66 94.95C219.33 96.64 218.83 98.45 217.11 99.21C213.97 100.59 210.65 100.58 207.51 99.22C205.75 98.45 205.33 96.62 205.97 94.95C207.1 92 209.81 92.29 212.3 92.34C214.82 92.26 217.5 92.03 218.66 94.95Z" fill="#F7F9FA"/>
<path d="M224.6 75.37C214.59 44.52 182.5 24.46 151.31 29.53C117.39 35.05 93.42 62.63 93.4 96.16C93.39 130.37 119.81 159.86 153.3 163.04C188.67 166.39 219.93 143.29 226.7 108.76C227.09 106.79 227.08 104.69 229.09 103.55C230.33 102.86 231.69 102.87 232.86 103.75C234.52 104.99 234.69 106.63 234.33 108.64C231.22 126.16 223.04 140.87 209.64 152.53C186.74 172.43 154.58 176.5 127.52 163.13C100.43 149.74 84.03 121.22 86 90.93C88.45 53.51 119.04 23.67 157.21 21.45C193.68 19.34 227.25 45.9 233.95 82.22C234.49 85.16 234.79 88.14 235.05 91.12C235.25 93.37 234.43 95.14 231.89 95.34C229.22 95.55 227.96 94.09 227.74 91.49C227.29 86 226.3 80.61 224.6 75.37Z" fill="#F7F9FA"/>
<path d="M256.69 102.2C252.8 166.58 186.93 208.96 126.37 185.99C123.5 184.9 120.7 184.36 117.66 184.37C98.17 184.43 78.68 184.41 59.2 184.38C57.27 184.37 55.15 184.9 53.62 183.03C52.67 181.87 52.57 180.56 53.13 179.29C54.1 177.05 56.14 177.03 58.2 177.03C72.69 177.05 87.18 177.04 101.68 177.04H108.19C99.69 170.76 92.56 164.7 86.51 157.43C60.7 126.43 57.17 81.39 77.97 46.9C78.74 45.63 79.54 44.32 80.58 43.28C81.72 42.15 83.21 41.9 84.69 42.87C86.22 43.89 87.13 45.26 86.42 47.08C85.88 48.46 85 49.7 84.24 50.99C49.88 109.54 91.05 183.33 158.94 184.89C204.1 185.93 244.47 150.66 248.76 106.45C253.35 59.13 222.61 17.26 176.94 9.12C146.04 3.62 119.44 12.48 97.07 34.35C96.84 34.58 96.6 34.82 96.38 35.07C94.51 37.1 92.36 39.34 89.68 36.8C86.78 34.04 89.11 31.71 91.14 29.62C94.85 25.78 98.83 22.25 103.14 19.09C104.48 18.11 105.8 17.11 108.25 15.29C91.32 15.29 75.71 15.29 60.1 15.28C58.61 15.28 57.07 15.39 55.63 15.1C53.8 14.73 52.8 13.4 52.85 11.49C52.9 9.58 53.88 8.32 55.8 8.08C57.28 7.9 58.79 7.93 60.29 7.93C79.44 7.92 98.6 7.9 117.75 7.96C120.8 7.97 123.6 7.41 126.46 6.33C191.86 -18.36 260.9 32.5 256.69 102.2Z" fill="#F7F9FA"/>
<path d="M256.69 102.2C252.8 166.58 186.93 208.96 126.37 185.99C123.5 184.9 120.7 184.36 117.66 184.37C98.17 184.43 78.68 184.41 59.2 184.38C57.27 184.37 55.15 184.9 53.62 183.03C52.67 181.87 52.57 180.56 53.13 179.29C54.1 177.05 56.14 177.03 58.2 177.03C72.69 177.05 87.18 177.04 101.68 177.04H108.19C99.69 170.76 92.56 164.7 86.51 157.43C60.7 126.43 57.17 81.39 77.97 46.9C78.74 45.63 79.54 44.32 80.58 43.28C81.72 42.15 83.21 41.9 84.69 42.87C86.22 43.89 87.13 45.26 86.42 47.08C85.88 48.46 85 49.7 84.24 50.99C49.88 109.54 91.05 183.33 158.94 184.89C204.1 185.93 244.47 150.66 248.76 106.45C253.35 59.13 222.61 17.26 176.94 9.12C146.04 3.62 119.44 12.48 97.07 34.35C96.84 34.58 96.6 34.82 96.38 35.07C94.51 37.1 92.36 39.34 89.68 36.8C86.78 34.04 89.11 31.71 91.14 29.62C94.85 25.78 98.83 22.25 103.14 19.09C104.48 18.11 105.8 17.11 108.25 15.29C91.32 15.29 75.71 15.29 60.1 15.28C58.61 15.28 57.07 15.39 55.63 15.1C53.8 14.73 52.8 13.4 52.85 11.49C52.9 9.58 53.88 8.32 55.8 8.08C57.28 7.9 58.79 7.93 60.29 7.93C79.44 7.92 98.6 7.9 117.75 7.96C120.8 7.97 123.6 7.41 126.46 6.33C191.86 -18.36 260.9 32.5 256.69 102.2Z" fill="#0B9D58"/>
<path d="M234.33 108.64C231.22 126.16 223.04 140.87 209.64 152.53C186.74 172.43 154.58 176.5 127.52 163.13C100.43 149.74 84.03 121.22 86 90.93C88.45 53.51 119.04 23.67 157.21 21.45C193.68 19.34 227.25 45.9 233.95 82.22C234.49 85.16 234.79 88.14 235.05 91.12C235.25 93.37 234.43 95.14 231.89 95.34C229.22 95.55 227.96 94.09 227.74 91.49C227.29 86 226.3 80.61 224.6 75.37C214.59 44.52 182.5 24.46 151.31 29.53C117.39 35.05 93.42 62.63 93.4 96.16C93.39 130.37 119.81 159.86 153.3 163.04C188.67 166.39 219.93 143.29 226.7 108.76C227.09 106.79 227.08 104.69 229.09 103.55C230.33 102.86 231.69 102.87 232.86 103.75C234.52 104.99 234.69 106.63 234.33 108.64Z" fill="#0B9D58"/>
<path d="M180.7 96.01C180.82 98.64 178.99 99.91 176.54 99.96C171.38 100.07 166.22 100.09 161.06 99.95C158.33 99.88 156.85 98.3 156.86 95.44C156.88 85.46 156.87 75.48 156.86 65.49C156.85 63.02 157.71 61.15 160.42 61.02C163.52 60.87 164.34 63.02 164.37 65.62C164.41 69.61 164.38 73.61 164.39 77.6C164.39 81.43 164.56 85.26 164.34 89.08C164.18 91.77 165.17 92.56 167.74 92.38C170.55 92.19 173.39 92.32 176.22 92.35C178.67 92.38 180.59 93.39 180.7 96.01Z" fill="#0B9D58"/>
<path d="M63.51 39.14C63.42 42.66 60.43 42.91 57.6 42.89C51.78 42.85 45.96 42.88 40.13 42.88C34.31 42.88 28.49 42.89 22.67 42.87C19.94 42.86 16.9 42.94 16.8 39.17C16.7 35.44 19.56 35.23 22.4 35.24C34.21 35.26 46.03 35.27 57.84 35.22C60.75 35.21 63.6 35.63 63.51 39.14Z" fill="#0B9D58"/>
<path d="M63.53 153.42C63.46 156.56 60.86 157.12 58.09 157.11C46.11 157.05 34.13 157.07 22.16 157.09C19.46 157.1 16.86 156.76 16.79 153.4C16.7 149.63 19.62 149.46 22.41 149.45C28.4 149.44 34.39 149.45 40.38 149.45C46.2 149.45 52.03 149.47 57.85 149.44C60.74 149.42 63.59 149.9 63.53 153.42Z" fill="#0B9D58"/>
<path d="M46.55 83.22C46.48 86.38 43.84 86.96 41.1 86.94C35.28 86.9 29.45 86.93 23.63 86.93H6.65001C3.80001 86.94 0.930007 86.57 1.02001 82.93C1.11001 79.69 3.73001 79.24 6.45001 79.25C17.94 79.28 29.42 79.29 40.9 79.24C43.83 79.23 46.62 79.7 46.55 83.22Z" fill="#0B9D58"/>
<path d="M46.56 109.16C46.57 112.33 44.16 113.11 41.34 113.08C35.51 113.02 29.69 113.06 23.86 113.06C17.87 113.06 11.88 113.05 5.88998 113.07C3.25998 113.08 1.08998 112.25 0.999979 109.32C0.919979 106.35 3.11998 105.42 5.71998 105.41C17.7 105.38 29.68 105.4 41.67 105.39C44.28 105.39 46.55 106.31 46.56 109.16Z" fill="#0B9D58"/>
<path d="M62.08 64.78C61.99 66.92 60.75 68.16 58.59 68.22C55.94 68.3 53.28 68.24 50.62 68.23C47.96 68.23 45.3 68.29 42.65 68.21C40.45 68.13 39.25 66.6 39.2 64.66C39.16 62.71 40.34 61.08 42.53 61.04C48.01 60.95 53.49 60.93 58.97 61.06C61.16 61.11 62.18 62.68 62.08 64.78Z" fill="#0B9D58"/>
<path d="M62.08 127.96C62.01 129.87 60.97 131.16 59.04 131.26C56.22 131.4 53.4 131.3 50.57 131.3C50.57 131.3 50.57 131.31 50.57 131.32C47.92 131.32 45.26 131.4 42.6 131.3C40.41 131.21 39.21 129.69 39.21 127.73C39.21 125.77 40.39 124.17 42.58 124.14C48.06 124.05 53.54 124.01 59.02 124.17C61.18 124.24 62.16 125.85 62.08 127.96Z" fill="#0B9D58"/>
<path d="M115.52 96C115.59 98.07 114.33 99.42 112.34 99.86C111.23 100.11 110.03 100.01 108.87 100.03C105.98 100.08 102.59 100.22 102.5 96.33C102.4 92.02 106 92.3 110.13 92.32C110.2 92.33 111.39 92.23 112.5 92.49C114.28 92.91 115.46 94.18 115.52 96Z" fill="#0B9D58"/>
<path d="M217.11 99.21C213.97 100.59 210.65 100.58 207.51 99.22C205.75 98.45 205.33 96.62 205.97 94.95C207.1 92 209.81 92.29 212.3 92.34C214.82 92.26 217.5 92.03 218.66 94.95C219.33 96.64 218.83 98.45 217.11 99.21Z" fill="#0B9D58"/>
<path d="M164.43 44.46C164.3 46.72 164.85 49.22 162.3 50.62C160.34 51.7 158.42 51.14 157.64 49.33C156.25 46.1 156.09 42.56 157.83 39.39C158.87 37.49 161.01 37.54 162.66 38.59C164.8 39.93 164.35 42.34 164.43 44.46Z" fill="#0B9D58"/>
<path d="M164.41 147.6C164.3 149.55 164.82 151.7 163.22 153.23C161.55 154.82 159.64 154.8 157.95 153.15C156.28 151.52 156.35 144.02 158.02 142.41C159.75 140.74 161.63 140.79 163.26 142.43C164.66 143.83 164.37 145.8 164.41 147.6Z" fill="#0B9D58"/>
<path d="M129.81 62.1C129.39 64.05 128.18 65.4 125.78 65.26C123.37 65.12 118.15 59.67 118.4 57.43C118.64 55.15 119.99 53.86 122.39 54.01C124.83 54.16 129.95 59.59 129.81 62.1Z" fill="#0B9D58"/>
<path d="M202.85 57.66C202.89 60.01 197.62 65.25 195.24 65.26C192.81 65.28 191.6 63.93 191.54 61.6C191.48 59.19 196.69 54.04 199.44 54C201.43 54.12 202.81 55.27 202.85 57.66Z" fill="#0B9D58"/>
<path d="M129.79 130.86C129.79 133.24 124.36 138.35 121.68 138.32C119.59 138.21 118.42 136.81 118.41 134.52C118.4 132.15 123.86 126.95 126.15 127.06C128.52 127.17 129.79 128.54 129.79 130.86Z" fill="#0B9D58"/>
<path d="M202.86 135.04C202.64 137.05 201.43 138.34 199.04 138.31C196.58 138.27 191.43 133.07 191.54 130.66C191.63 128.33 192.88 127 195.31 127.06C197.72 127.12 202.88 132.39 202.86 135.04Z" fill="#0B9D58"/>
</svg>
