<svg width="256" height="256" viewBox="0 0 256 256" fill="none" xmlns="http://www.w3.org/2000/svg">
<path d="M0.0799975 139.84C0.139997 136.6 2.91 136.01 5.48 135.99C15.12 135.91 24.75 135.94 34.38 135.97C36.94 135.98 39.32 136.94 39.41 139.71C39.51 142.81 37.01 143.79 34.27 143.83C29.45 143.88 24.64 143.84 19.82 143.84C15 143.84 10.19 143.94 5.37 143.8C2.8 143.73 0.0299975 143.11 0.0799975 139.84Z" fill="#F7F9FA"/>
<path d="M47.37 249.81C48.02 252.57 47.17 254.6 44.58 255.29C42.17 255.94 40.35 254.56 39.96 252.04C39.38 248.36 36.98 247.74 33.84 247.77C25.37 247.84 16.91 247.8 8.44998 247.79C7.28998 247.79 6.10998 247.9 4.96998 247.75C2.58998 247.44 0.0899849 246.88 0.0599849 243.88C0.0199849 240.85 2.50998 240.06 4.88998 239.97C10.03 239.79 15.18 239.92 20.32 239.92C20.32 239.91 20.32 239.9 20.32 239.9C25.13 239.9 29.95 239.78 34.76 239.92C41.55 240.13 45.93 243.75 47.37 249.81Z" fill="#F7F9FA"/>
<path d="M11.81 58.87C11.13 44.93 15.25 32.99 25.81 23.59C34.64 15.74 44.75 15.15 53.92 21.84C55.98 22.77 56.4 21.37 56.94 19.86C58.56 15.28 59.55 10.58 59.72 5.73999C59.82 2.83999 60.23 0.0299948 63.77 0.119995C67.62 0.209995 67.93 3.25999 67.73 6.28999C67.32 12.81 65.96 19.11 63.47 25.16C62.86 26.66 61.69 28.01 62.08 29.81C68.62 37.8 69.13 47.18 62.91 55.35C53.64 67.53 40.96 72.48 25.87 71.76C13.81 72.08 12.38 70.62 11.81 58.87Z" fill="#F7F9FA"/>
<path d="M64 115.95C61.52 115.61 59.97 114.5 59.87 112.15C59.75 109.57 61.23 108.05 63.76 107.99C66.09 107.94 67.54 109.44 67.68 111.67C67.85 114.23 66.15 115.48 64 115.95Z" fill="#F7F9FA"/>
<path d="M38.46 175.85C35.59 175.8 32.17 175.68 32.1 171.94C32.03 168.15 35.47 167.95 38.33 167.92C47.29 167.85 56.25 167.83 65.22 167.93C68.7 167.96 71.36 167.49 72.06 163.25C72.46 160.87 74.55 159.61 76.97 160.56C79.21 161.44 80.02 163.27 79.41 165.82C77.94 171.91 73.59 175.58 66.84 175.83C62.04 176 57.22 175.86 52.4 175.86C47.76 175.86 43.11 175.91 38.46 175.85Z" fill="#F7F9FA"/>
<path d="M79.86 35.54C80.09 33.24 81.6 31.93 83.91 32.03C86.22 32.13 87.65 33.62 87.67 35.87C87.69 38.39 86.1 39.74 83.54 39.96C81.12 39.49 79.6 38.13 79.86 35.54Z" fill="#F7F9FA"/>
<path d="M107.4 245.87C107.86 248.89 106.91 251.1 104.01 251.39C101.39 251.66 100.14 249.77 99.79 246.95C98.53 236.83 92.63 231.82 82.33 231.81C70.19 231.79 58.05 231.8 45.91 231.8C33.11 231.8 20.31 231.81 7.49999 231.79C5.84999 231.79 4.18999 231.97 2.59999 231.21C1.16999 230.53 0.0299924 229.67 -7.57806e-06 227.92C-0.0400076 226.16 1.03999 225.25 2.47999 224.54C4.04999 223.76 5.71999 223.91 7.36999 223.91C32.31 223.9 57.25 223.86 82.19 223.92C95.99 223.95 105.3 232.21 107.4 245.87Z" fill="#F7F9FA"/>
<path d="M123.82 63.96C123.8 61.59 125.2 60.17 127.45 60.02C130.03 59.83 131.32 61.48 131.76 63.91C131.35 66.34 130.08 68 127.5 67.85C125.24 67.73 123.84 66.32 123.82 63.96Z" fill="#F7F9FA"/>
<path d="M32.16 187.88C32.16 183.62 36.25 183.9 39.4 183.9C52.21 183.87 65.03 183.89 77.84 183.89C90.32 183.88 102.79 183.9 115.27 183.88C124.39 183.87 130.8 178.36 131.74 169.3C132.08 166.08 133.23 163.82 136.43 164.44C139.53 165.04 140.07 167.72 139.4 170.77C136.39 184.51 127.42 191.84 113.29 191.85C89 191.87 64.7 191.86 40.41 191.86C40.08 191.86 39.75 191.86 39.41 191.85C36.27 191.77 32.17 192.12 32.16 187.88Z" fill="#F7F9FA"/>
<path d="M53.88 135.97C63.87 135.9 73.87 135.94 83.86 135.94H93.86C106.85 135.93 119.84 136.04 132.83 135.9C142.87 135.79 148.59 129.82 147.84 120.71C147.5 116.65 145.38 113.42 141.77 112.3C137.96 111.11 133.79 111.22 131.31 115.65C130.1 117.81 128.16 118.71 125.85 117.29C123.5 115.85 123.84 113.86 124.88 111.64C127.74 105.58 133.35 104.1 139.02 104.14C145.81 104.19 151.03 107.79 153.77 114.26C158.61 125.66 153.38 137.58 141.67 141.77C137.92 143.12 133.99 143.85 129.95 143.85C105.13 143.83 80.31 143.84 55.49 143.84C54.99 143.84 54.49 143.86 53.99 143.84C51.26 143.68 48.15 143.47 48.09 139.95C48.03 136.39 51.14 135.99 53.88 135.97Z" fill="#F7F9FA"/>
<path d="M162.77 216.28C167.85 222.28 168.75 228.84 166.21 236.24C163.96 242.8 159.2 246.14 152.87 247.62C146.86 249.01 138.98 244.84 136.64 239.58C135.64 237.32 135.94 235.69 137.93 234.45C139.76 233.3 141.76 233.65 142.75 235.43C145.36 240.13 149.63 240.85 153.88 239.43C157.39 238.26 159.64 235.07 159.83 230.95C160.07 225.64 159 221.01 153.79 218.33C150.64 216.72 147.39 215.79 143.77 215.8C121.13 215.88 98.49 215.84 75.86 215.84C53.22 215.84 30.58 215.85 7.94999 215.83C4.67999 215.83 0.229988 216.4 0.199988 211.88C0.179988 207.32 4.64999 207.89 7.89999 207.89C52.51 207.87 97.12 207.81 141.72 207.93C149.69 207.95 157.23 209.73 162.77 216.28Z" fill="#F7F9FA"/>
<path d="M175.64 195.94C175.62 198.18 174.18 199.72 171.88 199.78C169.34 199.84 167.84 198.37 167.8 195.78C167.77 193.36 169.44 192.38 171.18 191.83C174.06 192.07 175.66 193.42 175.64 195.94Z" fill="#F7F9FA"/>
<path d="M227.57 92C230.16 91.95 231.38 93.62 231.71 96.04C231.19 98.47 229.87 100.08 227.29 99.82C225.05 99.6 223.69 98.13 223.78 95.78C223.88 93.44 225.29 92.05 227.57 92Z" fill="#F7F9FA"/>
<path d="M231.71 251.88C231.27 254.29 229.97 255.93 227.4 255.75C225.16 255.59 223.72 254.15 223.79 251.8C223.86 249.21 225.43 247.8 227.96 247.92C230.27 248.04 231.39 249.65 231.71 251.88Z" fill="#F7F9FA"/>
<path d="M188.82 49.7C188.19 49.82 187.56 49.94 186.94 50.07C185.45 55.63 183.58 61.11 183.73 67.01C183.8 69.86 182.48 72.01 179.38 71.81C176.58 71.62 175.71 69.52 175.74 66.85C175.85 58.44 177.93 50.54 181.71 43.06C173.48 31.34 174.52 21.08 185.01 11.41C194.28 2.86999 205.31 -0.630006 217.79 0.149994C220.83 -0.380006 223.73 0.629994 226.69 0.979994C228.97 1.25999 230.28 2.69999 230.67 4.84999C233.65 21.42 230.81 36.34 217.8 48.11C208.67 56.38 198.46 56.82 188.82 49.7Z" fill="#F7F9FA"/>
<path d="M255.64 191.54C255.59 194.01 254.27 195.75 251.69 195.75C249.13 195.76 247.82 194.13 247.72 191.58C247.49 185.25 246.43 179.12 243.64 173.27C228.74 183.51 217.56 177.34 209.54 167.97C199.78 156.56 198.21 143.27 200.69 129.06C201.12 126.59 202.4 125.17 204.89 124.89C207.19 124.63 209.49 124.38 211.79 124.13C225.99 123 238.42 126.86 248.35 137.37C256.85 146.36 257.38 157.03 249.99 166.02C251.71 172.55 254.82 178.7 255.27 185.57C255.4 187.56 255.68 189.55 255.64 191.54Z" fill="#F7F9FA"/>
<path d="M166.21 236.24C163.96 242.8 159.2 246.14 152.87 247.62C146.86 249.01 138.98 244.84 136.64 239.58C135.64 237.32 135.94 235.69 137.93 234.45C139.76 233.3 141.76 233.65 142.75 235.43C145.36 240.13 149.63 240.85 153.88 239.43C157.39 238.26 159.64 235.07 159.83 230.95C160.07 225.64 159 221.01 153.79 218.33C150.64 216.72 147.39 215.79 143.77 215.8C121.13 215.88 98.49 215.84 75.86 215.84C53.22 215.84 30.58 215.85 7.94999 215.83C4.67999 215.83 0.229988 216.4 0.199988 211.88C0.179988 207.32 4.64999 207.89 7.89999 207.89C52.51 207.87 97.12 207.81 141.72 207.93C149.69 207.95 157.23 209.73 162.77 216.28C167.85 222.28 168.75 228.84 166.21 236.24Z" fill="#0B9D58"/>
<path d="M255.64 191.54C255.59 194.01 254.27 195.75 251.69 195.75C249.13 195.76 247.82 194.13 247.72 191.58C247.49 185.25 246.43 179.12 243.64 173.27C228.74 183.51 217.56 177.34 209.54 167.97C199.78 156.56 198.21 143.27 200.69 129.06C201.12 126.59 202.4 125.17 204.89 124.89C207.19 124.63 209.49 124.38 211.79 124.13C213.64 126.06 213.15 128.51 213.07 130.77C212.65 144.16 217.74 155 227.91 163.6C231 166.21 234.34 168.03 239.14 168.29C236.8 163.44 233.9 159.97 230.21 157.12C228.5 155.8 226.7 154.58 225.09 153.14C222.71 151.02 221.79 148.39 223.65 145.6C225.47 142.87 228.21 143.03 230.72 144.55C239.3 149.75 246.1 156.59 249.99 166.02C251.71 172.55 254.82 178.7 255.27 185.57C255.4 187.56 255.68 189.55 255.64 191.54Z" fill="#579F00"/>
<path d="M218.39 21.01C215.75 32.8 209.03 41.77 198.4 47.63C195.46 49.25 192.26 50.13 188.82 49.7C188.19 49.82 187.56 49.94 186.94 50.07C186.39 46.19 189.17 43.67 190.93 40.84C194.14 35.71 198.54 31.64 203.44 28.09C205.02 26.95 207.18 25.55 205.66 23.28C203.9 20.67 201.73 22.43 200.08 23.7C194.23 28.17 189.19 33.45 184.99 39.52C184.07 40.85 183.57 42.6 181.71 43.06C173.48 31.34 174.52 21.08 185.01 11.41C194.28 2.86999 205.31 -0.630011 217.79 0.149989C221.42 6.99999 219.94 14.1 218.39 21.01Z" fill="#6BC700"/>
<path d="M224.47 146.06C222.71 148.76 223.91 151.1 226.55 152.76C231.53 155.88 235.78 159.81 238.97 164.75C239.87 166.15 242.23 167.64 240.93 169.32C239.89 170.67 237.5 170.02 235.76 169.35C223.28 164.52 216.38 154.94 212.85 142.45C211.14 136.4 212.04 130.24 211.79 124.13C225.99 123 238.42 126.86 248.35 137.37C256.85 146.36 257.38 157.03 249.99 166.02C245.54 161.17 242.57 155.07 237.3 150.9C235.22 149.26 233.21 147.52 231.01 146.06C228.92 144.67 226.35 143.2 224.47 146.06Z" fill="#6BC700"/>
<path d="M62.91 55.35C53.64 67.53 40.96 72.48 25.87 71.76C22 63.62 23.74 55.34 26.27 47.51C30.12 35.61 37.39 26.4 50.16 22.83C50.92 22.88 51.6 22.94 52.19 23.03C52.67 23.1 53.1 23.19 53.47 23.3C56.1 24.06 56.05 25.75 53.75 29.34C50.61 34.25 47.05 38.83 42.12 42.15C40.75 43.07 39.36 44.02 38.34 45.37C37.47 46.53 37.23 47.84 38.14 49.06C39.23 50.51 40.48 49.81 41.66 49.11C48.36 45.11 53.4 39.46 57.8 33.13C58.85 31.61 59.39 29.28 62.08 29.81C68.62 37.8 69.13 47.18 62.91 55.35Z" fill="#6BC700"/>
<path d="M141.67 141.77C137.92 143.12 133.99 143.85 129.95 143.85C105.13 143.83 80.31 143.84 55.49 143.84C54.99 143.84 54.49 143.86 53.99 143.84C51.26 143.68 48.15 143.47 48.09 139.95C48.03 136.39 51.14 135.99 53.88 135.97C63.87 135.9 73.87 135.94 83.86 135.94H93.86C106.85 135.93 119.84 136.04 132.83 135.9C142.87 135.79 148.59 129.82 147.84 120.71C147.5 116.65 145.38 113.42 141.77 112.3C137.96 111.11 133.79 111.22 131.31 115.65C130.1 117.81 128.16 118.71 125.85 117.29C123.5 115.85 123.84 113.86 124.88 111.64C127.74 105.58 133.35 104.1 139.02 104.14C145.81 104.19 151.03 107.79 153.77 114.26C158.61 125.66 153.38 137.58 141.67 141.77Z" fill="#F34545"/>
<path d="M139.4 170.77C136.39 184.51 127.42 191.84 113.29 191.85C89 191.87 64.7 191.86 40.41 191.86C40.08 191.86 39.75 191.86 39.41 191.85C36.27 191.77 32.17 192.12 32.16 187.88C32.16 183.62 36.25 183.9 39.4 183.9C52.21 183.87 65.03 183.89 77.84 183.89C90.32 183.88 102.79 183.9 115.27 183.88C124.39 183.87 130.8 178.36 131.74 169.3C132.08 166.08 133.23 163.82 136.43 164.44C139.53 165.04 140.07 167.72 139.4 170.77Z" fill="#F34545"/>
<path d="M104.01 251.39C101.39 251.66 100.14 249.77 99.79 246.95C98.53 236.83 92.63 231.82 82.33 231.81C70.19 231.79 58.05 231.8 45.91 231.8C33.11 231.8 20.31 231.81 7.49999 231.79C5.84999 231.79 4.18999 231.97 2.59999 231.21C1.16999 230.53 0.0299924 229.67 -7.57806e-06 227.92C-0.0400076 226.16 1.03999 225.25 2.47999 224.54C4.04999 223.76 5.71999 223.91 7.36999 223.91C32.31 223.9 57.25 223.86 82.19 223.92C95.99 223.95 105.3 232.21 107.4 245.87C107.86 248.89 106.91 251.1 104.01 251.39Z" fill="#0B9D58"/>
<path d="M53.47 23.3C52.95 23.57 52.1 23.36 51.49 23.51C51.23 23.56 51.02 23.68 50.89 23.92C39.21 25.85 26.98 41.45 25.71 55.51C25.22 61.01 25.98 66.35 25.87 71.76C13.81 72.08 12.38 70.62 11.81 58.87C11.13 44.93 15.25 32.99 25.81 23.59C34.64 15.74 44.75 15.15 53.92 21.84C54.04 22.72 53.83 23.12 53.47 23.3Z" fill="#579F00"/>
<path d="M217.8 48.11C208.67 56.38 198.46 56.82 188.82 49.7C200.68 46.78 209.32 39.79 214.34 28.72C217.63 21.45 219.47 13.77 217.96 5.61999C217.64 3.84999 217.84 1.96999 217.79 0.149994C220.83 -0.380006 223.73 0.629994 226.69 0.979994C228.97 1.25999 230.28 2.69999 230.67 4.84999C233.65 21.42 230.81 36.34 217.8 48.11Z" fill="#57A000"/>
<path d="M67.73 6.28999C67.32 12.81 65.96 19.11 63.47 25.16C62.86 26.66 61.69 28.01 62.08 29.81C57.56 34.79 54.37 40.86 49.13 45.27C46.84 47.2 44.46 48.92 41.91 50.45C39.74 51.76 37.6 51.8 36.35 49.5C35.1 47.21 35.8 44.95 38.07 43.46C42.94 40.26 47.38 36.63 50.62 31.7C51.43 30.45 52.3 29.25 53.18 28.05C55.39 25.01 54.7 23.6 50.89 23.92C51.09 23.78 51.29 23.65 51.49 23.51C51.72 23.35 51.96 23.19 52.19 23.03C52.77 22.64 53.34 22.24 53.92 21.84C55.98 22.77 56.4 21.37 56.94 19.86C58.56 15.28 59.55 10.58 59.72 5.73999C59.82 2.83999 60.23 0.0299948 63.77 0.119995C67.62 0.209995 67.93 3.25999 67.73 6.28999Z" fill="#57A000"/>
<path d="M205.25 28.35C196.98 33.72 191.21 41.29 186.94 50.07C185.45 55.63 183.58 61.11 183.73 67.01C183.8 69.86 182.48 72.01 179.38 71.81C176.58 71.62 175.71 69.52 175.74 66.85C175.85 58.44 177.93 50.54 181.71 43.06C186.06 34.21 192.86 27.55 200.62 21.7C202.97 19.93 205.41 19.63 207.1 22.15C208.72 24.56 207.86 26.65 205.25 28.35Z" fill="#57A000"/>
<path d="M79.41 165.82C77.94 171.91 73.59 175.58 66.84 175.83C62.04 176 57.22 175.86 52.4 175.86C47.76 175.86 43.11 175.91 38.46 175.85C35.59 175.8 32.17 175.68 32.1 171.94C32.03 168.15 35.47 167.95 38.33 167.92C47.29 167.85 56.25 167.83 65.22 167.93C68.7 167.96 71.36 167.49 72.06 163.25C72.46 160.87 74.55 159.61 76.97 160.56C79.21 161.44 80.02 163.27 79.41 165.82Z" fill="#F34545"/>
<path d="M44.58 255.29C42.17 255.94 40.35 254.56 39.96 252.04C39.38 248.36 36.98 247.74 33.84 247.77C25.37 247.84 16.91 247.8 8.44998 247.79C7.28998 247.79 6.10998 247.9 4.96998 247.75C2.58998 247.44 0.0899849 246.88 0.0599849 243.88C0.0199849 240.85 2.50998 240.06 4.88998 239.97C10.03 239.79 15.18 239.92 20.32 239.92C20.32 239.91 20.32 239.9 20.32 239.9C25.13 239.9 29.95 239.78 34.76 239.92C41.55 240.13 45.93 243.75 47.37 249.81C48.02 252.57 47.17 254.6 44.58 255.29Z" fill="#0B9D58"/>
<path d="M39.41 139.71C39.51 142.81 37.01 143.79 34.27 143.83C29.45 143.88 24.64 143.84 19.82 143.84C15 143.84 10.19 143.94 5.37 143.8C2.8 143.73 0.0299975 143.11 0.0799975 139.84C0.139997 136.6 2.91 136.01 5.48 135.99C15.12 135.91 24.75 135.94 34.38 135.97C36.94 135.98 39.32 136.94 39.41 139.71Z" fill="#F34545"/>
<path d="M87.67 35.87C87.69 38.39 86.1 39.74 83.54 39.96C81.12 39.49 79.6 38.13 79.86 35.54C80.09 33.24 81.6 31.93 83.91 32.03C86.22 32.13 87.65 33.62 87.67 35.87Z" fill="#F34545"/>
<path d="M131.76 63.91C131.35 66.34 130.08 68 127.5 67.85C125.24 67.73 123.84 66.32 123.82 63.96C123.8 61.59 125.2 60.17 127.45 60.02C130.03 59.83 131.32 61.48 131.76 63.91Z" fill="#F34545"/>
<path d="M231.71 96.04C231.19 98.47 229.87 100.08 227.29 99.82C225.05 99.6 223.69 98.13 223.78 95.78C223.88 93.44 225.29 92.05 227.57 92C230.16 91.95 231.38 93.62 231.71 96.04Z" fill="#F34545"/>
<path d="M67.68 111.67C67.85 114.23 66.15 115.48 64 115.95C61.52 115.61 59.97 114.5 59.87 112.15C59.75 109.57 61.23 108.05 63.76 107.99C66.09 107.94 67.54 109.44 67.68 111.67Z" fill="#F34545"/>
<path d="M175.64 195.94C175.62 198.18 174.18 199.72 171.88 199.78C169.34 199.84 167.84 198.37 167.8 195.78C167.77 193.36 169.44 192.38 171.18 191.83C174.06 192.07 175.66 193.42 175.64 195.94Z" fill="#F34545"/>
<path d="M231.71 251.88C231.27 254.29 229.97 255.93 227.4 255.75C225.16 255.59 223.72 254.15 223.79 251.8C223.86 249.21 225.43 247.8 227.96 247.92C230.27 248.04 231.39 249.65 231.71 251.88Z" fill="#F34545"/>
</svg>
